<svg width="60" height="60" viewBox="0 0 60 60" fill="none" xmlns="http://www.w3.org/2000/svg">
<rect width="60" height="60" rx="4" fill="url(#paint0_linear)"/>
<path d="M35.5888 26.5885C34.2711 26.5885 33.2358 25.5532 33.2358 24.2355V20.9412C33.2358 20.3765 32.8593 20 32.2946 20H24.7649C22.6942 20 21 21.6942 21 23.7649V36.9419C21 39.0125 22.6942 40.7067 24.7649 40.7067H36.0594C38.1301 40.7067 39.8243 39.0125 39.8243 36.9419V27.5297C39.8243 26.965 39.4478 26.5885 38.8831 26.5885H35.5888ZM32.2946 35.0594H26.6473C26.0826 35.0594 25.7061 34.683 25.7061 34.1182C25.7061 33.5535 26.0826 33.177 26.6473 33.177H32.2946C32.8593 33.177 33.2358 33.5535 33.2358 34.1182C33.2358 34.683 32.8593 35.0594 32.2946 35.0594ZM34.177 31.2946H26.6473C26.0826 31.2946 25.7061 30.9181 25.7061 30.3534C25.7061 29.7886 26.0826 29.4122 26.6473 29.4122H34.177C34.7417 29.4122 35.1182 29.7886 35.1182 30.3534C35.1182 30.9181 34.7417 31.2946 34.177 31.2946Z" fill="white"/>
<defs>
<linearGradient id="paint0_linear" x1="30" y1="0" x2="30" y2="60" gradientUnits="userSpaceOnUse">
<stop stop-color="#01A0D3"/>
<stop offset="1" stop-color="#0168D3" stop-opacity="0.91"/>
</linearGradient>
</defs>
</svg>
