<svg viewBox="0 0 296 596" fill="none" xmlns="http://www.w3.org/2000/svg" xmlns:xlink="http://www.w3.org/1999/xlink">
<path d="M296 168.223C296 168.974 295.392 169.582 294.642 169.582H293.284V125.417H294.642C295.392 125.417 296 126.026 296 126.776V168.223Z" fill="url(#paint0_linear)"/>
<path d="M0 75.8169C0 75.0664 0.607907 74.458 1.3578 74.458H2.7156V98.239H1.3578C0.607907 98.239 0 97.6306 0 96.8801V75.8169Z" fill="url(#paint1_linear)"/>
<path d="M0 127.456C0 126.705 0.607907 126.097 1.3578 126.097H2.7156V169.582H1.3578C0.607907 169.582 0 168.974 0 168.223V127.456Z" fill="url(#paint2_linear)"/>
<path d="M0 181.133C0 180.383 0.607907 179.774 1.3578 179.774H2.7156V223.26H1.3578C0.607907 223.26 0 222.651 0 221.901V181.133Z" fill="url(#paint3_linear)"/>
<path d="M6.11035 41.8444C6.11035 18.9539 24.6515 0.397461 47.5232 0.397461H248.477C271.349 0.397461 289.89 18.9539 289.89 41.8444V554.156C289.89 577.046 271.349 595.603 248.477 595.603H47.5232C24.6515 595.603 6.11035 577.046 6.11035 554.156V41.8444Z" fill="white" filter="url(#filter0_i)"/>
<path fill-rule="evenodd" clip-rule="evenodd" d="M148 578.616C158.499 578.616 167.01 570.098 167.01 559.591C167.01 549.084 158.499 540.566 148 540.566C137.502 540.566 128.991 549.084 128.991 559.591C128.991 570.098 137.502 578.616 148 578.616ZM148 582.013C160.374 582.013 170.404 571.974 170.404 559.591C170.404 547.208 160.374 537.169 148 537.169C135.627 537.169 125.597 547.208 125.597 559.591C125.597 571.974 135.627 582.013 148 582.013Z" fill="#2F559E" fill-opacity="0.1"/>
<path d="M122.882 34.3702C122.882 32.8692 124.098 31.6523 125.597 31.6523H169.726C171.226 31.6523 172.441 32.8692 172.441 34.3702C172.441 35.8712 171.226 37.088 169.726 37.088H125.597C124.098 37.088 122.882 35.8712 122.882 34.3702Z" fill="#2F559E" fill-opacity="0.1"/>
<path d="M144.606 14.6658C144.606 12.7896 146.126 11.2686 148.001 11.2686C149.876 11.2686 151.395 12.7896 151.395 14.6658C151.395 16.5421 149.876 18.0631 148.001 18.0631C146.126 18.0631 144.606 16.5421 144.606 14.6658Z" fill="#2F559E" fill-opacity="0.1"/>
<path d="M96.4043 34.0303C96.4043 30.8406 98.9879 28.2549 102.175 28.2549C105.362 28.2549 107.946 30.8406 107.946 34.0303C107.946 37.2199 105.362 39.8057 102.175 39.8057C98.9879 39.8057 96.4043 37.2199 96.4043 34.0303Z" fill="#2F559E" fill-opacity="0.1"/>
<path d="M18.3301 71.7403C18.3301 70.2393 19.5459 69.0225 21.0457 69.0225H274.954C276.454 69.0225 277.67 70.2393 277.67 71.7403V523.58C277.67 525.081 276.454 526.298 274.954 526.298H21.0457C19.5459 526.298 18.3301 525.081 18.3301 523.58V71.7403Z" fill="url(#pattern0)"/>
<defs>
<filter id="filter0_i" x="6.11035" y="0.397461" width="283.78" height="599.205" filterUnits="userSpaceOnUse" color-interpolation-filters="sRGB">
<feFlood flood-opacity="0" result="BackgroundImageFix"/>
<feBlend mode="normal" in="SourceGraphic" in2="BackgroundImageFix" result="shape"/>
<feColorMatrix in="SourceAlpha" type="matrix" values="0 0 0 0 0 0 0 0 0 0 0 0 0 0 0 0 0 0 127 0" result="hardAlpha"/>
<feOffset dy="4"/>
<feGaussianBlur stdDeviation="85"/>
<feComposite in2="hardAlpha" operator="arithmetic" k2="-1" k3="1"/>
<feColorMatrix type="matrix" values="0 0 0 0 0.7553 0 0 0 0 0.826462 0 0 0 0 0.91 0 0 0 1 0"/>
<feBlend mode="normal" in2="shape" result="effect1_innerShadow"/>
</filter>
<linearGradient id="paint0_linear" x1="296" y1="146.238" x2="293.284" y2="146.221" gradientUnits="userSpaceOnUse">
<stop stop-color="#E9F0F7"/>
<stop offset="1" stop-color="#C7CFD9"/>
</linearGradient>
<linearGradient id="paint1_linear" x1="7.01088e-09" y1="87.028" x2="2.7156" y2="87.0583" gradientUnits="userSpaceOnUse">
<stop stop-color="#E9F0F7"/>
<stop offset="1" stop-color="#C7CFD9"/>
</linearGradient>
<linearGradient id="paint2_linear" x1="6.1523e-08" y1="149.265" x2="2.7156" y2="149.265" gradientUnits="userSpaceOnUse">
<stop stop-color="#E9F0F7"/>
<stop offset="1" stop-color="#C7CFD9"/>
</linearGradient>
<linearGradient id="paint3_linear" x1="0" y1="202.815" x2="2.7156" y2="202.815" gradientUnits="userSpaceOnUse">
<stop stop-color="#E9F0F7"/>
<stop offset="1" stop-color="#C7CFD9"/>
</linearGradient>
</defs>
</svg>
