<?xml version="1.0" encoding="utf-8"?>
<!-- Generator: Adobe Illustrator 22.0.0, SVG Export Plug-In . SVG Version: 6.00 Build 0)  -->
<svg version="1.1" id="Слой_1" xmlns="http://www.w3.org/2000/svg" xmlns:xlink="http://www.w3.org/1999/xlink" x="0px" y="0px"
	 viewBox="0 0 260 460" enable-background="new 0 0 260 460" xml:space="preserve">
<g>
	<g>
		<rect x="0.6" y="0.5" fill="#FFFFFF" width="260" height="460"/>
		
			<linearGradient id="SVGID_1_" gradientUnits="userSpaceOnUse" x1="2.0699" y1="462.3212" x2="255.8402" y2="6.57" gradientTransform="matrix(1 0 0 -1 0 462)">
			<stop  offset="0" style="stop-color:#004DA8"/>
			<stop  offset="1" style="stop-color:#2E98D3"/>
		</linearGradient>
		<rect x="0.6" y="0.5" fill="url(#SVGID_1_)" width="260" height="460"/>
		<g>
			<g>
				<path fill-opacity="1.000000e-02" d="M0.6,0.5v13.8h260V0.5H0.6z"/>
				<path fill="#FFFFFF" d="M254.5,3.9h-16.2c-0.7,0-1.3,0.5-1.3,1.2v5.2c0,0.7,0.6,1.2,1.3,1.2h16.2c0.7,0,1.3-0.5,1.3-1.2V5.1
					C255.7,4.5,255.2,3.9,254.5,3.9z M237.4,5.1c0-0.4,0.4-0.8,0.8-0.8h16.2c0.5,0,0.8,0.4,0.8,0.8v5.2c0,0.4-0.4,0.8-0.8,0.8h-16.2
					c-0.5,0-0.8-0.4-0.8-0.8V5.1z"/>
				<path fill="#FFFFFF" d="M238.1,4.7c-0.2,0-0.3,0.2-0.3,0.3v5.3c0,0.2,0.2,0.3,0.3,0.3h6.6v-6H238.1z"/>
				<path fill="#FFFFFF" d="M257.1,7.7c0,0.7-0.5,1.3-1,1.4V6.4C256.7,6.5,257.1,7,257.1,7.7z"/>
				<path fill="#FFFFFF" d="M214.4,11c1.4,0,2.4-0.9,2.4-2.3c0-1.3-0.9-2.3-2.2-2.3c-0.6,0-1.1,0.2-1.4,0.6H213l0.2-2.2h3.1V4h-3.8
					l-0.4,3.9h0.8c0.3-0.5,0.8-0.8,1.4-0.8c0.9,0,1.5,0.6,1.5,1.6c0,0.9-0.6,1.6-1.5,1.6c-0.8,0-1.4-0.5-1.5-1.2h-0.8
					C212.2,10.2,213.1,11,214.4,11z M220.5,11c1.5,0,2.5-0.8,2.5-2c0-0.9-0.6-1.6-1.4-1.7V7.2c0.7-0.2,1.1-0.8,1.1-1.5
					c0-1.1-0.9-1.8-2.2-1.8c-1.3,0-2.2,0.8-2.2,1.8c0,0.7,0.4,1.3,1.1,1.5v0.1C218.6,7.5,218,8.1,218,9C218,10.2,219,11,220.5,11z
					 M220.5,10.3c-0.9,0-1.6-0.5-1.6-1.3c0-0.8,0.7-1.3,1.6-1.3c0.9,0,1.6,0.5,1.6,1.3C222.1,9.7,221.4,10.3,220.5,10.3z M220.5,6.9
					c-0.8,0-1.3-0.5-1.3-1.2c0-0.7,0.5-1.2,1.3-1.2c0.8,0,1.3,0.5,1.3,1.2C221.8,6.5,221.3,6.9,220.5,6.9z M232.1,10.4
					c-0.4,0-0.7-0.4-0.7-1s0.3-1,0.7-1c0.4,0,0.7,0.4,0.7,1C232.8,9.9,232.5,10.4,232.1,10.4z M232.1,11c0.9,0,1.5-0.7,1.5-1.6
					s-0.6-1.6-1.5-1.6c-0.9,0-1.5,0.7-1.5,1.6C230.7,10.3,231.3,11,232.1,11z M228.2,7.2c0.9,0,1.5-0.7,1.5-1.6c0-1-0.6-1.6-1.5-1.6
					c-0.9,0-1.5,0.7-1.5,1.6C226.7,6.5,227.3,7.2,228.2,7.2z M228.1,10.8l2.3-3.2l2.7-3.6h-0.9l-2.4,3.3l-2.6,3.5H228.1z M228.2,6.6
					c-0.4,0-0.7-0.4-0.7-1s0.3-1,0.7-1c0.4,0,0.7,0.4,0.7,1C228.9,6.2,228.6,6.6,228.2,6.6z"/>
				<path opacity="0.45" fill="#FFFFFF" enable-background="new    " d="M204.7,10.7V8.3l1.2,1.3L204.7,10.7z M205.9,5.9l-1.2,1.2
					V4.8L205.9,5.9z M205,7.7l1.8-1.8l-2.7-2.6H204v3.7L202.2,5l-0.5,0.6l2.2,2.2l-2.2,2.2l0.5,0.6l1.9-1.9v3.7h0.1l2.7-2.7L205,7.7
					z"/>
				<path fill="#FFFFFF" d="M107.4,7.4c0-0.4,0.3-0.7,0.7-0.7h4.2c0.4,0,0.7,0.3,0.7,0.7v2.8c0,0.4-0.3,0.7-0.7,0.7h-4.2
					c-0.4,0-0.7-0.3-0.7-0.7V7.4z"/>
				<path fill="#FFFFFF" d="M110.1,3.9c-1.1,0-2.1,0.9-2.1,2.1v2.1h0.7V6c0-0.8,0.6-1.4,1.4-1.4c0.8,0,1.4,0.6,1.4,1.4v2.1h0.7V6
					C112.2,4.9,111.3,3.9,110.1,3.9z"/>
				<path fill="#FFFFFF" d="M121.5,11c1.5,0,2.4-1.3,2.4-3.5c0-2.3-0.9-3.6-2.4-3.6c-1.5,0-2.4,1.3-2.4,3.6
					C119.1,9.7,120,11,121.5,11z M121.5,10.3c-1,0-1.6-1-1.6-2.8c0-1.8,0.6-2.8,1.6-2.8c1,0,1.6,1,1.6,2.8
					C123.1,9.3,122.5,10.3,121.5,10.3z M127.4,11c1.7,0,2.6-1.3,2.6-3.7c0-0.7-0.1-1.4-0.3-1.9c-0.4-1-1.2-1.5-2.2-1.5
					c-1.4,0-2.4,1-2.4,2.3c0,1.3,0.9,2.3,2.2,2.3c0.8,0,1.5-0.4,1.8-1h0h0h0c0,1.8-0.7,2.8-1.8,2.8c-0.7,0-1.2-0.4-1.4-1h-0.9
					C125.4,10.3,126.2,11,127.4,11z M127.4,7.8c-0.9,0-1.5-0.6-1.5-1.6c0-0.9,0.7-1.6,1.5-1.6c0.9,0,1.5,0.7,1.5,1.6
					C129,7.1,128.3,7.8,127.4,7.8z M131.3,9.5c0,0.4,0.3,0.7,0.7,0.7c0.4,0,0.7-0.3,0.7-0.7c0-0.4-0.3-0.7-0.7-0.7
					C131.6,8.8,131.3,9.1,131.3,9.5z M131.3,5.8c0,0.4,0.3,0.7,0.7,0.7c0.4,0,0.7-0.3,0.7-0.7c0-0.4-0.3-0.7-0.7-0.7
					C131.6,5.1,131.3,5.4,131.3,5.8z M134.1,6L134.1,6l0.8,0v0c0-0.8,0.5-1.3,1.3-1.3c0.8,0,1.3,0.5,1.3,1.2c0,0.5-0.2,0.9-1.1,1.9
					l-2.4,2.6v0.6h4.4v-0.8h-3.2V10l1.6-1.8c1.1-1.2,1.4-1.7,1.4-2.5c0-1.1-0.9-1.9-2.2-1.9C135,3.9,134.1,4.7,134.1,6z M143,10.8
					h0.8V9.4h1V8.7h-1V4h-1.2c-1.2,1.8-2.3,3.5-2.9,4.6v0.8h3.3V10.8z M140.5,8.6c0.8-1.4,1.7-2.8,2.4-3.8h0.1v3.9L140.5,8.6
					L140.5,8.6z"/>
				<path fill="#FFFFFF" d="M56.4,5.2c1.7,0,3.2,0.6,4.4,1.6l0.8-0.9c-1.4-1.2-3.2-2-5.2-2c-2,0-3.8,0.8-5.2,2L52,6.8
					C53.2,5.8,54.7,5.2,56.4,5.2z M56.4,7.8c1,0,1.9,0.4,2.6,0.9l0.9-0.9C59,7,57.7,6.5,56.4,6.5c-1.3,0-2.6,0.5-3.5,1.3l0.9,0.9
					C54.5,8.1,55.4,7.8,56.4,7.8z M58.2,9.6C57.7,9.2,57.1,9,56.4,9c-0.7,0-1.3,0.3-1.8,0.7l1.8,1.9L58.2,9.6z"/>
				<path fill="#FFFFFF" d="M42.6,8.2V7.4h-2.8v0.7h1.9v0.2c0,1.2-0.8,1.9-2.1,1.9c-1.4,0-2.2-1.1-2.2-2.8c0-1.7,0.9-2.8,2.2-2.8
					c1,0,1.7,0.5,2,1.4h0.9c-0.2-1.3-1.3-2.2-2.9-2.2c-1.9,0-3.1,1.4-3.1,3.6c0,2.2,1.2,3.6,3.1,3.6C41.4,11,42.6,9.9,42.6,8.2z
					 M43.5,9.1c0.1,1.2,1.1,1.9,2.5,1.9c1.6,0,2.6-0.8,2.6-2c0-1-0.6-1.5-2-1.9l-0.7-0.2c-0.9-0.2-1.3-0.5-1.3-1.1
					c0-0.7,0.6-1.1,1.5-1.1c0.9,0,1.4,0.4,1.5,1.1h0.9c-0.1-1.1-1.1-1.9-2.4-1.9c-1.4,0-2.4,0.8-2.4,1.9c0,1,0.5,1.5,1.8,1.8
					l0.9,0.2c0.9,0.2,1.4,0.6,1.4,1.2c0,0.7-0.7,1.2-1.6,1.2c-1,0-1.7-0.5-1.8-1.2H43.5z"/>
				<path fill="#FFFFFF" d="M29.4,7.4c0,1.3,1.1,2.4,2.4,2.4c1.3,0,2.4-1.1,2.4-2.4c0-1.3-1.1-2.4-2.4-2.4C30.5,5,29.4,6.1,29.4,7.4
					z M33.8,7.4c0,1.1-0.9,2-2,2c-1.1,0-2-0.9-2-2c0-1.1,0.9-2,2-2C32.9,5.4,33.8,6.3,33.8,7.4z"/>
				<path fill="#FFFFFF" d="M23.5,7.4c0,1.3,1.1,2.4,2.4,2.4s2.4-1.1,2.4-2.4c0-1.3-1.1-2.4-2.4-2.4S23.5,6.1,23.5,7.4z M27.9,7.4
					c0,1.1-0.9,2-2,2c-1.1,0-2-0.9-2-2c0-1.1,0.9-2,2-2C27,5.4,27.9,6.3,27.9,7.4z"/>
				<path fill="#FFFFFF" d="M20,9.8c1.3,0,2.4-1.1,2.4-2.4S21.3,5,20,5s-2.4,1.1-2.4,2.4S18.7,9.8,20,9.8z"/>
				<path fill="#FFFFFF" d="M14.1,9.8c1.3,0,2.4-1.1,2.4-2.4S15.5,5,14.1,5c-1.3,0-2.4,1.1-2.4,2.4S12.8,9.8,14.1,9.8z"/>
				<path fill="#FFFFFF" d="M8.2,9.8c1.3,0,2.4-1.1,2.4-2.4S9.6,5,8.2,5C6.9,5,5.8,6.1,5.8,7.4S6.9,9.8,8.2,9.8z"/>
			</g>
			<path fill="#FFFFFF" d="M39.4,292.9h-1.1v-6.7h1.8l2,4.2l2-4.2h1.8v6.7h-1.1v-5.3l-2.4,4.7h-0.6l-2.4-4.7V292.9z M51.9,292.9h-1
				v-0.7c-0.4,0.5-1,0.8-1.7,0.8c-0.5,0-1-0.2-1.3-0.5c-0.3-0.3-0.5-0.7-0.5-1.2c0-0.5,0.2-0.9,0.6-1.1c0.4-0.3,0.9-0.4,1.5-0.4h1.4
				v-0.2c0-0.7-0.4-1-1.1-1c-0.5,0-1,0.2-1.5,0.5l-0.5-0.7c0.6-0.5,1.3-0.7,2.1-0.7c0.6,0,1.1,0.2,1.5,0.5c0.4,0.3,0.6,0.8,0.6,1.4
				V292.9z M50.8,291v-0.4h-1.2c-0.8,0-1.2,0.2-1.2,0.7c0,0.3,0.1,0.4,0.3,0.6c0.2,0.1,0.5,0.2,0.8,0.2c0.3,0,0.7-0.1,0.9-0.3
				C50.6,291.6,50.8,291.3,50.8,291z M54.5,290.1v2.8h-1.1v-5.1h1.1v0.9c0.2-0.3,0.4-0.6,0.7-0.7c0.3-0.2,0.6-0.3,1-0.3
				c0.6,0,1.1,0.2,1.4,0.5c0.4,0.4,0.5,0.9,0.5,1.5v3.1H57v-2.8c0-0.9-0.4-1.4-1.2-1.4c-0.4,0-0.7,0.1-1,0.4
				C54.6,289.3,54.5,289.7,54.5,290.1z M63.8,292.9h-1v-0.7c-0.4,0.5-1,0.8-1.7,0.8c-0.5,0-1-0.2-1.3-0.5c-0.3-0.3-0.5-0.7-0.5-1.2
				c0-0.5,0.2-0.9,0.6-1.1c0.4-0.3,0.9-0.4,1.5-0.4h1.4v-0.2c0-0.7-0.4-1-1.1-1c-0.5,0-1,0.2-1.5,0.5l-0.5-0.7
				c0.6-0.5,1.3-0.7,2.1-0.7c0.6,0,1.1,0.2,1.5,0.5c0.4,0.3,0.6,0.8,0.6,1.4V292.9z M62.7,291v-0.4h-1.2c-0.8,0-1.2,0.2-1.2,0.7
				c0,0.3,0.1,0.4,0.3,0.6c0.2,0.1,0.5,0.2,0.8,0.2c0.3,0,0.7-0.1,0.9-0.3C62.6,291.6,62.7,291.3,62.7,291z M70.1,287.8v4.5
				c0,0.9-0.2,1.6-0.7,2c-0.5,0.5-1.1,0.7-1.9,0.7c-0.8,0-1.5-0.2-2.1-0.7l0.5-0.8c0.5,0.4,1,0.6,1.5,0.6c0.5,0,0.9-0.1,1.2-0.4
				c0.3-0.3,0.5-0.7,0.5-1.3v-0.7c-0.2,0.3-0.4,0.5-0.7,0.7c-0.3,0.2-0.6,0.3-1,0.3c-0.7,0-1.2-0.2-1.7-0.7
				c-0.4-0.5-0.7-1.1-0.7-1.8s0.2-1.3,0.7-1.8c0.4-0.5,1-0.7,1.7-0.7c0.7,0,1.2,0.3,1.7,0.8v-0.8H70.1z M66.1,290.2
				c0,0.4,0.1,0.8,0.4,1.1c0.3,0.3,0.6,0.5,1.1,0.5c0.4,0,0.8-0.1,1.1-0.4c0.3-0.3,0.4-0.7,0.4-1.1c0-0.4-0.1-0.8-0.4-1.1
				c-0.3-0.3-0.6-0.5-1.1-0.5c-0.4,0-0.8,0.2-1.1,0.5C66.2,289.4,66.1,289.7,66.1,290.2z M76.5,290.8h-4c0,0.4,0.2,0.7,0.5,0.9
				c0.3,0.2,0.7,0.3,1.1,0.3c0.6,0,1.1-0.2,1.5-0.6l0.6,0.7c-0.6,0.6-1.3,0.9-2.2,0.9c-0.7,0-1.3-0.2-1.9-0.7
				c-0.5-0.5-0.8-1.1-0.8-1.9c0-0.8,0.3-1.5,0.8-1.9c0.5-0.5,1.1-0.7,1.8-0.7c0.7,0,1.3,0.2,1.8,0.6c0.5,0.4,0.7,1,0.7,1.7V290.8z
				 M72.5,290h3c0-0.4-0.1-0.8-0.4-1c-0.3-0.2-0.6-0.3-1-0.3c-0.4,0-0.8,0.1-1.1,0.4C72.6,289.2,72.5,289.6,72.5,290z M81,295
				c-0.5,0-0.9-0.2-1.3-0.5l0.5-0.9c0.2,0.2,0.5,0.3,0.7,0.3c0.2,0,0.4-0.1,0.6-0.3c0.2-0.2,0.2-0.4,0.2-0.6c0-0.1-0.7-1.9-2.1-5.3
				h1.2l1.5,3.8l1.5-3.8h1.2l-2.5,6.1c-0.1,0.3-0.4,0.6-0.6,0.8C81.7,294.9,81.3,295,81,295z M87.1,291.6c0.3,0.3,0.7,0.5,1.2,0.5
				c0.5,0,0.9-0.2,1.2-0.5c0.3-0.3,0.5-0.7,0.5-1.2s-0.2-0.9-0.5-1.2c-0.3-0.3-0.7-0.5-1.2-0.5c-0.5,0-0.9,0.2-1.2,0.5
				c-0.3,0.3-0.5,0.7-0.5,1.2S86.7,291.2,87.1,291.6z M90.2,292.2c-0.5,0.5-1.2,0.8-1.9,0.8c-0.8,0-1.4-0.3-1.9-0.8
				c-0.5-0.5-0.8-1.1-0.8-1.9s0.3-1.4,0.8-1.9c0.5-0.5,1.2-0.8,1.9-0.8c0.8,0,1.4,0.3,1.9,0.8c0.5,0.5,0.8,1.1,0.8,1.9
				S90.7,291.7,90.2,292.2z M95.8,290.6v-2.8h1.1v5.1h-1.1V292c-0.2,0.3-0.4,0.6-0.7,0.7c-0.3,0.2-0.6,0.3-1,0.3
				c-0.6,0-1.1-0.2-1.4-0.5c-0.4-0.4-0.5-0.9-0.5-1.5v-3.1h1.1v2.8c0,0.9,0.4,1.4,1.2,1.4c0.4,0,0.7-0.1,1-0.4
				C95.7,291.4,95.8,291,95.8,290.6z M101.2,288.8c-0.5,0-0.9,0.2-1.2,0.5c-0.3,0.3-0.4,0.8-0.4,1.4v2.2h-1.1v-5.1h1.1v1
				c0.2-0.3,0.4-0.6,0.7-0.8c0.3-0.2,0.6-0.3,1-0.3L101.2,288.8C101.2,288.8,101.2,288.8,101.2,288.8z M107.7,287.7
				c0.7,0,1.3,0.2,1.8,0.7c0.5,0.5,0.7,1.1,0.7,1.9s-0.2,1.4-0.7,1.9c-0.5,0.5-1.1,0.7-1.7,0.7c-0.6,0-1.2-0.3-1.7-0.8v2.6H105v-7
				h1.1v0.9C106.5,288,107,287.7,107.7,287.7z M106,290.4c0,0.5,0.1,0.9,0.4,1.2c0.3,0.3,0.7,0.5,1.1,0.5c0.4,0,0.8-0.2,1.1-0.5
				c0.3-0.3,0.5-0.7,0.5-1.2c0-0.5-0.2-0.9-0.5-1.2c-0.3-0.3-0.7-0.5-1.1-0.5c-0.4,0-0.8,0.2-1.1,0.5
				C106.2,289.5,106,289.9,106,290.4z M114.2,288.8c-0.5,0-0.9,0.2-1.2,0.5c-0.3,0.3-0.4,0.8-0.4,1.4v2.2h-1.1v-5.1h1.1v1
				c0.2-0.3,0.4-0.6,0.7-0.8c0.3-0.2,0.6-0.3,1-0.3L114.2,288.8C114.2,288.8,114.2,288.8,114.2,288.8z M116.5,291.6
				c0.3,0.3,0.7,0.5,1.2,0.5c0.5,0,0.9-0.2,1.2-0.5c0.3-0.3,0.5-0.7,0.5-1.2s-0.2-0.9-0.5-1.2c-0.3-0.3-0.7-0.5-1.2-0.5
				c-0.5,0-0.9,0.2-1.2,0.5c-0.3,0.3-0.5,0.7-0.5,1.2S116.2,291.2,116.5,291.6z M119.6,292.2c-0.5,0.5-1.2,0.8-1.9,0.8
				c-0.8,0-1.4-0.3-1.9-0.8c-0.5-0.5-0.8-1.1-0.8-1.9s0.3-1.4,0.8-1.9c0.5-0.5,1.2-0.8,1.9-0.8c0.8,0,1.4,0.3,1.9,0.8
				c0.5,0.5,0.8,1.1,0.8,1.9S120.1,291.7,119.6,292.2z M124.4,287.7c0.7,0,1.3,0.2,1.8,0.7c0.5,0.5,0.7,1.1,0.7,1.9
				s-0.2,1.4-0.7,1.9c-0.5,0.5-1.1,0.7-1.7,0.7c-0.6,0-1.2-0.3-1.7-0.8v2.6h-1.1v-7h1.1v0.9C123.1,288,123.7,287.7,124.4,287.7z
				 M122.7,290.4c0,0.5,0.1,0.9,0.4,1.2c0.3,0.3,0.7,0.5,1.1,0.5c0.4,0,0.8-0.2,1.1-0.5c0.3-0.3,0.5-0.7,0.5-1.2
				c0-0.5-0.2-0.9-0.5-1.2c-0.3-0.3-0.7-0.5-1.1-0.5c-0.4,0-0.8,0.2-1.1,0.5C122.8,289.5,122.7,289.9,122.7,290.4z M132.9,290.8h-4
				c0,0.4,0.2,0.7,0.5,0.9c0.3,0.2,0.7,0.3,1.1,0.3c0.6,0,1.1-0.2,1.5-0.6l0.6,0.7c-0.6,0.6-1.3,0.9-2.2,0.9c-0.7,0-1.3-0.2-1.9-0.7
				c-0.5-0.5-0.8-1.1-0.8-1.9c0-0.8,0.3-1.5,0.8-1.9c0.5-0.5,1.1-0.7,1.8-0.7c0.7,0,1.3,0.2,1.8,0.6c0.5,0.4,0.7,1,0.7,1.7V290.8z
				 M128.9,290h3c0-0.4-0.1-0.8-0.4-1c-0.3-0.2-0.6-0.3-1-0.3c-0.4,0-0.8,0.1-1.1,0.4C129,289.2,128.9,289.6,128.9,290z
				 M136.8,288.8c-0.5,0-0.9,0.2-1.2,0.5c-0.3,0.3-0.4,0.8-0.4,1.4v2.2h-1.1v-5.1h1.1v1c0.2-0.3,0.4-0.6,0.7-0.8
				c0.3-0.2,0.6-0.3,1-0.3L136.8,288.8C136.9,288.8,136.8,288.8,136.8,288.8z M139.3,288.6v2.6c0,0.2,0.1,0.4,0.2,0.6
				c0.1,0.1,0.3,0.2,0.5,0.2s0.5-0.1,0.7-0.3l0.4,0.8c-0.4,0.3-0.8,0.5-1.3,0.5c-0.5,0-0.9-0.2-1.2-0.5c-0.3-0.3-0.5-0.8-0.5-1.3
				v-2.6h-0.7v-0.9h0.7v-1.6h1.1v1.6h1.4v0.9H139.3z M142.7,295c-0.5,0-0.9-0.2-1.3-0.5l0.5-0.9c0.2,0.2,0.5,0.3,0.7,0.3
				c0.2,0,0.4-0.1,0.6-0.3c0.2-0.2,0.2-0.4,0.2-0.6c0-0.1-0.7-1.9-2.1-5.3h1.2l1.5,3.8l1.5-3.8h1.2l-2.5,6.1
				c-0.1,0.3-0.4,0.6-0.6,0.8C143.3,294.9,143,295,142.7,295z M151.6,287.4v0.4h1.4v0.9h-1.4v4.3h-1.1v-4.3h-0.7v-0.9h0.7v-0.4
				c0-0.5,0.2-1,0.5-1.3c0.3-0.3,0.7-0.5,1.2-0.5c0.5,0,0.9,0.2,1.3,0.5l-0.4,0.8c-0.2-0.2-0.4-0.3-0.7-0.3c-0.2,0-0.4,0.1-0.5,0.2
				C151.7,286.9,151.6,287.1,151.6,287.4z M156.7,288.8c-0.5,0-0.9,0.2-1.2,0.5c-0.3,0.3-0.4,0.8-0.4,1.4v2.2H154v-5.1h1.1v1
				c0.2-0.3,0.4-0.6,0.7-0.8c0.3-0.2,0.6-0.3,1-0.3L156.7,288.8C156.8,288.8,156.7,288.8,156.7,288.8z M159,291.6
				c0.3,0.3,0.7,0.5,1.2,0.5c0.5,0,0.9-0.2,1.2-0.5c0.3-0.3,0.5-0.7,0.5-1.2s-0.2-0.9-0.5-1.2c-0.3-0.3-0.7-0.5-1.2-0.5
				c-0.5,0-0.9,0.2-1.2,0.5c-0.3,0.3-0.5,0.7-0.5,1.2S158.7,291.2,159,291.6z M162.1,292.2c-0.5,0.5-1.2,0.8-1.9,0.8
				c-0.8,0-1.4-0.3-1.9-0.8c-0.5-0.5-0.8-1.1-0.8-1.9s0.3-1.4,0.8-1.9c0.5-0.5,1.2-0.8,1.9-0.8c0.8,0,1.4,0.3,1.9,0.8
				c0.5,0.5,0.8,1.1,0.8,1.9S162.6,291.7,162.1,292.2z M165.2,290.1v2.8h-1.1v-5.1h1.1v0.9c0.2-0.3,0.4-0.6,0.7-0.7
				c0.3-0.2,0.7-0.3,1-0.3c0.8,0,1.4,0.3,1.7,1c0.5-0.7,1.1-1,1.9-1c0.6,0,1.1,0.2,1.4,0.5c0.4,0.4,0.5,0.9,0.5,1.5v3.1h-1.1v-2.8
				c0-0.9-0.4-1.4-1.2-1.4c-0.4,0-0.7,0.1-1,0.4c-0.3,0.2-0.4,0.6-0.4,1v2.9h-1.1v-2.8c0-0.5-0.1-0.8-0.3-1.1
				c-0.2-0.2-0.4-0.3-0.8-0.3c-0.4,0-0.7,0.1-1,0.4C165.3,289.3,165.2,289.7,165.2,290.1z M180.8,292.9h-1v-0.7
				c-0.4,0.5-1,0.8-1.7,0.8c-0.5,0-1-0.2-1.3-0.5c-0.3-0.3-0.5-0.7-0.5-1.2c0-0.5,0.2-0.9,0.6-1.1c0.4-0.3,0.9-0.4,1.5-0.4h1.4v-0.2
				c0-0.7-0.4-1-1.1-1c-0.5,0-1,0.2-1.5,0.5l-0.5-0.7c0.6-0.5,1.3-0.7,2.1-0.7c0.6,0,1.1,0.2,1.5,0.5c0.4,0.3,0.6,0.8,0.6,1.4V292.9
				z M179.7,291v-0.4h-1.2c-0.8,0-1.2,0.2-1.2,0.7c0,0.3,0.1,0.4,0.3,0.6c0.2,0.1,0.5,0.2,0.8,0.2c0.3,0,0.7-0.1,0.9-0.3
				C179.6,291.6,179.7,291.3,179.7,291z M183.4,290.1v2.8h-1.1v-5.1h1.1v0.9c0.2-0.3,0.4-0.6,0.7-0.7c0.3-0.2,0.6-0.3,1-0.3
				c0.6,0,1.1,0.2,1.4,0.5c0.4,0.4,0.5,0.9,0.5,1.5v3.1H186v-2.8c0-0.9-0.4-1.4-1.2-1.4c-0.4,0-0.7,0.1-1,0.4
				C183.5,289.3,183.4,289.7,183.4,290.1z M189.2,295c-0.5,0-0.9-0.2-1.3-0.5l0.5-0.9c0.2,0.2,0.5,0.3,0.7,0.3
				c0.2,0,0.4-0.1,0.6-0.3c0.2-0.2,0.2-0.4,0.2-0.6c0-0.1-0.7-1.9-2.1-5.3h1.2l1.5,3.8l1.5-3.8h1.2l-2.5,6.1
				c-0.1,0.3-0.4,0.6-0.6,0.8C189.8,294.9,189.5,295,189.2,295z M196.5,292.9h-1.2l-1.8-5.1h1.1l1.3,3.9l1.3-3.9h1.1l1.3,3.9
				l1.3-3.9h1.1l-1.8,5.1H199l-1.2-3.5L196.5,292.9z M204,290.1v2.8h-1.1v-7.2h1.1v3c0.2-0.3,0.4-0.6,0.7-0.7c0.3-0.2,0.7-0.3,1-0.3
				c0.6,0,1.1,0.2,1.4,0.5c0.4,0.4,0.5,0.9,0.5,1.5v3.1h-1.1v-2.8c0-0.9-0.4-1.4-1.2-1.4c-0.4,0-0.7,0.1-1,0.4
				C204.2,289.3,204,289.7,204,290.1z M214,290.8h-4c0,0.4,0.2,0.7,0.5,0.9c0.3,0.2,0.7,0.3,1.1,0.3c0.6,0,1.1-0.2,1.5-0.6l0.6,0.7
				c-0.6,0.6-1.3,0.9-2.2,0.9c-0.7,0-1.3-0.2-1.9-0.7c-0.5-0.5-0.8-1.1-0.8-1.9c0-0.8,0.3-1.5,0.8-1.9c0.5-0.5,1.1-0.7,1.8-0.7
				c0.7,0,1.3,0.2,1.8,0.6c0.5,0.4,0.7,1,0.7,1.7V290.8z M210,290h3c0-0.4-0.1-0.8-0.4-1c-0.3-0.2-0.6-0.3-1-0.3
				c-0.4,0-0.8,0.1-1.1,0.4C210.1,289.2,210,289.6,210,290z M217.9,288.8c-0.5,0-0.9,0.2-1.2,0.5c-0.3,0.3-0.4,0.8-0.4,1.4v2.2h-1.1
				v-5.1h1.1v1c0.2-0.3,0.4-0.6,0.7-0.8c0.3-0.2,0.6-0.3,1-0.3L217.9,288.8C218,288.8,217.9,288.8,217.9,288.8z M223.9,290.8h-4
				c0,0.4,0.2,0.7,0.5,0.9c0.3,0.2,0.7,0.3,1.1,0.3c0.6,0,1.1-0.2,1.5-0.6l0.6,0.7c-0.6,0.6-1.3,0.9-2.2,0.9c-0.7,0-1.3-0.2-1.9-0.7
				c-0.5-0.5-0.8-1.1-0.8-1.9c0-0.8,0.3-1.5,0.8-1.9c0.5-0.5,1.1-0.7,1.8-0.7c0.7,0,1.3,0.2,1.8,0.6c0.5,0.4,0.7,1,0.7,1.7V290.8z
				 M219.8,290h3c0-0.4-0.1-0.8-0.4-1c-0.3-0.2-0.6-0.3-1-0.3c-0.4,0-0.8,0.1-1.1,0.4C220,289.2,219.8,289.6,219.8,290z"/>
			<path fill="#FFFFFF" d="M119.2,321.2c1.5,0,2.8-1.2,2.8-2.8s-1.2-2.8-2.8-2.8c-1.5,0-2.8,1.2-2.8,2.8S117.6,321.2,119.2,321.2z"
				/>
			<path fill="#FFFFFF" d="M62.8,263.8v9.8h-2v-9.8h-3.5V262h9v1.8H62.8z M74.1,273.6h-1.7v-1.2c-0.7,0.9-1.7,1.3-2.9,1.3
				c-0.9,0-1.7-0.3-2.3-0.8c-0.6-0.5-0.9-1.2-0.9-2.1c0-0.9,0.3-1.5,1-2c0.6-0.4,1.5-0.6,2.6-0.6h2.4V268c0-1.2-0.7-1.8-2-1.8
				c-0.8,0-1.7,0.3-2.6,0.9l-0.8-1.2c1.1-0.8,2.3-1.3,3.7-1.3c1,0,1.9,0.3,2.5,0.8c0.7,0.5,1,1.3,1,2.5V273.6z M72.2,270.3v-0.7
				h-2.1c-1.3,0-2,0.4-2,1.3c0,0.4,0.2,0.8,0.5,1c0.3,0.2,0.8,0.3,1.4,0.3c0.6,0,1.1-0.2,1.6-0.5S72.2,270.9,72.2,270.3z
				 M78.6,273.6h-1.9v-12.3h1.9v7.2l3.6-3.7h2.4l-3.4,3.5l3.6,5.3h-2.3l-2.6-3.9l-1.3,1.4V273.6z M94.6,270h-6.9
				c0,0.6,0.3,1.2,0.9,1.6c0.5,0.4,1.2,0.6,1.9,0.6c1.1,0,2-0.3,2.5-1l1.1,1.2c-1,1-2.2,1.5-3.7,1.5c-1.2,0-2.3-0.4-3.2-1.2
				c-0.9-0.8-1.3-1.9-1.3-3.3c0-1.4,0.4-2.5,1.3-3.3c0.9-0.8,1.9-1.2,3.1-1.2c1.2,0,2.2,0.4,3.1,1.1c0.8,0.7,1.3,1.7,1.3,3V270z
				 M87.7,268.6h5.1c0-0.7-0.2-1.3-0.7-1.7s-1-0.6-1.7-0.6c-0.7,0-1.3,0.2-1.8,0.6C87.9,267.3,87.7,267.8,87.7,268.6z M106,264.7
				c1.2,0,2.2,0.4,3,1.2c0.8,0.8,1.3,1.9,1.3,3.3s-0.4,2.5-1.3,3.3c-0.8,0.8-1.8,1.3-2.9,1.3c-1.1,0-2.1-0.5-3-1.5v1.3h-1.9v-12.3
				h1.9v5C103.8,265.2,104.8,264.7,106,264.7z M103,269.2c0,0.8,0.3,1.5,0.8,2.1c0.5,0.5,1.1,0.8,1.9,0.8s1.4-0.3,1.9-0.8
				c0.5-0.5,0.8-1.2,0.8-2.1c0-0.8-0.3-1.6-0.8-2.1c-0.5-0.6-1.2-0.8-1.9-0.8c-0.7,0-1.4,0.3-1.9,0.8
				C103.3,267.7,103,268.4,103,269.2z M119.6,273.6h-1.7v-1.2c-0.7,0.9-1.7,1.3-2.9,1.3c-0.9,0-1.7-0.3-2.3-0.8
				c-0.6-0.5-0.9-1.2-0.9-2.1c0-0.9,0.3-1.5,1-2c0.6-0.4,1.5-0.6,2.6-0.6h2.4V268c0-1.2-0.7-1.8-2-1.8c-0.8,0-1.7,0.3-2.6,0.9
				l-0.8-1.2c1.1-0.8,2.3-1.3,3.7-1.3c1,0,1.9,0.3,2.5,0.8c0.7,0.5,1,1.3,1,2.5V273.6z M117.7,270.3v-0.7h-2.1c-1.3,0-2,0.4-2,1.3
				c0,0.4,0.2,0.8,0.5,1c0.3,0.2,0.8,0.3,1.4,0.3c0.6,0,1.1-0.2,1.6-0.5S117.7,270.9,117.7,270.3z M126.1,273.7
				c-1.2,0-2.3-0.4-3.2-1.2c-0.9-0.8-1.3-1.9-1.3-3.3c0-1.3,0.5-2.4,1.4-3.3c0.9-0.8,2.1-1.3,3.4-1.3s2.5,0.5,3.4,1.4l-1.1,1.3
				c-0.8-0.7-1.5-1-2.3-1c-0.8,0-1.5,0.3-2,0.8c-0.6,0.5-0.8,1.2-0.8,2c0,0.8,0.3,1.5,0.8,2.1c0.6,0.6,1.3,0.8,2.1,0.8
				c0.8,0,1.6-0.4,2.3-1.1l1.1,1.2C128.7,273.2,127.5,273.7,126.1,273.7z M133.6,273.6h-1.9v-12.3h1.9v7.2l3.6-3.7h2.4l-3.4,3.5
				l3.6,5.3h-2.3l-2.6-3.9l-1.3,1.4V273.6z M149.9,273.7c-1.2,0-2.3-0.4-3.2-1.2c-0.9-0.8-1.3-1.9-1.3-3.3c0-1.3,0.5-2.4,1.4-3.3
				c0.9-0.8,2.1-1.3,3.4-1.3s2.5,0.5,3.4,1.4l-1.1,1.3c-0.8-0.7-1.5-1-2.3-1s-1.5,0.3-2,0.8c-0.6,0.5-0.8,1.2-0.8,2
				c0,0.8,0.3,1.5,0.8,2.1c0.6,0.6,1.3,0.8,2.1,0.8c0.8,0,1.6-0.4,2.3-1.1l1.1,1.2C152.6,273.2,151.3,273.7,149.9,273.7z
				 M157.5,271.3c0.5,0.5,1.2,0.8,2,0.8c0.8,0,1.5-0.3,2-0.8c0.5-0.5,0.8-1.2,0.8-2.1c0-0.8-0.3-1.5-0.8-2.1c-0.5-0.5-1.2-0.8-2-0.8
				c-0.8,0-1.5,0.3-2,0.8c-0.5,0.5-0.8,1.2-0.8,2.1C156.7,270.1,156.9,270.7,157.5,271.3z M162.8,272.4c-0.9,0.9-2,1.3-3.3,1.3
				c-1.3,0-2.4-0.4-3.3-1.3c-0.9-0.9-1.3-2-1.3-3.2c0-1.3,0.4-2.3,1.3-3.2c0.9-0.9,2-1.3,3.3-1.3c1.3,0,2.4,0.4,3.3,1.3
				c0.9,0.9,1.3,1.9,1.3,3.2C164.1,270.5,163.7,271.5,162.8,272.4z M168.1,268.8v4.8h-1.9v-8.8h1.9v1.6c0.3-0.5,0.7-1,1.2-1.3
				c0.5-0.3,1.1-0.5,1.7-0.5c1,0,1.8,0.3,2.4,0.9c0.6,0.6,0.9,1.5,0.9,2.6v5.4h-1.9v-4.8c0-1.6-0.7-2.4-2-2.4
				c-0.6,0-1.2,0.2-1.7,0.6C168.3,267.4,168.1,268,168.1,268.8z M179.2,266.3v4.5c0,0.4,0.1,0.8,0.3,1c0.2,0.2,0.5,0.4,0.9,0.4
				s0.8-0.2,1.1-0.6l0.8,1.3c-0.7,0.6-1.4,0.9-2.2,0.9c-0.8,0-1.5-0.3-2-0.8c-0.6-0.6-0.8-1.3-0.8-2.2v-4.4h-1.1v-1.5h1.1V262h1.9
				v2.8h2.3v1.5H179.2z M188.5,266.5c-0.9,0-1.6,0.3-2.1,0.9c-0.5,0.6-0.7,1.4-0.7,2.4v3.8h-1.9v-8.8h1.9v1.8c0.3-0.6,0.7-1,1.2-1.4
				c0.5-0.4,1.1-0.5,1.6-0.5L188.5,266.5C188.6,266.5,188.5,266.5,188.5,266.5z M192.4,271.3c0.5,0.5,1.2,0.8,2,0.8s1.5-0.3,2-0.8
				c0.5-0.5,0.8-1.2,0.8-2.1c0-0.8-0.3-1.5-0.8-2.1c-0.5-0.5-1.2-0.8-2-0.8s-1.5,0.3-2,0.8c-0.5,0.5-0.8,1.2-0.8,2.1
				C191.6,270.1,191.8,270.7,192.4,271.3z M197.7,272.4c-0.9,0.9-2,1.3-3.3,1.3c-1.3,0-2.4-0.4-3.3-1.3c-0.9-0.9-1.3-2-1.3-3.2
				c0-1.3,0.4-2.3,1.3-3.2c0.9-0.9,2-1.3,3.3-1.3c1.3,0,2.4,0.4,3.3,1.3c0.9,0.9,1.3,1.9,1.3,3.2C199,270.5,198.6,271.5,197.7,272.4
				z M203,273.6h-1.9v-12.3h1.9V273.6z"/>
			<path fill="#FFFFFF" fill-opacity="0.5" d="M142.7,321.2c1.5,0,2.8-1.2,2.8-2.8s-1.2-2.8-2.8-2.8c-1.5,0-2.8,1.2-2.8,2.8
				S141.2,321.2,142.7,321.2z"/>
			<path fill="#FFFFFF" fill-opacity="0.5" d="M130.9,321.2c1.5,0,2.8-1.2,2.8-2.8s-1.2-2.8-2.8-2.8c-1.5,0-2.8,1.2-2.8,2.8
				S129.4,321.2,130.9,321.2z"/>
			<g>
				
					<linearGradient id="SVGID_2_" gradientUnits="userSpaceOnUse" x1="52.7611" y1="64.9483" x2="205.6566" y2="64.9483" gradientTransform="matrix(1 0 0 -1 0 462)">
					<stop  offset="0" style="stop-color:#5AD7FF"/>
					<stop  offset="1" style="stop-color:#33DAFF"/>
				</linearGradient>
				<path fill="url(#SVGID_2_)" d="M52.8,397.1c0-9.5,7.8-17.2,17.3-17.2h118.2c9.6,0,17.3,7.7,17.3,17.2s-7.8,17.2-17.3,17.2H70.1
					C60.5,414.3,52.8,406.6,52.8,397.1z"/>
			</g>
			<path fill="#97E6FF" d="M71.5,438.6l-0.7,1.5h-1.2l3-6.7h1.2l3,6.7h-1.2l-0.7-1.5H71.5z M74.4,437.5l-1.2-2.8l-1.2,2.8H74.4z
				 M78.7,440.1h-1.1V433h1.1V440.1z M82.9,436c-0.5,0-0.9,0.2-1.2,0.5c-0.3,0.3-0.4,0.8-0.4,1.4v2.2h-1.1V435h1.1v1
				c0.2-0.3,0.4-0.6,0.7-0.8c0.3-0.2,0.6-0.3,1-0.3L82.9,436C83,436,83,436,82.9,436z M88.9,438h-4c0,0.4,0.2,0.7,0.5,0.9
				c0.3,0.2,0.7,0.3,1.1,0.3c0.6,0,1.1-0.2,1.5-0.6l0.6,0.7c-0.6,0.6-1.3,0.9-2.2,0.9c-0.7,0-1.3-0.2-1.9-0.7
				c-0.5-0.5-0.8-1.1-0.8-1.9c0-0.8,0.3-1.5,0.8-1.9c0.5-0.5,1.1-0.7,1.8-0.7c0.7,0,1.3,0.2,1.8,0.6c0.5,0.4,0.7,1,0.7,1.7V438z
				 M84.9,437.2h3c0-0.4-0.1-0.8-0.4-1s-0.6-0.3-1-0.3c-0.4,0-0.8,0.1-1.1,0.4C85,436.4,84.9,436.8,84.9,437.2z M94.3,440.1h-1v-0.7
				c-0.4,0.5-1,0.8-1.7,0.8c-0.5,0-1-0.2-1.3-0.5c-0.3-0.3-0.5-0.7-0.5-1.2c0-0.5,0.2-0.9,0.6-1.1c0.4-0.3,0.9-0.4,1.5-0.4h1.4v-0.2
				c0-0.7-0.4-1-1.1-1c-0.5,0-1,0.2-1.5,0.5l-0.5-0.7c0.6-0.5,1.3-0.7,2.1-0.7c0.6,0,1.1,0.2,1.5,0.5c0.4,0.3,0.6,0.8,0.6,1.4V440.1
				z M93.2,438.2v-0.4H92c-0.8,0-1.2,0.2-1.2,0.7c0,0.3,0.1,0.4,0.3,0.6c0.2,0.1,0.5,0.2,0.8,0.2c0.3,0,0.7-0.1,0.9-0.3
				C93.1,438.8,93.2,438.5,93.2,438.2z M97.9,440.2c-0.7,0-1.2-0.2-1.7-0.7c-0.5-0.5-0.7-1.1-0.7-1.9c0-0.8,0.2-1.4,0.7-1.9
				c0.5-0.5,1.1-0.7,1.8-0.7c0.7,0,1.2,0.3,1.7,0.9V433h1.1v7.2h-1.1v-0.8C99.3,439.9,98.7,440.2,97.9,440.2z M96.5,437.6
				c0,0.5,0.2,0.9,0.5,1.2c0.3,0.3,0.7,0.5,1.1,0.5c0.4,0,0.8-0.2,1.1-0.5c0.3-0.3,0.4-0.7,0.4-1.2c0-0.5-0.1-0.9-0.4-1.2
				c-0.3-0.3-0.7-0.5-1.1-0.5c-0.4,0-0.8,0.2-1.1,0.5C96.7,436.7,96.5,437.1,96.5,437.6z M103,442.2c-0.5,0-0.9-0.2-1.3-0.5l0.5-0.9
				c0.2,0.2,0.5,0.3,0.7,0.3c0.2,0,0.4-0.1,0.6-0.3c0.2-0.2,0.2-0.4,0.2-0.6c0-0.1-0.7-1.9-2.1-5.3h1.2l1.5,3.8l1.5-3.8h1.2
				l-2.5,6.1c-0.1,0.3-0.4,0.6-0.6,0.8C103.6,442.1,103.3,442.2,103,442.2z M115.3,435v4.5c0,0.9-0.2,1.6-0.7,2
				c-0.5,0.5-1.1,0.7-1.9,0.7c-0.8,0-1.5-0.2-2.1-0.7l0.5-0.8c0.5,0.4,1,0.6,1.5,0.6c0.5,0,0.9-0.1,1.2-0.4c0.3-0.3,0.5-0.7,0.5-1.3
				v-0.7c-0.2,0.3-0.4,0.5-0.7,0.7c-0.3,0.2-0.6,0.3-1,0.3c-0.7,0-1.2-0.2-1.7-0.7c-0.4-0.5-0.7-1.1-0.7-1.8c0-0.7,0.2-1.3,0.7-1.8
				c0.4-0.5,1-0.7,1.7-0.7c0.7,0,1.2,0.3,1.7,0.8V435H115.3z M111.3,437.4c0,0.4,0.1,0.8,0.4,1.1c0.3,0.3,0.6,0.5,1.1,0.5
				c0.4,0,0.8-0.1,1.1-0.4c0.3-0.3,0.4-0.7,0.4-1.1c0-0.4-0.1-0.8-0.4-1.1c-0.3-0.3-0.6-0.5-1.1-0.5c-0.4,0-0.8,0.2-1.1,0.5
				C111.4,436.6,111.3,436.9,111.3,437.4z M118.1,438.8c0.3,0.3,0.7,0.5,1.2,0.5c0.5,0,0.9-0.2,1.2-0.5c0.3-0.3,0.5-0.7,0.5-1.2
				c0-0.5-0.2-0.9-0.5-1.2c-0.3-0.3-0.7-0.5-1.2-0.5c-0.5,0-0.9,0.2-1.2,0.5c-0.3,0.3-0.5,0.7-0.5,1.2
				C117.6,438.1,117.8,438.5,118.1,438.8z M121.2,439.4c-0.5,0.5-1.2,0.8-1.9,0.8s-1.4-0.3-1.9-0.8c-0.5-0.5-0.8-1.1-0.8-1.9
				c0-0.7,0.3-1.4,0.8-1.9c0.5-0.5,1.2-0.8,1.9-0.8s1.4,0.3,1.9,0.8c0.5,0.5,0.8,1.1,0.8,1.9C122,438.3,121.7,438.9,121.2,439.4z
				 M124.5,435.9v2.6c0,0.2,0.1,0.4,0.2,0.6c0.1,0.1,0.3,0.2,0.5,0.2c0.2,0,0.5-0.1,0.7-0.3l0.4,0.8c-0.4,0.3-0.8,0.5-1.3,0.5
				c-0.5,0-0.9-0.2-1.2-0.5c-0.3-0.3-0.5-0.8-0.5-1.3v-2.6h-0.7V435h0.7v-1.6h1.1v1.6h1.4v0.9H124.5z M134.1,440.1h-1v-0.7
				c-0.4,0.5-1,0.8-1.7,0.8c-0.5,0-1-0.2-1.3-0.5c-0.3-0.3-0.5-0.7-0.5-1.2c0-0.5,0.2-0.9,0.6-1.1c0.4-0.3,0.9-0.4,1.5-0.4h1.4v-0.2
				c0-0.7-0.4-1-1.1-1c-0.5,0-1,0.2-1.5,0.5l-0.5-0.7c0.6-0.5,1.3-0.7,2.1-0.7c0.6,0,1.1,0.2,1.5,0.5c0.4,0.3,0.6,0.8,0.6,1.4V440.1
				z M133,438.2v-0.4h-1.2c-0.8,0-1.2,0.2-1.2,0.7c0,0.3,0.1,0.4,0.3,0.6c0.2,0.1,0.5,0.2,0.8,0.2c0.3,0,0.7-0.1,0.9-0.3
				C132.8,438.8,133,438.5,133,438.2z M136.7,437.3v2.8h-1.1V435h1.1v0.9c0.2-0.3,0.4-0.6,0.7-0.7c0.3-0.2,0.6-0.3,1-0.3
				c0.6,0,1.1,0.2,1.4,0.5c0.4,0.4,0.5,0.9,0.5,1.5v3.1h-1.1v-2.8c0-0.9-0.4-1.4-1.2-1.4c-0.4,0-0.7,0.1-1,0.4
				C136.8,436.5,136.7,436.9,136.7,437.3z M148.7,440.1h-1v-0.7c-0.4,0.5-1,0.8-1.7,0.8c-0.5,0-1-0.2-1.3-0.5
				c-0.3-0.3-0.5-0.7-0.5-1.2c0-0.5,0.2-0.9,0.6-1.1c0.4-0.3,0.9-0.4,1.5-0.4h1.4v-0.2c0-0.7-0.4-1-1.1-1c-0.5,0-1,0.2-1.5,0.5
				l-0.5-0.7c0.6-0.5,1.3-0.7,2.1-0.7c0.6,0,1.1,0.2,1.5,0.5c0.4,0.3,0.6,0.8,0.6,1.4V440.1z M147.6,438.2v-0.4h-1.2
				c-0.8,0-1.2,0.2-1.2,0.7c0,0.3,0.1,0.4,0.3,0.6c0.2,0.1,0.5,0.2,0.8,0.2c0.3,0,0.7-0.1,0.9-0.3
				C147.5,438.8,147.6,438.5,147.6,438.2z M152.5,440.2c-0.7,0-1.3-0.2-1.9-0.7c-0.5-0.5-0.8-1.1-0.8-1.9c0-0.8,0.3-1.4,0.8-1.9
				c0.5-0.5,1.2-0.7,2-0.7s1.4,0.3,2,0.8l-0.6,0.8c-0.4-0.4-0.9-0.6-1.3-0.6c-0.5,0-0.8,0.2-1.2,0.5c-0.3,0.3-0.5,0.7-0.5,1.2
				c0,0.5,0.2,0.9,0.5,1.2s0.7,0.5,1.2,0.5c0.5,0,0.9-0.2,1.4-0.7l0.6,0.7C154,439.9,153.3,440.2,152.5,440.2z M158.1,440.2
				c-0.7,0-1.3-0.2-1.9-0.7c-0.5-0.5-0.8-1.1-0.8-1.9c0-0.8,0.3-1.4,0.8-1.9c0.5-0.5,1.2-0.7,2-0.7s1.4,0.3,2,0.8l-0.6,0.8
				c-0.4-0.4-0.9-0.6-1.3-0.6s-0.8,0.2-1.2,0.5c-0.3,0.3-0.5,0.7-0.5,1.2c0,0.5,0.2,0.9,0.5,1.2s0.7,0.5,1.2,0.5
				c0.5,0,0.9-0.2,1.4-0.7l0.6,0.7C159.6,439.9,158.9,440.2,158.1,440.2z M162.5,438.8c0.3,0.3,0.7,0.5,1.2,0.5
				c0.5,0,0.9-0.2,1.2-0.5c0.3-0.3,0.5-0.7,0.5-1.2c0-0.5-0.2-0.9-0.5-1.2c-0.3-0.3-0.7-0.5-1.2-0.5c-0.5,0-0.9,0.2-1.2,0.5
				c-0.3,0.3-0.5,0.7-0.5,1.2C162,438.1,162.2,438.5,162.5,438.8z M165.6,439.4c-0.5,0.5-1.2,0.8-1.9,0.8s-1.4-0.3-1.9-0.8
				c-0.5-0.5-0.8-1.1-0.8-1.9c0-0.7,0.3-1.4,0.8-1.9c0.5-0.5,1.2-0.8,1.9-0.8s1.4,0.3,1.9,0.8c0.5,0.5,0.8,1.1,0.8,1.9
				C166.4,438.3,166.1,438.9,165.6,439.4z M171.2,437.8V435h1.1v5.1h-1.1v-0.9c-0.2,0.3-0.4,0.6-0.7,0.7c-0.3,0.2-0.6,0.3-1,0.3
				c-0.6,0-1.1-0.2-1.4-0.5c-0.4-0.4-0.5-0.9-0.5-1.5V435h1.1v2.8c0,0.9,0.4,1.4,1.2,1.4c0.4,0,0.7-0.1,1-0.4
				C171.1,438.6,171.2,438.2,171.2,437.8z M175,437.3v2.8h-1.1V435h1.1v0.9c0.2-0.3,0.4-0.6,0.7-0.7c0.3-0.2,0.6-0.3,1-0.3
				c0.6,0,1.1,0.2,1.4,0.5c0.4,0.4,0.5,0.9,0.5,1.5v3.1h-1.1v-2.8c0-0.9-0.4-1.4-1.2-1.4c-0.4,0-0.7,0.1-1,0.4
				C175.1,436.5,175,436.9,175,437.3z M181.4,435.9v2.6c0,0.2,0.1,0.4,0.2,0.6c0.1,0.1,0.3,0.2,0.5,0.2s0.5-0.1,0.7-0.3l0.4,0.8
				c-0.4,0.3-0.8,0.5-1.3,0.5c-0.5,0-0.9-0.2-1.2-0.5c-0.3-0.3-0.5-0.8-0.5-1.3v-2.6h-0.7V435h0.7v-1.6h1.1v1.6h1.4v0.9H181.4z
				 M186.3,438h-1.1v-0.6c0-0.3,0-0.4,0.1-0.6c0.1-0.1,0.2-0.3,0.4-0.5l0.7-0.7c0.1-0.2,0.2-0.4,0.2-0.6c0-0.2-0.1-0.4-0.2-0.6
				c-0.2-0.2-0.4-0.2-0.6-0.2c-0.2,0-0.5,0.1-0.6,0.2c-0.2,0.1-0.3,0.3-0.3,0.6h-1.2c0.1-0.6,0.3-1,0.7-1.3c0.4-0.3,0.9-0.5,1.4-0.5
				c0.6,0,1,0.2,1.4,0.5c0.4,0.3,0.5,0.7,0.5,1.3c0,0.4-0.1,0.7-0.3,1c-0.1,0.2-0.2,0.3-0.3,0.3c-0.1,0.1-0.2,0.1-0.3,0.3
				c-0.1,0.1-0.2,0.2-0.3,0.3c-0.1,0.1-0.1,0.1-0.2,0.2c-0.1,0.1-0.2,0.3-0.2,0.6V438z M185.8,440.2c-0.2,0-0.4-0.1-0.5-0.2
				c-0.1-0.1-0.2-0.3-0.2-0.5c0-0.2,0.1-0.4,0.2-0.5c0.1-0.1,0.3-0.2,0.5-0.2c0.2,0,0.4,0.1,0.5,0.2c0.1,0.1,0.2,0.3,0.2,0.5
				c0,0.2-0.1,0.4-0.2,0.5C186.2,440.1,186,440.2,185.8,440.2z"/>
			<ellipse fill="none" cx="130.6" cy="150" rx="76.2" ry="75.8"/>
			<path fill="#FFFFFF" d="M87.9,394.2c-0.4,0-0.7,0.1-0.9,0.2c-0.2,0.2-0.4,0.4-0.4,0.7c0,0.3,0.1,0.5,0.4,0.7
				c0.2,0.2,0.8,0.3,1.6,0.5c0.8,0.2,1.4,0.5,1.8,0.8c0.4,0.3,0.6,0.9,0.6,1.5c0,0.7-0.3,1.2-0.8,1.6c-0.5,0.4-1.2,0.6-2,0.6
				c-1.2,0-2.3-0.4-3.2-1.2l0.8-1c0.8,0.7,1.6,1,2.4,1c0.4,0,0.8-0.1,1-0.3c0.3-0.2,0.4-0.4,0.4-0.7c0-0.3-0.1-0.5-0.4-0.7
				c-0.2-0.2-0.6-0.3-1.2-0.5c-0.6-0.1-1-0.3-1.3-0.4c-0.3-0.1-0.6-0.3-0.8-0.5c-0.5-0.3-0.7-0.9-0.7-1.6c0-0.7,0.3-1.3,0.8-1.6
				c0.5-0.4,1.2-0.6,1.9-0.6c0.5,0,1,0.1,1.5,0.2c0.5,0.2,0.9,0.4,1.3,0.7l-0.7,1c-0.2-0.2-0.5-0.4-0.9-0.5
				C88.7,394.3,88.3,394.2,87.9,394.2z M93.8,396v3c0,0.3,0.1,0.5,0.2,0.7c0.1,0.2,0.4,0.2,0.6,0.2s0.5-0.1,0.8-0.4l0.5,0.9
				c-0.4,0.4-0.9,0.6-1.5,0.6c-0.5,0-1-0.2-1.4-0.5c-0.4-0.4-0.6-0.9-0.6-1.5V396h-0.7v-1h0.7v-1.8h1.2v1.8h1.6v1H93.8z
				 M101.7,400.9h-1.1v-0.8c-0.5,0.6-1.1,0.9-2,0.9c-0.6,0-1.1-0.2-1.5-0.5c-0.4-0.3-0.6-0.8-0.6-1.4c0-0.6,0.2-1,0.6-1.3
				c0.4-0.3,1-0.4,1.7-0.4h1.6v-0.2c0-0.8-0.4-1.2-1.3-1.2c-0.5,0-1.1,0.2-1.7,0.6l-0.6-0.8c0.7-0.6,1.5-0.8,2.4-0.8
				c0.7,0,1.3,0.2,1.7,0.5c0.4,0.3,0.7,0.9,0.7,1.6V400.9z M100.4,398.7v-0.5H99c-0.9,0-1.3,0.3-1.3,0.8c0,0.3,0.1,0.5,0.3,0.7
				c0.2,0.1,0.5,0.2,0.9,0.2c0.4,0,0.7-0.1,1-0.3C100.3,399.4,100.4,399.1,100.4,398.7z M106.5,396.2c-0.6,0-1.1,0.2-1.4,0.6
				c-0.3,0.4-0.5,0.9-0.5,1.6v2.5h-1.2V395h1.2v1.2c0.2-0.4,0.5-0.7,0.8-0.9c0.3-0.2,0.7-0.4,1.1-0.4L106.5,396.2
				C106.5,396.2,106.5,396.2,106.5,396.2z M109.3,396v3c0,0.3,0.1,0.5,0.2,0.7c0.1,0.2,0.4,0.2,0.6,0.2c0.3,0,0.5-0.1,0.8-0.4
				l0.5,0.9c-0.4,0.4-0.9,0.6-1.5,0.6c-0.5,0-1-0.2-1.4-0.5c-0.4-0.4-0.6-0.9-0.6-1.5V396h-0.7v-1h0.7v-1.8h1.2v1.8h1.6v1H109.3z
				 M118.2,400.9h-1.4l-2-5.9h1.3l1.5,4.4l1.5-4.4h1.3l1.5,4.4l1.5-4.4h1.3l-2,5.9H121l-1.4-4L118.2,400.9z M126.8,400.9h-1.2V395
				h1.2V400.9z M125.7,393.9c-0.2-0.2-0.2-0.3-0.2-0.6c0-0.2,0.1-0.4,0.2-0.6c0.2-0.2,0.3-0.2,0.6-0.2c0.2,0,0.4,0.1,0.6,0.2
				c0.2,0.2,0.2,0.3,0.2,0.6c0,0.2-0.1,0.4-0.2,0.6c-0.2,0.2-0.3,0.2-0.6,0.2C126,394.1,125.8,394,125.7,393.9z M130.2,396v3
				c0,0.3,0.1,0.5,0.2,0.7c0.1,0.2,0.4,0.2,0.6,0.2s0.5-0.1,0.8-0.4l0.5,0.9c-0.4,0.4-0.9,0.6-1.5,0.6c-0.5,0-1-0.2-1.4-0.5
				c-0.4-0.4-0.6-0.9-0.6-1.5V396h-0.7v-1h0.7v-1.8h1.2v1.8h1.6v1H130.2z M134.5,397.7v3.2h-1.2v-8.2h1.2v3.4
				c0.2-0.4,0.4-0.6,0.8-0.8c0.4-0.2,0.8-0.3,1.2-0.3c0.7,0,1.2,0.2,1.6,0.6c0.4,0.4,0.6,1,0.6,1.8v3.6h-1.2v-3.2
				c0-1.1-0.5-1.6-1.4-1.6c-0.4,0-0.8,0.1-1.1,0.4C134.7,396.8,134.5,397.2,134.5,397.7z M147.2,400.9h-1.5l-3.1-7.7h1.5l2.4,5.8
				l2.4-5.8h1.5L147.2,400.9z M156.8,398.5h-4.6c0,0.4,0.2,0.8,0.6,1c0.4,0.3,0.8,0.4,1.2,0.4c0.7,0,1.3-0.2,1.7-0.7l0.7,0.8
				c-0.6,0.7-1.5,1-2.5,1c-0.8,0-1.5-0.3-2.1-0.8c-0.6-0.6-0.9-1.3-0.9-2.2c0-0.9,0.3-1.7,0.9-2.2c0.6-0.5,1.3-0.8,2.1-0.8
				c0.8,0,1.5,0.2,2.1,0.7c0.6,0.5,0.8,1.1,0.8,2V398.5z M152.1,397.5h3.4c0-0.5-0.2-0.9-0.5-1.1c-0.3-0.3-0.7-0.4-1.2-0.4
				c-0.5,0-0.9,0.1-1.2,0.4C152.3,396.7,152.1,397.1,152.1,397.5z M162.3,399.1c0,0.6-0.2,1-0.6,1.3c-0.4,0.3-0.9,0.5-1.6,0.5
				c-0.4,0-0.9-0.1-1.3-0.2c-0.5-0.2-0.9-0.4-1.2-0.7l0.6-1c0.7,0.5,1.4,0.8,2,0.8c0.3,0,0.5-0.1,0.7-0.2c0.2-0.1,0.2-0.3,0.2-0.5
				c0-0.3-0.4-0.6-1.2-0.8c-0.1,0-0.1,0-0.1,0c-1.2-0.3-1.8-0.9-1.8-1.7c0-0.5,0.2-1,0.6-1.3c0.4-0.3,1-0.5,1.7-0.5
				c0.7,0,1.3,0.2,1.9,0.6l-0.5,0.9c-0.5-0.3-1-0.5-1.6-0.5c-0.3,0-0.5,0.1-0.7,0.2c-0.2,0.1-0.3,0.3-0.3,0.5c0,0.2,0.1,0.3,0.3,0.4
				c0.1,0.1,0.3,0.1,0.6,0.2c0.2,0.1,0.5,0.1,0.6,0.2c0.2,0.1,0.4,0.1,0.5,0.2c0.2,0.1,0.4,0.2,0.6,0.3
				C162.1,398.2,162.3,398.6,162.3,399.1z M165.3,396v3c0,0.3,0.1,0.5,0.2,0.7c0.1,0.2,0.4,0.2,0.6,0.2c0.3,0,0.5-0.1,0.8-0.4
				l0.5,0.9c-0.4,0.4-0.9,0.6-1.5,0.6c-0.5,0-1-0.2-1.4-0.5c-0.4-0.4-0.6-0.9-0.6-1.5V396h-0.7v-1h0.7v-1.8h1.2v1.8h1.6v1H165.3z
				 M173.2,400.9H172v-0.8c-0.5,0.6-1.1,0.9-2,0.9c-0.6,0-1.1-0.2-1.5-0.5c-0.4-0.3-0.6-0.8-0.6-1.4c0-0.6,0.2-1,0.6-1.3
				c0.4-0.3,1-0.4,1.7-0.4h1.6v-0.2c0-0.8-0.4-1.2-1.3-1.2c-0.5,0-1.1,0.2-1.7,0.6l-0.6-0.8c0.7-0.6,1.5-0.8,2.4-0.8
				c0.7,0,1.3,0.2,1.7,0.5c0.4,0.3,0.7,0.9,0.7,1.6V400.9z M171.9,398.7v-0.5h-1.4c-0.9,0-1.3,0.3-1.3,0.8c0,0.3,0.1,0.5,0.3,0.7
				c0.2,0.1,0.5,0.2,0.9,0.2c0.4,0,0.7-0.1,1-0.3C171.8,399.4,171.9,399.1,171.9,398.7z"/>
		</g>
	</g>
</g>
</svg>
