<?xml version="1.0" encoding="utf-8"?>
<!-- Generator: Adobe Illustrator 22.0.0, SVG Export Plug-In . SVG Version: 6.00 Build 0)  -->
<svg version="1.1" id="Слой_1" xmlns="http://www.w3.org/2000/svg" xmlns:xlink="http://www.w3.org/1999/xlink" x="0px" y="0px"
	 viewBox="0 0 260 460" enable-background="new 0 0 260 460" xml:space="preserve">
<g>
	<g>
		<rect fill="#FFFFFF" width="260" height="460"/>
		<g>
			<g>
				<path fill-opacity="1.000000e-02" d="M0,0v13.8h260V0H0z"/>
				<path fill="#FFFFFF" d="M253.9,3.4h-16.2c-0.7,0-1.3,0.5-1.3,1.2v5.2c0,0.7,0.6,1.2,1.3,1.2h16.2c0.7,0,1.3-0.5,1.3-1.2V4.6
					C255.1,4,254.6,3.4,253.9,3.4z M236.8,4.6c0-0.4,0.4-0.8,0.8-0.8h16.2c0.5,0,0.8,0.4,0.8,0.8v5.2c0,0.4-0.4,0.8-0.8,0.8h-16.2
					c-0.5,0-0.8-0.4-0.8-0.8V4.6z"/>
				<path fill="#FFFFFF" d="M237.5,4.2c-0.2,0-0.3,0.2-0.3,0.3v5.3c0,0.2,0.2,0.3,0.3,0.3h6.6v-6L237.5,4.2L237.5,4.2z"/>
				<path fill="#FFFFFF" d="M256.5,7.2c0,0.7-0.5,1.3-1,1.4V5.9C256.1,6,256.5,6.5,256.5,7.2z"/>
				<path fill="#FFFFFF" d="M213.8,10.5c1.4,0,2.4-0.9,2.4-2.3c0-1.3-0.9-2.3-2.2-2.3c-0.6,0-1.1,0.2-1.4,0.6h-0.1l0.2-2.2h3.1V3.5
					H212l-0.4,3.9h0.8c0.3-0.5,0.8-0.8,1.4-0.8c0.9,0,1.5,0.6,1.5,1.6c0,0.9-0.6,1.6-1.5,1.6c-0.8,0-1.4-0.5-1.5-1.2h-0.8
					C211.6,9.7,212.5,10.5,213.8,10.5z M219.9,10.5c1.4,0,2.5-0.8,2.5-2c0-0.9-0.6-1.6-1.4-1.7V6.7c0.7-0.2,1.1-0.8,1.1-1.5
					c0-1.1-0.9-1.8-2.2-1.8s-2.2,0.8-2.2,1.8c0,0.7,0.4,1.3,1.1,1.5v0.1c-0.9,0.2-1.4,0.8-1.4,1.7C217.4,9.7,218.4,10.5,219.9,10.5z
					 M219.9,9.8c-0.9,0-1.6-0.5-1.6-1.3s0.7-1.3,1.6-1.3c0.9,0,1.6,0.5,1.6,1.3C221.5,9.2,220.8,9.8,219.9,9.8z M219.9,6.4
					c-0.8,0-1.3-0.5-1.3-1.2s0.5-1.2,1.3-1.2s1.3,0.5,1.3,1.2C221.2,6,220.7,6.4,219.9,6.4z M231.5,9.9c-0.4,0-0.7-0.4-0.7-1
					s0.3-1,0.7-1s0.7,0.4,0.7,1C232.2,9.4,231.9,9.9,231.5,9.9z M231.5,10.5c0.9,0,1.5-0.7,1.5-1.6c0-1-0.6-1.6-1.5-1.6
					S230,8,230,8.9C230.1,9.8,230.7,10.5,231.5,10.5z M227.6,6.7c0.9,0,1.5-0.7,1.5-1.6s-0.6-1.6-1.5-1.6s-1.5,0.7-1.5,1.6
					S226.7,6.7,227.6,6.7z M227.5,10.3l2.3-3.2l2.7-3.6h-0.9l-2.4,3.3l-2.6,3.5H227.5z M227.6,6.1c-0.4,0-0.7-0.4-0.7-1s0.3-1,0.7-1
					s0.7,0.4,0.7,1S228,6.1,227.6,6.1z"/>
				<path opacity="0.45" fill="#FFFFFF" enable-background="new    " d="M204.1,10.2V7.8l1.2,1.3L204.1,10.2z M205.3,5.4l-1.2,1.2
					V4.3L205.3,5.4z M204.4,7.2l1.8-1.8l-2.7-2.6h-0.1v3.7l-1.9-1.9L201,5.2l2.2,2.2L201,9.6l0.5,0.6l1.9-1.9V12h0.1l2.7-2.7
					L204.4,7.2z"/>
				<path fill="#FFFFFF" d="M106.8,6.9c0-0.4,0.3-0.7,0.7-0.7h4.2c0.4,0,0.7,0.3,0.7,0.7v2.8c0,0.4-0.3,0.7-0.7,0.7h-4.2
					c-0.4,0-0.7-0.3-0.7-0.7V6.9z"/>
				<path fill="#FFFFFF" d="M109.5,3.4c-1.1,0-2.1,0.9-2.1,2.1v2.1h0.7V5.5c0-0.8,0.6-1.4,1.4-1.4s1.4,0.6,1.4,1.4v2.1h0.7V5.5
					C111.6,4.4,110.7,3.4,109.5,3.4z"/>
				<path fill="#FFFFFF" d="M120.9,10.5c1.5,0,2.4-1.3,2.4-3.6s-0.9-3.6-2.4-3.6s-2.4,1.3-2.4,3.6S119.4,10.5,120.9,10.5z
					 M120.9,9.8c-1,0-1.6-1-1.6-2.8s0.6-2.8,1.6-2.8s1.6,1,1.6,2.8S121.9,9.8,120.9,9.8z M126.8,10.5c1.7,0,2.6-1.3,2.6-3.7
					c0-0.7-0.1-1.4-0.3-1.9c-0.4-1-1.2-1.5-2.2-1.5c-1.4,0-2.4,1-2.4,2.3s0.9,2.3,2.2,2.3c0.8,0,1.5-0.4,1.8-1l0,0l0,0l0,0
					c0,1.8-0.7,2.8-1.8,2.8c-0.7,0-1.2-0.4-1.4-1h-0.9C124.8,9.8,125.6,10.5,126.8,10.5z M126.8,7.3c-0.9,0-1.5-0.6-1.5-1.6
					c0-0.9,0.7-1.6,1.5-1.6s1.5,0.7,1.5,1.6C128.4,6.6,127.8,7.3,126.8,7.3z M130.7,9c0,0.4,0.3,0.7,0.7,0.7s0.7-0.3,0.7-0.7
					s-0.3-0.7-0.7-0.7S130.7,8.6,130.7,9z M130.7,5.3c0,0.4,0.3,0.7,0.7,0.7s0.7-0.3,0.7-0.7c0-0.4-0.3-0.7-0.7-0.7
					C131,4.6,130.7,4.9,130.7,5.3z M133.5,5.5L133.5,5.5h0.8l0,0c0-0.8,0.5-1.3,1.3-1.3s1.3,0.5,1.3,1.2c0,0.5-0.2,0.9-1.1,1.9
					l-2.4,2.6v0.6h4.4V9.6h-3.2V9.5l1.6-1.8c1.1-1.2,1.4-1.7,1.4-2.5c0-1.1-0.9-1.9-2.2-1.9C134.4,3.4,133.5,4.2,133.5,5.5z
					 M142.4,10.3h0.8V8.9h1V8.2h-1V3.5H142c-1.2,1.8-2.3,3.5-2.9,4.6v0.8h3.3L142.4,10.3L142.4,10.3z M139.9,8.1
					c0.8-1.4,1.7-2.8,2.4-3.8h0.1v3.9L139.9,8.1L139.9,8.1z"/>
				<path fill="#FFFFFF" d="M55.8,4.7c1.7,0,3.2,0.6,4.4,1.6L61,5.4c-1.4-1.2-3.2-2-5.2-2s-3.8,0.8-5.2,2l0.8,0.9
					C52.6,5.3,54.1,4.7,55.8,4.7z M55.8,7.3c1,0,1.9,0.4,2.6,0.9l0.9-0.9C58.4,6.5,57.1,6,55.8,6s-2.6,0.5-3.5,1.3l0.9,0.9
					C53.9,7.6,54.8,7.3,55.8,7.3z M57.6,9.1c-0.5-0.4-1.1-0.7-1.8-0.7S54.5,8.7,54,9.1l1.8,1.9L57.6,9.1z"/>
				<path fill="#FFFFFF" d="M42,7.7V6.9h-2.8v0.7h1.9v0.2c0,1.2-0.8,1.9-2.1,1.9c-1.4,0-2.2-1.1-2.2-2.8s0.9-2.8,2.2-2.8
					c1,0,1.7,0.5,2,1.4h0.9c-0.2-1.3-1.3-2.2-2.9-2.2c-1.9,0-3.1,1.4-3.1,3.6s1.2,3.6,3.1,3.6C40.8,10.5,42,9.4,42,7.7z M42.9,8.6
					c0.1,1.2,1.1,1.9,2.5,1.9c1.6,0,2.6-0.8,2.6-2c0-1-0.6-1.5-2-1.9l-0.7-0.2c-1-0.3-1.3-0.6-1.3-1.1c0-0.7,0.6-1.1,1.5-1.1
					s1.4,0.4,1.5,1.1h0.9c-0.1-1.1-1.1-1.9-2.4-1.9c-1.4,0-2.4,0.8-2.4,1.9c0,1,0.5,1.5,1.8,1.8l0.9,0.2c0.9,0.2,1.4,0.6,1.4,1.2
					c0,0.7-0.7,1.2-1.6,1.2c-1,0-1.7-0.5-1.8-1.2h-0.9V8.6z"/>
				<path fill="#FFFFFF" d="M28.8,6.9c0,1.3,1.1,2.4,2.4,2.4c1.3,0,2.4-1.1,2.4-2.4s-1.1-2.4-2.4-2.4C29.9,4.5,28.8,5.6,28.8,6.9z
					 M33.2,6.9c0,1.1-0.9,2-2,2c-1.1,0-2-0.9-2-2s0.9-2,2-2C32.3,4.9,33.2,5.8,33.2,6.9z"/>
				<path fill="#FFFFFF" d="M22.9,6.9c0,1.3,1.1,2.4,2.4,2.4s2.4-1.1,2.4-2.4s-1.1-2.4-2.4-2.4S22.9,5.6,22.9,6.9z M27.3,6.9
					c0,1.1-0.9,2-2,2s-2-0.9-2-2s0.9-2,2-2C26.4,4.9,27.3,5.8,27.3,6.9z"/>
				<path fill="#FFFFFF" d="M19.4,9.3c1.3,0,2.4-1.1,2.4-2.4s-1.1-2.4-2.4-2.4S17,5.6,17,6.9S18.1,9.3,19.4,9.3z"/>
				<path fill="#FFFFFF" d="M13.5,9.3c1.3,0,2.4-1.1,2.4-2.4s-1.1-2.4-2.4-2.4s-2.4,1.1-2.4,2.4S12.2,9.3,13.5,9.3z"/>
				<path fill="#FFFFFF" d="M7.6,9.3c1.3,0,2.4-1.1,2.4-2.4S8.9,4.5,7.6,4.5S5.2,5.6,5.2,6.9S6.3,9.3,7.6,9.3z"/>
			</g>
			<g>
				<rect fill="#FFFFFF" width="260" height="460"/>
				<g>
					<g>
						<g>
							<path display="none" fill-opacity="1.000000e-02" d="M0,0v13.8h260V0H0z"/>
							<path display="none" fill="#FFFFFF" d="M253.9,3.4h-16.2c-0.7,0-1.3,0.5-1.3,1.2v5.2c0,0.7,0.6,1.2,1.3,1.2h16.2
								c0.7,0,1.3-0.5,1.3-1.2V4.6C255.1,4,254.6,3.4,253.9,3.4z M236.8,4.6c0-0.4,0.4-0.8,0.8-0.8h16.2c0.5,0,0.8,0.4,0.8,0.8v5.2
								c0,0.4-0.4,0.8-0.8,0.8h-16.2c-0.5,0-0.8-0.4-0.8-0.8V4.6z"/>
							<path display="none" fill="#FFFFFF" d="M237.5,4.2c-0.2,0-0.3,0.2-0.3,0.3v5.3c0,0.2,0.2,0.3,0.3,0.3h6.6v-6L237.5,4.2
								L237.5,4.2z"/>
							<path display="none" fill="#FFFFFF" d="M256.5,7.2c0,0.7-0.5,1.3-1,1.4V5.9C256.1,6,256.5,6.5,256.5,7.2z"/>
							<path display="none" fill="#FFFFFF" d="M213.8,10.5c1.4,0,2.4-0.9,2.4-2.3c0-1.3-0.9-2.3-2.2-2.3c-0.6,0-1.1,0.2-1.4,0.6
								h-0.1l0.2-2.2h3.1V3.5H212l-0.4,3.9h0.8c0.3-0.5,0.8-0.8,1.4-0.8c0.9,0,1.5,0.6,1.5,1.6c0,0.9-0.6,1.6-1.5,1.6
								c-0.8,0-1.4-0.5-1.5-1.2h-0.8C211.6,9.7,212.5,10.5,213.8,10.5z M219.9,10.5c1.4,0,2.5-0.8,2.5-2c0-0.9-0.6-1.6-1.4-1.7V6.7
								c0.7-0.2,1.1-0.8,1.1-1.5c0-1.1-0.9-1.8-2.2-1.8s-2.2,0.8-2.2,1.8c0,0.7,0.4,1.3,1.1,1.5v0.1c-0.9,0.2-1.4,0.8-1.4,1.7
								C217.4,9.7,218.4,10.5,219.9,10.5z M219.9,9.8c-0.9,0-1.6-0.5-1.6-1.3s0.7-1.3,1.6-1.3c0.9,0,1.6,0.5,1.6,1.3
								C221.5,9.2,220.8,9.8,219.9,9.8z M219.9,6.4c-0.8,0-1.3-0.5-1.3-1.2s0.5-1.2,1.3-1.2s1.3,0.5,1.3,1.2
								C221.2,6,220.7,6.4,219.9,6.4z M231.5,9.9c-0.4,0-0.7-0.4-0.7-1s0.3-1,0.7-1s0.7,0.4,0.7,1C232.2,9.4,231.9,9.9,231.5,9.9z
								 M231.5,10.5c0.9,0,1.5-0.7,1.5-1.6c0-1-0.6-1.6-1.5-1.6S230,8,230,8.9C230.1,9.8,230.7,10.5,231.5,10.5z M227.6,6.7
								c0.9,0,1.5-0.7,1.5-1.6s-0.6-1.6-1.5-1.6s-1.5,0.7-1.5,1.6S226.7,6.7,227.6,6.7z M227.5,10.3l2.3-3.2l2.7-3.6h-0.9l-2.4,3.3
								l-2.6,3.5H227.5z M227.6,6.1c-0.4,0-0.7-0.4-0.7-1s0.3-1,0.7-1s0.7,0.4,0.7,1S228,6.1,227.6,6.1z"/>
							<path display="none" opacity="0.45" fill="#FFFFFF" enable-background="new    " d="M204.1,10.2V7.8l1.2,1.3L204.1,10.2z
								 M205.3,5.4l-1.2,1.2V4.3L205.3,5.4z M204.4,7.2l1.8-1.8l-2.7-2.6h-0.1v3.7l-1.9-1.9L201,5.2l2.2,2.2L201,9.6l0.5,0.6
								l1.9-1.9V12h0.1l2.7-2.7L204.4,7.2z"/>
							<path fill="#FFFFFF" d="M106.8,6.9c0-0.4,0.3-0.7,0.7-0.7h4.2c0.4,0,0.7,0.3,0.7,0.7v2.8c0,0.4-0.3,0.7-0.7,0.7h-4.2
								c-0.4,0-0.7-0.3-0.7-0.7V6.9z"/>
							<path fill="#FFFFFF" d="M109.5,3.4c-1.1,0-2.1,0.9-2.1,2.1v2.1h0.7V5.5c0-0.8,0.6-1.4,1.4-1.4s1.4,0.6,1.4,1.4v2.1h0.7V5.5
								C111.6,4.4,110.7,3.4,109.5,3.4z"/>
							<path fill="#FFFFFF" d="M120.9,10.5c1.5,0,2.4-1.3,2.4-3.6s-0.9-3.6-2.4-3.6s-2.4,1.3-2.4,3.6S119.4,10.5,120.9,10.5z
								 M120.9,9.8c-1,0-1.6-1-1.6-2.8s0.6-2.8,1.6-2.8s1.6,1,1.6,2.8S121.9,9.8,120.9,9.8z M126.8,10.5c1.7,0,2.6-1.3,2.6-3.7
								c0-0.7-0.1-1.4-0.3-1.9c-0.4-1-1.2-1.5-2.2-1.5c-1.4,0-2.4,1-2.4,2.3s0.9,2.3,2.2,2.3c0.8,0,1.5-0.4,1.8-1l0,0l0,0l0,0
								c0,1.8-0.7,2.8-1.8,2.8c-0.7,0-1.2-0.4-1.4-1h-0.9C124.8,9.8,125.6,10.5,126.8,10.5z M126.8,7.3c-0.9,0-1.5-0.6-1.5-1.6
								c0-0.9,0.7-1.6,1.5-1.6s1.5,0.7,1.5,1.6C128.4,6.6,127.8,7.3,126.8,7.3z M130.7,9c0,0.4,0.3,0.7,0.7,0.7s0.7-0.3,0.7-0.7
								s-0.3-0.7-0.7-0.7S130.7,8.6,130.7,9z M130.7,5.3c0,0.4,0.3,0.7,0.7,0.7s0.7-0.3,0.7-0.7c0-0.4-0.3-0.7-0.7-0.7
								C131,4.6,130.7,4.9,130.7,5.3z M133.5,5.5L133.5,5.5h0.8l0,0c0-0.8,0.5-1.3,1.3-1.3s1.3,0.5,1.3,1.2c0,0.5-0.2,0.9-1.1,1.9
								l-2.4,2.6v0.6h4.4V9.6h-3.2V9.5l1.6-1.8c1.1-1.2,1.4-1.7,1.4-2.5c0-1.1-0.9-1.9-2.2-1.9C134.4,3.4,133.5,4.2,133.5,5.5z
								 M142.4,10.3h0.8V8.9h1V8.2h-1V3.5H142c-1.2,1.8-2.3,3.5-2.9,4.6v0.8h3.3L142.4,10.3L142.4,10.3z M139.9,8.1
								c0.8-1.4,1.7-2.8,2.4-3.8h0.1v3.9L139.9,8.1L139.9,8.1z"/>
							<path fill="#FFFFFF" d="M55.8,4.7c1.7,0,3.2,0.6,4.4,1.6L61,5.4c-1.4-1.2-3.2-2-5.2-2s-3.8,0.8-5.2,2l0.8,0.9
								C52.6,5.3,54.1,4.7,55.8,4.7z M55.8,7.3c1,0,1.9,0.4,2.6,0.9l0.9-0.9C58.4,6.5,57.1,6,55.8,6s-2.6,0.5-3.5,1.3l0.9,0.9
								C53.9,7.6,54.8,7.3,55.8,7.3z M57.6,9.1c-0.5-0.4-1.1-0.7-1.8-0.7S54.5,8.7,54,9.1l1.8,1.9L57.6,9.1z"/>
							<path fill="#FFFFFF" d="M42,7.7V6.9h-2.8v0.7h1.9v0.2c0,1.2-0.8,1.9-2.1,1.9c-1.4,0-2.2-1.1-2.2-2.8s0.9-2.8,2.2-2.8
								c1,0,1.7,0.5,2,1.4h0.9c-0.2-1.3-1.3-2.2-2.9-2.2c-1.9,0-3.1,1.4-3.1,3.6s1.2,3.6,3.1,3.6C40.8,10.5,42,9.4,42,7.7z
								 M42.9,8.6c0.1,1.2,1.1,1.9,2.5,1.9c1.6,0,2.6-0.8,2.6-2c0-1-0.6-1.5-2-1.9l-0.7-0.2c-1-0.3-1.3-0.6-1.3-1.1
								c0-0.7,0.6-1.1,1.5-1.1s1.4,0.4,1.5,1.1h0.9c-0.1-1.1-1.1-1.9-2.4-1.9c-1.4,0-2.4,0.8-2.4,1.9c0,1,0.5,1.5,1.8,1.8l0.9,0.2
								c0.9,0.2,1.4,0.6,1.4,1.2c0,0.7-0.7,1.2-1.6,1.2c-1,0-1.7-0.5-1.8-1.2h-0.9V8.6z"/>
							<path fill="#FFFFFF" d="M28.8,6.9c0,1.3,1.1,2.4,2.4,2.4c1.3,0,2.4-1.1,2.4-2.4s-1.1-2.4-2.4-2.4C29.9,4.5,28.8,5.6,28.8,6.9
								z M33.2,6.9c0,1.1-0.9,2-2,2c-1.1,0-2-0.9-2-2s0.9-2,2-2C32.3,4.9,33.2,5.8,33.2,6.9z"/>
							<path fill="#FFFFFF" d="M22.9,6.9c0,1.3,1.1,2.4,2.4,2.4s2.4-1.1,2.4-2.4s-1.1-2.4-2.4-2.4S22.9,5.6,22.9,6.9z M27.3,6.9
								c0,1.1-0.9,2-2,2s-2-0.9-2-2s0.9-2,2-2C26.4,4.9,27.3,5.8,27.3,6.9z"/>
							<path fill="#FFFFFF" d="M19.4,9.3c1.3,0,2.4-1.1,2.4-2.4s-1.1-2.4-2.4-2.4S17,5.6,17,6.9S18.1,9.3,19.4,9.3z"/>
							<path fill="#FFFFFF" d="M13.5,9.3c1.3,0,2.4-1.1,2.4-2.4s-1.1-2.4-2.4-2.4s-2.4,1.1-2.4,2.4S12.2,9.3,13.5,9.3z"/>
							<path fill="#FFFFFF" d="M7.6,9.3c1.3,0,2.4-1.1,2.4-2.4S8.9,4.5,7.6,4.5S5.2,5.6,5.2,6.9S6.3,9.3,7.6,9.3z"/>
						</g>
					</g>
				</g>
				<g>
					<g>
						<g>
							<rect fill="#FFFFFF" width="260" height="460"/>
							
								<linearGradient id="SVGID_1_" gradientUnits="userSpaceOnUse" x1="1.4745" y1="328.5979" x2="255.2451" y2="784.3487" gradientTransform="matrix(1 0 0 1 0 -329.4189)">
								<stop  offset="0" style="stop-color:#004DA8"/>
								<stop  offset="1" style="stop-color:#2E98D3"/>
							</linearGradient>
							<rect fill="url(#SVGID_1_)" width="260" height="460"/>
							<g>
								<g>
									<g>
										<path fill-opacity="1.000000e-02" d="M0,0v13.8h260V0H0z"/>
										<path fill="#FFFFFF" d="M253.9,3.4h-16.2c-0.7,0-1.3,0.5-1.3,1.2v5.2c0,0.7,0.6,1.2,1.3,1.2h16.2c0.7,0,1.3-0.5,1.3-1.2
											V4.6C255.1,4,254.6,3.4,253.9,3.4z M236.8,4.6c0-0.4,0.4-0.8,0.8-0.8h16.2c0.5,0,0.8,0.4,0.8,0.8v5.2
											c0,0.4-0.4,0.8-0.8,0.8h-16.2c-0.5,0-0.8-0.4-0.8-0.8V4.6z"/>
										<path fill="#FFFFFF" d="M237.5,4.2c-0.2,0-0.3,0.2-0.3,0.3v5.3c0,0.2,0.2,0.3,0.3,0.3h6.6v-6L237.5,4.2L237.5,4.2z"/>
										<path fill="#FFFFFF" d="M256.5,7.2c0,0.7-0.5,1.3-1,1.4V5.9C256.1,6,256.5,6.5,256.5,7.2z"/>
										<path fill="#FFFFFF" d="M213.8,10.5c1.4,0,2.4-0.9,2.4-2.3c0-1.3-0.9-2.3-2.2-2.3c-0.6,0-1.1,0.2-1.4,0.6h-0.1l0.2-2.2
											h3.1V3.5H212l-0.4,3.9h0.8c0.3-0.5,0.8-0.8,1.4-0.8c0.9,0,1.5,0.6,1.5,1.6c0,0.9-0.6,1.6-1.5,1.6c-0.8,0-1.4-0.5-1.5-1.2
											h-0.8C211.6,9.7,212.5,10.5,213.8,10.5z M219.9,10.5c1.4,0,2.5-0.8,2.5-2c0-0.9-0.6-1.6-1.4-1.7V6.7
											c0.7-0.2,1.1-0.8,1.1-1.5c0-1.1-0.9-1.8-2.2-1.8s-2.2,0.8-2.2,1.8c0,0.7,0.4,1.3,1.1,1.5v0.1c-0.9,0.2-1.4,0.8-1.4,1.7
											C217.4,9.7,218.4,10.5,219.9,10.5z M219.9,9.8c-0.9,0-1.6-0.5-1.6-1.3s0.7-1.3,1.6-1.3c0.9,0,1.6,0.5,1.6,1.3
											C221.5,9.2,220.8,9.8,219.9,9.8z M219.9,6.4c-0.8,0-1.3-0.5-1.3-1.2s0.5-1.2,1.3-1.2s1.3,0.5,1.3,1.2
											C221.2,6,220.7,6.4,219.9,6.4z M231.5,9.9c-0.4,0-0.7-0.4-0.7-1s0.3-1,0.7-1s0.7,0.4,0.7,1C232.2,9.4,231.9,9.9,231.5,9.9
											z M231.5,10.5c0.9,0,1.5-0.7,1.5-1.6c0-1-0.6-1.6-1.5-1.6S230,8,230,8.9C230.1,9.8,230.7,10.5,231.5,10.5z M227.6,6.7
											c0.9,0,1.5-0.7,1.5-1.6s-0.6-1.6-1.5-1.6s-1.5,0.7-1.5,1.6S226.7,6.7,227.6,6.7z M227.5,10.3l2.3-3.2l2.7-3.6h-0.9
											l-2.4,3.3l-2.6,3.5H227.5z M227.6,6.1c-0.4,0-0.7-0.4-0.7-1s0.3-1,0.7-1s0.7,0.4,0.7,1S228,6.1,227.6,6.1z"/>
										<path opacity="0.45" fill="#FFFFFF" enable-background="new    " d="M204.1,10.2V7.8l1.2,1.3L204.1,10.2z M205.3,5.4
											l-1.2,1.2V4.3L205.3,5.4z M204.4,7.2l1.8-1.8l-2.7-2.6h-0.1v3.7l-1.9-1.9L201,5.2l2.2,2.2L201,9.6l0.5,0.6l1.9-1.9V12h0.1
											l2.7-2.7L204.4,7.2z"/>
										<path fill="#FFFFFF" stroke="#FFFFFF" d="M107.1,6.9c0-0.2,0.2-0.3,0.3-0.3h4.2c0.2,0,0.3,0.2,0.3,0.3v2.8
											c0,0.2-0.2,0.3-0.3,0.3h-4.2c-0.2,0-0.3-0.2-0.3-0.3V6.9z"/>
										<path fill="#FFFFFF" d="M109.5,3.4c-1.1,0-2.1,0.9-2.1,2.1v2.1h0.7V5.5c0-0.8,0.6-1.4,1.4-1.4s1.4,0.6,1.4,1.4v2.1h0.7
											V5.5C111.6,4.4,110.7,3.4,109.5,3.4z"/>
										<defs>
											<filter id="Adobe_OpacityMaskFilter" filterUnits="userSpaceOnUse" x="106.8" y="2.7" width="5.5" height="5.6">
												<feColorMatrix  type="matrix" values="1 0 0 0 0  0 1 0 0 0  0 0 1 0 0  0 0 0 1 0"/>
											</filter>
										</defs>
										<mask maskUnits="userSpaceOnUse" x="106.8" y="2.7" width="5.5" height="5.6" id="path-41-inside-1_2_">
											<path fill="#FFFFFF" filter="url(#Adobe_OpacityMaskFilter)" d="M109.5,3.4c-1.1,0-2.1,0.9-2.1,2.1v2.1h0.7V5.5
												c0-0.8,0.6-1.4,1.4-1.4s1.4,0.6,1.4,1.4v2.1h0.7V5.5C111.6,4.4,110.7,3.4,109.5,3.4z"/>
										</mask>
										<path mask="url(#path-41-inside-1_2_)" fill="#FFFFFF" d="M107.5,7.6h-0.7v0.7h0.7V7.6z M108.2,7.6v0.7h0.7V7.6H108.2z
											 M110.9,7.6h-0.7v0.7h0.7V7.6z M111.6,7.6v0.7h0.7V7.6H111.6z M108.2,5.5c0-0.8,0.6-1.4,1.4-1.4V2.8
											c-1.5,0-2.8,1.2-2.8,2.8L108.2,5.5L108.2,5.5z M108.2,7.6V5.5h-1.4v2.1H108.2z M108.2,6.9h-0.7v1.4h0.7V6.9z M108.9,7.6
											V5.5h-1.4v2.1H108.9z M108.9,5.5c0-0.4,0.3-0.7,0.7-0.7V3.4c-1.1,0-2.1,0.9-2.1,2.1H108.9z M109.5,4.8
											c0.4,0,0.7,0.3,0.7,0.7h1.4c0-1.1-0.9-2.1-2.1-2.1V4.8z M110.2,5.5v2.1h1.4V5.5H110.2z M111.6,6.9h-0.7v1.4h0.7V6.9z
											 M110.9,5.5v2.1h1.4V5.5H110.9z M109.5,4.1c0.8,0,1.4,0.6,1.4,1.4h1.4c0-1.5-1.2-2.8-2.8-2.8V4.1z"/>
										<path fill="#FFFFFF" d="M120.9,10.5c1.5,0,2.4-1.3,2.4-3.6s-0.9-3.6-2.4-3.6s-2.4,1.3-2.4,3.6S119.4,10.5,120.9,10.5z
											 M120.9,9.8c-1,0-1.6-1-1.6-2.8s0.6-2.8,1.6-2.8s1.6,1,1.6,2.8S121.9,9.8,120.9,9.8z M126.8,10.5c1.7,0,2.6-1.3,2.6-3.7
											c0-0.7-0.1-1.4-0.3-1.9c-0.4-1-1.2-1.5-2.2-1.5c-1.4,0-2.4,1-2.4,2.3s0.9,2.3,2.2,2.3c0.8,0,1.5-0.4,1.8-1l0,0l0,0l0,0
											c0,1.8-0.7,2.8-1.8,2.8c-0.7,0-1.2-0.4-1.4-1h-0.9C124.8,9.8,125.6,10.5,126.8,10.5z M126.8,7.3c-0.9,0-1.5-0.6-1.5-1.6
											c0-0.9,0.7-1.6,1.5-1.6s1.5,0.7,1.5,1.6C128.4,6.6,127.8,7.3,126.8,7.3z M130.7,9c0,0.4,0.3,0.7,0.7,0.7s0.7-0.3,0.7-0.7
											s-0.3-0.7-0.7-0.7S130.7,8.6,130.7,9z M130.7,5.3c0,0.4,0.3,0.7,0.7,0.7s0.7-0.3,0.7-0.7c0-0.4-0.3-0.7-0.7-0.7
											C131,4.6,130.7,4.9,130.7,5.3z M133.5,5.5L133.5,5.5h0.8l0,0c0-0.8,0.5-1.3,1.3-1.3s1.3,0.5,1.3,1.2
											c0,0.5-0.2,0.9-1.1,1.9l-2.4,2.6v0.6h4.4V9.6h-3.2V9.5l1.6-1.8c1.1-1.2,1.4-1.7,1.4-2.5c0-1.1-0.9-1.9-2.2-1.9
											C134.4,3.4,133.5,4.2,133.5,5.5z M142.4,10.3h0.8V8.9h1V8.2h-1V3.5H142c-1.2,1.8-2.3,3.5-2.9,4.6v0.8h3.3L142.4,10.3
											L142.4,10.3z M139.9,8.1c0.8-1.4,1.7-2.8,2.4-3.8h0.1v3.9L139.9,8.1L139.9,8.1z"/>
										<path fill="#FFFFFF" d="M55.8,4.7c1.7,0,3.2,0.6,4.4,1.6L61,5.4c-1.4-1.2-3.2-2-5.2-2s-3.8,0.8-5.2,2l0.8,0.9
											C52.6,5.3,54.1,4.7,55.8,4.7z M55.8,7.3c1,0,1.9,0.4,2.6,0.9l0.9-0.9C58.4,6.5,57.1,6,55.8,6s-2.6,0.5-3.5,1.3l0.9,0.9
											C53.9,7.6,54.8,7.3,55.8,7.3z M57.6,9.1c-0.5-0.4-1.1-0.7-1.8-0.7S54.5,8.7,54,9.1l1.8,1.9L57.6,9.1z"/>
										<path fill="#FFFFFF" d="M42,7.7V6.9h-2.8v0.7h1.9v0.2c0,1.2-0.8,1.9-2.1,1.9c-1.4,0-2.2-1.1-2.2-2.8s0.9-2.8,2.2-2.8
											c1,0,1.7,0.5,2,1.4h0.9c-0.2-1.3-1.3-2.2-2.9-2.2c-1.9,0-3.1,1.4-3.1,3.6s1.2,3.6,3.1,3.6C40.8,10.5,42,9.4,42,7.7z
											 M42.9,8.6c0.1,1.2,1.1,1.9,2.5,1.9c1.6,0,2.6-0.8,2.6-2c0-1-0.6-1.5-2-1.9l-0.7-0.2c-1-0.3-1.3-0.6-1.3-1.1
											c0-0.7,0.6-1.1,1.5-1.1s1.4,0.4,1.5,1.1h0.9c-0.1-1.1-1.1-1.9-2.4-1.9c-1.4,0-2.4,0.8-2.4,1.9c0,1,0.5,1.5,1.8,1.8
											l0.9,0.2c0.9,0.2,1.4,0.6,1.4,1.2c0,0.7-0.7,1.2-1.6,1.2c-1,0-1.7-0.5-1.8-1.2h-0.9V8.6z"/>
										<path fill="#FFFFFF" d="M28.8,6.9c0,1.3,1.1,2.4,2.4,2.4c1.3,0,2.4-1.1,2.4-2.4s-1.1-2.4-2.4-2.4
											C29.9,4.5,28.8,5.6,28.8,6.9z M33.2,6.9c0,1.1-0.9,2-2,2c-1.1,0-2-0.9-2-2s0.9-2,2-2C32.3,4.9,33.2,5.8,33.2,6.9z"/>
										<path fill="#FFFFFF" d="M22.9,6.9c0,1.3,1.1,2.4,2.4,2.4s2.4-1.1,2.4-2.4s-1.1-2.4-2.4-2.4S22.9,5.6,22.9,6.9z M27.3,6.9
											c0,1.1-0.9,2-2,2s-2-0.9-2-2s0.9-2,2-2C26.4,4.9,27.3,5.8,27.3,6.9z"/>
										<path fill="#FFFFFF" d="M19.4,9.3c1.3,0,2.4-1.1,2.4-2.4s-1.1-2.4-2.4-2.4S17,5.6,17,6.9S18.1,9.3,19.4,9.3z"/>
										<path fill="#FFFFFF" d="M13.5,9.3c1.3,0,2.4-1.1,2.4-2.4s-1.1-2.4-2.4-2.4s-2.4,1.1-2.4,2.4S12.2,9.3,13.5,9.3z"/>
										<path fill="#FFFFFF" stroke="#FFFFFF" d="M7.6,9.3c1.3,0,2.4-1.1,2.4-2.4S8.9,4.5,7.6,4.5S5.2,5.6,5.2,6.9
											S6.3,9.3,7.6,9.3z"/>
									</g>
									<rect y="61.1" fill="#FFFFFF" width="260" height="398.9"/>
									<path fill="#FFFFFF" d="M26.9,34.1l-6.1,6.1l-6.2-6.1l-0.4,0.4l6.1,6.1l-6.1,6.1l0.4,0.4l6.2-6.1l6.1,6.1l0.4-0.4l-6.2-6.1
										l6.2-6.1L26.9,34.1z"/>
									<path fill="#FFFFFF" d="M85.9,42.8h-4.4l-0.9,2H79l3.9-8.7h1.6l3.9,8.7h-1.7L85.9,42.8z M85.3,41.6l-1.6-3.8l-1.6,3.8H85.3
										z M95.9,35.6v9.2h-1.5V44c-0.3,0.3-0.6,0.6-1,0.7c-0.4,0.2-0.8,0.2-1.2,0.2c-0.6,0-1.2-0.1-1.7-0.4
										c-0.5-0.3-0.9-0.7-1.2-1.2c-0.3-0.5-0.4-1.1-0.4-1.8s0.1-1.3,0.4-1.8s0.7-0.9,1.2-1.2s1.1-0.4,1.7-0.4
										c0.4,0,0.8,0.1,1.2,0.2c0.4,0.1,0.7,0.4,0.9,0.7v-3.4H95.9z M92.4,43.6c0.4,0,0.7-0.1,1-0.2c0.3-0.2,0.5-0.4,0.7-0.7
										s0.3-0.7,0.3-1.1c0-0.4-0.1-0.8-0.3-1.1c-0.2-0.3-0.4-0.6-0.7-0.7c-0.3-0.2-0.6-0.3-1-0.3s-0.7,0.1-1,0.3s-0.5,0.4-0.7,0.7
										s-0.3,0.7-0.3,1.1c0,0.4,0.1,0.8,0.3,1.1c0.2,0.3,0.4,0.6,0.7,0.7C91.6,43.5,92,43.6,92.4,43.6z M104.4,35.6v9.2h-1.5V44
										c-0.3,0.3-0.6,0.6-1,0.7c-0.4,0.2-0.8,0.2-1.2,0.2c-0.6,0-1.2-0.1-1.7-0.4c-0.5-0.3-0.9-0.7-1.2-1.2
										c-0.3-0.5-0.4-1.1-0.4-1.8s0.1-1.3,0.4-1.8s0.7-0.9,1.2-1.2s1.1-0.4,1.7-0.4c0.4,0,0.8,0.1,1.2,0.2
										c0.4,0.1,0.7,0.4,0.9,0.7v-3.4H104.4z M100.9,43.6c0.4,0,0.7-0.1,1-0.2c0.3-0.2,0.5-0.4,0.7-0.7s0.3-0.7,0.3-1.1
										c0-0.4-0.1-0.8-0.3-1.1s-0.4-0.6-0.7-0.7c-0.3-0.2-0.6-0.3-1-0.3s-0.7,0.1-1,0.3s-0.5,0.4-0.7,0.7s-0.3,0.7-0.3,1.1
										c0,0.4,0.1,0.8,0.3,1.1c0.2,0.3,0.4,0.6,0.7,0.7S100.6,43.6,100.9,43.6z M115.8,44.8l-1.8-2.5c-0.1,0-0.2,0-0.3,0h-2v2.5
										h-1.6v-8.7h3.6c0.8,0,1.4,0.1,2,0.4c0.6,0.2,1,0.6,1.3,1.1s0.4,1,0.4,1.7s-0.2,1.2-0.5,1.7s-0.8,0.8-1.4,1.1l2,2.9h-1.7
										V44.8z M115.8,39.2c0-0.6-0.2-1-0.5-1.3s-0.9-0.4-1.6-0.4h-1.9V41h1.9c0.7,0,1.2-0.1,1.6-0.4
										C115.6,40.2,115.8,39.8,115.8,39.2z M125.3,41.6c0,0.1,0,0.3,0,0.5h-5.2c0.1,0.5,0.3,0.9,0.7,1.2c0.4,0.3,0.9,0.4,1.4,0.4
										c0.7,0,1.3-0.2,1.8-0.7l0.8,1c-0.3,0.4-0.7,0.6-1.1,0.8c-0.5,0.2-1,0.3-1.5,0.3c-0.7,0-1.4-0.1-1.9-0.4
										c-0.6-0.3-1-0.7-1.3-1.2s-0.4-1.1-0.4-1.8c0-0.6,0.1-1.2,0.4-1.7s0.7-0.9,1.2-1.2s1.1-0.4,1.8-0.4c0.6,0,1.2,0.1,1.7,0.4
										c0.5,0.3,0.9,0.7,1.2,1.2C125.2,40.3,125.3,40.9,125.3,41.6z M122,39.4c-0.5,0-0.9,0.1-1.3,0.4c-0.3,0.3-0.5,0.7-0.6,1.2
										h3.8c-0.1-0.5-0.3-0.9-0.6-1.2C122.9,39.5,122.5,39.4,122,39.4z M130.5,38.1c0.6,0,1.2,0.1,1.7,0.4
										c0.5,0.3,0.9,0.7,1.2,1.2s0.4,1.1,0.4,1.8s-0.1,1.3-0.4,1.8c-0.3,0.5-0.7,0.9-1.2,1.2s-1.1,0.4-1.7,0.4
										c-0.9,0-1.6-0.3-2.1-0.9v3.2h-1.6v-9h1.5v0.9c0.3-0.3,0.6-0.6,0.9-0.7C129.6,38.2,130.1,38.1,130.5,38.1z M130.3,43.6
										c0.6,0,1-0.2,1.4-0.6c0.4-0.4,0.6-0.9,0.6-1.5s-0.2-1.1-0.6-1.5c-0.4-0.4-0.8-0.6-1.4-0.6c-0.4,0-0.7,0.1-1,0.3
										s-0.5,0.4-0.7,0.7s-0.3,0.7-0.3,1.1c0,0.4,0.1,0.8,0.3,1.1s0.4,0.6,0.7,0.7C129.6,43.5,130,43.6,130.3,43.6z M137.8,38.1
										c1,0,1.7,0.2,2.2,0.7s0.8,1.2,0.8,2.1v3.9h-1.5V44c-0.2,0.3-0.5,0.5-0.8,0.7c-0.3,0.1-0.8,0.2-1.3,0.2s-0.9-0.1-1.3-0.2
										c-0.4-0.2-0.7-0.4-0.9-0.7s-0.3-0.6-0.3-1c0-0.6,0.2-1.1,0.7-1.4c0.4-0.4,1.2-0.5,2.1-0.5h1.7V41c0-0.5-0.1-0.8-0.4-1.1
										c-0.3-0.2-0.7-0.4-1.2-0.4c-0.4,0-0.7,0.1-1.1,0.2c-0.4,0.1-0.7,0.3-0.9,0.5l-0.6-1.1c0.3-0.3,0.8-0.5,1.3-0.6
										C136.8,38.2,137.3,38.1,137.8,38.1z M137.6,43.8c0.4,0,0.7-0.1,1-0.3s0.5-0.4,0.6-0.8V42h-1.6c-0.9,0-1.3,0.3-1.3,0.9
										c0,0.3,0.1,0.5,0.3,0.7C136.9,43.7,137.2,43.8,137.6,43.8z M142.9,38.2h1.6v6.6h-1.6V38.2z M143.7,37.1
										c-0.3,0-0.5-0.1-0.7-0.3s-0.3-0.4-0.3-0.7s0.1-0.5,0.3-0.7s0.4-0.3,0.7-0.3s0.5,0.1,0.7,0.3s0.3,0.4,0.3,0.6
										c0,0.3-0.1,0.5-0.3,0.7C144.2,37,144,37.1,143.7,37.1z M148,39.2c0.4-0.7,1.2-1,2.4-1v1.5c-0.1,0-0.3,0-0.4,0
										c-0.6,0-1.1,0.2-1.4,0.5c-0.3,0.3-0.5,0.9-0.5,1.5v3.2h-1.6v-6.6h1.5V39.2z M156.7,45c-0.6,0-1.1-0.1-1.5-0.3
										c-0.5-0.2-0.8-0.5-1.1-0.9l0.9-1.1c0.5,0.7,1.1,1,1.7,1c0.9,0,1.4-0.5,1.4-1.6v-4.5H155v-1.4h4.7V42c0,1-0.2,1.8-0.7,2.3
										C158.4,44.7,157.7,45,156.7,45z M164.8,44.9c-0.7,0-1.3-0.1-1.8-0.4c-0.5-0.3-1-0.7-1.3-1.2s-0.4-1.1-0.4-1.8
										s0.1-1.2,0.4-1.8c0.3-0.5,0.7-0.9,1.3-1.2c0.5-0.3,1.1-0.4,1.8-0.4s1.3,0.1,1.8,0.4c0.5,0.3,1,0.7,1.3,1.2s0.5,1.1,0.5,1.8
										s-0.2,1.2-0.5,1.8c-0.3,0.5-0.7,0.9-1.3,1.2S165.4,44.9,164.8,44.9z M164.8,43.6c0.6,0,1-0.2,1.4-0.6
										c0.4-0.4,0.6-0.9,0.6-1.5s-0.2-1.1-0.6-1.5c-0.4-0.4-0.8-0.6-1.4-0.6s-1,0.2-1.4,0.6c-0.4,0.4-0.5,0.9-0.5,1.5
										s0.2,1.1,0.5,1.5C163.7,43.4,164.2,43.6,164.8,43.6z M173.5,38.1c0.6,0,1.2,0.1,1.7,0.4c0.5,0.3,0.9,0.7,1.2,1.2
										s0.4,1.1,0.4,1.8s-0.1,1.3-0.4,1.8c-0.3,0.5-0.7,0.9-1.2,1.2s-1.1,0.4-1.7,0.4c-0.5,0-0.9-0.1-1.3-0.2
										c-0.4-0.2-0.7-0.4-0.9-0.7v0.9h-1.5v-9.2h1.6V39c0.3-0.3,0.6-0.5,0.9-0.7C172.7,38.2,173.1,38.1,173.5,38.1z M173.3,43.6
										c0.6,0,1-0.2,1.4-0.6c0.4-0.4,0.6-0.9,0.6-1.5s-0.2-1.1-0.6-1.5c-0.4-0.4-0.8-0.6-1.4-0.6c-0.4,0-0.7,0.1-1,0.3
										s-0.5,0.4-0.7,0.7s-0.3,0.7-0.3,1.1c0,0.4,0.1,0.8,0.3,1.1s0.4,0.6,0.7,0.7C172.6,43.5,172.9,43.6,173.3,43.6z"/>
									<path fill="#C4C4C4" d="M28.7,342.3h39c2.3,0,4.2,1.9,4.2,4.1v38.8c0,2.3-1.9,4.1-4.2,4.1h-39c-2.3,0-4.2-1.9-4.2-4.1
										v-38.8C24.5,344.1,26.4,342.3,28.7,342.3z"/>
								</g>
								<g>
									<g>
										<g>
											<rect fill="#FFFFFF" width="260" height="460"/>
											
												<linearGradient id="SVGID_2_" gradientUnits="userSpaceOnUse" x1="127.044" y1="320.0187" x2="132.8824" y2="398.9248" gradientTransform="matrix(1 0 0 1 0 -329.4189)">
												<stop  offset="0" style="stop-color:#004DA8"/>
												<stop  offset="1" style="stop-color:#2E98D3"/>
											</linearGradient>
											<rect fill="url(#SVGID_2_)" width="260" height="61.1"/>
											<path fill="#6BFFFF" d="M26.6,40.6c0-0.4-0.3-0.7-0.7-0.7h-8c-0.6,0-0.9-0.7-0.5-1.2l3.1-3.1c0.3-0.3,0.3-0.7,0-1
												l-0.2-0.2c-0.3-0.3-0.7-0.3-1,0l-5.9,5.8c-0.3,0.3-0.3,0.7,0,1l5.9,5.8c0.3,0.3,0.7,0.3,1,0l0.2-0.2c0.3-0.3,0.3-0.7,0-1
												l-3.1-3.1c-0.4-0.4-0.1-1.2,0.5-1.2h8c0.4,0,0.7-0.3,0.7-0.7V40.6z"/>
											<rect y="61.1" fill="#FFFFFF" width="260" height="398.9"/>
											<path fill="#FFFFFF" d="M86.6,45.5L84.8,43c-0.1,0-0.2,0-0.3,0h-2v2.5h-1.6v-8.7h3.6c0.8,0,1.4,0.1,2,0.4
												c0.6,0.2,1,0.6,1.3,1.1s0.4,1,0.4,1.7s-0.2,1.2-0.5,1.7s-0.8,0.8-1.4,1.1l2,2.9h-1.7V45.5z M86.6,39.9
												c0-0.6-0.2-1-0.5-1.3s-0.9-0.4-1.6-0.4h-1.9v3.5h1.9c0.7,0,1.2-0.1,1.6-0.4C86.4,40.9,86.6,40.5,86.6,39.9z M96.2,42.2
												c0,0.1,0,0.3,0,0.5H91c0.1,0.5,0.3,0.9,0.7,1.2c0.4,0.3,0.9,0.4,1.4,0.4c0.7,0,1.3-0.2,1.8-0.7l0.8,1
												c-0.3,0.4-0.7,0.6-1.1,0.8c-0.5,0.2-1,0.3-1.5,0.3c-0.7,0-1.4-0.1-1.9-0.4c-0.6-0.3-1-0.7-1.3-1.2s-0.4-1.1-0.4-1.8
												c0-0.6,0.1-1.2,0.4-1.7s0.7-0.9,1.2-1.2s1.1-0.4,1.8-0.4c0.6,0,1.2,0.1,1.7,0.4c0.5,0.3,0.9,0.7,1.2,1.2
												C96,41,96.2,41.6,96.2,42.2z M92.8,40.1c-0.5,0-0.9,0.1-1.3,0.4c-0.3,0.3-0.5,0.7-0.6,1.2h3.8c-0.1-0.5-0.3-0.9-0.6-1.2
												C93.7,40.2,93.3,40.1,92.8,40.1z M103.8,38.9l-2.9,6.6h-1.6l-2.9-6.6H98l2.1,4.9l2.1-4.9H103.8z M104.7,38.9h1.6v6.6
												h-1.6V38.9z M105.5,37.8c-0.3,0-0.5-0.1-0.7-0.3s-0.3-0.4-0.3-0.7s0.1-0.5,0.3-0.7c0.2-0.2,0.4-0.3,0.7-0.3
												c0.3,0,0.5,0.1,0.7,0.3s0.3,0.4,0.3,0.6c0,0.3-0.1,0.5-0.3,0.7C106.1,37.7,105.8,37.8,105.5,37.8z M114.6,42.2
												c0,0.1,0,0.3,0,0.5h-5.2c0.1,0.5,0.3,0.9,0.7,1.2c0.4,0.3,0.9,0.4,1.4,0.4c0.7,0,1.3-0.2,1.8-0.7l0.8,1
												c-0.3,0.4-0.7,0.6-1.1,0.8c-0.5,0.2-1,0.3-1.5,0.3c-0.7,0-1.4-0.1-1.9-0.4c-0.6-0.3-1-0.7-1.3-1.2s-0.4-1.1-0.4-1.8
												c0-0.6,0.1-1.2,0.4-1.7s0.7-0.9,1.2-1.2s1.1-0.4,1.8-0.4c0.6,0,1.2,0.1,1.7,0.4c0.5,0.3,0.9,0.7,1.2,1.2
												C114.5,41,114.6,41.6,114.6,42.2z M111.2,40.1c-0.5,0-0.9,0.1-1.3,0.4c-0.3,0.3-0.5,0.7-0.6,1.2h3.8
												c-0.1-0.5-0.3-0.9-0.6-1.2C112.2,40.2,111.8,40.1,111.2,40.1z M126.4,38.9l-2.5,6.6h-1.5l-1.7-4.6l-1.7,4.6h-1.5
												l-2.4-6.6h1.5l1.8,4.9l1.8-4.9h1.3l1.8,4.9l1.8-4.9H126.4z M134.7,36.8c0.8,0,1.4,0.1,2,0.4c0.6,0.2,1,0.6,1.3,1.1
												s0.4,1,0.4,1.7c0,0.6-0.1,1.2-0.4,1.7c-0.3,0.5-0.7,0.8-1.3,1.1c-0.6,0.2-1.2,0.4-2,0.4h-2v2.5h-1.6V37h3.6V36.8z
												 M134.6,41.6c0.7,0,1.2-0.1,1.6-0.4c0.4-0.3,0.5-0.7,0.5-1.3s-0.2-1-0.5-1.3c-0.4-0.3-0.9-0.4-1.6-0.4h-1.9v3.5
												L134.6,41.6L134.6,41.6z M143.7,38.8c0.8,0,1.5,0.2,2,0.7s0.8,1.2,0.8,2.2v3.8H145v-3.6c0-0.6-0.1-1-0.4-1.3
												c-0.3-0.3-0.7-0.4-1.2-0.4c-0.6,0-1,0.2-1.4,0.5c-0.3,0.3-0.5,0.8-0.5,1.5v3.4H140v-9.2h1.6v3.4c0.3-0.3,0.6-0.5,0.9-0.6
												C142.9,38.9,143.3,38.8,143.7,38.8z M151.6,45.6c-0.7,0-1.3-0.1-1.8-0.4c-0.5-0.3-1-0.7-1.3-1.2s-0.4-1.1-0.4-1.8
												s0.1-1.2,0.4-1.8c0.3-0.5,0.7-0.9,1.3-1.2c0.5-0.3,1.1-0.4,1.8-0.4s1.3,0.1,1.8,0.4s1,0.7,1.3,1.2s0.5,1.1,0.5,1.8
												s-0.2,1.2-0.5,1.8c-0.3,0.5-0.7,0.9-1.3,1.2C152.9,45.5,152.2,45.6,151.6,45.6z M151.6,44.3c0.6,0,1-0.2,1.4-0.6
												c0.4-0.4,0.6-0.9,0.6-1.5s-0.2-1.1-0.6-1.5c-0.4-0.4-0.8-0.6-1.4-0.6c-0.6,0-1,0.2-1.4,0.6c-0.4,0.4-0.5,0.9-0.5,1.5
												s0.2,1.1,0.5,1.5C150.5,44.1,151,44.3,151.6,44.3z M160.6,45.2c-0.2,0.1-0.4,0.3-0.7,0.3c-0.3,0.1-0.5,0.1-0.8,0.1
												c-0.7,0-1.3-0.2-1.7-0.6c-0.4-0.4-0.6-0.9-0.6-1.7v-3.2h-1.1v-1.2h1.1v-1.5h1.6v1.5h1.8v1.2h-1.8v3.2
												c0,0.3,0.1,0.6,0.2,0.7c0.2,0.2,0.4,0.2,0.7,0.2s0.6-0.1,0.9-0.3L160.6,45.2z M164.7,45.6c-0.7,0-1.3-0.1-1.8-0.4
												c-0.5-0.3-1-0.7-1.3-1.2s-0.4-1.1-0.4-1.8s0.1-1.2,0.4-1.8c0.3-0.5,0.7-0.9,1.3-1.2s1.1-0.4,1.8-0.4s1.3,0.1,1.8,0.4
												s1,0.7,1.3,1.2s0.5,1.1,0.5,1.8s-0.2,1.2-0.5,1.8c-0.3,0.5-0.7,0.9-1.3,1.2C166,45.5,165.4,45.6,164.7,45.6z M164.7,44.3
												c0.6,0,1-0.2,1.4-0.6c0.4-0.4,0.6-0.9,0.6-1.5s-0.2-1.1-0.6-1.5c-0.4-0.4-0.8-0.6-1.4-0.6s-1,0.2-1.4,0.6
												c-0.4,0.4-0.5,0.9-0.5,1.5s0.2,1.1,0.5,1.5C163.6,44.1,164.1,44.3,164.7,44.3z"/>
										</g>
										<rect x="13.2" y="70.4" fill="none" width="232.5" height="322"/>
										<path fill="#FFFFFF" d="M237.5,4.2c-0.2,0-0.3,0.2-0.3,0.3v5.3c0,0.2,0.2,0.3,0.3,0.3h6.6v-6L237.5,4.2L237.5,4.2z"/>
										<path fill="#FFFFFF" d="M253.9,3.4h-16.2c-0.7,0-1.3,0.5-1.3,1.2v5.2c0,0.7,0.6,1.2,1.3,1.2h16.2c0.7,0,1.3-0.5,1.3-1.2
											V4.6C255.1,4,254.6,3.4,253.9,3.4z M236.8,4.6c0-0.4,0.4-0.8,0.8-0.8h16.2c0.5,0,0.8,0.4,0.8,0.8v5.2
											c0,0.4-0.4,0.8-0.8,0.8h-16.2c-0.5,0-0.8-0.4-0.8-0.8V4.6z"/>
										<path fill="#FFFFFF" d="M256.5,7.2c0,0.7-0.5,1.3-1,1.4V5.9C256.1,6,256.5,6.5,256.5,7.2z"/>
										<path fill="#FFFFFF" d="M106.8,6.9c0-0.4,0.3-0.7,0.7-0.7h4.2c0.4,0,0.7,0.3,0.7,0.7v2.8c0,0.4-0.3,0.7-0.7,0.7h-4.2
											c-0.4,0-0.7-0.3-0.7-0.7V6.9z"/>
										<path fill="#FFFFFF" d="M213.8,10.5c1.4,0,2.4-0.9,2.4-2.3c0-1.3-0.9-2.3-2.2-2.3c-0.6,0-1.1,0.2-1.4,0.6h-0.1l0.2-2.2
											h3.1V3.5H212l-0.4,3.9h0.8c0.3-0.5,0.8-0.8,1.4-0.8c0.9,0,1.5,0.6,1.5,1.6c0,0.9-0.6,1.6-1.5,1.6c-0.8,0-1.4-0.5-1.5-1.2
											h-0.8C211.6,9.7,212.5,10.5,213.8,10.5z M219.9,10.5c1.4,0,2.5-0.8,2.5-2c0-0.9-0.6-1.6-1.4-1.7V6.7
											c0.7-0.2,1.1-0.8,1.1-1.5c0-1.1-0.9-1.8-2.2-1.8s-2.2,0.8-2.2,1.8c0,0.7,0.4,1.3,1.1,1.5v0.1c-0.9,0.2-1.4,0.8-1.4,1.7
											C217.4,9.7,218.4,10.5,219.9,10.5z M219.9,9.8c-0.9,0-1.6-0.5-1.6-1.3s0.7-1.3,1.6-1.3c0.9,0,1.6,0.5,1.6,1.3
											C221.5,9.2,220.8,9.8,219.9,9.8z M219.9,6.4c-0.8,0-1.3-0.5-1.3-1.2s0.5-1.2,1.3-1.2s1.3,0.5,1.3,1.2
											C221.2,6,220.7,6.4,219.9,6.4z M231.5,9.9c-0.4,0-0.7-0.4-0.7-1s0.3-1,0.7-1s0.7,0.4,0.7,1C232.2,9.4,231.9,9.9,231.5,9.9
											z M231.5,10.5c0.9,0,1.5-0.7,1.5-1.6c0-1-0.6-1.6-1.5-1.6S230,8,230,8.9C230.1,9.8,230.7,10.5,231.5,10.5z M227.6,6.7
											c0.9,0,1.5-0.7,1.5-1.6s-0.6-1.6-1.5-1.6s-1.5,0.7-1.5,1.6S226.7,6.7,227.6,6.7z M227.5,10.3l2.3-3.2l2.7-3.6h-0.9
											l-2.4,3.3l-2.6,3.5H227.5z M227.6,6.1c-0.4,0-0.7-0.4-0.7-1s0.3-1,0.7-1s0.7,0.4,0.7,1S228,6.1,227.6,6.1z"/>
										<path fill="#FFFFFF" d="M109.5,3.4c-1.1,0-2.1,0.9-2.1,2.1v2.1h0.7V5.5c0-0.8,0.6-1.4,1.4-1.4s1.4,0.6,1.4,1.4v2.1h0.7
											V5.5C111.6,4.4,110.7,3.4,109.5,3.4z"/>
										<path fill="#FFFFFF" d="M55.8,4.7c1.7,0,3.2,0.6,4.4,1.6L61,5.4c-1.4-1.2-3.2-2-5.2-2s-3.8,0.8-5.2,2l0.8,0.9
											C52.6,5.3,54.1,4.7,55.8,4.7z M55.8,7.3c1,0,1.9,0.4,2.6,0.9l0.9-0.9C58.4,6.5,57.1,6,55.8,6s-2.6,0.5-3.5,1.3l0.9,0.9
											C53.9,7.6,54.8,7.3,55.8,7.3z M57.6,9.1c-0.5-0.4-1.1-0.7-1.8-0.7S54.5,8.7,54,9.1l1.8,1.9L57.6,9.1z"/>
										<path fill="#FFFFFF" d="M42,7.7V6.9h-2.8v0.7h1.9v0.2c0,1.2-0.8,1.9-2.1,1.9c-1.4,0-2.2-1.1-2.2-2.8s0.9-2.8,2.2-2.8
											c1,0,1.7,0.5,2,1.4h0.9c-0.2-1.3-1.3-2.2-2.9-2.2c-1.9,0-3.1,1.4-3.1,3.6s1.2,3.6,3.1,3.6C40.8,10.5,42,9.4,42,7.7z
											 M42.9,8.6c0.1,1.2,1.1,1.9,2.5,1.9c1.6,0,2.6-0.8,2.6-2c0-1-0.6-1.5-2-1.9l-0.7-0.2c-1-0.3-1.3-0.6-1.3-1.1
											c0-0.7,0.6-1.1,1.5-1.1s1.4,0.4,1.5,1.1h0.9c-0.1-1.1-1.1-1.9-2.4-1.9c-1.4,0-2.4,0.8-2.4,1.9c0,1,0.5,1.5,1.8,1.8
											l0.9,0.2c0.9,0.2,1.4,0.6,1.4,1.2c0,0.7-0.7,1.2-1.6,1.2c-1,0-1.7-0.5-1.8-1.2h-0.9V8.6z"/>
										<path fill="#FFFFFF" d="M28.8,6.9c0,1.3,1.1,2.4,2.4,2.4c1.3,0,2.4-1.1,2.4-2.4s-1.1-2.4-2.4-2.4
											C29.9,4.5,28.8,5.6,28.8,6.9z M33.2,6.9c0,1.1-0.9,2-2,2c-1.1,0-2-0.9-2-2s0.9-2,2-2C32.3,4.9,33.2,5.8,33.2,6.9z"/>
										<path fill="#FFFFFF" d="M22.9,6.9c0,1.3,1.1,2.4,2.4,2.4s2.4-1.1,2.4-2.4s-1.1-2.4-2.4-2.4S22.9,5.6,22.9,6.9z M27.3,6.9
											c0,1.1-0.9,2-2,2s-2-0.9-2-2s0.9-2,2-2C26.4,4.9,27.3,5.8,27.3,6.9z"/>
										<path fill="#FFFFFF" d="M19.4,9.3c1.3,0,2.4-1.1,2.4-2.4s-1.1-2.4-2.4-2.4S17,5.6,17,6.9S18.1,9.3,19.4,9.3z"/>
										<path fill="#FFFFFF" d="M120.9,10.5c1.5,0,2.4-1.3,2.4-3.6s-0.9-3.6-2.4-3.6s-2.4,1.3-2.4,3.6S119.4,10.5,120.9,10.5z
											 M120.9,9.8c-1,0-1.6-1-1.6-2.8s0.6-2.8,1.6-2.8s1.6,1,1.6,2.8S121.9,9.8,120.9,9.8z M126.8,10.5c1.7,0,2.6-1.3,2.6-3.7
											c0-0.7-0.1-1.4-0.3-1.9c-0.4-1-1.2-1.5-2.2-1.5c-1.4,0-2.4,1-2.4,2.3s0.9,2.3,2.2,2.3c0.8,0,1.5-0.4,1.8-1l0,0l0,0l0,0
											c0,1.8-0.7,2.8-1.8,2.8c-0.7,0-1.2-0.4-1.4-1h-0.9C124.8,9.8,125.6,10.5,126.8,10.5z M126.8,7.3c-0.9,0-1.5-0.6-1.5-1.6
											c0-0.9,0.7-1.6,1.5-1.6s1.5,0.7,1.5,1.6C128.4,6.6,127.8,7.3,126.8,7.3z M130.7,9c0,0.4,0.3,0.7,0.7,0.7s0.7-0.3,0.7-0.7
											s-0.3-0.7-0.7-0.7S130.7,8.6,130.7,9z M130.7,5.3c0,0.4,0.3,0.7,0.7,0.7s0.7-0.3,0.7-0.7c0-0.4-0.3-0.7-0.7-0.7
											C131,4.6,130.7,4.9,130.7,5.3z M133.5,5.5L133.5,5.5h0.8l0,0c0-0.8,0.5-1.3,1.3-1.3s1.3,0.5,1.3,1.2
											c0,0.5-0.2,0.9-1.1,1.9l-2.4,2.6v0.6h4.4V9.6h-3.2V9.5l1.6-1.8c1.1-1.2,1.4-1.7,1.4-2.5c0-1.1-0.9-1.9-2.2-1.9
											C134.4,3.4,133.5,4.2,133.5,5.5z M142.4,10.3h0.8V8.9h1V8.2h-1V3.5H142c-1.2,1.8-2.3,3.5-2.9,4.6v0.8h3.3L142.4,10.3
											L142.4,10.3z M139.9,8.1c0.8-1.4,1.7-2.8,2.4-3.8h0.1v3.9L139.9,8.1L139.9,8.1z"/>
										<path fill="#FFFFFF" d="M13.5,9.3c1.3,0,2.4-1.1,2.4-2.4s-1.1-2.4-2.4-2.4s-2.4,1.1-2.4,2.4S12.2,9.3,13.5,9.3z"/>
										<path fill="#FFFFFF" d="M7.6,9.3c1.3,0,2.4-1.1,2.4-2.4S8.9,4.5,7.6,4.5S5.2,5.6,5.2,6.9S6.3,9.3,7.6,9.3z"/>
										
											<linearGradient id="SVGID_3_" gradientUnits="userSpaceOnUse" x1="123.0976" y1="737.4105" x2="136.9078" y2="795.6498" gradientTransform="matrix(1 0 0 1 0 -329.4189)">
											<stop  offset="0" style="stop-color:#004FA9"/>
											<stop  offset="1" style="stop-color:#2A92D0"/>
										</linearGradient>
										<path fill="url(#SVGID_3_)" d="M0,414.2h260V460H0V414.2z"/>
										<line fill="none" stroke="#FFFFFF" stroke-opacity="0.11" x1="131.9" y1="418.3" x2="131.9" y2="455.9"/>
										<path fill="#FFFFFF" d="M194.9,422.8c-1.6,0-3.1,0.5-4.4,1.3c-1.3,0.9-2.3,2.1-2.9,3.5c-0.6,1.4-0.8,3-0.4,4.5
											c0.3,1.5,1.1,2.9,2.2,4c1.1,1.1,2.5,1.8,4,2.1c1.5,0.3,3.1,0.1,4.5-0.4c1.4-0.6,2.7-1.6,3.5-2.9c0.9-1.3,1.3-2.8,1.3-4.3
											c0-1-0.2-2-0.6-3c-0.4-0.9-1-1.8-1.7-2.5s-1.6-1.3-2.6-1.7C197,423,196,422.8,194.9,422.8z M194.9,436.9
											c-1.2,0-2.5-0.4-3.5-1.1s-1.8-1.7-2.3-2.8c-0.5-1.1-0.6-2.4-0.4-3.6c0.2-1.2,0.8-2.3,1.7-3.2c0.9-0.9,2-1.5,3.2-1.7
											s2.5-0.1,3.6,0.4c1.2,0.5,2.1,1.3,2.8,2.3s1.1,2.2,1.1,3.5c0,1.7-0.7,3.3-1.8,4.4C198.2,436.2,196.6,436.9,194.9,436.9z
											 M195.7,425.9h-1.6v5.5h4.7v-1.6h-3.1L195.7,425.9L195.7,425.9z"/>
										<path fill="#FFFFFF" d="M67.9,431c0-0.2,0.1-0.5,0.1-0.7c0-4.2-3.4-7.6-7.6-7.6s-7.6,3.4-7.6,7.6s3.4,7.6,7.6,7.6
											c0.3,0,0.5,0,0.7-0.1l1.4,1.4l1-1l-3.5-3.4c-1.3-1.4-1.3-3.5,0-4.9c0.7-0.6,1.6-1,2.5-1s1.8,0.3,2.4,1l3.5,3.4l1-1
											L67.9,431z M65.8,429c-0.9-0.9-2.1-1.4-3.4-1.4s-2.5,0.5-3.5,1.4c-1.9,1.9-1.9,5,0,6.8l0.7,0.7c-3.1-0.3-5.5-3-5.5-6.1
											c0-3.4,2.8-6.2,6.2-6.2c3.2,0,5.9,2.4,6.2,5.6L65.8,429z M60.5,430.5c-0.6,0.5-0.8,1.2-0.8,1.9c0,0.8,0.3,1.4,0.8,1.9
											l1.5,1.4l4-3.9l-1.5-1.4C63.3,429.4,61.5,429.4,60.5,430.5z M61.9,433.9l-0.5-0.5c-0.3-0.3-0.4-0.6-0.4-1s0.1-0.7,0.4-1
											c0.3-0.3,0.6-0.4,1-0.4s0.7,0.1,1,0.4l0.5,0.5L61.9,433.9z"/>
										<path fill="#FFFFFF" d="M47.9,444.4c0.9,0,1.5,0.2,1.9,0.5s0.6,0.9,0.6,1.6s-0.2,1.2-0.6,1.5c-0.4,0.3-1,0.5-1.9,0.5h-1
											v1.7h-1v-5.8L47.9,444.4L47.9,444.4z M48,447.6c0.5,0,0.9-0.1,1.1-0.3c0.2-0.2,0.3-0.5,0.3-0.9s-0.1-0.7-0.4-0.9
											c-0.2-0.2-0.6-0.2-1.2-0.2h-1v2.3H48z M54.9,450.2h-0.8v-0.6c-0.4,0.4-0.9,0.7-1.5,0.7c-0.5,0-0.8-0.1-1.1-0.4
											s-0.4-0.6-0.4-1s0.2-0.8,0.5-1s0.8-0.3,1.3-0.3H54v-0.2c0-0.6-0.3-0.9-1-0.9c-0.4,0-0.8,0.1-1.3,0.4l-0.4-0.6
											c0.5-0.4,1.1-0.6,1.8-0.6c0.5,0,0.9,0.1,1.3,0.4c0.3,0.3,0.5,0.7,0.5,1.2C54.9,447.3,54.9,450.2,54.9,450.2z M54,448.6
											v-0.4h-1c-0.7,0-1,0.2-1,0.6c0,0.2,0.1,0.4,0.2,0.5c0.2,0.1,0.4,0.2,0.7,0.2s0.6-0.1,0.8-0.2S54,448.9,54,448.6z
											 M56.7,452c-0.4,0-0.8-0.1-1.1-0.4l0.4-0.8c0.2,0.2,0.4,0.3,0.6,0.3c0.2,0,0.4-0.1,0.5-0.2s0.2-0.3,0.2-0.5
											c0-0.1-0.6-1.6-1.8-4.5h1l1.3,3.2l1.3-3.2h1l-2.1,5.2c-0.1,0.3-0.3,0.5-0.5,0.7C57.3,451.9,57,452,56.7,452z M64.2,447.8
											v2.4h-0.9v-4.4h0.9v0.8c0.1-0.3,0.4-0.5,0.6-0.6c0.3-0.2,0.6-0.2,0.9-0.2c0.5,0,0.9,0.2,1.2,0.5c0.3,0.3,0.5,0.7,0.5,1.3
											v2.7h-0.9v-2.4c0-0.8-0.3-1.2-1-1.2c-0.3,0-0.6,0.1-0.8,0.3C64.3,447.1,64.2,447.4,64.2,447.8z M69.7,449.1
											c0.3,0.3,0.6,0.4,1,0.4s0.7-0.1,1-0.4s0.4-0.6,0.4-1s-0.1-0.8-0.4-1c-0.3-0.3-0.6-0.4-1-0.4s-0.7,0.1-1,0.4
											s-0.4,0.6-0.4,1C69.3,448.4,69.4,448.8,69.7,449.1z M72.3,449.6c-0.4,0.4-1,0.7-1.7,0.7s-1.2-0.2-1.7-0.7
											c-0.4-0.4-0.7-1-0.7-1.6s0.2-1.2,0.7-1.6c0.4-0.4,1-0.7,1.7-0.7s1.2,0.2,1.7,0.7c0.4,0.4,0.7,1,0.7,1.6
											S72.8,449.2,72.3,449.6z M76.1,450.2H75l-1.5-4.4h1l1.1,3.3l1.1-3.3h1l1.1,3.3l1.1-3.3h1l-1.5,4.4h-1.1l-1-3L76.1,450.2z"
											/>
										<path fill="#FFFFFF" d="M180.3,444.4c0.9,0,1.5,0.2,1.9,0.5s0.6,0.9,0.6,1.6s-0.2,1.2-0.6,1.5c-0.4,0.3-1,0.5-1.9,0.5h-1
											v1.7h-1v-5.8L180.3,444.4L180.3,444.4z M180.4,447.6c0.5,0,0.9-0.1,1.1-0.3c0.2-0.2,0.3-0.5,0.3-0.9s-0.1-0.7-0.4-0.9
											c-0.2-0.2-0.6-0.2-1.2-0.2h-1v2.3H180.4z M187.4,450.2h-0.8v-0.6c-0.4,0.4-0.9,0.7-1.5,0.7c-0.5,0-0.8-0.1-1.1-0.4
											s-0.4-0.6-0.4-1s0.2-0.8,0.5-1s0.8-0.3,1.3-0.3h1.2v-0.2c0-0.6-0.3-0.9-1-0.9c-0.4,0-0.8,0.1-1.3,0.4l-0.4-0.6
											c0.5-0.4,1.1-0.6,1.8-0.6c0.5,0,0.9,0.1,1.3,0.4c0.3,0.3,0.5,0.7,0.5,1.2v2.9H187.4z M186.4,448.6v-0.4h-1
											c-0.7,0-1,0.2-1,0.6c0,0.2,0.1,0.4,0.2,0.5c0.2,0.1,0.4,0.2,0.7,0.2s0.6-0.1,0.8-0.2S186.4,448.9,186.4,448.6z M189.2,452
											c-0.4,0-0.8-0.1-1.1-0.4l0.4-0.8c0.2,0.2,0.4,0.3,0.6,0.3c0.2,0,0.4-0.1,0.5-0.2s0.2-0.3,0.2-0.5c0-0.1-0.6-1.6-1.8-4.5h1
											l1.3,3.2l1.3-3.2h1l-2.1,5.2c-0.1,0.3-0.3,0.5-0.5,0.7C189.7,451.9,189.5,452,189.2,452z M196.6,450.2h-0.9v-6.1h0.9
											V450.2z M201.5,450.2h-0.8v-0.6c-0.4,0.4-0.9,0.7-1.5,0.7c-0.5,0-0.8-0.1-1.1-0.4s-0.4-0.6-0.4-1s0.2-0.8,0.5-1
											s0.8-0.3,1.3-0.3h1.2v-0.2c0-0.6-0.3-0.9-1-0.9c-0.4,0-0.8,0.1-1.3,0.4l-0.4-0.6c0.5-0.4,1.1-0.6,1.8-0.6
											c0.5,0,0.9,0.1,1.3,0.4c0.3,0.3,0.5,0.7,0.5,1.2v2.9H201.5z M200.6,448.6v-0.4h-1c-0.7,0-1,0.2-1,0.6
											c0,0.2,0.1,0.4,0.2,0.5c0.2,0.1,0.4,0.2,0.7,0.2s0.6-0.1,0.8-0.2S200.6,448.9,200.6,448.6z M203.9,446.6v2.2
											c0,0.2,0.1,0.4,0.2,0.5c0.1,0.1,0.3,0.2,0.5,0.2s0.4-0.1,0.6-0.3l0.4,0.7c-0.3,0.3-0.7,0.4-1.1,0.4c-0.4,0-0.7-0.1-1-0.4
											s-0.4-0.6-0.4-1.1v-2.2h-0.6v-0.7h0.6v-1.4h0.9v1.4h1.2v0.7L203.9,446.6L203.9,446.6z M210.4,448.4h-3.5
											c0,0.3,0.2,0.6,0.4,0.8c0.3,0.2,0.6,0.3,0.9,0.3c0.6,0,1-0.2,1.3-0.5l0.5,0.6c-0.5,0.5-1.1,0.7-1.9,0.7
											c-0.6,0-1.2-0.2-1.6-0.6c-0.4-0.4-0.6-1-0.6-1.7s0.2-1.2,0.7-1.7c0.4-0.4,1-0.6,1.6-0.6s1.1,0.2,1.5,0.5
											c0.4,0.4,0.6,0.9,0.6,1.5v0.7H210.4z M206.9,447.7h2.5c0-0.4-0.1-0.7-0.3-0.9c-0.2-0.2-0.5-0.3-0.9-0.3
											c-0.3,0-0.6,0.1-0.9,0.3C207,447.1,206.9,447.3,206.9,447.7z M213.7,446.7c-0.5,0-0.8,0.1-1,0.4s-0.3,0.7-0.3,1.2v1.9
											h-0.9v-4.4h0.9v0.9c0.1-0.3,0.4-0.5,0.6-0.7c0.3-0.2,0.5-0.3,0.8-0.3L213.7,446.7C213.8,446.7,213.7,446.7,213.7,446.7z"
											/>
									</g>
								</g>
							</g>
						</g>
					</g>
				</g>
			</g>
		</g>
	</g>
</g>
</svg>
