<?xml version="1.0" encoding="utf-8"?>
<!-- Generator: Adobe Illustrator 22.0.0, SVG Export Plug-In . SVG Version: 6.00 Build 0)  -->
<svg version="1.1" id="Слой_1" xmlns="http://www.w3.org/2000/svg" xmlns:xlink="http://www.w3.org/1999/xlink" x="0px" y="0px"
	 viewBox="0 0 260 460" enable-background="new 0 0 260 460" xml:space="preserve">
<g>
	<g>
		<rect fill="#FFFFFF" width="260" height="460"/>
		<g>
			<g>
				<path fill-opacity="1.000000e-02" d="M0,13.8v13.8h260V13.8H0z"/>
				<path fill="#FFFFFF" d="M253.9,17.2h-16.2c-0.7,0-1.3,0.5-1.3,1.2v5.2c0,0.7,0.6,1.2,1.3,1.2h16.2c0.7,0,1.3-0.5,1.3-1.2v-5.2
					C255.1,17.8,254.6,17.2,253.9,17.2z M236.8,18.4c0-0.4,0.4-0.8,0.8-0.8h16.2c0.5,0,0.8,0.4,0.8,0.8v5.2c0,0.4-0.4,0.8-0.8,0.8
					h-16.2c-0.5,0-0.8-0.4-0.8-0.8V18.4z"/>
				<path fill="#FFFFFF" d="M237.5,18c-0.2,0-0.3,0.2-0.3,0.3v5.3c0,0.2,0.2,0.3,0.3,0.3h6.6v-6H237.5z"/>
				<path fill="#FFFFFF" d="M256.5,21c0,0.7-0.5,1.3-1,1.4v-2.8C256.1,19.8,256.5,20.3,256.5,21z"/>
				<path fill="#FFFFFF" d="M213.8,24.3c1.4,0,2.4-0.9,2.4-2.3c0-1.3-0.9-2.3-2.2-2.3c-0.6,0-1.1,0.2-1.4,0.6h-0.1l0.2-2.2h3.1v-0.8
					H212l-0.4,3.9h0.8c0.3-0.5,0.8-0.8,1.4-0.8c0.9,0,1.5,0.6,1.5,1.6s-0.6,1.6-1.5,1.6c-0.8,0-1.4-0.5-1.5-1.2h-0.8
					C211.6,23.5,212.5,24.3,213.8,24.3z M219.9,24.3c1.4,0,2.5-0.8,2.5-2c0-0.9-0.6-1.6-1.4-1.7v-0.1c0.7-0.2,1.1-0.8,1.1-1.5
					c0-1.1-0.9-1.8-2.2-1.8c-1.3,0-2.2,0.8-2.2,1.8c0,0.7,0.4,1.3,1.1,1.5v0.1c-0.9,0.2-1.4,0.8-1.4,1.7
					C217.4,23.5,218.4,24.3,219.9,24.3z M219.9,23.6c-0.9,0-1.6-0.5-1.6-1.3c0-0.8,0.7-1.3,1.6-1.3c0.9,0,1.6,0.5,1.6,1.3
					C221.5,23,220.8,23.6,219.9,23.6z M219.9,20.2c-0.8,0-1.3-0.5-1.3-1.2c0-0.7,0.5-1.2,1.3-1.2c0.8,0,1.3,0.5,1.3,1.2
					C221.2,19.8,220.7,20.2,219.9,20.2z M231.5,23.7c-0.4,0-0.7-0.4-0.7-1c0-0.6,0.3-1,0.7-1c0.4,0,0.7,0.4,0.7,1
					C232.2,23.2,231.9,23.7,231.5,23.7z M231.5,24.3c0.9,0,1.5-0.7,1.5-1.6c0-1-0.6-1.6-1.5-1.6c-0.9,0-1.5,0.7-1.5,1.6
					C230.1,23.6,230.7,24.3,231.5,24.3z M227.6,20.5c0.9,0,1.5-0.7,1.5-1.6c0-1-0.6-1.6-1.5-1.6c-0.9,0-1.5,0.7-1.5,1.6
					C226.1,19.8,226.7,20.5,227.6,20.5z M227.5,24.1l2.3-3.2l2.7-3.6h-0.9l-2.4,3.3l-2.6,3.5H227.5z M227.6,19.9
					c-0.4,0-0.7-0.4-0.7-1s0.3-1,0.7-1c0.4,0,0.7,0.4,0.7,1C228.3,19.5,228,19.9,227.6,19.9z"/>
				<path opacity="0.45" fill="#FFFFFF" enable-background="new    " d="M204.1,24v-2.4l1.2,1.3L204.1,24z M205.3,19.2l-1.2,1.2
					v-2.3L205.3,19.2z M204.4,21l1.8-1.8l-2.7-2.6h-0.1v3.7l-1.9-1.9l-0.5,0.6l2.2,2.2l-2.2,2.2l0.5,0.6l1.9-1.9v3.7h0.1l2.7-2.7
					L204.4,21z"/>
				<path fill="#FFFFFF" d="M106.8,20.7c0-0.4,0.3-0.7,0.7-0.7h4.2c0.4,0,0.7,0.3,0.7,0.7v2.8c0,0.4-0.3,0.7-0.7,0.7h-4.2
					c-0.4,0-0.7-0.3-0.7-0.7V20.7z"/>
				<path fill="#FFFFFF" d="M109.5,17.2c-1.1,0-2.1,0.9-2.1,2.1v2.1h0.7v-2.1c0-0.8,0.6-1.4,1.4-1.4s1.4,0.6,1.4,1.4v2.1h0.7v-2.1
					C111.6,18.2,110.7,17.2,109.5,17.2z"/>
				<path fill="#FFFFFF" d="M120.9,24.3c1.5,0,2.4-1.3,2.4-3.5c0-2.3-0.9-3.6-2.4-3.6c-1.5,0-2.4,1.3-2.4,3.6
					C118.5,23,119.4,24.3,120.9,24.3z M120.9,23.6c-1,0-1.6-1-1.6-2.8c0-1.8,0.6-2.8,1.6-2.8s1.6,1,1.6,2.8
					C122.5,22.6,121.9,23.6,120.9,23.6z M126.8,24.3c1.7,0,2.6-1.3,2.6-3.7c0-0.7-0.1-1.4-0.3-1.9c-0.4-1-1.2-1.5-2.2-1.5
					c-1.4,0-2.4,1-2.4,2.3c0,1.3,0.9,2.3,2.2,2.3c0.8,0,1.5-0.4,1.8-1h0h0h0c0,1.8-0.7,2.8-1.8,2.8c-0.7,0-1.2-0.4-1.4-1h-0.9
					C124.8,23.6,125.6,24.3,126.8,24.3z M126.8,21.1c-0.9,0-1.5-0.6-1.5-1.6c0-0.9,0.7-1.6,1.5-1.6s1.5,0.7,1.5,1.6
					C128.4,20.4,127.8,21.1,126.8,21.1z M130.7,22.8c0,0.4,0.3,0.7,0.7,0.7c0.4,0,0.7-0.3,0.7-0.7c0-0.4-0.3-0.7-0.7-0.7
					C131,22.1,130.7,22.4,130.7,22.8z M130.7,19.1c0,0.4,0.3,0.7,0.7,0.7c0.4,0,0.7-0.3,0.7-0.7c0-0.4-0.3-0.7-0.7-0.7
					C131,18.4,130.7,18.7,130.7,19.1z M133.5,19.2L133.5,19.2l0.8,0v0c0-0.8,0.5-1.3,1.3-1.3c0.8,0,1.3,0.5,1.3,1.2
					c0,0.5-0.2,0.9-1.1,1.9l-2.4,2.6v0.6h4.4v-0.8h-3.2v-0.1l1.6-1.8c1.1-1.2,1.4-1.7,1.4-2.5c0-1.1-0.9-1.9-2.2-1.9
					C134.4,17.2,133.5,18,133.5,19.2z M142.4,24.1h0.8v-1.4h1V22h-1v-4.6H142c-1.2,1.8-2.3,3.5-2.9,4.6v0.8h3.3V24.1z M139.9,21.9
					c0.8-1.4,1.7-2.8,2.4-3.8h0.1V22L139.9,21.9L139.9,21.9z"/>
				<path fill="#FFFFFF" d="M55.8,18.5c1.7,0,3.2,0.6,4.4,1.6l0.8-0.9c-1.4-1.2-3.2-2-5.2-2c-2,0-3.8,0.8-5.2,2l0.8,0.9
					C52.6,19.1,54.1,18.5,55.8,18.5z M55.8,21.1c1,0,1.9,0.4,2.6,0.9l0.9-0.9c-0.9-0.8-2.2-1.3-3.5-1.3c-1.3,0-2.6,0.5-3.5,1.3
					l0.9,0.9C53.9,21.4,54.8,21.1,55.8,21.1z M57.6,22.9c-0.5-0.4-1.1-0.7-1.8-0.7c-0.7,0-1.3,0.3-1.8,0.7l1.8,1.9L57.6,22.9z"/>
				<path fill="#FFFFFF" d="M42,21.5v-0.8h-2.8v0.7h1.9v0.2c0,1.2-0.8,1.9-2.1,1.9c-1.4,0-2.2-1.1-2.2-2.8c0-1.7,0.9-2.8,2.2-2.8
					c1,0,1.7,0.5,2,1.4h0.9c-0.2-1.3-1.3-2.2-2.9-2.2c-1.9,0-3.1,1.4-3.1,3.6c0,2.2,1.2,3.6,3.1,3.6C40.8,24.3,42,23.2,42,21.5z
					 M42.9,22.4c0.1,1.2,1.1,1.9,2.5,1.9c1.6,0,2.6-0.8,2.6-2c0-1-0.6-1.5-2-1.9l-0.7-0.2c-0.9-0.2-1.3-0.5-1.3-1.1
					c0-0.7,0.6-1.1,1.5-1.1c0.9,0,1.4,0.4,1.5,1.1h0.9c-0.1-1.1-1.1-1.9-2.4-1.9c-1.4,0-2.4,0.8-2.4,1.9c0,1,0.5,1.5,1.8,1.8
					l0.9,0.2c0.9,0.2,1.4,0.6,1.4,1.2c0,0.7-0.7,1.2-1.6,1.2c-1,0-1.7-0.5-1.8-1.2H42.9z"/>
				<path fill="#FFFFFF" d="M28.8,20.7c0,1.3,1.1,2.4,2.4,2.4c1.3,0,2.4-1.1,2.4-2.4c0-1.3-1.1-2.4-2.4-2.4
					C29.9,18.3,28.8,19.4,28.8,20.7z M33.2,20.7c0,1.1-0.9,2-2,2s-2-0.9-2-2c0-1.1,0.9-2,2-2S33.2,19.6,33.2,20.7z"/>
				<path fill="#FFFFFF" d="M22.9,20.7c0,1.3,1.1,2.4,2.4,2.4c1.3,0,2.4-1.1,2.4-2.4c0-1.3-1.1-2.4-2.4-2.4
					C24,18.3,22.9,19.4,22.9,20.7z M27.3,20.7c0,1.1-0.9,2-2,2c-1.1,0-2-0.9-2-2c0-1.1,0.9-2,2-2C26.4,18.7,27.3,19.6,27.3,20.7z"/>
				<path fill="#FFFFFF" d="M19.4,23.1c1.3,0,2.4-1.1,2.4-2.4c0-1.3-1.1-2.4-2.4-2.4S17,19.4,17,20.7C17,22,18.1,23.1,19.4,23.1z"/>
				<path fill="#FFFFFF" d="M13.5,23.1c1.3,0,2.4-1.1,2.4-2.4c0-1.3-1.1-2.4-2.4-2.4s-2.4,1.1-2.4,2.4C11.1,22,12.2,23.1,13.5,23.1z
					"/>
				<path fill="#FFFFFF" d="M7.6,23.1c1.3,0,2.4-1.1,2.4-2.4c0-1.3-1.1-2.4-2.4-2.4s-2.4,1.1-2.4,2.4C5.2,22,6.3,23.1,7.6,23.1z"/>
			</g>
			<g>
				<rect fill="#FFFFFF" width="260" height="460"/>
				
					<linearGradient id="SVGID_1_" gradientUnits="userSpaceOnUse" x1="1.4787" y1="462.8233" x2="255.2412" y2="7.0868" gradientTransform="matrix(1 0 0 -1 0 462)">
					<stop  offset="0" style="stop-color:#004DA8"/>
					<stop  offset="1" style="stop-color:#2E98D3"/>
				</linearGradient>
				<path fill="url(#SVGID_1_)" d="M0,0h260v460H0V0z"/>
				<g>
					<g>
						<path fill-opacity="1.000000e-02" d="M0,0v13.8h260V0H0z"/>
						<path fill="#FFFFFF" d="M253.9,3.4h-16.2c-0.7,0-1.3,0.5-1.3,1.2v5.2c0,0.7,0.6,1.2,1.3,1.2h16.2c0.7,0,1.3-0.5,1.3-1.2V4.6
							C255.1,4,254.6,3.4,253.9,3.4z M236.8,4.6c0-0.4,0.4-0.8,0.8-0.8h16.2c0.5,0,0.8,0.4,0.8,0.8v5.2c0,0.4-0.4,0.8-0.8,0.8h-16.2
							c-0.5,0-0.8-0.4-0.8-0.8V4.6z"/>
						<path fill="#FFFFFF" d="M237.5,4.2c-0.2,0-0.3,0.2-0.3,0.3v5.3c0,0.2,0.2,0.3,0.3,0.3h6.6v-6H237.5z"/>
						<path fill="#FFFFFF" d="M256.5,7.2c0,0.7-0.5,1.3-1,1.4V5.9C256.1,6,256.5,6.5,256.5,7.2z"/>
						<path fill="#FFFFFF" d="M213.8,10.5c1.4,0,2.4-0.9,2.4-2.3c0-1.3-0.9-2.3-2.2-2.3c-0.6,0-1.1,0.2-1.4,0.6h-0.1l0.2-2.2h3.1
							V3.5H212l-0.4,3.9h0.8c0.3-0.5,0.8-0.8,1.4-0.8c0.9,0,1.5,0.6,1.5,1.6s-0.6,1.6-1.5,1.6c-0.8,0-1.4-0.5-1.5-1.2h-0.8
							C211.6,9.7,212.5,10.5,213.8,10.5z M219.9,10.5c1.4,0,2.5-0.8,2.5-2c0-0.9-0.6-1.6-1.4-1.7V6.7c0.7-0.2,1.1-0.8,1.1-1.5
							c0-1.1-0.9-1.8-2.2-1.8c-1.3,0-2.2,0.8-2.2,1.8c0,0.7,0.4,1.3,1.1,1.5v0.1c-0.9,0.2-1.4,0.8-1.4,1.7
							C217.4,9.7,218.4,10.5,219.9,10.5z M219.9,9.8c-0.9,0-1.6-0.5-1.6-1.3c0-0.8,0.7-1.3,1.6-1.3c0.9,0,1.6,0.5,1.6,1.3
							C221.5,9.2,220.8,9.8,219.9,9.8z M219.9,6.4c-0.8,0-1.3-0.5-1.3-1.2c0-0.7,0.5-1.2,1.3-1.2c0.8,0,1.3,0.5,1.3,1.2
							C221.2,6,220.7,6.4,219.9,6.4z M231.5,9.9c-0.4,0-0.7-0.4-0.7-1c0-0.6,0.3-1,0.7-1c0.4,0,0.7,0.4,0.7,1
							C232.2,9.4,231.9,9.9,231.5,9.9z M231.5,10.5c0.9,0,1.5-0.7,1.5-1.6c0-1-0.6-1.6-1.5-1.6c-0.9,0-1.5,0.7-1.5,1.6
							C230.1,9.8,230.7,10.5,231.5,10.5z M227.6,6.7c0.9,0,1.5-0.7,1.5-1.6s-0.6-1.6-1.5-1.6c-0.9,0-1.5,0.7-1.5,1.6
							C226.1,6,226.7,6.7,227.6,6.7z M227.5,10.3l2.3-3.2l2.7-3.6h-0.9l-2.4,3.3l-2.6,3.5H227.5z M227.6,6.1c-0.4,0-0.7-0.4-0.7-1
							s0.3-1,0.7-1c0.4,0,0.7,0.4,0.7,1C228.3,5.7,228,6.1,227.6,6.1z"/>
						<path opacity="0.45" fill="#FFFFFF" enable-background="new    " d="M204.1,10.2V7.8l1.2,1.3L204.1,10.2z M205.3,5.4l-1.2,1.2
							V4.3L205.3,5.4z M204.4,7.2l1.8-1.8l-2.7-2.6h-0.1v3.7l-1.9-1.9l-0.5,0.6l2.2,2.2l-2.2,2.2l0.5,0.6l1.9-1.9v3.7h0.1l2.7-2.7
							L204.4,7.2z"/>
						<path fill="#FFFFFF" d="M106.8,6.9c0-0.4,0.3-0.7,0.7-0.7h4.2c0.4,0,0.7,0.3,0.7,0.7v2.8c0,0.4-0.3,0.7-0.7,0.7h-4.2
							c-0.4,0-0.7-0.3-0.7-0.7V6.9z"/>
						<path fill="#FFFFFF" d="M109.5,3.4c-1.1,0-2.1,0.9-2.1,2.1v2.1h0.7V5.5c0-0.8,0.6-1.4,1.4-1.4s1.4,0.6,1.4,1.4v2.1h0.7V5.5
							C111.6,4.4,110.7,3.4,109.5,3.4z"/>
						<path fill="#FFFFFF" d="M120.9,10.5c1.5,0,2.4-1.3,2.4-3.5c0-2.3-0.9-3.6-2.4-3.6c-1.5,0-2.4,1.3-2.4,3.6
							C118.5,9.2,119.4,10.5,120.9,10.5z M120.9,9.8c-1,0-1.6-1-1.6-2.8c0-1.8,0.6-2.8,1.6-2.8s1.6,1,1.6,2.8
							C122.5,8.8,121.9,9.8,120.9,9.8z M126.8,10.5c1.7,0,2.6-1.3,2.6-3.7c0-0.7-0.1-1.4-0.3-1.9c-0.4-1-1.2-1.5-2.2-1.5
							c-1.4,0-2.4,1-2.4,2.3c0,1.3,0.9,2.3,2.2,2.3c0.8,0,1.5-0.4,1.8-1h0h0h0c0,1.8-0.7,2.8-1.8,2.8c-0.7,0-1.2-0.4-1.4-1h-0.9
							C124.8,9.8,125.6,10.5,126.8,10.5z M126.8,7.3c-0.9,0-1.5-0.6-1.5-1.6c0-0.9,0.7-1.6,1.5-1.6s1.5,0.7,1.5,1.6
							C128.4,6.6,127.8,7.3,126.8,7.3z M130.7,9c0,0.4,0.3,0.7,0.7,0.7c0.4,0,0.7-0.3,0.7-0.7c0-0.4-0.3-0.7-0.7-0.7
							C131,8.3,130.7,8.6,130.7,9z M130.7,5.3c0,0.4,0.3,0.7,0.7,0.7c0.4,0,0.7-0.3,0.7-0.7c0-0.4-0.3-0.7-0.7-0.7
							C131,4.6,130.7,4.9,130.7,5.3z M133.5,5.5L133.5,5.5l0.8,0v0c0-0.8,0.5-1.3,1.3-1.3c0.8,0,1.3,0.5,1.3,1.2
							c0,0.5-0.2,0.9-1.1,1.9l-2.4,2.6v0.6h4.4V9.6h-3.2V9.5l1.6-1.8c1.1-1.2,1.4-1.7,1.4-2.5c0-1.1-0.9-1.9-2.2-1.9
							C134.4,3.4,133.5,4.2,133.5,5.5z M142.4,10.3h0.8V8.9h1V8.2h-1V3.5H142c-1.2,1.8-2.3,3.5-2.9,4.6v0.8h3.3V10.3z M139.9,8.1
							c0.8-1.4,1.7-2.8,2.4-3.8h0.1v3.9L139.9,8.1L139.9,8.1z"/>
						<path fill="#FFFFFF" d="M55.8,4.7c1.7,0,3.2,0.6,4.4,1.6L61,5.4c-1.4-1.2-3.2-2-5.2-2c-2,0-3.8,0.8-5.2,2l0.8,0.9
							C52.6,5.3,54.1,4.7,55.8,4.7z M55.8,7.3c1,0,1.9,0.4,2.6,0.9l0.9-0.9C58.4,6.5,57.1,6,55.8,6c-1.3,0-2.6,0.5-3.5,1.3l0.9,0.9
							C53.9,7.6,54.8,7.3,55.8,7.3z M57.6,9.1c-0.5-0.4-1.1-0.7-1.8-0.7c-0.7,0-1.3,0.3-1.8,0.7l1.8,1.9L57.6,9.1z"/>
						<path fill="#FFFFFF" d="M42,7.7V6.9h-2.8v0.7h1.9v0.2c0,1.2-0.8,1.9-2.1,1.9c-1.4,0-2.2-1.1-2.2-2.8c0-1.7,0.9-2.8,2.2-2.8
							c1,0,1.7,0.5,2,1.4h0.9c-0.2-1.3-1.3-2.2-2.9-2.2c-1.9,0-3.1,1.4-3.1,3.6c0,2.2,1.2,3.6,3.1,3.6C40.8,10.5,42,9.4,42,7.7z
							 M42.9,8.6c0.1,1.2,1.1,1.9,2.5,1.9c1.6,0,2.6-0.8,2.6-2c0-1-0.6-1.5-2-1.9l-0.7-0.2C44.3,6.1,44,5.8,44,5.3
							c0-0.7,0.6-1.1,1.5-1.1c0.9,0,1.4,0.4,1.5,1.1h0.9c-0.1-1.1-1.1-1.9-2.4-1.9c-1.4,0-2.4,0.8-2.4,1.9c0,1,0.5,1.5,1.8,1.8
							l0.9,0.2c0.9,0.2,1.4,0.6,1.4,1.2c0,0.7-0.7,1.2-1.6,1.2c-1,0-1.7-0.5-1.8-1.2H42.9z"/>
						<path fill="#FFFFFF" d="M28.8,6.9c0,1.3,1.1,2.4,2.4,2.4c1.3,0,2.4-1.1,2.4-2.4c0-1.3-1.1-2.4-2.4-2.4
							C29.9,4.5,28.8,5.6,28.8,6.9z M33.2,6.9c0,1.1-0.9,2-2,2s-2-0.9-2-2c0-1.1,0.9-2,2-2S33.2,5.8,33.2,6.9z"/>
						<path fill="#FFFFFF" d="M22.9,6.9c0,1.3,1.1,2.4,2.4,2.4c1.3,0,2.4-1.1,2.4-2.4c0-1.3-1.1-2.4-2.4-2.4
							C24,4.5,22.9,5.6,22.9,6.9z M27.3,6.9c0,1.1-0.9,2-2,2c-1.1,0-2-0.9-2-2c0-1.1,0.9-2,2-2C26.4,4.9,27.3,5.8,27.3,6.9z"/>
						<path fill="#FFFFFF" d="M19.4,9.3c1.3,0,2.4-1.1,2.4-2.4c0-1.3-1.1-2.4-2.4-2.4S17,5.6,17,6.9C17,8.2,18.1,9.3,19.4,9.3z"/>
						<path fill="#FFFFFF" d="M13.5,9.3c1.3,0,2.4-1.1,2.4-2.4c0-1.3-1.1-2.4-2.4-2.4s-2.4,1.1-2.4,2.4C11.1,8.2,12.2,9.3,13.5,9.3z
							"/>
						<path fill="#FFFFFF" d="M7.6,9.3c1.3,0,2.4-1.1,2.4-2.4c0-1.3-1.1-2.4-2.4-2.4S5.2,5.6,5.2,6.9C5.2,8.2,6.3,9.3,7.6,9.3z"/>
					</g>
					<path fill="#CCE134" d="M28.2,424.5l-2.2-3.8l2.2-3.8h4.4l2.2,3.8l-2.2,3.8H28.2z"/>
					<path fill="#F3922B" d="M34.8,420.7l-2.2-3.8l2.2-3.8h4.4l2.2,3.8l-2.2,3.8H34.8z"/>
					<path fill="#DC3348" d="M41.4,424.5l-2.2-3.8l2.2-3.8h4.4l2.2,3.8l-2.2,3.8H41.4z"/>
					<path fill="#01B49E" d="M28.3,432.1l-2.2-3.8l2.2-3.8h4.4l2.2,3.8l-2.2,3.8H28.3z"/>
					<path fill="#A0A01C" d="M34.9,435.9l-2.2-3.8l2.2-3.8h4.4l2.2,3.8l-2.2,3.8H34.9z"/>
					<path fill="#3C7D90" d="M41.4,432.1l-2.2-3.8l2.2-3.8h4.4l2.2,3.8l-2.2,3.8H41.4z"/>
					<path fill="#FFFFFF" d="M65.2,347.5h7.6v1.5H61.2v-1.5h2.3v-6.9h-2.3v-1h2.3v-3.2c0-1.7,0.4-3,1.3-4c0.9-0.9,2.1-1.4,3.7-1.4
						c0.9,0,1.8,0.2,2.6,0.6c0.8,0.4,1.5,1,2.2,1.8l-0.8,1.3c-0.5-0.7-1.1-1.2-1.8-1.6c-0.6-0.4-1.3-0.6-2.1-0.6
						c-1.1,0-1.9,0.3-2.5,1c-0.6,0.6-0.8,1.6-0.8,2.8v3.2h4.7v1h-4.7V347.5z M87.6,347.4v1.6H74.9v-1.5l7.1-7.3
						c0.8-0.9,1.5-1.7,1.9-2.5c0.5-0.8,0.7-1.5,0.7-2.1c0-0.9-0.4-1.7-1.1-2.2c-0.7-0.5-1.7-0.8-2.9-0.8c-0.9,0-1.7,0.2-2.6,0.6
						c-0.9,0.4-1.7,0.9-2.5,1.6l-0.8-1.3c0.9-0.8,1.8-1.4,2.9-1.8c1.1-0.4,2.1-0.6,3.2-0.6c1.7,0,3.1,0.4,4.1,1.2
						c1,0.8,1.5,1.8,1.5,3.1c0,0.8-0.3,1.7-0.9,2.7c-0.6,1-1.4,2-2.4,3.1l-6.1,6.3H87.6z M95.7,331.1h6.1V349H100v-16.3h-4.3V331.1z
						 M112.1,338.8c1.9,0.1,3.4,0.5,4.5,1.4c1.1,0.8,1.7,2,1.7,3.4c0,1.1-0.3,2.1-0.8,2.9c-0.5,0.8-1.3,1.5-2.4,2
						c-1,0.5-2.3,0.7-3.6,0.7c-1.1,0-2.2-0.2-3.3-0.5c-1.1-0.3-2-0.7-2.8-1.3l0.8-1.4c0.7,0.5,1.5,0.9,2.4,1.2
						c0.9,0.3,1.8,0.4,2.8,0.4c1.6,0,2.9-0.4,3.8-1.1c0.9-0.7,1.4-1.7,1.4-2.9c0-1.2-0.5-2.1-1.4-2.7c-0.9-0.6-2.2-0.9-3.9-0.9H109
						v-1.1l6.1-6.1h-8.9v-1.6h11.2v1.2l-6.4,6.4L112.1,338.8z M127.9,338c1.3,0,2.4,0.2,3.4,0.7c1,0.4,1.7,1.1,2.3,1.9
						c0.5,0.8,0.8,1.7,0.8,2.7c0,1.2-0.3,2.2-0.8,3.1c-0.5,0.9-1.3,1.6-2.3,2.1c-1,0.5-2.1,0.7-3.5,0.7c-1,0-2.1-0.2-3.3-0.5
						c-1.1-0.4-2.1-0.8-3.1-1.4l0.7-1.4c0.8,0.5,1.7,1,2.6,1.3c1,0.3,1.9,0.5,2.8,0.5c1.5,0,2.7-0.4,3.5-1.1
						c0.9-0.8,1.3-1.8,1.3-3.1c0-1.2-0.4-2.1-1.3-2.7c-0.9-0.7-2.1-1-3.6-1c-0.6,0-1.4,0.1-2.4,0.2c-0.9,0.1-1.7,0.2-2.4,0.4v-9
						h10.9v1.6h-9.2v5.6c0.5-0.1,1.1-0.2,1.7-0.2C126.9,338,127.4,338,127.9,338z M137.9,346.8c0.3,0,0.6,0.1,0.8,0.3
						c0.2,0.2,0.3,0.5,0.3,0.8s-0.1,0.6-0.3,0.8c-0.2,0.2-0.5,0.3-0.8,0.3c-0.3,0-0.6-0.1-0.8-0.3c-0.2-0.2-0.3-0.5-0.3-0.8
						c0-0.3,0.1-0.6,0.3-0.8C137.3,347,137.6,346.8,137.9,346.8z M157,331c2.4,0,4.2,0.8,5.5,2.3c1.3,1.5,1.9,3.8,1.9,6.7
						s-0.6,5.1-1.9,6.7c-1.3,1.6-3.1,2.3-5.5,2.3c-2.4,0-4.2-0.8-5.5-2.3c-1.3-1.6-1.9-3.8-1.9-6.7s0.6-5.1,1.9-6.7
						C152.8,331.8,154.6,331,157,331z M157,332.4c-1.8,0-3.2,0.6-4.1,1.9c-0.9,1.3-1.4,3.2-1.4,5.7c0,2.5,0.5,4.4,1.4,5.7
						c0.9,1.3,2.3,1.9,4.1,1.9c1.8,0,3.2-0.6,4.1-1.9c1-1.3,1.4-3.2,1.4-5.7c0-2.5-0.5-4.4-1.4-5.7
						C160.2,333.1,158.8,332.4,157,332.4z M175.3,331c2.4,0,4.2,0.8,5.5,2.3c1.3,1.5,1.9,3.8,1.9,6.7s-0.6,5.1-1.9,6.7
						c-1.3,1.6-3.1,2.3-5.5,2.3c-2.4,0-4.2-0.8-5.5-2.3c-1.3-1.6-1.9-3.8-1.9-6.7s0.6-5.1,1.9-6.7C171.2,331.8,173,331,175.3,331z
						 M175.3,332.4c-1.8,0-3.2,0.6-4.1,1.9c-0.9,1.3-1.4,3.2-1.4,5.7c0,2.5,0.5,4.4,1.4,5.7c0.9,1.3,2.3,1.9,4.1,1.9
						c1.8,0,3.2-0.6,4.1-1.9c1-1.3,1.4-3.2,1.4-5.7c0-2.5-0.5-4.4-1.4-5.7C178.5,333.1,177.2,332.4,175.3,332.4z"/>
					<path fill="#FFFFFF" d="M61.7,356h4.5v0.6h-3.9v2.4h3.5v0.6h-3.5v2.5h4v0.6h-4.7V356z M74.1,362.8l-0.8-1.8h-3.8l-0.8,1.8H68
						L71,356h0.7l3.1,6.7H74.1z M69.8,360.4H73l-1.6-3.6L69.8,360.4z M81.4,362.8l-1.5-2.2c-0.2,0-0.4,0-0.5,0h-1.9v2.2h-0.7V356
						h2.5c0.8,0,1.5,0.2,2,0.6c0.5,0.4,0.7,0.9,0.7,1.7c0,0.6-0.1,1-0.4,1.4c-0.3,0.4-0.7,0.6-1.2,0.8l1.6,2.3H81.4z M79.4,360
						c0.6,0,1.1-0.1,1.5-0.4c0.3-0.3,0.5-0.7,0.5-1.3c0-0.5-0.2-1-0.5-1.2s-0.8-0.4-1.5-0.4h-1.9v3.4H79.4z M89.8,356h0.7v6.7h-0.7
						l-4.2-5.7v5.7h-0.7V356h0.7l4.2,5.7V356z M93.6,356h0.7v6.7h-0.7V356z M102.3,356h0.7v6.7h-0.7L98,357v5.7h-0.7V356H98l4.2,5.7
						V356z M110.8,359.5h0.6v2.5c-0.3,0.3-0.7,0.5-1.2,0.7c-0.4,0.2-0.9,0.2-1.3,0.2c-0.6,0-1.2-0.2-1.8-0.5c-0.5-0.3-1-0.7-1.3-1.3
						c-0.3-0.5-0.5-1.1-0.5-1.7s0.2-1.2,0.5-1.7c0.3-0.5,0.7-0.9,1.3-1.2c0.5-0.3,1.1-0.5,1.8-0.5c0.5,0,0.9,0.1,1.3,0.2
						c0.4,0.2,0.8,0.4,1.1,0.7l-0.4,0.5c-0.3-0.3-0.6-0.5-1-0.6c-0.4-0.1-0.7-0.2-1.1-0.2c-0.5,0-1,0.1-1.4,0.4
						c-0.4,0.3-0.8,0.6-1,1c-0.3,0.4-0.4,0.9-0.4,1.4c0,0.5,0.1,1,0.4,1.4c0.3,0.4,0.6,0.8,1,1c0.4,0.3,0.9,0.4,1.5,0.4
						c0.3,0,0.6-0.1,1-0.2c0.3-0.1,0.6-0.3,0.9-0.5V359.5z M118.1,357.1c-0.3-0.2-0.6-0.3-0.9-0.4c-0.3-0.1-0.6-0.1-0.9-0.1
						c-0.5,0-0.8,0.1-1.1,0.3c-0.3,0.2-0.4,0.4-0.4,0.7c0,0.3,0.1,0.5,0.2,0.7c0.2,0.2,0.3,0.3,0.6,0.4c0.2,0.1,0.5,0.2,0.9,0.3
						c0.5,0.1,0.8,0.3,1.1,0.4c0.3,0.1,0.5,0.3,0.7,0.6c0.2,0.3,0.3,0.6,0.3,1c0,0.4-0.1,0.7-0.3,1c-0.2,0.3-0.5,0.5-0.9,0.6
						c-0.4,0.1-0.8,0.2-1.3,0.2c-0.5,0-0.9-0.1-1.4-0.3c-0.4-0.2-0.8-0.4-1.2-0.7l0.3-0.6c0.3,0.3,0.7,0.5,1.1,0.7
						c0.4,0.2,0.8,0.3,1.2,0.3c0.5,0,0.9-0.1,1.2-0.3c0.3-0.2,0.5-0.5,0.5-0.8c0-0.3-0.1-0.5-0.2-0.7c-0.2-0.2-0.3-0.3-0.6-0.4
						c-0.2-0.1-0.5-0.2-1-0.3c-0.5-0.1-0.8-0.3-1.1-0.4c-0.3-0.1-0.5-0.3-0.7-0.6c-0.2-0.3-0.3-0.6-0.3-1c0-0.3,0.1-0.6,0.3-0.9
						c0.2-0.3,0.5-0.5,0.8-0.6c0.3-0.1,0.8-0.2,1.2-0.2c0.4,0,0.7,0.1,1.1,0.2c0.4,0.1,0.7,0.3,1,0.4L118.1,357.1z M123.9,356h5.2
						v0.6h-2.2v6.2h-0.7v-6.2h-2.2V356z M131.2,356h0.7v3.1h4.2V356h0.7v6.7h-0.7v-3.1h-4.2v3.1h-0.7V356z M139.9,356h0.7v6.7h-0.7
						V356z M147.4,357.1c-0.3-0.2-0.6-0.3-0.9-0.4c-0.3-0.1-0.6-0.1-0.9-0.1c-0.5,0-0.8,0.1-1.1,0.3c-0.3,0.2-0.4,0.4-0.4,0.7
						c0,0.3,0.1,0.5,0.2,0.7c0.2,0.2,0.3,0.3,0.6,0.4c0.2,0.1,0.5,0.2,0.9,0.3c0.5,0.1,0.8,0.3,1.1,0.4c0.3,0.1,0.5,0.3,0.7,0.6
						c0.2,0.3,0.3,0.6,0.3,1c0,0.4-0.1,0.7-0.3,1c-0.2,0.3-0.5,0.5-0.9,0.6c-0.4,0.1-0.8,0.2-1.3,0.2c-0.5,0-0.9-0.1-1.4-0.3
						c-0.4-0.2-0.8-0.4-1.2-0.7l0.3-0.6c0.3,0.3,0.7,0.5,1.1,0.7c0.4,0.2,0.8,0.3,1.2,0.3c0.5,0,0.9-0.1,1.2-0.3
						c0.3-0.2,0.5-0.5,0.5-0.8c0-0.3-0.1-0.5-0.2-0.7c-0.2-0.2-0.3-0.3-0.6-0.4c-0.2-0.1-0.5-0.2-1-0.3c-0.5-0.1-0.8-0.3-1.1-0.4
						c-0.3-0.1-0.5-0.3-0.7-0.6c-0.2-0.3-0.3-0.6-0.3-1c0-0.3,0.1-0.6,0.3-0.9c0.2-0.3,0.5-0.5,0.8-0.6c0.3-0.1,0.8-0.2,1.2-0.2
						c0.4,0,0.7,0.1,1.1,0.2c0.4,0.1,0.7,0.3,1,0.4L147.4,357.1z M154.2,356h0.8l2.7,5.1l2.6-5.1h0.8v6.8h-0.6l0-5.8l-2.7,5.1h-0.4
						l-2.7-5.1v5.8h-0.6V356z M167.1,356c0.6,0,1.2,0.2,1.8,0.5c0.5,0.3,1,0.7,1.3,1.2c0.3,0.5,0.5,1.1,0.5,1.7s-0.2,1.2-0.5,1.7
						c-0.3,0.5-0.7,0.9-1.3,1.3c-0.5,0.3-1.1,0.5-1.8,0.5c-0.6,0-1.2-0.2-1.8-0.5c-0.5-0.3-1-0.7-1.3-1.3c-0.3-0.5-0.5-1.1-0.5-1.7
						s0.2-1.2,0.5-1.7c0.3-0.5,0.7-0.9,1.3-1.2C165.9,356.1,166.5,356,167.1,356z M167.1,356.5c-0.5,0-1,0.1-1.4,0.4
						c-0.4,0.3-0.8,0.6-1,1c-0.3,0.4-0.4,0.9-0.4,1.4s0.1,1,0.4,1.4c0.3,0.4,0.6,0.8,1,1c0.4,0.3,0.9,0.4,1.4,0.4
						c0.5,0,1-0.1,1.4-0.4c0.4-0.3,0.8-0.6,1-1c0.3-0.4,0.4-0.9,0.4-1.4s-0.1-1-0.4-1.4c-0.3-0.4-0.6-0.8-1-1
						C168.1,356.7,167.6,356.5,167.1,356.5z M178,356h0.7v6.7H178l-4.2-5.7v5.7h-0.7V356h0.7l4.2,5.7V356z M180.8,356h5.2v0.6h-2.2
						v6.2h-0.7v-6.2h-2.2V356z M188.1,356h0.7v3.1h4.2V356h0.7v6.7H193v-3.1h-4.2v3.1h-0.7V356z"/>
					<path fill="#49FF95" d="M193.5,347.3v-12.7l4.4,4.4c0.3,0.3,0.8,0.3,1.2,0c0.3-0.3,0.3-0.8,0-1.2l-5.8-5.8c0,0-0.1-0.1-0.1-0.1
						c0,0,0,0-0.1,0c0,0,0,0-0.1,0c0,0-0.1,0-0.1,0c0,0,0,0-0.1,0c-0.1,0-0.1,0-0.2,0c0,0,0,0,0,0c-0.1,0-0.1,0-0.2,0c0,0,0,0-0.1,0
						c0,0-0.1,0-0.1,0c0,0-0.1,0-0.1,0c0,0,0,0-0.1,0c0,0-0.1,0.1-0.1,0.1l-5.8,5.8c-0.3,0.3-0.3,0.8,0,1.2c0.3,0.3,0.8,0.3,1.2,0
						l4.4-4.4v12.7c0,0.4,0.4,0.8,0.8,0.8C193.2,348.1,193.5,347.8,193.5,347.3z"/>
					<path fill="#FFFFFF" fill-opacity="0.8" d="M223.6,416h-4.1c-0.4-1.1-1.5-1.9-2.8-1.9c-1.3,0-2.4,0.8-2.8,1.9h-4.1
						c-1.1,0-2,0.9-2,1.9v13.3c0,1.1,0.9,1.9,2,1.9h13.7c1.1,0,2-0.9,2-1.9v-13.3C225.5,416.8,224.7,416,223.6,416z M216.7,416
						c0.5,0,1,0.4,1,1c0,0.5-0.4,1-1,1c-0.5,0-1-0.4-1-1C215.7,416.4,216.2,416,216.7,416z M220.6,427.4h-3.9v2.9l-4.9-4.8l4.9-4.8
						v2.9h3.9V427.4z"/>
					<path fill="none" stroke="#FFFFFF" stroke-opacity="0.1" d="M238.5,292.8H17.3"/>
					<path fill="none" stroke="#FFFFFF" stroke-opacity="0.1" d="M238.5,397H17.3"/>
					
						<linearGradient id="SVGID_2_" gradientUnits="userSpaceOnUse" x1="27.9901" y1="388.3396" x2="114.0985" y2="300.1112" gradientTransform="matrix(1 0 0 -1 0 462)">
						<stop  offset="0" style="stop-color:#00B3FF"/>
						<stop  offset="1" style="stop-color:#00C2FF"/>
					</linearGradient>
					<path fill="url(#SVGID_2_)" d="M25.3,76.4c0-2.3,1.9-4.1,4.2-4.1h82.1c2.3,0,4.2,1.9,4.2,4.1v81.7c0,2.3-1.9,4.1-4.2,4.1H29.5
						c-2.3,0-4.2-1.9-4.2-4.1V76.4z M44.3,116.5c1.5,0,2.5,0.3,3.2,0.8c0.7,0.6,1,1.4,1,2.6c0,1.2-0.3,2-1,2.6
						c-0.7,0.5-1.7,0.8-3.2,0.8h-1.7v2.8H41v-9.6H44.3z M44.5,121.8c0.9,0,1.5-0.2,1.8-0.5c0.1-0.1,0.2-0.3,0.3-0.5
						c0.1-0.2,0.1-0.4,0.2-0.6c0-0.1,0-0.3,0-0.4c0-0.7-0.2-1.1-0.6-1.4c-0.4-0.3-1.1-0.4-2-0.4h-1.7v3.9H44.5z M56.1,126.1h-1.4v-1
						c-0.6,0.7-1.4,1.1-2.5,1.1c-0.5,0-0.9-0.1-1.2-0.2c-0.2-0.1-0.5-0.2-0.7-0.4c-0.5-0.4-0.7-1-0.7-1.7c0-0.7,0.3-1.3,0.8-1.6
						c0.5-0.4,1.3-0.5,2.2-0.5h2v-0.3c0-1-0.5-1.5-1.6-1.5c-0.7,0-1.4,0.2-2.1,0.7l-0.7-1c0.9-0.7,1.9-1.1,3.1-1.1
						c0.9,0,1.6,0.2,2.1,0.7c0.6,0.4,0.8,1.1,0.8,2.1V126.1z M54.5,123.4v-0.6h-1.7c-1.1,0-1.7,0.3-1.7,1c0,0.4,0.1,0.6,0.4,0.8
						c0.3,0.2,0.7,0.3,1.2,0.3c0.3,0,0.5,0,0.7-0.1c0.2-0.1,0.4-0.2,0.6-0.3c0.2-0.2,0.4-0.3,0.4-0.5
						C54.5,123.8,54.5,123.6,54.5,123.4z M59.1,129.1c-0.7,0-1.3-0.2-1.8-0.7l0.7-1.3c0.1,0.1,0.3,0.2,0.5,0.3
						c0.2,0.1,0.4,0.1,0.5,0.1c0.2,0,0.3,0,0.5-0.1c0.1-0.1,0.3-0.2,0.4-0.3c0.2-0.2,0.3-0.5,0.3-0.8c0-0.1-1-2.6-3-7.5h1.7l2.2,5.4
						l2.2-5.4h1.7l-3.6,8.7c-0.1,0.3-0.3,0.5-0.5,0.7c-0.1,0.1-0.3,0.3-0.4,0.4c-0.2,0.1-0.4,0.2-0.6,0.3
						C59.6,129,59.3,129.1,59.1,129.1z M45.2,142.7H41V133h3.8c0.7,0,1.2,0.1,1.7,0.2c0.3,0.1,0.5,0.2,0.7,0.3
						c0.1,0.1,0.2,0.2,0.3,0.3c0.4,0.5,0.7,1.1,0.7,1.7c0,0.8-0.2,1.3-0.7,1.7c-0.2,0.1-0.3,0.2-0.4,0.2c-0.1,0-0.2,0.1-0.3,0.2
						c0.6,0.1,1.1,0.4,1.4,0.8c0.4,0.4,0.5,0.9,0.5,1.5c0,0.7-0.2,1.3-0.7,1.8C47.5,142.4,46.5,142.7,45.2,142.7z M42.6,137h2.1
						c1.2,0,1.8-0.4,1.8-1.2c0-0.3-0.1-0.5-0.2-0.7c-0.1-0.1-0.2-0.2-0.3-0.3c-0.3-0.2-0.7-0.3-1.3-0.3h-2.1V137z M42.6,141.2h2.6
						c0.6,0,1.1-0.1,1.4-0.3c0.2-0.1,0.3-0.3,0.4-0.5c0-0.1,0-0.2,0.1-0.2c0-0.1,0-0.2,0-0.4c0-0.9-0.7-1.3-2.1-1.3h-2.4V141.2z
						 M52.1,142.7h-1.6v-7.3h1.6V142.7z M50.6,133.9c-0.2-0.2-0.3-0.4-0.3-0.7c0-0.3,0.1-0.5,0.3-0.7c0.2-0.2,0.4-0.3,0.7-0.3
						c0.2,0,0.3,0,0.4,0.1c0.1,0,0.2,0.1,0.3,0.2c0.2,0.2,0.3,0.4,0.3,0.7c0,0.3-0.1,0.5-0.3,0.7c-0.2,0.2-0.4,0.3-0.7,0.3
						c-0.1,0-0.2,0-0.3,0C50.9,134.1,50.8,134,50.6,133.9z M55.9,142.7h-1.6v-10.2h1.6V142.7z M59.7,142.7h-1.6v-10.2h1.6V142.7z
						 M49.5,96.7c0,0.9,0.7,1.6,1.6,1.6h2.3c0.4,0,0.7,0.3,0.7,0.6v6.5c0,1.4-1.2,2.6-2.6,2.6h-7.8c-1.4,0-2.6-1.2-2.6-2.6v-9.1
						c0-1.4,1.2-2.6,2.6-2.6h5.2c0.4,0,0.7,0.3,0.7,0.6V96.7z M44.9,104.1h3.9c0.4,0,0.7-0.3,0.7-0.6c0-0.4-0.3-0.6-0.7-0.6h-3.9
						c-0.4,0-0.7,0.3-0.7,0.6C44.2,103.9,44.5,104.1,44.9,104.1z M44.9,101.5h5.2c0.4,0,0.7-0.3,0.7-0.6c0-0.4-0.3-0.6-0.7-0.6h-5.2
						c-0.4,0-0.7,0.3-0.7,0.6C44.2,101.3,44.5,101.5,44.9,101.5z"/>
					
						<linearGradient id="SVGID_3_" gradientUnits="userSpaceOnUse" x1="28.8398" y1="273.542" x2="115.3504" y2="185.9558" gradientTransform="matrix(1 0 0 -1 0 462)">
						<stop  offset="0" style="stop-color:#00E8A2"/>
						<stop  offset="1" style="stop-color:#03F28D"/>
					</linearGradient>
					<path fill="url(#SVGID_3_)" d="M25.3,189.9c0-2.3,1.9-4.1,4.2-4.1h82.1c2.3,0,4.2,1.9,4.2,4.1v81.7c0,2.3-1.9,4.1-4.2,4.1H29.5
						c-2.3,0-4.2-1.9-4.2-4.1V189.9z M48.7,233.1c0,1.6-0.7,2.6-2.1,3l2.5,3.5h-2.1l-2.3-3.2h-2.1v3.2H41v-9.6h3.6
						c1.5,0,2.5,0.2,3.2,0.7C48.4,231.2,48.7,232,48.7,233.1z M44.7,234.9c0.9,0,1.6-0.1,1.9-0.4c0.3-0.3,0.5-0.7,0.5-1.4
						c0-0.6-0.2-1.1-0.5-1.3c-0.3-0.2-1-0.4-1.8-0.4h-2.1v3.4H44.7z M57.7,236.6H52c0,0.2,0,0.3,0.1,0.5c0,0.1,0.1,0.1,0.1,0.2
						c0.1,0.2,0.3,0.4,0.5,0.6c0.3,0.2,0.6,0.3,1,0.4c0.2,0,0.4,0.1,0.6,0.1c0.9,0,1.6-0.3,2.1-0.9l0.9,1c-0.8,0.8-1.8,1.2-3.1,1.2
						c-1,0-1.9-0.3-2.6-1c-0.7-0.7-1.1-1.6-1.1-2.8c0-1.2,0.4-2.1,1.1-2.8c0.7-0.7,1.6-1,2.6-1c1,0,1.9,0.3,2.6,0.9
						c0.7,0.6,1.1,1.4,1.1,2.5V236.6z M52,235.4h4.2c0-0.6-0.2-1.1-0.6-1.4c-0.4-0.3-0.9-0.5-1.4-0.5c-0.4,0-0.8,0.1-1.1,0.3
						c-0.1,0.1-0.3,0.2-0.4,0.3C52.2,234.3,52,234.8,52,235.4z M63.4,232.1c1,0,1.8,0.3,2.5,1c0.7,0.7,1.1,1.6,1.1,2.7
						c0,1.1-0.4,2.1-1.1,2.8c-0.7,0.7-1.5,1.1-2.4,1.1c-0.9,0-1.8-0.4-2.5-1.2v3.8h-1.6v-10H61v1.3
						C61.6,232.6,62.4,232.1,63.4,232.1z M61,235.9c0,0.7,0.2,1.3,0.6,1.7c0.4,0.4,0.9,0.7,1.6,0.7c0.6,0,1.1-0.2,1.6-0.7
						c0.5-0.4,0.7-1,0.7-1.7c0-0.7-0.2-1.3-0.7-1.8c-0.4-0.5-1-0.7-1.6-0.7c-0.4,0-0.7,0.1-1,0.3c-0.2,0.1-0.4,0.3-0.5,0.4
						C61.2,234.6,61,235.2,61,235.9z M74.7,239.6h-1.4v-1c-0.6,0.7-1.4,1.1-2.5,1.1c-0.8,0-1.4-0.2-1.9-0.6c-0.5-0.4-0.7-1-0.7-1.7
						c0-0.7,0.3-1.3,0.8-1.6c0.5-0.4,1.3-0.5,2.2-0.5h2v-0.3c0-1-0.5-1.5-1.6-1.5c-0.7,0-1.4,0.2-2.1,0.7l-0.7-1
						c0.9-0.7,1.9-1.1,3.1-1.1c0.9,0,1.6,0.2,2.1,0.7c0.6,0.4,0.8,1.1,0.8,2.1V239.6z M73.2,236.8v-0.6h-1.7c-1.1,0-1.7,0.3-1.7,1
						c0,0.2,0,0.4,0.1,0.5c0,0.1,0.1,0.1,0.1,0.2c0,0,0.1,0.1,0.1,0.1c0.3,0.2,0.7,0.3,1.2,0.3c0.5,0,0.9-0.1,1.3-0.4
						C73,237.7,73.2,237.3,73.2,236.8z M78.5,239.6h-1.6v-7.3h1.6V239.6z M77,230.8c-0.2-0.2-0.3-0.4-0.3-0.7c0-0.3,0.1-0.5,0.3-0.7
						s0.4-0.3,0.7-0.3c0.3,0,0.5,0.1,0.7,0.3c0.1,0.1,0.2,0.2,0.2,0.3c0.1,0.1,0.1,0.3,0.1,0.4c0,0.3-0.1,0.5-0.3,0.7
						c-0.2,0.2-0.4,0.3-0.7,0.3C77.4,231.1,77.2,231,77,230.8z M84.6,233.7c-0.8,0-1.3,0.2-1.7,0.7c-0.4,0.5-0.6,1.2-0.6,2v3.1h-1.6
						v-7.3h1.6v1.5c0.2-0.5,0.6-0.8,1-1.1c0.4-0.3,0.9-0.4,1.4-0.5L84.6,233.7L84.6,233.7z M41.3,248v-1.5H46v6.4
						c0,1.1-0.3,2-0.9,2.5c-0.6,0.6-1.3,0.8-2.2,0.8c-1.1,0-2.1-0.4-2.9-1.2l0.9-1.3c0.6,0.6,1.2,0.9,1.8,0.9c0.1,0,0.2,0,0.3,0
						c0.3-0.1,0.5-0.2,0.7-0.4c0.3-0.3,0.5-0.7,0.5-1.3v-5H41.3z M50,254.2c0.4,0.4,1,0.7,1.7,0.7s1.2-0.2,1.7-0.7
						c0.2-0.2,0.3-0.4,0.4-0.6c0.1-0.2,0.2-0.4,0.2-0.6c0-0.2,0-0.3,0-0.5c0-0.4-0.1-0.8-0.2-1.1c-0.1-0.2-0.2-0.4-0.4-0.6
						c-0.4-0.5-1-0.7-1.7-0.7c-0.3,0-0.6,0.1-0.9,0.2c-0.3,0.1-0.5,0.3-0.8,0.5c-0.4,0.4-0.7,1-0.7,1.7
						C49.4,253.2,49.6,253.7,50,254.2z M54.5,255.2c-0.7,0.7-1.7,1.1-2.8,1.1c-1.1,0-2-0.4-2.8-1.1c-0.7-0.7-1.1-1.6-1.1-2.7
						c0-1.1,0.4-1.9,1.1-2.7c0.7-0.7,1.7-1.1,2.8-1.1c1.1,0,2,0.4,2.8,1.1c0.7,0.7,1.1,1.6,1.1,2.7
						C55.6,253.5,55.2,254.4,54.5,255.2z M61.3,248.7c1,0,1.8,0.3,2.5,1c0.7,0.7,1.1,1.6,1.1,2.7c0,1.1-0.4,2.1-1.1,2.8
						c-0.7,0.7-1.5,1.1-2.4,1.1c-0.9,0-1.8-0.4-2.5-1.2v1.1h-1.6v-10.2h1.6v4.2C59.5,249.1,60.3,248.7,61.3,248.7z M58.9,252.5
						c0,0.7,0.2,1.3,0.6,1.7c0.4,0.4,0.9,0.7,1.6,0.7c0.6,0,1.1-0.2,1.6-0.7c0.5-0.4,0.7-1,0.7-1.7c0-0.7-0.2-1.3-0.7-1.8
						c-0.4-0.5-1-0.7-1.6-0.7c-0.6,0-1.1,0.2-1.6,0.7C59.1,251.2,58.9,251.8,58.9,252.5z M49.5,210.1c0,0.9,0.7,1.6,1.6,1.6h2.3
						c0.4,0,0.7,0.3,0.7,0.6v6.5c0,1.4-1.2,2.6-2.6,2.6h-7.8c-1.4,0-2.6-1.2-2.6-2.6v-9.1c0-1.4,1.2-2.6,2.6-2.6h5.2
						c0.4,0,0.7,0.3,0.7,0.6V210.1z M44.9,217.6h3.9c0.4,0,0.7-0.3,0.7-0.6c0-0.4-0.3-0.6-0.7-0.6h-3.9c-0.4,0-0.7,0.3-0.7,0.6
						C44.2,217.3,44.5,217.6,44.9,217.6z M44.9,215h5.2c0.4,0,0.7-0.3,0.7-0.6c0-0.4-0.3-0.6-0.7-0.6h-5.2c-0.4,0-0.7,0.3-0.7,0.6
						C44.2,214.7,44.5,215,44.9,215z"/>
					
						<linearGradient id="SVGID_4_" gradientUnits="userSpaceOnUse" x1="143.5009" y1="275.1837" x2="229.3321" y2="186.7969" gradientTransform="matrix(1 0 0 -1 0 462)">
						<stop  offset="0" style="stop-color:#AAFF1F"/>
						<stop  offset="1" style="stop-color:#C5FF1F"/>
					</linearGradient>
					<path fill="url(#SVGID_4_)" d="M140.9,189.9c0-2.3,1.9-4.1,4.2-4.1h82.1c2.3,0,4.2,1.9,4.2,4.1v81.7c0,2.3-1.9,4.1-4.2,4.1H145
						c-2.3,0-4.2-1.9-4.2-4.1V189.9z M161.7,238c0.3,0,0.5-0.1,0.7-0.2c0.1-0.1,0.3-0.2,0.4-0.3c0.1-0.1,0.3-0.2,0.4-0.3
						c0.1-0.1,0.3-0.2,0.4-0.3l1.1,1.1c-1,1.1-2.3,1.7-3.7,1.7c-1.5,0-2.7-0.5-3.6-1.4c-1-0.9-1.4-2.1-1.4-3.6
						c0-1.4,0.5-2.6,1.5-3.6c1-1,2.2-1.4,3.7-1.4c1.5,0,2.8,0.6,3.8,1.7l-1,1.1c-0.5-0.4-0.9-0.7-1.3-0.9c-0.4-0.2-0.9-0.3-1.4-0.3
						c-1,0-1.8,0.3-2.5,1c-0.7,0.6-1,1.4-1,2.4c0,1,0.3,1.8,1,2.5c0.7,0.7,1.5,1,2.4,1C161.2,238.1,161.5,238.1,161.7,238z
						 M168.1,237.6c0.4,0.4,1,0.7,1.7,0.7c0.7,0,1.2-0.2,1.7-0.7c0.4-0.5,0.7-1,0.7-1.7c0-0.7-0.2-1.3-0.7-1.7
						c-0.4-0.5-1-0.7-1.7-0.7c-0.2,0-0.3,0-0.5,0c-0.1,0-0.1,0-0.2,0c-0.2,0.1-0.4,0.1-0.5,0.2c-0.2,0.1-0.3,0.2-0.5,0.4
						c-0.4,0.4-0.7,1-0.7,1.7C167.4,236.6,167.6,237.2,168.1,237.6z M172.5,238.6c-0.7,0.7-1.7,1.1-2.8,1.1c-1.1,0-2-0.4-2.8-1.1
						c-0.7-0.7-1.1-1.6-1.1-2.7c0-1.1,0.4-1.9,1.1-2.7c0.7-0.7,1.7-1.1,2.8-1.1c1.1,0,2,0.4,2.8,1.1c0.7,0.7,1.1,1.6,1.1,2.7
						C173.6,237,173.3,237.9,172.5,238.6z M176.9,239.6h-1.6v-10.2h1.6V239.6z M180.8,239.6h-1.6v-10.2h1.6V239.6z M189.9,236.6
						h-5.8c0,0.5,0.3,1,0.7,1.3c0.5,0.3,1,0.5,1.6,0.5c0.9,0,1.6-0.3,2.1-0.9l0.9,1c-0.8,0.8-1.8,1.2-3.1,1.2c-1,0-1.9-0.3-2.6-1
						c-0.7-0.7-1.1-1.6-1.1-2.8c0-1.2,0.4-2.1,1.1-2.8c0.7-0.7,1.6-1,2.6-1c1,0,1.9,0.3,2.6,0.9c0.7,0.6,1.1,1.4,1.1,2.5V236.6z
						 M184.1,235.4h4.2c0-0.6-0.2-1.1-0.6-1.4c-0.4-0.3-0.9-0.5-1.4-0.5c-0.6,0-1.1,0.2-1.5,0.5
						C184.3,234.3,184.1,234.8,184.1,235.4z M194.8,239.7c-1,0-1.9-0.3-2.6-1c-0.7-0.7-1.1-1.6-1.1-2.7c0-1.1,0.4-2,1.2-2.7
						c0.8-0.7,1.7-1.1,2.8-1.1c1.1,0,2,0.4,2.8,1.1l-0.9,1.1c-0.6-0.6-1.3-0.8-1.9-0.8c-0.6,0-1.2,0.2-1.7,0.6
						c-0.5,0.4-0.7,1-0.7,1.7c0,0.7,0.2,1.2,0.7,1.7c0.5,0.5,1,0.7,1.7,0.7c0.1,0,0.3,0,0.4,0c0.1,0,0.2,0,0.3-0.1
						c0.4-0.1,0.9-0.4,1.3-0.8l0.9,1C197.1,239.2,196,239.7,194.8,239.7z M201.5,233.5v3.7c0,0.3,0.1,0.6,0.3,0.8
						c0.2,0.2,0.4,0.3,0.8,0.3s0.7-0.2,1-0.5l0.6,1.1c-0.5,0.5-1.2,0.7-1.8,0.7c-0.7,0-1.2-0.2-1.7-0.7c-0.5-0.5-0.7-1.1-0.7-1.8
						v-3.7H199v-1.2h0.9v-2.3h1.6v2.3h1.9v1.2H201.5z M164.3,249.6c0,1.6-0.7,2.6-2.1,3l2.5,3.5h-2.1l-2.3-3.2h-2.1v3.2h-1.6v-9.6
						h3.6c1.5,0,2.5,0.2,3.2,0.7C164,247.7,164.3,248.5,164.3,249.6z M160.2,251.4c0.9,0,1.6-0.1,1.9-0.4c0.1-0.1,0.2-0.3,0.3-0.4
						c0.1-0.3,0.2-0.6,0.2-0.9c0-0.6-0.2-1.1-0.5-1.3c-0.3-0.2-1-0.4-1.8-0.4h-2.1v3.4H160.2z M173.3,253.1h-5.8
						c0,0.5,0.3,1,0.7,1.3c0.5,0.3,1,0.5,1.6,0.5c0.9,0,1.6-0.3,2.1-0.9l0.9,1c-0.8,0.8-1.8,1.2-3.1,1.2c-1,0-1.9-0.3-2.6-1
						c-0.7-0.7-1.1-1.6-1.1-2.8c0-1.2,0.4-2.1,1.1-2.8c0.7-0.7,1.6-1,2.6-1c1,0,1.9,0.3,2.6,0.9c0.7,0.6,1.1,1.4,1.1,2.5V253.1z
						 M167.5,251.9h4.2c0-0.6-0.2-1.1-0.6-1.4c-0.2-0.2-0.5-0.3-0.8-0.4c-0.2-0.1-0.4-0.1-0.7-0.1c-0.4,0-0.7,0.1-1,0.2
						c-0.2,0.1-0.3,0.2-0.5,0.3C167.7,250.9,167.5,251.3,167.5,251.9z M176.6,252.2v4H175v-7.3h1.6v1.3c0.2-0.5,0.6-0.8,1-1.1
						c0.4-0.3,0.9-0.4,1.4-0.4c0.8,0,1.5,0.3,2,0.8c0.5,0.5,0.8,1.2,0.8,2.2v4.5h-1.6v-4c0-1.4-0.6-2-1.7-2c-0.5,0-1,0.2-1.4,0.5
						C176.8,251,176.6,251.5,176.6,252.2z M185.8,250v3.7c0,0.3,0.1,0.6,0.3,0.8c0.2,0.2,0.4,0.3,0.8,0.3c0.1,0,0.2,0,0.3-0.1
						c0,0,0.1,0,0.1-0.1c0.2-0.1,0.3-0.2,0.5-0.4l0.6,1.1c-0.5,0.5-1.2,0.7-1.8,0.7c-0.7,0-1.2-0.2-1.7-0.7
						c-0.5-0.5-0.7-1.1-0.7-1.8V250h-0.9v-1.2h0.9v-2.3h1.6v2.3h1.9v1.2H185.8z M165,210.1c0,0.9,0.7,1.6,1.6,1.6h2.3
						c0.4,0,0.7,0.3,0.7,0.6v6.5c0,1.4-1.2,2.6-2.6,2.6h-7.8c-1.4,0-2.6-1.2-2.6-2.6v-9.1c0-1.4,1.2-2.6,2.6-2.6h5.2
						c0.4,0,0.7,0.3,0.7,0.6V210.1z M160.5,217.6h3.9c0.4,0,0.7-0.3,0.7-0.6c0-0.3-0.1-0.5-0.3-0.6c-0.1,0-0.2-0.1-0.3-0.1h-3.9
						c-0.4,0-0.7,0.3-0.7,0.6C159.8,217.3,160.1,217.6,160.5,217.6z M160.5,215h5.2c0.4,0,0.7-0.3,0.7-0.6c0-0.4-0.3-0.6-0.7-0.6
						h-5.2c-0.4,0-0.7,0.3-0.7,0.6C159.8,214.7,160.1,215,160.5,215z"/>
					<path fill="#00DEE9" d="M140.9,76.4c0-2.3,1.9-4.1,4.2-4.1h82.1c2.3,0,4.2,1.9,4.2,4.1v81.7c0,2.3-1.9,4.1-4.2,4.1H145
						c-2.3,0-4.2-1.9-4.2-4.1V76.4z M158.9,117.8c-0.2,0-0.4,0.1-0.6,0.2c-0.3,0.2-0.5,0.5-0.5,0.9c0,0.4,0.2,0.7,0.5,0.9
						c0.3,0.2,1,0.4,1.9,0.7c1,0.2,1.7,0.6,2.2,1c0.5,0.4,0.8,1.1,0.8,1.9c0,0.8-0.3,1.5-1,2c-0.6,0.5-1.5,0.8-2.5,0.8
						c-1.5,0-2.9-0.5-4-1.6l1-1.2c1,0.8,2,1.3,3.1,1.3c0.5,0,0.9-0.1,1.2-0.3c0.2-0.1,0.3-0.3,0.4-0.4c0-0.1,0.1-0.2,0.1-0.3
						c0-0.1,0-0.1,0-0.2c0-0.4-0.1-0.7-0.4-0.9c-0.3-0.2-0.8-0.4-1.5-0.6c-0.7-0.2-1.3-0.3-1.6-0.5c-0.2-0.1-0.4-0.2-0.5-0.3
						c-0.2-0.1-0.3-0.2-0.4-0.3c-0.6-0.4-0.9-1.1-0.9-2c0-0.9,0.3-1.6,1-2.1c0.7-0.5,1.5-0.7,2.4-0.7c0.6,0,1.2,0.1,1.8,0.3
						c0.6,0.2,1.1,0.5,1.6,0.9l-0.9,1.2c-0.3-0.3-0.7-0.5-1.2-0.6c-0.3-0.1-0.6-0.2-0.9-0.2c-0.2,0-0.4,0-0.5,0
						C159.3,117.8,159.1,117.8,158.9,117.8z M166.8,120v3.7c0,0.3,0.1,0.6,0.3,0.8c0.2,0.2,0.4,0.3,0.8,0.3s0.7-0.2,1-0.5l0.6,1.1
						c-0.5,0.5-1.2,0.7-1.8,0.7c-0.7,0-1.2-0.2-1.7-0.7c-0.3-0.3-0.4-0.6-0.6-0.9c-0.1-0.3-0.1-0.6-0.1-0.9V120h-0.9v-1.2h0.9v-2.3
						h1.6v2.3h1.9v1.2H166.8z M176.7,126.1h-1.4v-1c-0.6,0.7-1.4,1.1-2.5,1.1c-0.8,0-1.4-0.2-1.9-0.6c-0.5-0.4-0.7-1-0.7-1.7
						c0-0.7,0.3-1.3,0.8-1.6c0.5-0.4,1.3-0.5,2.2-0.5h2v-0.3c0-1-0.5-1.5-1.6-1.5c-0.7,0-1.4,0.2-2.1,0.7l-0.7-1
						c0.9-0.7,1.9-1.1,3.1-1.1c0.9,0,1.6,0.2,2.1,0.7c0.6,0.4,0.8,1.1,0.8,2.1V126.1z M175.1,123.4v-0.6h-1.7c-1.1,0-1.7,0.3-1.7,1
						c0,0.4,0.1,0.6,0.4,0.8c0.3,0.2,0.7,0.3,1.2,0.3c0.5,0,0.9-0.1,1.3-0.4C174.9,124.2,175.1,123.9,175.1,123.4z M182.7,120.2
						c-0.8,0-1.3,0.2-1.7,0.7c-0.4,0.5-0.6,1.2-0.6,2v3.1h-1.6v-7.3h1.6v1.5c0.1-0.2,0.3-0.4,0.4-0.6c0.2-0.2,0.4-0.4,0.6-0.5
						c0.4-0.3,0.9-0.4,1.4-0.5L182.7,120.2L182.7,120.2z M186.3,120v3.7c0,0.3,0.1,0.6,0.3,0.8c0.1,0.1,0.2,0.1,0.3,0.2
						c0.1,0,0.1,0.1,0.2,0.1c0.1,0,0.1,0,0.2,0c0.1,0,0.1,0,0.2,0c0.2,0,0.3,0,0.5-0.1c0.2-0.1,0.3-0.2,0.5-0.4l0.6,1.1
						c-0.5,0.5-1.2,0.7-1.8,0.7c-0.7,0-1.2-0.2-1.7-0.7c-0.5-0.5-0.7-1.1-0.7-1.8V120h-0.9v-1.2h0.9v-2.3h1.6v2.3h1.9v1.2H186.3z
						 M164.3,136.2c0,1.6-0.7,2.6-2.1,3l2.5,3.5h-2.1l-2.3-3.2h-2.1v3.2h-1.6V133h3.6c1.5,0,2.5,0.2,3.2,0.7
						C164,134.3,164.3,135.1,164.3,136.2z M162.1,137.5c0.3-0.3,0.5-0.7,0.5-1.4c0-0.6-0.2-1.1-0.5-1.3c-0.3-0.2-1-0.4-1.8-0.4h-2.1
						v3.4h2C161.2,138,161.8,137.8,162.1,137.5z M173.3,139.7h-5.8c0,0.5,0.3,1,0.7,1.3c0.5,0.3,1,0.5,1.6,0.5
						c0.9,0,1.6-0.3,2.1-0.9l0.9,1c-0.8,0.8-1.8,1.2-3.1,1.2c-1,0-1.9-0.3-2.6-1c-0.7-0.7-1.1-1.6-1.1-2.8c0-1.2,0.4-2.1,1.1-2.8
						c0.7-0.7,1.6-1,2.6-1c1,0,1.9,0.3,2.6,0.9c0.7,0.6,1.1,1.4,1.1,2.5V139.7z M167.5,138.5h4.2c0-0.6-0.2-1.1-0.6-1.4
						c-0.4-0.3-0.9-0.5-1.4-0.5c-0.6,0-1.1,0.2-1.5,0.5c-0.3,0.2-0.5,0.5-0.6,0.8C167.5,138.1,167.5,138.3,167.5,138.5z
						 M176.6,138.7v4H175v-7.3h1.6v1.3c0.2-0.5,0.6-0.8,1-1.1c0.3-0.1,0.5-0.3,0.8-0.3c0.2,0,0.4-0.1,0.6-0.1c0.8,0,1.5,0.3,2,0.8
						c0.5,0.5,0.8,1.2,0.8,2.2v4.5h-1.6v-4c0-1.4-0.6-2-1.7-2c-0.2,0-0.5,0-0.7,0.1c-0.3,0.1-0.5,0.2-0.7,0.4
						C176.8,137.5,176.6,138,176.6,138.7z M185.8,136.6v3.7c0,0.2,0,0.3,0.1,0.4c0,0.2,0.1,0.3,0.2,0.4c0.1,0.1,0.2,0.2,0.3,0.2
						c0.1,0.1,0.3,0.1,0.5,0.1c0.3,0,0.7-0.2,1-0.5l0.6,1.1c-0.2,0.2-0.4,0.3-0.6,0.4c-0.4,0.2-0.8,0.3-1.2,0.3
						c-0.7,0-1.2-0.2-1.7-0.7c-0.5-0.5-0.7-1.1-0.7-1.8v-3.7h-0.9v-1.2h0.9V133h1.6v2.3h1.9v1.2H185.8z M195.6,142.7h-1.4v-1
						c-0.6,0.7-1.4,1.1-2.5,1.1c-0.3,0-0.5,0-0.8-0.1c-0.2-0.1-0.5-0.1-0.7-0.3c-0.2-0.1-0.3-0.2-0.4-0.3c-0.5-0.4-0.7-1-0.7-1.7
						c0-0.7,0.3-1.3,0.8-1.6c0.5-0.4,1.3-0.5,2.2-0.5h2V138c0-1-0.5-1.5-1.6-1.5c-0.7,0-1.4,0.2-2.1,0.7l-0.7-1
						c0.9-0.7,1.9-1.1,3-1.1c0.9,0,1.6,0.2,2.1,0.7c0.6,0.4,0.8,1.1,0.8,2.1V142.7z M194.1,140v-0.6h-1.7c-1.1,0-1.7,0.3-1.7,1
						c0,0.4,0.1,0.6,0.4,0.8c0.1,0,0.1,0.1,0.2,0.1c0.2,0.1,0.6,0.2,0.9,0.2c0.5,0,0.9-0.1,1.3-0.4
						C193.9,140.8,194.1,140.4,194.1,140z M199.4,142.7h-1.6v-10.2h1.6V142.7z M168.4,100.9l1.4,1.4l0,0c0.3,0.3,0.5,0.5,0.5,0.9
						c0,0.5-0.4,0.9-1,0.9h-1v5.7c0,0.5-0.4,0.9-1,0.9h-2.9v-4.7c0-0.5-0.4-0.9-1-0.9h-1.9c-0.5,0-1,0.4-1,0.9v4.7h-2.9
						c-0.5,0-1-0.4-1-0.9v-5.7h-1c-0.5,0-1-0.4-1-0.9c0-0.4,0.2-0.6,0.5-0.9l0,0l6.1-6.1l0.1-0.1c0.2-0.2,0.5-0.4,0.9-0.4
						c0.3,0,0.5,0.1,0.7,0.3c0.1,0.1,0.2,0.2,0.3,0.2l1.9,1.9v-0.5c0-0.5,0.4-0.9,1-0.9h1c0.5,0,1,0.4,1,0.9V100.9z"/>
					<path fill="#0E64B5" d="M53.9,111.6c1,0,1.8,0.2,2.3,0.6c0.5,0.4,0.7,1,0.7,1.8c0,0.8-0.2,1.4-0.7,1.8
						c-0.5,0.4-1.2,0.6-2.2,0.6h-1.2v2h-1.1v-6.7H53.9z M54,115.4c0.6,0,1.1-0.1,1.3-0.4c0.2-0.2,0.3-0.6,0.3-1.1
						c0-0.5-0.1-0.8-0.4-1s-0.7-0.3-1.4-0.3h-1.2v2.7H54z M62.1,118.4h-1v-0.7c-0.4,0.5-1,0.8-1.7,0.8c-0.5,0-1-0.2-1.3-0.5
						c-0.3-0.3-0.5-0.7-0.5-1.2c0-0.5,0.2-0.9,0.6-1.1c0.4-0.3,0.9-0.4,1.5-0.4H61v-0.2c0-0.7-0.4-1-1.1-1c-0.5,0-1,0.2-1.5,0.5
						l-0.5-0.7c0.6-0.5,1.3-0.7,2.1-0.7c0.6,0,1.1,0.2,1.5,0.5c0.4,0.3,0.6,0.8,0.6,1.4V118.4z M61,116.5V116h-1.2
						c-0.8,0-1.2,0.2-1.2,0.7c0,0.3,0.1,0.4,0.3,0.6c0.2,0.1,0.5,0.2,0.8,0.2c0.3,0,0.7-0.1,0.9-0.3S61,116.8,61,116.5z M64.2,120.4
						c-0.5,0-0.9-0.2-1.3-0.5l0.5-0.9c0.2,0.2,0.5,0.3,0.7,0.3c0.2,0,0.4-0.1,0.6-0.3c0.2-0.2,0.2-0.4,0.2-0.6
						c0-0.1-0.7-1.9-2.1-5.3H64l1.5,3.8l1.5-3.8h1.2l-2.5,6.1c-0.1,0.3-0.4,0.6-0.6,0.8C64.9,120.3,64.6,120.4,64.2,120.4z
						 M74.9,118.4h-3v-6.7h2.6c0.5,0,0.9,0.1,1.2,0.2c0.3,0.1,0.6,0.3,0.7,0.4c0.3,0.3,0.5,0.7,0.5,1.2c0,0.5-0.2,0.9-0.5,1.2
						c-0.1,0.1-0.2,0.1-0.3,0.2c0,0-0.1,0.1-0.2,0.1c0.4,0.1,0.8,0.3,1,0.6c0.3,0.3,0.4,0.6,0.4,1.1c0,0.5-0.2,0.9-0.5,1.2
						C76.5,118.2,75.9,118.4,74.9,118.4z M73.1,114.4h1.5c0.8,0,1.2-0.3,1.2-0.8c0-0.3-0.1-0.6-0.3-0.7c-0.2-0.1-0.5-0.2-0.9-0.2
						h-1.5V114.4z M73.1,117.3h1.8c0.4,0,0.7-0.1,1-0.2c0.2-0.1,0.3-0.4,0.3-0.8c0-0.6-0.5-0.9-1.4-0.9h-1.7V117.3z M79.8,118.4
						h-1.1v-5.1h1.1V118.4z M78.7,112.2c-0.1-0.1-0.2-0.3-0.2-0.5c0-0.2,0.1-0.3,0.2-0.5c0.1-0.1,0.3-0.2,0.5-0.2
						c0.2,0,0.3,0.1,0.5,0.2c0.1,0.1,0.2,0.3,0.2,0.5c0,0.2-0.1,0.3-0.2,0.5c-0.1,0.1-0.3,0.2-0.5,0.2
						C79,112.4,78.9,112.4,78.7,112.2z M82.4,118.4h-1.1v-7.2h1.1V118.4z M85.1,118.4H84v-7.2h1.1V118.4z"/>
				</g>
				<g>
					<g>
						<rect fill="#FFFFFF" width="260" height="460"/>
						
							<linearGradient id="SVGID_5_" gradientUnits="userSpaceOnUse" x1="1.4787" y1="462.8045" x2="255.2412" y2="7.0675" gradientTransform="matrix(1 0 0 -1 0 462)">
							<stop  offset="0" style="stop-color:#004DA8"/>
							<stop  offset="1" style="stop-color:#2E98D3"/>
						</linearGradient>
						<path fill="url(#SVGID_5_)" d="M0,0h260v460H0V0z"/>
						<path opacity="0.1" fill="#FFFFFF" enable-background="new    " d="M145.2,73.6c-2.3,0-4.2,1.9-4.2,4.1v81.4
							c0,2.3,1.9,4.1,4.2,4.1H227c2.3,0,4.2-1.9,4.2-4.1V77.7c0-2.3-1.9-4.1-4.2-4.1H145.2z M219.4,89.7c2.8,0,5.1-2.3,5.1-5.1
							c0-2.8-2.3-5.1-5.1-5.1c-2.8,0-5.1,2.3-5.1,5.1C214.3,87.4,216.6,89.7,219.4,89.7z"/>
						<path opacity="0.1" fill="#FFFFFF" enable-background="new    " d="M145.2,185.9c-2.3,0-4.2,1.9-4.2,4.1v81.4
							c0,2.3,1.9,4.1,4.2,4.1H227c2.3,0,4.2-1.9,4.2-4.1V190c0-2.3-1.9-4.1-4.2-4.1H145.2z M219.4,203.2c2.8,0,5.1-2.3,5.1-5.1
							c0-2.8-2.3-5.1-5.1-5.1c-2.8,0-5.1,2.3-5.1,5.1C214.3,200.9,216.6,203.2,219.4,203.2z"/>
						<path opacity="0.1" fill="#FFFFFF" enable-background="new    " d="M29.5,73.6c-2.3,0-4.2,1.9-4.2,4.1v81.4
							c0,2.3,1.9,4.1,4.2,4.1h81.8c2.3,0,4.2-1.9,4.2-4.1V77.7c0-2.3-1.9-4.1-4.2-4.1H29.5z M103.7,89.7c2.8,0,5.1-2.3,5.1-5.1
							c0-2.8-2.3-5.1-5.1-5.1c-2.8,0-5.1,2.3-5.1,5.1C98.6,87.4,100.9,89.7,103.7,89.7z"/>
						<g>
							<g>
								<path fill-opacity="1.000000e-02" d="M0,1.4v13.8h260V1.4H0z"/>
								<path fill="#FFFFFF" d="M253.9,4.8h-16.2c-0.7,0-1.3,0.5-1.3,1.2v5.2c0,0.7,0.6,1.2,1.3,1.2h16.2c0.7,0,1.3-0.5,1.3-1.2V6
									C255.1,5.4,254.6,4.8,253.9,4.8z M236.8,6c0-0.4,0.4-0.8,0.8-0.8h16.2c0.5,0,0.8,0.4,0.8,0.8v5.2c0,0.4-0.4,0.8-0.8,0.8
									h-16.2c-0.5,0-0.8-0.4-0.8-0.8V6z"/>
								<path fill="#FFFFFF" d="M237.5,5.6c-0.2,0-0.3,0.2-0.3,0.3v5.3c0,0.2,0.2,0.3,0.3,0.3h6.6v-6H237.5z"/>
								<path fill="#FFFFFF" d="M256.5,8.6c0,0.7-0.5,1.3-1,1.4V7.2C256.1,7.3,256.5,7.9,256.5,8.6z"/>
								<path fill="#FFFFFF" d="M213.8,11.9c1.4,0,2.4-0.9,2.4-2.3c0-1.3-0.9-2.3-2.2-2.3c-0.6,0-1.1,0.2-1.4,0.6h-0.1l0.2-2.2h3.1
									V4.9H212l-0.4,3.9h0.8c0.3-0.5,0.8-0.8,1.4-0.8c0.9,0,1.5,0.6,1.5,1.6s-0.6,1.6-1.5,1.6c-0.8,0-1.4-0.5-1.5-1.2h-0.8
									C211.6,11.1,212.5,11.9,213.8,11.9z M219.9,11.9c1.4,0,2.5-0.8,2.5-2c0-0.9-0.6-1.6-1.4-1.7V8.1c0.7-0.2,1.1-0.8,1.1-1.5
									c0-1.1-0.9-1.8-2.2-1.8c-1.3,0-2.2,0.8-2.2,1.8c0,0.7,0.4,1.3,1.1,1.5v0.1c-0.9,0.2-1.4,0.8-1.4,1.7
									C217.4,11.1,218.4,11.9,219.9,11.9z M219.9,11.2c-0.9,0-1.6-0.5-1.6-1.3c0-0.8,0.7-1.3,1.6-1.3c0.9,0,1.6,0.5,1.6,1.3
									C221.5,10.6,220.8,11.2,219.9,11.2z M219.9,7.8c-0.8,0-1.3-0.5-1.3-1.2c0-0.7,0.5-1.2,1.3-1.2c0.8,0,1.3,0.5,1.3,1.2
									C221.2,7.3,220.7,7.8,219.9,7.8z M231.5,11.2c-0.4,0-0.7-0.4-0.7-1c0-0.6,0.3-1,0.7-1c0.4,0,0.7,0.4,0.7,1
									C232.2,10.8,231.9,11.2,231.5,11.2z M231.5,11.8c0.9,0,1.5-0.7,1.5-1.6c0-1-0.6-1.6-1.5-1.6c-0.9,0-1.5,0.7-1.5,1.6
									C230.1,11.2,230.7,11.8,231.5,11.8z M227.6,8.1c0.9,0,1.5-0.7,1.5-1.6c0-1-0.6-1.6-1.5-1.6c-0.9,0-1.5,0.7-1.5,1.6
									C226.1,7.4,226.7,8.1,227.6,8.1z M227.5,11.7l2.3-3.2l2.7-3.6h-0.9l-2.4,3.3l-2.6,3.5H227.5z M227.6,7.5
									c-0.4,0-0.7-0.4-0.7-1c0-0.6,0.3-1,0.7-1c0.4,0,0.7,0.4,0.7,1C228.3,7.1,228,7.5,227.6,7.5z"/>
								<path opacity="0.45" fill="#FFFFFF" enable-background="new    " d="M204.1,11.6V9.2l1.2,1.3L204.1,11.6z M205.3,6.8
									L204.1,8V5.7L205.3,6.8z M204.4,8.6l1.8-1.8l-2.7-2.6h-0.1v3.7l-1.9-1.9l-0.5,0.6l2.2,2.2l-2.2,2.2l0.5,0.6l1.9-1.9v3.7h0.1
									l2.7-2.7L204.4,8.6z"/>
								<path fill="#FFFFFF" d="M106.8,8.3c0-0.4,0.3-0.7,0.7-0.7h4.2c0.4,0,0.7,0.3,0.7,0.7V11c0,0.4-0.3,0.7-0.7,0.7h-4.2
									c-0.4,0-0.7-0.3-0.7-0.7V8.3z"/>
								<path fill="#FFFFFF" d="M109.5,4.8c-1.1,0-2.1,0.9-2.1,2.1V9h0.7V6.9c0-0.8,0.6-1.4,1.4-1.4s1.4,0.6,1.4,1.4V9h0.7V6.9
									C111.6,5.8,110.7,4.8,109.5,4.8z"/>
								<path fill="#FFFFFF" d="M120.9,11.9c1.5,0,2.4-1.3,2.4-3.5c0-2.3-0.9-3.6-2.4-3.6c-1.5,0-2.4,1.3-2.4,3.6
									C118.5,10.6,119.4,11.9,120.9,11.9z M120.9,11.1c-1,0-1.6-1-1.6-2.8c0-1.8,0.6-2.8,1.6-2.8s1.6,1,1.6,2.8
									C122.5,10.1,121.9,11.1,120.9,11.1z M126.8,11.9c1.7,0,2.6-1.3,2.6-3.7c0-0.7-0.1-1.4-0.3-1.9c-0.4-1-1.2-1.5-2.2-1.5
									c-1.4,0-2.4,1-2.4,2.3c0,1.3,0.9,2.3,2.2,2.3c0.8,0,1.5-0.4,1.8-1h0h0h0c0,1.8-0.7,2.8-1.8,2.8c-0.7,0-1.2-0.4-1.4-1h-0.9
									C124.8,11.2,125.6,11.9,126.8,11.9z M126.8,8.6c-0.9,0-1.5-0.6-1.5-1.6c0-0.9,0.7-1.6,1.5-1.6s1.5,0.7,1.5,1.6
									C128.4,8,127.8,8.6,126.8,8.6z M130.7,10.4c0,0.4,0.3,0.7,0.7,0.7c0.4,0,0.7-0.3,0.7-0.7c0-0.4-0.3-0.7-0.7-0.7
									C131,9.7,130.7,10,130.7,10.4z M130.7,6.7c0,0.4,0.3,0.7,0.7,0.7c0.4,0,0.7-0.3,0.7-0.7c0-0.4-0.3-0.7-0.7-0.7
									C131,6,130.7,6.3,130.7,6.7z M133.5,6.8L133.5,6.8l0.8,0v0c0-0.8,0.5-1.3,1.3-1.3c0.8,0,1.3,0.5,1.3,1.2
									c0,0.5-0.2,0.9-1.1,1.9l-2.4,2.6v0.6h4.4V11h-3.2v-0.1l1.6-1.8c1.1-1.2,1.4-1.7,1.4-2.5c0-1.1-0.9-1.9-2.2-1.9
									C134.4,4.8,133.5,5.6,133.5,6.8z M142.4,11.7h0.8v-1.4h1V9.6h-1V4.9H142c-1.2,1.8-2.3,3.5-2.9,4.6v0.8h3.3V11.7z M139.9,9.5
									c0.8-1.4,1.7-2.8,2.4-3.8h0.1v3.9L139.9,9.5L139.9,9.5z"/>
								<path fill="#FFFFFF" d="M55.8,6.1c1.7,0,3.2,0.6,4.4,1.6L61,6.8c-1.4-1.2-3.2-2-5.2-2c-2,0-3.8,0.8-5.2,2l0.8,0.9
									C52.6,6.7,54.1,6.1,55.8,6.1z M55.8,8.6c1,0,1.9,0.4,2.6,0.9l0.9-0.9c-0.9-0.8-2.2-1.3-3.5-1.3c-1.3,0-2.6,0.5-3.5,1.3
									l0.9,0.9C53.9,9,54.8,8.6,55.8,8.6z M57.6,10.5c-0.5-0.4-1.1-0.7-1.8-0.7c-0.7,0-1.3,0.3-1.8,0.7l1.8,1.9L57.6,10.5z"/>
								<path fill="#FFFFFF" d="M42,9.1V8.3h-2.8V9h1.9v0.2c0,1.2-0.8,1.9-2.1,1.9c-1.4,0-2.2-1.1-2.2-2.8c0-1.7,0.9-2.8,2.2-2.8
									c1,0,1.7,0.5,2,1.4h0.9c-0.2-1.3-1.3-2.2-2.9-2.2c-1.9,0-3.1,1.4-3.1,3.6c0,2.2,1.2,3.6,3.1,3.6C40.8,11.9,42,10.8,42,9.1z
									 M42.9,9.9c0.1,1.2,1.1,1.9,2.5,1.9c1.6,0,2.6-0.8,2.6-2c0-1-0.6-1.5-2-1.9l-0.7-0.2C44.3,7.5,44,7.2,44,6.7
									c0-0.7,0.6-1.1,1.5-1.1c0.9,0,1.4,0.4,1.5,1.1h0.9c-0.1-1.1-1.1-1.9-2.4-1.9c-1.4,0-2.4,0.8-2.4,1.9c0,1,0.5,1.5,1.8,1.8
									l0.9,0.2c0.9,0.2,1.4,0.6,1.4,1.2c0,0.7-0.7,1.2-1.6,1.2c-1,0-1.7-0.5-1.8-1.2H42.9z"/>
								<path fill="#FFFFFF" d="M28.8,8.3c0,1.3,1.1,2.4,2.4,2.4c1.3,0,2.4-1.1,2.4-2.4s-1.1-2.4-2.4-2.4
									C29.9,5.9,28.8,6.9,28.8,8.3z M33.2,8.3c0,1.1-0.9,2-2,2s-2-0.9-2-2c0-1.1,0.9-2,2-2S33.2,7.2,33.2,8.3z"/>
								<path fill="#FFFFFF" d="M22.9,8.3c0,1.3,1.1,2.4,2.4,2.4c1.3,0,2.4-1.1,2.4-2.4s-1.1-2.4-2.4-2.4C24,5.9,22.9,6.9,22.9,8.3z
									 M27.3,8.3c0,1.1-0.9,2-2,2c-1.1,0-2-0.9-2-2c0-1.1,0.9-2,2-2C26.4,6.3,27.3,7.2,27.3,8.3z"/>
								<path fill="#FFFFFF" d="M19.4,10.7c1.3,0,2.4-1.1,2.4-2.4s-1.1-2.4-2.4-2.4S17,6.9,17,8.3S18.1,10.7,19.4,10.7z"/>
								<path fill="#FFFFFF" d="M13.5,10.7c1.3,0,2.4-1.1,2.4-2.4s-1.1-2.4-2.4-2.4s-2.4,1.1-2.4,2.4S12.2,10.7,13.5,10.7z"/>
								<path fill="#FFFFFF" d="M7.6,10.7c1.3,0,2.4-1.1,2.4-2.4S9,5.9,7.6,5.9S5.2,6.9,5.2,8.3S6.3,10.7,7.6,10.7z"/>
							</g>
							<path fill="#CCE134" d="M28.2,424.5l-2.2-3.8l2.2-3.8h4.4l2.2,3.8l-2.2,3.8H28.2z"/>
							<path fill="#F3922B" d="M34.8,420.7l-2.2-3.8l2.2-3.8h4.4l2.2,3.8l-2.2,3.8H34.8z"/>
							<path fill="#DC3348" d="M41.4,424.5l-2.2-3.8l2.2-3.8h4.4l2.2,3.8l-2.2,3.8H41.4z"/>
							<path fill="#01B49E" d="M28.3,432.1l-2.2-3.8l2.2-3.8h4.4l2.2,3.8l-2.2,3.8H28.3z"/>
							<path fill="#A0A01C" d="M34.9,435.9l-2.2-3.8l2.2-3.8h4.4l2.2,3.8l-2.2,3.8H34.9z"/>
							<path fill="#3C7D90" d="M41.4,432.1l-2.2-3.8l2.2-3.8h4.4l2.2,3.8l-2.2,3.8H41.4z"/>
							<path fill="#FFFFFF" d="M65.2,347.5h7.6v1.5H61.2v-1.5h2.3v-6.9h-2.3v-1h2.3v-3.2c0-1.7,0.4-3,1.3-4c0.9-0.9,2.1-1.4,3.7-1.4
								c0.9,0,1.8,0.2,2.6,0.6c0.8,0.4,1.5,1,2.2,1.8l-0.8,1.3c-0.5-0.7-1.1-1.2-1.8-1.6c-0.6-0.4-1.3-0.6-2.1-0.6
								c-1.1,0-1.9,0.3-2.5,1c-0.6,0.6-0.8,1.6-0.8,2.8v3.2h4.7v1h-4.7V347.5z M87.6,347.4v1.6H74.9v-1.5l7.1-7.3
								c0.8-0.9,1.5-1.7,1.9-2.5c0.5-0.8,0.7-1.5,0.7-2.1c0-0.9-0.4-1.7-1.1-2.2c-0.7-0.5-1.7-0.8-2.9-0.8c-0.9,0-1.7,0.2-2.6,0.6
								c-0.9,0.4-1.7,0.9-2.5,1.6l-0.8-1.3c0.9-0.8,1.8-1.4,2.9-1.8c1.1-0.4,2.1-0.6,3.2-0.6c1.7,0,3.1,0.4,4.1,1.2
								c1,0.8,1.5,1.8,1.5,3.1c0,0.8-0.3,1.7-0.9,2.7c-0.6,1-1.4,2-2.4,3.1l-6.1,6.3H87.6z M95.7,331.1h6.1V349H100v-16.3h-4.3
								V331.1z M112.1,338.8c1.9,0.1,3.4,0.5,4.5,1.4c1.1,0.8,1.7,2,1.7,3.4c0,1.1-0.3,2.1-0.8,2.9c-0.5,0.8-1.3,1.5-2.4,2
								c-1,0.5-2.3,0.7-3.6,0.7c-1.1,0-2.2-0.2-3.3-0.5c-1.1-0.3-2-0.7-2.8-1.3l0.8-1.4c0.7,0.5,1.5,0.9,2.4,1.2
								c0.9,0.3,1.8,0.4,2.8,0.4c1.6,0,2.9-0.4,3.8-1.1c0.9-0.7,1.4-1.7,1.4-2.9c0-1.2-0.5-2.1-1.4-2.7c-0.9-0.6-2.2-0.9-3.9-0.9
								H109v-1.1l6.1-6.1h-8.9v-1.6h11.2v1.2l-6.4,6.4L112.1,338.8z M127.9,338c1.3,0,2.4,0.2,3.4,0.7c1,0.4,1.7,1.1,2.3,1.9
								c0.5,0.8,0.8,1.7,0.8,2.7c0,1.2-0.3,2.2-0.8,3.1c-0.5,0.9-1.3,1.6-2.3,2.1c-1,0.5-2.1,0.7-3.5,0.7c-1,0-2.1-0.2-3.3-0.5
								c-1.1-0.4-2.1-0.8-3.1-1.4l0.7-1.4c0.8,0.5,1.7,1,2.6,1.3c1,0.3,1.9,0.5,2.8,0.5c1.5,0,2.7-0.4,3.5-1.1
								c0.9-0.8,1.3-1.8,1.3-3.1c0-1.2-0.4-2.1-1.3-2.7c-0.9-0.7-2.1-1-3.6-1c-0.6,0-1.4,0.1-2.4,0.2c-0.9,0.1-1.7,0.2-2.4,0.4v-9
								h10.9v1.6h-9.2v5.6c0.5-0.1,1.1-0.2,1.7-0.2C126.9,338,127.4,338,127.9,338z M137.9,346.8c0.3,0,0.6,0.1,0.8,0.3
								c0.2,0.2,0.3,0.5,0.3,0.8s-0.1,0.6-0.3,0.8c-0.2,0.2-0.5,0.3-0.8,0.3c-0.3,0-0.6-0.1-0.8-0.3c-0.2-0.2-0.3-0.5-0.3-0.8
								c0-0.3,0.1-0.6,0.3-0.8C137.3,347,137.6,346.8,137.9,346.8z M157,331c2.4,0,4.2,0.8,5.5,2.3c1.3,1.5,1.9,3.8,1.9,6.7
								s-0.6,5.1-1.9,6.7c-1.3,1.6-3.1,2.3-5.5,2.3c-2.4,0-4.2-0.8-5.5-2.3c-1.3-1.6-1.9-3.8-1.9-6.7s0.6-5.1,1.9-6.7
								C152.8,331.8,154.6,331,157,331z M157,332.4c-1.8,0-3.2,0.6-4.1,1.9c-0.9,1.3-1.4,3.2-1.4,5.7c0,2.5,0.5,4.4,1.4,5.7
								c0.9,1.3,2.3,1.9,4.1,1.9c1.8,0,3.2-0.6,4.1-1.9c1-1.3,1.4-3.2,1.4-5.7c0-2.5-0.5-4.4-1.4-5.7
								C160.2,333.1,158.8,332.4,157,332.4z M175.3,331c2.4,0,4.2,0.8,5.5,2.3c1.3,1.5,1.9,3.8,1.9,6.7s-0.6,5.1-1.9,6.7
								c-1.3,1.6-3.1,2.3-5.5,2.3c-2.4,0-4.2-0.8-5.5-2.3c-1.3-1.6-1.9-3.8-1.9-6.7s0.6-5.1,1.9-6.7C171.2,331.8,173,331,175.3,331z
								 M175.3,332.4c-1.8,0-3.2,0.6-4.1,1.9c-0.9,1.3-1.4,3.2-1.4,5.7c0,2.5,0.5,4.4,1.4,5.7c0.9,1.3,2.3,1.9,4.1,1.9
								c1.8,0,3.2-0.6,4.1-1.9c1-1.3,1.4-3.2,1.4-5.7c0-2.5-0.5-4.4-1.4-5.7C178.5,333.1,177.2,332.4,175.3,332.4z"/>
							<path fill="#FFFFFF" d="M61.7,356h4.5v0.6h-3.9v2.4h3.5v0.6h-3.5v2.5h4v0.6h-4.7V356z M74.1,362.8l-0.8-1.8h-3.8l-0.8,1.8H68
								L71,356h0.7l3.1,6.7H74.1z M69.8,360.4H73l-1.6-3.6L69.8,360.4z M81.4,362.8l-1.5-2.2c-0.2,0-0.4,0-0.5,0h-1.9v2.2h-0.7V356
								h2.5c0.8,0,1.5,0.2,2,0.6c0.5,0.4,0.7,0.9,0.7,1.7c0,0.6-0.1,1-0.4,1.4c-0.3,0.4-0.7,0.6-1.2,0.8l1.6,2.3H81.4z M79.4,360
								c0.6,0,1.1-0.1,1.5-0.4c0.3-0.3,0.5-0.7,0.5-1.3c0-0.5-0.2-1-0.5-1.2s-0.8-0.4-1.5-0.4h-1.9v3.4H79.4z M89.8,356h0.7v6.7
								h-0.7l-4.2-5.7v5.7h-0.7V356h0.7l4.2,5.7V356z M93.6,356h0.7v6.7h-0.7V356z M102.3,356h0.7v6.7h-0.7L98,357v5.7h-0.7V356H98
								l4.2,5.7V356z M110.8,359.5h0.6v2.5c-0.3,0.3-0.7,0.5-1.2,0.7c-0.4,0.2-0.9,0.2-1.3,0.2c-0.6,0-1.2-0.2-1.8-0.5
								c-0.5-0.3-1-0.7-1.3-1.3c-0.3-0.5-0.5-1.1-0.5-1.7s0.2-1.2,0.5-1.7c0.3-0.5,0.7-0.9,1.3-1.2c0.5-0.3,1.1-0.5,1.8-0.5
								c0.5,0,0.9,0.1,1.3,0.2c0.4,0.2,0.8,0.4,1.1,0.7l-0.4,0.5c-0.3-0.3-0.6-0.5-1-0.6c-0.4-0.1-0.7-0.2-1.1-0.2
								c-0.5,0-1,0.1-1.4,0.4c-0.4,0.3-0.8,0.6-1,1c-0.3,0.4-0.4,0.9-0.4,1.4c0,0.5,0.1,1,0.4,1.4c0.3,0.4,0.6,0.8,1,1
								c0.4,0.3,0.9,0.4,1.5,0.4c0.3,0,0.6-0.1,1-0.2c0.3-0.1,0.6-0.3,0.9-0.5V359.5z M118.1,357.1c-0.3-0.2-0.6-0.3-0.9-0.4
								c-0.3-0.1-0.6-0.1-0.9-0.1c-0.5,0-0.8,0.1-1.1,0.3c-0.3,0.2-0.4,0.4-0.4,0.7c0,0.3,0.1,0.5,0.2,0.7c0.2,0.2,0.3,0.3,0.6,0.4
								c0.2,0.1,0.5,0.2,0.9,0.3c0.5,0.1,0.8,0.3,1.1,0.4c0.3,0.1,0.5,0.3,0.7,0.6c0.2,0.3,0.3,0.6,0.3,1c0,0.4-0.1,0.7-0.3,1
								c-0.2,0.3-0.5,0.5-0.9,0.6c-0.4,0.1-0.8,0.2-1.3,0.2c-0.5,0-0.9-0.1-1.4-0.3c-0.4-0.2-0.8-0.4-1.2-0.7l0.3-0.6
								c0.3,0.3,0.7,0.5,1.1,0.7c0.4,0.2,0.8,0.3,1.2,0.3c0.5,0,0.9-0.1,1.2-0.3c0.3-0.2,0.5-0.5,0.5-0.8c0-0.3-0.1-0.5-0.2-0.7
								c-0.2-0.2-0.3-0.3-0.6-0.4c-0.2-0.1-0.5-0.2-1-0.3c-0.5-0.1-0.8-0.3-1.1-0.4c-0.3-0.1-0.5-0.3-0.7-0.6
								c-0.2-0.3-0.3-0.6-0.3-1c0-0.3,0.1-0.6,0.3-0.9c0.2-0.3,0.5-0.5,0.8-0.6c0.3-0.1,0.8-0.2,1.2-0.2c0.4,0,0.7,0.1,1.1,0.2
								c0.4,0.1,0.7,0.3,1,0.4L118.1,357.1z M123.9,356h5.2v0.6h-2.2v6.2h-0.7v-6.2h-2.2V356z M131.2,356h0.7v3.1h4.2V356h0.7v6.7
								h-0.7v-3.1h-4.2v3.1h-0.7V356z M139.9,356h0.7v6.7h-0.7V356z M147.4,357.1c-0.3-0.2-0.6-0.3-0.9-0.4
								c-0.3-0.1-0.6-0.1-0.9-0.1c-0.5,0-0.8,0.1-1.1,0.3c-0.3,0.2-0.4,0.4-0.4,0.7c0,0.3,0.1,0.5,0.2,0.7c0.2,0.2,0.3,0.3,0.6,0.4
								c0.2,0.1,0.5,0.2,0.9,0.3c0.5,0.1,0.8,0.3,1.1,0.4c0.3,0.1,0.5,0.3,0.7,0.6c0.2,0.3,0.3,0.6,0.3,1c0,0.4-0.1,0.7-0.3,1
								c-0.2,0.3-0.5,0.5-0.9,0.6c-0.4,0.1-0.8,0.2-1.3,0.2c-0.5,0-0.9-0.1-1.4-0.3c-0.4-0.2-0.8-0.4-1.2-0.7l0.3-0.6
								c0.3,0.3,0.7,0.5,1.1,0.7c0.4,0.2,0.8,0.3,1.2,0.3c0.5,0,0.9-0.1,1.2-0.3c0.3-0.2,0.5-0.5,0.5-0.8c0-0.3-0.1-0.5-0.2-0.7
								c-0.2-0.2-0.3-0.3-0.6-0.4c-0.2-0.1-0.5-0.2-1-0.3c-0.5-0.1-0.8-0.3-1.1-0.4c-0.3-0.1-0.5-0.3-0.7-0.6
								c-0.2-0.3-0.3-0.6-0.3-1c0-0.3,0.1-0.6,0.3-0.9c0.2-0.3,0.5-0.5,0.8-0.6c0.3-0.1,0.8-0.2,1.2-0.2c0.4,0,0.7,0.1,1.1,0.2
								c0.4,0.1,0.7,0.3,1,0.4L147.4,357.1z M154.2,356h0.8l2.7,5.1l2.6-5.1h0.8v6.8h-0.6l0-5.8l-2.7,5.1h-0.4l-2.7-5.1v5.8h-0.6
								V356z M167.1,356c0.6,0,1.2,0.2,1.8,0.5c0.5,0.3,1,0.7,1.3,1.2c0.3,0.5,0.5,1.1,0.5,1.7s-0.2,1.2-0.5,1.7
								c-0.3,0.5-0.7,0.9-1.3,1.3c-0.5,0.3-1.1,0.5-1.8,0.5c-0.6,0-1.2-0.2-1.8-0.5c-0.5-0.3-1-0.7-1.3-1.3
								c-0.3-0.5-0.5-1.1-0.5-1.7s0.2-1.2,0.5-1.7c0.3-0.5,0.7-0.9,1.3-1.2C165.9,356.1,166.5,356,167.1,356z M167.1,356.5
								c-0.5,0-1,0.1-1.4,0.4c-0.4,0.3-0.8,0.6-1,1c-0.3,0.4-0.4,0.9-0.4,1.4s0.1,1,0.4,1.4c0.3,0.4,0.6,0.8,1,1
								c0.4,0.3,0.9,0.4,1.4,0.4c0.5,0,1-0.1,1.4-0.4c0.4-0.3,0.8-0.6,1-1c0.3-0.4,0.4-0.9,0.4-1.4s-0.1-1-0.4-1.4
								c-0.3-0.4-0.6-0.8-1-1C168.1,356.7,167.6,356.5,167.1,356.5z M178,356h0.7v6.7H178l-4.2-5.7v5.7h-0.7V356h0.7l4.2,5.7V356z
								 M180.8,356h5.2v0.6h-2.2v6.2h-0.7v-6.2h-2.2V356z M188.1,356h0.7v3.1h4.2V356h0.7v6.7H193v-3.1h-4.2v3.1h-0.7V356z"/>
							<path fill="#49FF95" d="M193.5,347.3v-12.7l4.4,4.4c0.3,0.3,0.8,0.3,1.2,0c0.3-0.3,0.3-0.8,0-1.2l-5.8-5.8
								c0,0-0.1-0.1-0.1-0.1c0,0,0,0-0.1,0c0,0,0,0-0.1,0c0,0-0.1,0-0.1,0c0,0,0,0-0.1,0c-0.1,0-0.1,0-0.2,0c0,0,0,0,0,0
								c-0.1,0-0.1,0-0.2,0c0,0,0,0-0.1,0c0,0-0.1,0-0.1,0c0,0-0.1,0-0.1,0c0,0,0,0-0.1,0c0,0-0.1,0.1-0.1,0.1l-5.8,5.8
								c-0.3,0.3-0.3,0.8,0,1.2c0.3,0.3,0.8,0.3,1.2,0l4.4-4.4v12.7c0,0.4,0.4,0.8,0.8,0.8C193.2,348.1,193.5,347.8,193.5,347.3z"/>
							<path fill="#FFFFFF" fill-opacity="0.8" d="M223.6,416h-4.1c-0.4-1.1-1.5-1.9-2.8-1.9c-1.3,0-2.4,0.8-2.8,1.9h-4.1
								c-1.1,0-2,0.9-2,1.9v13.3c0,1.1,0.9,1.9,2,1.9h13.7c1.1,0,2-0.9,2-1.9v-13.3C225.5,416.8,224.7,416,223.6,416z M216.7,416
								c0.5,0,1,0.4,1,1c0,0.5-0.4,1-1,1c-0.5,0-1-0.4-1-1C215.7,416.4,216.2,416,216.7,416z M220.6,427.4h-3.9v2.9l-4.9-4.8
								l4.9-4.8v2.9h3.9V427.4z"/>
							<path fill="none" stroke="#FFFFFF" stroke-opacity="0.1" d="M238.5,292.8H17.3"/>
							<path fill="none" stroke="#FFFFFF" stroke-opacity="0.1" d="M238.5,397H17.3"/>
							<path fill="#FFFFFF" d="M47.7,104.1c-0.9,0-1.6-0.7-1.6-1.6v-2.3c0-0.4-0.3-0.6-0.7-0.6h-5.2c-1.4,0-2.6,1.2-2.6,2.6v9.1
								c0,1.4,1.2,2.6,2.6,2.6H48c1.4,0,2.6-1.2,2.6-2.6v-6.5c0-0.4-0.3-0.6-0.7-0.6H47.7z M45.4,110h-3.9c-0.4,0-0.7-0.3-0.7-0.6
								s0.3-0.6,0.7-0.6h3.9c0.4,0,0.7,0.3,0.7,0.6S45.8,110,45.4,110z M46.7,107.4h-5.2c-0.4,0-0.7-0.3-0.7-0.6
								c0-0.4,0.3-0.6,0.7-0.6h5.2c0.4,0,0.7,0.3,0.7,0.6C47.4,107.1,47.1,107.4,46.7,107.4z"/>
							<path fill="#FFFFFF" d="M45.1,244.6l-2.3-3.5c-0.3,0-0.6,0-0.7,0h-2.9v3.4h-1.1V234h4c1.3,0,2.4,0.3,3.1,0.9
								c0.7,0.6,1.1,1.5,1.1,2.6c0,0.9-0.2,1.6-0.6,2.2c-0.4,0.6-1,1-1.8,1.2l2.6,3.7H45.1z M42.1,240.3c1,0,1.8-0.2,2.3-0.7
								c0.5-0.5,0.8-1.1,0.8-2c0-0.8-0.3-1.5-0.8-1.9c-0.5-0.4-1.3-0.7-2.3-0.7h-2.9v5.3H42.1z M52,236.7c1.2,0,2.2,0.4,2.8,1.2
								c0.7,0.8,1,1.8,0.9,3.2h-6.7c0.1,0.8,0.4,1.5,0.9,2.1c0.6,0.5,1.3,0.8,2.1,0.8c0.5,0,1-0.1,1.4-0.3c0.4-0.2,0.8-0.4,1.1-0.8
								l0.6,0.6c-0.4,0.4-0.9,0.7-1.4,1c-0.5,0.2-1.1,0.3-1.8,0.3c-0.8,0-1.5-0.2-2.1-0.5c-0.6-0.3-1.1-0.8-1.4-1.4
								c-0.3-0.6-0.5-1.3-0.5-2.1c0-0.8,0.2-1.5,0.5-2.1c0.3-0.6,0.8-1.1,1.4-1.4C50.6,236.8,51.3,236.7,52,236.7z M54.8,240.2
								c-0.1-0.8-0.3-1.5-0.8-2c-0.5-0.5-1.2-0.7-2-0.7c-0.8,0-1.5,0.2-2,0.7c-0.5,0.5-0.8,1.2-0.9,2H54.8z M62.2,236.7
								c0.7,0,1.4,0.2,2,0.5c0.6,0.3,1,0.8,1.4,1.4c0.3,0.6,0.5,1.3,0.5,2.1c0,0.8-0.2,1.5-0.5,2.1c-0.3,0.6-0.8,1.1-1.4,1.4
								c-0.6,0.3-1.2,0.5-2,0.5c-0.7,0-1.4-0.2-1.9-0.5c-0.5-0.3-1-0.8-1.3-1.4v4.8h-1v-10.9h1v1.8c0.3-0.6,0.7-1,1.3-1.4
								C60.8,236.8,61.5,236.7,62.2,236.7z M62,243.8c0.6,0,1.1-0.1,1.5-0.4c0.5-0.3,0.8-0.6,1.1-1.1c0.3-0.5,0.4-1,0.4-1.6
								c0-0.6-0.1-1.1-0.4-1.6c-0.3-0.5-0.6-0.8-1.1-1.1c-0.5-0.3-1-0.4-1.5-0.4c-0.6,0-1.1,0.1-1.6,0.4c-0.4,0.3-0.8,0.6-1.1,1.1
								c-0.3,0.5-0.4,1-0.4,1.6c0,0.6,0.1,1.1,0.4,1.6c0.3,0.5,0.6,0.8,1.1,1.1C60.9,243.7,61.4,243.8,62,243.8z M73.2,244.6l0-1.3
								c-0.3,0.5-0.7,0.8-1.2,1c-0.5,0.2-1.1,0.3-1.8,0.3c-0.5,0-1-0.1-1.4-0.3c-0.4-0.2-0.7-0.5-0.9-0.9c-0.2-0.4-0.3-0.8-0.3-1.2
								c0-0.7,0.3-1.2,0.8-1.6c0.5-0.4,1.3-0.6,2.2-0.6h2.7v-0.6c0-0.6-0.2-1.1-0.6-1.5c-0.4-0.3-0.9-0.5-1.6-0.5
								c-0.9,0-1.7,0.3-2.6,1l-0.5-0.7c0.5-0.4,1.1-0.6,1.5-0.8c0.5-0.2,1-0.3,1.7-0.3c1,0,1.7,0.2,2.2,0.7c0.5,0.5,0.8,1.1,0.8,2
								l0,5.3H73.2z M70.4,243.8c0.7,0,1.3-0.2,1.8-0.5c0.5-0.3,0.8-0.8,1-1.4v-1.1h-2.6c-0.7,0-1.2,0.1-1.6,0.3
								c-0.4,0.2-0.5,0.6-0.5,1c0,0.5,0.2,0.9,0.5,1.2C69.3,243.7,69.8,243.8,70.4,243.8z M76.9,236.7h1v8h-1V236.7z M77.5,233.7
								c0.2,0,0.4,0.1,0.5,0.2c0.1,0.1,0.2,0.3,0.2,0.5s-0.1,0.4-0.2,0.5c-0.1,0.1-0.3,0.2-0.5,0.2c-0.2,0-0.4-0.1-0.5-0.2
								c-0.1-0.1-0.2-0.3-0.2-0.5s0.1-0.4,0.2-0.5C77.1,233.8,77.3,233.7,77.5,233.7z M82,238.5c0.3-0.6,0.6-1.1,1.1-1.4
								c0.5-0.3,1.1-0.5,1.8-0.5v1c-0.8,0-1.5,0.2-2,0.7c-0.5,0.5-0.8,1.2-0.9,2v4.2h-1v-8h1V238.5z M42.3,260.1
								c0,1-0.3,1.8-0.8,2.4c-0.5,0.5-1.2,0.8-2.2,0.8c-0.6,0-1.1-0.1-1.6-0.4c-0.5-0.3-0.9-0.6-1.3-1.1l0.5-0.8
								c0.3,0.4,0.7,0.7,1.1,1c0.4,0.2,0.8,0.3,1.3,0.3c0.6,0,1.1-0.2,1.4-0.6c0.3-0.4,0.5-0.9,0.5-1.6v-6.5h-3.8v-1h4.9V260.1z
								 M48.4,255.3c0.8,0,1.5,0.2,2.1,0.5c0.6,0.3,1.1,0.8,1.4,1.4c0.3,0.6,0.5,1.3,0.5,2.1c0,0.8-0.2,1.5-0.5,2.1
								c-0.3,0.6-0.8,1.1-1.4,1.4c-0.6,0.3-1.3,0.5-2.1,0.5c-0.8,0-1.5-0.2-2.1-0.5c-0.6-0.3-1.1-0.8-1.4-1.4
								c-0.3-0.6-0.5-1.3-0.5-2.1c0-0.8,0.2-1.5,0.5-2.1c0.3-0.6,0.8-1.1,1.4-1.4C46.9,255.4,47.6,255.3,48.4,255.3z M48.4,256.2
								c-0.6,0-1.1,0.1-1.6,0.4c-0.5,0.3-0.8,0.6-1.1,1.1c-0.3,0.5-0.4,1-0.4,1.6c0,0.6,0.1,1.2,0.4,1.6c0.3,0.5,0.6,0.8,1.1,1.1
								c0.5,0.3,1,0.4,1.6,0.4c0.6,0,1.1-0.1,1.6-0.4c0.5-0.3,0.8-0.6,1.1-1.1c0.3-0.5,0.4-1,0.4-1.6c0-0.6-0.1-1.1-0.4-1.6
								c-0.3-0.5-0.6-0.8-1.1-1.1C49.5,256.3,49,256.2,48.4,256.2z M58.9,255.3c0.7,0,1.4,0.2,2,0.5c0.6,0.3,1,0.8,1.4,1.4
								c0.3,0.6,0.5,1.3,0.5,2.1c0,0.8-0.2,1.5-0.5,2.1c-0.3,0.6-0.8,1.1-1.4,1.4c-0.6,0.3-1.2,0.5-2,0.5c-0.7,0-1.4-0.2-1.9-0.5
								c-0.5-0.3-1-0.8-1.3-1.4v1.8h-1V252h1v5.1c0.3-0.6,0.7-1,1.3-1.4C57.5,255.4,58.2,255.3,58.9,255.3z M58.7,262.4
								c0.6,0,1.1-0.1,1.5-0.4c0.5-0.3,0.8-0.6,1.1-1.1c0.3-0.5,0.4-1,0.4-1.6c0-0.6-0.1-1.1-0.4-1.6c-0.3-0.5-0.6-0.8-1.1-1.1
								c-0.5-0.3-1-0.4-1.5-0.4c-0.6,0-1.1,0.1-1.6,0.4c-0.4,0.3-0.8,0.6-1.1,1.1c-0.3,0.5-0.4,1-0.4,1.6c0,0.6,0.1,1.1,0.4,1.6
								s0.6,0.8,1.1,1.1C57.6,262.3,58.1,262.4,58.7,262.4z"/>
							<path fill="#FFFFFF" d="M160.9,236.2c-0.4-0.4-0.9-0.7-1.5-1c-0.6-0.2-1.1-0.3-1.7-0.3c-0.8,0-1.6,0.2-2.3,0.6
								c-0.7,0.4-1.2,0.9-1.6,1.6c-0.4,0.7-0.6,1.4-0.6,2.2c0,0.8,0.2,1.6,0.6,2.2c0.4,0.7,1,1.2,1.6,1.6c0.7,0.4,1.4,0.6,2.3,0.6
								c0.6,0,1.2-0.1,1.7-0.3c0.6-0.2,1.1-0.6,1.5-1l0.6,0.7c-0.5,0.5-1.1,0.9-1.8,1.2c-0.7,0.3-1.4,0.4-2.1,0.4
								c-1,0-1.9-0.2-2.8-0.7c-0.8-0.5-1.5-1.1-2-2c-0.5-0.8-0.7-1.7-0.7-2.7c0-1,0.2-1.9,0.7-2.7c0.5-0.8,1.2-1.5,2-1.9
								c0.9-0.5,1.8-0.7,2.8-0.7c0.7,0,1.4,0.1,2.1,0.4c0.7,0.3,1.3,0.6,1.8,1.1L160.9,236.2z M166.6,236.7c0.8,0,1.5,0.2,2.1,0.5
								c0.6,0.3,1.1,0.8,1.4,1.4c0.3,0.6,0.5,1.3,0.5,2.1c0,0.8-0.2,1.5-0.5,2.1c-0.3,0.6-0.8,1.1-1.4,1.4c-0.6,0.3-1.3,0.5-2.1,0.5
								c-0.8,0-1.5-0.2-2.1-0.5c-0.6-0.3-1.1-0.8-1.4-1.4c-0.3-0.6-0.5-1.3-0.5-2.1c0-0.8,0.2-1.5,0.5-2.1c0.3-0.6,0.8-1.1,1.4-1.4
								C165.2,236.8,165.9,236.7,166.6,236.7z M166.6,237.5c-0.6,0-1.1,0.1-1.6,0.4c-0.5,0.3-0.8,0.6-1.1,1.1
								c-0.3,0.5-0.4,1-0.4,1.6c0,0.6,0.1,1.2,0.4,1.6c0.3,0.5,0.6,0.8,1.1,1.1c0.5,0.3,1,0.4,1.6,0.4c0.6,0,1.1-0.1,1.6-0.4
								c0.5-0.3,0.8-0.6,1.1-1.1c0.3-0.5,0.4-1,0.4-1.6c0-0.6-0.1-1.1-0.4-1.6c-0.3-0.5-0.6-0.8-1.1-1.1
								C167.7,237.7,167.2,237.5,166.6,237.5z M172.9,233.4h1v11.3h-1V233.4z M177.1,233.4h1v11.3h-1V233.4z M184.3,236.7
								c1.2,0,2.2,0.4,2.8,1.2c0.7,0.8,1,1.8,0.9,3.2h-6.7c0.1,0.8,0.4,1.5,0.9,2.1c0.6,0.5,1.3,0.8,2.1,0.8c0.5,0,1-0.1,1.4-0.3
								c0.4-0.2,0.8-0.4,1.1-0.8l0.6,0.6c-0.4,0.4-0.9,0.7-1.4,1c-0.5,0.2-1.1,0.3-1.8,0.3c-0.8,0-1.5-0.2-2.1-0.5
								c-0.6-0.3-1.1-0.8-1.4-1.4c-0.3-0.6-0.5-1.3-0.5-2.1c0-0.8,0.2-1.5,0.5-2.1c0.3-0.6,0.8-1.1,1.4-1.4
								C182.9,236.8,183.5,236.7,184.3,236.7z M187.1,240.2c-0.1-0.8-0.3-1.5-0.8-2c-0.5-0.5-1.2-0.7-2-0.7c-0.8,0-1.5,0.2-2,0.7
								c-0.5,0.5-0.8,1.2-0.9,2H187.1z M195.7,238.5c-0.7-0.6-1.4-0.9-2.4-0.9c-0.6,0-1.1,0.1-1.5,0.4c-0.5,0.3-0.8,0.6-1.1,1.1
								c-0.3,0.5-0.4,1-0.4,1.6s0.1,1.1,0.4,1.6c0.3,0.5,0.6,0.8,1.1,1.1c0.5,0.3,1,0.4,1.5,0.4c0.5,0,1-0.1,1.4-0.3
								c0.4-0.2,0.8-0.4,1.1-0.8l0.6,0.6c-0.4,0.4-0.8,0.8-1.3,1c-0.5,0.2-1.1,0.3-1.8,0.3c-0.8,0-1.4-0.2-2-0.5
								c-0.6-0.3-1.1-0.8-1.4-1.4c-0.3-0.6-0.5-1.3-0.5-2.1c0-0.8,0.2-1.5,0.5-2.1c0.3-0.6,0.8-1.1,1.4-1.4c0.6-0.3,1.3-0.5,2-0.5
								c0.6,0,1.2,0.1,1.7,0.3c0.5,0.2,1,0.5,1.3,0.8L195.7,238.5z M202.7,244.1c-0.5,0.4-1.1,0.6-1.8,0.6c-0.6,0-1.1-0.2-1.4-0.6
								c-0.4-0.4-0.5-0.9-0.5-1.7v-4.7h-1.1l0-0.8h1.2v-2h1v2l2.6,0v0.8H200v4.6c0,1,0.4,1.5,1.1,1.5c0.4,0,0.8-0.1,1.3-0.4
								L202.7,244.1z M160.2,263.3l-2.3-3.5c-0.3,0-0.6,0-0.7,0h-2.9v3.4h-1.1v-10.6h4c1.3,0,2.4,0.3,3.1,0.9
								c0.7,0.6,1.1,1.5,1.1,2.6c0,0.9-0.2,1.6-0.6,2.2c-0.4,0.6-1,1-1.8,1.2l2.6,3.7H160.2z M157.2,258.9c1,0,1.8-0.2,2.3-0.7
								c0.5-0.5,0.8-1.1,0.8-2c0-0.8-0.3-1.5-0.8-1.9s-1.3-0.7-2.3-0.7h-2.9v5.3H157.2z M167.2,255.3c1.2,0,2.2,0.4,2.8,1.2
								c0.7,0.8,1,1.8,0.9,3.2h-6.7c0.1,0.8,0.4,1.5,0.9,2.1c0.6,0.5,1.3,0.8,2.1,0.8c0.5,0,1-0.1,1.4-0.3c0.4-0.2,0.8-0.4,1.1-0.8
								l0.6,0.6c-0.4,0.4-0.9,0.7-1.4,1c-0.5,0.2-1.1,0.3-1.8,0.3c-0.8,0-1.5-0.2-2.1-0.5c-0.6-0.3-1.1-0.8-1.4-1.4
								c-0.3-0.6-0.5-1.3-0.5-2.1c0-0.8,0.2-1.5,0.5-2.1c0.3-0.6,0.8-1.1,1.4-1.4C165.7,255.4,166.4,255.3,167.2,255.3z M170,258.8
								c-0.1-0.8-0.3-1.5-0.8-2c-0.5-0.5-1.2-0.7-2-0.7c-0.8,0-1.5,0.2-2,0.7c-0.5,0.5-0.8,1.2-0.9,2H170z M177.2,255.3
								c1,0,1.7,0.3,2.2,0.8c0.5,0.5,0.8,1.3,0.8,2.3v4.9h-1v-4.6c0-0.7-0.2-1.3-0.6-1.8c-0.4-0.4-1-0.6-1.7-0.6
								c-0.8,0-1.5,0.3-2,0.8c-0.5,0.5-0.8,1.2-0.8,2v4.3h-1v-7.9h1v1.9c0.3-0.6,0.7-1.1,1.2-1.4
								C175.8,255.4,176.4,255.3,177.2,255.3z M187,262.7c-0.5,0.4-1.1,0.6-1.8,0.6c-0.6,0-1.1-0.2-1.4-0.6
								c-0.4-0.4-0.5-0.9-0.5-1.7v-4.7h-1.1l0-0.8h1.2v-2h1v2l2.6,0v0.8h-2.6v4.6c0,1,0.4,1.5,1.1,1.5c0.4,0,0.8-0.1,1.3-0.4
								L187,262.7z"/>
							<rect x="154.2" y="100.1" fill="#FFFFFF" fill-opacity="2.000000e-02" width="15.3" height="15.2"/>
							<path fill="#FFFFFF" d="M42,121.7c1.3,0,2.3,0.3,3.1,0.9c0.7,0.6,1.1,1.5,1.1,2.6c0,1.2-0.4,2.1-1.1,2.7
								c-0.7,0.6-1.7,1-3.1,1h-2.9v3.4h-1.1v-10.6H42z M42,128c1,0,1.8-0.2,2.3-0.7c0.6-0.5,0.8-1.1,0.8-2c0-0.8-0.3-1.5-0.8-1.9
								c-0.5-0.4-1.3-0.7-2.4-0.7h-2.8v5.3H42z M53.1,132.3l0-1.3c-0.3,0.5-0.7,0.8-1.2,1c-0.5,0.2-1.1,0.3-1.8,0.3
								c-0.5,0-1-0.1-1.4-0.3c-0.4-0.2-0.7-0.5-0.9-0.9c-0.2-0.4-0.3-0.8-0.3-1.2c0-0.7,0.3-1.2,0.8-1.6c0.5-0.4,1.3-0.6,2.2-0.6
								h2.7v-0.6c0-0.6-0.2-1.1-0.6-1.5c-0.4-0.3-0.9-0.5-1.6-0.5c-0.9,0-1.7,0.3-2.6,1l-0.5-0.7c0.5-0.4,1.1-0.6,1.5-0.8
								c0.5-0.2,1-0.3,1.7-0.3c1,0,1.7,0.2,2.2,0.7c0.5,0.5,0.8,1.1,0.8,2l0,5.3H53.1z M50.3,131.5c0.7,0,1.3-0.2,1.8-0.5
								c0.5-0.3,0.8-0.8,1-1.4v-1.1h-2.6c-0.7,0-1.2,0.1-1.6,0.3c-0.4,0.2-0.5,0.6-0.5,1c0,0.5,0.2,0.9,0.5,1.2
								C49.2,131.4,49.7,131.5,50.3,131.5z M58.9,133.5c-0.2,0.6-0.6,1.1-1,1.4c-0.4,0.3-0.9,0.5-1.4,0.5c-0.6,0-1.2-0.2-1.6-0.5
								l0.5-0.8c0.4,0.2,0.7,0.4,1.1,0.4c0.3,0,0.6-0.1,0.9-0.3c0.3-0.2,0.5-0.5,0.7-0.9l0.3-0.8l-3.3-7.9h1.1l2.7,6.8l2.6-6.8h1.1
								L58.9,133.5z M42.5,140.3c1.1,0,1.9,0.2,2.5,0.7c0.6,0.5,0.9,1.1,0.9,1.9c0,0.6-0.2,1.2-0.5,1.6c-0.3,0.4-0.8,0.7-1.5,0.8
								c0.8,0.1,1.4,0.4,1.8,0.9c0.4,0.5,0.7,1.1,0.7,1.8c0,0.9-0.3,1.6-1,2.1c-0.7,0.5-1.6,0.8-2.8,0.8h-4.5v-10.6H42.5z M42.5,145
								c0.8,0,1.3-0.2,1.8-0.5c0.4-0.3,0.6-0.8,0.6-1.4c0-0.6-0.2-1-0.6-1.4c-0.4-0.3-1-0.5-1.8-0.5h-3.4v3.7H42.5z M42.5,150
								c0.9,0,1.6-0.2,2.1-0.5c0.5-0.4,0.8-0.9,0.8-1.5c0-0.6-0.3-1.1-0.8-1.5c-0.5-0.4-1.2-0.5-2.1-0.5h-3.4v4.1H42.5z M48.9,143h1
								v8h-1V143z M49.4,140c0.2,0,0.4,0.1,0.5,0.2c0.1,0.1,0.2,0.3,0.2,0.5c0,0.2-0.1,0.4-0.2,0.5c-0.1,0.1-0.3,0.2-0.5,0.2
								c-0.2,0-0.4-0.1-0.5-0.2c-0.1-0.1-0.2-0.3-0.2-0.5c0-0.2,0.1-0.4,0.2-0.5C49,140.1,49.2,140,49.4,140z M52.9,139.7h1V151h-1
								V139.7z M57.1,139.7h1V151h-1V139.7z"/>
							<path fill="#FFFFFF" d="M168.9,106.7l-1.4-1.4V102c0-0.5-0.4-0.9-1-0.9h-1c-0.5,0-1,0.4-1,0.9v0.5l-1.9-1.9
								c-0.3-0.2-0.5-0.5-1-0.5s-0.7,0.3-1,0.5l-6.1,6.1c-0.3,0.3-0.5,0.5-0.5,0.9c0,0.5,0.4,0.9,1,0.9h1v5.7c0,0.5,0.4,0.9,1,0.9
								h2.9v-4.7c0-0.5,0.4-0.9,1-0.9h1.9c0.5,0,1,0.4,1,0.9v4.7h2.9c0.5,0,1-0.4,1-0.9v-5.7h1c0.5,0,1-0.4,1-0.9
								C169.4,107.2,169.2,107,168.9,106.7z"/>
							<path opacity="0.1" fill="#FFFFFF" enable-background="new    " d="M29.5,185.9c-2.3,0-4.2,1.9-4.2,4.1v81.4
								c0,2.3,1.9,4.1,4.2,4.1h81.8c2.3,0,4.2-1.9,4.2-4.1V190c0-2.3-1.9-4.1-4.2-4.1H29.5z M103.7,202c2.8,0,5.1-2.3,5.1-5.1
								c0-2.8-2.3-5.1-5.1-5.1c-2.8,0-5.1,2.3-5.1,5.1C98.6,199.7,100.9,202,103.7,202z"/>
							<path fill="#FFFFFF" d="M53.6,218.3l-2.4,0.9l-1-0.5l-0.4-1.1l0.5-1l2.4-0.8c0.3-0.1,0.4-0.4,0.1-0.6c0,0-0.3-0.3-0.8-0.5
								c-0.4-0.2-0.9-0.3-1.5-0.3c-2,0-3.7,1.6-3.7,3.6c0,0.6,0.2,1,0.2,1c0.1,0.4-0.2,0.7-0.5,1l-5.9,5.3c-0.7,0.7-0.7,1.8,0,2.5
								c0.7,0.7,1.8,0.7,2.5,0l5.3-5.8c0.3-0.3,0.6-0.6,1-0.5c0,0,0.4,0.2,1,0.2c1,0,1.9-0.4,2.6-1.1c0.3-0.3,0.6-0.7,0.7-1.1
								c0.2-0.4,0.2-0.7,0.2-0.7C54.1,218.3,53.9,218.2,53.6,218.3z M42.3,226.9c-0.3,0.2-0.7,0.2-0.9,0c-0.3-0.2-0.3-0.7,0-0.9
								c0.3-0.2,0.7-0.2,0.9,0C42.6,226.3,42.6,226.7,42.3,226.9z"/>
							<path fill="#FFFFFF" d="M155.6,226.5h-1.4v-8.3h1.4v0.9v6.7V226.5z M165.8,220l-1.8,1.7h-0.9c0.1-0.2,0.1-0.4,0.1-0.7
								c0-1.1-0.9-2.1-2.1-2.1h-3.4l-0.8-0.3v-1.1c0-0.4-0.3-0.7-0.7-0.7h-2.8c-0.4,0-0.7,0.3-0.7,0.7v9.7c0,0.4,0.3,0.7,0.7,0.7
								h2.8c0.4,0,0.7-0.3,0.7-0.7v-0.7h4.1c2,0,3.9-0.6,5.5-1.6c0,0,0.1-0.1,0.1-0.1l2-2c0.8-0.8,0.8-2.1,0-2.9
								C167.9,219.2,166.5,219.2,165.8,220z"/>
							<path fill="#FFFFFF" d="M161.1,217.6c1.1,0,2.1-0.9,2.1-2.1c0-1.1-0.9-2.1-2.1-2.1s-2.1,0.9-2.1,2.1
								C159,216.6,160,217.6,161.1,217.6z"/>
							<path fill="#FFFFFF" d="M160.5,124.2c-0.4-0.3-0.9-0.5-1.4-0.6c-0.5-0.2-1-0.2-1.5-0.2c-0.7,0-1.3,0.1-1.8,0.4
								c-0.4,0.3-0.7,0.7-0.7,1.2c0,0.4,0.1,0.8,0.4,1.1c0.2,0.3,0.5,0.5,0.9,0.7c0.4,0.2,0.8,0.3,1.5,0.5c0.7,0.2,1.3,0.4,1.7,0.6
								c0.4,0.2,0.8,0.5,1.1,0.9c0.3,0.4,0.5,0.9,0.5,1.6c0,0.6-0.2,1.1-0.5,1.5c-0.3,0.4-0.8,0.8-1.3,1c-0.6,0.2-1.2,0.3-2,0.3
								c-0.7,0-1.5-0.1-2.2-0.4c-0.7-0.3-1.3-0.7-1.8-1.2l0.5-0.9c0.5,0.5,1,0.8,1.7,1.1c0.6,0.3,1.3,0.4,1.9,0.4
								c0.8,0,1.5-0.2,1.9-0.5c0.5-0.3,0.7-0.8,0.7-1.3c0-0.4-0.1-0.8-0.4-1.1c-0.2-0.3-0.5-0.5-0.9-0.7c-0.4-0.2-0.9-0.3-1.5-0.5
								c-0.7-0.2-1.3-0.4-1.7-0.6c-0.4-0.2-0.8-0.5-1.1-0.9c-0.3-0.4-0.5-0.9-0.5-1.5c0-0.5,0.2-1,0.5-1.4c0.3-0.4,0.7-0.7,1.3-0.9
								c0.5-0.2,1.2-0.3,1.9-0.3c0.6,0,1.2,0.1,1.7,0.3c0.6,0.2,1.1,0.4,1.6,0.7L160.5,124.2z M167.7,132.5
								c-0.5,0.4-1.1,0.6-1.8,0.6c-0.6,0-1.1-0.2-1.4-0.6c-0.4-0.4-0.5-0.9-0.5-1.7v-4.7h-1.1l0-0.8h1.2v-2h1v2l2.6,0v0.8H165v4.6
								c0,1,0.4,1.5,1.1,1.5c0.4,0,0.8-0.1,1.3-0.4L167.7,132.5z M174.6,133l0-1.3c-0.3,0.5-0.7,0.8-1.2,1c-0.5,0.2-1.1,0.3-1.8,0.3
								c-0.5,0-1-0.1-1.4-0.3c-0.4-0.2-0.7-0.5-0.9-0.9c-0.2-0.4-0.3-0.8-0.3-1.2c0-0.7,0.3-1.2,0.8-1.6c0.5-0.4,1.3-0.6,2.2-0.6
								h2.7v-0.6c0-0.6-0.2-1.1-0.6-1.5c-0.4-0.3-0.9-0.5-1.6-0.5c-0.9,0-1.7,0.3-2.6,1l-0.5-0.7c0.5-0.4,1.1-0.6,1.5-0.8
								c0.5-0.2,1-0.3,1.7-0.3c1,0,1.7,0.2,2.2,0.7c0.5,0.5,0.8,1.1,0.8,2l0,5.3H174.6z M171.7,132.2c0.7,0,1.3-0.2,1.8-0.5
								c0.5-0.3,0.8-0.8,1-1.4v-1.1H172c-0.7,0-1.2,0.1-1.6,0.3c-0.4,0.2-0.5,0.6-0.5,1c0,0.5,0.2,0.9,0.5,1.2
								C170.7,132.1,171.2,132.2,171.7,132.2z M179.3,126.9c0.3-0.6,0.6-1.1,1.1-1.4c0.5-0.3,1.1-0.5,1.8-0.5v1
								c-0.8,0-1.5,0.2-2,0.7c-0.5,0.5-0.8,1.2-0.9,2v4.2h-1v-8h1V126.9z M187.9,132.5c-0.5,0.4-1.1,0.6-1.8,0.6
								c-0.6,0-1.1-0.2-1.4-0.6c-0.4-0.4-0.5-0.9-0.5-1.7v-4.7H183l0-0.8h1.2v-2h1v2l2.6,0v0.8h-2.6v4.6c0,1,0.4,1.5,1.1,1.5
								c0.4,0,0.8-0.1,1.3-0.4L187.9,132.5z M155.4,145.5c0.3-0.6,0.6-1.1,1.1-1.4c0.5-0.3,1.1-0.5,1.8-0.5v1c-0.8,0-1.5,0.2-2,0.7
								c-0.5,0.5-0.8,1.2-0.9,2v4.2h-1v-8h1V145.5z M163.1,143.7c1.2,0,2.2,0.4,2.8,1.2c0.7,0.8,1,1.8,0.9,3.2h-6.7
								c0.1,0.8,0.4,1.5,0.9,2.1c0.6,0.5,1.3,0.8,2.1,0.8c0.5,0,1-0.1,1.4-0.3c0.4-0.2,0.8-0.4,1.1-0.8l0.6,0.6
								c-0.4,0.4-0.9,0.7-1.4,1c-0.5,0.2-1.1,0.3-1.8,0.3c-0.8,0-1.5-0.2-2.1-0.5c-0.6-0.3-1.1-0.8-1.4-1.4
								c-0.3-0.6-0.5-1.3-0.5-2.1c0-0.8,0.2-1.5,0.5-2.1c0.3-0.6,0.8-1.1,1.4-1.4C161.7,143.8,162.3,143.7,163.1,143.7z
								 M165.9,147.2c-0.1-0.8-0.3-1.5-0.8-2c-0.5-0.5-1.2-0.7-2-0.7c-0.8,0-1.5,0.2-2,0.7c-0.5,0.5-0.8,1.2-0.9,2H165.9z
								 M173.1,143.7c1,0,1.7,0.3,2.2,0.8c0.5,0.5,0.8,1.3,0.8,2.3v4.9h-1V147c0-0.7-0.2-1.3-0.6-1.8c-0.4-0.4-1-0.6-1.7-0.6
								c-0.8,0-1.5,0.3-2,0.8c-0.5,0.5-0.8,1.2-0.8,2v4.3h-1v-8h1v1.9c0.3-0.6,0.7-1.1,1.2-1.4C171.7,143.8,172.4,143.7,173.1,143.7
								z M183,151.1c-0.5,0.4-1.1,0.6-1.8,0.6c-0.6,0-1.1-0.2-1.4-0.6c-0.4-0.4-0.5-0.9-0.5-1.7v-4.7h-1.1l0-0.8h1.2v-2h1v2l2.6,0
								v0.8h-2.6v4.6c0,1,0.4,1.5,1.1,1.5c0.4,0,0.8-0.1,1.3-0.4L183,151.1z M189.8,151.6l0-1.3c-0.3,0.5-0.7,0.8-1.2,1
								c-0.5,0.2-1.1,0.3-1.8,0.3c-0.5,0-1-0.1-1.4-0.3c-0.4-0.2-0.7-0.5-0.9-0.9c-0.2-0.4-0.3-0.8-0.3-1.2c0-0.7,0.3-1.2,0.8-1.6
								c0.5-0.4,1.3-0.6,2.2-0.6h2.7v-0.6c0-0.6-0.2-1.1-0.6-1.5c-0.4-0.3-0.9-0.5-1.6-0.5c-0.9,0-1.7,0.3-2.6,1l-0.5-0.7
								c0.5-0.4,1.1-0.6,1.5-0.8c0.5-0.2,1-0.3,1.7-0.3c1,0,1.7,0.2,2.2,0.7c0.5,0.5,0.8,1.1,0.8,2l0,5.3H189.8z M187,150.8
								c0.7,0,1.3-0.2,1.8-0.5c0.5-0.3,0.8-0.8,1-1.4v-1.1h-2.6c-0.7,0-1.2,0.1-1.6,0.3c-0.4,0.2-0.5,0.6-0.5,1
								c0,0.5,0.2,0.9,0.5,1.2C186,150.7,186.4,150.8,187,150.8z M193.7,140.4h1v11.3h-1V140.4z"/>
							<path fill="#FFFFFF" d="M167.3,215.5c1.1,0,2.1-0.9,2.1-2.1c0-1.1-0.9-2.1-2.1-2.1c-1.1,0-2.1,0.9-2.1,2.1
								C165.3,214.6,166.2,215.5,167.3,215.5z"/>
						</g>
						<path fill="#FFFFFF" d="M24.9,444.2c0,1-0.4,1.6-1.3,1.8l1.5,2.1h-1.2l-1.4-1.9h-1.3v1.9h-1v-5.8h2.2c0.9,0,1.5,0.1,1.9,0.4
							C24.7,443.1,24.9,443.6,24.9,444.2z M22.4,445.3c0.6,0,0.9-0.1,1.1-0.3c0.2-0.2,0.3-0.4,0.3-0.8c0-0.4-0.1-0.6-0.3-0.8
							c-0.2-0.1-0.6-0.2-1.1-0.2h-1.2v2.1H22.4z M30.3,446.4h-3.5c0,0.3,0.2,0.6,0.4,0.8c0.3,0.2,0.6,0.3,0.9,0.3
							c0.6,0,1-0.2,1.3-0.5l0.5,0.6c-0.5,0.5-1.1,0.7-1.9,0.7c-0.6,0-1.2-0.2-1.6-0.6c-0.4-0.4-0.6-1-0.6-1.7c0-0.7,0.2-1.2,0.7-1.7
							c0.4-0.4,1-0.6,1.6-0.6c0.6,0,1.1,0.2,1.5,0.5c0.4,0.4,0.6,0.9,0.6,1.5V446.4z M26.8,445.6h2.5c0-0.4-0.1-0.7-0.3-0.9
							c-0.2-0.2-0.5-0.3-0.9-0.3c-0.3,0-0.6,0.1-0.9,0.3C26.9,445,26.8,445.3,26.8,445.6z M33.7,443.7c0.6,0,1.1,0.2,1.5,0.6
							c0.4,0.4,0.6,1,0.6,1.6c0,0.7-0.2,1.2-0.6,1.7c-0.4,0.4-0.9,0.6-1.5,0.6c-0.6,0-1.1-0.2-1.5-0.7v2.3h-0.9v-6h0.9v0.8
							C32.6,444,33.1,443.7,33.7,443.7z M32.2,446c0,0.4,0.1,0.8,0.4,1c0.3,0.3,0.6,0.4,0.9,0.4s0.7-0.1,1-0.4
							c0.3-0.3,0.4-0.6,0.4-1c0-0.4-0.1-0.8-0.4-1.1c-0.3-0.3-0.6-0.4-1-0.4c-0.4,0-0.7,0.1-0.9,0.4C32.3,445.2,32.2,445.5,32.2,446
							z M37.9,447c0.3,0.3,0.6,0.4,1,0.4s0.7-0.1,1-0.4c0.3-0.3,0.4-0.6,0.4-1s-0.1-0.8-0.4-1c-0.3-0.3-0.6-0.4-1-0.4
							s-0.7,0.1-1,0.4c-0.3,0.3-0.4,0.6-0.4,1S37.6,446.7,37.9,447z M40.6,447.6c-0.4,0.4-1,0.7-1.7,0.7s-1.2-0.2-1.7-0.7
							c-0.4-0.4-0.7-1-0.7-1.6c0-0.6,0.2-1.2,0.7-1.6c0.4-0.4,1-0.7,1.7-0.7s1.2,0.2,1.7,0.7c0.4,0.4,0.7,1,0.7,1.6
							C41.2,446.6,41,447.1,40.6,447.6z M44.6,444.6c-0.5,0-0.8,0.1-1,0.4c-0.2,0.3-0.3,0.7-0.3,1.2v1.9h-0.9v-4.4h0.9v0.9
							c0.1-0.3,0.4-0.5,0.6-0.7c0.3-0.2,0.5-0.3,0.8-0.3L44.6,444.6C44.7,444.6,44.6,444.6,44.6,444.6z M46.8,444.5v2.2
							c0,0.2,0.1,0.4,0.2,0.5c0.1,0.1,0.3,0.2,0.5,0.2c0.2,0,0.4-0.1,0.6-0.3l0.4,0.7c-0.3,0.3-0.7,0.4-1.1,0.4
							c-0.4,0-0.7-0.1-1-0.4c-0.3-0.3-0.4-0.6-0.4-1.1v-2.2h-0.6v-0.7h0.6v-1.4h0.9v1.4h1.2v0.7H46.8z M52.2,446.8
							c0,0.4-0.2,0.8-0.5,1c-0.3,0.2-0.7,0.4-1.2,0.4c-0.3,0-0.7-0.1-1-0.2c-0.3-0.1-0.6-0.3-0.9-0.5l0.4-0.7c0.5,0.4,1,0.6,1.5,0.6
							c0.2,0,0.4,0,0.5-0.1c0.1-0.1,0.2-0.2,0.2-0.4c0-0.2-0.3-0.4-0.9-0.6c0,0-0.1,0-0.1,0c-0.9-0.2-1.4-0.7-1.4-1.2
							c0-0.4,0.2-0.7,0.5-1c0.3-0.2,0.7-0.4,1.2-0.4s1,0.1,1.4,0.4l-0.3,0.7c-0.4-0.2-0.8-0.4-1.2-0.4c-0.2,0-0.4,0-0.5,0.1
							c-0.1,0.1-0.2,0.2-0.2,0.4c0,0.1,0.1,0.2,0.2,0.3c0.1,0,0.2,0.1,0.4,0.1c0.2,0,0.3,0.1,0.5,0.1c0.1,0,0.3,0.1,0.4,0.1
							c0.1,0.1,0.3,0.1,0.4,0.2C52.1,446.1,52.2,446.4,52.2,446.8z"/>
						<path fill="#FFFFFF" d="M197.4,443.3v4.9h-1v-4.9h-1.8v-0.9h4.5v0.9H197.4z M203.1,448.2h-0.8v-0.6c-0.4,0.4-0.9,0.7-1.5,0.7
							c-0.5,0-0.8-0.1-1.1-0.4c-0.3-0.3-0.4-0.6-0.4-1c0-0.4,0.2-0.8,0.5-1c0.3-0.2,0.8-0.3,1.3-0.3h1.2v-0.2c0-0.6-0.3-0.9-1-0.9
							c-0.4,0-0.8,0.1-1.3,0.4l-0.4-0.6c0.5-0.4,1.1-0.6,1.8-0.6c0.5,0,0.9,0.1,1.3,0.4c0.3,0.3,0.5,0.7,0.5,1.2V448.2z
							 M202.1,446.5v-0.4h-1c-0.7,0-1,0.2-1,0.6c0,0.2,0.1,0.4,0.2,0.5c0.2,0.1,0.4,0.2,0.7,0.2c0.3,0,0.6-0.1,0.8-0.2
							C202,447,202.1,446.8,202.1,446.5z M205.1,443.7l0.9,1.4l1-1.4h1.1l-1.5,2.2l1.6,2.3H207l-1.1-1.5l-1,1.5h-1.1l1.6-2.2
							l-1.5-2.2H205.1z M216.1,444.2c0,1-0.4,1.6-1.3,1.8l1.5,2.1h-1.2l-1.4-1.9h-1.3v1.9h-1v-5.8h2.2c0.9,0,1.5,0.1,1.9,0.4
							S216.1,443.6,216.1,444.2z M213.6,445.3c0.6,0,0.9-0.1,1.1-0.3s0.3-0.4,0.3-0.8c0-0.4-0.1-0.6-0.3-0.8
							c-0.2-0.1-0.6-0.2-1.1-0.2h-1.2v2.1H213.6z M221.5,446.4H218c0,0.3,0.2,0.6,0.4,0.8c0.3,0.2,0.6,0.3,0.9,0.3
							c0.6,0,1-0.2,1.3-0.5l0.5,0.6c-0.5,0.5-1.1,0.7-1.9,0.7c-0.6,0-1.2-0.2-1.6-0.6c-0.4-0.4-0.6-1-0.6-1.7c0-0.7,0.2-1.2,0.7-1.7
							c0.4-0.4,1-0.6,1.6-0.6c0.6,0,1.1,0.2,1.5,0.5c0.4,0.4,0.6,0.9,0.6,1.5V446.4z M218,445.6h2.5c0-0.4-0.1-0.7-0.3-0.9
							c-0.2-0.2-0.5-0.3-0.9-0.3c-0.3,0-0.6,0.1-0.9,0.3C218.1,445,218,445.3,218,445.6z M223.6,444.5v2.2c0,0.2,0.1,0.4,0.2,0.5
							c0.1,0.1,0.3,0.2,0.5,0.2c0.2,0,0.4-0.1,0.6-0.3l0.4,0.7c-0.3,0.3-0.7,0.4-1.1,0.4c-0.4,0-0.7-0.1-1-0.4
							c-0.3-0.3-0.4-0.6-0.4-1.1v-2.2h-0.6v-0.7h0.6v-1.4h0.9v1.4h1.2v0.7H223.6z M229,446.1v-2.4h0.9v4.4H229v-0.8
							c-0.1,0.3-0.4,0.5-0.6,0.6c-0.3,0.2-0.5,0.2-0.8,0.2c-0.5,0-0.9-0.2-1.2-0.5c-0.3-0.3-0.5-0.7-0.5-1.3v-2.7h0.9v2.4
							c0,0.8,0.3,1.2,1,1.2c0.3,0,0.6-0.1,0.8-0.3C228.9,446.9,229,446.5,229,446.1z M233.6,444.6c-0.5,0-0.8,0.1-1,0.4
							c-0.2,0.3-0.3,0.7-0.3,1.2v1.9h-0.9v-4.4h0.9v0.9c0.1-0.3,0.4-0.5,0.6-0.7c0.3-0.2,0.5-0.3,0.8-0.3L233.6,444.6
							C233.7,444.6,233.6,444.6,233.6,444.6z M235.5,445.8v2.4h-0.9v-4.4h0.9v0.8c0.1-0.3,0.4-0.5,0.6-0.6c0.3-0.2,0.6-0.2,0.9-0.2
							c0.5,0,0.9,0.2,1.2,0.5c0.3,0.3,0.5,0.7,0.5,1.3v2.7h-0.9v-2.4c0-0.8-0.3-1.2-1-1.2c-0.3,0-0.6,0.1-0.8,0.3
							C235.7,445.1,235.5,445.4,235.5,445.8z"/>
						<g opacity="0.8">
							<path fill="#FFFFFF" d="M134.5,421.2c-1.3,0-2.2-1-2.2-2.2v-3.1c0-0.5-0.4-0.9-0.9-0.9h-7.2c-2,0-3.6,1.6-3.6,3.6V431
								c0,2,1.6,3.6,3.6,3.6H135c2,0,3.6-1.6,3.6-3.6v-8.9c0-0.5-0.4-0.9-0.9-0.9H134.5z M131.4,429.2H126c-0.5,0-0.9-0.4-0.9-0.9
								c0-0.5,0.4-0.9,0.9-0.9h5.4c0.5,0,0.9,0.4,0.9,0.9C132.3,428.9,131.9,429.2,131.4,429.2z M133.2,425.6H126
								c-0.5,0-0.9-0.4-0.9-0.9c0-0.5,0.4-0.9,0.9-0.9h7.2c0.5,0,0.9,0.4,0.9,0.9C134.1,425.3,133.7,425.6,133.2,425.6z"/>
						</g>
						<path fill="#FFFFFF" d="M110.4,443.3v4.9h-1v-4.9h-1.8v-0.9h4.5v0.9H110.4z M117.2,446.4h-3.5c0,0.3,0.2,0.6,0.4,0.8
							c0.3,0.2,0.6,0.3,0.9,0.3c0.6,0,1-0.2,1.3-0.5l0.5,0.6c-0.5,0.5-1.1,0.7-1.9,0.7c-0.6,0-1.2-0.2-1.6-0.6
							c-0.4-0.4-0.6-1-0.6-1.7c0-0.7,0.2-1.2,0.7-1.7c0.4-0.4,1-0.6,1.6-0.6c0.6,0,1.1,0.2,1.5,0.5c0.4,0.4,0.6,0.9,0.6,1.5V446.4z
							 M113.7,445.6h2.5c0-0.4-0.1-0.7-0.3-0.9c-0.2-0.2-0.5-0.3-0.9-0.3c-0.3,0-0.6,0.1-0.9,0.3C113.9,445,113.7,445.3,113.7,445.6
							z M119.2,445.8v2.4h-0.9v-4.4h0.9v0.8c0.1-0.3,0.3-0.5,0.6-0.6c0.3-0.2,0.6-0.2,0.9-0.2c0.7,0,1.2,0.3,1.4,0.9
							c0.4-0.6,1-0.9,1.6-0.9c0.5,0,0.9,0.2,1.2,0.5c0.3,0.3,0.5,0.7,0.5,1.3v2.7h-0.9v-2.4c0-0.8-0.3-1.2-1-1.2
							c-0.3,0-0.6,0.1-0.8,0.3c-0.2,0.2-0.4,0.5-0.4,0.9v2.4h-0.9v-2.4c0-0.4-0.1-0.7-0.2-0.9c-0.1-0.2-0.4-0.3-0.7-0.3
							c-0.3,0-0.6,0.1-0.8,0.3C119.3,445.1,119.2,445.4,119.2,445.8z M129,443.7c0.6,0,1.1,0.2,1.5,0.6c0.4,0.4,0.6,1,0.6,1.6
							c0,0.7-0.2,1.2-0.6,1.7c-0.4,0.4-0.9,0.6-1.5,0.6c-0.6,0-1.1-0.2-1.5-0.7v2.3h-0.9v-6h0.9v0.8C128,444,128.4,443.7,129,443.7z
							 M127.6,446c0,0.4,0.1,0.8,0.4,1c0.3,0.3,0.6,0.4,0.9,0.4s0.7-0.1,1-0.4c0.3-0.3,0.4-0.6,0.4-1c0-0.4-0.1-0.8-0.4-1.1
							c-0.3-0.3-0.6-0.4-1-0.4s-0.7,0.1-0.9,0.4C127.7,445.2,127.6,445.5,127.6,446z M133.2,448.2h-0.9V442h0.9V448.2z M138.1,448.2
							h-0.8v-0.6c-0.4,0.4-0.9,0.7-1.5,0.7c-0.5,0-0.8-0.1-1.1-0.4c-0.3-0.3-0.4-0.6-0.4-1c0-0.4,0.2-0.8,0.5-1
							c0.3-0.2,0.8-0.3,1.3-0.3h1.2v-0.2c0-0.6-0.3-0.9-1-0.9c-0.4,0-0.8,0.1-1.3,0.4l-0.4-0.6c0.5-0.4,1.1-0.6,1.8-0.6
							c0.5,0,0.9,0.1,1.3,0.4c0.3,0.3,0.5,0.7,0.5,1.2V448.2z M137.2,446.5v-0.4h-1c-0.7,0-1,0.2-1,0.6c0,0.2,0.1,0.4,0.2,0.5
							c0.2,0.1,0.4,0.2,0.7,0.2c0.3,0,0.6-0.1,0.8-0.2C137.1,447,137.2,446.8,137.2,446.5z M140.5,444.5v2.2c0,0.2,0.1,0.4,0.2,0.5
							c0.1,0.1,0.3,0.2,0.5,0.2s0.4-0.1,0.6-0.3l0.4,0.7c-0.3,0.3-0.7,0.4-1.1,0.4c-0.4,0-0.7-0.1-1-0.4c-0.3-0.3-0.4-0.6-0.4-1.1
							v-2.2H139v-0.7h0.6v-1.4h0.9v1.4h1.2v0.7H140.5z M147,446.4h-3.5c0,0.3,0.2,0.6,0.4,0.8c0.3,0.2,0.6,0.3,0.9,0.3
							c0.6,0,1-0.2,1.3-0.5l0.5,0.6c-0.5,0.5-1.1,0.7-1.9,0.7c-0.6,0-1.2-0.2-1.6-0.6c-0.4-0.4-0.6-1-0.6-1.7c0-0.7,0.2-1.2,0.7-1.7
							c0.4-0.4,1-0.6,1.6-0.6c0.6,0,1.1,0.2,1.5,0.5c0.4,0.4,0.6,0.9,0.6,1.5V446.4z M143.5,445.6h2.5c0-0.4-0.1-0.7-0.3-0.9
							c-0.2-0.2-0.5-0.3-0.9-0.3c-0.3,0-0.6,0.1-0.9,0.3C143.6,445,143.5,445.3,143.5,445.6z M151.1,446.8c0,0.4-0.2,0.8-0.5,1
							c-0.3,0.2-0.7,0.4-1.2,0.4c-0.3,0-0.7-0.1-1-0.2c-0.3-0.1-0.6-0.3-0.9-0.5l0.4-0.7c0.5,0.4,1,0.6,1.5,0.6c0.2,0,0.4,0,0.5-0.1
							c0.1-0.1,0.2-0.2,0.2-0.4c0-0.2-0.3-0.4-0.9-0.6c0,0-0.1,0-0.1,0c-0.9-0.2-1.4-0.7-1.4-1.2c0-0.4,0.2-0.7,0.5-1
							c0.3-0.2,0.7-0.4,1.2-0.4c0.5,0,1,0.1,1.4,0.4l-0.3,0.7c-0.4-0.2-0.8-0.4-1.2-0.4c-0.2,0-0.4,0-0.5,0.1
							c-0.1,0.1-0.2,0.2-0.2,0.4c0,0.1,0.1,0.2,0.2,0.3c0.1,0,0.2,0.1,0.4,0.1c0.2,0,0.3,0.1,0.5,0.1c0.1,0,0.3,0.1,0.4,0.1
							c0.1,0.1,0.3,0.1,0.4,0.2C151,446.1,151.1,446.4,151.1,446.8z"/>
						<g opacity="0.8">
							<path fill="#FFFFFF" d="M13.6,28.3h13.1c0.6,0,1.1,0.5,1.1,1.1v0c0,0.6-0.5,1.1-1.1,1.1H13.6c-0.6,0-1.1-0.5-1.1-1.1v0
								C12.5,28.8,13,28.3,13.6,28.3z"/>
							<path fill="#FFFFFF" d="M13.6,33.7h13.1c0.6,0,1.1,0.5,1.1,1.1v0c0,0.6-0.5,1.1-1.1,1.1H13.6c-0.6,0-1.1-0.5-1.1-1.1v0
								C12.5,34.2,13,33.7,13.6,33.7z"/>
							<path fill="#FFFFFF" d="M13.6,39.2h13.1c0.6,0,1.1,0.5,1.1,1.1v0c0,0.6-0.5,1.1-1.1,1.1H13.6c-0.6,0-1.1-0.5-1.1-1.1v0
								C12.5,39.7,13,39.2,13.6,39.2z"/>
						</g>
						<path fill="#FFFFFF" d="M114.7,41.4h-1.6l-3.5-8.7h1.6l2.7,6.5l2.7-6.5h1.6L114.7,41.4z M125.5,38.7h-5.2
							c0,0.5,0.3,0.9,0.7,1.2c0.4,0.3,0.9,0.4,1.4,0.4c0.8,0,1.5-0.3,1.9-0.8l0.8,0.9c-0.7,0.7-1.6,1.1-2.8,1.1
							c-0.9,0-1.7-0.3-2.4-0.9c-0.6-0.6-1-1.4-1-2.5c0-1,0.3-1.9,1-2.5c0.7-0.6,1.4-0.9,2.3-0.9c0.9,0,1.7,0.3,2.3,0.8
							c0.6,0.5,0.9,1.3,0.9,2.2V38.7z M120.3,37.6h3.8c0-0.6-0.2-1-0.5-1.3c-0.3-0.3-0.8-0.4-1.3-0.4c-0.5,0-1,0.2-1.4,0.5
							C120.5,36.6,120.3,37.1,120.3,37.6z M131.7,39.4c0,0.6-0.2,1.1-0.7,1.5c-0.5,0.4-1,0.6-1.8,0.6c-0.5,0-1-0.1-1.5-0.3
							c-0.5-0.2-1-0.4-1.4-0.7l0.7-1.1c0.8,0.6,1.5,0.9,2.2,0.9c0.3,0,0.6-0.1,0.7-0.2c0.2-0.1,0.3-0.3,0.3-0.6
							c0-0.3-0.4-0.6-1.3-0.9c-0.1,0-0.1,0-0.1,0c-1.4-0.4-2.1-1-2.1-1.9c0-0.6,0.2-1.1,0.7-1.5c0.5-0.4,1.1-0.6,1.9-0.6
							s1.5,0.2,2.2,0.7l-0.5,1c-0.5-0.4-1.1-0.5-1.8-0.5c-0.3,0-0.6,0.1-0.8,0.2c-0.2,0.1-0.3,0.3-0.3,0.5c0,0.2,0.1,0.4,0.3,0.5
							c0.1,0.1,0.4,0.1,0.6,0.2c0.3,0.1,0.5,0.1,0.7,0.2s0.4,0.1,0.6,0.2c0.2,0.1,0.4,0.2,0.6,0.3C131.5,38.3,131.7,38.8,131.7,39.4
							z M135,35.9v3.4c0,0.3,0.1,0.6,0.2,0.8c0.2,0.2,0.4,0.3,0.7,0.3c0.3,0,0.6-0.1,0.9-0.4l0.6,1c-0.5,0.4-1,0.7-1.6,0.7
							c-0.6,0-1.1-0.2-1.5-0.6c-0.4-0.4-0.6-1-0.6-1.7v-3.3h-0.8v-1.1h0.8v-2.1h1.4v2.1h1.7v1.1H135z M143.9,41.4h-1.3v-0.9
							c-0.5,0.7-1.3,1-2.2,1c-0.7,0-1.3-0.2-1.7-0.6c-0.4-0.4-0.7-0.9-0.7-1.6c0-0.7,0.2-1.1,0.7-1.5c0.5-0.3,1.1-0.5,2-0.5h1.8
							v-0.2c0-0.9-0.5-1.3-1.5-1.3c-0.6,0-1.3,0.2-1.9,0.7l-0.6-0.9c0.8-0.6,1.7-1,2.7-1c0.8,0,1.4,0.2,1.9,0.6
							c0.5,0.4,0.7,1,0.7,1.8V41.4z M142.5,38.9v-0.6h-1.6c-1,0-1.5,0.3-1.5,0.9c0,0.3,0.1,0.6,0.4,0.7c0.2,0.2,0.6,0.2,1,0.2
							c0.4,0,0.8-0.1,1.2-0.4C142.4,39.7,142.5,39.3,142.5,38.9z"/>
						<g opacity="0.8">
							<path fill="#FFFFFF" d="M13.6,28.3h13.1c0.6,0,1.1,0.5,1.1,1.1v0c0,0.6-0.5,1.1-1.1,1.1H13.6c-0.6,0-1.1-0.5-1.1-1.1v0
								C12.5,28.8,13,28.3,13.6,28.3z"/>
							<path fill="#FFFFFF" d="M13.6,33.7h13.1c0.6,0,1.1,0.5,1.1,1.1v0c0,0.6-0.5,1.1-1.1,1.1H13.6c-0.6,0-1.1-0.5-1.1-1.1v0
								C12.5,34.2,13,33.7,13.6,33.7z"/>
							<path fill="#FFFFFF" d="M13.6,39.2h13.1c0.6,0,1.1,0.5,1.1,1.1v0c0,0.6-0.5,1.1-1.1,1.1H13.6c-0.6,0-1.1-0.5-1.1-1.1v0
								C12.5,39.7,13,39.2,13.6,39.2z"/>
						</g>
						<path fill="#F2F2F2" d="M251.4,34.2l-5.2-6.2c-0.1-0.1-0.1-0.1-0.2-0.1h-10.4c-0.1,0-0.2,0-0.2,0.1l-5.2,6.2
							c0,0.1-0.1,0.1-0.1,0.2v7c0,0.2,0.1,0.3,0.3,0.3h20.9c0.2,0,0.3-0.1,0.3-0.3v-7C251.4,34.3,251.4,34.2,251.4,34.2z
							 M235.6,28.5h10.2l4.7,5.6h-4.6c-0.2,0-0.3,0.1-0.3,0.3c0,0.8-0.6,1.4-1.4,1.4h-7c-0.8,0-1.4-0.6-1.4-1.4
							c0-0.2-0.1-0.3-0.3-0.3h-4.6L235.6,28.5z M230.6,41.1v-6.4h4.6c0.1,1,1,1.7,2,1.7h7c1,0,1.9-0.8,2-1.7h4.6v6.4H230.6z"/>
						
							<linearGradient id="SVGID_6_" gradientUnits="userSpaceOnUse" x1="240.6976" y1="425.1477" x2="240.6976" y2="412.7344" gradientTransform="matrix(1 0 0 -1 0 462)">
							<stop  offset="0" style="stop-color:#FFDF3A"/>
							<stop  offset="1" style="stop-color:#FFD84E"/>
						</linearGradient>
						<ellipse fill="url(#SVGID_6_)" cx="240.7" cy="43.1" rx="6.2" ry="6.2"/>
						<path fill="#FFFFFF" d="M240.2,43.6c0.4-0.4,0.7-0.7,0.8-0.9c0.2-0.2,0.2-0.5,0.2-0.7s-0.1-0.4-0.3-0.6
							c-0.2-0.2-0.4-0.2-0.7-0.2c-0.5,0-0.9,0.2-1.2,0.7l-0.8-0.5c0.3-0.4,0.5-0.7,0.8-0.9c0.3-0.2,0.7-0.3,1.2-0.3
							c0.5,0,0.9,0.2,1.3,0.5c0.4,0.3,0.5,0.7,0.5,1.2c0,0.3-0.1,0.6-0.2,0.9s-0.4,0.6-0.9,1l-1.4,1.4h2.6v0.9h-4v-0.8L240.2,43.6z"
							/>
						
							<linearGradient id="SVGID_7_" gradientUnits="userSpaceOnUse" x1="103.7109" y1="267.2978" x2="103.7109" y2="262.9715" gradientTransform="matrix(1 0 0 -1 0 462)">
							<stop  offset="0" style="stop-color:#49FF95"/>
							<stop  offset="1" style="stop-color:#00CF6C"/>
						</linearGradient>
						<ellipse fill="url(#SVGID_7_)" cx="103.7" cy="196.9" rx="2.2" ry="2.2"/>
						
							<linearGradient id="SVGID_8_" gradientUnits="userSpaceOnUse" x1="219.4338" y1="266.1247" x2="219.4338" y2="261.7984" gradientTransform="matrix(1 0 0 -1 0 462)">
							<stop  offset="0" style="stop-color:#49FF95"/>
							<stop  offset="1" style="stop-color:#00CF6C"/>
						</linearGradient>
						<ellipse fill="url(#SVGID_8_)" cx="219.4" cy="198" rx="2.2" ry="2.2"/>
						<ellipse fill="#2572BC" cx="103.7" cy="84.6" rx="2.2" ry="2.2"/>
						<ellipse fill="#2572BC" cx="219.4" cy="84.6" rx="2.2" ry="2.2"/>
					</g>
				</g>
			</g>
		</g>
	</g>
</g>
</svg>
