<svg xmlns="http://www.w3.org/2000/svg" viewBox="0 0 260 460" enable-background="new 0 0 260 460">
    <linearGradient id="a" gradientUnits="userSpaceOnUse" x1="127.144" y1="320.45" x2="132.982" y2="399.343" gradientTransform="translate(0 -330)">
        <stop offset="0" stop-color="#004da8"/>
        <stop offset="1" stop-color="#2e98d3"/>
    </linearGradient>
    <path fill="url(#a)" d="M.1-.2h260v61.1H.1z"/>
    <path fill-opacity=".01" d="M.1-.2v13.8h260V-.2H.1z"/>
    <path fill="#FFF" d="M254 3.3h-16.2c-.7 0-1.3.5-1.3 1.2v5.2c0 .7.6 1.2 1.3 1.2H254c.7 0 1.3-.5 1.3-1.2V4.5c-.1-.7-.6-1.2-1.3-1.2zm-17.1 1.2c0-.4.4-.8.8-.8H254c.5 0 .8.4.8.8v5.2c0 .4-.4.8-.8.8h-16.2c-.5 0-.8-.4-.8-.8V4.5h-.1z"/>
    <path fill="#FFF" d="M237.6 4.1c-.2 0-.3.2-.3.3v5.3c0 .2.2.3.3.3h6.6V4l-6.6.1z"/>
    <path fill="#FFF" d="M256.6 7.1c0 .7-.5 1.3-1 1.4V5.7c.6.1 1 .7 1 1.4z"/>
    <path fill="#FFF" d="M213.9 10.3c1.4 0 2.4-.9 2.4-2.3 0-1.3-.9-2.3-2.2-2.3-.6 0-1.1.2-1.4.6h-.1l.2-2.2h3.1v-.7h-3.8l-.4 3.9h.8c.3-.5.8-.8 1.4-.8.9 0 1.5.6 1.5 1.6 0 .9-.6 1.6-1.5 1.6-.8 0-1.4-.5-1.5-1.2h-.8c.1 1 1 1.8 2.3 1.8zm6.1 0c1.4 0 2.5-.8 2.5-2 0-.9-.6-1.6-1.4-1.7v-.1c.7-.2 1.1-.8 1.1-1.5 0-1.1-.9-1.8-2.2-1.8s-2.2.8-2.2 1.8c0 .7.4 1.3 1.1 1.5v.1c-.9.2-1.4.8-1.4 1.7 0 1.2 1 2 2.5 2zm0-.7c-.9 0-1.6-.5-1.6-1.3S219.1 7 220 7c.9 0 1.6.5 1.6 1.3s-.7 1.3-1.6 1.3zm0-3.3c-.8 0-1.3-.5-1.3-1.2s.5-1.2 1.3-1.2 1.3.5 1.3 1.2-.5 1.2-1.3 1.2zm11.6 3.4c-.4 0-.7-.4-.7-1s.3-1 .7-1 .7.4.7 1-.3 1-.7 1zm0 .6c.9 0 1.5-.7 1.5-1.6 0-1-.6-1.6-1.5-1.6s-1.5.7-1.5 1.6c0 .9.7 1.6 1.5 1.6zm-4-3.8c.9 0 1.5-.7 1.5-1.6s-.6-1.6-1.5-1.6-1.5.7-1.5 1.6c.1 1 .7 1.6 1.5 1.6zm0 3.7l2.3-3.2 2.7-3.6h-.9l-2.4 3.3-2.6 3.5h.9zm0-4.3c-.4 0-.7-.4-.7-1s.3-1 .7-1 .7.4.7 1-.2 1-.7 1z"/>
    <path opacity=".45" fill="#FFF" enable-background="new" d="M204.2 10.1V7.6l1.2 1.3-1.2 1.2zm1.2-4.9l-1.2 1.2V4.1l1.2 1.1zm-.9 1.9l1.8-1.8-2.7-2.6h-.1v3.7l-1.9-1.9-.5.6 2.2 2.2-2.2 2.2.5.6 1.9-1.9v3.7h.1l2.7-2.7-1.8-2.1z"/>
    <path fill="#FFF" stroke="#FFF" d="M107.2 6.7c0-.2.2-.3.3-.3h4.2c.2 0 .3.2.3.3v2.8c0 .2-.2.3-.3.3h-4.2c-.2 0-.3-.2-.3-.3V6.7z"/>
    <path fill="#FFF" d="M109.6 3.3c-1.1 0-2.1.9-2.1 2.1v2.1h.7V5.4c0-.8.6-1.4 1.4-1.4s1.4.6 1.4 1.4v2.1h.7V5.4c0-1.2-.9-2.1-2.1-2.1z"/>
    <defs>
        <filter id="b" filterUnits="userSpaceOnUse" x="106.8" y="2.6" width="5.6" height="5.5">
            <feColorMatrix values="1 0 0 0 0 0 1 0 0 0 0 0 1 0 0 0 0 0 1 0"/>
        </filter>
    </defs>
    <mask maskUnits="userSpaceOnUse" x="106.8" y="2.6" width="5.6" height="5.5" id="c">
        <path fill="#FFF" filter="url(#b)" d="M109.6 3.3c-1.1 0-2.1.9-2.1 2.1v2.1h.7V5.4c0-.8.6-1.4 1.4-1.4s1.4.6 1.4 1.4v2.1h.7V5.4c0-1.2-.9-2.1-2.1-2.1z"/>
    </mask>
    <path mask="url(#c)" fill="#FFF" d="M107.6 7.4h-.7v.7h.7v-.7zm.6 0v.7h.7v-.7h-.7zm2.8 0h-.7v.7h.7v-.7zm.7 0v.7h.7v-.7h-.7zm-3.5-2c0-.8.6-1.4 1.4-1.4V2.6c-1.5 0-2.8 1.2-2.8 2.8h1.4zm0 2v-2h-1.4v2.1l1.4-.1zm0-.7h-.7v1.4h.7V6.7zm.7.7v-2h-1.4v2.1l1.4-.1zm0-2c0-.4.3-.7.7-.7V3.3c-1.1 0-2.1.9-2.1 2.1h1.4zm.7-.7c.4 0 .7.3.7.7h1.4c0-1.1-.9-2.1-2.1-2.1v1.4zm.7.7v2.1h1.4V5.4h-1.4zm1.4 1.3h-.7v1.4h.7V6.7zm-.7-1.3v2.1h1.4V5.4H111zM109.6 4c.8 0 1.4.6 1.4 1.4h1.4c0-1.5-1.2-2.8-2.8-2.8V4z"/>
    <path fill="#FFF" d="M121 10.3c1.5 0 2.4-1.3 2.4-3.5 0-2.3-.9-3.6-2.4-3.6s-2.4 1.3-2.4 3.6c0 2.2.9 3.5 2.4 3.5zm0-.7c-1 0-1.6-1-1.6-2.8S120 4 121 4s1.6 1 1.6 2.8-.6 2.8-1.6 2.8zm5.9.7c1.7 0 2.6-1.3 2.6-3.7 0-.7-.1-1.4-.3-1.9-.4-1-1.2-1.5-2.2-1.5-1.4 0-2.4 1-2.4 2.3s.9 2.3 2.2 2.3c.8 0 1.5-.4 1.8-1 0 1.8-.7 2.8-1.8 2.8-.7 0-1.2-.4-1.4-1h-.9c.4 1.1 1.2 1.7 2.4 1.7zm0-3.2c-.9 0-1.5-.6-1.5-1.6 0-.9.7-1.6 1.5-1.6s1.5.7 1.5 1.6c.1 1-.6 1.6-1.5 1.6zm3.9 1.7c0 .4.3.7.7.7s.7-.3.7-.7c0-.4-.3-.7-.7-.7s-.7.3-.7.7zm0-3.7c0 .4.3.7.7.7s.7-.3.7-.7c0-.4-.3-.7-.7-.7-.4.1-.7.4-.7.7zm2.7.2h.8c0-.8.5-1.3 1.3-1.3s1.3.5 1.3 1.2c0 .5-.2.9-1.1 1.9l-2.4 2.6v.6h4.4v-.9h-3.2v-.1l1.6-1.8c1.1-1.2 1.4-1.7 1.4-2.5 0-1.1-.9-1.9-2.2-1.9-.9.1-1.9 1-1.9 2.2zm8.9 4.9h.8V8.8h1V8h-1V3.4H142c-1.2 1.8-2.3 3.5-2.9 4.6v.8h3.3v1.4zM140 8c.8-1.4 1.7-2.8 2.4-3.8h.1V8H140z"/>
    <path fill="#FFF" d="M55.9 4.6c1.7 0 3.2.6 4.4 1.6l.8-.9c-1.4-1.2-3.2-2-5.2-2s-3.8.8-5.2 2l.8.9c1.2-1 2.7-1.6 4.4-1.6zm0 2.5c1 0 1.9.4 2.6.9l.9-.9c-.9-.8-2.2-1.3-3.5-1.3s-2.6.5-3.5 1.3l.9.9c.7-.6 1.6-.9 2.6-.9zM57.7 9c-.5-.4-1.1-.7-1.8-.7s-1.3.3-1.8.7l1.8 1.9L57.7 9z"/>
    <path fill="#FFF" d="M42.1 7.5v-.8h-2.8v.7h1.9v.2c0 1.2-.8 1.9-2.1 1.9-1.4 0-2.2-1.1-2.2-2.8s.9-2.8 2.2-2.8c1 0 1.7.5 2 1.4h.9c-.2-1.3-1.3-2.2-2.9-2.2-1.9 0-3.1 1.4-3.1 3.6s1.2 3.6 3.1 3.6c1.8 0 3-1.1 3-2.8zm.9.9c.1 1.2 1.1 1.9 2.5 1.9 1.6 0 2.6-.8 2.6-2 0-1-.6-1.5-2-1.9l-.7-.2c-1-.2-1.4-.5-1.4-1.1 0-.7.6-1.1 1.6-1.1.9 0 1.4.4 1.5 1.1h.9c-.1-1.1-1.1-1.9-2.4-1.9-1.4 0-2.4.8-2.4 1.9 0 1 .5 1.5 1.8 1.8l.9.2c.9.2 1.4.6 1.4 1.2 0 .7-.7 1.2-1.6 1.2-1 0-1.7-.5-1.8-1.2l-.9.1z"/>
    <path fill="#FFF" d="M28.9 6.7c0 1.3 1.1 2.4 2.4 2.4s2.4-1.1 2.4-2.4-1.1-2.4-2.4-2.4c-1.4 0-2.4 1.1-2.4 2.4zm4.4 0c0 1.1-.9 2-2 2s-2-.9-2-2 .9-2 2-2c1.1.1 2 .9 2 2z"/>
    <path fill="#FFF" d="M23 6.7c0 1.3 1.1 2.4 2.4 2.4s2.4-1.1 2.4-2.4-1.1-2.4-2.4-2.4S23 5.4 23 6.7zm4.4 0c0 1.1-.9 2-2 2s-2-.9-2-2 .9-2 2-2c1.1.1 2 .9 2 2z"/>
    <path fill="#FFF" d="M19.5 9.1c1.3 0 2.4-1.1 2.4-2.4s-1.1-2.4-2.4-2.4-2.4 1.1-2.4 2.4c0 1.4 1.1 2.4 2.4 2.4z"/>
    <path fill="#FFF" d="M13.6 9.1C14.9 9.1 16 8 16 6.7s-1.1-2.4-2.4-2.4-2.4 1.1-2.4 2.4c0 1.4 1.1 2.4 2.4 2.4z"/>
    <path fill="#FFF" stroke="#FFF" d="M7.7 9.1c1.3 0 2.4-1.1 2.4-2.4S9 4.3 7.7 4.3 5.3 5.4 5.3 6.7c0 1.4 1.1 2.4 2.4 2.4z"/>
    <path fill="#FFF" d="M.1 61h260v398.8H.1z"/>
    <path fill="#FFF" d="M101.2 38.1c0 1.4-.6 2.3-1.9 2.7l2.3 3.2h-1.9l-2.1-2.9h-1.9V44h-1.5v-8.7h3.2c1.3 0 2.3.2 2.9.7.6.4.9 1.1.9 2.1zm-3.7 1.6c.8 0 1.4-.1 1.7-.4.3-.3.4-.7.4-1.2 0-.6-.2-1-.5-1.2-.3-.2-.9-.3-1.6-.3h-1.9v3.1h1.9zm11.8 1.6h-5.2c0 .5.3.9.7 1.2.4.3.9.4 1.4.4.8 0 1.5-.3 1.9-.8l.8.9c-.7.7-1.6 1.1-2.8 1.1-.9 0-1.7-.3-2.4-.9-.6-.6-1-1.4-1-2.5 0-1 .3-1.9 1-2.5.7-.6 1.4-.9 2.3-.9s1.7.3 2.3.8c.6.5.9 1.3.9 2.2l.1 1zm-5.2-1.1h3.8c0-.6-.2-1-.5-1.3s-.8-.4-1.3-.4-1 .2-1.4.5c-.4.2-.6.7-.6 1.2zm10.3-2.9c.9 0 1.7.3 2.3.9.6.6.9 1.4.9 2.4s-.3 1.8-.9 2.5c-.6.6-1.4 1-2.2 1-.8 0-1.6-.4-2.2-1.1v3.4h-1.4v-9h1.4v1.2c.4-.9 1.2-1.3 2.1-1.3zm-2.2 3.4c0 .6.2 1.1.6 1.6.4.4.8.6 1.4.6.5 0 1-.2 1.4-.6.4-.4.6-.9.6-1.5s-.2-1.2-.6-1.6c-.4-.4-.9-.6-1.4-.6-.6 0-1 .2-1.4.6-.4.3-.6.9-.6 1.5zm12.4 3.3h-1.3v-.9c-.5.7-1.3 1-2.2 1-.7 0-1.3-.2-1.7-.6-.4-.4-.7-.9-.7-1.6 0-.7.2-1.1.7-1.5.5-.4 1.1-.5 2-.5h1.8v-.2c0-.9-.5-1.3-1.5-1.3-.6 0-1.3.2-1.9.7l-.6-.9c.8-.6 1.7-1 2.7-1 .8 0 1.4.2 1.9.6.5.4.7 1 .7 1.8l.1 4.4zm-1.4-2.5V41h-1.6c-1 0-1.5.3-1.5.9 0 .3.1.6.4.7.2.2.6.2 1 .2s.8-.1 1.2-.4c.3-.1.5-.5.5-.9zm4.7 2.5h-1.4v-6.6h1.4V44zm-1.3-7.9c-.2-.2-.3-.4-.3-.6 0-.2.1-.4.3-.6.2-.2.4-.3.6-.3s.4.1.6.3c.2.2.3.4.3.6s-.1.4-.3.6c-.2.2-.4.3-.6.3s-.4-.2-.6-.3zm6.8 2.6c-.7 0-1.2.2-1.6.7-.3.4-.5 1-.5 1.8V44h-1.4v-6.6h1.4v1.3c.2-.4.5-.8.9-1 .4-.3.8-.4 1.2-.4v1.4c.1 0 0 0 0 0zm5.4-2.1v-1.3h4.2V41c0 1-.3 1.8-.8 2.3-.5.5-1.2.8-2 .8-1 0-1.9-.4-2.6-1.1l.8-1.2c.6.5 1.1.8 1.7.8.4 0 .7-.1 1-.4.3-.3.4-.6.4-1.2v-4.5l-2.7.1zm7.8 5.6c.4.4.9.6 1.5.6s1.1-.2 1.5-.6c.4-.4.6-.9.6-1.6s-.2-1.2-.6-1.6c-.4-.4-.9-.6-1.5-.6s-1.1.2-1.5.6c-.4.4-.6.9-.6 1.6s.3 1.2.6 1.6zm4 .9c-.7.7-1.5 1-2.5 1s-1.8-.3-2.5-1-1-1.5-1-2.4c0-.9.3-1.8 1-2.4.7-.7 1.5-1 2.5-1s1.8.3 2.5 1 1 1.5 1 2.4c0 .9-.3 1.7-1 2.4zm6.2-5.8c.9 0 1.7.3 2.3.9.6.6.9 1.4.9 2.4s-.3 1.8-.9 2.5c-.6.6-1.4 1-2.2 1s-1.6-.4-2.2-1.1v1h-1.4v-9.2h1.4v3.8c.5-.9 1.2-1.3 2.1-1.3zm-2.2 3.4c0 .6.2 1.1.6 1.6.4.4.8.6 1.4.6s1-.2 1.4-.6c.4-.4.6-.9.6-1.5s-.2-1.2-.6-1.6c-.4-.4-.9-.6-1.4-.6-.6 0-1 .2-1.4.6-.4.3-.6.9-.6 1.5zm11.8 1.3c0 .6-.2 1.1-.7 1.5s-1 .6-1.8.6c-.5 0-1-.1-1.5-.3-.5-.2-1-.4-1.4-.7l.7-1.1c.8.6 1.5.9 2.2.9.3 0 .6-.1.7-.2.2-.1.3-.3.3-.6s-.4-.6-1.3-.9h-.1c-1.4-.4-2.1-1-2.1-1.9 0-.6.2-1.1.7-1.5.5-.4 1.1-.6 1.9-.6s1.5.2 2.2.7l-.5 1c-.5-.4-1.1-.5-1.8-.5-.3 0-.6.1-.8.2-.2.1-.3.3-.3.5s.1.4.3.5c.1.1.4.1.6.2.3.1.5.1.7.2.2.1.4.1.6.2l.6.3c.5.4.8.9.8 1.5z"/>
    <linearGradient id="d" gradientUnits="userSpaceOnUse" x1="260.478" y1="780.023" x2="-44.63" y2="742.305" gradientTransform="translate(0 -330)">
        <stop offset="0" stop-color="#2e98d3"/>
        <stop offset="1" stop-color="#004da8"/>
    </linearGradient>
    <path fill="url(#d)" d="M.1 408.1h260v51.7H.1v-51.7z"/>
    <path fill="#FFF" d="M92.7 437.2L92 439h-1.4l3.4-7.7h1.4l3.4 7.7h-1.4l-.8-1.8h-3.9zm3.4-1.2l-1.4-3.2-1.4 3.2h2.8zm6 3.1c-.7 0-1.4-.3-2-.8-.6-.6-.8-1.3-.8-2.2 0-.9.3-1.6.9-2.2.6-.5 1.2-.8 2-.8s1.4.3 1.9 1v-3.2h1.2v8.2h-1.2v-.9c-.4.6-1.1.9-2 .9zm-1.5-3c0 .6.2 1 .5 1.4.4.4.8.5 1.3.5s.9-.2 1.2-.5c.3-.4.5-.8.5-1.4s-.2-1-.5-1.4-.8-.6-1.3-.6-.9.2-1.3.6c-.3.4-.4.8-.4 1.4zm9 3c-.7 0-1.4-.3-2-.8-.6-.6-.8-1.3-.8-2.2 0-.9.3-1.6.9-2.2.6-.5 1.2-.8 2-.8s1.4.3 1.9 1v-3.2h1.2v8.2h-1.2v-.9c-.5.6-1.2.9-2 .9zm-1.6-3c0 .6.2 1 .5 1.4.4.4.8.5 1.3.5s.9-.2 1.2-.5c.3-.4.5-.8.5-1.4s-.2-1-.5-1.4-.8-.6-1.3-.6-.9.2-1.3.6c-.2.4-.4.8-.4 1.4zm12.7-1.8c-.6 0-1.1.2-1.4.6s-.5.9-.5 1.6v2.5h-1.2v-5.9h1.2v1.2c.2-.4.5-.7.8-.9s.7-.4 1.1-.4v1.3c.1 0 .1 0 0 0zm6.9 2.3H123c0 .4.2.8.6 1 .4.3.8.4 1.2.4.7 0 1.3-.2 1.7-.7l.7.8c-.6.7-1.5 1-2.5 1-.8 0-1.5-.3-2.1-.8-.6-.6-.9-1.3-.9-2.2 0-.9.3-1.7.9-2.2.6-.5 1.3-.8 2.1-.8s1.5.2 2.1.7c.6.5.8 1.1.8 2v.8zm-4.7-1h3.4c0-.5-.2-.9-.5-1.1-.3-.3-.7-.4-1.2-.4s-.9.1-1.2.4c-.3.3-.5.7-.5 1.1zm9.2-2.6c.8 0 1.5.3 2 .8.6.5.8 1.3.8 2.2 0 .9-.3 1.6-.8 2.2-.6.6-1.2.8-2 .8-.7 0-1.4-.3-2-1v3h-1.2v-8h1.2v1c.5-.6 1.2-1 2-1zm-2 3.1c0 .6.2 1 .5 1.4s.8.5 1.2.5c.5 0 .9-.2 1.3-.5.4-.4.5-.8.5-1.4s-.2-1-.5-1.4c-.4-.4-.8-.6-1.3-.6s-.9.2-1.3.6c-.2.3-.4.8-.4 1.4zm11.1 2.9H140v-.8c-.5.6-1.1.9-2 .9-.6 0-1.1-.2-1.5-.5-.4-.3-.6-.8-.6-1.4 0-.6.2-1 .6-1.3.4-.3 1-.4 1.7-.4h1.6v-.2c0-.8-.4-1.2-1.3-1.2-.5 0-1.1.2-1.7.6l-.6-.8c.7-.6 1.5-.8 2.4-.8.7 0 1.3.2 1.7.5s.7.9.7 1.6v3.8h.2zm-1.3-2.2v-.5h-1.4c-.9 0-1.3.3-1.3.8 0 .3.1.5.3.7.2.1.5.2.9.2s.7-.1 1-.3c.4-.2.5-.5.5-.9zm4.2 2.2h-1.2v-5.9h1.2v5.9zm-1.1-7c-.2-.2-.2-.3-.2-.6 0-.2.1-.4.2-.6.2-.2.3-.2.6-.2s.4.1.6.2c.2.2.2.3.2.6 0 .2-.1.4-.2.6-.2.2-.3.2-.6.2s-.5-.1-.6-.2zm6 2.3c-.6 0-1.1.2-1.4.6-.3.4-.5.9-.5 1.6v2.5h-1.2v-5.9h1.2v1.2c.2-.4.5-.7.8-.9s.7-.4 1.1-.4v1.3c.1 0 0 0 0 0zm4.4 5v-6.1h1.2v6.2c0 .6-.2 1.1-.6 1.5-.4.4-.8.6-1.4.6-.5 0-1-.2-1.4-.6l.6-.9c.3.2.5.4.8.4s.5-.1.6-.2c.1-.4.2-.6.2-.9zm0-7.3c-.2-.2-.2-.3-.2-.6 0-.2.1-.4.2-.6s.3-.2.6-.2c.2 0 .4.1.6.2s.2.3.2.6c0 .2-.1.4-.2.6-.1.2-.3.2-.6.2-.2 0-.4-.1-.6-.2zm4.4 5.5c.4.4.8.5 1.3.5s1-.2 1.3-.5c.4-.4.5-.8.5-1.4s-.2-1-.5-1.4-.8-.5-1.3-.5-1 .2-1.3.5c-.3.4-.5.8-.5 1.4 0 .5.2 1 .5 1.4zm3.6.7c-.6.6-1.3.9-2.2.9s-1.6-.3-2.2-.9c-.6-.6-.9-1.3-.9-2.2 0-.8.3-1.6.9-2.1.6-.6 1.3-.9 2.2-.9s1.6.3 2.2.9c.6.6.9 1.3.9 2.1-.1.9-.3 1.6-.9 2.2zm5.4-5.2c.8 0 1.5.3 2 .8.6.5.8 1.3.8 2.2 0 .9-.3 1.6-.8 2.2-.6.6-1.2.8-2 .8-.7 0-1.4-.3-2-1v.9h-1.2v-8.2h1.2v3.3c.6-.6 1.2-1 2-1zm-1.9 3.1c0 .6.2 1 .5 1.4s.8.5 1.2.5c.5 0 .9-.2 1.3-.5.4-.4.5-.8.5-1.4s-.2-1-.5-1.4c-.4-.4-.8-.6-1.3-.6s-.9.2-1.3.6c-.3.3-.4.8-.4 1.4z"/>
    <linearGradient id="e" gradientUnits="userSpaceOnUse" x1="127.144" y1="320.45" x2="132.982" y2="399.343" gradientTransform="translate(0 -330)">
        <stop offset="0" stop-color="#004da8"/>
        <stop offset="1" stop-color="#2e98d3"/>
    </linearGradient>
    <path fill="url(#e)" d="M.1-.2h260v61.1H.1z"/>
    <g>
        <path fill-opacity=".01" d="M.1-.2v13.8h260V-.2H.1z"/>
        <path fill="#FFF" d="M254 3.3h-16.2c-.7 0-1.3.5-1.3 1.2v5.2c0 .7.6 1.2 1.3 1.2H254c.7 0 1.3-.5 1.3-1.2V4.5c-.1-.7-.6-1.2-1.3-1.2zm-17.1 1.2c0-.4.4-.8.8-.8H254c.5 0 .8.4.8.8v5.2c0 .4-.4.8-.8.8h-16.2c-.5 0-.8-.4-.8-.8V4.5h-.1z"/>
        <path fill="#FFF" d="M237.6 4.1c-.2 0-.3.2-.3.3v5.3c0 .2.2.3.3.3h6.6V4l-6.6.1z"/>
        <path fill="#FFF" d="M256.6 7.1c0 .7-.5 1.3-1 1.4V5.7c.6.1 1 .7 1 1.4z"/>
        <path fill="#FFF" d="M213.9 10.3c1.4 0 2.4-.9 2.4-2.3 0-1.3-.9-2.3-2.2-2.3-.6 0-1.1.2-1.4.6h-.1l.2-2.2h3.1v-.7h-3.8l-.4 3.9h.8c.3-.5.8-.8 1.4-.8.9 0 1.5.6 1.5 1.6 0 .9-.6 1.6-1.5 1.6-.8 0-1.4-.5-1.5-1.2h-.8c.1 1 1 1.8 2.3 1.8zm6.1 0c1.4 0 2.5-.8 2.5-2 0-.9-.6-1.6-1.4-1.7v-.1c.7-.2 1.1-.8 1.1-1.5 0-1.1-.9-1.8-2.2-1.8s-2.2.8-2.2 1.8c0 .7.4 1.3 1.1 1.5v.1c-.9.2-1.4.8-1.4 1.7 0 1.2 1 2 2.5 2zm0-.7c-.9 0-1.6-.5-1.6-1.3S219.1 7 220 7c.9 0 1.6.5 1.6 1.3s-.7 1.3-1.6 1.3zm0-3.3c-.8 0-1.3-.5-1.3-1.2s.5-1.2 1.3-1.2 1.3.5 1.3 1.2-.5 1.2-1.3 1.2zm11.6 3.4c-.4 0-.7-.4-.7-1s.3-1 .7-1 .7.4.7 1-.3 1-.7 1zm0 .6c.9 0 1.5-.7 1.5-1.6 0-1-.6-1.6-1.5-1.6s-1.5.7-1.5 1.6c0 .9.7 1.6 1.5 1.6zm-4-3.8c.9 0 1.5-.7 1.5-1.6s-.6-1.6-1.5-1.6-1.5.7-1.5 1.6c.1 1 .7 1.6 1.5 1.6zm0 3.7l2.3-3.2 2.7-3.6h-.9l-2.4 3.3-2.6 3.5h.9zm0-4.3c-.4 0-.7-.4-.7-1s.3-1 .7-1 .7.4.7 1-.2 1-.7 1z"/>
        <path opacity=".45" fill="#FFF" enable-background="new" d="M204.2 10.1V7.6l1.2 1.3-1.2 1.2zm1.2-4.9l-1.2 1.2V4.1l1.2 1.1zm-.9 1.9l1.8-1.8-2.7-2.6h-.1v3.7l-1.9-1.9-.5.6 2.2 2.2-2.2 2.2.5.6 1.9-1.9v3.7h.1l2.7-2.7-1.8-2.1z"/>
        <path fill="#FFF" stroke="#FFF" d="M107.2 6.7c0-.2.2-.3.3-.3h4.2c.2 0 .3.2.3.3v2.8c0 .2-.2.3-.3.3h-4.2c-.2 0-.3-.2-.3-.3V6.7z"/>
        <path fill="#FFF" d="M109.6 3.3c-1.1 0-2.1.9-2.1 2.1v2.1h.7V5.4c0-.8.6-1.4 1.4-1.4s1.4.6 1.4 1.4v2.1h.7V5.4c0-1.2-.9-2.1-2.1-2.1z"/>
        <defs>
            <filter id="f" filterUnits="userSpaceOnUse" x="106.8" y="2.6" width="5.6" height="5.5">
                <feColorMatrix values="1 0 0 0 0 0 1 0 0 0 0 0 1 0 0 0 0 0 1 0"/>
            </filter>
        </defs>
        <mask maskUnits="userSpaceOnUse" x="106.8" y="2.6" width="5.6" height="5.5" id="g">
            <path fill="#FFF" filter="url(#f)" d="M109.6 3.3c-1.1 0-2.1.9-2.1 2.1v2.1h.7V5.4c0-.8.6-1.4 1.4-1.4s1.4.6 1.4 1.4v2.1h.7V5.4c0-1.2-.9-2.1-2.1-2.1z"/>
        </mask>
        <path mask="url(#g)" fill="#FFF" d="M107.6 7.4h-.7v.7h.7v-.7zm.6 0v.7h.7v-.7h-.7zm2.8 0h-.7v.7h.7v-.7zm.7 0v.7h.7v-.7h-.7zm-3.5-2c0-.8.6-1.4 1.4-1.4V2.6c-1.5 0-2.8 1.2-2.8 2.8h1.4zm0 2v-2h-1.4v2.1l1.4-.1zm0-.7h-.7v1.4h.7V6.7zm.7.7v-2h-1.4v2.1l1.4-.1zm0-2c0-.4.3-.7.7-.7V3.3c-1.1 0-2.1.9-2.1 2.1h1.4zm.7-.7c.4 0 .7.3.7.7h1.4c0-1.1-.9-2.1-2.1-2.1v1.4zm.7.7v2.1h1.4V5.4h-1.4zm1.4 1.3h-.7v1.4h.7V6.7zm-.7-1.3v2.1h1.4V5.4H111zM109.6 4c.8 0 1.4.6 1.4 1.4h1.4c0-1.5-1.2-2.8-2.8-2.8V4z"/>
        <path fill="#FFF" d="M121 10.3c1.5 0 2.4-1.3 2.4-3.5 0-2.3-.9-3.6-2.4-3.6s-2.4 1.3-2.4 3.6c0 2.2.9 3.5 2.4 3.5zm0-.7c-1 0-1.6-1-1.6-2.8S120 4 121 4s1.6 1 1.6 2.8-.6 2.8-1.6 2.8zm5.9.7c1.7 0 2.6-1.3 2.6-3.7 0-.7-.1-1.4-.3-1.9-.4-1-1.2-1.5-2.2-1.5-1.4 0-2.4 1-2.4 2.3s.9 2.3 2.2 2.3c.8 0 1.5-.4 1.8-1 0 1.8-.7 2.8-1.8 2.8-.7 0-1.2-.4-1.4-1h-.9c.4 1.1 1.2 1.7 2.4 1.7zm0-3.2c-.9 0-1.5-.6-1.5-1.6 0-.9.7-1.6 1.5-1.6s1.5.7 1.5 1.6c.1 1-.6 1.6-1.5 1.6zm3.9 1.7c0 .4.3.7.7.7s.7-.3.7-.7c0-.4-.3-.7-.7-.7s-.7.3-.7.7zm0-3.7c0 .4.3.7.7.7s.7-.3.7-.7c0-.4-.3-.7-.7-.7-.4.1-.7.4-.7.7zm2.7.2h.8c0-.8.5-1.3 1.3-1.3s1.3.5 1.3 1.2c0 .5-.2.9-1.1 1.9l-2.4 2.6v.6h4.4v-.9h-3.2v-.1l1.6-1.8c1.1-1.2 1.4-1.7 1.4-2.5 0-1.1-.9-1.9-2.2-1.9-.9.1-1.9 1-1.9 2.2zm8.9 4.9h.8V8.8h1V8h-1V3.4H142c-1.2 1.8-2.3 3.5-2.9 4.6v.8h3.3v1.4zM140 8c.8-1.4 1.7-2.8 2.4-3.8h.1V8H140z"/>
        <path fill="#FFF" d="M55.9 4.6c1.7 0 3.2.6 4.4 1.6l.8-.9c-1.4-1.2-3.2-2-5.2-2s-3.8.8-5.2 2l.8.9c1.2-1 2.7-1.6 4.4-1.6zm0 2.5c1 0 1.9.4 2.6.9l.9-.9c-.9-.8-2.2-1.3-3.5-1.3s-2.6.5-3.5 1.3l.9.9c.7-.6 1.6-.9 2.6-.9zM57.7 9c-.5-.4-1.1-.7-1.8-.7s-1.3.3-1.8.7l1.8 1.9L57.7 9z"/>
        <path fill="#FFF" d="M42.1 7.5v-.8h-2.8v.7h1.9v.2c0 1.2-.8 1.9-2.1 1.9-1.4 0-2.2-1.1-2.2-2.8s.9-2.8 2.2-2.8c1 0 1.7.5 2 1.4h.9c-.2-1.3-1.3-2.2-2.9-2.2-1.9 0-3.1 1.4-3.1 3.6s1.2 3.6 3.1 3.6c1.8 0 3-1.1 3-2.8zm.9.9c.1 1.2 1.1 1.9 2.5 1.9 1.6 0 2.6-.8 2.6-2 0-1-.6-1.5-2-1.9l-.7-.2c-1-.2-1.4-.5-1.4-1.1 0-.7.6-1.1 1.6-1.1.9 0 1.4.4 1.5 1.1h.9c-.1-1.1-1.1-1.9-2.4-1.9-1.4 0-2.4.8-2.4 1.9 0 1 .5 1.5 1.8 1.8l.9.2c.9.2 1.4.6 1.4 1.2 0 .7-.7 1.2-1.6 1.2-1 0-1.7-.5-1.8-1.2l-.9.1z"/>
        <path fill="#FFF" d="M28.9 6.7c0 1.3 1.1 2.4 2.4 2.4s2.4-1.1 2.4-2.4-1.1-2.4-2.4-2.4c-1.4 0-2.4 1.1-2.4 2.4zm4.4 0c0 1.1-.9 2-2 2s-2-.9-2-2 .9-2 2-2c1.1.1 2 .9 2 2z"/>
        <path fill="#FFF" d="M23 6.7c0 1.3 1.1 2.4 2.4 2.4s2.4-1.1 2.4-2.4-1.1-2.4-2.4-2.4S23 5.4 23 6.7zm4.4 0c0 1.1-.9 2-2 2s-2-.9-2-2 .9-2 2-2c1.1.1 2 .9 2 2z"/>
        <path fill="#FFF" d="M19.5 9.1c1.3 0 2.4-1.1 2.4-2.4s-1.1-2.4-2.4-2.4-2.4 1.1-2.4 2.4c0 1.4 1.1 2.4 2.4 2.4z"/>
        <path fill="#FFF" d="M13.6 9.1C14.9 9.1 16 8 16 6.7s-1.1-2.4-2.4-2.4-2.4 1.1-2.4 2.4c0 1.4 1.1 2.4 2.4 2.4z"/>
        <path fill="#FFF" stroke="#FFF" d="M7.7 9.1c1.3 0 2.4-1.1 2.4-2.4S9 4.3 7.7 4.3 5.3 5.4 5.3 6.7c0 1.4 1.1 2.4 2.4 2.4z"/>
        <path fill="#FFF" d="M.1 61h260v398.8H.1z"/>
        <path fill="#FFF" d="M237.8 45.9c0 .6.5 1 1 1h2c.6 0 1-.5 1-1 0-.6-.5-1-1-1h-2c-.6 0-1 .4-1 1zm-6.2-11.2c-.6 0-1 .5-1 1s.5 1 1 1H248c.6 0 1-.5 1-1s-.5-1-1-1h-16.4zm2.1 6.1c0 .6.5 1 1 1h10.2c.6 0 1-.5 1-1s-.5-1-1-1h-10.2c-.6 0-1 .4-1 1z"/>
        <path fill="none" stroke="#FFF" stroke-width="2" stroke-linecap="round" stroke-linejoin="round" d="M11.9 38.4l7.7-7.7 7.7 7.7"/>
        <path fill="#FFF" d="M101.2 37.9c0 1.4-.6 2.3-1.9 2.7l2.3 3.2h-1.9l-2.1-2.9h-1.9v2.9h-1.5v-8.7h3.2c1.3 0 2.3.2 2.9.7.6.4.9 1.1.9 2.1zm-3.7 1.6c.8 0 1.4-.1 1.7-.4.3-.3.4-.7.4-1.2 0-.6-.2-1-.5-1.2-.3-.2-.9-.3-1.6-.3h-1.9v3.1h1.9zm11.8 1.6h-5.2c0 .5.3.9.7 1.2.4.3.9.4 1.4.4.8 0 1.5-.3 1.9-.8l.8.9c-.7.7-1.6 1.1-2.8 1.1-.9 0-1.7-.3-2.4-.9-.6-.6-1-1.4-1-2.5 0-1 .3-1.9 1-2.5s1.4-.9 2.3-.9 1.7.3 2.3.8c.6.5.9 1.3.9 2.2l.1 1zm-5.2-1.1h3.8c0-.6-.2-1-.5-1.3s-.8-.4-1.3-.4-1 .2-1.4.5c-.4.2-.6.7-.6 1.2zm10.3-2.9c.9 0 1.7.3 2.3.9.6.6.9 1.4.9 2.4s-.3 1.8-.9 2.5c-.6.6-1.4 1-2.2 1-.8 0-1.6-.4-2.2-1.1v3.4h-1.4v-9h1.4v1.2c.4-.9 1.2-1.3 2.1-1.3zm-2.2 3.4c0 .6.2 1.1.6 1.6.4.4.8.6 1.4.6.5 0 1-.2 1.4-.6s.6-.9.6-1.5-.2-1.2-.6-1.6c-.4-.4-.9-.6-1.4-.6-.6 0-1 .2-1.4.6-.4.3-.6.8-.6 1.5zm12.4 3.3h-1.3v-.9c-.5.7-1.3 1-2.2 1-.7 0-1.3-.2-1.7-.6-.4-.4-.7-.9-.7-1.6 0-.7.2-1.1.7-1.5.5-.3 1.1-.5 2-.5h1.8v-.2c0-.9-.5-1.3-1.5-1.3-.6 0-1.3.2-1.9.7l-.6-.9c.8-.6 1.7-1 2.7-1 .8 0 1.4.2 1.9.6.5.4.7 1 .7 1.8l.1 4.4zm-1.4-2.5v-.6h-1.6c-1 0-1.5.3-1.5.9 0 .3.1.6.4.7.2.2.6.2 1 .2s.8-.1 1.2-.4c.3 0 .5-.4.5-.8zm4.7 2.5h-1.4v-6.6h1.4v6.6zm-1.3-8c-.2-.2-.3-.4-.3-.6 0-.2.1-.4.3-.6.2-.2.4-.3.6-.3s.4.1.6.3c.2.2.3.4.3.6s-.1.4-.3.6c-.2.2-.4.3-.6.3s-.4-.1-.6-.3zm6.8 2.7c-.7 0-1.2.2-1.6.7-.3.4-.5 1-.5 1.8v2.8h-1.4v-6.6h1.4v1.3c.2-.4.5-.8.9-1 .4-.3.8-.4 1.2-.4v1.4c.1 0 0 0 0 0zm5.4-2.1v-1.3h4.2v5.7c0 1-.3 1.8-.8 2.3-.5.5-1.2.8-2 .8-1 0-1.9-.4-2.6-1.1l.8-1.2c.6.5 1.1.8 1.7.8.4 0 .7-.1 1-.4.3-.3.4-.6.4-1.2v-4.5l-2.7.1zm7.8 5.6c.4.4.9.6 1.5.6s1.1-.2 1.5-.6c.4-.4.6-.9.6-1.6s-.2-1.2-.6-1.6c-.4-.4-.9-.6-1.5-.6s-1.1.2-1.5.6c-.4.4-.6.9-.6 1.6s.3 1.2.6 1.6zm4 .9c-.7.7-1.5 1-2.5 1s-1.8-.3-2.5-1-1-1.5-1-2.4c0-.9.3-1.8 1-2.4.7-.7 1.5-1 2.5-1s1.8.3 2.5 1 1 1.5 1 2.4c0 .9-.3 1.7-1 2.4zm6.2-5.8c.9 0 1.7.3 2.3.9.6.6.9 1.4.9 2.4s-.3 1.8-.9 2.5c-.6.6-1.4 1-2.2 1s-1.6-.4-2.2-1.1v1h-1.4v-9.2h1.4v3.8c.5-.9 1.2-1.3 2.1-1.3zm-2.2 3.4c0 .6.2 1.1.6 1.6.4.4.8.6 1.4.6s1-.2 1.4-.6.6-.9.6-1.5-.2-1.2-.6-1.6c-.4-.4-.9-.6-1.4-.6-.6 0-1 .2-1.4.6-.4.3-.6.8-.6 1.5zm11.8 1.3c0 .6-.2 1.1-.7 1.5s-1 .6-1.8.6c-.5 0-1-.1-1.5-.3s-1-.4-1.4-.7l.7-1.1c.8.6 1.5.9 2.2.9.3 0 .6-.1.7-.2.2-.1.3-.3.3-.6s-.4-.6-1.3-.9h-.1c-1.4-.4-2.1-1-2.1-1.9 0-.6.2-1.1.7-1.5s1.1-.6 1.9-.6 1.5.2 2.2.7l-.5 1c-.5-.4-1.1-.5-1.8-.5-.3 0-.6.1-.8.2s-.3.3-.3.5.1.4.3.5c.1.1.4.1.6.2.3.1.5.1.7.2.2.1.4.1.6.2l.6.3c.5.4.8.9.8 1.5z"/>
        <path fill="none" stroke="#FFF" stroke-width="2" stroke-linecap="round" stroke-linejoin="round" d="M25.9 39.1v7.7h-4.2v-5.6h-4.6v5.6h-3.9v-7.7"/>
        <path opacity=".77" fill="#FF2E00" enable-background="new" d="M16.3 97.9l1.3-4.2h.9l1.3 4.2 1.5-4.2h1.1l-2 5.8h-1l-1.2-4H18l-1.2 4h-1l-2-5.8h1.1l1.4 4.2zm10.1 1.7h-.8V99c-.4.4-.9.7-1.5.7-.5 0-.8-.1-1.1-.4-.3-.3-.4-.6-.4-1s.2-.8.5-1 .8-.3 1.3-.3h1.2v-.2c0-.6-.3-.9-1-.9-.4 0-.8.1-1.3.4l-.4-.6c.5-.4 1.1-.6 1.8-.6.5 0 .9.1 1.3.4.3.3.5.7.5 1.2v2.9h-.1zm-.9-1.7v-.4h-1c-.7 0-1 .2-1 .6 0 .2.1.4.2.5.2.1.4.2.7.2.3 0 .6-.1.8-.2.1-.2.3-.4.3-.7zm3.1 1.7h-.9v-4.4h.9v4.4zm-.9-5.3c-.1-.1-.2-.3-.2-.4s.1-.3.2-.4.3-.2.4-.2c.2 0 .3.1.4.2s.2.3.2.4-.1.3-.2.4-.3.2-.4.2c-.1-.1-.2-.1-.4-.2zm3.4 1.6v2.2c0 .2.1.4.2.5s.3.2.5.2.4-.1.6-.3l.4.7c-.3.3-.7.4-1.1.4s-.7-.1-1-.4c-.3-.3-.4-.6-.4-1.1v-2.2h-.6v-.7h.6v-1.4h.9v1.4h1.2v.7h-1.3zm3.3 3.7h-.9v-4.4h.9v4.4zm-.9-5.3c-.1-.1-.2-.3-.2-.4s.1-.3.2-.4c.1-.1.3-.2.4-.2.2 0 .3.1.4.2.1.1.2.3.2.4s-.1.3-.2.4c-.1.1-.3.2-.4.2-.1-.1-.3-.1-.4-.2zm3.2 2.9v2.4h-.9v-4.4h.9v.8c.1-.3.4-.5.6-.6.3-.2.6-.2.9-.2.5 0 .9.2 1.2.5.3.3.5.7.5 1.3v2.7H39v-2.4c0-.8-.3-1.2-1-1.2-.3 0-.6.1-.8.3-.4.1-.5.4-.5.8zm8.5-2.1V99c0 .8-.2 1.4-.6 1.7-.4.4-1 .6-1.6.6-.7 0-1.3-.2-1.8-.6l.4-.7c.4.3.9.5 1.3.5s.8-.1 1-.3c.3-.2.4-.6.4-1.1v-.6c-.1.3-.3.5-.6.6-.3.2-.5.2-.9.2-.6 0-1.1-.2-1.4-.6-.4-.4-.6-.9-.6-1.5s.2-1.1.6-1.5c.4-.4.9-.6 1.4-.6.6 0 1.1.2 1.4.7v-.7h1zm-3.5 2.1c0 .4.1.7.3.9.2.3.5.4.9.4s.7-.1.9-.4.4-.6.4-.9c0-.4-.1-.7-.4-1-.2-.3-.5-.4-.9-.4s-.7.1-.9.4c-.1.3-.3.6-.3 1zm8.3-2.4v.4h1.2v.7H50v3.7h-1v-3.7h-.6v-.7h.6v-.3c0-.5.1-.8.4-1.1.3-.3.6-.4 1-.4s.8.1 1.1.4l-.4.7c-.2-.2-.4-.3-.6-.3-.2 0-.4.1-.5.2v.4zm3 3.6c.3.3.6.4 1 .4s.7-.1 1-.4c.3-.3.4-.6.4-1s-.1-.8-.4-1c-.3-.3-.6-.4-1-.4s-.7.1-1 .4c-.3.3-.4.6-.4 1s.1.7.4 1zm2.6.6c-.4.4-1 .7-1.7.7s-1.2-.2-1.7-.7c-.4-.4-.7-1-.7-1.6s.2-1.2.7-1.6c.4-.4 1-.7 1.7-.7s1.2.2 1.7.7c.4.4.7 1 .7 1.6s-.2 1.1-.7 1.6zm4.1-3c-.5 0-.8.1-1 .4-.2.3-.3.7-.3 1.2v1.9h-.9v-4.4h.9v.9c.1-.3.4-.5.6-.7.3-.2.5-.3.8-.3l-.1 1zm5.1 3.6c-.6 0-1-.2-1.5-.6-.4-.4-.6-1-.6-1.7s.2-1.2.6-1.6c.4-.4.9-.6 1.5-.6s1.1.3 1.4.8v-.8h.9v6h-.9v-2.3c-.4.6-.9.8-1.4.8zm-1.2-2.2c0 .4.1.8.4 1 .3.2.6.4 1 .4s.7-.1.9-.4c.3-.3.4-.6.4-1s-.1-.8-.4-1c-.3-.3-.6-.4-.9-.4-.4 0-.7.1-1 .4-.3.2-.4.5-.4 1zm8 .1v-2.4h.9v4.4h-.9v-.8c-.1.3-.4.5-.6.6-.3.2-.5.2-.8.2-.5 0-.9-.2-1.2-.5-.3-.3-.5-.7-.5-1.3V95h.9v2.4c0 .8.3 1.2 1 1.2.3 0 .6-.1.8-.3.3 0 .4-.4.4-.8zm3.4.9c.3.3.6.4 1 .4s.7-.1 1-.4c.3-.3.4-.6.4-1s-.1-.8-.4-1c-.3-.3-.6-.4-1-.4s-.7.1-1 .4c-.3.3-.4.6-.4 1s.1.7.4 1zm2.6.6c-.4.4-1 .7-1.7.7s-1.2-.2-1.7-.7c-.4-.4-.7-1-.7-1.6s.2-1.2.7-1.6c.4-.4 1-.7 1.7-.7s1.2.2 1.7.7c.4.4.7 1 .7 1.6s-.2 1.1-.7 1.6zm2.8-3.1v2.2c0 .2.1.4.2.5s.3.2.5.2.4-.1.6-.3l.4.7c-.3.3-.7.4-1.1.4s-.7-.1-1-.4c-.3-.3-.4-.6-.4-1.1v-2.2H79v-.7h.6v-1.4h.9v1.4h1.2v.7h-1.3zm6.5 1.9h-3.5c0 .3.2.6.4.8.3.2.6.3.9.3.6 0 1-.2 1.3-.5l.5.6c-.5.5-1.1.7-1.9.7-.6 0-1.2-.2-1.6-.6-.4-.4-.6-1-.6-1.7s.2-1.2.7-1.7c.4-.4 1-.6 1.6-.6s1.1.2 1.5.5c.4.4.6.9.6 1.5l.1.7zm-3.5-.8h2.5c0-.4-.1-.7-.3-.9-.2-.2-.5-.3-.9-.3-.3 0-.6.1-.9.3-.3.3-.4.6-.4.9z"/>
        <path fill="#FF5E3B" d="M.1 61h5.2v55H.1z"/>
        <path d="M16.1 78.9V81h3.4v1.2h-3.4v3.2h-1.3v-7.7H20v1.2h-3.9zm6.5 6.5h-1.2v-5.9h1.2v5.9zm-1.2-7.1c-.2-.2-.2-.3-.2-.6s.1-.4.2-.6c.2-.2.3-.2.6-.2.2 0 .4.1.6.2.2.2.2.3.2.6s-.1.4-.2.6c-.2.2-.3.2-.6.2-.3.1-.5 0-.6-.2zm3.9 1.2l1.3 1.9 1.3-1.9h1.5l-2.1 2.9 2.2 3H28l-1.4-2-1.4 2h-1.5l2.1-3-2-2.9h1.5zm11 5.9h-1.4l-2-5.9h1.3l1.5 4.4 1.5-4.4h1.3l1.5 4.4 1.5-4.4h1.3l-2 5.9h-1.4l-1.4-4-1.7 4zm8.6 0h-1.2v-5.9h1.2v5.9zm-1.1-7.1c-.2-.2-.2-.3-.2-.6s.1-.4.2-.6c.2-.2.3-.2.6-.2.2 0 .4.1.6.2.2.2.2.3.2.6s-.1.4-.2.6c-.2.2-.3.2-.6.2-.3.1-.5 0-.6-.2zm4.2 3.9v3.2h-1.2v-5.9H48v1.1c.2-.4.5-.6.8-.8.4-.2.7-.3 1.1-.3.7 0 1.2.2 1.6.6.4.4.6 1 .6 1.8v3.6h-1.2v-3.2c0-1.1-.5-1.6-1.4-1.6-.4 0-.8.1-1.1.4-.3.1-.4.5-.4 1.1zm8.3 3.3c-.7 0-1.4-.3-2-.8-.6-.6-.8-1.3-.8-2.2 0-.9.3-1.6.9-2.2.6-.5 1.2-.8 2-.8s1.4.3 1.9 1v-3.2h1.2v8.2h-1.2v-.9c-.4.5-1.1.9-2 .9zm-1.5-3c0 .6.2 1 .5 1.4.4.4.8.5 1.3.5s.9-.2 1.2-.5c.3-.4.5-.8.5-1.4 0-.6-.2-1-.5-1.4-.3-.4-.8-.6-1.3-.6s-.9.2-1.3.6c-.2.3-.4.8-.4 1.4zm7.9 1.3c.4.4.8.5 1.3.5s1-.2 1.3-.5c.4-.4.5-.8.5-1.4s-.2-1-.5-1.4c-.3-.4-.8-.5-1.3-.5s-1 .2-1.3.5c-.3.4-.5.8-.5 1.4s.2 1.1.5 1.4zm3.6.8c-.6.6-1.3.9-2.2.9s-1.6-.3-2.2-.9c-.6-.6-.9-1.3-.9-2.2 0-.8.3-1.6.9-2.1.6-.6 1.3-.9 2.2-.9.9 0 1.6.3 2.2.9s.9 1.3.9 2.1c0 .9-.3 1.6-.9 2.2zm5 .8h-1.4l-2-5.9h1.3l1.5 4.4 1.5-4.4h1.3l1.5 4.4 1.5-4.4h1.3l-2 5.9h-1.4l-1.4-4-1.7 4zM83.2 79v.5h1.6v1h-1.6v4.9H82v-4.9h-.7v-1h.7V79c0-.6.2-1.1.6-1.5.4-.4.8-.6 1.4-.6.5 0 1 .2 1.5.6l-.5.9c-.2-.3-.5-.4-.8-.4s-.5.1-.6.3c-.3.2-.4.4-.4.7zm5.9 1.7c-.6 0-1.1.2-1.4.6-.3.4-.5.9-.5 1.6v2.5H86v-5.9h1.2v1.2c.2-.4.5-.7.8-.9.3-.2.7-.4 1.1-.4v1.3zm6 4.7H94v-.8c-.5.6-1.1.9-2 .9-.6 0-1.1-.2-1.5-.5-.4-.3-.6-.8-.6-1.4s.2-1 .6-1.3c.4-.3 1-.4 1.7-.4h1.6v-.2c0-.8-.4-1.2-1.3-1.2-.5 0-1.1.2-1.7.6l-.6-.8c.7-.6 1.5-.8 2.4-.8.7 0 1.3.2 1.7.5.4.3.7.9.7 1.6v3.8h.1zm-1.2-2.2v-.5h-1.4c-.9 0-1.3.3-1.3.8 0 .3.1.5.3.7.2.1.5.2.9.2s.7-.1 1-.3c.3-.2.5-.5.5-.9zm4.2-1v3.2h-1.2v-5.9h1.2v1.1c.2-.4.4-.6.8-.8.4-.2.8-.3 1.2-.3.9 0 1.6.4 1.9 1.1.6-.8 1.3-1.1 2.2-1.1.7 0 1.2.2 1.6.6.4.4.6 1 .6 1.8v3.6h-1.2v-3.2c0-1.1-.5-1.6-1.4-1.6-.4 0-.8.1-1.1.4-.3.3-.5.7-.5 1.2v3.3H101v-3.2c0-.6-.1-1-.3-1.2-.2-.3-.5-.4-.9-.4s-.8.1-1.1.4c-.5 0-.6.4-.6 1zm15.5.8H109c0 .4.2.8.6 1 .4.3.8.4 1.2.4.7 0 1.3-.2 1.7-.7l.7.8c-.6.7-1.5 1-2.5 1-.8 0-1.5-.3-2.1-.8-.6-.6-.9-1.3-.9-2.2s.3-1.7.9-2.2 1.3-.8 2.1-.8 1.5.2 2.1.7.8 1.1.8 2v.8zm-4.7-1h3.4c0-.5-.2-.9-.5-1.1-.3-.3-.7-.4-1.2-.4s-.9.1-1.2.4c-.3.3-.5.6-.5 1.1zm13.9 3.4h-1.1v-.8c-.5.6-1.1.9-2 .9-.6 0-1.1-.2-1.5-.5-.4-.3-.6-.8-.6-1.4s.2-1 .6-1.3c.4-.3 1-.4 1.7-.4h1.6v-.2c0-.8-.4-1.2-1.3-1.2-.5 0-1.1.2-1.7.6l-.6-.8c.7-.6 1.5-.8 2.4-.8.7 0 1.3.2 1.7.5.4.3.7.9.7 1.6v3.8h.1zm-1.3-2.2v-.5h-1.4c-.9 0-1.3.3-1.3.8 0 .3.1.5.3.7.2.1.5.2.9.2s.7-.1 1-.3c.4-.2.5-.5.5-.9zm4.5-2.7v3c0 .3.1.5.2.7s.4.2.6.2.5-.1.8-.4l.5.9c-.4.4-.9.6-1.5.6-.5 0-1-.2-1.4-.5-.4-.4-.6-.9-.6-1.5v-2.9h-.6v-1h.7v-1.8h1.2v1.8h1.6v1l-1.5-.1zm7.4 1.7v3.2h-1.2v-5.9h1.2v1.1c.2-.4.4-.6.8-.8.4-.2.8-.3 1.2-.3.9 0 1.6.4 1.9 1.1.6-.8 1.3-1.1 2.2-1.1.7 0 1.2.2 1.6.6.4.4.6 1 .6 1.8v3.6h-1.2v-3.2c0-1.1-.5-1.6-1.4-1.6-.4 0-.8.1-1.1.4-.3.3-.5.7-.5 1.2v3.3h-1.2v-3.2c0-.6-.1-1-.3-1.2-.2-.3-.5-.4-.9-.4s-.8.1-1.1.4c-.5 0-.6.4-.6 1zm10.7 5.5c-.5 0-1-.2-1.5-.6l.6-1c.3.2.5.4.8.4s.5-.1.7-.3c.2-.2.3-.4.3-.7 0-.1-.8-2.1-2.4-6h1.3l1.8 4.3 1.8-4.3h1.3l-2.9 7c-.2.4-.4.7-.7.9-.4.2-.7.3-1.1.3zm11.8-8.3c.8 0 1.5.3 2 .8.6.5.8 1.3.8 2.2 0 .9-.3 1.6-.8 2.2-.6.6-1.2.8-2 .8-.7 0-1.4-.3-2-1v.9h-1.2v-8.2h1.2v3.3c.6-.6 1.2-1 2-1zm-1.9 3c0 .6.2 1 .5 1.4.3.4.8.5 1.2.5.5 0 .9-.2 1.3-.5.4-.4.5-.8.5-1.4s-.2-1-.5-1.4c-.4-.4-.8-.6-1.3-.6s-.9.2-1.3.6c-.2.4-.4.9-.4 1.4zm11.7.6h-4.6c0 .4.2.8.6 1 .4.3.8.4 1.2.4.7 0 1.3-.2 1.7-.7l.7.8c-.6.7-1.5 1-2.5 1-.8 0-1.5-.3-2.1-.8-.6-.6-.9-1.3-.9-2.2s.3-1.7.9-2.2c.6-.5 1.3-.8 2.1-.8s1.5.2 2.1.7.8 1.1.8 2v.8zm-4.6-1h3.4c0-.5-.2-.9-.5-1.1-.3-.3-.7-.4-1.2-.4s-.9.1-1.2.4c-.3.3-.5.6-.5 1.1zm8.4 3.5c-.7 0-1.4-.3-2-.8-.6-.5-.8-1.3-.8-2.2 0-.9.3-1.6.9-2.2.6-.5 1.2-.8 2-.8s1.4.3 1.9 1v-3.2h1.2v8.2h-1.2v-.9c-.5.5-1.1.9-2 .9zm-1.6-3c0 .6.2 1 .5 1.4.4.4.8.5 1.3.5s.9-.2 1.2-.5c.3-.4.5-.8.5-1.4 0-.6-.2-1-.5-1.4-.3-.4-.8-.6-1.3-.6s-.9.2-1.3.6c-.2.3-.4.8-.4 1.4zm9.7-1.8c-.6 0-1.1.2-1.4.6-.3.4-.5.9-.5 1.6v2.5h-1.2v-5.9h1.2v1.2c.2-.4.5-.7.8-.9.3-.2.7-.4 1.1-.4v1.3c.1 0 .1 0 0 0zm2.6 3.1c.4.4.8.5 1.3.5s1-.2 1.3-.5c.4-.4.5-.8.5-1.4s-.2-1-.5-1.4c-.3-.4-.8-.5-1.3-.5s-1 .2-1.3.5c-.3.4-.5.8-.5 1.4s.2 1.1.5 1.4zm3.6.8c-.6.6-1.3.9-2.2.9s-1.6-.3-2.2-.9c-.6-.6-.9-1.3-.9-2.2 0-.8.3-1.6.9-2.1.6-.6 1.3-.9 2.2-.9s1.6.3 2.2.9c.6.6.9 1.3.9 2.1 0 .9-.3 1.6-.9 2.2zm3.6-.8c.4.4.8.5 1.3.5s1-.2 1.3-.5c.4-.4.5-.8.5-1.4s-.2-1-.5-1.4c-.3-.4-.8-.5-1.3-.5s-1 .2-1.3.5c-.3.4-.5.8-.5 1.4s.2 1.1.5 1.4zm3.6.8c-.6.6-1.3.9-2.2.9s-1.6-.3-2.2-.9c-.6-.6-.9-1.3-.9-2.2 0-.8.3-1.6.9-2.1.6-.6 1.3-.9 2.2-.9s1.6.3 2.2.9c.6.6.9 1.3.9 2.1 0 .9-.3 1.6-.9 2.2zm3.6-2.4v3.2h-1.2v-5.9h1.2v1.1c.2-.4.4-.6.8-.8.4-.2.8-.3 1.2-.3.9 0 1.6.4 1.9 1.1.6-.8 1.3-1.1 2.2-1.1.7 0 1.2.2 1.6.6.4.4.6 1 .6 1.8v3.6h-1.2v-3.2c0-1.1-.5-1.6-1.4-1.6-.4 0-.8.1-1.1.4-.3.3-.5.7-.5 1.2v3.3h-1.2v-3.2c0-.6-.1-1-.3-1.2-.2-.3-.5-.4-.9-.4s-.8.1-1.1.4c-.5 0-.6.4-.6 1z"/>
        <path opacity=".77" fill="#FEBF00" enable-background="new" d="M16.3 149c-.3 0-.5.1-.7.2s-.3.3-.3.5.1.4.3.5c.2.1.6.3 1.2.4s1 .3 1.3.6.5.6.5 1.2c0 .5-.2.9-.6 1.2s-.9.5-1.5.5c-.9 0-1.7-.3-2.4-.9l.6-.7c.6.5 1.2.8 1.8.8.3 0 .6-.1.7-.2.2-.1.3-.3.3-.5s-.1-.4-.3-.5c-.2-.1-.5-.2-.9-.3-.4-.1-.8-.2-1-.3l-.6-.3c-.3-.3-.5-.7-.5-1.2s.2-.9.6-1.2c.4-.3.9-.4 1.5-.4.4 0 .7.1 1.1.2.4.1.7.3.9.5l-.5.7c-.2-.2-.4-.3-.7-.4-.2-.4-.5-.4-.8-.4zm7.4 3.2h-3.5c0 .3.2.6.4.8.3.2.6.3.9.3.6 0 1-.2 1.3-.5l.5.6c-.5.5-1.1.7-1.9.7-.6 0-1.2-.2-1.6-.6-.4-.4-.6-1-.6-1.7s.2-1.2.7-1.7c.4-.4 1-.6 1.6-.6s1.1.2 1.5.5c.4.4.6.9.6 1.5v.7h.1zm-3.4-.7h2.5c0-.4-.1-.7-.3-.9-.2-.2-.5-.3-.9-.3-.3 0-.6.1-.9.3-.3.2-.4.5-.4.9zm5.4 2.5h-.9v-6.1h.9v6.1zm5.5-1.8h-3.5c0 .3.2.6.4.8.3.2.6.3.9.3.6 0 1-.2 1.3-.5l.5.6c-.5.5-1.1.7-1.9.7-.6 0-1.2-.2-1.6-.6-.4-.4-.6-1-.6-1.7s.2-1.2.7-1.7c.4-.4 1-.6 1.6-.6s1.1.2 1.5.5c.4.4.6.9.6 1.5v.7h.1zm-3.5-.7h2.5c0-.4-.1-.7-.3-.9-.2-.2-.5-.3-.9-.3-.3 0-.6.1-.9.3-.3.2-.4.5-.4.9zm6.5 2.5c-.6 0-1.1-.2-1.6-.6-.4-.4-.7-1-.7-1.6 0-.7.2-1.2.7-1.6.5-.4 1-.6 1.7-.6s1.2.2 1.7.7l-.5.7c-.4-.3-.8-.5-1.2-.5s-.7.1-1 .4c-.3.3-.4.6-.4 1s.1.7.4 1c.3.3.6.4 1 .4s.8-.2 1.2-.6l.5.6c-.5.5-1.1.7-1.8.7zm3.9-3.7v2.2c0 .2.1.4.2.5.1.1.3.2.5.2s.4-.1.6-.3l.4.7c-.3.3-.7.4-1.1.4-.4 0-.7-.1-1-.4-.3-.3-.4-.6-.4-1.1v-2.2h-.6v-.7h.6v-1.4h.9v1.4h1.2v.7h-1.3zm6.5 3.7c-.6 0-1-.2-1.5-.6-.4-.4-.6-1-.6-1.7s.2-1.2.6-1.6c.4-.4.9-.6 1.5-.6s1.1.3 1.4.8v-.8h1v6h-.9v-2.3c-.5.6-1 .8-1.5.8zm-1.2-2.2c0 .4.1.8.4 1 .3.3.6.4 1 .4s.7-.1.9-.4c.3-.3.4-.6.4-1s-.1-.8-.4-1c-.3-.3-.6-.4-.9-.4-.4 0-.7.1-1 .4-.3.2-.4.6-.4 1zm8 .2v-2.4h.9v4.4h-.9v-.8c-.1.3-.4.5-.6.6-.3.2-.5.2-.8.2-.5 0-.9-.2-1.2-.5-.3-.3-.5-.7-.5-1.3v-2.7h.9v2.4c0 .8.3 1.2 1 1.2.3 0 .6-.1.8-.3.3-.1.4-.4.4-.8zm3.4.8c.3.3.6.4 1 .4s.7-.1 1-.4.4-.6.4-1-.1-.8-.4-1c-.3-.3-.6-.4-1-.4s-.7.1-1 .4c-.3.3-.4.6-.4 1s.1.7.4 1zm2.6.6c-.4.4-1 .7-1.7.7s-1.2-.2-1.7-.7c-.4-.4-.7-1-.7-1.6 0-.6.2-1.2.7-1.6.4-.4 1-.7 1.7-.7s1.2.2 1.7.7c.4.4.7 1 .7 1.6 0 .6-.2 1.1-.7 1.6zm2.8-3.1v2.2c0 .2.1.4.2.5.1.1.3.2.5.2s.4-.1.6-.3l.4.7c-.3.3-.7.4-1.1.4-.4 0-.7-.1-1-.4-.3-.3-.4-.6-.4-1.1v-2.2h-.6v-.7h.6v-1.4h.9v1.4h1.2v.7h-1.3zm6.5 1.9h-3.5c0 .3.2.6.4.8.3.2.6.3.9.3.6 0 1-.2 1.3-.5l.5.6c-.5.5-1.1.7-1.9.7-.6 0-1.2-.2-1.6-.6-.4-.4-.6-1-.6-1.7s.2-1.2.7-1.7c.4-.4 1-.6 1.6-.6.6 0 1.1.2 1.5.5.4.4.6.9.6 1.5l.1.7zm-3.5-.7h2.5c0-.4-.1-.7-.3-.9-.2-.2-.5-.3-.9-.3-.3 0-.6.1-.9.3-.3.2-.4.5-.4.9z"/>
        <path fill="#333" d="M43.4 190.7v2.1h3.4v1.2h-3.4v3.2h-1.3v-7.7h5.2v1.2h-3.9zm6.4 6.5h-1.2v-5.9h1.2v5.9zm-1.1-7.1c-.2-.2-.2-.3-.2-.6 0-.2.1-.4.2-.6.2-.2.3-.2.6-.2.2 0 .4.1.6.2.2.2.2.3.2.6 0 .2-.1.4-.2.6s-.3.2-.6.2c-.3.1-.5 0-.6-.2zm4.5 2.2v3c0 .3.1.5.2.7.1.2.4.2.6.2.3 0 .5-.1.8-.4l.5.9c-.4.4-.9.6-1.5.6-.5 0-1-.2-1.4-.5-.4-.4-.6-.9-.6-1.5v-2.9h-.7v-1h.7v-1.8H53v1.8h1.6v1l-1.4-.1zm4.6 0v3c0 .3.1.5.2.7.1.2.4.2.6.2.3 0 .5-.1.8-.4l.5.9c-.4.4-.9.6-1.5.6-.5 0-1-.2-1.4-.5-.4-.4-.6-.9-.6-1.5v-2.9h-.7v-1h.7v-1.8h1.2v1.8h1.6v1l-1.4-.1zm4.3 4.9h-1.2v-5.9h1.2v5.9zm-1.1-7.1c-.2-.2-.2-.3-.2-.6 0-.2.1-.4.2-.6.2-.2.3-.2.6-.2.2 0 .4.1.6.2.2.2.2.3.2.6 0 .2-.1.4-.2.6-.2.2-.3.2-.6.2-.3.1-.5 0-.6-.2zm4.2 3.9v3.2H64v-5.9h1.2v1.1c.2-.4.5-.6.8-.8.4-.2.7-.3 1.1-.3.7 0 1.2.2 1.6.6.4.4.6 1 .6 1.8v3.6h-1.2V194c0-1.1-.5-1.6-1.4-1.6-.4 0-.8.1-1.1.4-.2.2-.4.7-.4 1.2zm11.4-2.7v5.1c0 1-.3 1.8-.9 2.3s-1.3.8-2.2.8-1.7-.3-2.4-.8l.6-.9c.6.4 1.2.7 1.7.7.6 0 1.1-.2 1.4-.5.3-.3.5-.8.5-1.4v-.8c-.2.3-.5.6-.8.8-.3.2-.7.3-1.2.3-.8 0-1.4-.3-1.9-.8s-.8-1.2-.8-2 .3-1.5.8-2 1.1-.8 1.9-.8 1.4.3 1.9 1v-.9h1.4v-.1zM72 194c0 .5.1.9.4 1.2.3.3.7.5 1.2.5s.9-.2 1.2-.5c.3-.3.5-.8.5-1.3s-.2-.9-.5-1.3-.7-.5-1.2-.5-.9.2-1.2.5c-.3.5-.4.9-.4 1.4zm10.7 0v3.2h-1.2v-5.9h1.2v1.1c.2-.4.5-.6.8-.8.4-.2.7-.3 1.1-.3.7 0 1.2.2 1.6.6.4.4.6 1 .6 1.8v3.6h-1.2V194c0-1.1-.5-1.6-1.4-1.6-.4 0-.8.1-1.1.4-.3.2-.4.7-.4 1.2zm11.4.8h-4.6c0 .4.2.8.6 1 .4.3.8.4 1.2.4.7 0 1.3-.2 1.7-.7l.7.8c-.6.7-1.5 1-2.5 1-.8 0-1.5-.3-2.1-.8-.6-.6-.9-1.3-.9-2.2 0-.9.3-1.7.9-2.2s1.3-.8 2.1-.8 1.5.2 2.1.7.8 1.1.8 2v.8zm-4.6-1h3.4c0-.5-.2-.9-.5-1.1-.3-.3-.7-.4-1.2-.4s-.9.1-1.2.4c-.4.3-.5.6-.5 1.1zm8.7 3.4h-1.4l-2-5.9H96l1.5 4.4 1.5-4.4h1.3l1.5 4.4 1.5-4.4h1.3l-2 5.9H101l-1.4-4-1.4 4zm16.6-6c.8 0 1.5.3 2 .8.6.5.8 1.3.8 2.2s-.3 1.6-.8 2.2c-.6.6-1.2.8-2 .8-.7 0-1.4-.3-2-1v.9h-1.2V189h1.2v3.3c.6-.7 1.2-1.1 2-1.1zm-1.9 3.1c0 .6.2 1 .5 1.4.3.4.8.5 1.2.5.5 0 .9-.2 1.3-.5.4-.4.5-.8.5-1.4s-.2-1-.5-1.4c-.4-.4-.8-.6-1.3-.6s-.9.2-1.3.6c-.3.3-.4.8-.4 1.4zm11 2.9h-1.1v-.8c-.5.6-1.1.9-2 .9-.6 0-1.1-.2-1.5-.5-.4-.3-.6-.8-.6-1.4 0-.6.2-1 .6-1.3s1-.4 1.7-.4h1.6v-.2c0-.8-.4-1.2-1.3-1.2-.5 0-1.1.2-1.7.6l-.6-.8c.7-.6 1.5-.8 2.4-.8.7 0 1.3.2 1.7.5.4.3.7.9.7 1.6v3.8h.1zm-1.2-2.2v-.5h-1.4c-.9 0-1.3.3-1.3.8 0 .3.1.5.3.7.2.1.5.2.9.2s.7-.1 1-.3c.3-.2.5-.5.5-.9zm4.4-2.7v3c0 .3.1.5.2.7s.4.2.6.2c.3 0 .5-.1.8-.4l.5.9c-.4.4-.9.6-1.5.6-.5 0-1-.2-1.4-.5-.4-.4-.6-.9-.6-1.5v-2.9h-.7v-1h.7v-1.8h1.2v1.8h1.6v1l-1.4-.1zm4.3 1.7v3.2h-1.2V189h1.2v3.4c.2-.4.4-.6.8-.8.4-.2.8-.3 1.2-.3.7 0 1.2.2 1.6.6.4.4.6 1 .6 1.8v3.6h-1.2V194c0-1.1-.5-1.6-1.4-1.6-.4 0-.8.1-1.1.4-.3.2-.5.7-.5 1.2zm9.1-1.5c-.6 0-1.1.2-1.4.6-.3.4-.5.9-.5 1.6v2.5h-1.2v-5.9h1.2v1.2c.2-.4.5-.7.8-.9s.7-.4 1.1-.4v1.3zm2.5 3.1c.4.4.8.5 1.3.5s1-.2 1.3-.5c.4-.4.5-.8.5-1.4 0-.6-.2-1-.5-1.4-.3-.4-.8-.5-1.3-.5s-1 .2-1.3.5c-.3.4-.5.8-.5 1.4 0 .6.2 1.1.5 1.4zm3.6.8c-.6.6-1.3.9-2.2.9s-1.6-.3-2.2-.9c-.6-.6-.9-1.3-.9-2.2 0-.8.3-1.6.9-2.1.6-.6 1.3-.9 2.2-.9s1.6.3 2.2.9c.6.6.9 1.3.9 2.1 0 .9-.3 1.6-.9 2.2zm3.7-.8c.4.4.8.5 1.3.5s1-.2 1.3-.5c.4-.4.5-.8.5-1.4 0-.6-.2-1-.5-1.4-.3-.4-.8-.5-1.3-.5s-1 .2-1.3.5c-.3.4-.5.8-.5 1.4 0 .6.1 1.1.5 1.4zm3.5.8c-.6.6-1.3.9-2.2.9s-1.6-.3-2.2-.9c-.6-.6-.9-1.3-.9-2.2 0-.8.3-1.6.9-2.1.6-.6 1.3-.9 2.2-.9s1.6.3 2.2.9c.6.6.9 1.3.9 2.1 0 .9-.3 1.6-.9 2.2zm3.6-2.4v3.2h-1.2v-5.9h1.2v1.1c.2-.4.4-.6.8-.8.4-.2.8-.3 1.2-.3.9 0 1.6.4 1.9 1.1.6-.8 1.3-1.1 2.2-1.1.7 0 1.2.2 1.6.6.4.4.6 1 .6 1.8v3.6h-1.2V194c0-1.1-.5-1.6-1.4-1.6-.4 0-.8.1-1.1.4s-.5.7-.5 1.2v3.3h-1.2V194c0-.6-.1-1-.3-1.2-.2-.3-.5-.4-.9-.4s-.8.1-1.1.4c-.5.2-.6.7-.6 1.2zm17.2 1.4c0 .6-.2 1-.6 1.3-.4.3-.9.5-1.6.5-.4 0-.9-.1-1.3-.2-.5-.2-.9-.4-1.2-.7l.6-1c.7.5 1.4.8 2 .8.3 0 .5-.1.7-.2.2-.1.2-.3.2-.5 0-.3-.4-.6-1.2-.8h-.1c-1.2-.3-1.8-.9-1.8-1.7 0-.5.2-1 .6-1.3.4-.3 1-.5 1.7-.5s1.3.2 1.9.6l-.5.9c-.5-.3-1-.5-1.6-.5-.3 0-.5.1-.7.2s-.3.3-.3.5.1.3.3.4c.1.1.3.1.6.2.2.1.5.1.6.2.2.1.4.1.5.2l.6.3c.4.4.6.8.6 1.3zm2.7 1.8H176v-5.9h1.2v5.9h.1zm-1.2-7.1c-.2-.2-.2-.3-.2-.6 0-.2.1-.4.2-.6.2-.2.3-.2.6-.2.2 0 .4.1.6.2.2.2.2.3.2.6 0 .2-.1.4-.2.6s-.3.2-.6.2c-.2.1-.4 0-.6-.2zm4.2 3.9v3.2h-1.2v-5.9h1.2v1.1c.2-.4.5-.6.8-.8.4-.2.7-.3 1.1-.3.7 0 1.2.2 1.6.6.4.4.6 1 .6 1.8v3.6h-1.2V194c0-1.1-.5-1.6-1.4-1.6-.4 0-.8.1-1.1.4-.2.2-.4.7-.4 1.2zm7.2 3.2h-1.2V189h1.2v4.8l2.4-2.5h1.6l-2.2 2.3 2.4 3.5h-1.5l-1.8-2.6-.9.9v1.8zm5.3-.2c-.2-.2-.2-.4-.2-.6 0-.2.1-.4.2-.6.2-.2.4-.2.6-.2.2 0 .4.1.6.2.2.2.2.3.2.6 0 .2-.1.4-.2.6-.2.2-.4.2-.6.2-.3.1-.5 0-.6-.2zm3.1 0c-.2-.2-.2-.4-.2-.6 0-.2.1-.4.2-.6.2-.2.4-.2.6-.2s.4.1.6.2c.2.2.2.3.2.6 0 .2-.1.4-.2.6-.2.2-.4.2-.6.2s-.5 0-.6-.2zm3.1 0c-.2-.2-.2-.4-.2-.6 0-.2.1-.4.2-.6.2-.2.4-.2.6-.2.2 0 .4.1.6.2.2.2.2.3.2.6 0 .2-.1.4-.2.6-.2.2-.4.2-.6.2-.3.1-.4 0-.6-.2z"/>
        <path opacity=".77" fill="#00BAD3" enable-background="new" d="M16.5 205.6c.9 0 1.5.2 1.9.5.4.3.6.9.6 1.6s-.2 1.2-.6 1.5-1 .5-1.9.5h-1v1.7h-1v-5.8h2zm.1 3.2c.5 0 .9-.1 1.1-.3s.3-.5.3-.9-.1-.7-.4-.9c-.2-.2-.6-.2-1.2-.2h-1v2.3h1.2zm5.8-1c-.5 0-.8.1-1 .4-.2.3-.3.7-.3 1.2v1.9h-.9V207h.8v.9c.1-.3.4-.5.6-.7.3-.2.5-.3.8-.3v.9zm1.9 2.4c.3.3.6.4 1 .4s.7-.1 1-.4c.3-.3.4-.6.4-1s-.1-.8-.4-1c-.3-.3-.6-.4-1-.4s-.7.1-1 .4c-.3.3-.4.6-.4 1s.2.7.4 1zm2.7.6c-.4.4-1 .7-1.7.7s-1.2-.2-1.7-.7c-.4-.4-.7-1-.7-1.6 0-.6.2-1.2.7-1.6.4-.4 1-.7 1.7-.7s1.2.2 1.7.7c.4.4.7 1 .7 1.6 0 .6-.3 1.1-.7 1.6zm3.7.6c-.6 0-1.1-.2-1.6-.6-.4-.4-.7-1-.7-1.6 0-.7.2-1.2.7-1.6.5-.4 1-.6 1.7-.6s1.2.2 1.7.7l-.5.7c-.4-.3-.8-.5-1.2-.5s-.7.1-1 .4c-.3.3-.4.6-.4 1s.1.7.4 1c.3.3.6.4 1 .4s.8-.2 1.2-.6l.5.6c-.5.5-1.1.7-1.8.7zm6.9-1.8h-3.5c0 .3.2.6.4.8.3.2.6.3.9.3.6 0 1-.2 1.3-.5l.5.6c-.5.5-1.1.7-1.9.7-.6 0-1.2-.2-1.6-.6-.4-.4-.6-1-.6-1.7s.2-1.2.7-1.7c.4-.4 1-.6 1.6-.6s1.1.2 1.5.5c.4.4.6.9.6 1.5l.1.7zm-3.4-.8h2.5c0-.4-.1-.7-.3-.9-.2-.2-.5-.3-.9-.3-.3 0-.6.1-.9.3-.3.3-.4.6-.4.9zm7.6 1.2c0 .4-.2.8-.5 1-.3.2-.7.4-1.2.4-.3 0-.7-.1-1-.2-.3-.1-.6-.3-.9-.5l.4-.7c.5.4 1 .6 1.5.6.2 0 .4 0 .5-.1.1-.1.2-.2.2-.4s-.3-.4-.9-.6h-.1c-.9-.2-1.4-.7-1.4-1.2 0-.4.2-.7.5-1 .3-.2.7-.4 1.2-.4s1 .1 1.4.4l-.3.7c-.4-.2-.8-.4-1.2-.4-.2 0-.4 0-.5.1-.1.1-.2.2-.2.4 0 .1.1.2.2.3.1 0 .2.1.4.1s.3.1.5.1c.1 0 .3.1.4.1.1.1.3.1.4.2.5.4.6.7.6 1.1zm4.2 0c0 .4-.2.8-.5 1-.3.2-.7.4-1.2.4-.3 0-.7-.1-1-.2-.3-.1-.6-.3-.9-.5l.4-.7c.5.4 1 .6 1.5.6.2 0 .4 0 .5-.1.1-.1.2-.2.2-.4s-.3-.4-.9-.6H44c-.9-.2-1.4-.7-1.4-1.2 0-.4.2-.7.5-1 .3-.2.7-.4 1.2-.4s1 .1 1.4.4l-.3.7c-.4-.2-.8-.4-1.2-.4-.2 0-.4 0-.5.1-.1.1-.2.2-.2.4 0 .1.1.2.2.3.1 0 .2.1.4.1s.3.1.5.1c.1 0 .3.1.4.1.1.1.3.1.4.2.5.4.6.7.6 1.1zm2 1.4h-.9V207h.9v4.4zm-.9-5.3c-.1-.1-.2-.3-.2-.4 0-.2.1-.3.2-.4.1-.1.3-.2.4-.2.2 0 .3.1.4.2.1.1.2.3.2.4 0 .2-.1.3-.2.4-.1.1-.3.2-.4.2-.1 0-.2-.1-.4-.2zm3.2 2.9v2.4h-.9V207h.9v.8c.1-.3.4-.5.6-.6.3-.2.6-.2.9-.2.5 0 .9.2 1.2.5.3.3.5.7.5 1.3v2.7h-.9v-2.4c0-.8-.3-1.2-1-1.2-.3 0-.6.1-.8.3-.4.1-.5.4-.5.8zm8.5-2v3.8c0 .8-.2 1.4-.6 1.7-.4.4-1 .6-1.6.6s-1.3-.2-1.8-.6l.4-.7c.4.3.9.5 1.3.5s.8-.1 1-.3c.3-.2.4-.6.4-1.1v-.6c-.1.3-.3.5-.6.6-.3.2-.5.2-.9.2-.6 0-1.1-.2-1.4-.6-.4-.4-.6-.9-.6-1.5s.2-1.1.6-1.5c.4-.4.9-.6 1.4-.6.6 0 1.1.2 1.4.7v-.6h1zm-3.4 2c0 .4.1.7.3.9.2.3.5.4.9.4s.7-.1.9-.4c.2-.3.4-.6.4-.9 0-.4-.1-.7-.4-1-.2-.3-.5-.4-.9-.4s-.7.1-.9.4c-.2.3-.3.6-.3 1z"/>
        <path fill="#00BAD3" d="M16 187.1h19.4c1.1 0 2.1.9 2.1 2.1v9c0 1.1-.9 2.1-2.1 2.1H16c-1.1 0-2.1-.9-2.1-2.1v-9c0-1.1.9-2.1 2.1-2.1z"/>
        <path d="M20.2 137.1h1.3v2.6c-.7.8-1.8 1.2-3.1 1.2-1.1 0-2.1-.4-2.9-1.1-.8-.8-1.2-1.7-1.2-2.8 0-1.1.4-2.1 1.2-2.9.8-.8 1.7-1.1 2.9-1.1 1.1 0 2 .3 2.8 1l-.7 1c-.3-.3-.6-.4-.9-.5s-.7-.2-1.1-.2c-.8 0-1.4.3-2 .8-.5.5-.8 1.2-.8 2s.3 1.5.8 2 1.1.7 1.9.7c.7 0 1.4-.2 1.9-.5l-.1-2.2zm7.6 3.8h-1.1v-.8c-.5.6-1.1.9-2 .9-.6 0-1.1-.2-1.5-.5-.4-.3-.6-.8-.6-1.4 0-.6.2-1 .6-1.3s1-.4 1.7-.4h1.6v-.2c0-.8-.4-1.2-1.3-1.2-.5 0-1.1.2-1.7.6l-.6-.8c.7-.6 1.5-.8 2.4-.8.7 0 1.3.2 1.7.5.4.3.7.9.7 1.6l.1 3.8zm-1.3-2.2v-.5h-1.4c-.9 0-1.3.3-1.3.8 0 .3.1.5.3.7.2.1.5.2.9.2s.7-.1 1-.3c.4-.2.5-.5.5-.9zm6.1-2.5c-.6 0-1.1.2-1.4.6s-.5.9-.5 1.6v2.5h-1.2V135h1.2v1.2c.2-.4.5-.7.8-.9s.7-.4 1.1-.4v1.3c.1 0 0 0 0 0zm3.7 4.8c-.7 0-1.4-.3-2-.8-.6-.6-.8-1.3-.8-2.2s.3-1.6.9-2.2c.6-.5 1.2-.8 2-.8s1.4.3 1.9 1v-3.2h1.2v8.2h-1.2v-1c-.4.6-1.1 1-2 1zm-1.5-3c0 .6.2 1 .5 1.4.4.4.8.5 1.3.5s.9-.2 1.2-.5c.3-.4.5-.8.5-1.4 0-.6-.2-1-.5-1.4s-.8-.6-1.3-.6-.9.2-1.3.6c-.2.3-.4.8-.4 1.4zm12.1.5h-4.6c0 .4.2.8.6 1 .4.3.8.4 1.2.4.7 0 1.3-.2 1.7-.7l.7.8c-.6.7-1.5 1-2.5 1-.8 0-1.5-.3-2.1-.8-.6-.6-.9-1.3-.9-2.2s.3-1.7.9-2.2c.6-.5 1.3-.8 2.1-.8s1.5.2 2.1.7.8 1.1.8 2v.8zm-4.7-1h3.4c0-.5-.2-.9-.5-1.1-.3-.3-.7-.4-1.2-.4s-.9.1-1.2.4c-.3.3-.5.6-.5 1.1zm7.3.2v3.2h-1.2V135h1.2v1.1c.2-.4.5-.6.8-.8.4-.2.7-.3 1.1-.3.7 0 1.2.2 1.6.6.4.4.6 1 .6 1.8v3.6h-1.2v-3.2c0-1.1-.5-1.6-1.4-1.6-.4 0-.8.1-1.1.4-.3.1-.4.5-.4 1.1zm12.1-2.8c.8 0 1.5.3 2 .8.6.5.8 1.3.8 2.2 0 .9-.3 1.6-.8 2.2-.6.6-1.2.8-2 .8-.7 0-1.4-.3-2-1v3h-1.2v-8h1.2v1c.6-.6 1.2-1 2-1zm-1.9 3c0 .6.2 1 .5 1.4.3.4.8.5 1.2.5s.9-.2 1.3-.5c.4-.4.5-.8.5-1.4 0-.6-.2-1-.5-1.4-.4-.4-.8-.6-1.3-.6s-.9.2-1.3.6c-.3.4-.4.9-.4 1.4zm11 3h-1.1v-.8c-.5.6-1.1.9-2 .9-.6 0-1.1-.2-1.5-.5-.4-.3-.6-.8-.6-1.4 0-.6.2-1 .6-1.3s1-.4 1.7-.4h1.6v-.2c0-.8-.4-1.2-1.3-1.2-.5 0-1.1.2-1.7.6l-.6-.8c.7-.6 1.5-.8 2.4-.8.7 0 1.3.2 1.7.5.4.3.7.9.7 1.6v3.8h.1zm-1.3-2.2v-.5H68c-.9 0-1.3.3-1.3.8 0 .3.1.5.3.7.2.1.5.2.9.2s.7-.1 1-.3c.4-.2.5-.5.5-.9zm4.3 2.2h-1.2V135h1.2v5.9zm-1.2-7.1c-.2-.2-.2-.3-.2-.6 0-.2.1-.4.2-.6.2-.2.3-.2.6-.2s.4.1.6.2c.2.1.2.3.2.6 0 .2-.1.4-.2.6s-.3.2-.6.2-.4 0-.6-.2zm4.2 3.9v3.2h-1.2V135h1.2v1.1c.2-.4.5-.6.8-.8.4-.2.7-.3 1.1-.3.7 0 1.2.2 1.6.6s.6 1 .6 1.8v3.6h-1.2v-3.2c0-1.1-.5-1.6-1.4-1.6-.4 0-.8.1-1.1.4-.2.1-.4.5-.4 1.1zm7.4-1.7v3c0 .3.1.5.2.7s.4.2.6.2c.3 0 .5-.1.8-.4l.5.9c-.4.4-.9.6-1.5.6-.5 0-1-.2-1.4-.5-.4-.4-.6-.9-.6-1.5v-3H82v-1h.7v-1.8h1.2v1.8h1.6v1h-1.4zm4.3 4.9h-1.2V135h1.2v5.9zm-1.1-7.1c-.2-.2-.2-.3-.2-.6 0-.2.1-.4.2-.6.2-.2.3-.2.6-.2.2 0 .4.1.6.2.2.2.2.3.2.6 0 .2-.1.4-.2.6-.2.2-.3.2-.6.2-.3.1-.5 0-.6-.2zm4.2 3.9v3.2h-1.2V135h1.2v1.1c.2-.4.5-.6.8-.8.4-.2.7-.3 1.1-.3.7 0 1.2.2 1.6.6s.6 1 .6 1.8v3.6h-1.2v-3.2c0-1.1-.5-1.6-1.4-1.6-.4 0-.8.1-1.1.4-.3.1-.4.5-.4 1.1zm11.4-2.7v5.1c0 1-.3 1.8-.9 2.3-.6.5-1.3.8-2.2.8s-1.7-.3-2.4-.8l.6-.9c.6.4 1.2.7 1.7.7.6 0 1.1-.2 1.4-.5.3-.3.5-.8.5-1.4v-.8c-.2.3-.5.6-.8.8-.3.2-.7.3-1.2.3-.8 0-1.4-.3-1.9-.8s-.8-1.2-.8-2 .3-1.5.8-2 1.1-.8 1.9-.8 1.4.3 1.9 1v-1h1.4zm-4.6 2.7c0 .5.1.9.4 1.2.3.3.7.5 1.2.5s.9-.2 1.2-.5c.3-.3.5-.8.5-1.3s-.2-.9-.5-1.3-.7-.5-1.2-.5-.9.2-1.2.5c-.3.5-.4.9-.4 1.4zm12.2 3.2h-1.4l-2-5.9h1.3l1.5 4.4 1.5-4.4h1.3l1.5 4.4 1.5-4.4h1.3l-2 5.9h-1.4l-1.4-4-1.7 4zm8.6-1.6c.4.4.8.5 1.3.5s1-.2 1.3-.5c.4-.4.5-.8.5-1.4 0-.6-.2-1-.5-1.4-.3-.4-.8-.5-1.3-.5s-1 .2-1.3.5c-.3.4-.5.8-.5 1.4 0 .6.2 1.1.5 1.4zm3.6.8c-.6.6-1.3.9-2.2.9s-1.6-.3-2.2-.9-.9-1.3-.9-2.2c0-.8.3-1.6.9-2.1.6-.6 1.3-.9 2.2-.9s1.6.3 2.2.9.9 1.3.9 2.1c0 .9-.3 1.6-.9 2.2zm5.4-3.9c-.6 0-1.1.2-1.4.6s-.5.9-.5 1.6v2.5H125V135h1.2v1.2c.2-.4.5-.7.8-.9s.7-.4 1.1-.4v1.3zm2.5 4.7h-1.2v-8.2h1.2v4.8l2.4-2.5h1.6l-2.2 2.3 2.4 3.5h-1.5l-1.8-2.6-.9.9v1.8z"/>
        <linearGradient id="h" gradientUnits="userSpaceOnUse" x1="244.8" y1="472.954" x2="244.8" y2="485.373" gradientTransform="translate(0 -330)">
            <stop offset="0" stop-color="#2990cf"/>
            <stop offset="1" stop-color="#0c77b8"/>
        </linearGradient>
        <ellipse fill="url(#h)" cx="244.8" cy="149.1" rx="6.2" ry="6.2"/>
        <path fill="#FFF" d="M19.4 191.1c.7 0 1.3.1 1.6.4.3.3.5.7.5 1.3 0 .6-.2 1-.5 1.3s-.9.4-1.6.4h-.9v1.4h-.8v-4.8h1.7zm.1 2.6c.5 0 .8-.1.9-.3.2-.2.2-.4.2-.8 0-.3-.1-.6-.3-.7-.2-.1-.5-.2-1-.2h-.8v1.9l1 .1zm3.4 1.1l-.5 1.1h-.9l2.1-4.8h.9l2.1 4.8h-.9l-.5-1.1h-2.3zm2.1-.8l-.9-2-.9 2H25zm2.4-2.9h.8v4.8h-.8v-4.8zm3.8 0c.9 0 1.5.2 2 .6s.7 1 .7 1.8c0 .7-.2 1.3-.7 1.8-.5.4-1.1.7-2.1.7h-1.6v-4.8l1.7-.1zm1.9 2.4c0-1.1-.6-1.7-1.9-1.7h-.8v3.3h.9c.6 0 1-.1 1.3-.4.3-.3.5-.7.5-1.2z"/>
        <path fill="#FFF" d="M244.9 148.9c.3-.3.5-.5.6-.7s.2-.3.2-.5-.1-.3-.2-.4c-.1-.1-.3-.2-.5-.2-.4 0-.7.2-.9.5l-.6-.3c.2-.3.4-.5.6-.6.2-.1.5-.2.9-.2s.7.1 1 .3.4.5.4.9c0 .2-.1.4-.2.6-.1.2-.3.5-.6.8l-1 1h2v.7h-3v-.6l1.3-1.3z"/>
        <linearGradient id="i" gradientUnits="userSpaceOnUse" x1="244.8" y1="530.931" x2="244.8" y2="543.351" gradientTransform="translate(0 -330)">
            <stop offset="0" stop-color="#2990cf"/>
            <stop offset="1" stop-color="#0c77b8"/>
        </linearGradient>
        <ellipse fill="url(#i)" cx="244.8" cy="207.1" rx="6.2" ry="6.2"/>
        <path opacity=".77" fill="#979797" enable-background="new" d="M235.3 136.6c.5 0 .9-.2 1.1-.5.2-.3.4-.8.4-1.4-.1.2-.3.3-.6.4s-.5.2-.9.2c-.5 0-1-.2-1.3-.5s-.5-.8-.5-1.4c0-.6.2-1 .6-1.4.4-.3.9-.5 1.4-.5.9 0 1.6.4 1.9 1.2.2.5.3 1 .3 1.6 0 .6-.1 1.1-.2 1.5-.1.4-.3.7-.5.9-.4.5-1 .7-1.6.7s-1.2-.2-1.7-.6l.5-.7c.1.1.3.2.5.3.2.2.4.2.6.2zm.1-2.1c.3 0 .6-.1.8-.3s.3-.4.3-.7c0-.3-.1-.6-.3-.8s-.5-.3-.8-.3-.6.1-.8.3-.3.4-.3.7c0 .3.1.5.3.8.2.2.5.3.8.3zm3.6 2.8c-.1-.1-.2-.3-.2-.4 0-.1.1-.3.2-.4.1-.1.3-.2.4-.2.2 0 .3.1.4.2.1.1.2.3.2.4 0 .1-.1.3-.2.4-.1.1-.3.2-.4.2-.2 0-.3-.1-.4-.2zm0-2c-.1-.1-.2-.3-.2-.4 0-.1.1-.3.2-.4.1-.1.3-.2.4-.2.2 0 .3.1.4.2.1.1.2.3.2.4 0 .1-.1.3-.2.4-.1.1-.3.2-.4.2-.2 0-.3-.1-.4-.2zm5.7-3.7v.9h-2.5v1.4c.2-.1.5-.2.8-.2.5 0 1 .2 1.4.5.4.3.6.8.6 1.3 0 .6-.2 1-.6 1.4-.4.4-.9.5-1.5.5-.8 0-1.4-.3-1.9-.8l.5-.7.2.2c.1.1.2.1.5.2.2.1.5.1.8.1s.5-.1.8-.2c.3-.1.3-.4.3-.7s-.1-.6-.4-.7c-.2-.2-.5-.3-.9-.3s-.7.1-1 .3l-.4-.4v-2.8h3.3zm3.7.8c-.5 0-.9.2-1.1.5-.2.3-.4.8-.4 1.4.1-.2.3-.3.6-.4.3-.1.5-.2.9-.2.5 0 1 .2 1.3.5.4.3.5.8.5 1.4 0 .6-.2 1-.6 1.4-.4.3-.9.5-1.4.5-.9 0-1.6-.4-1.9-1.2-.2-.5-.3-1-.3-1.6 0-.6.1-1.1.2-1.5.1-.4.3-.7.5-.9.4-.5 1-.7 1.6-.7s1.2.2 1.7.6l-.5.7c-.1-.1-.3-.2-.5-.3-.3-.1-.4-.2-.6-.2zm-.2 2.2c-.3 0-.6.1-.8.3-.2.2-.3.4-.3.7 0 .3.1.5.3.8.2.2.5.3.8.3s.6-.1.8-.3.3-.4.3-.7-.1-.5-.3-.8c-.2-.2-.5-.3-.8-.3z"/>
        <path fill="#FFF" d="M244 205.2h1.6v4.3h-.7v-3.7h-.9v-.6z"/>
        <path opacity=".77" fill="#979797" enable-background="new" d="M230.5 79.2h2.1V85h-.9v-4.9h-1.2v-.9zm3.2 0h2.1V85h-.9v-4.9h-1.2v-.9zm6.2.9v-.9h2.8V83c0 .7-.2 1.2-.5 1.5-.3.3-.8.5-1.3.5-.7 0-1.3-.2-1.7-.7l.6-.8c.4.4.7.5 1.1.5.3 0 .5-.1.6-.3.2-.2.3-.4.3-.8v-3h-1.9v.2zm7.3 2.9v-2.4h.9V85h-.9v-.8c-.1.3-.4.5-.6.6-.3.2-.5.2-.8.2-.5 0-.9-.2-1.2-.5-.3-.3-.5-.7-.5-1.3v-2.7h.9V83c0 .8.3 1.2 1 1.2.3 0 .6-.1.8-.3.3-.2.4-.5.4-.9zm3.2 2h-.9v-6.1h.9V85z"/>
        <path opacity=".05" fill="none" stroke="#000" enable-background="new" d="M5.2 115.7H260"/>
        <path opacity=".77" fill="#979797" enable-background="new" d="M236.7 189.6h2.1v5.8h-.9v-4.9h-1.2v-.9zm3.2 0h2.1v5.8h-.9v-4.9h-1.2v-.9zm3.7 5.7c-.1-.1-.2-.3-.2-.4 0-.2.1-.3.2-.4.1-.1.3-.2.4-.2s.3.1.4.2c.1.1.2.3.2.4 0 .2-.1.3-.2.4-.1.1-.3.2-.4.2s-.3-.1-.4-.2zm0-2c-.1-.1-.2-.3-.2-.4 0-.2.1-.3.2-.4.1-.1.3-.2.4-.2s.3.1.4.2c.1.1.2.3.2.4 0 .2-.1.3-.2.4-.1.1-.3.2-.4.2s-.3-.1-.4-.2zm1.9-3.7h2.1v5.8h-.9v-4.9h-1.2v-.9zm3.2 0h2.1v5.8h-.9v-4.9h-1.2v-.9z"/>
        <path opacity=".05" fill="none" stroke="#000" enable-background="new" d="M5.3 170.6h254.8"/>
        <path opacity=".05" fill="none" stroke="#000" enable-background="new" d="M5.3 226h254.8"/>
        <path opacity=".05" fill="none" stroke="#000" enable-background="new" d="M5.3 281.2h254.8"/>
        <path opacity=".05" fill="none" stroke="#000" enable-background="new" d="M5.3 335.7h254.8"/>
        <path fill="#00BAD3" d="M.1 171h5.2v55H.1v-55z"/>
        <path opacity=".77" fill="#81C53E" enable-background="new" d="M14.7 316.6v-.9h2.8v3.8c0 .7-.2 1.2-.5 1.5s-.8.5-1.3.5c-.7 0-1.3-.2-1.7-.7l.6-.8c.4.4.7.5 1.1.5.3 0 .5-.1.6-.3.2-.2.3-.4.3-.8v-3h-1.9v.2zm5.2 3.8c.3.3.6.4 1 .4s.7-.1 1-.4.4-.6.4-1-.1-.8-.4-1c-.3-.3-.6-.4-1-.4s-.7.1-1 .4c-.3.3-.4.6-.4 1s.2.7.4 1zm2.7.5c-.4.4-1 .7-1.7.7s-1.2-.2-1.7-.7c-.4-.4-.7-1-.7-1.6s.2-1.2.7-1.6c.4-.4 1-.7 1.7-.7s1.2.2 1.7.7c.4.4.7 1 .7 1.6s-.2 1.2-.7 1.6zm4.1-3.8c.6 0 1.1.2 1.5.6.4.4.6 1 .6 1.6s-.2 1.2-.6 1.7c-.4.4-.9.6-1.5.6s-1.1-.2-1.5-.7v.7h-.9v-6.1h.9v2.5c.4-.7.9-.9 1.5-.9zm-1.5 2.2c0 .4.1.8.4 1 .3.3.6.4.9.4.4 0 .7-.1 1-.4s.4-.6.4-1-.1-.8-.4-1.1c-.3-.3-.6-.4-1-.4s-.7.1-.9.4c-.2.4-.4.7-.4 1.1zm8.8 2.3c-.6 0-1-.2-1.5-.6s-.6-1-.6-1.7.2-1.2.6-1.6c.4-.4.9-.6 1.5-.6s1.1.2 1.4.7v-2.4h.9v6.1h-.9v-.7c-.2.6-.7.8-1.4.8zm-1.1-2.2c0 .4.1.8.4 1 .3.2.6.4 1 .4s.7-.1.9-.4c.3-.3.4-.6.4-1s-.1-.8-.4-1.1-.6-.4-.9-.4c-.4 0-.7.1-1 .4s-.4.6-.4 1.1zm5.9 1c.3.3.6.4 1 .4s.7-.1 1-.4.4-.6.4-1-.1-.8-.4-1c-.3-.3-.6-.4-1-.4s-.7.1-1 .4c-.3.3-.4.6-.4 1s.2.7.4 1zm2.7.5c-.4.4-1 .7-1.7.7s-1.2-.2-1.7-.7c-.4-.4-.7-1-.7-1.6s.2-1.2.7-1.6c.4-.4 1-.7 1.7-.7s1.2.2 1.7.7c.4.4.7 1 .7 1.6s-.3 1.2-.7 1.6zm2.7-1.8v2.4h-.9v-4.4h.9v.8c.1-.3.4-.5.6-.6.3-.2.6-.2.9-.2.5 0 .9.2 1.2.5s.5.7.5 1.3v2.7h-.9v-2.4c0-.8-.3-1.2-1-1.2-.3 0-.6.1-.8.3-.4.1-.5.4-.5.8zm8.5.6h-3.5c0 .3.2.6.4.8.3.2.6.3.9.3.6 0 1-.2 1.3-.5l.5.6c-.5.5-1.1.7-1.9.7-.6 0-1.2-.2-1.6-.6-.4-.4-.6-1-.6-1.7s.2-1.2.7-1.7c.5-.5 1-.6 1.6-.6s1.1.2 1.5.5c.4.4.6.9.6 1.5l.1.7zm-3.4-.7h2.5c0-.4-.1-.7-.3-.9-.2-.2-.5-.3-.9-.3-.3 0-.6.1-.9.3-.3.3-.4.6-.4.9z"/>
        <path fill="#81C53E" d="M16 297.3h19.4c1.1 0 2.1.9 2.1 2.1v9c0 1.1-.9 2.1-2.1 2.1H16c-1.1 0-2.1-.9-2.1-2.1v-9c0-1.2.9-2.1 2.1-2.1z"/>
        <path fill="#333" d="M43.4 300.8v2.1h3.4v1.2h-3.4v3.2h-1.3v-7.7h5.2v1.2h-3.9zm6.4 6.5h-1.2v-5.9h1.2v5.9zm-1.1-7c-.2-.2-.2-.3-.2-.6s.1-.4.2-.6c.2-.2.3-.2.6-.2.2 0 .4.1.6.2s.2.3.2.6-.1.4-.2.6c-.1.2-.3.2-.6.2s-.5 0-.6-.2zm4.5 2.2v3c0 .3.1.5.2.7.1.2.4.2.6.2.3 0 .5-.1.8-.4l.5.9c-.4.4-.9.6-1.5.6-.5 0-1-.2-1.4-.5-.4-.4-.6-.9-.6-1.5v-2.9h-.7v-1h.7v-1.8H53v1.8h1.6v1h-1.4v-.1zm4.6 0v3c0 .3.1.5.2.7.1.2.4.2.6.2.3 0 .5-.1.8-.4l.5.9c-.4.4-.9.6-1.5.6-.5 0-1-.2-1.4-.5-.4-.4-.6-.9-.6-1.5v-2.9h-.7v-1h.7v-1.8h1.2v1.8h1.6v1h-1.4v-.1zm4.3 4.8h-1.2v-5.9h1.2v5.9zm-1.1-7c-.2-.2-.2-.3-.2-.6s.1-.4.2-.6c.2-.2.3-.2.6-.2.2 0 .4.1.6.2.2.2.2.3.2.6s-.1.4-.2.6c-.2.2-.3.2-.6.2s-.5 0-.6-.2zm4.2 3.9v3.2H64v-5.9h1.2v1.1c.2-.4.5-.6.8-.8.4-.2.7-.3 1.1-.3.7 0 1.2.2 1.6.6.4.4.6 1 .6 1.8v3.6h-1.2v-3.2c0-1.1-.5-1.6-1.4-1.6-.4 0-.8.1-1.1.4-.2.1-.4.5-.4 1.1zm11.4-2.7v5.1c0 1-.3 1.8-.9 2.3s-1.3.8-2.2.8-1.7-.3-2.4-.8l.6-.9c.6.4 1.2.7 1.7.7.6 0 1.1-.2 1.4-.5s.5-.8.5-1.4v-.8c-.2.3-.5.6-.8.8-.3.2-.7.3-1.2.3-.8 0-1.4-.3-1.9-.8s-.8-1.2-.8-2 .3-1.5.8-2 1.1-.8 1.9-.8 1.4.3 1.9 1v-.9h1.4v-.1zm-4.6 2.7c0 .5.1.9.4 1.2.3.3.7.5 1.2.5s.9-.2 1.2-.5c.3-.3.5-.8.5-1.3s-.2-.9-.5-1.3-.7-.5-1.2-.5-.9.2-1.2.5c-.3.5-.4.9-.4 1.4zm10.7 0v3.2h-1.2v-5.9h1.2v1.1c.2-.4.5-.6.8-.8.4-.2.7-.3 1.1-.3.7 0 1.2.2 1.6.6.4.4.6 1 .6 1.8v3.6h-1.2v-3.2c0-1.1-.5-1.6-1.4-1.6-.4 0-.8.1-1.1.4-.3.1-.4.5-.4 1.1zm11.4.8h-4.6c0 .4.2.8.6 1 .4.3.8.4 1.2.4.7 0 1.3-.2 1.7-.7l.7.8c-.6.7-1.5 1-2.5 1-.8 0-1.5-.3-2.1-.8-.6-.6-.9-1.3-.9-2.2 0-.9.3-1.7.9-2.2s1.3-.8 2.1-.8 1.5.2 2.1.7c.6.5.8 1.1.8 2v.8zm-4.6-1h3.4c0-.5-.2-.9-.5-1.1-.3-.3-.7-.4-1.2-.4s-.9.1-1.2.4c-.4.2-.5.6-.5 1.1zm8.7 3.3h-1.4l-2-5.9H96l1.5 4.4 1.5-4.4h1.3l1.5 4.4 1.5-4.4h1.3l-2 5.9H101l-1.4-4-1.4 4zm16.6-5.9c.8 0 1.5.3 2 .8.6.5.8 1.3.8 2.2s-.3 1.6-.8 2.2c-.6.6-1.2.8-2 .8-.7 0-1.4-.3-2-1v.9h-1.2v-8.2h1.2v3.3c.6-.6 1.2-1 2-1zm-1.9 3c0 .6.2 1 .5 1.4s.8.5 1.2.5c.5 0 .9-.2 1.3-.5s.5-.8.5-1.4-.2-1-.5-1.4c-.4-.4-.8-.6-1.3-.6s-.9.2-1.3.6c-.3.4-.4.9-.4 1.4zm11 2.9h-1.1v-.8c-.5.6-1.1.9-2 .9-.6 0-1.1-.2-1.5-.5s-.6-.8-.6-1.4c0-.6.2-1 .6-1.3.4-.3 1-.4 1.7-.4h1.6v-.2c0-.8-.4-1.2-1.3-1.2-.5 0-1.1.2-1.7.6l-.6-.8c.7-.6 1.5-.8 2.4-.8.7 0 1.3.2 1.7.5.4.3.7.9.7 1.6v3.8h.1zm-1.2-2.1v-.5h-1.4c-.9 0-1.3.3-1.3.8 0 .3.1.5.3.7.2.1.5.2.9.2s.7-.1 1-.3c.3-.3.5-.6.5-.9zm4.4-2.7v3c0 .3.1.5.2.7.1.2.4.2.6.2.3 0 .5-.1.8-.4l.5.9c-.4.4-.9.6-1.5.6-.5 0-1-.2-1.4-.5-.4-.4-.6-.9-.6-1.5v-2.9h-.7v-1h.7v-1.8h1.2v1.8h1.6v1h-1.4v-.1zm4.3 1.7v3.2h-1.2v-8.2h1.2v3.4c.2-.4.4-.6.8-.8.4-.2.8-.3 1.2-.3.7 0 1.2.2 1.6.6.4.4.6 1 .6 1.8v3.6h-1.2v-3.2c0-1.1-.5-1.6-1.4-1.6-.4 0-.8.1-1.1.4-.3.1-.5.5-.5 1.1zm9.1-1.6c-.6 0-1.1.2-1.4.6-.3.4-.5.9-.5 1.6v2.5h-1.2v-5.9h1.2v1.2c.2-.4.5-.7.8-.9s.7-.4 1.1-.4v1.3zm2.5 3.2c.4.4.8.5 1.3.5s1-.2 1.3-.5c.4-.4.5-.8.5-1.4s-.2-1-.5-1.4-.8-.5-1.3-.5-1 .2-1.3.5c-.3.4-.5.8-.5 1.4s.2 1 .5 1.4zm3.6.8c-.6.6-1.3.9-2.2.9s-1.6-.3-2.2-.9c-.6-.6-.9-1.3-.9-2.2 0-.9.3-1.6.9-2.1.6-.6 1.3-.9 2.2-.9s1.6.3 2.2.9c.6.6.9 1.3.9 2.1s-.3 1.6-.9 2.2zm3.7-.8c.4.4.8.5 1.3.5s1-.2 1.3-.5c.4-.4.5-.8.5-1.4s-.2-1-.5-1.4-.8-.5-1.3-.5-1 .2-1.3.5c-.3.4-.5.8-.5 1.4s.1 1 .5 1.4zm3.5.8c-.6.6-1.3.9-2.2.9s-1.6-.3-2.2-.9c-.6-.6-.9-1.3-.9-2.2 0-.9.3-1.6.9-2.1.6-.6 1.3-.9 2.2-.9s1.6.3 2.2.9c.6.6.9 1.3.9 2.1s-.3 1.6-.9 2.2zm3.6-2.4v3.2h-1.2v-5.9h1.2v1.1c.2-.4.4-.6.8-.8.4-.2.8-.3 1.2-.3.9 0 1.6.4 1.9 1.1.6-.8 1.3-1.1 2.2-1.1.7 0 1.2.2 1.6.6.4.4.6 1 .6 1.8v3.6h-1.2v-3.2c0-1.1-.5-1.6-1.4-1.6-.4 0-.8.1-1.1.4s-.5.7-.5 1.2v3.3h-1.2v-3.2c0-.6-.1-1-.3-1.2-.2-.3-.5-.4-.9-.4s-.8.1-1.1.4c-.5 0-.6.4-.6 1zm17.2 1.4c0 .6-.2 1-.6 1.3-.4.3-.9.5-1.6.5-.4 0-.9-.1-1.3-.2-.5-.2-.9-.4-1.2-.7l.6-1c.7.5 1.4.8 2 .8.3 0 .5-.1.7-.2s.2-.3.2-.5c0-.3-.4-.6-1.2-.8h-.1c-1.2-.3-1.8-.9-1.8-1.7 0-.5.2-1 .6-1.3.4-.3 1-.5 1.7-.5s1.3.2 1.9.6l-.5.9c-.5-.3-1-.5-1.6-.5-.3 0-.5.1-.7.2-.2.1-.3.3-.3.5s.1.3.3.4c.1.1.3.1.6.2.2.1.5.1.6.2.2.1.4.1.5.2l.6.3c.4.3.6.7.6 1.3zm2.7 1.7H176v-5.9h1.2v5.9h.1zm-1.2-7c-.2-.2-.2-.3-.2-.6s.1-.4.2-.6c.1-.2.3-.2.6-.2.2 0 .4.1.6.2s.2.3.2.6-.1.4-.2.6c-.1.2-.3.2-.6.2-.2 0-.4 0-.6-.2zm4.2 3.9v3.2h-1.2v-5.9h1.2v1.1c.2-.4.5-.6.8-.8.4-.2.7-.3 1.1-.3.7 0 1.2.2 1.6.6.4.4.6 1 .6 1.8v3.6h-1.2v-3.2c0-1.1-.5-1.6-1.4-1.6-.4 0-.8.1-1.1.4-.2.1-.4.5-.4 1.1zm7.2 3.1h-1.2v-8.2h1.2v4.8l2.4-2.5h1.6l-2.2 2.3 2.4 3.5h-1.5l-1.8-2.6-.9.9v1.8zm5.3-.1c-.2-.2-.2-.4-.2-.6 0-.2.1-.4.2-.6.2-.2.4-.2.6-.2.2 0 .4.1.6.2.2.2.2.3.2.6 0 .2-.1.4-.2.6-.2.2-.4.2-.6.2-.3 0-.5 0-.6-.2zm3.1 0c-.2-.2-.2-.4-.2-.6 0-.2.1-.4.2-.6.2-.2.4-.2.6-.2s.4.1.6.2c.2.2.2.3.2.6 0 .2-.1.4-.2.6-.2.2-.4.2-.6.2s-.5 0-.6-.2zm3.1 0c-.2-.2-.2-.4-.2-.6 0-.2.1-.4.2-.6.2-.2.4-.2.6-.2.2 0 .4.1.6.2.2.2.2.3.2.6 0 .2-.1.4-.2.6-.2.2-.4.2-.6.2-.3 0-.4 0-.6-.2z"/>
        <linearGradient id="j" gradientUnits="userSpaceOnUse" x1="244.8" y1="641.082" x2="244.8" y2="653.502" gradientTransform="translate(0 -330)">
            <stop offset="0" stop-color="#2990cf"/>
            <stop offset="1" stop-color="#0c77b8"/>
        </linearGradient>
        <ellipse fill="url(#j)" cx="244.8" cy="317.3" rx="6.2" ry="6.2"/>
        <path fill="#FFF" d="M19.4 301.2c.7 0 1.3.1 1.6.4.3.3.5.7.5 1.3 0 .6-.2 1-.5 1.3-.3.3-.9.4-1.6.4h-.9v1.4h-.8v-4.8h1.7zm.1 2.7c.5 0 .8-.1.9-.3.2-.2.2-.4.2-.8 0-.3-.1-.6-.3-.7-.2-.1-.5-.2-1-.2h-.8v1.9h1v.1zm3.4 1l-.5 1.1h-.9l2.1-4.8h.9l2.1 4.8h-.9l-.5-1.1h-2.3zm2.1-.7l-.9-2-.9 2H25zm2.4-3h.8v4.8h-.8v-4.8zm3.8 0c.9 0 1.5.2 2 .6.5.4.7 1 .7 1.8 0 .7-.2 1.3-.7 1.8-.5.4-1.1.7-2.1.7h-1.6v-4.8l1.7-.1zm1.9 2.4c0-1.1-.6-1.7-1.9-1.7h-.8v3.3h.9c.6 0 1-.1 1.3-.4.3-.2.5-.6.5-1.2z"/>
        <path fill="#FFF" d="M244 315.4h1.6v4.3h-.7V316h-.9v-.6z"/>
        <path fill="#81C53E" d="M.1 281.1h5.2v55H.1v-55z"/>
        <path opacity=".77" fill="#979797" enable-background="new" d="M236.7 299.8h2.1v5.8h-.9v-4.9h-1.2v-.9zm3.2 0h2.1v5.8h-.9v-4.9h-1.2v-.9zm3.7 5.7c-.1-.1-.2-.3-.2-.4 0-.2.1-.3.2-.4.1-.1.3-.2.4-.2s.3.1.4.2c.1.1.2.3.2.4 0 .2-.1.3-.2.4-.1.1-.3.2-.4.2s-.3-.1-.4-.2zm0-2.1c-.1-.1-.2-.3-.2-.4 0-.2.1-.3.2-.4.1-.1.3-.2.4-.2s.3.1.4.2c.1.1.2.3.2.4 0 .2-.1.3-.2.4-.1.1-.3.2-.4.2s-.3 0-.4-.2zm1.9-3.6h2.1v5.8h-.9v-4.9h-1.2v-.9zm3.2 0h2.1v5.8h-.9v-4.9h-1.2v-.9z"/>
        <path opacity=".77" fill="#00BAD3" enable-background="new" d="M16.5 260.8c.9 0 1.5.2 1.9.5s.6.9.6 1.6-.2 1.2-.6 1.5-1 .5-1.9.5h-1v1.7h-1v-5.8h2zm.1 3.2c.5 0 .9-.1 1.1-.3.2-.2.3-.5.3-.9s-.1-.7-.4-.9c-.2-.2-.6-.2-1.2-.2h-1v2.3h1.2zm5.8-1c-.5 0-.8.1-1 .4s-.3.7-.3 1.2v1.9h-.9v-4.4h.8v.9c.1-.3.4-.5.6-.7.3-.2.5-.3.8-.3v1zm1.9 2.4c.3.3.6.4 1 .4s.7-.1 1-.4.4-.6.4-1-.1-.8-.4-1c-.3-.3-.6-.4-1-.4s-.7.1-1 .4-.4.6-.4 1 .2.7.4 1zm2.7.5c-.4.4-1 .7-1.7.7s-1.2-.2-1.7-.7c-.4-.4-.7-1-.7-1.6 0-.6.2-1.2.7-1.6.4-.4 1-.7 1.7-.7s1.2.2 1.7.7c.4.4.7 1 .7 1.6 0 .7-.3 1.2-.7 1.6zm3.7.7c-.6 0-1.1-.2-1.6-.6-.4-.4-.7-1-.7-1.6 0-.7.2-1.2.7-1.6s1-.6 1.7-.6 1.2.2 1.7.7l-.5.7c-.4-.3-.8-.5-1.2-.5s-.7.1-1 .4-.4.6-.4 1 .1.7.4 1 .6.4 1 .4.8-.2 1.2-.6l.5.6c-.5.4-1.1.7-1.8.7zm6.9-1.9h-3.5c0 .3.2.6.4.8.3.2.6.3.9.3.6 0 1-.2 1.3-.5l.5.6c-.5.5-1.1.7-1.9.7-.6 0-1.2-.2-1.6-.6-.4-.4-.6-1-.6-1.7s.2-1.2.7-1.7c.4-.4 1-.6 1.6-.6s1.1.2 1.5.5c.4.4.6.9.6 1.5l.1.7zm-3.4-.7h2.5c0-.4-.1-.7-.3-.9s-.5-.3-.9-.3c-.3 0-.6.1-.9.3-.3.3-.4.6-.4.9zm7.6 1.2c0 .4-.2.8-.5 1-.3.2-.7.4-1.2.4-.3 0-.7-.1-1-.2-.3-.1-.6-.3-.9-.5l.4-.7c.5.4 1 .6 1.5.6.2 0 .4 0 .5-.1.1-.1.2-.2.2-.4s-.3-.4-.9-.6h-.1c-.9-.2-1.4-.7-1.4-1.2 0-.4.2-.7.5-1 .3-.2.7-.4 1.2-.4s1 .1 1.4.4l-.3.7c-.4-.2-.8-.4-1.2-.4-.2 0-.4 0-.5.1-.1.1-.2.2-.2.4 0 .1.1.2.2.3.1 0 .2.1.4.1s.3.1.5.1c.1 0 .3.1.4.1.1.1.3.1.4.2.5.4.6.7.6 1.1zm4.2 0c0 .4-.2.8-.5 1-.3.2-.7.4-1.2.4-.3 0-.7-.1-1-.2-.3-.1-.6-.3-.9-.5l.4-.7c.5.4 1 .6 1.5.6.2 0 .4 0 .5-.1.1-.1.2-.2.2-.4s-.3-.4-.9-.6H44c-.9-.2-1.4-.7-1.4-1.2 0-.4.2-.7.5-1 .3-.2.7-.4 1.2-.4s1 .1 1.4.4l-.3.7c-.4-.2-.8-.4-1.2-.4-.2 0-.4 0-.5.1-.1.1-.2.2-.2.4 0 .1.1.2.2.3.1 0 .2.1.4.1s.3.1.5.1.3.1.4.1c.1.1.3.1.4.2.5.4.6.7.6 1.1zm2 1.3h-.9v-4.4h.9v4.4zm-.9-5.2c-.1-.1-.2-.3-.2-.4s.1-.3.2-.4c.1-.1.3-.2.4-.2.2 0 .3.1.4.2.1.1.2.3.2.4s-.1.3-.2.4c-.1.1-.3.2-.4.2-.1-.1-.2-.1-.4-.2zm3.2 2.9v2.4h-.9v-4.4h.9v.8c.1-.3.4-.5.6-.6.3-.2.6-.2.9-.2.5 0 .9.2 1.2.5s.5.7.5 1.3v2.7h-.9v-2.4c0-.8-.3-1.2-1-1.2-.3 0-.6.1-.8.3-.4 0-.5.3-.5.8zm8.5-2.1v3.8c0 .8-.2 1.4-.6 1.7-.4.4-1 .6-1.6.6s-1.3-.2-1.8-.6l.4-.7c.4.3.9.5 1.3.5s.8-.1 1-.3c.3-.2.4-.6.4-1.1v-.6c-.1.3-.3.5-.6.6-.3.2-.5.2-.9.2-.6 0-1.1-.2-1.4-.6-.4-.4-.6-.9-.6-1.5s.2-1.1.6-1.5c.4-.4.9-.6 1.4-.6.6 0 1.1.2 1.4.7v-.7l1 .1zm-3.4 2.1c0 .4.1.7.3.9.2.3.5.4.9.4s.7-.1.9-.4.4-.6.4-.9c0-.4-.1-.7-.4-1-.2-.3-.5-.4-.9-.4s-.7.1-.9.4c-.2.3-.3.6-.3 1z"/>
        <linearGradient id="k" gradientUnits="userSpaceOnUse" x1="244.8" y1="586.094" x2="244.8" y2="598.514" gradientTransform="translate(0 -330)">
            <stop offset="0" stop-color="#2990cf"/>
            <stop offset="1" stop-color="#0c77b8"/>
        </linearGradient>
        <ellipse fill="url(#k)" cx="244.8" cy="262.3" rx="6.2" ry="6.2"/>
        <path fill="#333" d="M16.1 245.9v2.1h3.4v1.2h-3.4v3.2h-1.3v-7.7H20v1.2h-3.9zm6.5 6.5h-1.2v-5.9h1.2v5.9zm-1.2-7.1c-.2-.2-.2-.3-.2-.6 0-.2.1-.4.2-.6.2-.2.3-.2.6-.2.2 0 .4.1.6.2.2.2.2.3.2.6 0 .2-.1.4-.2.6-.2.2-.3.2-.6.2s-.5 0-.6-.2zm4.5 2.2v3c0 .3.1.5.2.7s.4.2.6.2c.3 0 .5-.1.8-.4l.5.9c-.4.4-.9.6-1.5.6-.5 0-1-.2-1.4-.5-.4-.4-.6-.9-.6-1.5v-2.9h-.7v-1h.7v-1.8h1.2v1.8h1.6v1l-1.4-.1zm4.6 0v3c0 .3.1.5.2.7s.4.2.6.2c.3 0 .5-.1.8-.4l.5.9c-.4.4-.9.6-1.5.6-.5 0-1-.2-1.4-.5-.4-.4-.6-.9-.6-1.5v-2.9h-.7v-1h.7v-1.8h1.2v1.8h1.6v1l-1.4-.1zm4.4 4.9h-1.2v-5.9h1.2v5.9zm-1.2-7.1c-.2-.2-.2-.3-.2-.6 0-.2.1-.4.2-.6.2-.2.3-.2.6-.2.2 0 .4.1.6.2.2.2.2.3.2.6 0 .2-.1.4-.2.6-.2.2-.3.2-.6.2s-.4 0-.6-.2zm4.2 3.9v3.2h-1.2v-5.9h1.2v1.1c.2-.4.5-.6.8-.8.4-.2.7-.3 1.1-.3.7 0 1.2.2 1.6.6.4.4.6 1 .6 1.8v3.6h-1.2v-3.2c0-1.1-.5-1.6-1.4-1.6-.4 0-.8.1-1.1.4-.2.1-.4.5-.4 1.1zm11.4-2.7v5.1c0 1-.3 1.8-.9 2.3-.6.5-1.3.8-2.2.8s-1.7-.3-2.4-.8l.6-.9c.6.4 1.2.7 1.7.7.6 0 1.1-.2 1.4-.5.3-.3.5-.8.5-1.4v-.8c-.2.3-.5.6-.8.8-.3.2-.7.3-1.2.3-.8 0-1.4-.3-1.9-.8s-.8-1.2-.8-2 .3-1.5.8-2 1.1-.8 1.9-.8c.8 0 1.4.3 1.9 1v-.9l1.4-.1zm-4.6 2.7c0 .5.1.9.4 1.2.3.3.7.5 1.2.5s.9-.2 1.2-.5c.3-.3.5-.8.5-1.3s-.2-.9-.5-1.3-.7-.5-1.2-.5-.9.2-1.2.5c-.3.5-.4.9-.4 1.4zm10.7 0v3.2h-1.2v-5.9h1.2v1.1c.2-.4.5-.6.8-.8.4-.2.7-.3 1.1-.3.7 0 1.2.2 1.6.6.4.4.6 1 .6 1.8v3.6h-1.2v-3.2c0-1.1-.5-1.6-1.4-1.6-.4 0-.8.1-1.1.4-.3.1-.4.5-.4 1.1zm11.4.8h-4.6c0 .4.2.8.6 1 .4.3.8.4 1.2.4.7 0 1.3-.2 1.7-.7l.7.8c-.6.7-1.5 1-2.5 1-.8 0-1.5-.3-2.1-.8-.6-.6-.9-1.3-.9-2.2s.3-1.7.9-2.2c.6-.5 1.3-.8 2.1-.8s1.5.2 2.1.7.8 1.1.8 2v.8zm-4.6-1h3.4c0-.5-.2-.9-.5-1.1-.3-.3-.7-.4-1.2-.4s-.9.1-1.2.4c-.3.2-.5.6-.5 1.1zm8.7 3.4h-1.4l-2-5.9h1.3l1.5 4.4 1.5-4.4H73l1.5 4.4 1.5-4.4h1.3l-2 5.9h-1.4l-1.4-4-1.6 4zm16.6-6c.8 0 1.5.3 2 .8.6.5.8 1.3.8 2.2 0 .9-.3 1.6-.8 2.2-.6.6-1.2.8-2 .8-.7 0-1.4-.3-2-1v.9h-1.2v-8.2h1.2v3.3c.6-.6 1.3-1 2-1zm-1.9 3c0 .6.2 1 .5 1.4.3.4.8.5 1.2.5.5 0 .9-.2 1.3-.5.4-.4.5-.8.5-1.4 0-.6-.2-1-.5-1.4-.4-.4-.8-.6-1.3-.6s-.9.2-1.3.6c-.2.4-.4.9-.4 1.4zm11 3h-1.1v-.8c-.5.6-1.1.9-2 .9-.6 0-1.1-.2-1.5-.5-.4-.3-.6-.8-.6-1.4s.2-1 .6-1.3 1-.4 1.7-.4h1.6v-.2c0-.8-.4-1.2-1.3-1.2-.5 0-1.1.2-1.7.6l-.6-.8c.7-.6 1.5-.8 2.4-.8.7 0 1.3.2 1.7.5.4.3.7.9.7 1.6v3.8h.1zm-1.2-2.2v-.5H94c-.9 0-1.3.3-1.3.8 0 .3.1.5.3.7.2.1.5.2.9.2s.7-.1 1-.3c.3-.3.5-.6.5-.9zm4.4-2.7v3c0 .3.1.5.2.7s.4.2.6.2c.3 0 .5-.1.8-.4l.5.9c-.4.4-.9.6-1.5.6-.5 0-1-.2-1.4-.5-.4-.4-.6-.9-.6-1.5v-2.9h-.7v-1h.7v-1.8h1.2v1.8h1.6v1l-1.4-.1zm4.4 1.7v3.2H103v-8.2h1.2v3.4c.2-.4.4-.6.8-.8.4-.2.8-.3 1.2-.3.7 0 1.2.2 1.6.6s.6 1 .6 1.8v3.6h-1.2v-3.2c0-1.1-.5-1.6-1.4-1.6-.4 0-.8.1-1.1.4-.4.1-.5.5-.5 1.1zm9-1.6c-.6 0-1.1.2-1.4.6-.3.4-.5.9-.5 1.6v2.5h-1.2v-5.9h1.2v1.2c.2-.4.5-.7.8-.9s.7-.4 1.1-.4v1.3zm2.6 3.2c.4.4.8.5 1.3.5s1-.2 1.3-.5c.4-.4.5-.8.5-1.4 0-.6-.2-1-.5-1.4-.3-.4-.8-.5-1.3-.5s-1 .2-1.3.5c-.3.4-.5.8-.5 1.4-.1.6.1 1 .5 1.4zm3.5.8c-.6.6-1.3.9-2.2.9s-1.6-.3-2.2-.9-.9-1.3-.9-2.2c0-.8.3-1.6.9-2.1.6-.6 1.3-.9 2.2-.9s1.6.3 2.2.9c.6.6.9 1.3.9 2.1 0 .9-.3 1.6-.9 2.2zm3.7-.8c.4.4.8.5 1.3.5s1-.2 1.3-.5c.4-.4.5-.8.5-1.4 0-.6-.2-1-.5-1.4-.3-.4-.8-.5-1.3-.5s-1 .2-1.3.5c-.3.4-.5.8-.5 1.4 0 .6.2 1 .5 1.4zm3.6.8c-.6.6-1.3.9-2.2.9s-1.6-.3-2.2-.9-.9-1.3-.9-2.2c0-.8.3-1.6.9-2.1.6-.6 1.3-.9 2.2-.9s1.6.3 2.2.9c.6.6.9 1.3.9 2.1-.1.9-.3 1.6-.9 2.2zm3.5-2.4v3.2h-1.2v-5.9h1.2v1.1c.2-.4.4-.6.8-.8.4-.2.8-.3 1.2-.3.9 0 1.6.4 1.9 1.1.6-.8 1.3-1.1 2.2-1.1.7 0 1.2.2 1.6.6.4.4.6 1 .6 1.8v3.6h-1.2v-3.2c0-1.1-.5-1.6-1.4-1.6-.4 0-.8.1-1.1.4-.3.3-.5.7-.5 1.2v3.3H133v-3.2c0-.6-.1-1-.3-1.2-.2-.3-.5-.4-.9-.4s-.8.1-1.1.4c-.4 0-.6.4-.6 1zm17.3 1.4c0 .6-.2 1-.6 1.3-.4.3-.9.5-1.6.5-.4 0-.9-.1-1.3-.2-.5-.2-.9-.4-1.2-.7l.6-1c.7.5 1.4.8 2 .8.3 0 .5-.1.7-.2s.2-.3.2-.5c0-.3-.4-.6-1.2-.8h-.1c-1.2-.3-1.8-.9-1.8-1.7 0-.5.2-1 .6-1.3.4-.3 1-.5 1.7-.5s1.3.2 1.9.6l-.5.9c-.5-.3-1-.5-1.6-.5-.3 0-.5.1-.7.2s-.3.3-.3.5.1.3.3.4c.1.1.3.1.6.2.2.1.5.1.6.2.2.1.4.1.5.2l.6.3c.4.3.6.7.6 1.3zm2.6 1.8h-1.2v-5.9h1.2v5.9zm-1.2-7.1c-.2-.2-.2-.3-.2-.6 0-.2.1-.4.2-.6.2-.2.3-.2.6-.2.2 0 .4.1.6.2.2.2.2.3.2.6 0 .2-.1.4-.2.6-.2.2-.3.2-.6.2-.2 0-.4 0-.6-.2zm4.2 3.9v3.2h-1.2v-5.9h1.2v1.1c.2-.4.5-.6.8-.8.4-.2.7-.3 1.1-.3.7 0 1.2.2 1.6.6.4.4.6 1 .6 1.8v3.6H156v-3.2c0-1.1-.5-1.6-1.4-1.6-.4 0-.8.1-1.1.4-.3.1-.5.5-.5 1.1zm7.2 3.2H159v-8.2h1.2v4.8l2.4-2.5h1.6l-2.2 2.3 2.4 3.5h-1.5l-1.8-2.6-.9.9v1.8zm5.3-.2c-.2-.2-.2-.4-.2-.6 0-.2.1-.4.2-.6.2-.2.4-.2.6-.2.2 0 .4.1.6.2.2.2.2.3.2.6 0 .2-.1.4-.2.6-.2.2-.4.2-.6.2-.3 0-.4 0-.6-.2zm3.1 0c-.2-.2-.2-.4-.2-.6 0-.2.1-.4.2-.6.2-.2.4-.2.6-.2.2 0 .4.1.6.2.2.2.2.3.2.6 0 .2-.1.4-.2.6-.2.2-.4.2-.6.2s-.4 0-.6-.2zm3.1 0c-.2-.2-.2-.4-.2-.6 0-.2.1-.4.2-.6.2-.2.4-.2.6-.2.2 0 .4.1.6.2.2.2.2.3.2.6 0 .2-.1.4-.2.6-.2.2-.4.2-.6.2-.2 0-.4 0-.6-.2z"/>
        <path fill="#FFF" d="M244 260.4h1.6v4.3h-.7V261h-.9v-.6z"/>
        <path fill="#00BAD3" d="M.1 226.1h5.2v55H.1v-55z"/>
        <path opacity=".77" fill="#979797" enable-background="new" d="M234.1 246.5v-1.7h4.1v.9l-2.5 4.9h-1.1l2.4-4.9h-2.1v.8h-.8zm7.6-.8v-.9h2.8v3.8c0 .7-.2 1.2-.5 1.5-.3.3-.8.5-1.3.5-.7 0-1.3-.2-1.7-.7l.6-.8c.4.4.7.5 1.1.5.3 0 .5-.1.6-.3.2-.2.3-.4.3-.8v-3h-1.9v.2zm7.3 2.9v-2.4h.9v4.4h-.9v-.8c-.1.3-.4.5-.6.6-.3.2-.5.2-.8.2-.5 0-.9-.2-1.2-.5-.3-.3-.5-.7-.5-1.3v-2.7h.9v2.4c0 .8.3 1.2 1 1.2.3 0 .6-.1.8-.3.3-.1.4-.4.4-.8zm3.2 2h-.9v-6.1h.9v6.1z"/>
        <path opacity=".77" fill="#00BAD3" enable-background="new" d="M16.5 260.8c.9 0 1.5.2 1.9.5s.6.9.6 1.6-.2 1.2-.6 1.5-1 .5-1.9.5h-1v1.7h-1v-5.8h2zm.1 3.2c.5 0 .9-.1 1.1-.3.2-.2.3-.5.3-.9s-.1-.7-.4-.9c-.2-.2-.6-.2-1.2-.2h-1v2.3h1.2zm5.8-1c-.5 0-.8.1-1 .4s-.3.7-.3 1.2v1.9h-.9v-4.4h.8v.9c.1-.3.4-.5.6-.7.3-.2.5-.3.8-.3v1zm1.9 2.4c.3.3.6.4 1 .4s.7-.1 1-.4.4-.6.4-1-.1-.8-.4-1c-.3-.3-.6-.4-1-.4s-.7.1-1 .4-.4.6-.4 1 .2.7.4 1zm2.7.5c-.4.4-1 .7-1.7.7s-1.2-.2-1.7-.7c-.4-.4-.7-1-.7-1.6 0-.6.2-1.2.7-1.6.4-.4 1-.7 1.7-.7s1.2.2 1.7.7c.4.4.7 1 .7 1.6 0 .7-.3 1.2-.7 1.6zm3.7.7c-.6 0-1.1-.2-1.6-.6-.4-.4-.7-1-.7-1.6 0-.7.2-1.2.7-1.6s1-.6 1.7-.6 1.2.2 1.7.7l-.5.7c-.4-.3-.8-.5-1.2-.5s-.7.1-1 .4-.4.6-.4 1 .1.7.4 1 .6.4 1 .4.8-.2 1.2-.6l.5.6c-.5.4-1.1.7-1.8.7zm6.9-1.9h-3.5c0 .3.2.6.4.8.3.2.6.3.9.3.6 0 1-.2 1.3-.5l.5.6c-.5.5-1.1.7-1.9.7-.6 0-1.2-.2-1.6-.6-.4-.4-.6-1-.6-1.7s.2-1.2.7-1.7c.4-.4 1-.6 1.6-.6s1.1.2 1.5.5c.4.4.6.9.6 1.5l.1.7zm-3.4-.7h2.5c0-.4-.1-.7-.3-.9s-.5-.3-.9-.3c-.3 0-.6.1-.9.3-.3.3-.4.6-.4.9zm7.6 1.2c0 .4-.2.8-.5 1-.3.2-.7.4-1.2.4-.3 0-.7-.1-1-.2-.3-.1-.6-.3-.9-.5l.4-.7c.5.4 1 .6 1.5.6.2 0 .4 0 .5-.1.1-.1.2-.2.2-.4s-.3-.4-.9-.6h-.1c-.9-.2-1.4-.7-1.4-1.2 0-.4.2-.7.5-1 .3-.2.7-.4 1.2-.4s1 .1 1.4.4l-.3.7c-.4-.2-.8-.4-1.2-.4-.2 0-.4 0-.5.1-.1.1-.2.2-.2.4 0 .1.1.2.2.3.1 0 .2.1.4.1s.3.1.5.1c.1 0 .3.1.4.1.1.1.3.1.4.2.5.4.6.7.6 1.1zm4.2 0c0 .4-.2.8-.5 1-.3.2-.7.4-1.2.4-.3 0-.7-.1-1-.2-.3-.1-.6-.3-.9-.5l.4-.7c.5.4 1 .6 1.5.6.2 0 .4 0 .5-.1.1-.1.2-.2.2-.4s-.3-.4-.9-.6H44c-.9-.2-1.4-.7-1.4-1.2 0-.4.2-.7.5-1 .3-.2.7-.4 1.2-.4s1 .1 1.4.4l-.3.7c-.4-.2-.8-.4-1.2-.4-.2 0-.4 0-.5.1-.1.1-.2.2-.2.4 0 .1.1.2.2.3.1 0 .2.1.4.1s.3.1.5.1.3.1.4.1c.1.1.3.1.4.2.5.4.6.7.6 1.1zm2 1.3h-.9v-4.4h.9v4.4zm-.9-5.2c-.1-.1-.2-.3-.2-.4s.1-.3.2-.4c.1-.1.3-.2.4-.2.2 0 .3.1.4.2.1.1.2.3.2.4s-.1.3-.2.4c-.1.1-.3.2-.4.2-.1-.1-.2-.1-.4-.2zm3.2 2.9v2.4h-.9v-4.4h.9v.8c.1-.3.4-.5.6-.6.3-.2.6-.2.9-.2.5 0 .9.2 1.2.5s.5.7.5 1.3v2.7h-.9v-2.4c0-.8-.3-1.2-1-1.2-.3 0-.6.1-.8.3-.4 0-.5.3-.5.8zm8.5-2.1v3.8c0 .8-.2 1.4-.6 1.7-.4.4-1 .6-1.6.6s-1.3-.2-1.8-.6l.4-.7c.4.3.9.5 1.3.5s.8-.1 1-.3c.3-.2.4-.6.4-1.1v-.6c-.1.3-.3.5-.6.6-.3.2-.5.2-.9.2-.6 0-1.1-.2-1.4-.6-.4-.4-.6-.9-.6-1.5s.2-1.1.6-1.5c.4-.4.9-.6 1.4-.6.6 0 1.1.2 1.4.7v-.7l1 .1zm-3.4 2.1c0 .4.1.7.3.9.2.3.5.4.9.4s.7-.1.9-.4.4-.6.4-.9c0-.4-.1-.7-.4-1-.2-.3-.5-.4-.9-.4s-.7.1-.9.4c-.2.3-.3.6-.3 1z"/>
        <linearGradient id="l" gradientUnits="userSpaceOnUse" x1="244.8" y1="586.094" x2="244.8" y2="598.514" gradientTransform="translate(0 -330)">
            <stop offset="0" stop-color="#2990cf"/>
            <stop offset="1" stop-color="#0c77b8"/>
        </linearGradient>
        <ellipse fill="url(#l)" cx="244.8" cy="262.3" rx="6.2" ry="6.2"/>
        <path fill="#333" d="M16.1 245.9v2.1h3.4v1.2h-3.4v3.2h-1.3v-7.7H20v1.2h-3.9zm6.5 6.5h-1.2v-5.9h1.2v5.9zm-1.2-7.1c-.2-.2-.2-.3-.2-.6 0-.2.1-.4.2-.6.2-.2.3-.2.6-.2.2 0 .4.1.6.2.2.2.2.3.2.6 0 .2-.1.4-.2.6-.2.2-.3.2-.6.2s-.5 0-.6-.2zm4.5 2.2v3c0 .3.1.5.2.7s.4.2.6.2c.3 0 .5-.1.8-.4l.5.9c-.4.4-.9.6-1.5.6-.5 0-1-.2-1.4-.5-.4-.4-.6-.9-.6-1.5v-2.9h-.7v-1h.7v-1.8h1.2v1.8h1.6v1l-1.4-.1zm4.6 0v3c0 .3.1.5.2.7s.4.2.6.2c.3 0 .5-.1.8-.4l.5.9c-.4.4-.9.6-1.5.6-.5 0-1-.2-1.4-.5-.4-.4-.6-.9-.6-1.5v-2.9h-.7v-1h.7v-1.8h1.2v1.8h1.6v1l-1.4-.1zm4.4 4.9h-1.2v-5.9h1.2v5.9zm-1.2-7.1c-.2-.2-.2-.3-.2-.6 0-.2.1-.4.2-.6.2-.2.3-.2.6-.2.2 0 .4.1.6.2.2.2.2.3.2.6 0 .2-.1.4-.2.6-.2.2-.3.2-.6.2s-.4 0-.6-.2zm4.2 3.9v3.2h-1.2v-5.9h1.2v1.1c.2-.4.5-.6.8-.8.4-.2.7-.3 1.1-.3.7 0 1.2.2 1.6.6.4.4.6 1 .6 1.8v3.6h-1.2v-3.2c0-1.1-.5-1.6-1.4-1.6-.4 0-.8.1-1.1.4-.2.1-.4.5-.4 1.1zm11.4-2.7v5.1c0 1-.3 1.8-.9 2.3-.6.5-1.3.8-2.2.8s-1.7-.3-2.4-.8l.6-.9c.6.4 1.2.7 1.7.7.6 0 1.1-.2 1.4-.5.3-.3.5-.8.5-1.4v-.8c-.2.3-.5.6-.8.8-.3.2-.7.3-1.2.3-.8 0-1.4-.3-1.9-.8s-.8-1.2-.8-2 .3-1.5.8-2 1.1-.8 1.9-.8c.8 0 1.4.3 1.9 1v-.9l1.4-.1zm-4.6 2.7c0 .5.1.9.4 1.2.3.3.7.5 1.2.5s.9-.2 1.2-.5c.3-.3.5-.8.5-1.3s-.2-.9-.5-1.3-.7-.5-1.2-.5-.9.2-1.2.5c-.3.5-.4.9-.4 1.4zm10.7 0v3.2h-1.2v-5.9h1.2v1.1c.2-.4.5-.6.8-.8.4-.2.7-.3 1.1-.3.7 0 1.2.2 1.6.6.4.4.6 1 .6 1.8v3.6h-1.2v-3.2c0-1.1-.5-1.6-1.4-1.6-.4 0-.8.1-1.1.4-.3.1-.4.5-.4 1.1zm11.4.8h-4.6c0 .4.2.8.6 1 .4.3.8.4 1.2.4.7 0 1.3-.2 1.7-.7l.7.8c-.6.7-1.5 1-2.5 1-.8 0-1.5-.3-2.1-.8-.6-.6-.9-1.3-.9-2.2s.3-1.7.9-2.2c.6-.5 1.3-.8 2.1-.8s1.5.2 2.1.7.8 1.1.8 2v.8zm-4.6-1h3.4c0-.5-.2-.9-.5-1.1-.3-.3-.7-.4-1.2-.4s-.9.1-1.2.4c-.3.2-.5.6-.5 1.1zm8.7 3.4h-1.4l-2-5.9h1.3l1.5 4.4 1.5-4.4H73l1.5 4.4 1.5-4.4h1.3l-2 5.9h-1.4l-1.4-4-1.6 4zm16.6-6c.8 0 1.5.3 2 .8.6.5.8 1.3.8 2.2 0 .9-.3 1.6-.8 2.2-.6.6-1.2.8-2 .8-.7 0-1.4-.3-2-1v.9h-1.2v-8.2h1.2v3.3c.6-.6 1.3-1 2-1zm-1.9 3c0 .6.2 1 .5 1.4.3.4.8.5 1.2.5.5 0 .9-.2 1.3-.5.4-.4.5-.8.5-1.4 0-.6-.2-1-.5-1.4-.4-.4-.8-.6-1.3-.6s-.9.2-1.3.6c-.2.4-.4.9-.4 1.4zm11 3h-1.1v-.8c-.5.6-1.1.9-2 .9-.6 0-1.1-.2-1.5-.5-.4-.3-.6-.8-.6-1.4s.2-1 .6-1.3 1-.4 1.7-.4h1.6v-.2c0-.8-.4-1.2-1.3-1.2-.5 0-1.1.2-1.7.6l-.6-.8c.7-.6 1.5-.8 2.4-.8.7 0 1.3.2 1.7.5.4.3.7.9.7 1.6v3.8h.1zm-1.2-2.2v-.5H94c-.9 0-1.3.3-1.3.8 0 .3.1.5.3.7.2.1.5.2.9.2s.7-.1 1-.3c.3-.3.5-.6.5-.9zm4.4-2.7v3c0 .3.1.5.2.7s.4.2.6.2c.3 0 .5-.1.8-.4l.5.9c-.4.4-.9.6-1.5.6-.5 0-1-.2-1.4-.5-.4-.4-.6-.9-.6-1.5v-2.9h-.7v-1h.7v-1.8h1.2v1.8h1.6v1l-1.4-.1zm4.4 1.7v3.2H103v-8.2h1.2v3.4c.2-.4.4-.6.8-.8.4-.2.8-.3 1.2-.3.7 0 1.2.2 1.6.6s.6 1 .6 1.8v3.6h-1.2v-3.2c0-1.1-.5-1.6-1.4-1.6-.4 0-.8.1-1.1.4-.4.1-.5.5-.5 1.1zm9-1.6c-.6 0-1.1.2-1.4.6-.3.4-.5.9-.5 1.6v2.5h-1.2v-5.9h1.2v1.2c.2-.4.5-.7.8-.9s.7-.4 1.1-.4v1.3zm2.6 3.2c.4.4.8.5 1.3.5s1-.2 1.3-.5c.4-.4.5-.8.5-1.4 0-.6-.2-1-.5-1.4-.3-.4-.8-.5-1.3-.5s-1 .2-1.3.5c-.3.4-.5.8-.5 1.4-.1.6.1 1 .5 1.4zm3.5.8c-.6.6-1.3.9-2.2.9s-1.6-.3-2.2-.9-.9-1.3-.9-2.2c0-.8.3-1.6.9-2.1.6-.6 1.3-.9 2.2-.9s1.6.3 2.2.9c.6.6.9 1.3.9 2.1 0 .9-.3 1.6-.9 2.2zm3.7-.8c.4.4.8.5 1.3.5s1-.2 1.3-.5c.4-.4.5-.8.5-1.4 0-.6-.2-1-.5-1.4-.3-.4-.8-.5-1.3-.5s-1 .2-1.3.5c-.3.4-.5.8-.5 1.4 0 .6.2 1 .5 1.4zm3.6.8c-.6.6-1.3.9-2.2.9s-1.6-.3-2.2-.9-.9-1.3-.9-2.2c0-.8.3-1.6.9-2.1.6-.6 1.3-.9 2.2-.9s1.6.3 2.2.9c.6.6.9 1.3.9 2.1-.1.9-.3 1.6-.9 2.2zm3.5-2.4v3.2h-1.2v-5.9h1.2v1.1c.2-.4.4-.6.8-.8.4-.2.8-.3 1.2-.3.9 0 1.6.4 1.9 1.1.6-.8 1.3-1.1 2.2-1.1.7 0 1.2.2 1.6.6.4.4.6 1 .6 1.8v3.6h-1.2v-3.2c0-1.1-.5-1.6-1.4-1.6-.4 0-.8.1-1.1.4-.3.3-.5.7-.5 1.2v3.3H133v-3.2c0-.6-.1-1-.3-1.2-.2-.3-.5-.4-.9-.4s-.8.1-1.1.4c-.4 0-.6.4-.6 1zm17.3 1.4c0 .6-.2 1-.6 1.3-.4.3-.9.5-1.6.5-.4 0-.9-.1-1.3-.2-.5-.2-.9-.4-1.2-.7l.6-1c.7.5 1.4.8 2 .8.3 0 .5-.1.7-.2s.2-.3.2-.5c0-.3-.4-.6-1.2-.8h-.1c-1.2-.3-1.8-.9-1.8-1.7 0-.5.2-1 .6-1.3.4-.3 1-.5 1.7-.5s1.3.2 1.9.6l-.5.9c-.5-.3-1-.5-1.6-.5-.3 0-.5.1-.7.2s-.3.3-.3.5.1.3.3.4c.1.1.3.1.6.2.2.1.5.1.6.2.2.1.4.1.5.2l.6.3c.4.3.6.7.6 1.3zm2.6 1.8h-1.2v-5.9h1.2v5.9zm-1.2-7.1c-.2-.2-.2-.3-.2-.6 0-.2.1-.4.2-.6.2-.2.3-.2.6-.2.2 0 .4.1.6.2.2.2.2.3.2.6 0 .2-.1.4-.2.6-.2.2-.3.2-.6.2-.2 0-.4 0-.6-.2zm4.2 3.9v3.2h-1.2v-5.9h1.2v1.1c.2-.4.5-.6.8-.8.4-.2.7-.3 1.1-.3.7 0 1.2.2 1.6.6.4.4.6 1 .6 1.8v3.6H156v-3.2c0-1.1-.5-1.6-1.4-1.6-.4 0-.8.1-1.1.4-.3.1-.5.5-.5 1.1zm7.2 3.2H159v-8.2h1.2v4.8l2.4-2.5h1.6l-2.2 2.3 2.4 3.5h-1.5l-1.8-2.6-.9.9v1.8zm5.3-.2c-.2-.2-.2-.4-.2-.6 0-.2.1-.4.2-.6.2-.2.4-.2.6-.2.2 0 .4.1.6.2.2.2.2.3.2.6 0 .2-.1.4-.2.6-.2.2-.4.2-.6.2-.3 0-.4 0-.6-.2zm3.1 0c-.2-.2-.2-.4-.2-.6 0-.2.1-.4.2-.6.2-.2.4-.2.6-.2.2 0 .4.1.6.2.2.2.2.3.2.6 0 .2-.1.4-.2.6-.2.2-.4.2-.6.2s-.4 0-.6-.2zm3.1 0c-.2-.2-.2-.4-.2-.6 0-.2.1-.4.2-.6.2-.2.4-.2.6-.2.2 0 .4.1.6.2.2.2.2.3.2.6 0 .2-.1.4-.2.6-.2.2-.4.2-.6.2-.2 0-.4 0-.6-.2z"/>
        <path fill="#FFF" d="M244 260.4h1.6v4.3h-.7V261h-.9v-.6z"/>
        <path fill="#00BAD3" d="M.1 226.1h5.2v55H.1v-55z"/>
        <path opacity=".77" fill="#979797" enable-background="new" d="M234.1 246.5v-1.7h4.1v.9l-2.5 4.9h-1.1l2.4-4.9h-2.1v.8h-.8zm7.6-.8v-.9h2.8v3.8c0 .7-.2 1.2-.5 1.5-.3.3-.8.5-1.3.5-.7 0-1.3-.2-1.7-.7l.6-.8c.4.4.7.5 1.1.5.3 0 .5-.1.6-.3.2-.2.3-.4.3-.8v-3h-1.9v.2zm7.3 2.9v-2.4h.9v4.4h-.9v-.8c-.1.3-.4.5-.6.6-.3.2-.5.2-.8.2-.5 0-.9-.2-1.2-.5-.3-.3-.5-.7-.5-1.3v-2.7h.9v2.4c0 .8.3 1.2 1 1.2.3 0 .6-.1.8-.3.3-.1.4-.4.4-.8zm3.2 2h-.9v-6.1h.9v6.1z"/>
        <path fill="#FEBF00" d="M.1 116h5.2v55H.1z"/>
        <linearGradient id="m" gradientUnits="userSpaceOnUse" x1="123.183" y1="737.784" x2="136.992" y2="796.018" gradientTransform="translate(0 -330)">
            <stop offset="0" stop-color="#004fa9"/>
            <stop offset="1" stop-color="#2a92d0"/>
        </linearGradient>
        <path fill="url(#m)" d="M.1 414.1h260v45.8H.1v-45.8z"/>
        <path fill="#FFF" d="M92.4 439l-.8 1.8h-1.4l3.4-7.7H95l3.4 7.7H97l-.8-1.8h-3.8zm3.4-1.2l-1.4-3.2-1.4 3.2h2.8zm6 3.1c-.7 0-1.4-.3-2-.8-.6-.6-.8-1.3-.8-2.2 0-.9.3-1.6.9-2.2.6-.5 1.2-.8 2-.8s1.4.3 1.9 1v-3.2h1.2v8.2h-1.2v-.9c-.4.6-1.1.9-2 .9zm-1.5-3c0 .6.2 1 .5 1.4.4.4.8.5 1.3.5s.9-.2 1.2-.5c.3-.4.5-.8.5-1.4 0-.6-.2-1-.5-1.4s-.8-.6-1.3-.6-.9.2-1.3.6c-.3.4-.4.8-.4 1.4zm9 3c-.7 0-1.4-.3-2-.8-.6-.6-.8-1.3-.8-2.2 0-.9.3-1.6.9-2.2.6-.5 1.2-.8 2-.8s1.4.3 1.9 1v-3.2h1.2v8.2h-1.2v-.9c-.5.6-1.2.9-2 .9zm-1.6-3c0 .6.2 1 .5 1.4.4.4.8.5 1.3.5s.9-.2 1.2-.5c.3-.4.5-.8.5-1.4 0-.6-.2-1-.5-1.4s-.8-.6-1.3-.6-.9.2-1.3.6c-.2.4-.4.8-.4 1.4zm12.7-1.8c-.6 0-1.1.2-1.4.6s-.5.9-.5 1.6v2.5h-1.2v-5.9h1.2v1.2c.2-.4.5-.7.8-.9.3-.2.7-.4 1.1-.4v1.3c.1 0 .1 0 0 0zm6.8 2.3h-4.6c0 .4.2.8.6 1 .4.3.8.4 1.2.4.7 0 1.3-.2 1.7-.7l.7.8c-.6.7-1.5 1-2.5 1-.8 0-1.5-.3-2.1-.8-.6-.6-.9-1.3-.9-2.2 0-.9.3-1.7.9-2.2s1.3-.8 2.1-.8 1.5.2 2.1.7c.6.5.8 1.1.8 2v.8zm-4.6-1h3.4c0-.5-.2-.9-.5-1.1-.3-.3-.7-.4-1.2-.4s-.9.1-1.2.4c-.3.3-.5.7-.5 1.1zm9.2-2.6c.8 0 1.5.3 2 .8.6.5.8 1.3.8 2.2 0 .9-.3 1.6-.8 2.2-.6.6-1.2.8-2 .8-.7 0-1.4-.3-2-1v3h-1.2v-8h1.2v1c.5-.6 1.2-1 2-1zm-2 3.1c0 .6.2 1 .5 1.4.3.4.8.5 1.2.5.5 0 .9-.2 1.3-.5.4-.4.5-.8.5-1.4 0-.6-.2-1-.5-1.4-.4-.4-.8-.6-1.3-.6s-.9.2-1.3.6c-.2.3-.4.8-.4 1.4zm11 2.9h-1.1v-.8c-.5.6-1.1.9-2 .9-.6 0-1.1-.2-1.5-.5-.4-.3-.6-.8-.6-1.4 0-.6.2-1 .6-1.3.4-.3 1-.4 1.7-.4h1.6v-.3c0-.8-.4-1.2-1.3-1.2-.5 0-1.1.2-1.7.6l-.6-.8c.7-.6 1.5-.8 2.4-.8.7 0 1.3.2 1.7.5s.7.9.7 1.6v3.9h.1zm-1.2-2.2v-.5h-1.4c-.9 0-1.3.3-1.3.8 0 .3.1.5.3.7.2.1.5.2.9.2s.7-.1 1-.3c.4-.2.5-.5.5-.9zm4.2 2.2h-1.2v-5.9h1.2v5.9zm-1.1-7c-.2-.2-.2-.3-.2-.6 0-.2.1-.4.2-.6.1-.2.3-.2.6-.2.2 0 .4.1.6.2s.2.3.2.6c0 .2-.1.4-.2.6-.1.2-.3.2-.6.2s-.5-.1-.6-.2zm6 2.3c-.6 0-1.1.2-1.4.6-.3.4-.5.9-.5 1.6v2.5h-1.2v-5.9h1.2v1.2c.2-.4.5-.7.8-.9.3-.2.7-.4 1.1-.4v1.3c.1 0 0 0 0 0zm4.4 5V435h1.2v6.2c0 .6-.2 1.1-.6 1.5-.4.4-.8.6-1.4.6-.5 0-1-.2-1.4-.6l.6-.9c.3.2.5.4.8.4s.5-.1.6-.2c.1-.4.2-.6.2-.9zm0-7.3c-.2-.2-.2-.3-.2-.6 0-.2.1-.4.2-.6.1-.2.3-.2.6-.2.2 0 .4.1.6.2s.2.3.2.6c0 .2-.1.4-.2.6-.1.2-.3.2-.6.2-.2 0-.4-.1-.6-.2zm4.4 5.4c.4.4.8.5 1.3.5s1-.2 1.3-.5c.4-.4.5-.8.5-1.4s-.2-1-.5-1.4-.8-.5-1.3-.5-1 .2-1.3.5c-.3.4-.5.8-.5 1.4 0 .6.1 1.1.5 1.4zm3.6.8c-.6.6-1.3.9-2.2.9s-1.6-.3-2.2-.9c-.6-.6-.9-1.3-.9-2.2 0-.8.3-1.6.9-2.1.6-.6 1.3-.9 2.2-.9s1.6.3 2.2.9c.6.6.9 1.3.9 2.1-.1.9-.4 1.6-.9 2.2zm5.4-5.2c.8 0 1.5.3 2 .8.6.5.8 1.3.8 2.2 0 .9-.3 1.6-.8 2.2-.6.6-1.2.8-2 .8-.7 0-1.4-.3-2-1v.9h-1.2v-8.2h1.2v3.3c.6-.6 1.2-1 2-1zm-1.9 3.1c0 .6.2 1 .5 1.4.3.4.8.5 1.2.5s.9-.2 1.3-.5c.4-.4.5-.8.5-1.4 0-.6-.2-1-.5-1.4-.4-.4-.8-.6-1.3-.6s-.9.2-1.3.6c-.3.3-.4.8-.4 1.4z"/>
    </g>
</svg>
