<svg xmlns="http://www.w3.org/2000/svg" viewBox="0 0 260 460">
    <path fill="#FFF" d="M.6.5h260v460H.6z"/>
    <linearGradient id="a" gradientUnits="userSpaceOnUse" x1="2.07" y1="462.321" x2="255.84" y2="6.57" gradientTransform="matrix(1 0 0 -1 0 462)">
        <stop offset="0" stop-color="#004da8"/>
        <stop offset="1" stop-color="#2e98d3"/>
    </linearGradient>
    <path fill="url(#a)" d="M.6.5h260v460H.6z"/>
    <path fill-opacity=".01" d="M.6.5v13.8h260V.5H.6z"/>
    <path fill="#FFF" d="M254.5 3.9h-16.2c-.7 0-1.3.5-1.3 1.2v5.2c0 .7.6 1.2 1.3 1.2h16.2c.7 0 1.3-.5 1.3-1.2V5.1c-.1-.6-.6-1.2-1.3-1.2zm-17.1 1.2c0-.4.4-.8.8-.8h16.2c.5 0 .8.4.8.8v5.2c0 .4-.4.8-.8.8h-16.2c-.5 0-.8-.4-.8-.8V5.1z"/>
    <path fill="#FFF" d="M238.1 4.7c-.2 0-.3.2-.3.3v5.3c0 .2.2.3.3.3h6.6v-6h-6.6z"/>
    <path fill="#FFF" d="M257.1 7.7c0 .7-.5 1.3-1 1.4V6.4c.6.1 1 .6 1 1.3z"/>
    <path fill="#FFF" d="M214.4 11c1.4 0 2.4-.9 2.4-2.3 0-1.3-.9-2.3-2.2-2.3-.6 0-1.1.2-1.4.6h-.2l.2-2.2h3.1V4h-3.8l-.4 3.9h.8c.3-.5.8-.8 1.4-.8.9 0 1.5.6 1.5 1.6 0 .9-.6 1.6-1.5 1.6-.8 0-1.4-.5-1.5-1.2h-.8c.2 1.1 1.1 1.9 2.4 1.9zm6.1 0c1.5 0 2.5-.8 2.5-2 0-.9-.6-1.6-1.4-1.7v-.1c.7-.2 1.1-.8 1.1-1.5 0-1.1-.9-1.8-2.2-1.8-1.3 0-2.2.8-2.2 1.8 0 .7.4 1.3 1.1 1.5v.1c-.8.2-1.4.8-1.4 1.7 0 1.2 1 2 2.5 2zm0-.7c-.9 0-1.6-.5-1.6-1.3s.7-1.3 1.6-1.3c.9 0 1.6.5 1.6 1.3 0 .7-.7 1.3-1.6 1.3zm0-3.4c-.8 0-1.3-.5-1.3-1.2s.5-1.2 1.3-1.2 1.3.5 1.3 1.2c0 .8-.5 1.2-1.3 1.2zm11.6 3.5c-.4 0-.7-.4-.7-1s.3-1 .7-1c.4 0 .7.4.7 1 0 .5-.3 1-.7 1zm0 .6c.9 0 1.5-.7 1.5-1.6s-.6-1.6-1.5-1.6-1.5.7-1.5 1.6c.1.9.7 1.6 1.5 1.6zm-3.9-3.8c.9 0 1.5-.7 1.5-1.6 0-1-.6-1.6-1.5-1.6s-1.5.7-1.5 1.6c0 .9.6 1.6 1.5 1.6zm-.1 3.6l2.3-3.2 2.7-3.6h-.9l-2.4 3.3-2.6 3.5h.9zm.1-4.2c-.4 0-.7-.4-.7-1s.3-1 .7-1c.4 0 .7.4.7 1s-.3 1-.7 1z"/>
    <path opacity=".45" fill="#FFF" d="M204.7 10.7V8.3l1.2 1.3-1.2 1.1zm1.2-4.8l-1.2 1.2V4.8l1.2 1.1zm-.9 1.8l1.8-1.8-2.7-2.6h-.1V7l-1.8-2-.5.6 2.2 2.2-2.2 2.2.5.6 1.9-1.9v3.7h.1l2.7-2.7-1.9-2z"/>
    <path fill="#FFF" d="M107.4 7.4c0-.4.3-.7.7-.7h4.2c.4 0 .7.3.7.7v2.8c0 .4-.3.7-.7.7h-4.2c-.4 0-.7-.3-.7-.7V7.4z"/>
    <path fill="#FFF" d="M110.1 3.9c-1.1 0-2.1.9-2.1 2.1v2.1h.7V6c0-.8.6-1.4 1.4-1.4.8 0 1.4.6 1.4 1.4v2.1h.7V6c0-1.1-.9-2.1-2.1-2.1z"/>
    <path fill="#FFF" d="M121.5 11c1.5 0 2.4-1.3 2.4-3.5 0-2.3-.9-3.6-2.4-3.6s-2.4 1.3-2.4 3.6c0 2.2.9 3.5 2.4 3.5zm0-.7c-1 0-1.6-1-1.6-2.8 0-1.8.6-2.8 1.6-2.8s1.6 1 1.6 2.8c0 1.8-.6 2.8-1.6 2.8zm5.9.7c1.7 0 2.6-1.3 2.6-3.7 0-.7-.1-1.4-.3-1.9-.4-1-1.2-1.5-2.2-1.5-1.4 0-2.4 1-2.4 2.3 0 1.3.9 2.3 2.2 2.3.8 0 1.5-.4 1.8-1 0 1.8-.7 2.8-1.8 2.8-.7 0-1.2-.4-1.4-1h-.9c.4 1 1.2 1.7 2.4 1.7zm0-3.2c-.9 0-1.5-.6-1.5-1.6 0-.9.7-1.6 1.5-1.6.9 0 1.5.7 1.5 1.6.1.9-.6 1.6-1.5 1.6zm3.9 1.7c0 .4.3.7.7.7.4 0 .7-.3.7-.7 0-.4-.3-.7-.7-.7-.4 0-.7.3-.7.7zm0-3.7c0 .4.3.7.7.7.4 0 .7-.3.7-.7 0-.4-.3-.7-.7-.7-.4 0-.7.3-.7.7zm2.8.2h.8c0-.8.5-1.3 1.3-1.3s1.3.5 1.3 1.2c0 .5-.2.9-1.1 1.9l-2.4 2.6v.6h4.4v-.8h-3.2V10l1.6-1.8c1.1-1.2 1.4-1.7 1.4-2.5 0-1.1-.9-1.9-2.2-1.9-1 .1-1.9.9-1.9 2.2zm8.9 4.8h.8V9.4h1v-.7h-1V4h-1.2c-1.2 1.8-2.3 3.5-2.9 4.6v.8h3.3v1.4zm-2.5-2.2c.8-1.4 1.7-2.8 2.4-3.8h.1v3.9l-2.5-.1z"/>
    <path fill="#FFF" d="M56.4 5.2c1.7 0 3.2.6 4.4 1.6l.8-.9c-1.4-1.2-3.2-2-5.2-2s-3.8.8-5.2 2l.8.9c1.2-1 2.7-1.6 4.4-1.6zm0 2.6c1 0 1.9.4 2.6.9l.9-.9c-.9-.8-2.2-1.3-3.5-1.3-1.3 0-2.6.5-3.5 1.3l.9.9c.7-.6 1.6-.9 2.6-.9zm1.8 1.8c-.5-.4-1.1-.6-1.8-.6s-1.3.3-1.8.7l1.8 1.9 1.8-2z"/>
    <path fill="#FFF" d="M42.6 8.2v-.8h-2.8v.7h1.9v.2c0 1.2-.8 1.9-2.1 1.9-1.4 0-2.2-1.1-2.2-2.8 0-1.7.9-2.8 2.2-2.8 1 0 1.7.5 2 1.4h.9c-.2-1.3-1.3-2.2-2.9-2.2-1.9 0-3.1 1.4-3.1 3.6s1.2 3.6 3.1 3.6c1.8 0 3-1.1 3-2.8zm.9.9c.1 1.2 1.1 1.9 2.5 1.9 1.6 0 2.6-.8 2.6-2 0-1-.6-1.5-2-1.9l-.7-.2c-.9-.2-1.3-.5-1.3-1.1 0-.7.6-1.1 1.5-1.1s1.4.4 1.5 1.1h.9c-.1-1.1-1.1-1.9-2.4-1.9-1.4 0-2.4.8-2.4 1.9 0 1 .5 1.5 1.8 1.8l.9.2c.9.2 1.4.6 1.4 1.2 0 .7-.7 1.2-1.6 1.2-1 0-1.7-.5-1.8-1.2h-.9z"/>
    <path fill="#FFF" d="M29.4 7.4c0 1.3 1.1 2.4 2.4 2.4 1.3 0 2.4-1.1 2.4-2.4 0-1.3-1.1-2.4-2.4-2.4-1.3 0-2.4 1.1-2.4 2.4zm4.4 0c0 1.1-.9 2-2 2s-2-.9-2-2 .9-2 2-2 2 .9 2 2z"/>
    <path fill="#FFF" d="M23.5 7.4c0 1.3 1.1 2.4 2.4 2.4s2.4-1.1 2.4-2.4c0-1.3-1.1-2.4-2.4-2.4s-2.4 1.1-2.4 2.4zm4.4 0c0 1.1-.9 2-2 2s-2-.9-2-2 .9-2 2-2 2 .9 2 2z"/>
    <path fill="#FFF" d="M20 9.8c1.3 0 2.4-1.1 2.4-2.4S21.3 5 20 5s-2.4 1.1-2.4 2.4 1.1 2.4 2.4 2.4z"/>
    <path fill="#FFF" d="M14.1 9.8c1.3 0 2.4-1.1 2.4-2.4S15.5 5 14.1 5c-1.3 0-2.4 1.1-2.4 2.4s1.1 2.4 2.4 2.4z"/>
    <path fill="#FFF" d="M8.2 9.8c1.3 0 2.4-1.1 2.4-2.4S9.6 5 8.2 5C6.9 5 5.8 6.1 5.8 7.4s1.1 2.4 2.4 2.4z"/>
    <path fill="#FFF" d="M39.4 292.9h-1.1v-6.7h1.8l2 4.2 2-4.2h1.8v6.7h-1.1v-5.3l-2.4 4.7h-.6l-2.4-4.7v5.3zm12.5 0h-1v-.7c-.4.5-1 .8-1.7.8-.5 0-1-.2-1.3-.5-.3-.3-.5-.7-.5-1.2s.2-.9.6-1.1c.4-.3.9-.4 1.5-.4h1.4v-.2c0-.7-.4-1-1.1-1-.5 0-1 .2-1.5.5l-.5-.7c.6-.5 1.3-.7 2.1-.7.6 0 1.1.2 1.5.5.4.3.6.8.6 1.4v3.3zm-1.1-1.9v-.4h-1.2c-.8 0-1.2.2-1.2.7 0 .3.1.4.3.6.2.1.5.2.8.2.3 0 .7-.1.9-.3.2-.2.4-.5.4-.8zm3.7-.9v2.8h-1.1v-5.1h1.1v.9c.2-.3.4-.6.7-.7.3-.2.6-.3 1-.3.6 0 1.1.2 1.4.5.4.4.5.9.5 1.5v3.1H57V290c0-.9-.4-1.4-1.2-1.4-.4 0-.7.1-1 .4-.2.3-.3.7-.3 1.1zm9.3 2.8h-1v-.7c-.4.5-1 .8-1.7.8-.5 0-1-.2-1.3-.5-.3-.3-.5-.7-.5-1.2s.2-.9.6-1.1c.4-.3.9-.4 1.5-.4h1.4v-.2c0-.7-.4-1-1.1-1-.5 0-1 .2-1.5.5l-.5-.7c.6-.5 1.3-.7 2.1-.7.6 0 1.1.2 1.5.5.4.3.6.8.6 1.4v3.3zm-1.1-1.9v-.4h-1.2c-.8 0-1.2.2-1.2.7 0 .3.1.4.3.6.2.1.5.2.8.2.3 0 .7-.1.9-.3.3-.2.4-.5.4-.8zm7.4-3.2v4.5c0 .9-.2 1.6-.7 2-.5.5-1.1.7-1.9.7-.8 0-1.5-.2-2.1-.7l.5-.8c.5.4 1 .6 1.5.6s.9-.1 1.2-.4c.3-.3.5-.7.5-1.3v-.7c-.2.3-.4.5-.7.7-.3.2-.6.3-1 .3-.7 0-1.2-.2-1.7-.7-.4-.5-.7-1.1-.7-1.8s.2-1.3.7-1.8c.4-.5 1-.7 1.7-.7s1.2.3 1.7.8v-.8h1zm-4 2.4c0 .4.1.8.4 1.1.3.3.6.5 1.1.5.4 0 .8-.1 1.1-.4.3-.3.4-.7.4-1.1 0-.4-.1-.8-.4-1.1-.3-.3-.6-.5-1.1-.5-.4 0-.8.2-1.1.5-.3.2-.4.5-.4 1zm10.4.6h-4c0 .4.2.7.5.9.3.2.7.3 1.1.3.6 0 1.1-.2 1.5-.6l.6.7c-.6.6-1.3.9-2.2.9-.7 0-1.3-.2-1.9-.7-.5-.5-.8-1.1-.8-1.9 0-.8.3-1.5.8-1.9.5-.5 1.1-.7 1.8-.7s1.3.2 1.8.6c.5.4.7 1 .7 1.7v.7zm-4-.8h3c0-.4-.1-.8-.4-1-.3-.2-.6-.3-1-.3s-.8.1-1.1.4c-.4.1-.5.5-.5.9zm8.5 5c-.5 0-.9-.2-1.3-.5l.5-.9c.2.2.5.3.7.3.2 0 .4-.1.6-.3.2-.2.2-.4.2-.6 0-.1-.7-1.9-2.1-5.3h1.2l1.5 3.8 1.5-3.8H85l-2.5 6.1c-.1.3-.4.6-.6.8-.2.3-.6.4-.9.4zm6.1-3.4c.3.3.7.5 1.2.5s.9-.2 1.2-.5c.3-.3.5-.7.5-1.2s-.2-.9-.5-1.2c-.3-.3-.7-.5-1.2-.5s-.9.2-1.2.5c-.3.3-.5.7-.5 1.2s.1.8.5 1.2zm3.1.6c-.5.5-1.2.8-1.9.8-.8 0-1.4-.3-1.9-.8s-.8-1.1-.8-1.9.3-1.4.8-1.9 1.2-.8 1.9-.8c.8 0 1.4.3 1.9.8s.8 1.1.8 1.9-.3 1.4-.8 1.9zm5.6-1.6v-2.8h1.1v5.1h-1.1v-.9c-.2.3-.4.6-.7.7-.3.2-.6.3-1 .3-.6 0-1.1-.2-1.4-.5-.4-.4-.5-.9-.5-1.5v-3.1h1.1v2.8c0 .9.4 1.4 1.2 1.4.4 0 .7-.1 1-.4.2-.3.3-.7.3-1.1zm5.4-1.8c-.5 0-.9.2-1.2.5-.3.3-.4.8-.4 1.4v2.2h-1.1v-5.1h1.1v1c.2-.3.4-.6.7-.8.3-.2.6-.3 1-.3l-.1 1.1zm6.5-1.1c.7 0 1.3.2 1.8.7.5.5.7 1.1.7 1.9s-.2 1.4-.7 1.9c-.5.5-1.1.7-1.7.7-.6 0-1.2-.3-1.7-.8v2.6H105v-7h1.1v.9c.4-.6.9-.9 1.6-.9zm-1.7 2.7c0 .5.1.9.4 1.2.3.3.7.5 1.1.5.4 0 .8-.2 1.1-.5.3-.3.5-.7.5-1.2s-.2-.9-.5-1.2c-.3-.3-.7-.5-1.1-.5-.4 0-.8.2-1.1.5-.2.3-.4.7-.4 1.2zm8.2-1.6c-.5 0-.9.2-1.2.5-.3.3-.4.8-.4 1.4v2.2h-1.1v-5.1h1.1v1c.2-.3.4-.6.7-.8.3-.2.6-.3 1-.3l-.1 1.1zm2.3 2.8c.3.3.7.5 1.2.5s.9-.2 1.2-.5c.3-.3.5-.7.5-1.2s-.2-.9-.5-1.2c-.3-.3-.7-.5-1.2-.5s-.9.2-1.2.5c-.3.3-.5.7-.5 1.2s.2.8.5 1.2zm3.1.6c-.5.5-1.2.8-1.9.8-.8 0-1.4-.3-1.9-.8s-.8-1.1-.8-1.9.3-1.4.8-1.9 1.2-.8 1.9-.8c.8 0 1.4.3 1.9.8s.8 1.1.8 1.9-.3 1.4-.8 1.9zm4.8-4.5c.7 0 1.3.2 1.8.7.5.5.7 1.1.7 1.9s-.2 1.4-.7 1.9c-.5.5-1.1.7-1.7.7-.6 0-1.2-.3-1.7-.8v2.6h-1.1v-7h1.1v.9c.3-.6.9-.9 1.6-.9zm-1.7 2.7c0 .5.1.9.4 1.2.3.3.7.5 1.1.5.4 0 .8-.2 1.1-.5.3-.3.5-.7.5-1.2s-.2-.9-.5-1.2c-.3-.3-.7-.5-1.1-.5-.4 0-.8.2-1.1.5-.3.3-.4.7-.4 1.2zm10.2.4h-4c0 .4.2.7.5.9.3.2.7.3 1.1.3.6 0 1.1-.2 1.5-.6l.6.7c-.6.6-1.3.9-2.2.9-.7 0-1.3-.2-1.9-.7-.5-.5-.8-1.1-.8-1.9 0-.8.3-1.5.8-1.9.5-.5 1.1-.7 1.8-.7s1.3.2 1.8.6c.5.4.7 1 .7 1.7v.7zm-4-.8h3c0-.4-.1-.8-.4-1-.3-.2-.6-.3-1-.3s-.8.1-1.1.4c-.4.1-.5.5-.5.9zm7.9-1.2c-.5 0-.9.2-1.2.5-.3.3-.4.8-.4 1.4v2.2h-1.1v-5.1h1.1v1c.2-.3.4-.6.7-.8.3-.2.6-.3 1-.3l-.1 1.1c.1 0 0 0 0 0zm2.5-.2v2.6c0 .2.1.4.2.6.1.1.3.2.5.2s.5-.1.7-.3l.4.8c-.4.3-.8.5-1.3.5s-.9-.2-1.2-.5c-.3-.3-.5-.8-.5-1.3v-2.6h-.7v-.9h.7v-1.6h1.1v1.6h1.4v.9h-1.3zm3.4 6.4c-.5 0-.9-.2-1.3-.5l.5-.9c.2.2.5.3.7.3.2 0 .4-.1.6-.3.2-.2.2-.4.2-.6 0-.1-.7-1.9-2.1-5.3h1.2l1.5 3.8 1.5-3.8h1.2l-2.5 6.1c-.1.3-.4.6-.6.8-.3.3-.6.4-.9.4zm8.9-7.6v.4h1.4v.9h-1.4v4.3h-1.1v-4.3h-.7v-.9h.7v-.4c0-.5.2-1 .5-1.3.3-.3.7-.5 1.2-.5s.9.2 1.3.5l-.4.8c-.2-.2-.4-.3-.7-.3-.2 0-.4.1-.5.2-.2.1-.3.3-.3.6zm5.1 1.4c-.5 0-.9.2-1.2.5-.3.3-.4.8-.4 1.4v2.2H154v-5.1h1.1v1c.2-.3.4-.6.7-.8.3-.2.6-.3 1-.3l-.1 1.1c.1 0 0 0 0 0zm2.3 2.8c.3.3.7.5 1.2.5s.9-.2 1.2-.5c.3-.3.5-.7.5-1.2s-.2-.9-.5-1.2c-.3-.3-.7-.5-1.2-.5s-.9.2-1.2.5c-.3.3-.5.7-.5 1.2s.2.8.5 1.2zm3.1.6c-.5.5-1.2.8-1.9.8-.8 0-1.4-.3-1.9-.8s-.8-1.1-.8-1.9.3-1.4.8-1.9 1.2-.8 1.9-.8c.8 0 1.4.3 1.9.8s.8 1.1.8 1.9-.3 1.4-.8 1.9zm3.1-2.1v2.8h-1.1v-5.1h1.1v.9c.2-.3.4-.6.7-.7.3-.2.7-.3 1-.3.8 0 1.4.3 1.7 1 .5-.7 1.1-1 1.9-1 .6 0 1.1.2 1.4.5.4.4.5.9.5 1.5v3.1h-1.1V290c0-.9-.4-1.4-1.2-1.4-.4 0-.7.1-1 .4-.3.2-.4.6-.4 1v2.9h-1.1v-2.8c0-.5-.1-.8-.3-1.1-.2-.2-.4-.3-.8-.3s-.7.1-1 .4c-.2.2-.3.6-.3 1zm15.6 2.8h-1v-.7c-.4.5-1 .8-1.7.8-.5 0-1-.2-1.3-.5-.3-.3-.5-.7-.5-1.2s.2-.9.6-1.1c.4-.3.9-.4 1.5-.4h1.4v-.2c0-.7-.4-1-1.1-1-.5 0-1 .2-1.5.5l-.5-.7c.6-.5 1.3-.7 2.1-.7.6 0 1.1.2 1.5.5.4.3.6.8.6 1.4v3.3zm-1.1-1.9v-.4h-1.2c-.8 0-1.2.2-1.2.7 0 .3.1.4.3.6.2.1.5.2.8.2.3 0 .7-.1.9-.3.3-.2.4-.5.4-.8zm3.7-.9v2.8h-1.1v-5.1h1.1v.9c.2-.3.4-.6.7-.7.3-.2.6-.3 1-.3.6 0 1.1.2 1.4.5.4.4.5.9.5 1.5v3.1h-1V290c0-.9-.4-1.4-1.2-1.4-.4 0-.7.1-1 .4-.3.3-.4.7-.4 1.1zm5.8 4.9c-.5 0-.9-.2-1.3-.5l.5-.9c.2.2.5.3.7.3.2 0 .4-.1.6-.3.2-.2.2-.4.2-.6 0-.1-.7-1.9-2.1-5.3h1.2l1.5 3.8 1.5-3.8h1.2l-2.5 6.1c-.1.3-.4.6-.6.8-.3.3-.6.4-.9.4zm7.3-2.1h-1.2l-1.8-5.1h1.1l1.3 3.9 1.3-3.9h1.1l1.3 3.9 1.3-3.9h1.1l-1.8 5.1H199l-1.2-3.5-1.3 3.5zm7.5-2.8v2.8h-1.1v-7.2h1.1v3c.2-.3.4-.6.7-.7.3-.2.7-.3 1-.3.6 0 1.1.2 1.4.5.4.4.5.9.5 1.5v3.1h-1.1V290c0-.9-.4-1.4-1.2-1.4-.4 0-.7.1-1 .4-.1.3-.3.7-.3 1.1zm10 .7h-4c0 .4.2.7.5.9.3.2.7.3 1.1.3.6 0 1.1-.2 1.5-.6l.6.7c-.6.6-1.3.9-2.2.9-.7 0-1.3-.2-1.9-.7-.5-.5-.8-1.1-.8-1.9 0-.8.3-1.5.8-1.9.5-.5 1.1-.7 1.8-.7s1.3.2 1.8.6c.5.4.7 1 .7 1.7v.7zm-4-.8h3c0-.4-.1-.8-.4-1-.3-.2-.6-.3-1-.3s-.8.1-1.1.4c-.4.1-.5.5-.5.9zm7.9-1.2c-.5 0-.9.2-1.2.5-.3.3-.4.8-.4 1.4v2.2h-1.1v-5.1h1.1v1c.2-.3.4-.6.7-.8.3-.2.6-.3 1-.3l-.1 1.1c.1 0 0 0 0 0zm6 2h-4c0 .4.2.7.5.9.3.2.7.3 1.1.3.6 0 1.1-.2 1.5-.6l.6.7c-.6.6-1.3.9-2.2.9-.7 0-1.3-.2-1.9-.7-.5-.5-.8-1.1-.8-1.9 0-.8.3-1.5.8-1.9.5-.5 1.1-.7 1.8-.7s1.3.2 1.8.6c.5.4.7 1 .7 1.7v.7zm-4.1-.8h3c0-.4-.1-.8-.4-1-.3-.2-.6-.3-1-.3s-.8.1-1.1.4c-.3.1-.5.5-.5.9z"/>
    <path fill="#FFF" d="M119.2 321.2c1.5 0 2.8-1.2 2.8-2.8s-1.2-2.8-2.8-2.8c-1.5 0-2.8 1.2-2.8 2.8s1.2 2.8 2.8 2.8z"/>
    <path fill="#FFF" d="M62.8 263.8v9.8h-2v-9.8h-3.5V262h9v1.8h-3.5zm11.3 9.8h-1.7v-1.2c-.7.9-1.7 1.3-2.9 1.3-.9 0-1.7-.3-2.3-.8-.6-.5-.9-1.2-.9-2.1 0-.9.3-1.5 1-2 .6-.4 1.5-.6 2.6-.6h2.4v-.2c0-1.2-.7-1.8-2-1.8-.8 0-1.7.3-2.6.9l-.8-1.2c1.1-.8 2.3-1.3 3.7-1.3 1 0 1.9.3 2.5.8.7.5 1 1.3 1 2.5v5.7zm-1.9-3.3v-.7h-2.1c-1.3 0-2 .4-2 1.3 0 .4.2.8.5 1 .3.2.8.3 1.4.3.6 0 1.1-.2 1.6-.5s.6-.8.6-1.4zm6.4 3.3h-1.9v-12.3h1.9v7.2l3.6-3.7h2.4l-3.4 3.5 3.6 5.3h-2.3l-2.6-3.9-1.3 1.4v2.5zm16-3.6h-6.9c0 .6.3 1.2.9 1.6.5.4 1.2.6 1.9.6 1.1 0 2-.3 2.5-1l1.1 1.2c-1 1-2.2 1.5-3.7 1.5-1.2 0-2.3-.4-3.2-1.2-.9-.8-1.3-1.9-1.3-3.3s.4-2.5 1.3-3.3c.9-.8 1.9-1.2 3.1-1.2 1.2 0 2.2.4 3.1 1.1.8.7 1.3 1.7 1.3 3v1zm-6.9-1.4h5.1c0-.7-.2-1.3-.7-1.7s-1-.6-1.7-.6-1.3.2-1.8.6c-.7.4-.9.9-.9 1.7zm18.3-3.9c1.2 0 2.2.4 3 1.2.8.8 1.3 1.9 1.3 3.3s-.4 2.5-1.3 3.3c-.8.8-1.8 1.3-2.9 1.3-1.1 0-2.1-.5-3-1.5v1.3h-1.9v-12.3h1.9v5c.7-1.1 1.7-1.6 2.9-1.6zm-3 4.5c0 .8.3 1.5.8 2.1.5.5 1.1.8 1.9.8s1.4-.3 1.9-.8.8-1.2.8-2.1c0-.8-.3-1.6-.8-2.1-.5-.6-1.2-.8-1.9-.8s-1.4.3-1.9.8c-.5.6-.8 1.3-.8 2.1zm16.6 4.4h-1.7v-1.2c-.7.9-1.7 1.3-2.9 1.3-.9 0-1.7-.3-2.3-.8-.6-.5-.9-1.2-.9-2.1 0-.9.3-1.5 1-2 .6-.4 1.5-.6 2.6-.6h2.4v-.2c0-1.2-.7-1.8-2-1.8-.8 0-1.7.3-2.6.9l-.8-1.2c1.1-.8 2.3-1.3 3.7-1.3 1 0 1.9.3 2.5.8.7.5 1 1.3 1 2.5v5.7zm-1.9-3.3v-.7h-2.1c-1.3 0-2 .4-2 1.3 0 .4.2.8.5 1 .3.2.8.3 1.4.3.6 0 1.1-.2 1.6-.5s.6-.8.6-1.4zm8.4 3.4c-1.2 0-2.3-.4-3.2-1.2-.9-.8-1.3-1.9-1.3-3.3 0-1.3.5-2.4 1.4-3.3.9-.8 2.1-1.3 3.4-1.3s2.5.5 3.4 1.4l-1.1 1.3c-.8-.7-1.5-1-2.3-1-.8 0-1.5.3-2 .8-.6.5-.8 1.2-.8 2s.3 1.5.8 2.1c.6.6 1.3.8 2.1.8s1.6-.4 2.3-1.1l1.1 1.2c-1.2 1.1-2.4 1.6-3.8 1.6zm7.5-.1h-1.9v-12.3h1.9v7.2l3.6-3.7h2.4l-3.4 3.5 3.6 5.3h-2.3l-2.6-3.9-1.3 1.4v2.5zm16.3.1c-1.2 0-2.3-.4-3.2-1.2-.9-.8-1.3-1.9-1.3-3.3 0-1.3.5-2.4 1.4-3.3.9-.8 2.1-1.3 3.4-1.3s2.5.5 3.4 1.4l-1.1 1.3c-.8-.7-1.5-1-2.3-1s-1.5.3-2 .8c-.6.5-.8 1.2-.8 2s.3 1.5.8 2.1c.6.6 1.3.8 2.1.8s1.6-.4 2.3-1.1l1.1 1.2c-1.1 1.1-2.4 1.6-3.8 1.6zm7.6-2.4c.5.5 1.2.8 2 .8s1.5-.3 2-.8.8-1.2.8-2.1c0-.8-.3-1.5-.8-2.1-.5-.5-1.2-.8-2-.8s-1.5.3-2 .8-.8 1.2-.8 2.1c0 .9.2 1.5.8 2.1zm5.3 1.1c-.9.9-2 1.3-3.3 1.3-1.3 0-2.4-.4-3.3-1.3-.9-.9-1.3-2-1.3-3.2 0-1.3.4-2.3 1.3-3.2.9-.9 2-1.3 3.3-1.3 1.3 0 2.4.4 3.3 1.3.9.9 1.3 1.9 1.3 3.2 0 1.3-.4 2.3-1.3 3.2zm5.3-3.6v4.8h-1.9v-8.8h1.9v1.6c.3-.5.7-1 1.2-1.3.5-.3 1.1-.5 1.7-.5 1 0 1.8.3 2.4.9.6.6.9 1.5.9 2.6v5.4h-1.9v-4.8c0-1.6-.7-2.4-2-2.4-.6 0-1.2.2-1.7.6-.4.5-.6 1.1-.6 1.9zm11.1-2.5v4.5c0 .4.1.8.3 1 .2.2.5.4.9.4s.8-.2 1.1-.6l.8 1.3c-.7.6-1.4.9-2.2.9-.8 0-1.5-.3-2-.8-.6-.6-.8-1.3-.8-2.2v-4.4h-1.1v-1.5h1.1V262h1.9v2.8h2.3v1.5h-2.3zm9.3.2c-.9 0-1.6.3-2.1.9-.5.6-.7 1.4-.7 2.4v3.8h-1.9v-8.8h1.9v1.8c.3-.6.7-1 1.2-1.4.5-.4 1.1-.5 1.6-.5v1.8c.1 0 0 0 0 0zm3.9 4.8c.5.5 1.2.8 2 .8s1.5-.3 2-.8.8-1.2.8-2.1c0-.8-.3-1.5-.8-2.1-.5-.5-1.2-.8-2-.8s-1.5.3-2 .8-.8 1.2-.8 2.1c0 .9.2 1.5.8 2.1zm5.3 1.1c-.9.9-2 1.3-3.3 1.3-1.3 0-2.4-.4-3.3-1.3-.9-.9-1.3-2-1.3-3.2 0-1.3.4-2.3 1.3-3.2.9-.9 2-1.3 3.3-1.3 1.3 0 2.4.4 3.3 1.3.9.9 1.3 1.9 1.3 3.2 0 1.3-.4 2.3-1.3 3.2zm5.3 1.2h-1.9v-12.3h1.9v12.3z"/>
    <path fill="#FFF" fill-opacity=".5" d="M142.7 321.2c1.5 0 2.8-1.2 2.8-2.8s-1.2-2.8-2.8-2.8c-1.5 0-2.8 1.2-2.8 2.8s1.3 2.8 2.8 2.8z"/>
    <path fill="#FFF" fill-opacity=".5" d="M130.9 321.2c1.5 0 2.8-1.2 2.8-2.8s-1.2-2.8-2.8-2.8c-1.5 0-2.8 1.2-2.8 2.8s1.3 2.8 2.8 2.8z"/>
    <g>
        <linearGradient id="b" gradientUnits="userSpaceOnUse" x1="52.761" y1="64.948" x2="205.657" y2="64.948" gradientTransform="matrix(1 0 0 -1 0 462)">
            <stop offset="0" stop-color="#5ad7ff"/>
            <stop offset="1" stop-color="#33daff"/>
        </linearGradient>
        <path fill="url(#b)" d="M52.8 397.1c0-9.5 7.8-17.2 17.3-17.2h118.2c9.6 0 17.3 7.7 17.3 17.2s-7.8 17.2-17.3 17.2H70.1c-9.6 0-17.3-7.7-17.3-17.2z"/>
    </g>
    <path fill="#97E6FF" d="M71.5 438.6l-.7 1.5h-1.2l3-6.7h1.2l3 6.7h-1.2l-.7-1.5h-3.4zm2.9-1.1l-1.2-2.8-1.2 2.8h2.4zm4.3 2.6h-1.1V433h1.1v7.1zm4.2-4.1c-.5 0-.9.2-1.2.5-.3.3-.4.8-.4 1.4v2.2h-1.1V435h1.1v1c.2-.3.4-.6.7-.8.3-.2.6-.3 1-.3l-.1 1.1c.1 0 .1 0 0 0zm6 2h-4c0 .4.2.7.5.9.3.2.7.3 1.1.3.6 0 1.1-.2 1.5-.6l.6.7c-.6.6-1.3.9-2.2.9-.7 0-1.3-.2-1.9-.7-.5-.5-.8-1.1-.8-1.9 0-.8.3-1.5.8-1.9.5-.5 1.1-.7 1.8-.7s1.3.2 1.8.6c.5.4.7 1 .7 1.7v.7zm-4-.8h3c0-.4-.1-.8-.4-1s-.6-.3-1-.3-.8.1-1.1.4c-.4.1-.5.5-.5.9zm9.4 2.9h-1v-.7c-.4.5-1 .8-1.7.8-.5 0-1-.2-1.3-.5-.3-.3-.5-.7-.5-1.2s.2-.9.6-1.1c.4-.3.9-.4 1.5-.4h1.4v-.2c0-.7-.4-1-1.1-1-.5 0-1 .2-1.5.5l-.5-.7c.6-.5 1.3-.7 2.1-.7.6 0 1.1.2 1.5.5.4.3.6.8.6 1.4v3.3zm-1.1-1.9v-.4H92c-.8 0-1.2.2-1.2.7 0 .3.1.4.3.6.2.1.5.2.8.2.3 0 .7-.1.9-.3.3-.2.4-.5.4-.8zm4.7 2c-.7 0-1.2-.2-1.7-.7-.5-.5-.7-1.1-.7-1.9 0-.8.2-1.4.7-1.9.5-.5 1.1-.7 1.8-.7s1.2.3 1.7.9V433h1.1v7.2h-1.1v-.8c-.4.5-1 .8-1.8.8zm-1.4-2.6c0 .5.2.9.5 1.2.3.3.7.5 1.1.5.4 0 .8-.2 1.1-.5.3-.3.4-.7.4-1.2s-.1-.9-.4-1.2c-.3-.3-.7-.5-1.1-.5-.4 0-.8.2-1.1.5-.3.3-.5.7-.5 1.2zm6.5 4.6c-.5 0-.9-.2-1.3-.5l.5-.9c.2.2.5.3.7.3.2 0 .4-.1.6-.3.2-.2.2-.4.2-.6 0-.1-.7-1.9-2.1-5.3h1.2l1.5 3.8 1.5-3.8h1.2l-2.5 6.1c-.1.3-.4.6-.6.8-.3.3-.6.4-.9.4zm12.3-7.2v4.5c0 .9-.2 1.6-.7 2-.5.5-1.1.7-1.9.7-.8 0-1.5-.2-2.1-.7l.5-.8c.5.4 1 .6 1.5.6s.9-.1 1.2-.4c.3-.3.5-.7.5-1.3v-.7c-.2.3-.4.5-.7.7-.3.2-.6.3-1 .3-.7 0-1.2-.2-1.7-.7-.4-.5-.7-1.1-.7-1.8s.2-1.3.7-1.8c.4-.5 1-.7 1.7-.7s1.2.3 1.7.8v-.7h1zm-4 2.4c0 .4.1.8.4 1.1.3.3.6.5 1.1.5.4 0 .8-.1 1.1-.4.3-.3.4-.7.4-1.1 0-.4-.1-.8-.4-1.1-.3-.3-.6-.5-1.1-.5-.4 0-.8.2-1.1.5-.3.2-.4.5-.4 1zm6.8 1.4c.3.3.7.5 1.2.5s.9-.2 1.2-.5c.3-.3.5-.7.5-1.2s-.2-.9-.5-1.2c-.3-.3-.7-.5-1.2-.5s-.9.2-1.2.5c-.3.3-.5.7-.5 1.2s.2.9.5 1.2zm3.1.6c-.5.5-1.2.8-1.9.8s-1.4-.3-1.9-.8-.8-1.1-.8-1.9a2.732 2.732 0 0 1 2.7-2.7c.7 0 1.4.3 1.9.8s.8 1.1.8 1.9c0 .8-.3 1.4-.8 1.9zm3.3-3.5v2.6c0 .2.1.4.2.6.1.1.3.2.5.2s.5-.1.7-.3l.4.8c-.4.3-.8.5-1.3.5s-.9-.2-1.2-.5c-.3-.3-.5-.8-.5-1.3v-2.6h-.7v-.9h.7v-1.6h1.1v1.6h1.4v.9h-1.3zm9.6 4.2h-1v-.7c-.4.5-1 .8-1.7.8-.5 0-1-.2-1.3-.5-.3-.3-.5-.7-.5-1.2s.2-.9.6-1.1c.4-.3.9-.4 1.5-.4h1.4v-.2c0-.7-.4-1-1.1-1-.5 0-1 .2-1.5.5l-.5-.7c.6-.5 1.3-.7 2.1-.7.6 0 1.1.2 1.5.5.4.3.6.8.6 1.4v3.3zm-1.1-1.9v-.4h-1.2c-.8 0-1.2.2-1.2.7 0 .3.1.4.3.6.2.1.5.2.8.2.3 0 .7-.1.9-.3.2-.2.4-.5.4-.8zm3.7-.9v2.8h-1.1V435h1.1v.9c.2-.3.4-.6.7-.7.3-.2.6-.3 1-.3.6 0 1.1.2 1.4.5.4.4.5.9.5 1.5v3.1h-1.1v-2.8c0-.9-.4-1.4-1.2-1.4-.4 0-.7.1-1 .4-.2.3-.3.7-.3 1.1zm12 2.8h-1v-.7c-.4.5-1 .8-1.7.8-.5 0-1-.2-1.3-.5-.3-.3-.5-.7-.5-1.2s.2-.9.6-1.1c.4-.3.9-.4 1.5-.4h1.4v-.2c0-.7-.4-1-1.1-1-.5 0-1 .2-1.5.5l-.5-.7c.6-.5 1.3-.7 2.1-.7.6 0 1.1.2 1.5.5.4.3.6.8.6 1.4v3.3zm-1.1-1.9v-.4h-1.2c-.8 0-1.2.2-1.2.7 0 .3.1.4.3.6.2.1.5.2.8.2.3 0 .7-.1.9-.3.3-.2.4-.5.4-.8zm4.9 2c-.7 0-1.3-.2-1.9-.7-.5-.5-.8-1.1-.8-1.9 0-.8.3-1.4.8-1.9s1.2-.7 2-.7 1.4.3 2 .8l-.6.8c-.4-.4-.9-.6-1.3-.6-.5 0-.8.2-1.2.5-.3.3-.5.7-.5 1.2s.2.9.5 1.2.7.5 1.2.5.9-.2 1.4-.7l.6.7c-.7.5-1.4.8-2.2.8zm5.6 0c-.7 0-1.3-.2-1.9-.7-.5-.5-.8-1.1-.8-1.9 0-.8.3-1.4.8-1.9s1.2-.7 2-.7 1.4.3 2 .8l-.6.8c-.4-.4-.9-.6-1.3-.6s-.8.2-1.2.5c-.3.3-.5.7-.5 1.2s.2.9.5 1.2.7.5 1.2.5.9-.2 1.4-.7l.6.7c-.7.5-1.4.8-2.2.8zm4.4-1.4c.3.3.7.5 1.2.5s.9-.2 1.2-.5c.3-.3.5-.7.5-1.2s-.2-.9-.5-1.2c-.3-.3-.7-.5-1.2-.5s-.9.2-1.2.5c-.3.3-.5.7-.5 1.2s.2.9.5 1.2zm3.1.6c-.5.5-1.2.8-1.9.8s-1.4-.3-1.9-.8-.8-1.1-.8-1.9a2.732 2.732 0 0 1 2.7-2.7c.7 0 1.4.3 1.9.8s.8 1.1.8 1.9c0 .8-.3 1.4-.8 1.9zm5.6-1.6V435h1.1v5.1h-1.1v-.9c-.2.3-.4.6-.7.7-.3.2-.6.3-1 .3-.6 0-1.1-.2-1.4-.5-.4-.4-.5-.9-.5-1.5V435h1.1v2.8c0 .9.4 1.4 1.2 1.4.4 0 .7-.1 1-.4.2-.2.3-.6.3-1zm3.8-.5v2.8h-1.1V435h1.1v.9c.2-.3.4-.6.7-.7.3-.2.6-.3 1-.3.6 0 1.1.2 1.4.5.4.4.5.9.5 1.5v3.1h-1.1v-2.8c0-.9-.4-1.4-1.2-1.4-.4 0-.7.1-1 .4-.2.3-.3.7-.3 1.1zm6.4-1.4v2.6c0 .2.1.4.2.6.1.1.3.2.5.2s.5-.1.7-.3l.4.8c-.4.3-.8.5-1.3.5s-.9-.2-1.2-.5c-.3-.3-.5-.8-.5-1.3v-2.6h-.7v-.9h.7v-1.6h1.1v1.6h1.4v.9h-1.3zm4.9 2.1h-1.1v-.6c0-.3 0-.4.1-.6.1-.1.2-.3.4-.5l.7-.7c.1-.2.2-.4.2-.6 0-.2-.1-.4-.2-.6-.2-.2-.4-.2-.6-.2-.2 0-.5.1-.6.2-.2.1-.3.3-.3.6h-1.2c.1-.6.3-1 .7-1.3.4-.3.9-.5 1.4-.5.6 0 1 .2 1.4.5.4.3.5.7.5 1.3 0 .4-.1.7-.3 1-.1.2-.2.3-.3.3-.1.1-.2.1-.3.3l-.3.3-.2.2c-.1.1-.2.3-.2.6v.3zm-.5 2.2c-.2 0-.4-.1-.5-.2-.1-.1-.2-.3-.2-.5s.1-.4.2-.5c.1-.1.3-.2.5-.2s.4.1.5.2c.1.1.2.3.2.5s-.1.4-.2.5c-.1.1-.3.2-.5.2z"/>
    <ellipse fill="none" cx="130.6" cy="150" rx="76.2" ry="75.8"/>
    <path fill="#FFF" d="M87.9 394.2c-.4 0-.7.1-.9.2-.2.2-.4.4-.4.7 0 .3.1.5.4.7.2.2.8.3 1.6.5s1.4.5 1.8.8c.4.3.6.9.6 1.5 0 .7-.3 1.2-.8 1.6-.5.4-1.2.6-2 .6-1.2 0-2.3-.4-3.2-1.2l.8-1c.8.7 1.6 1 2.4 1 .4 0 .8-.1 1-.3.3-.2.4-.4.4-.7 0-.3-.1-.5-.4-.7-.2-.2-.6-.3-1.2-.5-.6-.1-1-.3-1.3-.4-.3-.1-.6-.3-.8-.5-.5-.3-.7-.9-.7-1.6 0-.7.3-1.3.8-1.6.5-.4 1.2-.6 1.9-.6.5 0 1 .1 1.5.2.5.2.9.4 1.3.7l-.7 1c-.2-.2-.5-.4-.9-.5-.4.2-.8.1-1.2.1zm5.9 1.8v3c0 .3.1.5.2.7.1.2.4.2.6.2s.5-.1.8-.4l.5.9c-.4.4-.9.6-1.5.6-.5 0-1-.2-1.4-.5-.4-.4-.6-.9-.6-1.5v-3h-.7v-1h.7v-1.8h1.2v1.8h1.6v1h-1.4zm7.9 4.9h-1.1v-.8c-.5.6-1.1.9-2 .9-.6 0-1.1-.2-1.5-.5-.4-.3-.6-.8-.6-1.4 0-.6.2-1 .6-1.3.4-.3 1-.4 1.7-.4h1.6v-.2c0-.8-.4-1.2-1.3-1.2-.5 0-1.1.2-1.7.6l-.6-.8c.7-.6 1.5-.8 2.4-.8.7 0 1.3.2 1.7.5.4.3.7.9.7 1.6v3.8zm-1.3-2.2v-.5H99c-.9 0-1.3.3-1.3.8 0 .3.1.5.3.7.2.1.5.2.9.2s.7-.1 1-.3c.4-.2.5-.5.5-.9zm6.1-2.5c-.6 0-1.1.2-1.4.6-.3.4-.5.9-.5 1.6v2.5h-1.2V395h1.2v1.2c.2-.4.5-.7.8-.9.3-.2.7-.4 1.1-.4v1.3zm2.8-.2v3c0 .3.1.5.2.7.1.2.4.2.6.2.3 0 .5-.1.8-.4l.5.9c-.4.4-.9.6-1.5.6-.5 0-1-.2-1.4-.5-.4-.4-.6-.9-.6-1.5v-3h-.7v-1h.7v-1.8h1.2v1.8h1.6v1h-1.4zm8.9 4.9h-1.4l-2-5.9h1.3l1.5 4.4 1.5-4.4h1.3l1.5 4.4 1.5-4.4h1.3l-2 5.9H121l-1.4-4-1.4 4zm8.6 0h-1.2V395h1.2v5.9zm-1.1-7c-.2-.2-.2-.3-.2-.6 0-.2.1-.4.2-.6.2-.2.3-.2.6-.2.2 0 .4.1.6.2.2.2.2.3.2.6 0 .2-.1.4-.2.6-.2.2-.3.2-.6.2s-.5-.1-.6-.2zm4.5 2.1v3c0 .3.1.5.2.7.1.2.4.2.6.2s.5-.1.8-.4l.5.9c-.4.4-.9.6-1.5.6-.5 0-1-.2-1.4-.5-.4-.4-.6-.9-.6-1.5v-3h-.7v-1h.7v-1.8h1.2v1.8h1.6v1h-1.4zm4.3 1.7v3.2h-1.2v-8.2h1.2v3.4c.2-.4.4-.6.8-.8.4-.2.8-.3 1.2-.3.7 0 1.2.2 1.6.6.4.4.6 1 .6 1.8v3.6h-1.2v-3.2c0-1.1-.5-1.6-1.4-1.6-.4 0-.8.1-1.1.4-.3.2-.5.6-.5 1.1zm12.7 3.2h-1.5l-3.1-7.7h1.5l2.4 5.8 2.4-5.8h1.5l-3.2 7.7zm9.6-2.4h-4.6c0 .4.2.8.6 1 .4.3.8.4 1.2.4.7 0 1.3-.2 1.7-.7l.7.8c-.6.7-1.5 1-2.5 1-.8 0-1.5-.3-2.1-.8-.6-.6-.9-1.3-.9-2.2 0-.9.3-1.7.9-2.2.6-.5 1.3-.8 2.1-.8s1.5.2 2.1.7c.6.5.8 1.1.8 2v.8zm-4.7-1h3.4c0-.5-.2-.9-.5-1.1-.3-.3-.7-.4-1.2-.4s-.9.1-1.2.4c-.3.3-.5.7-.5 1.1zm10.2 1.6c0 .6-.2 1-.6 1.3-.4.3-.9.5-1.6.5-.4 0-.9-.1-1.3-.2-.5-.2-.9-.4-1.2-.7l.6-1c.7.5 1.4.8 2 .8.3 0 .5-.1.7-.2.2-.1.2-.3.2-.5 0-.3-.4-.6-1.2-.8h-.1c-1.2-.3-1.8-.9-1.8-1.7 0-.5.2-1 .6-1.3.4-.3 1-.5 1.7-.5s1.3.2 1.9.6l-.5.9c-.5-.3-1-.5-1.6-.5-.3 0-.5.1-.7.2-.2.1-.3.3-.3.5s.1.3.3.4c.1.1.3.1.6.2.2.1.5.1.6.2.2.1.4.1.5.2l.6.3c.4.4.6.8.6 1.3zm3-3.1v3c0 .3.1.5.2.7.1.2.4.2.6.2.3 0 .5-.1.8-.4l.5.9c-.4.4-.9.6-1.5.6-.5 0-1-.2-1.4-.5-.4-.4-.6-.9-.6-1.5v-3h-.7v-1h.7v-1.8h1.2v1.8h1.6v1h-1.4zm7.9 4.9H172v-.8c-.5.6-1.1.9-2 .9-.6 0-1.1-.2-1.5-.5-.4-.3-.6-.8-.6-1.4 0-.6.2-1 .6-1.3.4-.3 1-.4 1.7-.4h1.6v-.2c0-.8-.4-1.2-1.3-1.2-.5 0-1.1.2-1.7.6l-.6-.8c.7-.6 1.5-.8 2.4-.8.7 0 1.3.2 1.7.5.4.3.7.9.7 1.6v3.8zm-1.3-2.2v-.5h-1.4c-.9 0-1.3.3-1.3.8 0 .3.1.5.3.7.2.1.5.2.9.2s.7-.1 1-.3c.4-.2.5-.5.5-.9z"/>
</svg>
