<?xml version="1.0" encoding="UTF-8"?><!DOCTYPE svg PUBLIC "-//W3C//DTD SVG 1.1//EN" "http://www.w3.org/Graphics/SVG/1.1/DTD/svg11.dtd"><svg xmlns="http://www.w3.org/2000/svg" xmlns:xlink="http://www.w3.org/1999/xlink"><symbol id="icon-arrow-left" viewBox="0 0 17 32">
<path fill-rule="evenodd" clip-rule="evenodd" d="M0.451341 17.1422L14.3359 31.5276C14.9452 32.1575 15.9323 32.1575 16.5431 31.5276C17.1523 30.8978 17.1523 29.8747 16.5431 29.2449L3.75976 16.0008L16.5415 2.75672C17.1508 2.12689 17.1508 1.10381 16.5415 0.472376C15.9323 -0.157459 14.9436 -0.157459 14.3344 0.472376L0.4498 14.8578C-0.150189 15.4813 -0.150189 16.5203 0.451341 17.1422Z" fill-opacity="0.5"/>
</symbol><symbol id="icon-arrow-right" viewBox="0 0 17 32">
<path fill-rule="evenodd" clip-rule="evenodd" d="M16.5487 14.8578L2.66409 0.472375C2.05485 -0.157458 1.06772 -0.157458 0.456933 0.472375C-0.15231 1.10221 -0.15231 2.12529 0.456933 2.75512L13.2402 15.9992L0.458474 29.2433C-0.150769 29.8731 -0.150769 30.8962 0.458474 31.5276C1.06772 32.1575 2.05639 32.1575 2.66563 31.5276L16.5502 17.1422C17.1502 16.5187 17.1502 15.4797 16.5487 14.8578Z" fill-opacity="0.5"/>
</symbol><symbol id="icon-burger" viewBox="0 0 28 19">
<path d="M1 9.5H27" stroke-width="2" stroke-linecap="round" stroke-linejoin="round"/>
<path d="M1 1H27" stroke-width="2" stroke-linecap="round" stroke-linejoin="round"/>
<path d="M1 18H27" stroke-width="2" stroke-linecap="round" stroke-linejoin="round"/>
</symbol><symbol id="icon-close" viewBox="0 0 21 21">
<path d="M20.8,2.5c0.3,0.3,0.3,0.8,0,1.1l-6.3,6.3c-0.3,0.3-0.3,0.8,0,1.1l6.3,6.3c0.3,0.3,0.3,0.8,0,1.1l-2.3,2.3
	c-0.3,0.3-0.8,0.3-1.1,0l-6.3-6.3c-0.3-0.3-0.8-0.3-1.1,0l-6.3,6.3c-0.3,0.3-0.8,0.3-1.1,0l-2.3-2.3c-0.3-0.3-0.3-0.8,0-1.1l6.3-6.3
	c0.3-0.3,0.3-0.8,0-1.1L0.2,3.7c-0.3-0.3-0.3-0.8,0-1.1l2.3-2.3c0.3-0.3,0.8-0.3,1.1,0l6.3,6.3c0.3,0.3,0.8,0.3,1.1,0l6.3-6.3
	c0.3-0.3,0.8-0.3,1.1,0L20.8,2.5z"/>
</symbol><symbol id="icon-vesta" viewBox="0 0 131 34">
<path d="M29 6.5L17.4 33H12.5L0.9 6.5H5.9L15 27.75L24.3 6.5H29ZM56.6973 19.9C56.6973 20.2667 56.6639 20.75 56.5973 21.35H35.0973C35.3973 23.6833 36.4139 25.5667 38.1473 27C39.9139 28.4 42.0973 29.1 44.6973 29.1C47.8639 29.1 50.4139 28.0333 52.3473 25.9L54.9973 29C53.7973 30.4 52.2973 31.4667 50.4973 32.2C48.7306 32.9333 46.7473 33.3 44.5473 33.3C41.7473 33.3 39.2639 32.7333 37.0973 31.6C34.9306 30.4333 33.2473 28.8167 32.0473 26.75C30.8806 24.6833 30.2973 22.35 30.2973 19.75C30.2973 17.1833 30.8639 14.8667 31.9973 12.8C33.1639 10.7333 34.7473 9.13333 36.7473 8C38.7806 6.83333 41.0639 6.25 43.5973 6.25C46.1306 6.25 48.3806 6.83333 50.3473 8C52.3473 9.13333 53.8973 10.7333 54.9973 12.8C56.1306 14.8667 56.6973 17.2333 56.6973 19.9ZM43.5973 10.3C41.2973 10.3 39.3639 11 37.7973 12.4C36.2639 13.8 35.3639 15.6333 35.0973 17.9H52.0973C51.8306 15.6667 50.9139 13.85 49.3473 12.45C47.8139 11.0167 45.8973 10.3 43.5973 10.3ZM70.9625 33.3C68.7958 33.3 66.7125 33.0167 64.7125 32.45C62.7125 31.85 61.1458 31.1 60.0125 30.2L62.0125 26.4C63.1792 27.2333 64.5958 27.9 66.2625 28.4C67.9292 28.9 69.6125 29.15 71.3125 29.15C75.5125 29.15 77.6125 27.95 77.6125 25.55C77.6125 24.75 77.3292 24.1167 76.7625 23.65C76.1958 23.1833 75.4792 22.85 74.6125 22.65C73.7792 22.4167 72.5792 22.1667 71.0125 21.9C68.8792 21.5667 67.1292 21.1833 65.7625 20.75C64.4292 20.3167 63.2792 19.5833 62.3125 18.55C61.3458 17.5167 60.8625 16.0667 60.8625 14.2C60.8625 11.8 61.8625 9.88333 63.8625 8.45C65.8625 6.98333 68.5458 6.25 71.9125 6.25C73.6792 6.25 75.4458 6.46667 77.2125 6.9C78.9792 7.33333 80.4292 7.91667 81.5625 8.65L79.5125 12.45C77.3458 11.05 74.7958 10.35 71.8625 10.35C69.8292 10.35 68.2792 10.6833 67.2125 11.35C66.1458 12.0167 65.6125 12.9 65.6125 14C65.6125 14.8667 65.9125 15.55 66.5125 16.05C67.1125 16.55 67.8458 16.9167 68.7125 17.15C69.6125 17.3833 70.8625 17.65 72.4625 17.95C74.5958 18.3167 76.3125 18.7167 77.6125 19.15C78.9458 19.55 80.0792 20.25 81.0125 21.25C81.9458 22.25 82.4125 23.65 82.4125 25.45C82.4125 27.85 81.3792 29.7667 79.3125 31.2C77.2792 32.6 74.4958 33.3 70.9625 33.3ZM103.311 31.45C102.611 32.05 101.745 32.5167 100.711 32.85C99.678 33.15 98.6113 33.3 97.5113 33.3C94.8447 33.3 92.778 32.5833 91.3113 31.15C89.8447 29.7167 89.1113 27.6667 89.1113 25V10.45H84.6113V6.5H89.1113V0.699999H93.9113V6.5H101.511V10.45H93.9113V24.8C93.9113 26.2333 94.2613 27.3333 94.9613 28.1C95.6947 28.8667 96.728 29.25 98.0613 29.25C99.528 29.25 100.778 28.8333 101.811 28L103.311 31.45ZM118.764 6.25C122.431 6.25 125.231 7.15 127.164 8.95C129.131 10.75 130.114 13.4333 130.114 17V33H125.564V29.5C124.764 30.7333 123.614 31.6833 122.114 32.35C120.648 32.9833 118.898 33.3 116.864 33.3C113.898 33.3 111.514 32.5833 109.714 31.15C107.948 29.7167 107.064 27.8333 107.064 25.5C107.064 23.1667 107.914 21.3 109.614 19.9C111.314 18.4667 114.014 17.75 117.714 17.75H125.314V16.8C125.314 14.7333 124.714 13.15 123.514 12.05C122.314 10.95 120.548 10.4 118.214 10.4C116.648 10.4 115.114 10.6667 113.614 11.2C112.114 11.7 110.848 12.3833 109.814 13.25L107.814 9.65C109.181 8.55 110.814 7.71667 112.714 7.15C114.614 6.55 116.631 6.25 118.764 6.25ZM117.664 29.6C119.498 29.6 121.081 29.2 122.414 28.4C123.748 27.5667 124.714 26.4 125.314 24.9V21.2H117.914C113.848 21.2 111.814 22.5667 111.814 25.3C111.814 26.6333 112.331 27.6833 113.364 28.45C114.398 29.2167 115.831 29.6 117.664 29.6Z"/>
</symbol></svg>