<svg width="60" height="60" viewBox="0 0 60 60" fill="none" xmlns="http://www.w3.org/2000/svg">
    <rect width="60" height="60" rx="4" fill="url(#a)"/>
    <path d="M35.589 26.588a2.33 2.33 0 0 1-2.353-2.353v-3.294c0-.564-.377-.941-.941-.941h-7.53A3.776 3.776 0 0 0 21 23.765v13.177a3.776 3.776 0 0 0 3.765 3.765h11.294a3.776 3.776 0 0 0 3.765-3.765V27.53c0-.565-.376-.942-.94-.942h-3.295zm-3.294 8.471h-5.648c-.564 0-.94-.376-.94-.94 0-.566.376-.942.94-.942h5.648c.564 0 .94.377.94.941 0 .565-.376.941-.94.941zm1.882-3.764h-7.53c-.564 0-.94-.377-.94-.942 0-.564.376-.94.94-.94h7.53c.565 0 .941.376.941.94 0 .565-.376.942-.941.942z" fill="#fff"/>
    <defs>
        <linearGradient id="a" x1="30" x2="30" y2="60" gradientUnits="userSpaceOnUse">
            <stop stop-color="#01A0D3"/>
            <stop offset="1" stop-color="#0168D3" stop-opacity=".91"/>
        </linearGradient>
    </defs>
</svg>
