<svg width="60" height="60" viewBox="0 0 60 60" fill="none" xmlns="http://www.w3.org/2000/svg">
    <rect width="60" height="60" rx="4" fill="url(#a)"/>
    <path fill-rule="evenodd" clip-rule="evenodd" d="M22 40h-2V28h2v12zm14.705-9.536L34.169 33h-1.34A3.004 3.004 0 0 0 30 29h-4.838L24 28.613V27a1 1 0 0 0-1-1h-4a1 1 0 0 0-1 1v14a1 1 0 0 0 1 1h4a1 1 0 0 0 1-1v-1h5.956c2.836 0 5.6-.805 7.993-2.328.062-.039.118-.085.17-.136l2.828-2.829a3.005 3.005 0 0 0 0-4.243c-1.129-1.13-3.113-1.13-4.242 0z" fill="#fff"/>
    <path fill-rule="evenodd" clip-rule="evenodd" d="M30 27c1.654 0 3-1.346 3-3s-1.346-3-3-3-3 1.346-3 3 1.346 3 3 3z" fill="#fff"/>
    <path fill-rule="evenodd" clip-rule="evenodd" d="M39 24c1.654 0 3-1.346 3-3s-1.346-3-3-3-3 1.346-3 3 1.346 3 3 3z" fill="#fff"/>
    <defs>
        <linearGradient id="a" x1="30" x2="30" y2="60" gradientUnits="userSpaceOnUse">
            <stop stop-color="#01A0D3"/>
            <stop offset="1" stop-color="#0168D3" stop-opacity=".91"/>
        </linearGradient>
    </defs>
</svg>
