<svg xmlns="http://www.w3.org/2000/svg" viewBox="0 0 260 460" enable-background="new 0 0 260 460">
    <path fill="#FFF" d="M0 0h260v460H0z"/>
    <path fill-opacity=".01" d="M0 0v13.8h260V0H0z"/>
    <path fill="#FFF" d="M253.9 3.4h-16.2c-.7 0-1.3.5-1.3 1.2v5.2c0 .7.6 1.2 1.3 1.2h16.2c.7 0 1.3-.5 1.3-1.2V4.6c-.1-.6-.6-1.2-1.3-1.2zm-17.1 1.2c0-.4.4-.8.8-.8h16.2c.5 0 .8.4.8.8v5.2c0 .4-.4.8-.8.8h-16.2c-.5 0-.8-.4-.8-.8V4.6z"/>
    <path fill="#FFF" d="M237.5 4.2c-.2 0-.3.2-.3.3v5.3c0 .2.2.3.3.3h6.6v-6l-6.6.1z"/>
    <path fill="#FFF" d="M256.5 7.2c0 .7-.5 1.3-1 1.4V5.9c.6.1 1 .6 1 1.3z"/>
    <path fill="#FFF" d="M213.8 10.5c1.4 0 2.4-.9 2.4-2.3 0-1.3-.9-2.3-2.2-2.3-.6 0-1.1.2-1.4.6h-.1l.2-2.2h3.1v-.8H212l-.4 3.9h.8c.3-.5.8-.8 1.4-.8.9 0 1.5.6 1.5 1.6 0 .9-.6 1.6-1.5 1.6-.8 0-1.4-.5-1.5-1.2h-.8c.1 1.1 1 1.9 2.3 1.9zm6.1 0c1.4 0 2.5-.8 2.5-2 0-.9-.6-1.6-1.4-1.7v-.1c.7-.2 1.1-.8 1.1-1.5 0-1.1-.9-1.8-2.2-1.8s-2.2.8-2.2 1.8c0 .7.4 1.3 1.1 1.5v.1c-.9.2-1.4.8-1.4 1.7 0 1.2 1 2 2.5 2zm0-.7c-.9 0-1.6-.5-1.6-1.3s.7-1.3 1.6-1.3c.9 0 1.6.5 1.6 1.3 0 .7-.7 1.3-1.6 1.3zm0-3.4c-.8 0-1.3-.5-1.3-1.2s.5-1.2 1.3-1.2 1.3.5 1.3 1.2c0 .8-.5 1.2-1.3 1.2zm11.6 3.5c-.4 0-.7-.4-.7-1s.3-1 .7-1 .7.4.7 1c0 .5-.3 1-.7 1zm0 .6c.9 0 1.5-.7 1.5-1.6 0-1-.6-1.6-1.5-1.6S230 8 230 8.9c.1.9.7 1.6 1.5 1.6zm-3.9-3.8c.9 0 1.5-.7 1.5-1.6s-.6-1.6-1.5-1.6-1.5.7-1.5 1.6.6 1.6 1.5 1.6zm-.1 3.6l2.3-3.2 2.7-3.6h-.9l-2.4 3.3-2.6 3.5h.9zm.1-4.2c-.4 0-.7-.4-.7-1s.3-1 .7-1 .7.4.7 1-.3 1-.7 1z"/>
    <path opacity=".45" fill="#FFF" enable-background="new" d="M204.1 10.2V7.8l1.2 1.3-1.2 1.1zm1.2-4.8l-1.2 1.2V4.3l1.2 1.1zm-.9 1.8l1.8-1.8-2.7-2.6h-.1v3.7l-1.9-1.9-.5.6 2.2 2.2-2.2 2.2.5.6 1.9-1.9V12h.1l2.7-2.7-1.8-2.1z"/>
    <path fill="#FFF" d="M106.8 6.9c0-.4.3-.7.7-.7h4.2c.4 0 .7.3.7.7v2.8c0 .4-.3.7-.7.7h-4.2c-.4 0-.7-.3-.7-.7V6.9z"/>
    <path fill="#FFF" d="M109.5 3.4c-1.1 0-2.1.9-2.1 2.1v2.1h.7V5.5c0-.8.6-1.4 1.4-1.4s1.4.6 1.4 1.4v2.1h.7V5.5c0-1.1-.9-2.1-2.1-2.1z"/>
    <path fill="#FFF" d="M120.9 10.5c1.5 0 2.4-1.3 2.4-3.6s-.9-3.6-2.4-3.6-2.4 1.3-2.4 3.6.9 3.6 2.4 3.6zm0-.7c-1 0-1.6-1-1.6-2.8s.6-2.8 1.6-2.8 1.6 1 1.6 2.8-.6 2.8-1.6 2.8zm5.9.7c1.7 0 2.6-1.3 2.6-3.7 0-.7-.1-1.4-.3-1.9-.4-1-1.2-1.5-2.2-1.5-1.4 0-2.4 1-2.4 2.3s.9 2.3 2.2 2.3c.8 0 1.5-.4 1.8-1 0 1.8-.7 2.8-1.8 2.8-.7 0-1.2-.4-1.4-1h-.9c.4 1 1.2 1.7 2.4 1.7zm0-3.2c-.9 0-1.5-.6-1.5-1.6 0-.9.7-1.6 1.5-1.6s1.5.7 1.5 1.6c.1.9-.5 1.6-1.5 1.6zm3.9 1.7c0 .4.3.7.7.7s.7-.3.7-.7-.3-.7-.7-.7-.7.3-.7.7zm0-3.7c0 .4.3.7.7.7s.7-.3.7-.7c0-.4-.3-.7-.7-.7-.4 0-.7.3-.7.7zm2.8.2h.8c0-.8.5-1.3 1.3-1.3s1.3.5 1.3 1.2c0 .5-.2.9-1.1 1.9l-2.4 2.6v.6h4.4v-.9h-3.2v-.1l1.6-1.8c1.1-1.2 1.4-1.7 1.4-2.5 0-1.1-.9-1.9-2.2-1.9-1 .1-1.9.9-1.9 2.2zm8.9 4.8h.8V8.9h1v-.7h-1V3.5H142c-1.2 1.8-2.3 3.5-2.9 4.6v.8h3.3v1.4zm-2.5-2.2c.8-1.4 1.7-2.8 2.4-3.8h.1v3.9l-2.5-.1z"/>
    <path fill="#FFF" d="M55.8 4.7c1.7 0 3.2.6 4.4 1.6l.8-.9c-1.4-1.2-3.2-2-5.2-2s-3.8.8-5.2 2l.8.9c1.2-1 2.7-1.6 4.4-1.6zm0 2.6c1 0 1.9.4 2.6.9l.9-.9c-.9-.8-2.2-1.3-3.5-1.3s-2.6.5-3.5 1.3l.9.9c.7-.6 1.6-.9 2.6-.9zm1.8 1.8c-.5-.4-1.1-.7-1.8-.7s-1.3.3-1.8.7l1.8 1.9 1.8-1.9z"/>
    <path fill="#FFF" d="M42 7.7v-.8h-2.8v.7h1.9v.2c0 1.2-.8 1.9-2.1 1.9-1.4 0-2.2-1.1-2.2-2.8s.9-2.8 2.2-2.8c1 0 1.7.5 2 1.4h.9c-.2-1.3-1.3-2.2-2.9-2.2-1.9 0-3.1 1.4-3.1 3.6s1.2 3.6 3.1 3.6c1.8 0 3-1.1 3-2.8zm.9.9c.1 1.2 1.1 1.9 2.5 1.9 1.6 0 2.6-.8 2.6-2 0-1-.6-1.5-2-1.9l-.7-.2c-1-.3-1.3-.6-1.3-1.1 0-.7.6-1.1 1.5-1.1s1.4.4 1.5 1.1h.9c-.1-1.1-1.1-1.9-2.4-1.9-1.4 0-2.4.8-2.4 1.9 0 1 .5 1.5 1.8 1.8l.9.2c.9.2 1.4.6 1.4 1.2 0 .7-.7 1.2-1.6 1.2-1 0-1.7-.5-1.8-1.2h-.9v.1z"/>
    <path fill="#FFF" d="M28.8 6.9c0 1.3 1.1 2.4 2.4 2.4 1.3 0 2.4-1.1 2.4-2.4s-1.1-2.4-2.4-2.4c-1.3 0-2.4 1.1-2.4 2.4zm4.4 0c0 1.1-.9 2-2 2s-2-.9-2-2 .9-2 2-2 2 .9 2 2z"/>
    <path fill="#FFF" d="M22.9 6.9c0 1.3 1.1 2.4 2.4 2.4s2.4-1.1 2.4-2.4-1.1-2.4-2.4-2.4-2.4 1.1-2.4 2.4zm4.4 0c0 1.1-.9 2-2 2s-2-.9-2-2 .9-2 2-2 2 .9 2 2z"/>
    <path fill="#FFF" d="M19.4 9.3c1.3 0 2.4-1.1 2.4-2.4s-1.1-2.4-2.4-2.4S17 5.6 17 6.9s1.1 2.4 2.4 2.4z"/>
    <path fill="#FFF" d="M13.5 9.3c1.3 0 2.4-1.1 2.4-2.4s-1.1-2.4-2.4-2.4-2.4 1.1-2.4 2.4 1.1 2.4 2.4 2.4z"/>
    <path fill="#FFF" d="M7.6 9.3c1.3 0 2.4-1.1 2.4-2.4S8.9 4.5 7.6 4.5 5.2 5.6 5.2 6.9s1.1 2.4 2.4 2.4z"/>
    <g>
        <path fill="#FFF" d="M0 0h260v460H0z"/>
        <g fill="#FFF">
            <path d="M106.8 6.9c0-.4.3-.7.7-.7h4.2c.4 0 .7.3.7.7v2.8c0 .4-.3.7-.7.7h-4.2c-.4 0-.7-.3-.7-.7V6.9z"/>
            <path d="M109.5 3.4c-1.1 0-2.1.9-2.1 2.1v2.1h.7V5.5c0-.8.6-1.4 1.4-1.4s1.4.6 1.4 1.4v2.1h.7V5.5c0-1.1-.9-2.1-2.1-2.1z"/>
            <path d="M120.9 10.5c1.5 0 2.4-1.3 2.4-3.6s-.9-3.6-2.4-3.6-2.4 1.3-2.4 3.6.9 3.6 2.4 3.6zm0-.7c-1 0-1.6-1-1.6-2.8s.6-2.8 1.6-2.8 1.6 1 1.6 2.8-.6 2.8-1.6 2.8zm5.9.7c1.7 0 2.6-1.3 2.6-3.7 0-.7-.1-1.4-.3-1.9-.4-1-1.2-1.5-2.2-1.5-1.4 0-2.4 1-2.4 2.3s.9 2.3 2.2 2.3c.8 0 1.5-.4 1.8-1 0 1.8-.7 2.8-1.8 2.8-.7 0-1.2-.4-1.4-1h-.9c.4 1 1.2 1.7 2.4 1.7zm0-3.2c-.9 0-1.5-.6-1.5-1.6 0-.9.7-1.6 1.5-1.6s1.5.7 1.5 1.6c.1.9-.5 1.6-1.5 1.6zm3.9 1.7c0 .4.3.7.7.7s.7-.3.7-.7-.3-.7-.7-.7-.7.3-.7.7zm0-3.7c0 .4.3.7.7.7s.7-.3.7-.7c0-.4-.3-.7-.7-.7-.4 0-.7.3-.7.7zm2.8.2h.8c0-.8.5-1.3 1.3-1.3s1.3.5 1.3 1.2c0 .5-.2.9-1.1 1.9l-2.4 2.6v.6h4.4v-.9h-3.2v-.1l1.6-1.8c1.1-1.2 1.4-1.7 1.4-2.5 0-1.1-.9-1.9-2.2-1.9-1 .1-1.9.9-1.9 2.2zm8.9 4.8h.8V8.9h1v-.7h-1V3.5H142c-1.2 1.8-2.3 3.5-2.9 4.6v.8h3.3v1.4zm-2.5-2.2c.8-1.4 1.7-2.8 2.4-3.8h.1v3.9l-2.5-.1z"/>
            <path d="M55.8 4.7c1.7 0 3.2.6 4.4 1.6l.8-.9c-1.4-1.2-3.2-2-5.2-2s-3.8.8-5.2 2l.8.9c1.2-1 2.7-1.6 4.4-1.6zm0 2.6c1 0 1.9.4 2.6.9l.9-.9c-.9-.8-2.2-1.3-3.5-1.3s-2.6.5-3.5 1.3l.9.9c.7-.6 1.6-.9 2.6-.9zm1.8 1.8c-.5-.4-1.1-.7-1.8-.7s-1.3.3-1.8.7l1.8 1.9 1.8-1.9z"/>
            <path d="M42 7.7v-.8h-2.8v.7h1.9v.2c0 1.2-.8 1.9-2.1 1.9-1.4 0-2.2-1.1-2.2-2.8s.9-2.8 2.2-2.8c1 0 1.7.5 2 1.4h.9c-.2-1.3-1.3-2.2-2.9-2.2-1.9 0-3.1 1.4-3.1 3.6s1.2 3.6 3.1 3.6c1.8 0 3-1.1 3-2.8zm.9.9c.1 1.2 1.1 1.9 2.5 1.9 1.6 0 2.6-.8 2.6-2 0-1-.6-1.5-2-1.9l-.7-.2c-1-.3-1.3-.6-1.3-1.1 0-.7.6-1.1 1.5-1.1s1.4.4 1.5 1.1h.9c-.1-1.1-1.1-1.9-2.4-1.9-1.4 0-2.4.8-2.4 1.9 0 1 .5 1.5 1.8 1.8l.9.2c.9.2 1.4.6 1.4 1.2 0 .7-.7 1.2-1.6 1.2-1 0-1.7-.5-1.8-1.2h-.9v.1z"/>
            <path d="M28.8 6.9c0 1.3 1.1 2.4 2.4 2.4 1.3 0 2.4-1.1 2.4-2.4s-1.1-2.4-2.4-2.4c-1.3 0-2.4 1.1-2.4 2.4zm4.4 0c0 1.1-.9 2-2 2s-2-.9-2-2 .9-2 2-2 2 .9 2 2z"/>
            <path d="M22.9 6.9c0 1.3 1.1 2.4 2.4 2.4s2.4-1.1 2.4-2.4-1.1-2.4-2.4-2.4-2.4 1.1-2.4 2.4zm4.4 0c0 1.1-.9 2-2 2s-2-.9-2-2 .9-2 2-2 2 .9 2 2z"/>
            <path d="M19.4 9.3c1.3 0 2.4-1.1 2.4-2.4s-1.1-2.4-2.4-2.4S17 5.6 17 6.9s1.1 2.4 2.4 2.4z"/>
            <path d="M13.5 9.3c1.3 0 2.4-1.1 2.4-2.4s-1.1-2.4-2.4-2.4-2.4 1.1-2.4 2.4 1.1 2.4 2.4 2.4z"/>
            <path d="M7.6 9.3c1.3 0 2.4-1.1 2.4-2.4S8.9 4.5 7.6 4.5 5.2 5.6 5.2 6.9s1.1 2.4 2.4 2.4z"/>
        </g>
        <path fill="#FFF" d="M0 0h260v460H0z"/>
        <linearGradient id="a" gradientUnits="userSpaceOnUse" x1="1.474" y1="328.598" x2="255.245" y2="784.349" gradientTransform="translate(0 -329.419)">
            <stop offset="0" stop-color="#004da8"/>
            <stop offset="1" stop-color="#2e98d3"/>
        </linearGradient>
        <path fill="url(#a)" d="M0 0h260v460H0z"/>
        <path fill-opacity=".01" d="M0 0v13.8h260V0H0z"/>
        <path fill="#FFF" d="M253.9 3.4h-16.2c-.7 0-1.3.5-1.3 1.2v5.2c0 .7.6 1.2 1.3 1.2h16.2c.7 0 1.3-.5 1.3-1.2V4.6c-.1-.6-.6-1.2-1.3-1.2zm-17.1 1.2c0-.4.4-.8.8-.8h16.2c.5 0 .8.4.8.8v5.2c0 .4-.4.8-.8.8h-16.2c-.5 0-.8-.4-.8-.8V4.6z"/>
        <path fill="#FFF" d="M237.5 4.2c-.2 0-.3.2-.3.3v5.3c0 .2.2.3.3.3h6.6v-6l-6.6.1z"/>
        <path fill="#FFF" d="M256.5 7.2c0 .7-.5 1.3-1 1.4V5.9c.6.1 1 .6 1 1.3z"/>
        <path fill="#FFF" d="M213.8 10.5c1.4 0 2.4-.9 2.4-2.3 0-1.3-.9-2.3-2.2-2.3-.6 0-1.1.2-1.4.6h-.1l.2-2.2h3.1v-.8H212l-.4 3.9h.8c.3-.5.8-.8 1.4-.8.9 0 1.5.6 1.5 1.6 0 .9-.6 1.6-1.5 1.6-.8 0-1.4-.5-1.5-1.2h-.8c.1 1.1 1 1.9 2.3 1.9zm6.1 0c1.4 0 2.5-.8 2.5-2 0-.9-.6-1.6-1.4-1.7v-.1c.7-.2 1.1-.8 1.1-1.5 0-1.1-.9-1.8-2.2-1.8s-2.2.8-2.2 1.8c0 .7.4 1.3 1.1 1.5v.1c-.9.2-1.4.8-1.4 1.7 0 1.2 1 2 2.5 2zm0-.7c-.9 0-1.6-.5-1.6-1.3s.7-1.3 1.6-1.3c.9 0 1.6.5 1.6 1.3 0 .7-.7 1.3-1.6 1.3zm0-3.4c-.8 0-1.3-.5-1.3-1.2s.5-1.2 1.3-1.2 1.3.5 1.3 1.2c0 .8-.5 1.2-1.3 1.2zm11.6 3.5c-.4 0-.7-.4-.7-1s.3-1 .7-1 .7.4.7 1c0 .5-.3 1-.7 1zm0 .6c.9 0 1.5-.7 1.5-1.6 0-1-.6-1.6-1.5-1.6S230 8 230 8.9c.1.9.7 1.6 1.5 1.6zm-3.9-3.8c.9 0 1.5-.7 1.5-1.6s-.6-1.6-1.5-1.6-1.5.7-1.5 1.6.6 1.6 1.5 1.6zm-.1 3.6l2.3-3.2 2.7-3.6h-.9l-2.4 3.3-2.6 3.5h.9zm.1-4.2c-.4 0-.7-.4-.7-1s.3-1 .7-1 .7.4.7 1-.3 1-.7 1z"/>
        <path opacity=".45" fill="#FFF" enable-background="new" d="M204.1 10.2V7.8l1.2 1.3-1.2 1.1zm1.2-4.8l-1.2 1.2V4.3l1.2 1.1zm-.9 1.8l1.8-1.8-2.7-2.6h-.1v3.7l-1.9-1.9-.5.6 2.2 2.2-2.2 2.2.5.6 1.9-1.9V12h.1l2.7-2.7-1.8-2.1z"/>
        <path fill="#FFF" stroke="#FFF" d="M107.1 6.9c0-.2.2-.3.3-.3h4.2c.2 0 .3.2.3.3v2.8c0 .2-.2.3-.3.3h-4.2c-.2 0-.3-.2-.3-.3V6.9z"/>
        <path fill="#FFF" d="M109.5 3.4c-1.1 0-2.1.9-2.1 2.1v2.1h.7V5.5c0-.8.6-1.4 1.4-1.4s1.4.6 1.4 1.4v2.1h.7V5.5c0-1.1-.9-2.1-2.1-2.1z"/>
        <defs>
            <filter id="b" filterUnits="userSpaceOnUse" x="106.8" y="2.7" width="5.5" height="5.6">
                <feColorMatrix values="1 0 0 0 0 0 1 0 0 0 0 0 1 0 0 0 0 0 1 0"/>
            </filter>
        </defs>
        <mask maskUnits="userSpaceOnUse" x="106.8" y="2.7" width="5.5" height="5.6" id="c">
            <path fill="#FFF" filter="url(#b)" d="M109.5 3.4c-1.1 0-2.1.9-2.1 2.1v2.1h.7V5.5c0-.8.6-1.4 1.4-1.4s1.4.6 1.4 1.4v2.1h.7V5.5c0-1.1-.9-2.1-2.1-2.1z"/>
        </mask>
        <path mask="url(#c)" fill="#FFF" d="M107.5 7.6h-.7v.7h.7v-.7zm.7 0v.7h.7v-.7h-.7zm2.7 0h-.7v.7h.7v-.7zm.7 0v.7h.7v-.7h-.7zm-3.4-2.1c0-.8.6-1.4 1.4-1.4V2.8c-1.5 0-2.8 1.2-2.8 2.8l1.4-.1zm0 2.1V5.5h-1.4v2.1h1.4zm0-.7h-.7v1.4h.7V6.9zm.7.7V5.5h-1.4v2.1h1.4zm0-2.1c0-.4.3-.7.7-.7V3.4c-1.1 0-2.1.9-2.1 2.1h1.4zm.6-.7c.4 0 .7.3.7.7h1.4c0-1.1-.9-2.1-2.1-2.1v1.4zm.7.7v2.1h1.4V5.5h-1.4zm1.4 1.4h-.7v1.4h.7V6.9zm-.7-1.4v2.1h1.4V5.5h-1.4zm-1.4-1.4c.8 0 1.4.6 1.4 1.4h1.4c0-1.5-1.2-2.8-2.8-2.8v1.4z"/>
        <path fill="#FFF" d="M120.9 10.5c1.5 0 2.4-1.3 2.4-3.6s-.9-3.6-2.4-3.6-2.4 1.3-2.4 3.6.9 3.6 2.4 3.6zm0-.7c-1 0-1.6-1-1.6-2.8s.6-2.8 1.6-2.8 1.6 1 1.6 2.8-.6 2.8-1.6 2.8zm5.9.7c1.7 0 2.6-1.3 2.6-3.7 0-.7-.1-1.4-.3-1.9-.4-1-1.2-1.5-2.2-1.5-1.4 0-2.4 1-2.4 2.3s.9 2.3 2.2 2.3c.8 0 1.5-.4 1.8-1 0 1.8-.7 2.8-1.8 2.8-.7 0-1.2-.4-1.4-1h-.9c.4 1 1.2 1.7 2.4 1.7zm0-3.2c-.9 0-1.5-.6-1.5-1.6 0-.9.7-1.6 1.5-1.6s1.5.7 1.5 1.6c.1.9-.5 1.6-1.5 1.6zm3.9 1.7c0 .4.3.7.7.7s.7-.3.7-.7-.3-.7-.7-.7-.7.3-.7.7zm0-3.7c0 .4.3.7.7.7s.7-.3.7-.7c0-.4-.3-.7-.7-.7-.4 0-.7.3-.7.7zm2.8.2h.8c0-.8.5-1.3 1.3-1.3s1.3.5 1.3 1.2c0 .5-.2.9-1.1 1.9l-2.4 2.6v.6h4.4v-.9h-3.2v-.1l1.6-1.8c1.1-1.2 1.4-1.7 1.4-2.5 0-1.1-.9-1.9-2.2-1.9-1 .1-1.9.9-1.9 2.2zm8.9 4.8h.8V8.9h1v-.7h-1V3.5H142c-1.2 1.8-2.3 3.5-2.9 4.6v.8h3.3v1.4zm-2.5-2.2c.8-1.4 1.7-2.8 2.4-3.8h.1v3.9l-2.5-.1z"/>
        <path fill="#FFF" d="M55.8 4.7c1.7 0 3.2.6 4.4 1.6l.8-.9c-1.4-1.2-3.2-2-5.2-2s-3.8.8-5.2 2l.8.9c1.2-1 2.7-1.6 4.4-1.6zm0 2.6c1 0 1.9.4 2.6.9l.9-.9c-.9-.8-2.2-1.3-3.5-1.3s-2.6.5-3.5 1.3l.9.9c.7-.6 1.6-.9 2.6-.9zm1.8 1.8c-.5-.4-1.1-.7-1.8-.7s-1.3.3-1.8.7l1.8 1.9 1.8-1.9z"/>
        <path fill="#FFF" d="M42 7.7v-.8h-2.8v.7h1.9v.2c0 1.2-.8 1.9-2.1 1.9-1.4 0-2.2-1.1-2.2-2.8s.9-2.8 2.2-2.8c1 0 1.7.5 2 1.4h.9c-.2-1.3-1.3-2.2-2.9-2.2-1.9 0-3.1 1.4-3.1 3.6s1.2 3.6 3.1 3.6c1.8 0 3-1.1 3-2.8zm.9.9c.1 1.2 1.1 1.9 2.5 1.9 1.6 0 2.6-.8 2.6-2 0-1-.6-1.5-2-1.9l-.7-.2c-1-.3-1.3-.6-1.3-1.1 0-.7.6-1.1 1.5-1.1s1.4.4 1.5 1.1h.9c-.1-1.1-1.1-1.9-2.4-1.9-1.4 0-2.4.8-2.4 1.9 0 1 .5 1.5 1.8 1.8l.9.2c.9.2 1.4.6 1.4 1.2 0 .7-.7 1.2-1.6 1.2-1 0-1.7-.5-1.8-1.2h-.9v.1z"/>
        <path fill="#FFF" d="M28.8 6.9c0 1.3 1.1 2.4 2.4 2.4 1.3 0 2.4-1.1 2.4-2.4s-1.1-2.4-2.4-2.4c-1.3 0-2.4 1.1-2.4 2.4zm4.4 0c0 1.1-.9 2-2 2s-2-.9-2-2 .9-2 2-2 2 .9 2 2z"/>
        <path fill="#FFF" d="M22.9 6.9c0 1.3 1.1 2.4 2.4 2.4s2.4-1.1 2.4-2.4-1.1-2.4-2.4-2.4-2.4 1.1-2.4 2.4zm4.4 0c0 1.1-.9 2-2 2s-2-.9-2-2 .9-2 2-2 2 .9 2 2z"/>
        <path fill="#FFF" d="M19.4 9.3c1.3 0 2.4-1.1 2.4-2.4s-1.1-2.4-2.4-2.4S17 5.6 17 6.9s1.1 2.4 2.4 2.4z"/>
        <path fill="#FFF" d="M13.5 9.3c1.3 0 2.4-1.1 2.4-2.4s-1.1-2.4-2.4-2.4-2.4 1.1-2.4 2.4 1.1 2.4 2.4 2.4z"/>
        <path fill="#FFF" stroke="#FFF" d="M7.6 9.3c1.3 0 2.4-1.1 2.4-2.4S8.9 4.5 7.6 4.5 5.2 5.6 5.2 6.9s1.1 2.4 2.4 2.4z"/>
        <path fill="#FFF" d="M0 61.1h260V460H0z"/>
        <path fill="#FFF" d="M26.9 34.1l-6.1 6.1-6.2-6.1-.4.4 6.1 6.1-6.1 6.1.4.4 6.2-6.1 6.1 6.1.4-.4-6.2-6.1 6.2-6.1-.4-.4z"/>
        <path fill="#FFF" d="M85.9 42.8h-4.4l-.9 2H79l3.9-8.7h1.6l3.9 8.7h-1.7l-.8-2zm-.6-1.2l-1.6-3.8-1.6 3.8h3.2zm10.6-6v9.2h-1.5V44c-.3.3-.6.6-1 .7-.4.2-.8.2-1.2.2-.6 0-1.2-.1-1.7-.4-.5-.3-.9-.7-1.2-1.2-.3-.5-.4-1.1-.4-1.8s.1-1.3.4-1.8.7-.9 1.2-1.2 1.1-.4 1.7-.4c.4 0 .8.1 1.2.2.4.1.7.4.9.7v-3.4h1.6zm-3.5 8c.4 0 .7-.1 1-.2.3-.2.5-.4.7-.7s.3-.7.3-1.1c0-.4-.1-.8-.3-1.1-.2-.3-.4-.6-.7-.7-.3-.2-.6-.3-1-.3s-.7.1-1 .3-.5.4-.7.7-.3.7-.3 1.1c0 .4.1.8.3 1.1.2.3.4.6.7.7.2.1.6.2 1 .2zm12-8v9.2h-1.5V44c-.3.3-.6.6-1 .7-.4.2-.8.2-1.2.2-.6 0-1.2-.1-1.7-.4-.5-.3-.9-.7-1.2-1.2-.3-.5-.4-1.1-.4-1.8s.1-1.3.4-1.8.7-.9 1.2-1.2 1.1-.4 1.7-.4c.4 0 .8.1 1.2.2.4.1.7.4.9.7v-3.4h1.6zm-3.5 8c.4 0 .7-.1 1-.2.3-.2.5-.4.7-.7s.3-.7.3-1.1c0-.4-.1-.8-.3-1.1s-.4-.6-.7-.7c-.3-.2-.6-.3-1-.3s-.7.1-1 .3-.5.4-.7.7-.3.7-.3 1.1c0 .4.1.8.3 1.1.2.3.4.6.7.7s.7.2 1 .2zm14.9 1.2l-1.8-2.5h-2.3v2.5h-1.6v-8.7h3.6c.8 0 1.4.1 2 .4.6.2 1 .6 1.3 1.1s.4 1 .4 1.7-.2 1.2-.5 1.7-.8.8-1.4 1.1l2 2.9h-1.7v-.2zm0-5.6c0-.6-.2-1-.5-1.3s-.9-.4-1.6-.4h-1.9V41h1.9c.7 0 1.2-.1 1.6-.4.3-.4.5-.8.5-1.4zm9.5 2.4v.5h-5.2c.1.5.3.9.7 1.2.4.3.9.4 1.4.4.7 0 1.3-.2 1.8-.7l.8 1c-.3.4-.7.6-1.1.8-.5.2-1 .3-1.5.3-.7 0-1.4-.1-1.9-.4-.6-.3-1-.7-1.3-1.2s-.4-1.1-.4-1.8c0-.6.1-1.2.4-1.7s.7-.9 1.2-1.2 1.1-.4 1.8-.4c.6 0 1.2.1 1.7.4.5.3.9.7 1.2 1.2.3.3.4.9.4 1.6zm-3.3-2.2c-.5 0-.9.1-1.3.4-.3.3-.5.7-.6 1.2h3.8c-.1-.5-.3-.9-.6-1.2-.4-.3-.8-.4-1.3-.4zm8.5-1.3c.6 0 1.2.1 1.7.4.5.3.9.7 1.2 1.2s.4 1.1.4 1.8-.1 1.3-.4 1.8c-.3.5-.7.9-1.2 1.2s-1.1.4-1.7.4c-.9 0-1.6-.3-2.1-.9v3.2h-1.6v-9h1.5v.9c.3-.3.6-.6.9-.7.4-.2.9-.3 1.3-.3zm-.2 5.5c.6 0 1-.2 1.4-.6.4-.4.6-.9.6-1.5s-.2-1.1-.6-1.5c-.4-.4-.8-.6-1.4-.6-.4 0-.7.1-1 .3s-.5.4-.7.7-.3.7-.3 1.1c0 .4.1.8.3 1.1s.4.6.7.7c.3.2.7.3 1 .3zm7.5-5.5c1 0 1.7.2 2.2.7s.8 1.2.8 2.1v3.9h-1.5V44c-.2.3-.5.5-.8.7-.3.1-.8.2-1.3.2s-.9-.1-1.3-.2c-.4-.2-.7-.4-.9-.7s-.3-.6-.3-1c0-.6.2-1.1.7-1.4.4-.4 1.2-.5 2.1-.5h1.7V41c0-.5-.1-.8-.4-1.1-.3-.2-.7-.4-1.2-.4-.4 0-.7.1-1.1.2-.4.1-.7.3-.9.5l-.6-1.1c.3-.3.8-.5 1.3-.6.5-.3 1-.4 1.5-.4zm-.2 5.7c.4 0 .7-.1 1-.3s.5-.4.6-.8V42h-1.6c-.9 0-1.3.3-1.3.9 0 .3.1.5.3.7.3.1.6.2 1 .2zm5.3-5.6h1.6v6.6h-1.6v-6.6zm.8-1.1c-.3 0-.5-.1-.7-.3s-.3-.4-.3-.7.1-.5.3-.7.4-.3.7-.3.5.1.7.3.3.4.3.6c0 .3-.1.5-.3.7-.2.3-.4.4-.7.4zm4.3 2.1c.4-.7 1.2-1 2.4-1v1.5h-.4c-.6 0-1.1.2-1.4.5-.3.3-.5.9-.5 1.5v3.2h-1.6v-6.6h1.5v.9zm8.7 5.8c-.6 0-1.1-.1-1.5-.3-.5-.2-.8-.5-1.1-.9l.9-1.1c.5.7 1.1 1 1.7 1 .9 0 1.4-.5 1.4-1.6v-4.5H155v-1.4h4.7V42c0 1-.2 1.8-.7 2.3-.6.4-1.3.7-2.3.7zm8.1-.1c-.7 0-1.3-.1-1.8-.4-.5-.3-1-.7-1.3-1.2s-.4-1.1-.4-1.8.1-1.2.4-1.8c.3-.5.7-.9 1.3-1.2.5-.3 1.1-.4 1.8-.4s1.3.1 1.8.4c.5.3 1 .7 1.3 1.2s.5 1.1.5 1.8-.2 1.2-.5 1.8c-.3.5-.7.9-1.3 1.2s-1.2.4-1.8.4zm0-1.3c.6 0 1-.2 1.4-.6.4-.4.6-.9.6-1.5s-.2-1.1-.6-1.5c-.4-.4-.8-.6-1.4-.6s-1 .2-1.4.6c-.4.4-.5.9-.5 1.5s.2 1.1.5 1.5c.3.4.8.6 1.4.6zm8.7-5.5c.6 0 1.2.1 1.7.4.5.3.9.7 1.2 1.2s.4 1.1.4 1.8-.1 1.3-.4 1.8c-.3.5-.7.9-1.2 1.2s-1.1.4-1.7.4c-.5 0-.9-.1-1.3-.2-.4-.2-.7-.4-.9-.7v.9h-1.5v-9.2h1.6V39c.3-.3.6-.5.9-.7.4-.1.8-.2 1.2-.2zm-.2 5.5c.6 0 1-.2 1.4-.6.4-.4.6-.9.6-1.5s-.2-1.1-.6-1.5c-.4-.4-.8-.6-1.4-.6-.4 0-.7.1-1 .3s-.5.4-.7.7-.3.7-.3 1.1c0 .4.1.8.3 1.1s.4.6.7.7c.3.2.6.3 1 .3z"/>
        <path fill="#C4C4C4" d="M28.7 342.3h39c2.3 0 4.2 1.9 4.2 4.1v38.8c0 2.3-1.9 4.1-4.2 4.1h-39c-2.3 0-4.2-1.9-4.2-4.1v-38.8c0-2.3 1.9-4.1 4.2-4.1z"/>
        <g>
            <path fill="#FFF" d="M0 0h260v460H0z"/>
            <linearGradient id="d" gradientUnits="userSpaceOnUse" x1="127.044" y1="320.019" x2="132.882" y2="398.925" gradientTransform="translate(0 -329.419)">
                <stop offset="0" stop-color="#004da8"/>
                <stop offset="1" stop-color="#2e98d3"/>
            </linearGradient>
            <path fill="url(#d)" d="M0 0h260v61.1H0z"/>
            <path fill="#6BFFFF" d="M26.6 40.6c0-.4-.3-.7-.7-.7h-8c-.6 0-.9-.7-.5-1.2l3.1-3.1c.3-.3.3-.7 0-1l-.2-.2c-.3-.3-.7-.3-1 0l-5.9 5.8c-.3.3-.3.7 0 1l5.9 5.8c.3.3.7.3 1 0l.2-.2c.3-.3.3-.7 0-1l-3.1-3.1c-.4-.4-.1-1.2.5-1.2h8c.4 0 .7-.3.7-.7v-.2z"/>
            <path fill="#FFF" d="M0 61.1h260V460H0z"/>
            <path fill="#FFF" d="M86.6 45.5L84.8 43h-2.3v2.5h-1.6v-8.7h3.6c.8 0 1.4.1 2 .4.6.2 1 .6 1.3 1.1s.4 1 .4 1.7-.2 1.2-.5 1.7-.8.8-1.4 1.1l2 2.9h-1.7v-.2zm0-5.6c0-.6-.2-1-.5-1.3s-.9-.4-1.6-.4h-1.9v3.5h1.9c.7 0 1.2-.1 1.6-.4.3-.4.5-.8.5-1.4zm9.6 2.3v.5H91c.1.5.3.9.7 1.2.4.3.9.4 1.4.4.7 0 1.3-.2 1.8-.7l.8 1c-.3.4-.7.6-1.1.8-.5.2-1 .3-1.5.3-.7 0-1.4-.1-1.9-.4-.6-.3-1-.7-1.3-1.2s-.4-1.1-.4-1.8c0-.6.1-1.2.4-1.7s.7-.9 1.2-1.2 1.1-.4 1.8-.4c.6 0 1.2.1 1.7.4.5.3.9.7 1.2 1.2.2.4.4 1 .4 1.6zm-3.4-2.1c-.5 0-.9.1-1.3.4-.3.3-.5.7-.6 1.2h3.8c-.1-.5-.3-.9-.6-1.2-.4-.3-.8-.4-1.3-.4zm11-1.2l-2.9 6.6h-1.6l-2.9-6.6H98l2.1 4.9 2.1-4.9h1.6zm.9 0h1.6v6.6h-1.6v-6.6zm.8-1.1c-.3 0-.5-.1-.7-.3s-.3-.4-.3-.7.1-.5.3-.7c.2-.2.4-.3.7-.3.3 0 .5.1.7.3s.3.4.3.6c0 .3-.1.5-.3.7-.1.3-.4.4-.7.4zm9.1 4.4v.5h-5.2c.1.5.3.9.7 1.2.4.3.9.4 1.4.4.7 0 1.3-.2 1.8-.7l.8 1c-.3.4-.7.6-1.1.8-.5.2-1 .3-1.5.3-.7 0-1.4-.1-1.9-.4-.6-.3-1-.7-1.3-1.2s-.4-1.1-.4-1.8c0-.6.1-1.2.4-1.7s.7-.9 1.2-1.2 1.1-.4 1.8-.4c.6 0 1.2.1 1.7.4.5.3.9.7 1.2 1.2.3.4.4 1 .4 1.6zm-3.4-2.1c-.5 0-.9.1-1.3.4-.3.3-.5.7-.6 1.2h3.8c-.1-.5-.3-.9-.6-1.2-.3-.3-.7-.4-1.3-.4zm15.2-1.2l-2.5 6.6h-1.5l-1.7-4.6-1.7 4.6h-1.5l-2.4-6.6h1.5l1.8 4.9 1.8-4.9h1.3l1.8 4.9 1.8-4.9h1.3zm8.3-2.1c.8 0 1.4.1 2 .4.6.2 1 .6 1.3 1.1s.4 1 .4 1.7c0 .6-.1 1.2-.4 1.7-.3.5-.7.8-1.3 1.1-.6.2-1.2.4-2 .4h-2v2.5h-1.6V37h3.6v-.2zm-.1 4.8c.7 0 1.2-.1 1.6-.4.4-.3.5-.7.5-1.3s-.2-1-.5-1.3c-.4-.3-.9-.4-1.6-.4h-1.9v3.5l1.9-.1zm9.1-2.8c.8 0 1.5.2 2 .7s.8 1.2.8 2.2v3.8H145v-3.6c0-.6-.1-1-.4-1.3-.3-.3-.7-.4-1.2-.4-.6 0-1 .2-1.4.5-.3.3-.5.8-.5 1.5v3.4H140v-9.2h1.6v3.4c.3-.3.6-.5.9-.6.4-.3.8-.4 1.2-.4zm7.9 6.8c-.7 0-1.3-.1-1.8-.4-.5-.3-1-.7-1.3-1.2s-.4-1.1-.4-1.8.1-1.2.4-1.8c.3-.5.7-.9 1.3-1.2.5-.3 1.1-.4 1.8-.4s1.3.1 1.8.4 1 .7 1.3 1.2.5 1.1.5 1.8-.2 1.2-.5 1.8c-.3.5-.7.9-1.3 1.2-.5.3-1.2.4-1.8.4zm0-1.3c.6 0 1-.2 1.4-.6.4-.4.6-.9.6-1.5s-.2-1.1-.6-1.5c-.4-.4-.8-.6-1.4-.6-.6 0-1 .2-1.4.6-.4.4-.5.9-.5 1.5s.2 1.1.5 1.5c.3.4.8.6 1.4.6zm9 .9c-.2.1-.4.3-.7.3-.3.1-.5.1-.8.1-.7 0-1.3-.2-1.7-.6-.4-.4-.6-.9-.6-1.7v-3.2h-1.1v-1.2h1.1v-1.5h1.6v1.5h1.8v1.2h-1.8v3.2c0 .3.1.6.2.7.2.2.4.2.7.2s.6-.1.9-.3l.4 1.3zm4.1.4c-.7 0-1.3-.1-1.8-.4-.5-.3-1-.7-1.3-1.2s-.4-1.1-.4-1.8.1-1.2.4-1.8c.3-.5.7-.9 1.3-1.2s1.1-.4 1.8-.4 1.3.1 1.8.4 1 .7 1.3 1.2.5 1.1.5 1.8-.2 1.2-.5 1.8c-.3.5-.7.9-1.3 1.2-.5.3-1.1.4-1.8.4zm0-1.3c.6 0 1-.2 1.4-.6.4-.4.6-.9.6-1.5s-.2-1.1-.6-1.5c-.4-.4-.8-.6-1.4-.6s-1 .2-1.4.6c-.4.4-.5.9-.5 1.5s.2 1.1.5 1.5c.3.4.8.6 1.4.6z"/>
            <path fill="none" d="M13.2 70.4h232.5v322H13.2z"/>
            <path fill="#FFF" d="M237.5 4.2c-.2 0-.3.2-.3.3v5.3c0 .2.2.3.3.3h6.6v-6l-6.6.1z"/>
            <path fill="#FFF" d="M253.9 3.4h-16.2c-.7 0-1.3.5-1.3 1.2v5.2c0 .7.6 1.2 1.3 1.2h16.2c.7 0 1.3-.5 1.3-1.2V4.6c-.1-.6-.6-1.2-1.3-1.2zm-17.1 1.2c0-.4.4-.8.8-.8h16.2c.5 0 .8.4.8.8v5.2c0 .4-.4.8-.8.8h-16.2c-.5 0-.8-.4-.8-.8V4.6z"/>
            <path fill="#FFF" d="M256.5 7.2c0 .7-.5 1.3-1 1.4V5.9c.6.1 1 .6 1 1.3z"/>
            <path fill="#FFF" d="M106.8 6.9c0-.4.3-.7.7-.7h4.2c.4 0 .7.3.7.7v2.8c0 .4-.3.7-.7.7h-4.2c-.4 0-.7-.3-.7-.7V6.9z"/>
            <path fill="#FFF" d="M213.8 10.5c1.4 0 2.4-.9 2.4-2.3 0-1.3-.9-2.3-2.2-2.3-.6 0-1.1.2-1.4.6h-.1l.2-2.2h3.1v-.8H212l-.4 3.9h.8c.3-.5.8-.8 1.4-.8.9 0 1.5.6 1.5 1.6 0 .9-.6 1.6-1.5 1.6-.8 0-1.4-.5-1.5-1.2h-.8c.1 1.1 1 1.9 2.3 1.9zm6.1 0c1.4 0 2.5-.8 2.5-2 0-.9-.6-1.6-1.4-1.7v-.1c.7-.2 1.1-.8 1.1-1.5 0-1.1-.9-1.8-2.2-1.8s-2.2.8-2.2 1.8c0 .7.4 1.3 1.1 1.5v.1c-.9.2-1.4.8-1.4 1.7 0 1.2 1 2 2.5 2zm0-.7c-.9 0-1.6-.5-1.6-1.3s.7-1.3 1.6-1.3c.9 0 1.6.5 1.6 1.3 0 .7-.7 1.3-1.6 1.3zm0-3.4c-.8 0-1.3-.5-1.3-1.2s.5-1.2 1.3-1.2 1.3.5 1.3 1.2c0 .8-.5 1.2-1.3 1.2zm11.6 3.5c-.4 0-.7-.4-.7-1s.3-1 .7-1 .7.4.7 1c0 .5-.3 1-.7 1zm0 .6c.9 0 1.5-.7 1.5-1.6 0-1-.6-1.6-1.5-1.6S230 8 230 8.9c.1.9.7 1.6 1.5 1.6zm-3.9-3.8c.9 0 1.5-.7 1.5-1.6s-.6-1.6-1.5-1.6-1.5.7-1.5 1.6.6 1.6 1.5 1.6zm-.1 3.6l2.3-3.2 2.7-3.6h-.9l-2.4 3.3-2.6 3.5h.9zm.1-4.2c-.4 0-.7-.4-.7-1s.3-1 .7-1 .7.4.7 1-.3 1-.7 1z"/>
            <path fill="#FFF" d="M109.5 3.4c-1.1 0-2.1.9-2.1 2.1v2.1h.7V5.5c0-.8.6-1.4 1.4-1.4s1.4.6 1.4 1.4v2.1h.7V5.5c0-1.1-.9-2.1-2.1-2.1z"/>
            <path fill="#FFF" d="M55.8 4.7c1.7 0 3.2.6 4.4 1.6l.8-.9c-1.4-1.2-3.2-2-5.2-2s-3.8.8-5.2 2l.8.9c1.2-1 2.7-1.6 4.4-1.6zm0 2.6c1 0 1.9.4 2.6.9l.9-.9c-.9-.8-2.2-1.3-3.5-1.3s-2.6.5-3.5 1.3l.9.9c.7-.6 1.6-.9 2.6-.9zm1.8 1.8c-.5-.4-1.1-.7-1.8-.7s-1.3.3-1.8.7l1.8 1.9 1.8-1.9z"/>
            <path fill="#FFF" d="M42 7.7v-.8h-2.8v.7h1.9v.2c0 1.2-.8 1.9-2.1 1.9-1.4 0-2.2-1.1-2.2-2.8s.9-2.8 2.2-2.8c1 0 1.7.5 2 1.4h.9c-.2-1.3-1.3-2.2-2.9-2.2-1.9 0-3.1 1.4-3.1 3.6s1.2 3.6 3.1 3.6c1.8 0 3-1.1 3-2.8zm.9.9c.1 1.2 1.1 1.9 2.5 1.9 1.6 0 2.6-.8 2.6-2 0-1-.6-1.5-2-1.9l-.7-.2c-1-.3-1.3-.6-1.3-1.1 0-.7.6-1.1 1.5-1.1s1.4.4 1.5 1.1h.9c-.1-1.1-1.1-1.9-2.4-1.9-1.4 0-2.4.8-2.4 1.9 0 1 .5 1.5 1.8 1.8l.9.2c.9.2 1.4.6 1.4 1.2 0 .7-.7 1.2-1.6 1.2-1 0-1.7-.5-1.8-1.2h-.9v.1z"/>
            <path fill="#FFF" d="M28.8 6.9c0 1.3 1.1 2.4 2.4 2.4 1.3 0 2.4-1.1 2.4-2.4s-1.1-2.4-2.4-2.4c-1.3 0-2.4 1.1-2.4 2.4zm4.4 0c0 1.1-.9 2-2 2s-2-.9-2-2 .9-2 2-2 2 .9 2 2z"/>
            <path fill="#FFF" d="M22.9 6.9c0 1.3 1.1 2.4 2.4 2.4s2.4-1.1 2.4-2.4-1.1-2.4-2.4-2.4-2.4 1.1-2.4 2.4zm4.4 0c0 1.1-.9 2-2 2s-2-.9-2-2 .9-2 2-2 2 .9 2 2z"/>
            <path fill="#FFF" d="M19.4 9.3c1.3 0 2.4-1.1 2.4-2.4s-1.1-2.4-2.4-2.4S17 5.6 17 6.9s1.1 2.4 2.4 2.4z"/>
            <path fill="#FFF" d="M120.9 10.5c1.5 0 2.4-1.3 2.4-3.6s-.9-3.6-2.4-3.6-2.4 1.3-2.4 3.6.9 3.6 2.4 3.6zm0-.7c-1 0-1.6-1-1.6-2.8s.6-2.8 1.6-2.8 1.6 1 1.6 2.8-.6 2.8-1.6 2.8zm5.9.7c1.7 0 2.6-1.3 2.6-3.7 0-.7-.1-1.4-.3-1.9-.4-1-1.2-1.5-2.2-1.5-1.4 0-2.4 1-2.4 2.3s.9 2.3 2.2 2.3c.8 0 1.5-.4 1.8-1 0 1.8-.7 2.8-1.8 2.8-.7 0-1.2-.4-1.4-1h-.9c.4 1 1.2 1.7 2.4 1.7zm0-3.2c-.9 0-1.5-.6-1.5-1.6 0-.9.7-1.6 1.5-1.6s1.5.7 1.5 1.6c.1.9-.5 1.6-1.5 1.6zm3.9 1.7c0 .4.3.7.7.7s.7-.3.7-.7-.3-.7-.7-.7-.7.3-.7.7zm0-3.7c0 .4.3.7.7.7s.7-.3.7-.7c0-.4-.3-.7-.7-.7-.4 0-.7.3-.7.7zm2.8.2h.8c0-.8.5-1.3 1.3-1.3s1.3.5 1.3 1.2c0 .5-.2.9-1.1 1.9l-2.4 2.6v.6h4.4v-.9h-3.2v-.1l1.6-1.8c1.1-1.2 1.4-1.7 1.4-2.5 0-1.1-.9-1.9-2.2-1.9-1 .1-1.9.9-1.9 2.2zm8.9 4.8h.8V8.9h1v-.7h-1V3.5H142c-1.2 1.8-2.3 3.5-2.9 4.6v.8h3.3v1.4zm-2.5-2.2c.8-1.4 1.7-2.8 2.4-3.8h.1v3.9l-2.5-.1z"/>
            <path fill="#FFF" d="M13.5 9.3c1.3 0 2.4-1.1 2.4-2.4s-1.1-2.4-2.4-2.4-2.4 1.1-2.4 2.4 1.1 2.4 2.4 2.4z"/>
            <path fill="#FFF" d="M7.6 9.3c1.3 0 2.4-1.1 2.4-2.4S8.9 4.5 7.6 4.5 5.2 5.6 5.2 6.9s1.1 2.4 2.4 2.4z"/>
            <linearGradient id="e" gradientUnits="userSpaceOnUse" x1="123.098" y1="737.41" x2="136.908" y2="795.65" gradientTransform="translate(0 -329.419)">
                <stop offset="0" stop-color="#004fa9"/>
                <stop offset="1" stop-color="#2a92d0"/>
            </linearGradient>
            <path fill="url(#e)" d="M0 414.2h260V460H0v-45.8z"/>
            <path fill="none" stroke="#FFF" stroke-opacity=".11" d="M131.9 418.3v37.6"/>
            <path fill="#FFF" d="M194.9 422.8c-1.6 0-3.1.5-4.4 1.3-1.3.9-2.3 2.1-2.9 3.5-.6 1.4-.8 3-.4 4.5.3 1.5 1.1 2.9 2.2 4s2.5 1.8 4 2.1c1.5.3 3.1.1 4.5-.4 1.4-.6 2.7-1.6 3.5-2.9.9-1.3 1.3-2.8 1.3-4.3 0-1-.2-2-.6-3-.4-.9-1-1.8-1.7-2.5s-1.6-1.3-2.6-1.7c-.8-.4-1.8-.6-2.9-.6zm0 14.1c-1.2 0-2.5-.4-3.5-1.1s-1.8-1.7-2.3-2.8c-.5-1.1-.6-2.4-.4-3.6.2-1.2.8-2.3 1.7-3.2.9-.9 2-1.5 3.2-1.7s2.5-.1 3.6.4c1.2.5 2.1 1.3 2.8 2.3s1.1 2.2 1.1 3.5c0 1.7-.7 3.3-1.8 4.4-1.1 1.1-2.7 1.8-4.4 1.8zm.8-11h-1.6v5.5h4.7v-1.6h-3.1v-3.9z"/>
            <path fill="#FFF" d="M67.9 431c0-.2.1-.5.1-.7 0-4.2-3.4-7.6-7.6-7.6s-7.6 3.4-7.6 7.6 3.4 7.6 7.6 7.6c.3 0 .5 0 .7-.1l1.4 1.4 1-1-3.5-3.4c-1.3-1.4-1.3-3.5 0-4.9.7-.6 1.6-1 2.5-1s1.8.3 2.4 1l3.5 3.4 1-1-1.5-1.3zm-2.1-2c-.9-.9-2.1-1.4-3.4-1.4s-2.5.5-3.5 1.4c-1.9 1.9-1.9 5 0 6.8l.7.7c-3.1-.3-5.5-3-5.5-6.1 0-3.4 2.8-6.2 6.2-6.2 3.2 0 5.9 2.4 6.2 5.6l-.7-.8zm-5.3 1.5c-.6.5-.8 1.2-.8 1.9 0 .8.3 1.4.8 1.9l1.5 1.4 4-3.9-1.5-1.4c-1.2-1-3-1-4 .1zm1.4 3.4l-.5-.5c-.3-.3-.4-.6-.4-1s.1-.7.4-1c.3-.3.6-.4 1-.4s.7.1 1 .4l.5.5-2 2z"/>
            <path fill="#FFF" d="M47.9 444.4c.9 0 1.5.2 1.9.5s.6.9.6 1.6-.2 1.2-.6 1.5c-.4.3-1 .5-1.9.5h-1v1.7h-1v-5.8h2zm.1 3.2c.5 0 .9-.1 1.1-.3.2-.2.3-.5.3-.9s-.1-.7-.4-.9c-.2-.2-.6-.2-1.2-.2h-1v2.3H48zm6.9 2.6h-.8v-.6c-.4.4-.9.7-1.5.7-.5 0-.8-.1-1.1-.4s-.4-.6-.4-1 .2-.8.5-1 .8-.3 1.3-.3H54v-.2c0-.6-.3-.9-1-.9-.4 0-.8.1-1.3.4l-.4-.6c.5-.4 1.1-.6 1.8-.6.5 0 .9.1 1.3.4.3.3.5.7.5 1.2v2.9zm-.9-1.6v-.4h-1c-.7 0-1 .2-1 .6 0 .2.1.4.2.5.2.1.4.2.7.2s.6-.1.8-.2.3-.4.3-.7zm2.7 3.4c-.4 0-.8-.1-1.1-.4l.4-.8c.2.2.4.3.6.3.2 0 .4-.1.5-.2s.2-.3.2-.5c0-.1-.6-1.6-1.8-4.5h1l1.3 3.2 1.3-3.2h1l-2.1 5.2c-.1.3-.3.5-.5.7-.2.1-.5.2-.8.2zm7.5-4.2v2.4h-.9v-4.4h.9v.8c.1-.3.4-.5.6-.6.3-.2.6-.2.9-.2.5 0 .9.2 1.2.5.3.3.5.7.5 1.3v2.7h-.9v-2.4c0-.8-.3-1.2-1-1.2-.3 0-.6.1-.8.3-.4.1-.5.4-.5.8zm5.5 1.3c.3.3.6.4 1 .4s.7-.1 1-.4.4-.6.4-1-.1-.8-.4-1c-.3-.3-.6-.4-1-.4s-.7.1-1 .4-.4.6-.4 1c0 .3.1.7.4 1zm2.6.5c-.4.4-1 .7-1.7.7s-1.2-.2-1.7-.7c-.4-.4-.7-1-.7-1.6s.2-1.2.7-1.6c.4-.4 1-.7 1.7-.7s1.2.2 1.7.7c.4.4.7 1 .7 1.6s-.2 1.2-.7 1.6zm3.8.6H75l-1.5-4.4h1l1.1 3.3 1.1-3.3h1l1.1 3.3 1.1-3.3h1l-1.5 4.4h-1.1l-1-3-1.2 3z"/>
            <path fill="#FFF" d="M180.3 444.4c.9 0 1.5.2 1.9.5s.6.9.6 1.6-.2 1.2-.6 1.5c-.4.3-1 .5-1.9.5h-1v1.7h-1v-5.8h2zm.1 3.2c.5 0 .9-.1 1.1-.3.2-.2.3-.5.3-.9s-.1-.7-.4-.9c-.2-.2-.6-.2-1.2-.2h-1v2.3h1.2zm7 2.6h-.8v-.6c-.4.4-.9.7-1.5.7-.5 0-.8-.1-1.1-.4s-.4-.6-.4-1 .2-.8.5-1 .8-.3 1.3-.3h1.2v-.2c0-.6-.3-.9-1-.9-.4 0-.8.1-1.3.4l-.4-.6c.5-.4 1.1-.6 1.8-.6.5 0 .9.1 1.3.4.3.3.5.7.5 1.2v2.9h-.1zm-1-1.6v-.4h-1c-.7 0-1 .2-1 .6 0 .2.1.4.2.5.2.1.4.2.7.2s.6-.1.8-.2.3-.4.3-.7zm2.8 3.4c-.4 0-.8-.1-1.1-.4l.4-.8c.2.2.4.3.6.3.2 0 .4-.1.5-.2s.2-.3.2-.5c0-.1-.6-1.6-1.8-4.5h1l1.3 3.2 1.3-3.2h1l-2.1 5.2c-.1.3-.3.5-.5.7-.3.1-.5.2-.8.2zm7.4-1.8h-.9v-6.1h.9v6.1zm4.9 0h-.8v-.6c-.4.4-.9.7-1.5.7-.5 0-.8-.1-1.1-.4s-.4-.6-.4-1 .2-.8.5-1 .8-.3 1.3-.3h1.2v-.2c0-.6-.3-.9-1-.9-.4 0-.8.1-1.3.4l-.4-.6c.5-.4 1.1-.6 1.8-.6.5 0 .9.1 1.3.4.3.3.5.7.5 1.2v2.9h-.1zm-.9-1.6v-.4h-1c-.7 0-1 .2-1 .6 0 .2.1.4.2.5.2.1.4.2.7.2s.6-.1.8-.2.3-.4.3-.7zm3.3-2v2.2c0 .2.1.4.2.5.1.1.3.2.5.2s.4-.1.6-.3l.4.7c-.3.3-.7.4-1.1.4-.4 0-.7-.1-1-.4s-.4-.6-.4-1.1v-2.2h-.6v-.7h.6v-1.4h.9v1.4h1.2v.7h-1.3zm6.5 1.8h-3.5c0 .3.2.6.4.8.3.2.6.3.9.3.6 0 1-.2 1.3-.5l.5.6c-.5.5-1.1.7-1.9.7-.6 0-1.2-.2-1.6-.6-.4-.4-.6-1-.6-1.7s.2-1.2.7-1.7c.4-.4 1-.6 1.6-.6s1.1.2 1.5.5c.4.4.6.9.6 1.5v.7h.1zm-3.5-.7h2.5c0-.4-.1-.7-.3-.9-.2-.2-.5-.3-.9-.3-.3 0-.6.1-.9.3-.3.3-.4.5-.4.9zm6.8-1c-.5 0-.8.1-1 .4s-.3.7-.3 1.2v1.9h-.9v-4.4h.9v.9c.1-.3.4-.5.6-.7.3-.2.5-.3.8-.3l-.1 1c.1 0 0 0 0 0z"/>
        </g>
    </g>
</svg>
