<svg xmlns="http://www.w3.org/2000/svg" viewBox="0 0 260 460" enable-background="new 0 0 260 460">
    <path fill="#FFF" d="M0 0h260v460H0z"/>
    <path fill="#FFF" d="M243.6 276.9l-4.2-4.1c-.2-.2-.5-.2-.7 0-.2.2-.2.5 0 .7l3.8 3.8-3.8 3.8c-.2.2-.2.5 0 .7.2.2.5.2.7 0l4.2-4.1c.2-.4.2-.7 0-.8z"/>
    <path fill="#FFF" d="M243.6 414.9l-4.2-4.1c-.2-.2-.5-.2-.7 0-.2.2-.2.5 0 .7l3.8 3.8-3.8 3.8c-.2.2-.2.5 0 .7.2.2.5.2.7 0l4.2-4.1c.2-.4.2-.7 0-.8z"/>
    <path fill="#FFF" d="M240.8 419.8l-4.2-4.1c-.2-.2-.5-.2-.7 0-.2.2-.2.5 0 .7l3.8 3.8-3.8 3.8c-.2.2-.2.5 0 .7.2.2.5.2.7 0l4.2-4.1c.2-.3.2-.6 0-.8z"/>
    <path fill="#2486D5" d="M11.4 240.4h233.1c1.5 0 2.8 1.2 2.8 2.8v58.4c0 1.5-1.2 2.8-2.8 2.8H11.4c-1.5 0-2.8-1.2-2.8-2.8v-58.4c.1-1.6 1.3-2.8 2.8-2.8z"/>
    <path fill="#2486D5" d="M11.4 240.4h237.1c1.5 0 2.8 1.2 2.8 2.8v58.4c0 1.5-1.2 2.8-2.8 2.8H11.4c-1.5 0-2.8-1.2-2.8-2.8v-58.4c.1-1.6 1.3-2.8 2.8-2.8z"/>
    <path fill="#FFF" d="M25.6 268.7l-.8 1.8h-1.4l3.4-7.7h1.4l3.4 7.7h-1.4l-.8-1.8h-3.8zm3.4-1.2l-1.4-3.2-1.4 3.2H29zm7.8 1.2c0 .6-.2 1-.6 1.3-.4.3-.9.5-1.6.5-.4 0-.9-.1-1.3-.2-.5-.2-.9-.4-1.2-.7l.6-1c.7.5 1.4.8 2 .8.3 0 .5-.1.7-.2.2-.1.2-.3.2-.5 0-.3-.4-.6-1.2-.8h-.1c-1.2-.3-1.8-.9-1.8-1.7 0-.5.2-1 .6-1.3.4-.3 1-.5 1.7-.5s1.3.2 1.9.6l-.5.9c-.5-.3-1-.5-1.6-.5-.3 0-.5.1-.7.2-.2.1-.3.3-.3.5s.1.3.3.4c.1.1.3.1.6.2.2.1.5.1.6.2.2.1.4.1.5.2l.6.3c.4.3.6.7.6 1.3zm2.7 1.8h-1.2v-8.2h1.2v4.8l2.4-2.5h1.6l-2.2 2.3 2.4 3.5h-1.5l-1.8-2.6-.9.9v1.8zm9.7-6.4v.5h1.6v1h-1.6v4.9H48v-4.9h-.7v-1h.7v-.5c0-.6.2-1.1.6-1.5.4-.4.8-.6 1.4-.6.5 0 1 .2 1.5.6l-.5.9c-.2-.3-.5-.4-.8-.4-.3 0-.5.1-.6.3-.3.2-.4.4-.4.7zm4 4.8c.4.4.8.5 1.3.5s1-.2 1.3-.5c.4-.4.5-.8.5-1.4 0-.6-.2-1-.5-1.4-.3-.4-.8-.5-1.3-.5s-1 .2-1.3.5c-.3.4-.5.8-.5 1.4 0 .6.2 1 .5 1.4zm3.6.8c-.6.6-1.3.9-2.2.9-.9 0-1.6-.3-2.2-.9-.6-.6-.9-1.3-.9-2.2 0-.8.3-1.6.9-2.1.6-.6 1.3-.9 2.2-.9.9 0 1.6.3 2.2.9.6.6.9 1.3.9 2.1 0 .9-.3 1.6-.9 2.2zm5.4-4c-.6 0-1.1.2-1.4.6s-.5.9-.5 1.6v2.5h-1.2v-5.9h1.2v1.2c.2-.4.5-.7.8-.9.3-.2.7-.4 1.1-.4v1.3zm9.1 4.8h-1.1v-.8c-.5.6-1.1.9-2 .9-.6 0-1.1-.2-1.5-.5-.4-.3-.6-.8-.6-1.4 0-.6.2-1 .6-1.3.4-.3 1-.4 1.7-.4H70v-.2c0-.8-.4-1.2-1.3-1.2-.5 0-1.1.2-1.7.6l-.6-.8c.7-.6 1.5-.8 2.4-.8.7 0 1.3.2 1.7.5.4.3.7.9.7 1.6v3.8zm-1.2-2.2v-.5h-1.4c-.9 0-1.3.3-1.3.8 0 .3.1.5.3.7.2.1.5.2.9.2s.7-.1 1-.3c.3-.3.5-.6.5-.9zm8.4-3.7v5.1c0 1-.3 1.8-.9 2.3-.6.5-1.3.8-2.2.8s-1.7-.3-2.4-.8l.6-.9c.6.4 1.2.7 1.7.7.6 0 1.1-.2 1.4-.5.3-.3.5-.8.5-1.4v-.9c-.2.3-.5.6-.8.8-.3.2-.7.3-1.2.3-.8 0-1.4-.3-1.9-.8s-.8-1.2-.8-2 .3-1.5.8-2 1.1-.8 1.9-.8c.8 0 1.4.3 1.9 1v-.9h1.4zm-4.6 2.7c0 .5.1.9.4 1.2.3.3.7.5 1.2.5s.9-.2 1.2-.5c.3-.3.5-.8.5-1.3s-.2-.9-.5-1.3-.7-.5-1.2-.5-.9.2-1.2.5c-.3.5-.4.9-.4 1.4zm11.9.8h-4.6c0 .4.2.8.6 1 .4.3.8.4 1.2.4.7 0 1.3-.2 1.7-.7l.7.8c-.6.7-1.5 1-2.5 1-.8 0-1.5-.3-2.1-.8-.6-.6-.9-1.3-.9-2.2 0-.9.3-1.7.9-2.2.6-.5 1.3-.8 2.1-.8s1.5.2 2.1.7c.6.5.8 1.1.8 2v.8zm-4.6-1h3.4c0-.5-.2-.9-.5-1.1-.3-.3-.7-.4-1.2-.4s-.9.1-1.2.4c-.3.2-.5.6-.5 1.1zm7.2.2v3.2h-1.2v-5.9h1.2v1.1c.2-.4.5-.6.8-.8.4-.2.7-.3 1.1-.3.7 0 1.2.2 1.6.6.4.4.6 1 .6 1.8v3.6h-1.2v-3.2c0-1.1-.5-1.6-1.4-1.6-.4 0-.8.1-1.1.4-.2.1-.4.5-.4 1.1zm8.6 3.2c-.8 0-1.5-.3-2.1-.8-.6-.6-.9-1.3-.9-2.2 0-.9.3-1.6.9-2.2.6-.6 1.4-.8 2.3-.8s1.6.3 2.3.9l-.7.9c-.5-.4-1-.7-1.5-.7s-1 .2-1.4.5c-.4.3-.6.8-.6 1.3s.2 1 .6 1.4c.4.4.8.6 1.4.6.6 0 1.1-.2 1.6-.8l.7.8c-.9.8-1.7 1.1-2.6 1.1zm4.5 2.3c-.5 0-1-.2-1.5-.6l.6-1c.3.2.5.4.8.4.3 0 .5-.1.7-.3.2-.2.3-.4.3-.7 0-.1-.8-2.1-2.4-6h1.3l1.8 4.3 1.8-4.3h1.3l-2.9 7c-.2.4-.4.7-.7.9-.4.2-.7.3-1.1.3zm11-2.3c-.7 0-1.4-.3-2-.8-.6-.6-.8-1.3-.8-2.2s.3-1.6.8-2.2c.6-.5 1.2-.8 2-.8s1.4.4 1.9 1.1v-1h1.2v8h-1.2v-3c-.4.6-1.1.9-1.9.9zm-1.5-3c0 .6.2 1 .5 1.4.4.4.8.5 1.3.5s.9-.2 1.2-.5c.3-.4.5-.8.5-1.4 0-.6-.2-1-.5-1.4-.3-.4-.8-.6-1.3-.6s-.9.2-1.3.6c-.2.4-.4.9-.4 1.4zm10.7.3v-3.2h1.2v5.9h-1.2v-1.1c-.2.4-.5.6-.8.8-.3.2-.7.3-1.1.3-.7 0-1.2-.2-1.6-.6-.4-.4-.6-1-.6-1.8v-3.6h1.2v3.2c0 1.1.5 1.6 1.4 1.6.4 0 .8-.1 1.1-.4.3-.2.4-.6.4-1.1zm4.4 1.1c.4.4.8.5 1.3.5s1-.2 1.3-.5c.4-.4.5-.8.5-1.4 0-.6-.2-1-.5-1.4-.3-.4-.8-.5-1.3-.5s-1 .2-1.3.5c-.3.4-.5.8-.5 1.4 0 .6.2 1 .5 1.4zm3.6.8c-.6.6-1.3.9-2.2.9-.9 0-1.6-.3-2.2-.9-.6-.6-.9-1.3-.9-2.2 0-.8.3-1.6.9-2.1.6-.6 1.3-.9 2.2-.9.9 0 1.6.3 2.2.9.6.6.9 1.3.9 2.1 0 .9-.3 1.6-.9 2.2zm3.7-4.1v3c0 .3.1.5.2.7.1.2.4.2.6.2.3 0 .5-.1.8-.4l.5.9c-.4.4-.9.6-1.5.6-.5 0-1-.2-1.4-.5-.4-.4-.6-.9-.6-1.5v-2.9h-.7v-1h.7v-1.8h1.2v1.8h1.6v1h-1.4zm8.6 2.5h-4.6c0 .4.2.8.6 1 .4.3.8.4 1.2.4.7 0 1.3-.2 1.7-.7l.7.8c-.6.7-1.5 1-2.5 1-.8 0-1.5-.3-2.1-.8-.6-.6-.9-1.3-.9-2.2 0-.9.3-1.7.9-2.2.6-.5 1.3-.8 2.1-.8s1.5.2 2.1.7c.6.5.8 1.1.8 2v.8zm-4.6-1h3.4c0-.5-.2-.9-.5-1.1-.3-.3-.7-.4-1.2-.4s-.9.1-1.2.4c-.3.2-.5.6-.5 1.1z"/>
    <path opacity=".7" fill="#FFF" enable-background="new" d="M28.2 281.6h1v2c-.5.6-1.3.9-2.4.9-.9 0-1.6-.3-2.2-.8-.6-.6-.9-1.3-.9-2.1 0-.9.3-1.6.9-2.2.6-.6 1.3-.9 2.1-.9s1.5.2 2.1.7l-.5.7c-.2-.2-.5-.3-.7-.4-.2-.1-.5-.1-.8-.1-.6 0-1.1.2-1.5.6-.4.4-.6.9-.6 1.5s.2 1.1.6 1.5c.4.4.9.6 1.4.6.6 0 1-.1 1.4-.4v-1.6zm6.2 1H31c0 .3.2.6.4.8.3.2.6.3.9.3.6 0 1-.2 1.3-.5l.5.6c-.5.5-1.1.7-1.9.7-.6 0-1.2-.2-1.6-.6-.4-.4-.6-1-.6-1.7s.2-1.2.7-1.7c.4-.4 1-.6 1.6-.6.6 0 1.1.2 1.5.5.4.4.6.9.6 1.5v.7zm-3.4-.7h2.5c0-.4-.1-.7-.3-.9-.2-.2-.5-.3-.9-.3-.3 0-.6.1-.9.3-.3.2-.4.5-.4.9zm5.6-1.2v2.2c0 .2.1.4.2.5.1.1.3.2.5.2s.4-.1.6-.3l.4.7c-.3.3-.7.4-1.1.4-.4 0-.7-.1-1-.4-.3-.3-.4-.6-.4-1.1v-2.2h-.6v-.7h.6v-1.4h.9v1.4h1.2v.7h-1.3zm5.7 0v2.2c0 .2.1.4.2.5.1.1.3.2.5.2s.4-.1.6-.3l.4.7c-.3.3-.7.4-1.1.4-.4 0-.7-.1-1-.4-.3-.3-.4-.6-.4-1.1v-2.2h-.6v-.7h.6v-1.4h.9v1.4h1.2v.7h-1.3zm3.3 1.3v2.4h-.9v-6.1h.9v2.5c.1-.3.3-.5.6-.6.3-.2.6-.2.9-.2.5 0 .9.2 1.2.5.3.3.5.7.5 1.3v2.7h-.9V282c0-.8-.3-1.2-1-1.2-.3 0-.6.1-.8.3-.4.2-.5.5-.5.9zm8.6.6h-3.5c0 .3.2.6.4.8.3.2.6.3.9.3.6 0 1-.2 1.3-.5l.5.6c-.5.5-1.1.7-1.9.7-.6 0-1.2-.2-1.6-.6-.4-.4-.6-1-.6-1.7s.2-1.2.7-1.7c.4-.4 1-.6 1.6-.6.6 0 1.1.2 1.5.5.4.4.6.9.6 1.5v.7zm-3.5-.7h2.5c0-.4-.1-.7-.3-.9-.2-.2-.5-.3-.9-.3-.3 0-.6.1-.9.3-.3.2-.4.5-.4.9zm9.1-2c.6 0 1.1.2 1.5.6.4.4.6 1 .6 1.6s-.2 1.2-.6 1.7c-.4.4-.9.6-1.5.6s-1.1-.2-1.5-.7v.7h-.9v-6.1h.9v2.5c.5-.6.9-.9 1.5-.9zm-1.4 2.3c0 .4.1.8.4 1 .3.3.6.4.9.4.4 0 .7-.1 1-.4.3-.3.4-.6.4-1s-.1-.8-.4-1.1c-.3-.3-.6-.4-1-.4s-.7.1-.9.4c-.3.3-.4.7-.4 1.1zm8.8.4h-3.5c0 .3.2.6.4.8.3.2.6.3.9.3.6 0 1-.2 1.3-.5l.5.6c-.5.5-1.1.7-1.9.7-.6 0-1.2-.2-1.6-.6-.4-.4-.6-1-.6-1.7s.2-1.2.7-1.7c.4-.4 1-.6 1.6-.6.6 0 1.1.2 1.5.5.4.4.6.9.6 1.5v.7zm-3.5-.7h2.5c0-.4-.1-.7-.3-.9-.2-.2-.5-.3-.9-.3-.3 0-.6.1-.9.3-.3.2-.4.5-.4.9zm7.6 1.2c0 .4-.2.8-.5 1-.3.2-.7.4-1.2.4-.3 0-.7-.1-1-.2-.3-.1-.6-.3-.9-.5l.4-.7c.5.4 1 .6 1.5.6.2 0 .4 0 .5-.1.1-.1.2-.2.2-.4s-.3-.4-.9-.6h-.1c-.9-.2-1.4-.7-1.4-1.2 0-.4.2-.7.5-1 .3-.2.7-.4 1.2-.4s1 .1 1.4.4l-.3.7c-.4-.2-.8-.4-1.2-.4-.2 0-.4 0-.5.1-.1.1-.2.2-.2.4 0 .1.1.2.2.3.1 0 .2.1.4.1s.3.1.5.1.3.1.4.1c.1.1.3.1.4.2.5.4.6.7.6 1.1zm2.2-2.4v2.2c0 .2.1.4.2.5.1.1.3.2.5.2s.4-.1.6-.3l.4.7c-.3.3-.7.4-1.1.4-.4 0-.7-.1-1-.4-.3-.3-.4-.6-.4-1.1v-2.2h-.6v-.7h.6v-1.4h.9v1.4h1.2v.7h-1.3zm8.2 3.7h-.8v-.6c-.4.4-.9.7-1.5.7-.5 0-.8-.1-1.1-.4-.3-.3-.4-.6-.4-1s.2-.8.5-1c.3-.2.8-.3 1.3-.3h1.2v-.2c0-.6-.3-.9-1-.9-.4 0-.8.1-1.3.4l-.4-.6c.5-.4 1.1-.6 1.8-.6.5 0 .9.1 1.3.4.3.3.5.7.5 1.2v2.9zm-.9-1.6v-.4h-1c-.7 0-1 .2-1 .6 0 .2.1.4.2.5.2.1.4.2.7.2.3 0 .6-.1.8-.2.2-.2.3-.5.3-.7zm6.3-2.8v3.8c0 .8-.2 1.4-.6 1.7-.4.4-1 .6-1.6.6-.7 0-1.3-.2-1.8-.6l.4-.7c.4.3.9.5 1.3.5s.8-.1 1-.3c.3-.2.4-.6.4-1.1v-.6c-.1.3-.3.5-.6.6-.3.2-.5.2-.9.2-.6 0-1.1-.2-1.4-.6-.4-.4-.6-.9-.6-1.5s.2-1.1.6-1.5c.4-.4.9-.6 1.4-.6.6 0 1.1.2 1.4.7v-.6h1zm-3.4 2c0 .4.1.7.3.9.2.3.5.4.9.4s.7-.1.9-.4c.2-.3.4-.6.4-.9 0-.4-.1-.7-.4-1-.2-.3-.5-.4-.9-.4s-.7.1-.9.4c-.2.4-.3.7-.3 1zm8.9.6h-3.5c0 .3.2.6.4.8.3.2.6.3.9.3.6 0 1-.2 1.3-.5l.5.6c-.5.5-1.1.7-1.9.7-.6 0-1.2-.2-1.6-.6-.4-.4-.6-1-.6-1.7s.2-1.2.7-1.7c.4-.4 1-.6 1.6-.6.6 0 1.1.2 1.5.5.4.4.6.9.6 1.5v.7zm-3.5-.7h2.5c0-.4-.1-.7-.3-.9-.2-.2-.5-.3-.9-.3-.3 0-.6.1-.9.3-.2.2-.4.5-.4.9zm5.5.1v2.4h-.9V280h.9v.8c.1-.3.4-.5.6-.6.3-.2.6-.2.9-.2.5 0 .9.2 1.2.5.3.3.5.7.5 1.3v2.7h-.9V282c0-.8-.3-1.2-1-1.2-.3 0-.6.1-.8.3-.4.2-.5.5-.5.9zm5.5-1.3v2.2c0 .2.1.4.2.5.1.1.3.2.5.2s.4-.1.6-.3l.4.7c-.3.3-.7.4-1.1.4-.4 0-.7-.1-1-.4-.3-.3-.4-.6-.4-1.1v-2.2h-.6v-.7h.6v-1.4h.9v1.4h1.2v.7h-1.3zm7.8 2.4c0 .4-.2.8-.5 1-.3.2-.7.4-1.2.4-.3 0-.7-.1-1-.2-.3-.1-.6-.3-.9-.5l.4-.7c.5.4 1 .6 1.5.6.2 0 .4 0 .5-.1.1-.1.2-.2.2-.4s-.3-.4-.9-.6h-.1c-.9-.2-1.4-.7-1.4-1.2 0-.4.2-.7.5-1 .3-.2.7-.4 1.2-.4s1 .1 1.4.4l-.3.7c-.4-.2-.8-.4-1.2-.4-.2 0-.4 0-.5.1-.1.1-.2.2-.2.4 0 .1.1.2.2.3.1 0 .2.1.4.1s.3.1.5.1.3.1.4.1c.1.1.3.1.4.2.4.4.6.7.6 1.1zm5.1-.5h-3.5c0 .3.2.6.4.8.3.2.6.3.9.3.6 0 1-.2 1.3-.5l.5.6c-.5.5-1.1.7-1.9.7-.6 0-1.2-.2-1.6-.6-.4-.4-.6-1-.6-1.7s.2-1.2.7-1.7c.4-.4 1-.6 1.6-.6.6 0 1.1.2 1.5.5.4.4.6.9.6 1.5v.7zm-3.4-.7h2.5c0-.4-.1-.7-.3-.9-.2-.2-.5-.3-.9-.3-.3 0-.6.1-.9.3-.3.2-.4.5-.4.9zm5.4 2.5h-.9v-6.1h.9v6.1zm5.5-1.8H117c0 .3.2.6.4.8.3.2.6.3.9.3.6 0 1-.2 1.3-.5l.5.6c-.5.5-1.1.7-1.9.7-.6 0-1.2-.2-1.6-.6-.4-.4-.6-1-.6-1.7s.2-1.2.7-1.7c.4-.4 1-.6 1.6-.6.6 0 1.1.2 1.5.5.4.4.6.9.6 1.5v.7zm-3.5-.7h2.5c0-.4-.1-.7-.3-.9-.2-.2-.5-.3-.9-.3-.3 0-.6.1-.9.3-.3.2-.4.5-.4.9zm6.5 2.6c-.6 0-1.1-.2-1.6-.6-.4-.4-.7-1-.7-1.6 0-.7.2-1.2.7-1.6.5-.4 1-.6 1.7-.6s1.2.2 1.7.7l-.5.7c-.4-.3-.8-.5-1.2-.5s-.7.1-1 .4c-.3.3-.4.6-.4 1s.1.7.4 1c.3.3.6.4 1 .4s.8-.2 1.2-.6l.5.6c-.5.4-1.1.7-1.8.7zm3.9-3.8v2.2c0 .2.1.4.2.5.1.1.3.2.5.2s.4-.1.6-.3l.4.7c-.3.3-.7.4-1.1.4-.4 0-.7-.1-1-.4-.3-.3-.4-.6-.4-1.1v-2.2h-.6v-.7h.6v-1.4h.9v1.4h1.2v.7h-1.3zm3.3 3.7h-.9V280h.9v4.4zm-.9-5.3c-.1-.1-.2-.3-.2-.4s.1-.3.2-.4c.1-.1.3-.2.4-.2s.3.1.4.2c.1.1.2.3.2.4s-.1.3-.2.4c-.1.1-.3.2-.4.2s-.3-.1-.4-.2zm3.3 4.1c.3.3.6.4 1 .4s.7-.1 1-.4c.3-.3.4-.6.4-1s-.1-.8-.4-1c-.3-.3-.6-.4-1-.4s-.7.1-1 .4c-.3.3-.4.6-.4 1s.1.8.4 1zm2.6.6c-.4.4-1 .7-1.7.7s-1.2-.2-1.7-.7c-.4-.4-.7-1-.7-1.6 0-.6.2-1.2.7-1.6.4-.4 1-.7 1.7-.7s1.2.2 1.7.7c.4.4.7 1 .7 1.6 0 .6-.2 1.2-.7 1.6zm2.7-1.8v2.4h-.9V280h.9v.8c.1-.3.4-.5.6-.6.3-.2.6-.2.9-.2.5 0 .9.2 1.2.5.3.3.5.7.5 1.3v2.7h-.9V282c0-.8-.3-1.2-1-1.2-.3 0-.6.1-.8.3-.4.2-.5.5-.5.9zm10.3 2.4h-.8v-.6c-.4.4-.9.7-1.5.7-.5 0-.8-.1-1.1-.4-.3-.3-.4-.6-.4-1s.2-.8.5-1c.3-.2.8-.3 1.3-.3h1.2v-.2c0-.6-.3-.9-1-.9-.4 0-.8.1-1.3.4l-.4-.6c.5-.4 1.1-.6 1.8-.6.5 0 .9.1 1.3.4.3.3.5.7.5 1.2v2.9zm-.9-1.6v-.4h-1c-.7 0-1 .2-1 .6 0 .2.1.4.2.5.2.1.4.2.7.2.3 0 .6-.1.8-.2.2-.2.3-.5.3-.7zm3.2-.8v2.4h-1V280h.9v.8c.1-.3.4-.5.6-.6.3-.2.6-.2.9-.2.5 0 .9.2 1.2.5.3.3.5.7.5 1.3v2.7h-.9V282c0-.8-.3-1.2-1-1.2-.3 0-.6.1-.8.3-.3.2-.4.5-.4.9zm6.2 2.5c-.6 0-1-.2-1.5-.6-.4-.4-.6-1-.6-1.7s.2-1.2.6-1.6c.4-.4.9-.6 1.5-.6s1.1.2 1.4.7v-2.4h.9v6.1h-.9v-.7c-.2.5-.7.8-1.4.8zm-1.2-2.3c0 .4.1.8.4 1s.6.4 1 .4.7-.1.9-.4c.3-.3.4-.6.4-1s-.1-.8-.4-1.1c-.3-.3-.6-.4-.9-.4-.4 0-.7.1-1 .4-.2.3-.4.7-.4 1.1zm8.2 2.2h-.9V280h.9v4.4zm-.9-5.3c-.1-.1-.2-.3-.2-.4s.1-.3.2-.4c.1-.1.3-.2.4-.2.2 0 .3.1.4.2.1.1.2.3.2.4s-.1.3-.2.4c-.1.1-.3.2-.4.2-.1 0-.3-.1-.4-.2zm3.2 2.9v2.4h-.9V280h.9v.8c.1-.3.4-.5.6-.6.3-.2.6-.2.9-.2.5 0 .9.2 1.2.5.3.3.5.7.5 1.3v2.7h-.9V282c0-.8-.3-1.2-1-1.2-.3 0-.6.1-.8.3-.4.2-.5.5-.5.9zm7.6 1.1c0 .4-.2.8-.5 1-.3.2-.7.4-1.2.4-.3 0-.7-.1-1-.2-.3-.1-.6-.3-.9-.5l.4-.7c.5.4 1 .6 1.5.6.2 0 .4 0 .5-.1.1-.1.2-.2.2-.4s-.3-.4-.9-.6h-.1c-.9-.2-1.4-.7-1.4-1.2 0-.4.2-.7.5-1 .3-.2.7-.4 1.2-.4s1 .1 1.4.4l-.3.7c-.4-.2-.8-.4-1.2-.4-.2 0-.4 0-.5.1-.1.1-.2.2-.2.4 0 .1.1.2.2.3.1 0 .2.1.4.1s.3.1.5.1.3.1.4.1c.1.1.3.1.4.2.4.4.6.7.6 1.1zm2.2-2.4v2.2c0 .2.1.4.2.5.1.1.3.2.5.2s.4-.1.6-.3l.4.7c-.3.3-.7.4-1.1.4-.4 0-.7-.1-1-.4-.3-.3-.4-.6-.4-1.1v-2.2h-.6v-.7h.6v-1.4h.9v1.4h1.2v.7h-1.3zm4.6.2c-.5 0-.8.1-1 .4-.2.3-.3.7-.3 1.2v1.9h-.9V280h.9v.9c.1-.3.4-.5.6-.7.3-.2.5-.3.8-.3l-.1 1c.1 0 .1 0 0 0zm4.1 1.5V280h.9v4.4h-.9v-.8c-.1.3-.4.5-.6.6-.3.2-.5.2-.8.2-.5 0-.9-.2-1.2-.5-.3-.3-.5-.7-.5-1.3V280h.9v2.4c0 .8.3 1.2 1 1.2.3 0 .6-.1.8-.3.3-.2.4-.5.4-.9zm4.3 2.1c-.6 0-1.1-.2-1.6-.6-.4-.4-.7-1-.7-1.6 0-.7.2-1.2.7-1.6.5-.4 1-.6 1.7-.6s1.2.2 1.7.7l-.5.7c-.4-.3-.8-.5-1.2-.5-.4 0-.7.1-1 .4-.3.3-.4.6-.4 1s.1.7.4 1c.3.3.6.4 1 .4s.8-.2 1.2-.6l.5.6c-.5.4-1.1.7-1.8.7zm3.9-3.8v2.2c0 .2.1.4.2.5.1.1.3.2.5.2s.4-.1.6-.3l.4.7c-.3.3-.7.4-1.1.4-.4 0-.7-.1-1-.4-.3-.3-.4-.6-.4-1.1v-2.2h-.6v-.7h.6v-1.4h.9v1.4h1.2v.7h-1.3z"/>
    <path fill="#FFF" d="M238.8 271l-4.2-4.1c-.2-.2-.5-.2-.7 0-.2.2-.2.5 0 .7l3.8 3.8-3.8 3.8c-.2.2-.2.5 0 .7.2.2.5.2.7 0l4.2-4.1c.1-.3.1-.6 0-.8z"/>
    <path fill="#ACD9FB" d="M8.1 243.1c0-1.5 1.2-2.8 2.8-2.8h4v63.9h-4c-1.5 0-2.8-1.2-2.8-2.8v-58.3z"/>
    <path fill="#2486D5" d="M11.4 313.1h237.1c1.5 0 2.8 1.2 2.8 2.8v58.4c0 1.5-1.2 2.8-2.8 2.8H11.4c-1.5 0-2.8-1.2-2.8-2.8v-58.4c.1-1.6 1.3-2.8 2.8-2.8z"/>
    <path fill="#FFF" d="M26.2 329.6c-.4 0-.7.1-.9.2s-.4.4-.4.7c0 .3.1.5.4.7.2.2.8.3 1.6.5s1.4.5 1.8.8c.4.3.6.9.6 1.5 0 .7-.3 1.2-.8 1.6-.5.4-1.2.6-2 .6-1.2 0-2.3-.4-3.2-1.2l.8-1c.8.7 1.6 1 2.4 1 .4 0 .8-.1 1-.3.3-.2.4-.4.4-.7 0-.3-.1-.5-.4-.7-.2-.2-.6-.3-1.2-.5-.6-.1-1-.3-1.3-.4-.3-.1-.6-.3-.8-.5-.5-.3-.7-.9-.7-1.6 0-.7.3-1.3.8-1.6.5-.4 1.2-.6 1.9-.6.5 0 1 .1 1.5.2.5.2.9.4 1.3.7l-.7 1c-.2-.2-.5-.4-.9-.5-.4.2-.8.1-1.2.1zm10 4.3h-4.6c0 .4.2.8.6 1 .4.3.8.4 1.2.4.7 0 1.3-.2 1.7-.7l.7.8c-.6.7-1.5 1-2.5 1-.8 0-1.5-.3-2.1-.8-.6-.6-.9-1.3-.9-2.2 0-.9.3-1.7.9-2.2.6-.5 1.3-.8 2.1-.8s1.5.2 2.1.7c.6.5.8 1.1.8 2v.8zm-4.7-1h3.4c0-.5-.2-.9-.5-1.1-.3-.3-.7-.4-1.2-.4s-.9.1-1.2.4c-.3.3-.5.7-.5 1.1zm7.3.2v3.2h-1.2v-5.9h1.2v1.1c.2-.4.5-.6.8-.8.4-.2.7-.3 1.1-.3.7 0 1.2.2 1.6.6.4.4.6 1 .6 1.8v3.6h-1.2v-3.2c0-1.1-.5-1.6-1.4-1.6-.4 0-.8.1-1.1.4-.3.2-.4.6-.4 1.1zm8.3 3.3c-.7 0-1.4-.3-2-.8-.6-.6-.8-1.3-.8-2.2 0-.9.3-1.6.9-2.2.6-.5 1.2-.8 2-.8s1.4.3 1.9 1v-3.2h1.2v8.2h-1.2v-.9c-.5.6-1.1.9-2 .9zm-1.5-3c0 .6.2 1 .5 1.4.4.4.8.5 1.3.5s.9-.2 1.2-.5c.3-.4.5-.8.5-1.4 0-.6-.2-1-.5-1.4-.3-.4-.8-.6-1.3-.6s-.9.2-1.3.6c-.3.3-.4.8-.4 1.4zm12.7-3.1c.8 0 1.5.3 2 .8.6.5.8 1.3.8 2.2 0 .9-.3 1.6-.8 2.2-.6.6-1.2.8-2 .8-.7 0-1.4-.3-2-1v3h-1.2v-8h1.2v1c.6-.6 1.3-1 2-1zm-1.9 3.1c0 .6.2 1 .5 1.4.3.4.8.5 1.2.5.5 0 .9-.2 1.3-.5.4-.4.5-.8.5-1.4 0-.6-.2-1-.5-1.4-.4-.4-.8-.6-1.3-.6s-.9.2-1.3.6c-.2.3-.4.8-.4 1.4zm9.3-1.8c-.6 0-1.1.2-1.4.6-.3.4-.5.9-.5 1.6v2.5h-1.2v-5.9h1.2v1.2c.2-.4.5-.7.8-.9.3-.2.7-.4 1.1-.4v1.3c.1 0 .1 0 0 0zm2.6 3.1c.4.4.8.5 1.3.5s1-.2 1.3-.5c.4-.4.5-.8.5-1.4 0-.6-.2-1-.5-1.4-.3-.4-.8-.5-1.3-.5s-1 .2-1.3.5c-.3.4-.5.8-.5 1.4 0 .6.2 1.1.5 1.4zm3.6.8c-.6.6-1.3.9-2.2.9-.9 0-1.6-.3-2.2-.9-.6-.6-.9-1.3-.9-2.2 0-.8.3-1.6.9-2.1.6-.6 1.3-.9 2.2-.9.9 0 1.6.3 2.2.9.6.6.9 1.3.9 2.1 0 .9-.3 1.6-.9 2.2zm5.4-5.2c.8 0 1.5.3 2 .8.6.5.8 1.3.8 2.2 0 .9-.3 1.6-.8 2.2-.6.6-1.2.8-2 .8-.7 0-1.4-.3-2-1v3h-1.2v-8h1.2v1c.6-.6 1.2-1 2-1zm-1.9 3.1c0 .6.2 1 .5 1.4.3.4.8.5 1.2.5s.9-.2 1.3-.5c.4-.4.5-.8.5-1.4 0-.6-.2-1-.5-1.4-.4-.4-.8-.6-1.3-.6s-.9.2-1.3.6c-.2.3-.4.8-.4 1.4zm11.7.5h-4.6c0 .4.2.8.6 1 .4.3.8.4 1.2.4.7 0 1.3-.2 1.7-.7l.7.8c-.6.7-1.5 1-2.5 1-.8 0-1.5-.3-2.1-.8-.6-.6-.9-1.3-.9-2.2 0-.9.3-1.7.9-2.2.6-.5 1.3-.8 2.1-.8s1.5.2 2.1.7c.6.5.8 1.1.8 2v.8zm-4.6-1h3.4c0-.5-.2-.9-.5-1.1-.3-.3-.7-.4-1.2-.4s-.9.1-1.2.4c-.3.3-.5.7-.5 1.1zm9.1-1.3c-.6 0-1.1.2-1.4.6-.3.4-.5.9-.5 1.6v2.5h-1.2v-5.9h1.2v1.2c.2-.4.5-.7.8-.9.3-.2.7-.4 1.1-.4v1.3zm2.8-.2v3c0 .3.1.5.2.7.1.2.4.2.6.2.3 0 .5-.1.8-.4l.5.9c-.4.4-.9.6-1.5.6-.5 0-1-.2-1.4-.5-.4-.4-.6-.9-.6-1.5v-2.9h-.7v-1h.7v-1.8h1.2v1.8H96v1h-1.6zm3.9 7.2c-.5 0-1-.2-1.5-.6l.6-1c.3.2.5.4.8.4.3 0 .5-.1.7-.3.2-.2.3-.4.3-.7 0-.1-.8-2.1-2.4-6h1.3l1.8 4.3 1.8-4.3h1.3l-2.9 7c-.2.4-.4.7-.7.9-.4.2-.7.3-1.1.3zm11.1-2.2c-.7 0-1.4-.3-2-.8-.6-.6-.8-1.3-.8-2.2 0-.9.3-1.6.9-2.2.6-.5 1.2-.8 2-.8s1.4.3 1.9 1v-3.2h1.2v8.2h-1.2v-.9c-.5.6-1.2.9-2 .9zm-1.6-3c0 .6.2 1 .5 1.4.4.4.8.5 1.3.5s.9-.2 1.2-.5c.3-.4.5-.8.5-1.4 0-.6-.2-1-.5-1.4-.3-.4-.8-.6-1.3-.6s-.9.2-1.3.6c-.2.3-.4.8-.4 1.4zm12.1.5h-4.6c0 .4.2.8.6 1 .4.3.8.4 1.2.4.7 0 1.3-.2 1.7-.7l.7.8c-.6.7-1.5 1-2.5 1-.8 0-1.5-.3-2.1-.8-.6-.6-.9-1.3-.9-2.2 0-.9.3-1.7.9-2.2.6-.5 1.3-.8 2.1-.8s1.5.2 2.1.7c.6.5.8 1.1.8 2v.8zm-4.6-1h3.4c0-.5-.2-.9-.5-1.1-.3-.3-.7-.4-1.2-.4s-.9.1-1.2.4c-.4.3-.5.7-.5 1.1zm7.4-1.5v3c0 .3.1.5.2.7.1.2.4.2.6.2s.5-.1.8-.4l.5.9c-.4.4-.9.6-1.5.6-.5 0-1-.2-1.4-.5-.4-.4-.6-.9-.6-1.5v-2.9h-.7v-1h.7v-1.8h1.2v1.8h1.6v1h-1.4zm7.9 4.9h-1.1v-.8c-.5.6-1.1.9-2 .9-.6 0-1.1-.2-1.5-.5-.4-.3-.6-.8-.6-1.4 0-.6.2-1 .6-1.3.4-.3 1-.4 1.7-.4h1.6v-.2c0-.8-.4-1.2-1.3-1.2-.5 0-1.1.2-1.7.6l-.6-.8c.7-.6 1.5-.8 2.4-.8.7 0 1.3.2 1.7.5.4.3.7.9.7 1.6v3.8zm-1.2-2.2v-.5H128c-.9 0-1.3.3-1.3.8 0 .3.1.5.3.7.2.1.5.2.9.2s.7-.1 1-.3c.3-.2.5-.5.5-.9zm4.2 2.2h-1.2v-5.9h1.2v5.9zm-1.2-7.1c-.2-.2-.2-.3-.2-.6 0-.2.1-.4.2-.6.2-.2.3-.2.6-.2.2 0 .4.1.6.2s.2.3.2.6c0 .2-.1.4-.2.6s-.3.2-.6.2c-.2.1-.4 0-.6-.2zm4.2 7.1h-1.2v-8.2h1.2v8.2zm6.1-1.8c0 .6-.2 1-.6 1.3-.4.3-.9.5-1.6.5-.4 0-.9-.1-1.3-.2-.5-.2-.9-.4-1.2-.7l.6-1c.7.5 1.4.8 2 .8.3 0 .5-.1.7-.2.2-.1.2-.3.2-.5 0-.3-.4-.6-1.2-.8h-.1c-1.2-.3-1.8-.9-1.8-1.7 0-.5.2-1 .6-1.3.4-.3 1-.5 1.7-.5s1.3.2 1.9.6l-.5.9c-.5-.3-1-.5-1.6-.5-.3 0-.5.1-.7.2-.2.1-.3.3-.3.5s.1.3.3.4c.1.1.3.1.6.2.2.1.5.1.6.2.2.1.4.1.5.2l.6.3c.4.4.6.8.6 1.3zm5.9-3.1v3c0 .3.1.5.2.7.1.2.4.2.6.2.3 0 .5-.1.8-.4l.5.9c-.4.4-.9.6-1.5.6-.5 0-1-.2-1.4-.5-.4-.4-.6-.9-.6-1.5v-2.9h-.7v-1h.7v-1.8h1.2v1.8h1.6v1h-1.4zm4.5 3.3c.4.4.8.5 1.3.5s1-.2 1.3-.5c.4-.4.5-.8.5-1.4 0-.6-.2-1-.5-1.4-.3-.4-.8-.5-1.3-.5s-1 .2-1.3.5c-.3.4-.5.8-.5 1.4 0 .6.1 1.1.5 1.4zm3.5.8c-.6.6-1.3.9-2.2.9s-1.6-.3-2.2-.9c-.6-.6-.9-1.3-.9-2.2 0-.8.3-1.6.9-2.1.6-.6 1.3-.9 2.2-.9s1.6.3 2.2.9c.6.6.9 1.3.9 2.1 0 .9-.3 1.6-.9 2.2zm10.2.8h-1.1v-.8c-.5.6-1.1.9-2 .9-.6 0-1.1-.2-1.5-.5-.4-.3-.6-.8-.6-1.4 0-.6.2-1 .6-1.3.4-.3 1-.4 1.7-.4h1.6v-.2c0-.8-.4-1.2-1.3-1.2-.5 0-1.1.2-1.7.6l-.6-.8c.7-.6 1.5-.8 2.4-.8.7 0 1.3.2 1.7.5.4.3.7.9.7 1.6v3.8zm-1.3-2.2v-.5h-1.4c-.9 0-1.3.3-1.3.8 0 .3.1.5.3.7.2.1.5.2.9.2s.7-.1 1-.3c.4-.2.5-.5.5-.9zm8.5-3.7v5.1c0 1-.3 1.8-.9 2.3-.6.5-1.3.8-2.2.8s-1.7-.3-2.4-.8l.6-.9c.6.4 1.2.7 1.7.7.6 0 1.1-.2 1.4-.5.3-.3.5-.8.5-1.4v-.8c-.2.3-.5.6-.8.8-.3.2-.7.3-1.2.3-.8 0-1.4-.3-1.9-.8s-.8-1.2-.8-2 .3-1.5.8-2 1.1-.8 1.9-.8c.8 0 1.4.3 1.9 1v-.9h1.4zm-4.7 2.7c0 .5.1.9.4 1.2.3.3.7.5 1.2.5s.9-.2 1.2-.5c.3-.3.5-.8.5-1.3s-.2-.9-.5-1.3-.7-.5-1.2-.5-.9.2-1.2.5c-.2.5-.4.9-.4 1.4zm11.9.8h-4.6c0 .4.2.8.6 1 .4.3.8.4 1.2.4.7 0 1.3-.2 1.7-.7l.7.8c-.6.7-1.5 1-2.5 1-.8 0-1.5-.3-2.1-.8-.6-.6-.9-1.3-.9-2.2 0-.9.3-1.7.9-2.2.6-.5 1.3-.8 2.1-.8s1.5.2 2.1.7c.6.5.8 1.1.8 2v.8zm-4.6-1h3.4c0-.5-.2-.9-.5-1.1-.3-.3-.7-.4-1.2-.4s-.9.1-1.2.4c-.3.3-.5.7-.5 1.1zm7.3.2v3.2h-1.2v-5.9h1.2v1.1c.2-.4.5-.6.8-.8.4-.2.7-.3 1.1-.3.7 0 1.2.2 1.6.6.4.4.6 1 .6 1.8v3.6h-1.2v-3.2c0-1.1-.5-1.6-1.4-1.6-.4 0-.8.1-1.1.4-.3.2-.4.6-.4 1.1zm7.3-1.7v3c0 .3.1.5.2.7.1.2.4.2.6.2.3 0 .5-.1.8-.4l.5.9c-.4.4-.9.6-1.5.6-.5 0-1-.2-1.4-.5-.4-.4-.6-.9-.6-1.5v-2.9h-.7v-1h.7v-1.8h1.2v1.8h1.6v1h-1.4z"/>
    <path opacity=".7" fill="#FFF" enable-background="new" d="M23.6 344.5h1v5.8h-1v-5.8zm3.3 3.4v2.4H26v-4.4h.9v.8c.1-.3.4-.5.6-.6.3-.2.6-.2.9-.2.5 0 .9.2 1.2.5.3.3.5.7.5 1.3v2.7h-.9V348c0-.8-.3-1.2-1-1.2-.3 0-.6.1-.8.3-.4.1-.5.4-.5.8zm7.6 1c0 .4-.2.8-.5 1-.3.2-.7.4-1.2.4-.3 0-.7-.1-1-.2-.3-.1-.6-.3-.9-.5l.4-.7c.5.4 1 .6 1.5.6.2 0 .4 0 .5-.1.1-.1.2-.2.2-.4s-.3-.4-.9-.6h-.1c-.9-.2-1.4-.7-1.4-1.2 0-.4.2-.7.5-1 .3-.2.7-.4 1.2-.4s1 .1 1.4.4l-.3.7c-.4-.2-.8-.4-1.2-.4-.2 0-.4 0-.5.1-.1.1-.2.2-.2.4 0 .1.1.2.2.3.1 0 .2.1.4.1s.3.1.5.1.3.1.4.1c.1.1.3.1.4.2.5.4.6.7.6 1.1zm2.2-2.3v2.2c0 .2.1.4.2.5.1.1.3.2.5.2s.4-.1.6-.3l.4.7c-.3.3-.7.4-1.1.4-.4 0-.7-.1-1-.4-.3-.3-.4-.6-.4-1.1v-2.2h-.6v-.7h.6v-1.4h.9v1.4H38v.7h-1.3zm5.9 3.7h-.8v-.6c-.4.4-.9.7-1.5.7-.5 0-.8-.1-1.1-.4-.3-.3-.4-.6-.4-1s.2-.8.5-1c.3-.2.8-.3 1.3-.3h1.2v-.2c0-.6-.3-.9-1-.9-.4 0-.8.1-1.3.4l-.4-.6c.5-.4 1.1-.6 1.8-.6.5 0 .9.1 1.3.4.3.3.5.7.5 1.2v2.9zm-.9-1.7v-.4h-1c-.7 0-1 .2-1 .6 0 .2.1.4.2.5.2.1.4.2.7.2.3 0 .6-.1.8-.2s.3-.4.3-.7zm3.2-.7v2.4H44v-4.4h.9v.8c.1-.3.4-.5.6-.6.3-.2.6-.2.9-.2.5 0 .9.2 1.2.5.3.3.5.7.5 1.3v2.7h-.9V348c0-.8-.3-1.2-1-1.2-.3 0-.6.1-.8.3-.4.1-.5.4-.5.8zm5.5-1.3v2.2c0 .2.1.4.2.5.1.1.3.2.5.2s.4-.1.6-.3l.4.7c-.3.3-.7.4-1.1.4-.4 0-.7-.1-1-.4-.3-.3-.4-.6-.4-1.1v-2.2H49v-.7h.6v-1.4h.9v1.4h1.2v.7h-1.3zm3.3 3.7h-.9v-6.1h.9v6.1zm1.9 1.7c-.4 0-.8-.1-1.1-.4l.4-.8c.2.2.4.3.6.3.2 0 .4-.1.5-.2.1-.1.2-.3.2-.5 0-.1-.6-1.6-1.8-4.5h1l1.3 3.2 1.3-3.2h1l-2.1 5.2c-.1.3-.3.5-.5.7-.3.1-.5.2-.8.2zm9.6-3.1c0 .4-.2.8-.5 1-.3.2-.7.4-1.2.4-.3 0-.7-.1-1-.2-.3-.1-.6-.3-.9-.5l.4-.7c.5.4 1 .6 1.5.6.2 0 .4 0 .5-.1.1-.1.2-.2.2-.4s-.3-.4-.9-.6h-.1c-.9-.2-1.4-.7-1.4-1.2 0-.4.2-.7.5-1 .3-.2.7-.4 1.2-.4s1 .1 1.4.4l-.3.7c-.4-.2-.8-.4-1.2-.4-.2 0-.4 0-.5.1-.1.1-.2.2-.2.4 0 .1.1.2.2.3.1 0 .2.1.4.1s.3.1.5.1c.1 0 .3.1.4.1.1.1.3.1.4.2.5.4.6.7.6 1.1zm2-1v2.4h-.9v-6.1h.9v2.5c.1-.3.3-.5.6-.6.3-.2.6-.2.9-.2.5 0 .9.2 1.2.5.3.3.5.7.5 1.3v2.7h-.9V348c0-.8-.3-1.2-1-1.2-.3 0-.6.1-.8.3-.4.1-.5.4-.5.8zm8.1 2.4h-.8v-.6c-.4.4-.9.7-1.5.7-.5 0-.8-.1-1.1-.4-.3-.3-.4-.6-.4-1s.2-.8.5-1c.3-.2.8-.3 1.3-.3h1.2v-.2c0-.6-.3-.9-1-.9-.4 0-.8.1-1.3.4l-.4-.6c.5-.4 1.1-.6 1.8-.6.5 0 .9.1 1.3.4.3.3.5.7.5 1.2v2.9zm-1-1.7v-.4h-1c-.7 0-1 .2-1 .6 0 .2.1.4.2.5.2.1.4.2.7.2.3 0 .6-.1.8-.2.2-.2.3-.4.3-.7zm4.6-1.9c-.5 0-.8.1-1 .4-.2.3-.3.7-.3 1.2v1.9h-.9v-4.4h.9v.9c.1-.3.4-.5.6-.7.3-.2.5-.3.8-.3l-.1 1zm5.1 1.8h-3.5c0 .3.2.6.4.8.3.2.6.3.9.3.6 0 1-.2 1.3-.5l.5.6c-.5.5-1.1.7-1.9.7-.6 0-1.2-.2-1.6-.6-.4-.4-.6-1-.6-1.7s.2-1.2.7-1.7c.4-.4 1-.6 1.6-.6.6 0 1.1.2 1.5.5.4.4.6.9.6 1.5v.7zm-3.5-.8H83c0-.4-.1-.7-.3-.9-.2-.2-.5-.3-.9-.3-.3 0-.6.1-.9.3-.2.3-.4.6-.4.9zm10.4 2.6H90v-.6c-.4.4-.9.7-1.5.7-.5 0-.8-.1-1.1-.4-.3-.3-.4-.6-.4-1s.2-.8.5-1c.3-.2.8-.3 1.3-.3H90v-.2c0-.6-.3-.9-1-.9-.4 0-.8.1-1.3.4l-.4-.6c.5-.4 1.1-.6 1.8-.6.5 0 .9.1 1.3.4.3.3.5.7.5 1.2v2.9zm-1-1.7v-.4h-1c-.7 0-1 .2-1 .6 0 .2.1.4.2.5.2.1.4.2.7.2.3 0 .6-.1.8-.2.2-.2.3-.4.3-.7zm3.2 1.7h-.9v-6.1h.9v6.1zm2.3 0h-.9v-6.1h.9v6.1zm4.2 1.7c-.4 0-.8-.1-1.1-.4l.4-.8c.2.2.4.3.6.3.2 0 .4-.1.5-.2.1-.1.2-.3.2-.5 0-.1-.6-1.6-1.8-4.5h1l1.3 3.2 1.3-3.2h1l-2.1 5.2c-.1.3-.3.5-.5.7-.3.1-.5.2-.8.2zm5.2-2.9c.3.3.6.4 1 .4s.7-.1 1-.4c.3-.3.4-.6.4-1s-.1-.8-.4-1c-.3-.3-.6-.4-1-.4s-.7.1-1 .4c-.3.3-.4.6-.4 1s.1.7.4 1zm2.6.6c-.4.4-1 .7-1.7.7s-1.2-.2-1.7-.7c-.4-.4-.7-1-.7-1.6 0-.6.2-1.2.7-1.6.4-.4 1-.7 1.7-.7s1.2.2 1.7.7c.4.4.7 1 .7 1.6 0 .6-.2 1.1-.7 1.6zm4.9-1.5v-2.4h.9v4.4h-.9v-.8c-.1.3-.4.5-.6.6-.3.2-.5.2-.8.2-.5 0-.9-.2-1.2-.5-.3-.3-.5-.7-.5-1.3v-2.7h.9v2.4c0 .8.3 1.2 1 1.2.3 0 .6-.1.8-.3.2 0 .4-.4.4-.8zm4.6-1.5c-.5 0-.8.1-1 .4-.2.3-.3.7-.3 1.2v1.9h-.9v-4.4h.9v.9c.1-.3.4-.5.6-.7.3-.2.5-.3.8-.3l-.1 1zm5.6-.9c.6 0 1.1.2 1.5.6.4.4.6 1 .6 1.6s-.2 1.2-.6 1.7c-.4.4-.9.6-1.5.6s-1.1-.2-1.5-.7v2.3h-.9v-6h.9v.8c.4-.6.9-.9 1.5-.9zm-1.5 2.3c0 .4.1.8.4 1 .3.3.6.4.9.4s.7-.1 1-.4c.3-.3.4-.6.4-1s-.1-.8-.4-1.1c-.3-.3-.6-.4-1-.4s-.7.1-.9.4c-.2.3-.4.6-.4 1.1zm7-1.4c-.5 0-.8.1-1 .4-.2.3-.3.7-.3 1.2v1.9h-.9v-4.4h.9v.9c.1-.3.4-.5.6-.7.3-.2.5-.3.8-.3l-.1 1c.1 0 .1 0 0 0zm2 2.4c.3.3.6.4 1 .4s.7-.1 1-.4c.3-.3.4-.6.4-1s-.1-.8-.4-1c-.3-.3-.6-.4-1-.4s-.7.1-1 .4c-.3.3-.4.6-.4 1s.1.7.4 1zm2.6.6c-.4.4-1 .7-1.7.7s-1.2-.2-1.7-.7c-.4-.4-.7-1-.7-1.6 0-.6.2-1.2.7-1.6.4-.4 1-.7 1.7-.7s1.2.2 1.7.7c.4.4.7 1 .7 1.6 0 .6-.2 1.1-.7 1.6zm4.1-3.9c.6 0 1.1.2 1.5.6.4.4.6 1 .6 1.6s-.2 1.2-.6 1.7c-.4.4-.9.6-1.5.6s-1.1-.2-1.5-.7v2.3h-.9v-6h.9v.8c.5-.6.9-.9 1.5-.9zm-1.4 2.3c0 .4.1.8.4 1 .3.3.6.4.9.4s.7-.1 1-.4.4-.6.4-1-.1-.8-.4-1.1c-.3-.3-.6-.4-1-.4s-.7.1-.9.4c-.3.3-.4.6-.4 1.1zm8.8.4h-3.5c0 .3.2.6.4.8.3.2.6.3.9.3.6 0 1-.2 1.3-.5l.5.6c-.5.5-1.1.7-1.9.7-.6 0-1.2-.2-1.6-.6-.4-.4-.6-1-.6-1.7s.2-1.2.7-1.7c.4-.4 1-.6 1.6-.6.6 0 1.1.2 1.5.5.4.4.6.9.6 1.5v.7zm-3.5-.8h2.5c0-.4-.1-.7-.3-.9-.2-.2-.5-.3-.9-.3-.3 0-.6.1-.9.3-.3.3-.4.6-.4.9zm6.8-1c-.5 0-.8.1-1 .4s-.3.7-.3 1.2v1.9h-.9v-4.4h.9v.9c.1-.3.4-.5.6-.7.3-.2.5-.3.8-.3l-.1 1c.1 0 0 0 0 0zm2.2-.1v2.2c0 .2.1.4.2.5.1.1.3.2.5.2s.4-.1.6-.3l.4.7c-.3.3-.7.4-1.1.4-.4 0-.7-.1-1-.4-.3-.3-.4-.6-.4-1.1v-2.2h-.6v-.7h.6v-1.4h.9v1.4h1.2v.7h-1.3zm2.8 5.4c-.4 0-.8-.1-1.1-.4l.4-.8c.2.2.4.3.6.3.2 0 .4-.1.5-.2.1-.1.2-.3.2-.5 0-.1-.6-1.6-1.8-4.5h1l1.3 3.2 1.3-3.2h1l-2.1 5.2c-.1.3-.3.5-.5.7-.2.1-.5.2-.8.2zm8.4-1.7c-.6 0-1-.2-1.5-.6s-.6-1-.6-1.7.2-1.2.6-1.6c.4-.4.9-.6 1.5-.6s1.1.2 1.4.7v-2.4h.9v6.1h-.9v-.7c-.3.6-.8.8-1.4.8zm-1.2-2.2c0 .4.1.8.4 1 .3.3.6.4 1 .4s.7-.1.9-.4c.3-.3.4-.6.4-1s-.1-.8-.4-1.1c-.3-.3-.6-.4-.9-.4s-.7.1-1 .4c-.3.3-.4.7-.4 1.1zm8.5 2.2h-.8v-.6c-.4.4-.9.7-1.5.7-.5 0-.8-.1-1.1-.4-.3-.3-.4-.6-.4-1s.2-.8.5-1c.3-.2.8-.3 1.3-.3h1.2v-.2c0-.6-.3-.9-1-.9-.4 0-.8.1-1.3.4l-.4-.6c.5-.4 1.1-.6 1.8-.6.5 0 .9.1 1.3.4.3.3.5.7.5 1.2v2.9zm-.9-1.7v-.4h-1c-.7 0-1 .2-1 .6 0 .2.1.4.2.5.2.1.4.2.7.2.3 0 .6-.1.8-.2.2-.2.3-.4.3-.7zm3.3-2v2.2c0 .2.1.4.2.5.1.1.3.2.5.2s.4-.1.6-.3l.4.7c-.3.3-.7.4-1.1.4-.4 0-.7-.1-1-.4-.3-.3-.4-.6-.4-1.1v-2.2h-.7v-.7h.6v-1.4h.9v1.4h1.2v.7h-1.2zm5.9 3.7h-.8v-.6c-.4.4-.9.7-1.5.7-.5 0-.8-.1-1.1-.4-.3-.3-.4-.6-.4-1s.2-.8.5-1c.3-.2.8-.3 1.3-.3h1.2v-.2c0-.6-.3-.9-1-.9-.4 0-.8.1-1.3.4l-.4-.6c.5-.4 1.1-.6 1.8-.6.5 0 .9.1 1.3.4.3.3.5.7.5 1.2v2.9zm-.9-1.7v-.4h-1c-.7 0-1 .2-1 .6 0 .2.1.4.2.5.2.1.4.2.7.2.3 0 .6-.1.8-.2s.3-.4.3-.7zm6.6 1.7H181l-1.5-4.4h1l1.1 3.3 1.1-3.3h1l1.1 3.3 1.1-3.3h1l-1.5 4.4h-1.1l-1-3-1.2 3zm6.4 0h-.9v-4.4h.9v4.4zm-.8-5.3c-.1-.1-.2-.3-.2-.4s.1-.3.2-.4c.1-.1.3-.2.4-.2.2 0 .3.1.4.2.1.1.2.3.2.4s-.1.3-.2.4c-.1.1-.3.2-.4.2-.2-.1-.3-.1-.4-.2zm3.3 1.6v2.2c0 .2.1.4.2.5.1.1.3.2.5.2s.4-.1.6-.3l.4.7c-.3.3-.7.4-1.1.4-.4 0-.7-.1-1-.4-.3-.3-.4-.6-.4-1.1v-2.2h-.6v-.7h.6v-1.4h.9v1.4h1.2v.7H191zm3.3 1.3v2.4h-.9v-6.1h.9v2.5c.1-.3.3-.5.6-.6.3-.2.6-.2.9-.2.5 0 .9.2 1.2.5.3.3.5.7.5 1.3v2.7h-.9V348c0-.8-.3-1.2-1-1.2-.3 0-.6.1-.8.3-.4.1-.5.4-.5.8zM27 359.9h-.8v-.6c-.4.4-.9.7-1.5.7-.5 0-.8-.1-1.1-.4-.3-.3-.4-.6-.4-1s.2-.8.5-1c.3-.2.8-.3 1.3-.3h1.2v-.2c0-.6-.3-.9-1-.9-.4 0-.8.1-1.3.4l-.4-.6c.5-.4 1.1-.6 1.8-.6.5 0 .9.1 1.3.4.3.3.5.7.5 1.2v2.9zm-.9-1.6v-.4h-1c-.7 0-1 .2-1 .6 0 .2.1.4.2.5.2.1.4.2.7.2.3 0 .6-.1.8-.2.2-.2.3-.4.3-.7zm6.3-2.8v3.8c0 .8-.2 1.4-.6 1.7-.4.4-1 .6-1.6.6-.7 0-1.3-.2-1.8-.6l.4-.7c.4.3.9.5 1.3.5s.8-.1 1-.3c.3-.2.4-.6.4-1.1v-.6c-.1.3-.3.5-.6.6-.3.2-.5.2-.9.2-.6 0-1.1-.2-1.4-.6-.4-.4-.6-.9-.6-1.5s.2-1.1.6-1.5c.4-.4.9-.6 1.4-.6.6 0 1.1.2 1.4.7v-.7h1zm-3.4 2c0 .4.1.7.3.9.2.3.5.4.9.4s.7-.1.9-.4c.2-.3.4-.6.4-.9 0-.4-.1-.7-.4-1-.2-.3-.5-.4-.9-.4s-.7.1-.9.4c-.2.4-.3.7-.3 1zm8.9.6h-3.5c0 .3.2.6.4.8.3.2.6.3.9.3.6 0 1-.2 1.3-.5l.5.6c-.5.5-1.1.7-1.9.7-.6 0-1.2-.2-1.6-.6-.4-.4-.6-1-.6-1.7s.2-1.2.7-1.7c.4-.4 1-.6 1.6-.6.6 0 1.1.2 1.5.5.4.4.6.9.6 1.5v.7zm-3.5-.7H37c0-.4-.1-.7-.3-.9-.2-.2-.5-.3-.9-.3-.3 0-.6.1-.9.3-.3.3-.5.5-.5.9zm5.4.1v2.4h-.9v-4.4h.9v.8c.1-.3.4-.5.6-.6.3-.2.6-.2.9-.2.5 0 .9.2 1.2.5.3.3.5.7.5 1.3v2.7h-.9v-2.4c0-.8-.3-1.2-1-1.2-.3 0-.6.1-.8.3-.3.1-.5.4-.5.8zm5.6-1.2v2.2c0 .2.1.4.2.5.1.1.3.2.5.2s.4-.1.6-.3l.4.7c-.3.3-.7.4-1.1.4-.4 0-.7-.1-1-.4-.3-.3-.4-.6-.4-1.1v-2.2H44v-.7h.6v-1.4h.9v1.4h1.2v.7h-1.3zm5.5 2.3c0 .4-.2.8-.5 1-.3.2-.7.4-1.2.4-.3 0-.7-.1-1-.2-.3-.1-.6-.3-.9-.5l.4-.7c.5.4 1 .6 1.5.6.2 0 .4 0 .5-.1.1-.1.2-.2.2-.4s-.3-.4-.9-.6h-.1c-.9-.2-1.4-.7-1.4-1.2 0-.4.2-.7.5-1 .3-.2.7-.4 1.2-.4s1 .1 1.4.4l-.3.7c-.4-.2-.8-.4-1.2-.4-.2 0-.4 0-.5.1-.1.1-.2.2-.2.4 0 .1.1.2.2.3.1 0 .2.1.4.1s.3.1.5.1c.1 0 .3.1.4.1.1.1.3.1.4.2.4.4.6.7.6 1.1zm4.5-2.3v2.2c0 .2.1.4.2.5.1.1.3.2.5.2s.4-.1.6-.3l.4.7c-.3.3-.7.4-1.1.4-.4 0-.7-.1-1-.4-.3-.3-.4-.6-.4-1.1v-2.2H54v-.7h.6v-1.4h.9v1.4h1.2v.7h-1.3zm3.3 2.5c.3.3.6.4 1 .4s.7-.1 1-.4c.3-.3.4-.6.4-1s-.1-.8-.4-1c-.3-.3-.6-.4-1-.4s-.7.1-1 .4c-.3.3-.4.6-.4 1 0 .3.1.7.4 1zm2.7.5c-.4.4-1 .7-1.7.7s-1.2-.2-1.7-.7c-.4-.4-.7-1-.7-1.6 0-.6.2-1.2.7-1.6.4-.4 1-.7 1.7-.7s1.2.2 1.7.7c.4.4.7 1 .7 1.6-.1.6-.3 1.2-.7 1.6zm7.1-.7c0 .4-.2.8-.5 1-.3.2-.7.4-1.2.4-.3 0-.7-.1-1-.2-.3-.1-.6-.3-.9-.5l.4-.7c.5.4 1 .6 1.5.6.2 0 .4 0 .5-.1.1-.1.2-.2.2-.4s-.3-.4-.9-.6h-.1c-.9-.2-1.4-.7-1.4-1.2 0-.4.2-.7.5-1 .3-.2.7-.4 1.2-.4s1 .1 1.4.4l-.3.7c-.4-.2-.8-.4-1.2-.4-.2 0-.4 0-.5.1-.1.1-.2.2-.2.4 0 .1.1.2.2.3.1 0 .2.1.4.1s.3.1.5.1.3.1.4.1c.1.1.3.1.4.2.5.4.6.7.6 1.1zm3.4-3.2c.6 0 1.1.2 1.5.6.4.4.6 1 .6 1.6s-.2 1.2-.6 1.7c-.4.4-.9.6-1.5.6s-1.1-.2-1.5-.7v2.3h-.9v-6h.9v.8c.5-.6 1-.9 1.5-.9zm-1.4 2.3c0 .4.1.8.4 1 .3.3.6.4.9.4s.7-.1 1-.4c.3-.3.4-.6.4-1s-.1-.8-.4-1.1c-.3-.3-.6-.4-1-.4s-.7.1-.9.4c-.3.3-.4.7-.4 1.1zm8.8.4h-3.5c0 .3.2.6.4.8.3.2.6.3.9.3.6 0 1-.2 1.3-.5l.5.6c-.5.5-1.1.7-1.9.7-.6 0-1.2-.2-1.6-.6-.4-.4-.6-1-.6-1.7s.2-1.2.7-1.7c.4-.4 1-.6 1.6-.6.6 0 1.1.2 1.5.5.4.4.6.9.6 1.5v.7zm-3.5-.7h2.5c0-.4-.1-.7-.3-.9-.2-.2-.5-.3-.9-.3-.3 0-.6.1-.9.3-.3.3-.4.5-.4.9zm8.6.7H81c0 .3.2.6.4.8.3.2.6.3.9.3.6 0 1-.2 1.3-.5l.5.6c-.5.5-1.1.7-1.9.7-.6 0-1.2-.2-1.6-.6-.4-.4-.6-1-.6-1.7s.2-1.2.7-1.7c.4-.4 1-.6 1.6-.6.6 0 1.1.2 1.5.5.4.4.6.9.6 1.5v.7zm-3.4-.7h2.5c0-.4-.1-.7-.3-.9-.2-.2-.5-.3-.9-.3-.3 0-.6.1-.9.3-.3.3-.4.5-.4.9zm6.3 2.6c-.6 0-1-.2-1.5-.6-.4-.4-.6-1-.6-1.7s.2-1.2.6-1.6c.4-.4.9-.6 1.5-.6s1.1.2 1.4.7v-2.4h.9v6.1h-.9v-.7c-.3.5-.8.8-1.4.8zm-1.2-2.3c0 .4.1.8.4 1 .3.3.6.4 1 .4s.7-.1.9-.4c.3-.3.4-.6.4-1s-.1-.8-.4-1.1c-.3-.3-.6-.4-.9-.4s-.7.1-1 .4c-.3.4-.4.7-.4 1.1zm10.3.2v-2.4h.9v4.4h-.9v-.8c-.1.3-.4.5-.6.6-.3.2-.5.2-.8.2-.5 0-.9-.2-1.2-.5-.3-.3-.5-.7-.5-1.3v-2.7h.9v2.4c0 .8.3 1.2 1 1.2.3 0 .6-.1.8-.3.3-.1.4-.4.4-.8zm4.7-2.5c.6 0 1.1.2 1.5.6.4.4.6 1 .6 1.6s-.2 1.2-.6 1.7c-.4.4-.9.6-1.5.6s-1.1-.2-1.5-.7v2.3h-.9v-6h.9v.8c.4-.6.9-.9 1.5-.9zm-1.5 2.3c0 .4.1.8.4 1 .3.3.6.4.9.4s.7-.1 1-.4c.3-.3.4-.6.4-1s-.1-.8-.4-1.1c-.3-.3-.6-.4-1-.4s-.7.1-.9.4c-.3.3-.4.7-.4 1.1zm8.1-1.4v2.2c0 .2.1.4.2.5.1.1.3.2.5.2s.4-.1.6-.3l.4.7c-.3.3-.7.4-1.1.4-.4 0-.7-.1-1-.4-.3-.3-.4-.6-.4-1.1v-2.2h-.6v-.7h.6v-1.4h.9v1.4h1.2v.7h-1.3zm3.3 1.2v2.4h-.9v-6.1h.9v2.5c.1-.3.3-.5.6-.6.3-.2.6-.2.9-.2.5 0 .9.2 1.2.5.3.3.5.7.5 1.3v2.7h-.9v-2.4c0-.8-.3-1.2-1-1.2-.3 0-.6.1-.8.3-.4.1-.5.4-.5.8zm8.5.6H116c0 .3.2.6.4.8.3.2.6.3.9.3.6 0 1-.2 1.3-.5l.5.6c-.5.5-1.1.7-1.9.7-.6 0-1.2-.2-1.6-.6-.4-.4-.6-1-.6-1.7s.2-1.2.7-1.7c.4-.4 1-.6 1.6-.6.6 0 1.1.2 1.5.5.4.4.6.9.6 1.5v.7zm-3.4-.7h2.5c0-.4-.1-.7-.3-.9-.2-.2-.5-.3-.9-.3-.3 0-.6.1-.9.3-.3.3-.4.5-.4.9zm9.1-1c-.5 0-.8.1-1 .4-.2.3-.3.7-.3 1.2v1.9h-.9v-4.4h.9v.9c.1-.3.4-.5.6-.7.3-.2.5-.3.8-.3l-.1 1zm5.1 1.7h-3.5c0 .3.2.6.4.8.3.2.6.3.9.3.6 0 1-.2 1.3-.5l.5.6c-.5.5-1.1.7-1.9.7-.6 0-1.2-.2-1.6-.6-.4-.4-.6-1-.6-1.7s.2-1.2.7-1.7c.4-.4 1-.6 1.6-.6.6 0 1.1.2 1.5.5.4.4.6.9.6 1.5v.7zm-3.5-.7h2.5c0-.4-.1-.7-.3-.9-.2-.2-.5-.3-.9-.3-.3 0-.6.1-.9.3-.3.3-.4.5-.4.9zm5.4.1v2.4h-.9v-4.4h.9v.8c.1-.3.4-.5.6-.6.3-.2.6-.2.9-.2.5 0 .9.2 1.2.5.3.3.5.7.5 1.3v2.7h-.9v-2.4c0-.8-.3-1.2-1-1.2-.3 0-.6.1-.8.3-.3.1-.5.4-.5.8zm5.6-1.2v2.2c0 .2.1.4.2.5.1.1.3.2.5.2s.4-.1.6-.3l.4.7c-.3.3-.7.4-1.1.4-.4 0-.7-.1-1-.4-.3-.3-.4-.6-.4-1.1v-2.2h-.6v-.7h.6v-1.4h.9v1.4h1.2v.7h-1.3zm5.9 3.6h-.8v-.6c-.4.4-.9.7-1.5.7-.5 0-.8-.1-1.1-.4-.3-.3-.4-.6-.4-1s.2-.8.5-1 .8-.3 1.3-.3h1.2v-.2c0-.6-.3-.9-1-.9-.4 0-.8.1-1.3.4l-.4-.6c.5-.4 1.1-.6 1.8-.6.5 0 .9.1 1.3.4.3.3.5.7.5 1.2v2.9zm-.9-1.6v-.4h-1c-.7 0-1 .2-1 .6 0 .2.1.4.2.5.2.1.4.2.7.2.3 0 .6-.1.8-.2.1-.2.3-.4.3-.7zm3.1 1.6h-.9v-6.1h.9v6.1zm6-4.5c.6 0 1.1.2 1.5.6.4.4.6 1 .6 1.6s-.2 1.2-.6 1.7c-.4.4-.9.6-1.5.6s-1.1-.2-1.5-.7v2.3h-.9v-6h.9v.8c.5-.6.9-.9 1.5-.9zm-1.4 2.3c0 .4.1.8.4 1 .3.3.6.4.9.4.4 0 .7-.1 1-.4.3-.3.4-.6.4-1s-.1-.8-.4-1.1c-.3-.3-.6-.4-1-.4s-.7.1-.9.4c-.3.3-.4.7-.4 1.1zm7-1.3c-.5 0-.8.1-1 .4-.2.3-.3.7-.3 1.2v1.9h-.9v-4.4h.9v.9c.1-.3.4-.5.6-.7.3-.2.5-.3.8-.3l-.1 1zm1.9 2.4c.3.3.6.4 1 .4s.7-.1 1-.4c.3-.3.4-.6.4-1s-.1-.8-.4-1c-.3-.3-.6-.4-1-.4s-.7.1-1 .4c-.3.3-.4.6-.4 1 0 .3.1.7.4 1zm2.7.5c-.4.4-1 .7-1.7.7s-1.2-.2-1.7-.7c-.4-.4-.7-1-.7-1.6 0-.6.2-1.2.7-1.6.4-.4 1-.7 1.7-.7s1.2.2 1.7.7c.4.4.7 1 .7 1.6-.1.6-.3 1.2-.7 1.6zm3.7.7c-.6 0-1.1-.2-1.6-.6-.4-.4-.7-1-.7-1.6 0-.7.2-1.2.7-1.6.5-.4 1-.6 1.7-.6s1.2.2 1.7.7l-.5.7c-.4-.3-.8-.5-1.2-.5-.4 0-.7.1-1 .4-.3.3-.4.6-.4 1s.1.7.4 1 .6.4 1 .4.8-.2 1.2-.6l.5.6c-.5.4-1.1.7-1.8.7zm6.9-1.9h-3.5c0 .3.2.6.4.8.3.2.6.3.9.3.6 0 1-.2 1.3-.5l.5.6c-.5.5-1.1.7-1.9.7-.6 0-1.2-.2-1.6-.6-.4-.4-.6-1-.6-1.7s.2-1.2.7-1.7c.4-.4 1-.6 1.6-.6.6 0 1.1.2 1.5.5.4.4.6.9.6 1.5v.7zm-3.5-.7h2.5c0-.4-.1-.7-.3-.9-.2-.2-.5-.3-.9-.3-.3 0-.6.1-.9.3-.2.3-.4.5-.4.9zm7.7 1.2c0 .4-.2.8-.5 1-.3.2-.7.4-1.2.4-.3 0-.7-.1-1-.2-.3-.1-.6-.3-.9-.5l.4-.7c.5.4 1 .6 1.5.6.2 0 .4 0 .5-.1.1-.1.2-.2.2-.4s-.3-.4-.9-.6h-.1c-.9-.2-1.4-.7-1.4-1.2 0-.4.2-.7.5-1 .3-.2.7-.4 1.2-.4s1 .1 1.4.4l-.3.7c-.4-.2-.8-.4-1.2-.4-.2 0-.4 0-.5.1-.1.1-.2.2-.2.4 0 .1.1.2.2.3.1 0 .2.1.4.1s.3.1.5.1.3.1.4.1c.1.1.3.1.4.2.4.4.6.7.6 1.1zm4.2 0c0 .4-.2.8-.5 1-.3.2-.7.4-1.2.4-.3 0-.7-.1-1-.2-.3-.1-.6-.3-.9-.5l.4-.7c.5.4 1 .6 1.5.6.2 0 .4 0 .5-.1.1-.1.2-.2.2-.4s-.3-.4-.9-.6h-.1c-.9-.2-1.4-.7-1.4-1.2 0-.4.2-.7.5-1 .3-.2.7-.4 1.2-.4s1 .1 1.4.4l-.3.7c-.4-.2-.8-.4-1.2-.4-.2 0-.4 0-.5.1-.1.1-.2.2-.2.4 0 .1.1.2.2.3.1 0 .2.1.4.1s.3.1.5.1c.1 0 .3.1.4.1.1.1.3.1.4.2.4.4.6.7.6 1.1z"/>
    <path fill="#FFF" d="M238.8 343.5l-4.2-4.1c-.2-.2-.5-.2-.7 0-.2.2-.2.5 0 .7l3.8 3.8-3.8 3.8c-.2.2-.2.5 0 .7.2.2.5.2.7 0l4.2-4.1c.1-.3.1-.6 0-.8z"/>
    <path fill="#FFF" d="M238.8 343.5l-4.2-4.1c-.2-.2-.5-.2-.7 0-.2.2-.2.5 0 .7l3.8 3.8-3.8 3.8c-.2.2-.2.5 0 .7.2.2.5.2.7 0l4.2-4.1c.1-.3.1-.6 0-.8z"/>
    <path fill="#53BFF9" d="M8.1 315.9c0-1.5 1.2-2.8 2.8-2.8h4V377h-4c-1.5 0-2.8-1.2-2.8-2.8v-58.3z"/>
    <path fill="#2486D5" d="M11.4 385.8h237.1c1.5 0 2.8 1.2 2.8 2.8V447c0 1.5-1.2 2.8-2.8 2.8H11.4c-1.5 0-2.8-1.2-2.8-2.8v-58.4c.1-1.5 1.3-2.8 2.8-2.8z"/>
    <path fill="#FFF" d="M25.6 409l-.8 1.8h-1.4l3.4-7.7h1.4l3.4 7.7h-1.4l-.8-1.8h-3.8zm3.4-1.2l-1.4-3.2-1.4 3.2H29zm6 3.1c-.7 0-1.4-.3-2-.8-.6-.6-.8-1.3-.8-2.2 0-.9.3-1.6.9-2.2.6-.5 1.2-.8 2-.8s1.4.3 1.9 1v-3.2h1.2v8.2H37v-.9c-.4.5-1.1.9-2 .9zm-1.5-3c0 .6.2 1 .5 1.4.4.4.8.5 1.3.5s.9-.2 1.2-.5c.3-.4.5-.8.5-1.4 0-.6-.2-1-.5-1.4-.3-.4-.8-.6-1.3-.6s-.9.2-1.3.6c-.3.3-.4.8-.4 1.4zm9 3c-.7 0-1.4-.3-2-.8-.6-.6-.8-1.3-.8-2.2 0-.9.3-1.6.9-2.2.6-.5 1.2-.8 2-.8s1.4.3 1.9 1v-3.2h1.2v8.2h-1.2v-.9c-.5.5-1.2.9-2 .9zm-1.6-3c0 .6.2 1 .5 1.4.4.4.8.5 1.3.5s.9-.2 1.2-.5c.3-.4.5-.8.5-1.4 0-.6-.2-1-.5-1.4-.3-.4-.8-.6-1.3-.6s-.9.2-1.3.6c-.2.3-.4.8-.4 1.4zm11.2-2v3c0 .3.1.5.2.7.1.2.4.2.6.2s.5-.1.8-.4l.5.9c-.4.4-.9.6-1.5.6-.5 0-1-.2-1.4-.5-.4-.4-.6-.9-.6-1.5V406H50v-1h.7v-1.8h1.2v1.8h1.6v1h-1.4zm8.6 2.5h-4.6c0 .4.2.8.6 1 .4.3.8.4 1.2.4.7 0 1.3-.2 1.7-.7l.7.8c-.6.7-1.5 1-2.5 1-.8 0-1.5-.3-2.1-.8-.6-.6-.9-1.3-.9-2.2 0-.9.3-1.7.9-2.2.6-.5 1.3-.8 2.1-.8s1.5.2 2.1.7c.6.5.8 1.1.8 2v.8zm-4.6-1h3.4c0-.5-.2-.9-.5-1.1-.3-.3-.7-.4-1.2-.4s-.9.1-1.2.4c-.4.3-.5.6-.5 1.1zm7.2.2v3.2h-1.2v-5.9h1.2v1.1c.2-.4.5-.6.8-.8.4-.2.7-.3 1.1-.3.7 0 1.2.2 1.6.6.4.4.6 1 .6 1.8v3.6h-1.2v-3.2c0-1.1-.5-1.6-1.4-1.6-.4 0-.8.1-1.1.4-.2.1-.4.5-.4 1.1zm10.7 3.2h-1.1v-.8c-.5.6-1.1.9-2 .9-.6 0-1.1-.2-1.5-.5-.4-.3-.6-.8-.6-1.4 0-.6.2-1 .6-1.3.4-.3 1-.4 1.7-.4h1.6v-.3c0-.8-.4-1.2-1.3-1.2-.5 0-1.1.2-1.7.6l-.6-.8c.7-.6 1.5-.8 2.4-.8.7 0 1.3.2 1.7.5.4.3.7.9.7 1.6v3.9zm-1.2-2.2v-.5h-1.4c-.9 0-1.3.3-1.3.8 0 .3.1.5.3.7.2.1.5.2.9.2s.7-.1 1-.3c.3-.2.5-.5.5-.9zm4.2-1v3.2h-1.2v-5.9H77v1.1c.2-.4.5-.6.8-.8.4-.2.7-.3 1.1-.3.7 0 1.2.2 1.6.6.4.4.6 1 .6 1.8v3.6h-1.2v-3.2c0-1.1-.5-1.6-1.4-1.6-.4 0-.8.1-1.1.4-.3.1-.4.5-.4 1.1zm8.5 3.3c-.8 0-1.5-.3-2.1-.8-.6-.6-.9-1.3-.9-2.2 0-.9.3-1.6.9-2.2.6-.6 1.4-.8 2.3-.8s1.6.3 2.3.9l-.7.9c-.5-.4-1-.7-1.5-.7s-1 .2-1.4.5c-.4.3-.6.8-.6 1.3s.2 1 .6 1.4c.4.4.8.6 1.4.6.6 0 1.1-.2 1.6-.8l.7.8c-.8.7-1.6 1.1-2.6 1.1zm4.5 2.2c-.5 0-1-.2-1.5-.6l.6-1c.3.2.5.4.8.4.3 0 .5-.1.7-.3.2-.2.3-.4.3-.7 0-.1-.8-2.1-2.4-6h1.3l1.8 4.3 1.8-4.3h1.3l-2.9 7c-.2.4-.4.7-.7.9-.3.2-.7.3-1.1.3z"/>
    <path opacity=".7" fill="#FFF" enable-background="new" d="M25.2 419.7c-.3 0-.5.1-.7.2-.2.1-.3.3-.3.5s.1.4.3.5c.2.1.6.3 1.2.4.6.1 1 .3 1.3.6.3.3.5.6.5 1.2 0 .5-.2.9-.6 1.2-.4.3-.9.5-1.5.5-.9 0-1.7-.3-2.4-.9l.6-.7c.6.5 1.2.8 1.8.8.3 0 .6-.1.7-.2.2-.1.3-.3.3-.5s-.1-.4-.3-.5c-.2-.1-.5-.2-.9-.3-.4-.1-.8-.2-1-.3l-.6-.3c-.3-.3-.5-.7-.5-1.2s.2-.9.6-1.2c.4-.3.9-.4 1.5-.4.4 0 .7.1 1.1.2.4.1.7.3.9.5l-.5.7c-.2-.2-.4-.3-.7-.4-.2-.4-.5-.4-.8-.4zm4.4 1.4v2.2c0 .2.1.4.2.5.1.1.3.2.5.2s.4-.1.6-.3l.4.7c-.3.3-.7.4-1.1.4-.4 0-.7-.1-1-.4-.3-.3-.4-.6-.4-1.1v-2.2h-.6v-.7h.6V419h.9v1.4h1.2v.7h-1.3zm3.3 2.5c.3.3.6.4 1 .4s.7-.1 1-.4c.3-.3.4-.6.4-1s-.1-.8-.4-1c-.3-.3-.6-.4-1-.4s-.7.1-1 .4c-.3.3-.4.6-.4 1 0 .3.2.7.4 1zm2.7.5c-.4.4-1 .7-1.7.7s-1.2-.2-1.7-.7c-.4-.4-.7-1-.7-1.6s.2-1.2.7-1.6c.4-.4 1-.7 1.7-.7s1.2.2 1.7.7c.4.4.7 1 .7 1.6s-.3 1.2-.7 1.6zm4.1-2.9c-.5 0-.8.1-1 .4s-.3.7-.3 1.2v1.9h-.9v-4.4h.9v.9c.1-.3.4-.5.6-.7.3-.2.5-.3.8-.3l-.1 1zm5.1 1.7h-3.5c0 .3.2.6.4.8.3.2.6.3.9.3.6 0 1-.2 1.3-.5l.5.6c-.5.5-1.1.7-1.9.7-.6 0-1.2-.2-1.6-.6-.4-.4-.6-1-.6-1.7s.2-1.2.7-1.7c.4-.4 1-.6 1.6-.6.6 0 1.1.2 1.5.5.4.4.6.9.6 1.5v.7zm-3.5-.7h2.5c0-.4-.1-.7-.3-.9-.2-.2-.5-.3-.9-.3-.3 0-.6.1-.9.3-.3.3-.4.5-.4.9zm10.3 2.5h-.8v-.6c-.4.4-.9.7-1.5.7-.5 0-.8-.1-1.1-.4-.3-.3-.4-.6-.4-1s.2-.8.5-1c.3-.2.8-.3 1.3-.3h1.2v-.2c0-.6-.3-.9-1-.9-.4 0-.8.1-1.3.4l-.4-.6c.5-.4 1.1-.6 1.8-.6.5 0 .9.1 1.3.4.3.3.5.7.5 1.2v2.9zm-.9-1.6v-.4h-1c-.7 0-1 .2-1 .6 0 .2.1.4.2.5.2.1.4.2.7.2.3 0 .6-.1.8-.2.2-.2.3-.4.3-.7zm3.2 1.6H53v-6.1h.9v6.1zm2.3 0h-.9v-6.1h.9v6.1zm4.2 1.8c-.4 0-.8-.1-1.1-.4l.4-.8c.2.2.4.3.6.3.2 0 .4-.1.5-.2.1-.1.2-.3.2-.5 0-.1-.6-1.6-1.8-4.5h1l1.3 3.2 1.3-3.2h1l-2.1 5.2c-.1.3-.3.5-.5.7-.3.1-.6.2-.8.2zm5.1-2.9c.3.3.6.4 1 .4s.7-.1 1-.4c.3-.3.4-.6.4-1s-.1-.8-.4-1c-.3-.3-.6-.4-1-.4s-.7.1-1 .4c-.3.3-.4.6-.4 1 0 .3.2.7.4 1zm2.7.5c-.4.4-1 .7-1.7.7s-1.2-.2-1.7-.7c-.4-.4-.7-1-.7-1.6s.2-1.2.7-1.6c.4-.4 1-.7 1.7-.7s1.2.2 1.7.7c.4.4.7 1 .7 1.6s-.3 1.2-.7 1.6zm4.8-1.4v-2.4h1v4.4h-1v-.8c-.1.3-.4.5-.6.6-.3.2-.5.2-.8.2-.5 0-.9-.2-1.2-.5-.3-.3-.5-.7-.5-1.3v-2.7h.9v2.4c0 .8.3 1.2 1 1.2.3 0 .6-.1.8-.3.3-.1.4-.4.4-.8zm4.6-1.5c-.5 0-.8.1-1 .4s-.3.7-.3 1.2v1.9h-.9v-4.4h.9v.9c.1-.3.4-.5.6-.7.3-.2.5-.3.8-.3l-.1 1c.1 0 0 0 0 0zm4.4-.1v2.2c0 .2.1.4.2.5.1.1.3.2.5.2s.4-.1.6-.3l.4.7c-.3.3-.7.4-1.1.4-.4 0-.7-.1-1-.4-.3-.3-.4-.6-.4-1.1v-2.2h-.6v-.7h.6V419h.8v1.4h1.2v.7H82zm6.5 1.8H85c0 .3.2.6.4.8.3.2.6.3.9.3.6 0 1-.2 1.3-.5l.5.6c-.5.5-1.1.7-1.9.7-.6 0-1.2-.2-1.6-.6-.4-.4-.6-1-.6-1.7s.2-1.2.7-1.7c.4-.4 1-.6 1.6-.6.6 0 1.1.2 1.5.5.4.4.6.9.6 1.5v.7zm-3.5-.7h2.5c0-.4-.1-.7-.3-.9s-.5-.3-.9-.3c-.3 0-.6.1-.9.3-.2.3-.4.5-.4.9zm5.4.1v2.4h-.9v-4.4h.9v.8c.1-.3.4-.5.6-.6.3-.2.6-.2.9-.2.5 0 .9.2 1.2.5.3.3.5.7.5 1.3v2.7h-.9v-2.4c0-.8-.3-1.2-1-1.2-.3 0-.6.1-.8.3-.3.1-.5.4-.5.8zm8.1 2.4h-.8v-.6c-.4.4-.9.7-1.5.7-.5 0-.8-.1-1.1-.4-.3-.3-.4-.6-.4-1s.2-.8.5-1c.3-.2.8-.3 1.3-.3h1.2v-.2c0-.6-.3-.9-1-.9-.4 0-.8.1-1.3.4l-.4-.6c.5-.4 1.1-.6 1.8-.6.5 0 .9.1 1.3.4.3.3.5.7.5 1.2v2.9zm-.9-1.6v-.4h-1c-.7 0-1 .2-1 .6 0 .2.1.4.2.5.2.1.4.2.7.2.3 0 .6-.1.8-.2.1-.2.3-.4.3-.7zm3.1-.8v2.4h-.9v-4.4h.9v.8c.1-.3.4-.5.6-.6.3-.2.6-.2.9-.2.5 0 .9.2 1.2.5.3.3.5.7.5 1.3v2.7h-.9v-2.4c0-.8-.3-1.2-1-1.2-.3 0-.6.1-.8.3-.4.1-.5.4-.5.8zm6.4 2.5c-.6 0-1.1-.2-1.6-.6-.4-.4-.7-1-.7-1.6 0-.7.2-1.2.7-1.6.5-.4 1-.6 1.7-.6s1.2.2 1.7.7l-.5.7c-.4-.3-.8-.5-1.2-.5-.4 0-.7.1-1 .4-.3.3-.4.6-.4 1s.1.7.4 1c.3.3.6.4 1 .4s.8-.2 1.2-.6l.5.6c-.5.4-1.1.7-1.8.7zm3.4 1.7c-.4 0-.8-.1-1.1-.4l.4-.8c.2.2.4.3.6.3.2 0 .4-.1.5-.2.1-.1.2-.3.2-.5 0-.1-.6-1.6-1.8-4.5h1l1.3 3.2 1.3-3.2h1l-2.1 5.2c-.1.3-.3.5-.5.7-.2.1-.5.2-.8.2zm8.3-1.7c-.6 0-1-.2-1.5-.6-.4-.4-.6-1-.6-1.7s.2-1.2.6-1.6c.4-.4.9-.6 1.5-.6s1.1.2 1.4.7v-2.4h.9v6.1h-.9v-.7c-.2.5-.7.8-1.4.8zm-1.1-2.3c0 .4.1.8.4 1 .3.3.6.4 1 .4s.7-.1.9-.4c.3-.3.4-.6.4-1s-.1-.8-.4-1.1c-.3-.3-.6-.4-.9-.4-.4 0-.7.1-1 .4-.3.4-.4.7-.4 1.1zm9 .4h-3.5c0 .3.2.6.4.8.3.2.6.3.9.3.6 0 1-.2 1.3-.5l.5.6c-.5.5-1.1.7-1.9.7-.6 0-1.2-.2-1.6-.6-.4-.4-.6-1-.6-1.7s.2-1.2.7-1.7c.4-.4 1-.6 1.6-.6.6 0 1.1.2 1.5.5.4.4.6.9.6 1.5v.7zm-3.4-.7h2.5c0-.4-.1-.7-.3-.9-.2-.2-.5-.3-.9-.3-.3 0-.6.1-.9.3-.3.3-.4.5-.4.9zm5.6-1.1v2.2c0 .2.1.4.2.5.1.1.3.2.5.2s.4-.1.6-.3l.4.7c-.3.3-.7.4-1.1.4-.4 0-.7-.1-1-.4-.3-.3-.4-.6-.4-1.1v-2.2h-.6v-.7h.6V419h.9v1.4h1.2v.7h-1.3zm5.9 3.6h-.8v-.6c-.4.4-.9.7-1.5.7-.5 0-.8-.1-1.1-.4-.3-.3-.4-.6-.4-1s.2-.8.5-1c.3-.2.8-.3 1.3-.3h1.2v-.2c0-.6-.3-.9-1-.9-.4 0-.8.1-1.3.4l-.4-.6c.5-.4 1.1-.6 1.8-.6.5 0 .9.1 1.3.4.3.3.5.7.5 1.2v2.9zm-1-1.6v-.4h-1c-.7 0-1 .2-1 .6 0 .2.1.4.2.5.2.1.4.2.7.2.3 0 .6-.1.8-.2.2-.2.3-.4.3-.7zm3.2 1.6h-.9v-4.4h.9v4.4zm-.9-5.3c-.1-.1-.2-.3-.2-.4s.1-.3.2-.4c.1-.1.3-.2.4-.2s.3.1.4.2c.1.1.2.3.2.4s-.1.3-.2.4c-.1.1-.3.2-.4.2s-.3 0-.4-.2zm3.2 5.3h-.9v-6.1h.9v6.1zm4.5-1.3c0 .4-.2.8-.5 1-.3.2-.7.4-1.2.4-.3 0-.7-.1-1-.2-.3-.1-.6-.3-.9-.5l.4-.7c.5.4 1 .6 1.5.6.2 0 .4 0 .5-.1.1-.1.2-.2.2-.4s-.3-.4-.9-.6h-.1c-.9-.2-1.4-.7-1.4-1.2 0-.4.2-.7.5-1 .3-.2.7-.4 1.2-.4s1 .1 1.4.4l-.3.7c-.4-.2-.8-.4-1.2-.4-.2 0-.4 0-.5.1-.1.1-.2.2-.2.4 0 .1.1.2.2.3.1 0 .2.1.4.1s.3.1.5.1c.1 0 .3.1.4.1.1.1.3.1.4.2.4.4.6.7.6 1.1zm6.9 1.3h-.8v-.6c-.4.4-.9.7-1.5.7-.5 0-.8-.1-1.1-.4-.3-.3-.4-.6-.4-1s.2-.8.5-1c.3-.2.8-.3 1.3-.3h1.2v-.2c0-.6-.3-.9-1-.9-.4 0-.8.1-1.3.4l-.4-.6c.5-.4 1.1-.6 1.8-.6.5 0 .9.1 1.3.4.3.3.5.7.5 1.2v2.9zm-.9-1.6v-.4h-1c-.7 0-1 .2-1 .6 0 .2.1.4.2.5.2.1.4.2.7.2.3 0 .6-.1.8-.2.2-.2.3-.4.3-.7zm3.1-.8v2.4h-.9v-4.4h.9v.8c.1-.3.4-.5.6-.6.3-.2.6-.2.9-.2.5 0 .9.2 1.2.5.3.3.5.7.5 1.3v2.7h-.9v-2.4c0-.8-.3-1.2-1-1.2-.3 0-.6.1-.8.3-.3.1-.5.4-.5.8zm6.3 2.5c-.6 0-1-.2-1.5-.6-.4-.4-.6-1-.6-1.7s.2-1.2.6-1.6c.4-.4.9-.6 1.5-.6s1.1.2 1.4.7v-2.4h.9v6.1h-.9v-.7c-.2.5-.7.8-1.4.8zm-1.2-2.3c0 .4.1.8.4 1 .3.3.6.4 1 .4s.7-.1.9-.4c.3-.3.4-.6.4-1s-.1-.8-.4-1.1c-.3-.3-.6-.4-.9-.4-.4 0-.7.1-1 .4-.2.4-.4.7-.4 1.1zm11.4.4h-3.5c0 .3.2.6.4.8.3.2.6.3.9.3.6 0 1-.2 1.3-.5l.5.6c-.5.5-1.1.7-1.9.7-.6 0-1.2-.2-1.6-.6-.4-.4-.6-1-.6-1.7s.2-1.2.7-1.7c.4-.4 1-.6 1.6-.6.6 0 1.1.2 1.5.5.4.4.6.9.6 1.5v.7zm-3.5-.7h2.5c0-.4-.1-.7-.3-.9s-.5-.3-.9-.3c-.3 0-.6.1-.9.3-.2.3-.4.5-.4.9zm5.4.1v2.4h-.9v-4.4h.9v.8c.1-.3.4-.5.6-.6.3-.2.6-.2.9-.2.5 0 .9.2 1.2.5.3.3.5.7.5 1.3v2.7h-.9v-2.4c0-.8-.3-1.2-1-1.2-.3 0-.6.1-.8.3-.3.1-.5.4-.5.8zm8.1 2.4h-.8v-.6c-.4.4-.9.7-1.5.7-.5 0-.8-.1-1.1-.4-.3-.3-.4-.6-.4-1s.2-.8.5-1c.3-.2.8-.3 1.3-.3h1.2v-.2c0-.6-.3-.9-1-.9-.4 0-.8.1-1.3.4l-.4-.6c.5-.4 1.1-.6 1.8-.6.5 0 .9.1 1.3.4.3.3.5.7.5 1.2v2.9zm-1-1.6v-.4h-1c-.7 0-1 .2-1 .6 0 .2.1.4.2.5.2.1.4.2.7.2.3 0 .6-.1.8-.2.2-.2.3-.4.3-.7zm4.6-2.8c.6 0 1.1.2 1.5.6.4.4.6 1 .6 1.6 0 .7-.2 1.2-.6 1.7-.4.4-.9.6-1.5.6s-1.1-.2-1.5-.7v.7h-.9v-6.1h.9v2.5c.5-.7.9-.9 1.5-.9zm-1.4 2.2c0 .4.1.8.4 1 .3.3.6.4.9.4.4 0 .7-.1 1-.4.3-.3.4-.6.4-1s-.1-.8-.4-1.1c-.3-.3-.6-.4-1-.4s-.7.1-.9.4c-.3.4-.4.7-.4 1.1zm5.6 2.2h-.9v-6.1h.9v6.1zm5.5-1.8h-3.5c0 .3.2.6.4.8.3.2.6.3.9.3.6 0 1-.2 1.3-.5l.5.6c-.5.5-1.1.7-1.9.7-.6 0-1.2-.2-1.6-.6-.4-.4-.6-1-.6-1.7s.2-1.2.7-1.7c.4-.4 1-.6 1.6-.6.6 0 1.1.2 1.5.5.4.4.6.9.6 1.5v.7zm-3.5-.7h2.5c0-.4-.1-.7-.3-.9s-.5-.3-.9-.3c-.3 0-.6.1-.9.3-.3.3-.4.5-.4.9zm9.1-1c-.5 0-.8.1-1 .4s-.3.7-.3 1.2v1.9h-1v-4.4h.9v.9c.1-.3.4-.5.6-.7.3-.2.5-.3.8-.3v1zm5.1 1.7h-3.5c0 .3.2.6.4.8.3.2.6.3.9.3.6 0 1-.2 1.3-.5l.5.6c-.5.5-1.1.7-1.9.7-.6 0-1.2-.2-1.6-.6-.4-.4-.6-1-.6-1.7s.2-1.2.7-1.7c.4-.4 1-.6 1.6-.6.6 0 1.1.2 1.5.5.4.4.6.9.6 1.5v.7zm-3.5-.7h2.5c0-.4-.1-.7-.3-.9-.2-.2-.5-.3-.9-.3-.3 0-.6.1-.9.3-.2.3-.4.5-.4.9zm5.5.1v2.4h-.9v-4.4h.9v.8c.1-.3.4-.5.6-.6.3-.2.6-.2.9-.2.5 0 .9.2 1.2.5.3.3.5.7.5 1.3v2.7h-.9v-2.4c0-.8-.3-1.2-1-1.2-.3 0-.6.1-.8.3-.4.1-.5.4-.5.8zm5.5-1.2v2.2c0 .2.1.4.2.5.1.1.3.2.5.2s.4-.1.6-.3l.4.7c-.3.3-.7.4-1.1.4-.4 0-.7-.1-1-.4-.3-.3-.4-.6-.4-1.1v-2.2h-.6v-.7h.6V419h.9v1.4h1.2v.7h-1.3zM25.3 434.4c-.6 0-1.1-.2-1.6-.6-.4-.4-.7-1-.7-1.6 0-.7.2-1.2.7-1.6.5-.4 1-.6 1.7-.6s1.2.2 1.7.7l-.5.7c-.4-.3-.8-.5-1.2-.5s-.7.1-1 .4c-.3.3-.4.6-.4 1s.1.7.4 1 .6.4 1 .4.8-.2 1.2-.6l.5.6c-.5.5-1.1.7-1.8.7zm3.8-1.2c.3.3.6.4 1 .4s.7-.1 1-.4c.3-.3.4-.6.4-1s-.1-.8-.4-1c-.3-.3-.6-.4-1-.4s-.7.1-1 .4c-.3.3-.4.6-.4 1s.1.7.4 1zm2.6.6c-.4.4-1 .7-1.7.7s-1.2-.2-1.7-.7c-.4-.4-.7-1-.7-1.6 0-.6.2-1.2.7-1.6.4-.4 1-.7 1.7-.7s1.2.2 1.7.7c.4.4.7 1 .7 1.6 0 .6-.2 1.1-.7 1.6zm2.7.6h-.9v-6.1h.9v6.1zm2.3 0h-.9v-6.1h.9v6.1zm5.4-1.8h-3.5c0 .3.2.6.4.8.3.2.6.3.9.3.6 0 1-.2 1.3-.5l.5.6c-.5.5-1.1.7-1.9.7-.6 0-1.2-.2-1.6-.6-.4-.4-.6-1-.6-1.7s.2-1.2.7-1.7c.4-.4 1-.6 1.6-.6.6 0 1.1.2 1.5.5.4.4.6.9.6 1.5v.7zm-3.4-.7h2.5c0-.4-.1-.7-.3-.9-.2-.2-.5-.3-.9-.3-.3 0-.6.1-.9.3-.3.2-.4.5-.4.9zm6.4 2.5c-.6 0-1.1-.2-1.6-.6-.4-.4-.7-1-.7-1.6 0-.7.2-1.2.7-1.6.5-.4 1-.6 1.7-.6s1.2.2 1.7.7l-.5.7c-.4-.3-.8-.5-1.2-.5s-.7.1-1 .4c-.3.3-.4.6-.4 1s.1.7.4 1c.3.3.6.4 1 .4s.8-.2 1.2-.6l.5.6c-.5.5-1.1.7-1.8.7zm4-3.7v2.2c0 .2.1.4.2.5.1.1.3.2.5.2s.4-.1.6-.3l.4.7c-.3.3-.7.4-1.1.4-.4 0-.7-.1-1-.4-.3-.3-.4-.6-.4-1.1v-2.2h-.6v-.7h.6v-1.4h.9v1.4h1.2v.7h-1.3zm3.3 3.7h-.9V430h.9v4.4zm-.9-5.3c-.1-.1-.2-.3-.2-.4 0-.2.1-.3.2-.4.1-.1.3-.2.4-.2s.3.1.4.2c.1.1.2.3.2.4 0 .2-.1.3-.2.4-.1.1-.3.2-.4.2s-.3-.1-.4-.2zm3.2 4.1c.3.3.6.4 1 .4s.7-.1 1-.4c.3-.3.4-.6.4-1s-.1-.8-.4-1c-.3-.3-.6-.4-1-.4s-.7.1-1 .4c-.3.3-.4.6-.4 1 .1.4.2.7.4 1zm2.7.6c-.4.4-1 .7-1.7.7s-1.2-.2-1.7-.7c-.4-.4-.7-1-.7-1.6 0-.6.2-1.2.7-1.6.4-.4 1-.7 1.7-.7s1.2.2 1.7.7c.4.4.7 1 .7 1.6 0 .6-.2 1.1-.7 1.6zm2.7-1.8v2.4h-.9V430h.9v.8c.1-.3.4-.5.6-.6.3-.2.6-.2.9-.2.5 0 .9.2 1.2.5.3.3.5.7.5 1.3v2.7h-.9V432c0-.8-.3-1.2-1-1.2-.3 0-.6.1-.8.3-.4.2-.5.5-.5.9z"/>
    <path fill="#FFF" d="M238.8 417.3l-4.2-4.1c-.2-.2-.5-.2-.7 0-.2.2-.2.5 0 .7l3.8 3.8-3.8 3.8c-.2.2-.2.5 0 .7.2.2.5.2.7 0l4.2-4.1c.1-.3.1-.6 0-.8z"/>
    <path fill="#68E4FF" d="M8.1 388.6c0-1.5 1.2-2.8 2.8-2.8h4v63.9h-4c-1.5 0-2.8-1.2-2.8-2.8v-58.3z"/>
    <g>
        <linearGradient id="a" gradientUnits="userSpaceOnUse" x1="90.655" y1="486.336" x2="168.341" y2="208.369" gradientTransform="matrix(1 0 0 -1 0 461)">
            <stop offset="0" stop-color="#004da8"/>
            <stop offset="1" stop-color="#2e98d3"/>
        </linearGradient>
        <path fill="url(#a)" d="M0 0h260v230.9H0z"/>
    </g>
    <g>
        <path fill-opacity=".01" d="M0 0v13.8h260V0H0z"/>
        <path fill="#FFF" d="M253.9 3.4h-16.2c-.7 0-1.3.5-1.3 1.2v5.2c0 .7.6 1.2 1.3 1.2h16.2c.7 0 1.2-.5 1.2-1.2V4.6c0-.6-.5-1.2-1.2-1.2zm-17.1 1.2c0-.4.4-.8.8-.8h16.2c.2 0 .5.1.6.2.1.1.2.3.2.5v5.2c0 .4-.4.8-.8.8h-16.2c-.3 0-.5-.1-.6-.3-.1-.1-.2-.3-.2-.5V4.6z"/>
        <path fill="#FFF" d="M237.6 4.2c-.2 0-.3.2-.3.3v5.3c0 .2.2.3.3.3h6.6v-6h-6.6z"/>
        <path fill="#FFF" d="M256.5 7.2c0 .7-.5 1.3-1 1.4V5.9c.6.1 1 .6 1 1.3z"/>
        <path fill="#FFF" d="M213.8 10.5c1.4 0 2.4-.9 2.4-2.3 0-1.3-.9-2.3-2.2-2.3-.6 0-1.1.2-1.4.6h-.1l.2-2.2h3.1v-.8H212l-.4 3.9h.8c.3-.5.8-.8 1.4-.8.9 0 1.5.6 1.5 1.6 0 .9-.6 1.6-1.5 1.6-.8 0-1.4-.5-1.5-1.2h-.8c.1 1.1 1 1.9 2.3 1.9zm6.1 0c1.5 0 2.5-.8 2.5-2 0-.9-.6-1.6-1.4-1.7v-.1c.7-.2 1.1-.8 1.1-1.5 0-1.1-.9-1.8-2.2-1.8-1.3 0-2.2.8-2.2 1.8 0 .7.4 1.3 1.1 1.5v.1c-.9.2-1.4.8-1.4 1.7 0 1.2 1 2 2.5 2zm0-.7c-.9 0-1.6-.5-1.6-1.3s.7-1.3 1.6-1.3c.9 0 1.6.5 1.6 1.3 0 .7-.7 1.3-1.6 1.3zm0-3.4c-.8 0-1.3-.5-1.3-1.2s.5-1.2 1.3-1.2 1.3.5 1.3 1.2c0 .8-.5 1.2-1.3 1.2zm11.6 3.5c-.4 0-.7-.4-.7-1s.3-1 .7-1c.4 0 .7.4.7 1 0 .5-.3 1-.7 1zm0 .6c.9 0 1.5-.7 1.5-1.6s-.6-1.6-1.5-1.6-1.5.7-1.5 1.6c.1.9.7 1.6 1.5 1.6zm-3.9-3.8c.9 0 1.5-.7 1.5-1.6 0-1-.6-1.6-1.5-1.6s-1.5.7-1.5 1.6c0 .9.6 1.6 1.5 1.6zm-.1 3.6l2.3-3.2 2.7-3.6h-.9l-2.4 3.3-2.6 3.5h.9zm.1-4.2c-.4 0-.7-.4-.7-1s.3-1 .7-1c.4 0 .7.4.7 1s-.3 1-.7 1z"/>
        <path opacity=".45" fill="#FFF" enable-background="new" d="M204.1 10.2V7.8l1.2 1.3-1.2 1.1zm1.2-4.8l-1.2 1.2V4.3l1.2 1.1zm-.9 1.8l1.8-1.8-2.7-2.6h-.1v3.7l-1.9-1.9-.5.6 2.2 2.2-2.2 2.2.5.6 1.9-1.9V12h.1l2.7-2.7-1.8-2.1z"/>
        <path fill="#FFF" stroke="#FFF" d="M107.1 6.9c0-.2.2-.3.3-.3h4.2c.2 0 .3.2.3.3v2.8c0 .2-.2.3-.3.3h-4.2c-.2 0-.3-.2-.3-.3V6.9z"/>
        <path fill="#FFF" d="M109.5 3.4c-1.1 0-2.1.9-2.1 2.1v2.1h.7V5.5c0-.8.6-1.4 1.4-1.4.8 0 1.4.6 1.4 1.4v2.1h.7V5.5c0-1.1-.9-2.1-2.1-2.1z"/>
        <defs>
            <filter id="b" filterUnits="userSpaceOnUse" x="106.8" y="2.8" width="5.5" height="5.5">
                <feColorMatrix values="1 0 0 0 0 0 1 0 0 0 0 0 1 0 0 0 0 0 1 0"/>
            </filter>
        </defs>
        <mask maskUnits="userSpaceOnUse" x="106.8" y="2.8" width="5.5" height="5.5" id="c">
            <path fill="#FFF" filter="url(#b)" d="M109.5 3.4c-1.1 0-2.1.9-2.1 2.1v2.1h.7V5.5c0-.8.6-1.4 1.4-1.4.8 0 1.4.6 1.4 1.4v2.1h.7V5.5c0-1.1-.9-2.1-2.1-2.1z"/>
        </mask>
        <path mask="url(#c)" fill="#FFF" d="M107.5 7.6h-.7v.7h.7v-.7zm.7 0v.7h.7v-.7h-.7zm2.7 0h-.7v.7h.7v-.7zm.7 0v.7h.7v-.7h-.7zm-3.4-2.1c0-.8.6-1.4 1.4-1.4V2.8c-1.5 0-2.8 1.2-2.8 2.8h1.4zm0 2.1V5.5h-1.4v2.1h1.4zm0-.7h-.7v1.4h.7V6.9zm.7.7V5.5h-1.4v2.1h1.4zm0-2.1c0-.4.3-.7.7-.7V3.4c-1.1 0-2.1.9-2.1 2.1h1.4zm.6-.7c.4 0 .7.3.7.7h1.4c0-1.1-.9-2.1-2.1-2.1v1.4zm.7.7v2.1h1.4V5.5h-1.4zm1.4 1.4h-.7v1.4h.7V6.9zm-.7-1.4v2.1h1.4V5.5h-1.4zm-1.4-1.4c.8 0 1.4.6 1.4 1.4h1.4c0-1.5-1.2-2.8-2.8-2.8v1.4z"/>
        <path fill="#FFF" d="M120.9 10.5c1.5 0 2.4-1.3 2.4-3.5 0-2.3-.9-3.6-2.4-3.6s-2.4 1.3-2.4 3.6c0 2.2.9 3.5 2.4 3.5zm0-.7c-1 0-1.6-1-1.6-2.8 0-1.8.6-2.8 1.6-2.8s1.6 1 1.6 2.8c0 1.8-.6 2.8-1.6 2.8zm5.9.7c1.7 0 2.6-1.3 2.6-3.7 0-.7-.1-1.4-.3-1.9-.4-1-1.2-1.5-2.2-1.5-1.4 0-2.4 1-2.4 2.3 0 1.3.9 2.3 2.2 2.3.8 0 1.5-.4 1.8-1 0 1.8-.7 2.8-1.8 2.8-.7 0-1.2-.4-1.4-1h-.9c.4 1 1.2 1.7 2.4 1.7zm0-3.2c-.9 0-1.5-.6-1.5-1.6 0-.9.7-1.6 1.5-1.6.9 0 1.5.7 1.5 1.6.1.9-.5 1.6-1.5 1.6zm3.9 1.7c0 .4.3.7.7.7.4 0 .7-.3.7-.7 0-.4-.3-.7-.7-.7-.4 0-.7.3-.7.7zm0-3.7c0 .4.3.7.7.7.4 0 .7-.3.7-.7 0-.4-.3-.7-.7-.7-.4 0-.7.3-.7.7zm2.8.2h.8c0-.8.5-1.3 1.3-1.3s1.3.5 1.3 1.2c0 .5-.2.9-1.1 1.9l-2.4 2.6v.6h4.4v-.9h-3.2v-.1l1.6-1.8c1.1-1.2 1.4-1.7 1.4-2.5 0-1.1-.9-1.9-2.2-1.9-1 .1-1.9.9-1.9 2.2zm8.9 4.8h.8V8.9h1v-.7h-1V3.5H142c-1.2 1.8-2.3 3.5-2.9 4.6v.8h3.3v1.4zm-2.5-2.2c.8-1.4 1.7-2.8 2.4-3.8h.1v3.9l-2.5-.1z"/>
        <path fill="#FFF" d="M55.8 4.7c1.7 0 3.2.6 4.4 1.6l.8-.9c-1.4-1.2-3.2-2-5.2-2s-3.8.8-5.2 2l.8.9c1.2-1 2.7-1.6 4.4-1.6zm0 2.6c1 0 1.9.4 2.6.9l.9-.9c-.9-.8-2.2-1.3-3.5-1.3-1.3 0-2.6.5-3.5 1.3l.9.9c.7-.6 1.6-.9 2.6-.9zm1.8 1.8c-.5-.4-1.1-.7-1.8-.7s-1.3.3-1.8.7l1.8 1.9 1.8-1.9z"/>
        <path fill="#FFF" d="M42 7.7v-.8h-2.8v.7h1.9v.2c0 1.2-.8 1.9-2.1 1.9-1.4 0-2.2-1.1-2.2-2.8 0-1.7.9-2.8 2.2-2.8 1 0 1.7.5 2 1.4h.9c-.2-1.3-1.3-2.2-2.9-2.2-1.9 0-3.1 1.4-3.1 3.6s1.2 3.6 3.1 3.6c1.8 0 3-1.1 3-2.8zm.9.9c.1 1.2 1.1 1.9 2.5 1.9 1.6 0 2.6-.8 2.6-2 0-1-.6-1.5-2-1.9l-.7-.2c-1-.3-1.3-.6-1.3-1.1 0-.7.6-1.1 1.5-1.1s1.4.4 1.5 1.1h.9c-.1-1.1-1.1-1.9-2.4-1.9-1.4 0-2.4.8-2.4 1.9 0 1 .5 1.5 1.8 1.8l.9.2c.9.2 1.4.6 1.4 1.2 0 .7-.7 1.2-1.6 1.2-1 0-1.7-.5-1.8-1.2h-.9z"/>
        <path fill="#FFF" d="M28.8 6.9c0 1.3 1.1 2.4 2.4 2.4 1.3 0 2.4-1.1 2.4-2.4 0-1.3-1.1-2.4-2.4-2.4-1.3 0-2.4 1.1-2.4 2.4zm4.4 0c0 1.1-.9 2-2 2s-2-.9-2-2 .9-2 2-2 2 .9 2 2z"/>
        <path fill="#FFF" d="M22.9 6.9c0 1.3 1.1 2.4 2.4 2.4 1.3 0 2.4-1.1 2.4-2.4 0-1.3-1.1-2.4-2.4-2.4-1.3 0-2.4 1.1-2.4 2.4zm4.4 0c0 1.1-.9 2-2 2s-2-.9-2-2 .9-2 2-2 2 .9 2 2z"/>
        <path fill="#FFF" d="M19.4 9.3c1.3 0 2.4-1.1 2.4-2.4s-1.1-2.4-2.4-2.4c-1.3 0-2.4 1.1-2.4 2.4s1.1 2.4 2.4 2.4z"/>
        <path fill="#FFF" d="M13.5 9.3c1.3 0 2.4-1.1 2.4-2.4s-1.1-2.4-2.4-2.4c-1.3 0-2.4 1.1-2.4 2.4s1.1 2.4 2.4 2.4z"/>
        <path fill="#FFF" stroke="#FFF" d="M7.6 9.3c1.3 0 2.4-1.1 2.4-2.4S9 4.5 7.6 4.5c-1.3 0-2.4 1.1-2.4 2.4s1.1 2.4 2.4 2.4z"/>
        <path fill="#6BFFFF" d="M27.3 40.6c0-.4-.3-.7-.7-.7h-8c-.6 0-.9-.7-.5-1.2l3.1-3.1c.3-.3.3-.7 0-1l-.2-.2c-.3-.3-.7-.3-1 0l-5.9 5.8c-.3.3-.3.7 0 1L20 47c.3.3.7.3 1 0l.2-.2c.3-.3.3-.7 0-1l-3.1-3.1c-.4-.4-.1-1.2.5-1.2h8c.4 0 .7-.3.7-.7v-.2z"/>
        <path fill="#FFF" d="M87.2 37v1.1l-3.4 7.6h-1.7l3.3-7.3H82v1.5h-1.5V37h6.7zm9.1 8.8c-.9 0-1.7-.2-2.4-.6-.7-.4-1.3-.9-1.7-1.6-.4-.7-.6-1.4-.6-2.3s.2-1.6.6-2.3c.4-.7 1-1.2 1.7-1.6.7-.4 1.5-.6 2.4-.6.7 0 1.4.1 2 .4s1.1.6 1.5 1.1l-1 1c-.6-.7-1.4-1-2.3-1-.6 0-1.1.1-1.6.4-.5.3-.8.6-1.1 1.1s-.4 1-.4 1.6c0 .6.1 1.1.4 1.6s.6.8 1.1 1.1c.5.3 1 .4 1.6.4.9 0 1.7-.3 2.3-1l1 1c-.4.5-.9.8-1.5 1.1-.6.1-1.3.2-2 .2zm4.9-9.3h1.6v9.2h-1.6v-9.2zm3.6 2.6h1.6v6.6h-1.6v-6.6zm.8-1.1c-.3 0-.5-.1-.7-.3-.2-.2-.3-.4-.3-.7 0-.3.1-.5.3-.7.2-.2.4-.3.7-.3s.5.1.7.3c.2.2.3.4.3.6 0 .3-.1.5-.3.7-.2.3-.4.4-.7.4zm5.5-.3c-.7 0-1 .4-1 1.1v.4h1.8v1.2h-1.8v5.3h-1.6v-5.3h-1.1v-1.2h1.1v-.4c0-.7.2-1.3.6-1.7.4-.4 1-.6 1.8-.6.6 0 1.1.1 1.4.4l-.4 1.2c-.2-.4-.5-.4-.8-.4zm5.9 7.6c-.2.1-.4.3-.7.3-.3.1-.5.1-.8.1-.7 0-1.3-.2-1.7-.6-.4-.4-.6-.9-.6-1.7v-3.2h-1.1V39h1.1v-1.5h1.6V39h1.8v1.2h-1.8v3.2c0 .3.1.6.2.7.2.2.4.2.7.2.3 0 .6-.1.9-.3l.4 1.3zm4.1.5c-.7 0-1.3-.1-1.8-.4-.5-.3-1-.7-1.3-1.2-.3-.5-.4-1.1-.4-1.8s.1-1.2.4-1.8c.3-.5.7-.9 1.3-1.2s1.1-.4 1.8-.4 1.3.1 1.8.4c.5.3 1 .7 1.3 1.2.3.5.5 1.1.5 1.8s-.2 1.2-.5 1.8c-.3.5-.7.9-1.3 1.2-.5.2-1.1.4-1.8.4zm0-1.3c.6 0 1-.2 1.4-.6.4-.4.6-.9.6-1.5s-.2-1.1-.6-1.5c-.4-.4-.8-.6-1.4-.6-.6 0-1 .2-1.4.6-.4.4-.5.9-.5 1.5s.2 1.1.5 1.5c.3.4.8.6 1.4.6zm8.8-5.5c.8 0 1.5.2 2 .7.5.5.8 1.2.8 2.2v3.8h-1.6v-3.6c0-.6-.1-1-.4-1.3-.3-.3-.7-.4-1.2-.4-.6 0-1 .2-1.4.5-.3.3-.5.8-.5 1.5v3.4H126v-6.6h1.5v.9c.3-.3.6-.5 1-.7s.9-.4 1.4-.4zm14.1 6.7l-1.8-2.5h-2.3v2.5h-1.6V37h3.6c.8 0 1.4.1 2 .4.6.2 1 .6 1.3 1.1.3.5.4 1 .4 1.7s-.2 1.2-.5 1.7-.8.8-1.4 1.1l2 2.9H144zm0-5.6c0-.6-.2-1-.5-1.3-.4-.3-.9-.4-1.6-.4H140v3.5h1.9c.7 0 1.2-.1 1.6-.4.3-.4.5-.8.5-1.4zm6.3 5.7c-.7 0-1.3-.1-1.8-.4-.5-.3-1-.7-1.3-1.2-.3-.5-.4-1.1-.4-1.8s.1-1.2.4-1.8c.3-.5.7-.9 1.3-1.2s1.1-.4 1.8-.4 1.3.1 1.8.4 1 .7 1.3 1.2c.3.5.5 1.1.5 1.8s-.2 1.2-.5 1.8c-.3.5-.7.9-1.3 1.2-.5.2-1.2.4-1.8.4zm0-1.3c.6 0 1-.2 1.4-.6.4-.4.6-.9.6-1.5s-.2-1.1-.6-1.5c-.4-.4-.8-.6-1.4-.6s-1 .2-1.4.6c-.4.4-.5.9-.5 1.5s.2 1.1.5 1.5c.3.4.8.6 1.4.6zm7.5-5.5c1 0 1.7.2 2.2.7.5.5.8 1.2.8 2.1v3.9h-1.5v-.8c-.2.3-.5.5-.8.7-.3.1-.8.2-1.3.2s-.9-.1-1.3-.2c-.4-.2-.7-.4-.9-.7-.2-.3-.3-.6-.3-1 0-.6.2-1.1.7-1.4.4-.4 1.2-.5 2.1-.5h1.7v-.1c0-.5-.1-.8-.4-1.1-.3-.2-.7-.4-1.2-.4-.4 0-.7.1-1.1.2-.4.1-.7.3-.9.5L155 40c.3-.3.8-.5 1.3-.6.4-.3.9-.4 1.5-.4zm-.2 5.7c.4 0 .7-.1 1-.3.3-.2.5-.4.6-.8v-.8h-1.6c-.9 0-1.3.3-1.3.9 0 .3.1.5.3.7.2.2.6.3 1 .3zm11.8-8.2v9.2h-1.5v-.9c-.3.3-.6.6-1 .7-.4.2-.8.2-1.2.2-.6 0-1.2-.1-1.7-.4-.5-.3-.9-.7-1.2-1.2-.3-.5-.4-1.1-.4-1.8s.1-1.3.4-1.8.7-.9 1.2-1.2c.5-.3 1.1-.4 1.7-.4.4 0 .8.1 1.2.2.4.1.7.4.9.7v-3.4h1.6zm-3.5 8c.4 0 .7-.1 1-.2.3-.2.5-.4.7-.7.2-.3.3-.7.3-1.1s-.1-.8-.3-1.1c-.2-.3-.4-.6-.7-.7-.3-.2-.6-.3-1-.3s-.7.1-1 .3c-.3.2-.5.4-.7.7-.2.3-.3.7-.3 1.1s.1.8.3 1.1c.2.3.4.6.7.7.3.1.6.2 1 .2zm6 1.3c-.3 0-.5-.1-.7-.3-.2-.2-.3-.4-.3-.7 0-.3.1-.6.3-.7.2-.2.4-.3.7-.3s.5.1.7.3c.2.2.3.4.3.7 0 .3-.1.5-.3.7-.1.2-.4.3-.7.3zm3.1 0c-.3 0-.5-.1-.7-.3-.2-.2-.3-.4-.3-.7 0-.3.1-.6.3-.7.2-.2.4-.3.7-.3s.5.1.7.3c.2.2.3.4.3.7 0 .3-.1.5-.3.7-.2.2-.4.3-.7.3zm3 0c-.3 0-.5-.1-.7-.3-.2-.2-.3-.4-.3-.7 0-.3.1-.6.3-.7.2-.2.4-.3.7-.3s.5.1.7.3c.2.2.3.4.3.7 0 .3-.1.5-.3.7-.2.2-.4.3-.7.3z"/>
        <path fill="#FFF" d="M21.4 95.4v-2.2h5.5v1.2l-3.3 6.6h-1.4l3.2-6.5h-2.8v1h-1.2zm13.4 4.3c.5 0 .8-.1 1.2-.2.3-.2.7-.4 1-.7l.8.9c-.8.9-1.8 1.4-3 1.4s-2.1-.4-2.9-1.1c-.8-.8-1.2-1.7-1.2-2.8s.4-2.1 1.2-2.9c.8-.8 1.8-1.1 3-1.1s2.2.4 3 1.3l-.8.9c-.4-.4-.7-.6-1.1-.7-.3-.1-.7-.2-1.2-.2-.8 0-1.4.3-2 .8-.5.5-.8 1.1-.8 1.9 0 .8.3 1.4.8 2 .6.3 1.3.5 2 .5zm5.7 1.2h-1.2v-8.2h1.2v8.2zm3 0h-1.2V95h1.2v5.9zm-1.1-7c-.2-.2-.2-.3-.2-.6 0-.2.1-.4.2-.6.2-.2.3-.2.6-.2.2 0 .4.1.6.2.2.2.2.3.2.6 0 .2-.1.4-.2.6-.2.2-.3.2-.6.2s-.5-.1-.6-.2zm4.5.7v.4h1.6v1h-1.6v4.9h-1.2V96H45v-1h.7v-.5c0-.6.2-1.1.6-1.5.4-.4.8-.6 1.4-.6.5 0 1 .2 1.5.6l-.7 1c-.2-.3-.5-.4-.8-.4-.3 0-.5.1-.6.3-.2.2-.2.4-.2.7zm4.2 1.4v3c0 .3.1.5.2.7.1.2.4.2.6.2.3 0 .5-.1.8-.4l.5.9c-.4.4-.9.6-1.5.6-.5 0-1-.2-1.4-.5-.4-.4-.6-.9-.6-1.5v-3H49v-1h.7v-1.8h1.2V95h1.6v1h-1.4zm4.5 3.4c.4.4.8.5 1.3.5s1-.2 1.3-.5c.4-.4.5-.8.5-1.4 0-.6-.2-1-.5-1.4-.3-.4-.8-.5-1.3-.5s-1 .2-1.3.5c-.4.4-.6.8-.6 1.4 0 .5.2 1 .6 1.4zm3.5.7c-.6.6-1.3.9-2.2.9-.9 0-1.6-.3-2.2-.9-.6-.6-.9-1.3-.9-2.2 0-.8.3-1.6.9-2.1.6-.6 1.3-.9 2.2-.9.9 0 1.6.3 2.2.9.6.6.9 1.3.9 2.1 0 .9-.3 1.6-.9 2.2zm3.6-2.4v3.2h-1.2V95h1.2v1.1c.2-.4.5-.6.8-.8.4-.2.7-.3 1.1-.3.7 0 1.2.2 1.6.6.4.4.6 1 .6 1.8v3.6h-1.2v-3.2c0-1.1-.5-1.6-1.4-1.6-.4 0-.8.1-1.1.4-.3.2-.4.6-.4 1.1zm12-1.5c-.6 0-1.1.2-1.4.6-.3.4-.5.9-.5 1.6v2.5h-1.2V95h1.2v1.2c.2-.4.5-.7.8-.9.3-.2.7-.4 1.1-.4v1.3c.1 0 .1 0 0 0zm2.6 3.2c.4.4.8.5 1.3.5s1-.2 1.3-.5c.4-.4.5-.8.5-1.4 0-.6-.2-1-.5-1.4-.3-.4-.8-.5-1.3-.5s-1 .2-1.3.5c-.3.4-.5.8-.5 1.4 0 .5.2 1 .5 1.4zm3.6.7c-.6.6-1.3.9-2.2.9s-1.6-.3-2.2-.9c-.6-.6-.9-1.3-.9-2.2 0-.8.3-1.6.9-2.1.6-.6 1.3-.9 2.2-.9s1.6.3 2.2.9c.6.6.9 1.3.9 2.1 0 .9-.3 1.6-.9 2.2zm7.1.8h-1.1v-.8c-.5.6-1.1.9-2 .9-.6 0-1.1-.2-1.5-.5-.4-.3-.6-.8-.6-1.4 0-.6.2-1 .6-1.3.4-.3 1-.4 1.7-.4h1.6v-.2c0-.8-.4-1.2-1.3-1.2-.5 0-1.1.2-1.7.6l-.6-.8c.7-.6 1.5-.8 2.4-.8.7 0 1.3.2 1.7.5.4.3.7.9.7 1.6v3.8zm-1.3-2.2v-.5h-1.4c-.9 0-1.3.3-1.3.8 0 .3.1.5.3.7.2.1.5.2.9.2s.7-.1 1-.3c.4-.2.5-.5.5-.9zm5.4 2.3c-.7 0-1.4-.3-2-.8-.6-.6-.8-1.3-.8-2.2 0-.9.3-1.6.9-2.2.6-.5 1.2-.8 2-.8s1.4.3 1.9 1v-3.2h1.2v8.2h-1.2v-1c-.4.7-1.1 1-2 1zm-1.5-3c0 .6.2 1 .5 1.4.4.4.8.5 1.3.5s.9-.2 1.2-.5c.3-.4.5-.8.5-1.4 0-.6-.2-1-.5-1.4-.3-.4-.8-.6-1.3-.6s-.9.2-1.3.6c-.3.4-.4.8-.4 1.4zm6.4 2.2c0-.2.1-.4.2-.6.2-.2.4-.2.6-.2.2 0 .4.1.6.2.2.2.3.3.3.6s-.1.5-.3.8l-.7 1.1H97l.4-1.1c-.3-.2-.4-.5-.4-.8zm12.3-7h1.3v7.7h-1.4l-4.4-5.6v5.6h-1.3v-7.7h1.3l4.5 5.8v-5.8zm5.9 5.5l1.7-5.6h1.2l1.7 5.6 2-5.6h1.4l-2.7 7.7h-1.3l-1.6-5.3h-.1l-1.6 5.3h-1.3l-2.7-7.7h1.4l1.9 5.6zm8.4-5.5h2.8v7.7h-1.2v-6.6h-1.6v-1.1zm8.6.4c.5-.4 1.1-.6 1.9-.6.7 0 1.4.2 1.9.6.5.4.7.9.7 1.5s-.3 1.1-.8 1.6c.7.5 1.1 1.1 1.1 2 0 .7-.3 1.2-.8 1.7-.5.4-1.2.7-2.1.7s-1.6-.2-2.1-.7c-.5-.4-.8-1-.8-1.7 0-.9.4-1.5 1.1-2-.6-.5-.8-1-.8-1.6 0-.6.3-1.1.7-1.5zm.8 6c.3.2.7.3 1.1.3.4 0 .7-.1 1.1-.3.3-.2.5-.5.5-.9s-.2-.7-.5-.9c-.3-.2-.7-.3-1.1-.3-.4 0-.8.1-1.1.3-.3.2-.5.5-.5.9 0 .3.2.6.5.9zm.1-3.6c.3.2.6.3 1 .3s.7-.1 1-.3c.3-.2.4-.5.4-.8 0-.3-.1-.6-.4-.8-.3-.2-.6-.3-1-.3s-.7.1-1 .3c-.3.2-.4.5-.4.8 0 .3.1.6.4.8zm14.5-2.8h1.3v7.7h-1.4l-4.4-5.6v5.6h-1.3v-7.7h1.3l4.5 5.8v-5.8zm5.8 5.5l1.7-5.6h1.2l1.7 5.6 2-5.6h1.4l-2.7 7.7h-1.3l-1.6-5.3h-.1l-1.6 5.3h-1.3l-2.7-7.7h1.4l1.9 5.6zm8.9 1.5c0-.2.1-.4.2-.6.2-.2.4-.2.6-.2s.4.1.6.2c.2.2.3.3.3.6s-.1.5-.3.8l-.7 1.1h-.6l.4-1.1c-.3-.2-.5-.5-.5-.8zm6.5.7v-7.7h1.3v6.5h3.5v1.2h-4.8zm7.4-1.5c.4.4.8.5 1.3.5s1-.2 1.3-.5c.4-.4.5-.8.5-1.4 0-.6-.2-1-.5-1.4-.3-.4-.8-.5-1.3-.5s-1 .2-1.3.5c-.3.4-.5.8-.5 1.4 0 .5.2 1 .5 1.4zm3.6.7c-.6.6-1.3.9-2.2.9-.9 0-1.6-.3-2.2-.9-.6-.6-.9-1.3-.9-2.2 0-.8.3-1.6.9-2.1.6-.6 1.3-.9 2.2-.9.9 0 1.6.3 2.2.9.6.6.9 1.3.9 2.1-.1.9-.3 1.6-.9 2.2zm3.5-2.4v3.2h-1.2V95h1.2v1.1c.2-.4.5-.6.8-.8.4-.2.7-.3 1.1-.3.7 0 1.2.2 1.6.6.4.4.6 1 .6 1.8v3.6h-1.2v-3.2c0-1.1-.5-1.6-1.4-1.6-.4 0-.8.1-1.1.4-.2.2-.4.6-.4 1.1zm8.3 3.3c-.7 0-1.4-.3-2-.8-.6-.6-.8-1.3-.8-2.2 0-.9.3-1.6.9-2.2.6-.5 1.2-.8 2-.8s1.4.3 1.9 1v-3.2h1.2v8.2h-1.2v-1c-.4.7-1.1 1-2 1zm-1.5-3c0 .6.2 1 .5 1.4.4.4.8.5 1.3.5s.9-.2 1.2-.5c.3-.4.5-.8.5-1.4 0-.6-.2-1-.5-1.4-.3-.4-.8-.6-1.3-.6s-.9.2-1.3.6c-.2.4-.4.8-.4 1.4zm8 1.4c.4.4.8.5 1.3.5s1-.2 1.3-.5c.4-.4.5-.8.5-1.4 0-.6-.2-1-.5-1.4-.3-.4-.8-.5-1.3-.5s-1 .2-1.3.5c-.3.4-.5.8-.5 1.4-.1.5.1 1 .5 1.4zm3.5.7c-.6.6-1.3.9-2.2.9-.9 0-1.6-.3-2.2-.9-.6-.6-.9-1.3-.9-2.2 0-.8.3-1.6.9-2.1.6-.6 1.3-.9 2.2-.9.9 0 1.6.3 2.2.9.6.6.9 1.3.9 2.1 0 .9-.3 1.6-.9 2.2zm3.6-2.4v3.2H204V95h1.2v1.1c.2-.4.5-.6.8-.8.4-.2.7-.3 1.1-.3.7 0 1.2.2 1.6.6.4.4.6 1 .6 1.8v3.6h-1.2v-3.2c0-1.1-.5-1.6-1.4-1.6-.4 0-.8.1-1.1.4-.3.2-.4.6-.4 1.1zm5.7 2.5c0-.2.1-.4.2-.6.2-.2.4-.2.6-.2.2 0 .4.1.6.2.2.2.3.3.3.6s-.1.5-.3.8l-.7 1.1h-.6l.4-1.1c-.3-.2-.5-.5-.5-.8zm8.3-1.1c.4.4.8.6 1.4.6.6 0 1.1-.2 1.4-.6.4-.4.5-1 .5-1.7v-4.3h1.3v4.3c0 1.1-.3 2-.9 2.6-.6.6-1.4.9-2.4.9s-1.7-.3-2.4-.9c-.6-.6-.9-1.5-.9-2.6v-4.3h1.3v4.3c.1.8.3 1.3.7 1.7zm6.8-5.9h1.3V97l3.5-3.8h1.7l-3.1 3.4 3.2 4.3H231l-2.6-3.4-1.1 1.2v2.2H226v-7.7z"/>
        <path opacity=".44" fill="#FFF" enable-background="new" d="M22.6 82.6v1.6h2.6v.9h-2.6v2.4h-1v-5.8h3.9v.9h-2.9zm6.9 2.9v-2.4h.9v4.4h-.9v-.8c-.1.3-.4.5-.6.6-.3.2-.5.2-.8.2-.5 0-.9-.2-1.2-.5-.3-.3-.5-.7-.5-1.3V83h.9v2.4c0 .8.3 1.2 1 1.2.3 0 .6-.1.8-.3.3-.1.4-.4.4-.8zm3.2 2h-.9v-6.1h.9v6.1zm2.3 0h-.9v-6.1h.9v6.1zm7.3 0h-.8v-.6c-.4.4-.9.7-1.5.7-.5 0-.8-.1-1.1-.4-.3-.3-.4-.6-.4-1s.2-.8.5-1c.3-.2.8-.3 1.3-.3h1.2v-.2c0-.6-.3-.9-1-.9-.4 0-.8.1-1.3.4l-.4-.6c.5-.4 1.1-.6 1.8-.6.5 0 .9.1 1.3.4.3.3.5.7.5 1.2v2.9zm-1-1.6v-.4h-1c-.7 0-1 .2-1 .6 0 .2.1.4.2.5.2.1.4.2.7.2.3 0 .6-.1.8-.2.2-.2.3-.4.3-.7zm4.1 1.7c-.6 0-1-.2-1.5-.6s-.6-1-.6-1.7.2-1.2.6-1.6c.4-.4.9-.6 1.5-.6s1.1.2 1.4.7v-2.4h.9v6.1h-.9v-.7c-.3.5-.8.8-1.4.8zm-1.2-2.3c0 .4.1.8.4 1 .3.3.6.4 1 .4s.7-.1.9-.4c.3-.3.4-.6.4-1s-.1-.8-.4-1.1c-.3-.3-.6-.4-.9-.4-.4 0-.7.1-1 .4-.3.4-.4.7-.4 1.1zm6.7 2.3c-.6 0-1-.2-1.5-.6-.4-.4-.6-1-.6-1.7s.2-1.2.6-1.6c.4-.4.9-.6 1.5-.6s1.1.2 1.4.7v-2.4h.9v6.1h-.9v-.7c-.2.5-.7.8-1.4.8zm-1.1-2.3c0 .4.1.8.4 1 .3.3.6.4 1 .4s.7-.1.9-.4c.3-.3.4-.6.4-1s-.1-.8-.4-1.1c-.3-.3-.6-.4-.9-.4-.4 0-.7.1-1 .4-.3.4-.4.7-.4 1.1zm7.3-1.3c-.5 0-.8.1-1 .4-.2.3-.3.7-.3 1.2v1.9h-.9v-4.4h.9v.9c.1-.3.4-.5.6-.7.3-.2.5-.3.8-.3l-.1 1zm5.1 1.7h-3.5c0 .3.2.6.4.8.3.2.6.3.9.3.6 0 1-.2 1.3-.5l.5.6c-.5.5-1.1.7-1.9.7-.6 0-1.2-.2-1.6-.6-.4-.4-.6-1-.6-1.7s.2-1.2.7-1.7c.4-.4 1-.6 1.6-.6.6 0 1.1.2 1.5.5.4.4.6.9.6 1.5v.7zm-3.5-.7h2.5c0-.4-.1-.7-.3-.9-.2-.2-.5-.3-.9-.3-.3 0-.6.1-.9.3-.3.3-.4.5-.4.9zm7.6 1.2c0 .4-.2.8-.5 1-.3.2-.7.4-1.2.4-.3 0-.7-.1-1-.2-.3-.1-.6-.3-.9-.5l.4-.7c.5.4 1 .6 1.5.6.2 0 .4 0 .5-.1.1-.1.2-.2.2-.4s-.3-.4-.9-.6h-.1c-.8-.3-1.3-.7-1.3-1.3 0-.4.2-.7.5-1 .3-.2.7-.4 1.2-.4s1 .1 1.4.4l-.3.7c-.4-.2-.8-.4-1.2-.4-.2 0-.4 0-.5.1-.1.1-.2.2-.2.4 0 .1.1.2.2.3.1 0 .2.1.4.1s.3.1.5.1.3.1.4.1c.1.1.3.1.4.2.4.5.5.8.5 1.2zm4.2 0c0 .4-.2.8-.5 1-.3.2-.7.4-1.2.4-.3 0-.7-.1-1-.2-.3-.1-.6-.3-.9-.5l.4-.7c.5.4 1 .6 1.5.6.2 0 .4 0 .5-.1.1-.1.2-.2.2-.4s-.3-.4-.9-.6h-.1c-.9-.2-1.4-.7-1.4-1.2 0-.4.2-.7.5-1 .3-.2.7-.4 1.2-.4s1 .1 1.4.4l-.3.7c-.4-.2-.8-.4-1.2-.4-.2 0-.4 0-.5.1-.1.1-.2.2-.2.4 0 .1.1.2.2.3.1 0 .2.1.4.1s.3.1.5.1c.1 0 .3.1.4.1.1.1.3.1.4.2.5.4.6.7.6 1.1z"/>
        <path fill="#FFF" d="M21.1 131.4h2.8v7.7h-1.2v-6.6h-1.6v-1.1zm4.6 7c0-.2.1-.4.2-.6.2-.2.4-.2.6-.2s.4.1.6.2c.2.2.3.3.3.6 0 .2-.1.5-.3.8l-.7 1.1h-.6l.4-1.1c-.3-.2-.5-.5-.5-.8zm8.4-2.7c.5-.5.9-.9 1.1-1.2s.3-.6.3-.9c0-.3-.1-.6-.4-.8-.2-.2-.5-.3-.9-.3-.6 0-1.2.3-1.6 1l-1.1-.6c.3-.5.7-.9 1.1-1.1.4-.3.9-.4 1.6-.4.7 0 1.2.2 1.7.6.5.4.7 1 .7 1.7 0 .4-.1.8-.3 1.1-.2.4-.6.8-1.1 1.4l-1.8 1.8h3.5v1.2h-5.3V138l2.5-2.3zm4.4-3.1v-1.2H43v1l-1.9 2.1c.7 0 1.3.2 1.7.7.4.4.6.9.6 1.5 0 .8-.3 1.4-.8 1.9-.5.4-1.2.7-2.1.7-.8 0-1.7-.3-2.5-.8l.6-1c.6.4 1.3.7 2 .7.5 0 .8-.1 1.1-.3.3-.2.4-.5.4-.9s-.2-.7-.5-.9-.8-.4-1.4-.4c-.3 0-.6 0-.8.1v-1l1.8-2.1h-2.7zm8 .5c-.3.5-.5 1.2-.5 2.1s.2 1.6.5 2.1.8.8 1.4.8c.7 0 1.1-.3 1.4-.8.3-.5.5-1.2.5-2.1s-.2-1.6-.5-2.1-.8-.8-1.4-.8c-.7 0-1.1.3-1.4.8zm-1 5c-.5-.7-.8-1.7-.8-2.9s.3-2.2.8-2.9c.5-.7 1.3-1.1 2.4-1.1 1.1 0 1.8.4 2.4 1.1.5.7.8 1.7.8 2.9s-.3 2.2-.8 2.9c-.5.7-1.3 1.1-2.4 1.1-1.1 0-1.9-.4-2.4-1.1zm7.1.9c-.2-.2-.2-.4-.2-.6 0-.2.1-.4.2-.6.2-.2.4-.2.6-.2.2 0 .4.1.6.2.2.2.2.3.2.6 0 .2-.1.4-.2.6-.2.2-.4.2-.6.2-.3 0-.5-.1-.6-.2zm4.4-5.9c-.3.5-.5 1.2-.5 2.1s.2 1.6.5 2.1.8.8 1.4.8c.7 0 1.1-.3 1.4-.8.3-.5.5-1.2.5-2.1s-.2-1.6-.5-2.1-.8-.8-1.4-.8c-.6 0-1.1.3-1.4.8zm-1 5c-.5-.7-.8-1.7-.8-2.9s.3-2.2.8-2.9c.5-.7 1.3-1.1 2.4-1.1 1.1 0 1.8.4 2.4 1.1.5.7.8 1.7.8 2.9s-.3 2.2-.8 2.9c-.5.7-1.3 1.1-2.4 1.1-1.1 0-1.8-.4-2.4-1.1zm8.6-5c-.3.5-.5 1.2-.5 2.1s.2 1.6.5 2.1.8.8 1.4.8c.7 0 1.1-.3 1.4-.8.3-.5.5-1.2.5-2.1s-.2-1.6-.5-2.1-.8-.8-1.4-.8c-.6 0-1.1.3-1.4.8zm-.9 5c-.5-.7-.8-1.7-.8-2.9s.3-2.2.8-2.9c.5-.7 1.3-1.1 2.4-1.1 1.1 0 1.8.4 2.4 1.1.5.7.8 1.7.8 2.9s-.3 2.2-.8 2.9c-.5.7-1.3 1.1-2.4 1.1-1.1 0-1.9-.4-2.4-1.1z"/>
        <path opacity=".44" fill="#FFF" enable-background="new" d="M22.4 124.4l-.6 1.3h-1l2.6-5.8h1l2.6 5.8h-1l-.6-1.3h-3zm2.5-.9l-1.1-2.4-1.1 2.4h2.2zm5.8.9c0 .4-.2.8-.5 1-.3.2-.7.4-1.2.4-.3 0-.7-.1-1-.2-.3-.1-.6-.3-.9-.5l.4-.7c.5.4 1 .6 1.5.6.2 0 .4 0 .5-.1.1-.1.2-.2.2-.4s-.3-.4-.9-.6h-.1c-.9-.2-1.4-.7-1.4-1.2 0-.4.2-.7.5-1 .3-.2.7-.4 1.2-.4s1 .1 1.4.4l-.3.7c-.4-.2-.8-.4-1.2-.4-.2 0-.4 0-.5.1-.1.1-.2.2-.2.4 0 .1.1.2.2.3.1 0 .2.1.4.1s.3.1.5.1c.1 0 .3.1.4.1.1.1.3.1.4.2.5.4.6.7.6 1.1zm2 1.3h-.9v-6.1h.9v3.6l1.8-1.9h1.2L34 123l1.8 2.7h-1.1l-1.3-1.9-.7.7v1.2zm4.9 0h-.9v-4.4h.9v4.4zm-.9-5.3c-.1-.1-.2-.3-.2-.4 0-.2.1-.3.2-.4.1-.1.3-.2.4-.2s.3.1.4.2.2.3.2.4c0 .2-.1.3-.2.4-.1.1-.3.2-.4.2s-.3 0-.4-.2zm3.2 2.9v2.4H39v-4.4h.9v.8c.1-.3.4-.5.6-.6.3-.2.6-.2.9-.2.5 0 .9.2 1.2.5.3.3.5.7.5 1.3v2.7h-.9v-2.4c0-.8-.3-1.2-1-1.2-.3 0-.6.1-.8.3-.4.1-.5.4-.5.8zm8.5-2v3.8c0 .8-.2 1.4-.6 1.7-.4.4-1 .6-1.6.6-.7 0-1.3-.2-1.8-.6l.4-.7c.4.3.9.5 1.3.5s.8-.1 1-.3c.3-.2.4-.6.4-1.1v-.6c-.1.3-.3.5-.6.6-.3.2-.5.2-.9.2-.6 0-1.1-.2-1.4-.6-.4-.4-.6-.9-.6-1.5s.2-1.1.6-1.5c.4-.4.9-.6 1.4-.6.6 0 1.1.2 1.4.7v-.7h1zm-3.5 2c0 .4.1.7.3.9.2.3.5.4.9.4s.7-.1.9-.4c.2-.3.4-.6.4-.9 0-.4-.1-.7-.4-1-.2-.3-.5-.4-.9-.4s-.7.1-.9.4c-.1.4-.3.7-.3 1zm9.5-2.1c.6 0 1.1.2 1.5.6.4.4.6 1 .6 1.6 0 .7-.2 1.2-.6 1.7-.4.4-.9.6-1.5.6s-1.1-.2-1.5-.7v2.3H52v-6h1v.8c.3-.6.8-.9 1.4-.9zm-1.5 2.3c0 .4.1.8.4 1 .3.3.6.4.9.4.4 0 .7-.1 1-.4.3-.3.4-.6.4-1s-.1-.8-.4-1.1c-.3-.3-.6-.4-1-.4s-.7.1-.9.4c-.2.4-.4.7-.4 1.1zm7-1.3c-.5 0-.8.1-1 .4-.2.3-.3.7-.3 1.2v1.9h-.9v-4.4h.9v.9c.1-.3.4-.5.6-.7.3-.2.5-.3.8-.3l-.1 1c.1 0 .1 0 0 0zm2 3.5H61v-4.4h.9v4.4zm-.9-5.3c-.1-.1-.2-.3-.2-.4 0-.2.1-.3.2-.4.1-.1.3-.2.4-.2.2 0 .3.1.4.2s.2.3.2.4c0 .2-.1.3-.2.4-.1.1-.3.2-.4.2-.2 0-.3 0-.4-.2zm4.2 5.4c-.6 0-1.1-.2-1.6-.6-.4-.4-.7-1-.7-1.6 0-.7.2-1.2.7-1.6.5-.4 1-.6 1.7-.6s1.2.2 1.7.7l-.5.7c-.4-.3-.8-.5-1.2-.5s-.7.1-1 .4c-.3.3-.4.6-.4 1s.1.7.4 1c.3.3.6.4 1 .4s.8-.2 1.2-.6l.5.5c-.5.5-1.1.8-1.8.8zm6.9-1.9h-3.5c0 .3.2.6.4.8.3.2.6.3.9.3.6 0 1-.2 1.3-.5l.5.6c-.5.5-1.1.7-1.9.7-.6 0-1.2-.2-1.6-.6-.4-.4-.6-1-.6-1.7s.2-1.2.7-1.7 1-.6 1.6-.6c.6 0 1.1.2 1.5.5.4.4.6.9.6 1.5v.7zm-3.5-.7h2.5c0-.4-.1-.7-.3-.9-.2-.2-.5-.3-.9-.3-.3 0-.6.1-.9.3-.2.3-.4.5-.4.9z"/>
        <path fill="#FFF" d="M21.6 168.7v-1.2h4.5v1l-1.9 2.1c.7 0 1.3.2 1.7.7.4.4.6.9.6 1.5 0 .8-.3 1.4-.8 1.9-.5.4-1.2.7-2.1.7-.8 0-1.7-.3-2.5-.8l.6-1c.6.4 1.3.7 2 .7.5 0 .8-.1 1.1-.3.3-.2.4-.5.4-.9s-.2-.7-.5-.9c-.3-.2-.8-.4-1.4-.4-.3 0-.6 0-.8.1v-1l1.8-2.1h-2.7zm13.1 6.5h-3.4v-7.7h3c.5 0 1 .1 1.4.2.4.1.7.3.9.5.4.4.5.8.5 1.3 0 .6-.2 1.1-.6 1.3-.1.1-.2.2-.3.2-.1 0-.1.1-.3.1.5.1.9.3 1.1.7.3.3.4.7.4 1.2s-.2 1-.6 1.4c-.3.6-1.1.8-2.1.8zm-2.1-4.5h1.7c.9 0 1.4-.3 1.4-1 0-.4-.1-.6-.3-.8-.2-.2-.6-.2-1.1-.2h-1.7v2zm0 3.3h2.1c.5 0 .8-.1 1.1-.2.3-.2.4-.4.4-.9 0-.7-.6-1-1.7-1h-1.9v2.1zm11.8-1.2h-4.6c0 .4.2.8.6 1 .4.3.8.4 1.2.4.7 0 1.3-.2 1.7-.7l.7.8c-.6.7-1.5 1-2.5 1-.8 0-1.5-.3-2.1-.8-.6-.6-.9-1.3-.9-2.2 0-.9.3-1.7.9-2.2.6-.5 1.3-.8 2.1-.8s1.5.2 2.1.7c.6.5.8 1.1.8 2v.8zm-4.6-.9h3.4c0-.5-.2-.9-.5-1.1-.3-.3-.7-.4-1.2-.4s-.9.1-1.2.4c-.3.2-.5.6-.5 1.1zm8.4 3.4c-.7 0-1.4-.3-2-.8-.6-.6-.8-1.3-.8-2.2 0-.9.3-1.6.9-2.2.6-.5 1.2-.8 2-.8s1.4.3 1.9 1v-3.2h1.2v8.2h-1.2v-.9c-.5.6-1.1.9-2 .9zm-1.5-3c0 .6.2 1 .5 1.4.4.4.8.5 1.3.5s.9-.2 1.2-.5c.3-.4.5-.8.5-1.4 0-.6-.2-1-.5-1.4-.3-.4-.8-.6-1.3-.6s-.9.2-1.3.6c-.3.4-.4.9-.4 1.4zm9.6-1.8c-.6 0-1.1.2-1.4.6s-.5.9-.5 1.6v2.5h-1.2v-5.9h1.2v1.2c.2-.4.5-.7.8-.9.3-.2.7-.4 1.1-.4v1.3c.1 0 .1 0 0 0zm2.6 3.2c.4.4.8.5 1.3.5s1-.2 1.3-.5c.4-.4.5-.8.5-1.4 0-.6-.2-1-.5-1.4-.3-.4-.8-.5-1.3-.5s-1 .2-1.3.5c-.3.4-.5.8-.5 1.4 0 .6.2 1 .5 1.4zm3.6.8c-.6.6-1.3.9-2.2.9-.9 0-1.6-.3-2.2-.9-.6-.6-.9-1.3-.9-2.2 0-.8.3-1.6.9-2.1.6-.6 1.3-.9 2.2-.9.9 0 1.6.3 2.2.9.6.6.9 1.3.9 2.1s-.3 1.6-.9 2.2zm3.7-.8c.4.4.8.5 1.3.5s1-.2 1.3-.5c.4-.4.5-.8.5-1.4 0-.6-.2-1-.5-1.4-.3-.4-.8-.5-1.3-.5s-1 .2-1.3.5c-.3.4-.5.8-.5 1.4-.1.6.1 1 .5 1.4zm3.5.8c-.6.6-1.3.9-2.2.9s-1.6-.3-2.2-.9c-.6-.6-.9-1.3-.9-2.2 0-.8.3-1.6.9-2.1.6-.6 1.3-.9 2.2-.9s1.6.3 2.2.9c.6.6.9 1.3.9 2.1s-.3 1.6-.9 2.2zm3.6-2.4v3.2H72v-5.9h1.2v1.1c.2-.4.4-.6.8-.8.4-.2.8-.3 1.2-.3.9 0 1.6.4 1.9 1.1.6-.8 1.3-1.1 2.2-1.1.7 0 1.2.2 1.6.6.4.4.6 1 .6 1.8v3.6h-1.2V172c0-1.1-.5-1.6-1.4-1.6-.4 0-.8.1-1.1.4-.3.3-.5.7-.5 1.2v3.3h-1.2V172c0-.6-.1-1-.3-1.2-.2-.3-.5-.4-.9-.4s-.8.1-1.1.4c-.4.3-.5.7-.5 1.3zm14.2 1.4c0 .6-.2 1-.6 1.3-.4.3-.9.5-1.6.5-.4 0-.9-.1-1.3-.2-.5-.2-.9-.4-1.2-.7l.6-1c.7.5 1.4.8 2 .8.3 0 .5-.1.7-.2.2-.1.2-.3.2-.5 0-.3-.4-.6-1.2-.8H85c-1.2-.3-1.8-.9-1.8-1.7 0-.5.2-1 .6-1.3.4-.3 1-.5 1.7-.5s1.3.2 1.9.6l-.5.9c-.5-.3-1-.5-1.6-.5-.3 0-.5.1-.7.2-.2.1-.3.3-.3.5s.1.3.3.4c.1.1.3.1.6.2.2.1.5.1.6.2.2.1.4.1.5.2l.6.3c.4.3.6.7.6 1.3z"/>
        <path opacity=".44" fill="#FFF" enable-background="new" d="M24.1 161.8h-2.5V156h2.3c.4 0 .7 0 1 .1.3.1.5.2.6.4.3.3.4.6.4 1 0 .5-.1.8-.4 1-.1.1-.2.1-.2.1s-.1 0-.2.1c.4.1.6.2.9.5.2.2.3.5.3.9s-.1.8-.4 1.1c-.4.5-1 .6-1.8.6zm-1.6-3.3h1.2c.7 0 1.1-.2 1.1-.7 0-.3-.1-.5-.3-.6s-.4-.2-.8-.2h-1.3v1.5zm0 2.4H24c.4 0 .6-.1.8-.2.2-.1.3-.3.3-.6 0-.5-.4-.8-1.2-.8h-1.4v1.6zm8.9-.9h-3.5c0 .3.2.6.4.8.3.2.6.3.9.3.6 0 1-.2 1.3-.5l.5.6c-.5.5-1.1.7-1.9.7-.6 0-1.2-.2-1.6-.6-.4-.4-.6-1-.6-1.7s.2-1.2.7-1.7c.4-.4 1-.6 1.6-.6.6 0 1.1.2 1.5.5.4.4.6.9.6 1.5v.7zm-3.5-.7h2.5c0-.4-.1-.7-.3-.9-.2-.2-.5-.3-.9-.3-.3 0-.6.1-.9.3-.2.3-.4.6-.4.9zm6.3 2.6c-.6 0-1-.2-1.5-.6-.4-.4-.6-1-.6-1.7s.2-1.2.6-1.6c.4-.4.9-.6 1.5-.6s1.1.2 1.4.7v-2.4h.9v6.1h-.9v-.7c-.2.6-.7.8-1.4.8zm-1.1-2.2c0 .4.1.8.4 1s.6.4 1 .4.7-.1.9-.4c.3-.3.4-.6.4-1s-.1-.8-.4-1.1c-.3-.3-.6-.4-.9-.4-.4 0-.7.1-1 .4-.3.3-.4.6-.4 1.1zm7.2-1.4c-.5 0-.8.1-1 .4-.2.3-.3.7-.3 1.2v1.9h-1v-4.4h1v.9c.1-.3.4-.5.6-.7.3-.2.5-.3.8-.3l-.1 1c.1 0 .1 0 0 0zm2 2.4c.3.3.6.4 1 .4s.7-.1 1-.4c.3-.3.4-.6.4-1s-.1-.8-.4-1c-.3-.3-.6-.4-1-.4s-.7.1-1 .4c-.3.3-.4.6-.4 1s.1.7.4 1zm2.7.6c-.4.4-1 .7-1.7.7s-1.2-.2-1.7-.7c-.4-.4-.7-1-.7-1.6s.2-1.2.7-1.6c.4-.4 1-.7 1.7-.7s1.2.2 1.7.7c.4.4.7 1 .7 1.6s-.3 1.1-.7 1.6zm2.7-.6c.3.3.6.4 1 .4s.7-.1 1-.4c.3-.3.4-.6.4-1s-.1-.8-.4-1c-.3-.3-.6-.4-1-.4s-.7.1-1 .4c-.3.3-.4.6-.4 1s.2.7.4 1zm2.7.6c-.4.4-1 .7-1.7.7s-1.2-.2-1.7-.7c-.4-.4-.7-1-.7-1.6s.2-1.2.7-1.6c.4-.4 1-.7 1.7-.7s1.2.2 1.7.7c.4.4.7 1 .7 1.6s-.3 1.1-.7 1.6zm2.6-1.8v2.4h-.9v-4.4h.9v.8c.1-.3.3-.5.6-.6.3-.2.6-.2.9-.2.7 0 1.2.3 1.4.9.4-.6 1-.9 1.6-.9.5 0 .9.2 1.2.5.3.3.5.7.5 1.3v2.7h-.9v-2.4c0-.8-.3-1.2-1-1.2-.3 0-.6.1-.8.3-.2.2-.4.5-.4.9v2.4h-.9v-2.4c0-.4-.1-.7-.2-.9-.1-.2-.4-.3-.7-.3s-.6.1-.8.3c-.3 0-.5.4-.5.8zm10.7 1c0 .4-.2.8-.5 1-.3.2-.7.4-1.2.4-.3 0-.7-.1-1-.2-.3-.1-.6-.3-.9-.5l.4-.7c.5.4 1 .6 1.5.6.2 0 .4 0 .5-.1.1-.1.2-.2.2-.4s-.3-.4-.9-.6h-.1c-.9-.2-1.4-.7-1.4-1.2 0-.4.2-.7.5-1 .3-.2.7-.4 1.2-.4s1 .1 1.4.4l-.3.7c-.4-.2-.8-.4-1.2-.4-.2 0-.4 0-.5.1-.1.1-.2.2-.2.4 0 .1.1.2.2.3.1 0 .2.1.4.1s.3.1.5.1c.1 0 .3.1.4.1.1.1.3.1.4.2.4.4.6.7.6 1.1z"/>
        <path fill="#FFF" d="M148.9 167.5v1.2h-4.1v2h3.7v1.2h-3.7v2.1h4.3v1.2h-5.6v-7.7h5.4zm2.9 4.6v3.2h-1.2v-5.9h1.2v1.1c.2-.4.5-.6.8-.8.4-.2.7-.3 1.1-.3.7 0 1.2.2 1.6.6.4.4.6 1 .6 1.8v3.6h-1.2V172c0-1.1-.5-1.6-1.4-1.6-.4 0-.8.1-1.1.4-.2.3-.4.7-.4 1.3zm7.4-1.7v3c0 .3.1.5.2.7.1.2.4.2.6.2.3 0 .5-.1.8-.4l.5.9c-.4.4-.9.6-1.5.6-.5 0-1-.2-1.4-.5-.4-.4-.6-.9-.6-1.5v-2.9h-.7v-1h.7v-1.8h1.2v1.8h1.6v1h-1.4zm4.3 4.8h-1.2v-5.9h1.2v5.9zm-1.1-7c-.2-.2-.2-.3-.2-.6 0-.2.1-.4.2-.6s.3-.2.6-.2c.2 0 .4.1.6.2.2.2.2.3.2.6 0 .2-.1.4-.2.6-.2.2-.3.2-.6.2s-.5 0-.6-.2zm6 2.3c-.6 0-1.1.2-1.4.6s-.5.9-.5 1.6v2.5h-1.2v-5.9h1.2v1.2c.2-.4.5-.7.8-.9.3-.2.7-.4 1.1-.4v1.3c.1 0 .1 0 0 0zm6.8 2.3h-4.6c0 .4.2.8.6 1 .4.3.8.4 1.2.4.7 0 1.3-.2 1.7-.7l.7.8c-.6.7-1.5 1-2.5 1-.8 0-1.5-.3-2.1-.8-.6-.6-.9-1.3-.9-2.2 0-.9.3-1.7.9-2.2.6-.5 1.3-.8 2.1-.8s1.5.2 2.1.7c.6.5.8 1.1.8 2v.8zm-4.6-.9h3.4c0-.5-.2-.9-.5-1.1-.3-.3-.7-.4-1.2-.4s-.9.1-1.2.4c-.3.2-.5.6-.5 1.1zm10.6-3v.5h1.6v1h-1.6v4.9H180v-4.9h-.7v-1h.7v-.5c0-.6.2-1.1.6-1.5.4-.4.8-.6 1.4-.6.5 0 1 .2 1.5.6l-.5.9c-.2-.3-.5-.4-.8-.4-.3 0-.5.1-.6.3-.3.2-.4.4-.4.7zm4 6.3H184V167h1.2v8.2zm6.6 0h-1.1v-.8c-.5.6-1.1.9-2 .9-.6 0-1.1-.2-1.5-.5-.4-.3-.6-.8-.6-1.4 0-.6.2-1 .6-1.3.4-.3 1-.4 1.7-.4h1.6v-.2c0-.8-.4-1.2-1.3-1.2-.5 0-1.1.2-1.7.6l-.6-.8c.7-.6 1.5-.8 2.4-.8.7 0 1.3.2 1.7.5.4.3.7.9.7 1.6v3.8zm-1.3-2.1v-.5h-1.4c-.9 0-1.3.3-1.3.8 0 .3.1.5.3.7.2.1.5.2.9.2s.7-.1 1-.3c.4-.3.5-.6.5-.9zm4.5-2.7v3c0 .3.1.5.2.7.1.2.4.2.6.2.3 0 .5-.1.8-.4l.5.9c-.4.4-.9.6-1.5.6-.5 0-1-.2-1.4-.5-.4-.4-.6-.9-.6-1.5v-2.9h-.6v-1h.7v-1.8h1.2v1.8h1.6v1H195z"/>
        <path opacity=".44" fill="#FFF" enable-background="new" d="M145.4 157v4.9h-1V157h-1.8v-.9h4.5v.9h-1.7zm2.7 6.6c-.4 0-.8-.1-1.1-.4l.4-.8c.2.2.4.3.6.3.2 0 .4-.1.5-.2.1-.1.2-.3.2-.5 0-.1-.6-1.6-1.8-4.5h1l1.3 3.2 1.3-3.2h1l-2.1 5.2c-.1.3-.3.5-.5.7-.3.1-.5.2-.8.2zm6.6-6.2c.6 0 1.1.2 1.5.6.4.4.6 1 .6 1.6s-.2 1.2-.6 1.7c-.4.4-.9.6-1.5.6s-1.1-.2-1.5-.7v2.3h-.9v-6h.9v.8c.4-.6.9-.9 1.5-.9zm-1.5 2.3c0 .4.1.8.4 1 .3.3.6.4.9.4.4 0 .7-.1 1-.4s.4-.6.4-1-.1-.8-.4-1.1c-.3-.3-.6-.4-1-.4s-.7.1-.9.4c-.2.3-.4.6-.4 1.1zm8.8.3h-3.5c0 .3.2.6.4.8.3.2.6.3.9.3.6 0 1-.2 1.3-.5l.5.6c-.5.5-1.1.7-1.9.7-.6 0-1.2-.2-1.6-.6-.4-.4-.6-1-.6-1.7s.2-1.2.7-1.7c.4-.4 1-.6 1.6-.6.6 0 1.1.2 1.5.5.4.4.6.9.6 1.5v.7zm-3.5-.7h2.5c0-.4-.1-.7-.3-.9-.2-.2-.5-.3-.9-.3-.3 0-.6.1-.9.3-.2.3-.4.6-.4.9z"/>
        <path opacity=".6" fill="#FFF" enable-background="new" d="M96.9 210.2c-.3 0-.6.1-.8.2-.2.1-.3.3-.3.6s.1.5.3.6c.2.1.7.3 1.4.5s1.2.4 1.6.7c.4.3.5.7.5 1.3 0 .6-.2 1.1-.7 1.4-.4.4-1 .6-1.8.6-1.1 0-2-.4-2.8-1.1l.7-.9c.7.6 1.4.9 2.1.9.4 0 .7-.1.9-.2.2-.2.3-.4.3-.6 0-.3-.1-.5-.3-.6-.2-.1-.6-.3-1-.4-.5-.1-.9-.2-1.1-.3-.3-.1-.5-.2-.7-.4-.4-.3-.6-.8-.6-1.4 0-.6.2-1.1.7-1.4.5-.3 1-.5 1.7-.5.4 0 .9.1 1.3.2s.8.3 1.1.6l-.6.9c-.2-.2-.5-.3-.8-.4-.4-.2-.7-.3-1.1-.3zm4.1 5.9v-6.7h1.1v2.9h3.4v-2.9h1.1v6.7h-1.1v-2.8h-3.4v2.8H101zm12.4-5.1c-.5-.5-1-.7-1.7-.7s-1.2.2-1.7.7c-.5.5-.7 1.1-.7 1.7 0 .7.2 1.3.7 1.7.5.5 1 .7 1.7.7s1.2-.2 1.7-.7c.5-.5.7-1.1.7-1.7 0-.7-.3-1.3-.7-1.7zm.8 4.2c-.7.7-1.5 1-2.5 1s-1.9-.3-2.5-1c-.7-.7-1-1.5-1-2.5s.3-1.8 1-2.5 1.5-1 2.5-1 1.9.3 2.5 1c.7.7 1 1.5 1 2.5s-.3 1.8-1 2.5zm4.5-1l1.5-4.9h1l1.5 4.9 1.7-4.9h1.2l-2.4 6.7h-1.1l-1.4-4.6h-.1l-1.4 4.6h-1.1l-2.4-6.7h1.2l1.8 4.9zm11.9 1.9h-1.1v-6.7h1.8l2 4.2 2-4.2h1.8v6.7H136v-5.3l-2.4 4.7h-.6l-2.4-4.7v5.3zm13.2-5.1c-.5-.5-1-.7-1.7-.7s-1.2.2-1.7.7c-.5.5-.7 1.1-.7 1.7 0 .7.2 1.3.7 1.7.5.5 1 .7 1.7.7s1.2-.2 1.7-.7c.5-.5.7-1.1.7-1.7 0-.7-.2-1.3-.7-1.7zm.9 4.2c-.7.7-1.5 1-2.5 1s-1.9-.3-2.5-1c-.7-.7-1-1.5-1-2.5s.3-1.8 1-2.5 1.5-1 2.5-1 1.9.3 2.5 1c.7.7 1 1.5 1 2.5s-.3 1.8-1 2.5zm7.9-3.6c0 1.1-.5 1.8-1.5 2.1l1.8 2.5h-1.5l-1.6-2.3h-1.5v2.3h-1.1v-6.7h2.5c1 0 1.8.2 2.2.5.5.2.7.8.7 1.6zm-2.9 1.2c.6 0 1.1-.1 1.3-.3.2-.2.3-.5.3-1 0-.4-.1-.7-.4-.9-.2-.2-.7-.3-1.3-.3h-1.5v2.4h1.6zm9.3-3.4v1.1h-3.6v1.8h3.3v1h-3.3v1.8h3.7v1.1h-4.9v-6.7h4.8z"/>
        <path fill="#FFF" d="M159.2 133.9c0 1.3-.6 2.1-1.7 2.4l2 2.8h-1.7l-1.9-2.6h-1.7v2.6H153v-7.7h2.9c1.2 0 2 .2 2.5.6.5.4.8 1 .8 1.9zm-3.3 1.4c.7 0 1.2-.1 1.5-.3.3-.2.4-.6.4-1.1 0-.5-.1-.9-.4-1-.3-.2-.8-.3-1.5-.3h-1.7v2.8h1.7zm10.5 1.4h-4.6c0 .4.2.8.6 1 .4.3.8.4 1.2.4.7 0 1.3-.2 1.7-.7l.7.8c-.6.7-1.5 1-2.5 1-.8 0-1.5-.3-2.1-.8-.6-.6-.9-1.3-.9-2.2 0-.9.3-1.7.9-2.2.6-.5 1.3-.8 2.1-.8s1.5.2 2.1.7c.6.5.8 1.1.8 2v.8zm-4.6-1h3.4c0-.5-.2-.9-.5-1.1-.3-.3-.7-.4-1.2-.4s-.9.1-1.2.4c-.4.3-.5.7-.5 1.1zm7.2.2v3.2h-1.2v-5.9h1.2v1.1c.2-.4.5-.6.8-.8.4-.2.7-.3 1.1-.3.7 0 1.2.2 1.6.6.4.4.6 1 .6 1.8v3.6H172V136c0-1.1-.5-1.6-1.4-1.6-.4 0-.8.1-1.1.4-.3.2-.5.6-.5 1.1zm7.4-1.7v3c0 .3.1.5.2.7.1.2.4.2.6.2s.5-.1.8-.4l.5.9c-.4.4-.9.6-1.5.6-.5 0-1-.2-1.4-.5-.4-.4-.6-.9-.6-1.5v-2.9h-.7v-1h.7v-1.8h1.2v1.8h1.6v1h-1.4zm8.6 2.5h-4.6c0 .4.2.8.6 1 .4.3.8.4 1.2.4.7 0 1.3-.2 1.7-.7l.7.8c-.6.7-1.5 1-2.5 1-.8 0-1.5-.3-2.1-.8-.6-.6-.9-1.3-.9-2.2 0-.9.3-1.7.9-2.2.6-.5 1.3-.8 2.1-.8s1.5.2 2.1.7c.6.5.8 1.1.8 2v.8zm-4.6-1h3.4c0-.5-.2-.9-.5-1.1-.3-.3-.7-.4-1.2-.4s-.9.1-1.2.4c-.4.3-.5.7-.5 1.1zm8.4 3.5c-.7 0-1.4-.3-2-.8-.6-.6-.8-1.3-.8-2.2s.3-1.6.9-2.2c.6-.5 1.2-.8 2-.8s1.4.3 1.9 1V131h1.2v8.2h-1.2v-.9c-.5.6-1.2.9-2 .9zm-1.6-3c0 .6.2 1 .5 1.4.4.4.8.5 1.3.5s.9-.2 1.2-.5c.3-.4.5-.8.5-1.4s-.2-1-.5-1.4c-.3-.4-.8-.6-1.3-.6s-.9.2-1.3.6c-.2.4-.4.8-.4 1.4z"/>
        <ellipse fill="#81C53E" cx="146.2" cy="135.4" rx="3.8" ry="3.7"/>
        <path fill="#FFF" d="M226.9 36.9v1.3h-4.4v2.2h3.9v1.2h-3.9v2.2h4.5v1.3h-5.9v-8.2h5.8zm4.1 8.3c-.8 0-1.5-.3-2.1-.9-.6-.6-.9-1.4-.9-2.3 0-1 .3-1.7.9-2.3.6-.6 1.3-.9 2.2-.9.8 0 1.5.4 2 1.1v-3.4h1.3v8.7h-1.3v-.9c-.5.6-1.2.9-2.1.9zm-1.7-3.2c0 .6.2 1.1.6 1.5.4.4.8.6 1.4.6.5 0 1-.2 1.3-.6.4-.4.5-.9.5-1.5s-.2-1.1-.5-1.5c-.4-.4-.8-.6-1.3-.6s-1 .2-1.4.6c-.4.4-.6.9-.6 1.5zm8.1 3.1H236v-6.2h1.3v6.2zm-1.3-7.5c-.2-.2-.2-.4-.2-.6 0-.2.1-.4.2-.6.2-.2.4-.2.6-.2.2 0 .4.1.6.2s.2.4.2.6c0 .2-.1.4-.2.6s-.4.2-.6.2c-.2.1-.4 0-.6-.2zm4.5 2.3v3.2c0 .3.1.5.2.7.2.2.4.3.7.3.3 0 .6-.1.8-.4l.5.9c-.5.4-1 .6-1.5.6-.6 0-1-.2-1.4-.6-.4-.4-.6-.9-.6-1.6v-3.1h-.8v-1.1h.8v-2h1.3v2h1.7v1.1h-1.7z"/>
        <path opacity=".2" fill="none" stroke="#FFF" enable-background="new" d="M0 60.8h260"/>
        <path opacity=".44" fill="#FFF" enable-background="new" d="M144.1 120.7c-.3 0-.5.1-.7.2s-.3.3-.3.5.1.4.3.5c.2.1.6.3 1.2.4.6.1 1 .3 1.3.6.3.3.5.6.5 1.2 0 .5-.2.9-.6 1.2s-.9.5-1.5.5c-.9 0-1.7-.3-2.4-.9l.6-.7c.6.5 1.2.8 1.8.8.3 0 .6-.1.7-.2.2-.1.3-.3.3-.5s-.1-.4-.3-.5c-.2-.1-.5-.2-.9-.3-.4-.1-.8-.2-1-.3l-.6-.3c-.3-.3-.5-.7-.5-1.2s.2-.9.6-1.2c.4-.3.9-.4 1.5-.4.4 0 .7.1 1.1.2.4.1.7.3.9.5l-.5.7c-.2-.2-.4-.3-.7-.4-.2-.4-.5-.4-.8-.4zm4.4 1.4v2.2c0 .2.1.4.2.5.1.1.3.2.5.2s.4-.1.6-.3l.4.7c-.3.3-.7.4-1.1.4-.4 0-.7-.1-1-.4-.3-.3-.4-.6-.4-1.1v-2.2h-.7v-.7h.6V120h.9v1.4h1.2v.7h-1.2zm5.9 3.6h-.8v-.6c-.4.4-.9.7-1.5.7-.5 0-.8-.1-1.1-.4-.3-.3-.4-.6-.4-1s.2-.8.5-1c.3-.2.8-.3 1.3-.3h1.2v-.2c0-.6-.3-.9-1-.9-.4 0-.8.1-1.3.4l-.4-.6c.5-.4 1.1-.6 1.8-.6.5 0 .9.1 1.3.4.3.3.5.7.5 1.2v2.9zm-.9-1.6v-.4h-1c-.7 0-1 .2-1 .6 0 .2.1.4.2.5.2.1.4.2.7.2.3 0 .6-.1.8-.2.2-.2.3-.4.3-.7zm3.3-2v2.2c0 .2.1.4.2.5.1.1.3.2.5.2s.4-.1.6-.3l.4.7c-.3.3-.7.4-1.1.4-.4 0-.7-.1-1-.4-.3-.3-.4-.6-.4-1.1v-2.2h-.6v-.7h.6V120h.9v1.4h1.2v.7h-1.3zm5.4 1.6v-2.4h.9v4.4h-.9v-.8c-.1.3-.4.5-.6.6-.3.2-.5.2-.8.2-.5 0-.9-.2-1.2-.5-.3-.3-.5-.7-.5-1.3v-2.7h.9v2.4c0 .8.3 1.2 1 1.2.3 0 .6-.1.8-.3.3-.1.4-.4.4-.8zm5.5.7c0 .4-.2.8-.5 1-.3.2-.7.4-1.2.4-.3 0-.7-.1-1-.2-.3-.1-.6-.3-.9-.5l.4-.7c.5.4 1 .6 1.5.6.2 0 .4 0 .5-.1.1-.1.2-.2.2-.4s-.3-.4-.9-.6h-.1c-.9-.2-1.4-.7-1.4-1.2 0-.4.2-.7.5-1 .3-.2.7-.4 1.2-.4s1 .1 1.4.4l-.3.7c-.4-.2-.8-.4-1.2-.4-.2 0-.4 0-.5.1-.1.1-.2.2-.2.4 0 .1.1.2.2.3.1 0 .2.1.4.1s.3.1.5.1c.1 0 .3.1.4.1.1.1.3.1.4.2.4.4.6.7.6 1.1z"/>
        <path opacity=".2" fill="none" stroke="#FFF" enable-background="new" d="M0 193.7h260"/>
    </g>
</svg>
