<svg xmlns="http://www.w3.org/2000/svg" viewBox="0 0 260 460">
    <path fill="#FFF" d="M0 0h260v460H0z"/>
    <path fill-opacity=".01" d="M0 13.8v13.8h260V13.8H0z"/>
    <path fill="#FFF" d="M253.9 17.2h-16.2c-.7 0-1.3.5-1.3 1.2v5.2c0 .7.6 1.2 1.3 1.2h16.2c.7 0 1.3-.5 1.3-1.2v-5.2c-.1-.6-.6-1.2-1.3-1.2zm-17.1 1.2c0-.4.4-.8.8-.8h16.2c.5 0 .8.4.8.8v5.2c0 .4-.4.8-.8.8h-16.2c-.5 0-.8-.4-.8-.8v-5.2z"/>
    <path fill="#FFF" d="M237.5 18c-.2 0-.3.2-.3.3v5.3c0 .2.2.3.3.3h6.6v-6h-6.6z"/>
    <path fill="#FFF" d="M256.5 21c0 .7-.5 1.3-1 1.4v-2.8c.6.2 1 .7 1 1.4z"/>
    <path fill="#FFF" d="M213.8 24.3c1.4 0 2.4-.9 2.4-2.3 0-1.3-.9-2.3-2.2-2.3-.6 0-1.1.2-1.4.6h-.1l.2-2.2h3.1v-.8H212l-.4 3.9h.8c.3-.5.8-.8 1.4-.8.9 0 1.5.6 1.5 1.6s-.6 1.6-1.5 1.6c-.8 0-1.4-.5-1.5-1.2h-.8c.1 1.1 1 1.9 2.3 1.9zm6.1 0c1.4 0 2.5-.8 2.5-2 0-.9-.6-1.6-1.4-1.7v-.1c.7-.2 1.1-.8 1.1-1.5 0-1.1-.9-1.8-2.2-1.8-1.3 0-2.2.8-2.2 1.8 0 .7.4 1.3 1.1 1.5v.1c-.9.2-1.4.8-1.4 1.7 0 1.2 1 2 2.5 2zm0-.7c-.9 0-1.6-.5-1.6-1.3s.7-1.3 1.6-1.3c.9 0 1.6.5 1.6 1.3 0 .7-.7 1.3-1.6 1.3zm0-3.4c-.8 0-1.3-.5-1.3-1.2s.5-1.2 1.3-1.2 1.3.5 1.3 1.2c0 .8-.5 1.2-1.3 1.2zm11.6 3.5c-.4 0-.7-.4-.7-1s.3-1 .7-1c.4 0 .7.4.7 1 0 .5-.3 1-.7 1zm0 .6c.9 0 1.5-.7 1.5-1.6 0-1-.6-1.6-1.5-1.6s-1.5.7-1.5 1.6c.1.9.7 1.6 1.5 1.6zm-3.9-3.8c.9 0 1.5-.7 1.5-1.6 0-1-.6-1.6-1.5-1.6s-1.5.7-1.5 1.6c0 .9.6 1.6 1.5 1.6zm-.1 3.6l2.3-3.2 2.7-3.6h-.9l-2.4 3.3-2.6 3.5h.9zm.1-4.2c-.4 0-.7-.4-.7-1s.3-1 .7-1c.4 0 .7.4.7 1s-.3 1-.7 1z"/>
    <path opacity=".45" fill="#FFF" d="M204.1 24v-2.4l1.2 1.3-1.2 1.1zm1.2-4.8l-1.2 1.2v-2.3l1.2 1.1zm-.9 1.8l1.8-1.8-2.7-2.6h-.1v3.7l-1.9-1.9-.5.6 2.2 2.2-2.2 2.2.5.6 1.9-1.9v3.7h.1l2.7-2.7-1.8-2.1z"/>
    <path fill="#FFF" d="M106.8 20.7c0-.4.3-.7.7-.7h4.2c.4 0 .7.3.7.7v2.8c0 .4-.3.7-.7.7h-4.2c-.4 0-.7-.3-.7-.7v-2.8z"/>
    <path fill="#FFF" d="M109.5 17.2c-1.1 0-2.1.9-2.1 2.1v2.1h.7v-2.1c0-.8.6-1.4 1.4-1.4s1.4.6 1.4 1.4v2.1h.7v-2.1c0-1.1-.9-2.1-2.1-2.1z"/>
    <path fill="#FFF" d="M120.9 24.3c1.5 0 2.4-1.3 2.4-3.5 0-2.3-.9-3.6-2.4-3.6s-2.4 1.3-2.4 3.6c0 2.2.9 3.5 2.4 3.5zm0-.7c-1 0-1.6-1-1.6-2.8 0-1.8.6-2.8 1.6-2.8s1.6 1 1.6 2.8c0 1.8-.6 2.8-1.6 2.8zm5.9.7c1.7 0 2.6-1.3 2.6-3.7 0-.7-.1-1.4-.3-1.9-.4-1-1.2-1.5-2.2-1.5-1.4 0-2.4 1-2.4 2.3 0 1.3.9 2.3 2.2 2.3.8 0 1.5-.4 1.8-1 0 1.8-.7 2.8-1.8 2.8-.7 0-1.2-.4-1.4-1h-.9c.4 1 1.2 1.7 2.4 1.7zm0-3.2c-.9 0-1.5-.6-1.5-1.6 0-.9.7-1.6 1.5-1.6s1.5.7 1.5 1.6c.1.9-.5 1.6-1.5 1.6zm3.9 1.7c0 .4.3.7.7.7.4 0 .7-.3.7-.7 0-.4-.3-.7-.7-.7-.4 0-.7.3-.7.7zm0-3.7c0 .4.3.7.7.7.4 0 .7-.3.7-.7 0-.4-.3-.7-.7-.7-.4 0-.7.3-.7.7zm2.8.1h.8c0-.8.5-1.3 1.3-1.3s1.3.5 1.3 1.2c0 .5-.2.9-1.1 1.9l-2.4 2.6v.6h4.4v-.8h-3.2v-.1l1.6-1.8c1.1-1.2 1.4-1.7 1.4-2.5 0-1.1-.9-1.9-2.2-1.9-1 .1-1.9.9-1.9 2.1zm8.9 4.9h.8v-1.4h1V22h-1v-4.6H142c-1.2 1.8-2.3 3.5-2.9 4.6v.8h3.3v1.3zm-2.5-2.2c.8-1.4 1.7-2.8 2.4-3.8h.1V22l-2.5-.1z"/>
    <path fill="#FFF" d="M55.8 18.5c1.7 0 3.2.6 4.4 1.6l.8-.9c-1.4-1.2-3.2-2-5.2-2s-3.8.8-5.2 2l.8.9c1.2-1 2.7-1.6 4.4-1.6zm0 2.6c1 0 1.9.4 2.6.9l.9-.9c-.9-.8-2.2-1.3-3.5-1.3-1.3 0-2.6.5-3.5 1.3l.9.9c.7-.6 1.6-.9 2.6-.9zm1.8 1.8c-.5-.4-1.1-.7-1.8-.7s-1.3.3-1.8.7l1.8 1.9 1.8-1.9z"/>
    <path fill="#FFF" d="M42 21.5v-.8h-2.8v.7h1.9v.2c0 1.2-.8 1.9-2.1 1.9-1.4 0-2.2-1.1-2.2-2.8 0-1.7.9-2.8 2.2-2.8 1 0 1.7.5 2 1.4h.9c-.2-1.3-1.3-2.2-2.9-2.2-1.9 0-3.1 1.4-3.1 3.6s1.2 3.6 3.1 3.6c1.8 0 3-1.1 3-2.8zm.9.9c.1 1.2 1.1 1.9 2.5 1.9 1.6 0 2.6-.8 2.6-2 0-1-.6-1.5-2-1.9l-.7-.2c-.9-.2-1.3-.5-1.3-1.1 0-.7.6-1.1 1.5-1.1s1.4.4 1.5 1.1h.9c-.1-1.1-1.1-1.9-2.4-1.9-1.4 0-2.4.8-2.4 1.9 0 1 .5 1.5 1.8 1.8l.9.2c.9.2 1.4.6 1.4 1.2 0 .7-.7 1.2-1.6 1.2-1 0-1.7-.5-1.8-1.2h-.9z"/>
    <path fill="#FFF" d="M28.8 20.7c0 1.3 1.1 2.4 2.4 2.4 1.3 0 2.4-1.1 2.4-2.4 0-1.3-1.1-2.4-2.4-2.4-1.3 0-2.4 1.1-2.4 2.4zm4.4 0c0 1.1-.9 2-2 2s-2-.9-2-2 .9-2 2-2 2 .9 2 2z"/>
    <path fill="#FFF" d="M22.9 20.7c0 1.3 1.1 2.4 2.4 2.4 1.3 0 2.4-1.1 2.4-2.4 0-1.3-1.1-2.4-2.4-2.4-1.3 0-2.4 1.1-2.4 2.4zm4.4 0c0 1.1-.9 2-2 2s-2-.9-2-2 .9-2 2-2 2 .9 2 2z"/>
    <path fill="#FFF" d="M19.4 23.1c1.3 0 2.4-1.1 2.4-2.4 0-1.3-1.1-2.4-2.4-2.4S17 19.4 17 20.7c0 1.3 1.1 2.4 2.4 2.4z"/>
    <path fill="#FFF" d="M13.5 23.1c1.3 0 2.4-1.1 2.4-2.4 0-1.3-1.1-2.4-2.4-2.4s-2.4 1.1-2.4 2.4c0 1.3 1.1 2.4 2.4 2.4z"/>
    <path fill="#FFF" d="M7.6 23.1c1.3 0 2.4-1.1 2.4-2.4 0-1.3-1.1-2.4-2.4-2.4s-2.4 1.1-2.4 2.4c0 1.3 1.1 2.4 2.4 2.4z"/>
    <g>
        <path fill="#FFF" d="M0 0h260v460H0z"/>
        <linearGradient id="a" gradientUnits="userSpaceOnUse" x1="1.479" y1="462.823" x2="255.241" y2="7.087" gradientTransform="matrix(1 0 0 -1 0 462)">
            <stop offset="0" stop-color="#004da8"/>
            <stop offset="1" stop-color="#2e98d3"/>
        </linearGradient>
        <path fill="url(#a)" d="M0 0h260v460H0V0z"/>
        <path fill-opacity=".01" d="M0 0v13.8h260V0H0z"/>
        <path fill="#FFF" d="M253.9 3.4h-16.2c-.7 0-1.3.5-1.3 1.2v5.2c0 .7.6 1.2 1.3 1.2h16.2c.7 0 1.3-.5 1.3-1.2V4.6c-.1-.6-.6-1.2-1.3-1.2zm-17.1 1.2c0-.4.4-.8.8-.8h16.2c.5 0 .8.4.8.8v5.2c0 .4-.4.8-.8.8h-16.2c-.5 0-.8-.4-.8-.8V4.6z"/>
        <path fill="#FFF" d="M237.5 4.2c-.2 0-.3.2-.3.3v5.3c0 .2.2.3.3.3h6.6v-6h-6.6z"/>
        <path fill="#FFF" d="M256.5 7.2c0 .7-.5 1.3-1 1.4V5.9c.6.1 1 .6 1 1.3z"/>
        <path fill="#FFF" d="M213.8 10.5c1.4 0 2.4-.9 2.4-2.3 0-1.3-.9-2.3-2.2-2.3-.6 0-1.1.2-1.4.6h-.1l.2-2.2h3.1v-.8H212l-.4 3.9h.8c.3-.5.8-.8 1.4-.8.9 0 1.5.6 1.5 1.6s-.6 1.6-1.5 1.6c-.8 0-1.4-.5-1.5-1.2h-.8c.1 1.1 1 1.9 2.3 1.9zm6.1 0c1.4 0 2.5-.8 2.5-2 0-.9-.6-1.6-1.4-1.7v-.1c.7-.2 1.1-.8 1.1-1.5 0-1.1-.9-1.8-2.2-1.8-1.3 0-2.2.8-2.2 1.8 0 .7.4 1.3 1.1 1.5v.1c-.9.2-1.4.8-1.4 1.7 0 1.2 1 2 2.5 2zm0-.7c-.9 0-1.6-.5-1.6-1.3s.7-1.3 1.6-1.3c.9 0 1.6.5 1.6 1.3 0 .7-.7 1.3-1.6 1.3zm0-3.4c-.8 0-1.3-.5-1.3-1.2s.5-1.2 1.3-1.2 1.3.5 1.3 1.2c0 .8-.5 1.2-1.3 1.2zm11.6 3.5c-.4 0-.7-.4-.7-1s.3-1 .7-1c.4 0 .7.4.7 1 0 .5-.3 1-.7 1zm0 .6c.9 0 1.5-.7 1.5-1.6 0-1-.6-1.6-1.5-1.6S230 8 230 8.9c.1.9.7 1.6 1.5 1.6zm-3.9-3.8c.9 0 1.5-.7 1.5-1.6s-.6-1.6-1.5-1.6-1.5.7-1.5 1.6c0 .9.6 1.6 1.5 1.6zm-.1 3.6l2.3-3.2 2.7-3.6h-.9l-2.4 3.3-2.6 3.5h.9zm.1-4.2c-.4 0-.7-.4-.7-1s.3-1 .7-1c.4 0 .7.4.7 1s-.3 1-.7 1z"/>
        <path opacity=".45" fill="#FFF" d="M204.1 10.2V7.8l1.2 1.3-1.2 1.1zm1.2-4.8l-1.2 1.2V4.3l1.2 1.1zm-.9 1.8l1.8-1.8-2.7-2.6h-.1v3.7l-1.9-1.9-.5.6 2.2 2.2-2.2 2.2.5.6 1.9-1.9V12h.1l2.7-2.7-1.8-2.1z"/>
        <path fill="#FFF" d="M106.8 6.9c0-.4.3-.7.7-.7h4.2c.4 0 .7.3.7.7v2.8c0 .4-.3.7-.7.7h-4.2c-.4 0-.7-.3-.7-.7V6.9z"/>
        <path fill="#FFF" d="M109.5 3.4c-1.1 0-2.1.9-2.1 2.1v2.1h.7V5.5c0-.8.6-1.4 1.4-1.4s1.4.6 1.4 1.4v2.1h.7V5.5c0-1.1-.9-2.1-2.1-2.1z"/>
        <path fill="#FFF" d="M120.9 10.5c1.5 0 2.4-1.3 2.4-3.5 0-2.3-.9-3.6-2.4-3.6s-2.4 1.3-2.4 3.6c0 2.2.9 3.5 2.4 3.5zm0-.7c-1 0-1.6-1-1.6-2.8 0-1.8.6-2.8 1.6-2.8s1.6 1 1.6 2.8c0 1.8-.6 2.8-1.6 2.8zm5.9.7c1.7 0 2.6-1.3 2.6-3.7 0-.7-.1-1.4-.3-1.9-.4-1-1.2-1.5-2.2-1.5-1.4 0-2.4 1-2.4 2.3 0 1.3.9 2.3 2.2 2.3.8 0 1.5-.4 1.8-1 0 1.8-.7 2.8-1.8 2.8-.7 0-1.2-.4-1.4-1h-.9c.4 1 1.2 1.7 2.4 1.7zm0-3.2c-.9 0-1.5-.6-1.5-1.6 0-.9.7-1.6 1.5-1.6s1.5.7 1.5 1.6c.1.9-.5 1.6-1.5 1.6zm3.9 1.7c0 .4.3.7.7.7.4 0 .7-.3.7-.7 0-.4-.3-.7-.7-.7-.4 0-.7.3-.7.7zm0-3.7c0 .4.3.7.7.7.4 0 .7-.3.7-.7 0-.4-.3-.7-.7-.7-.4 0-.7.3-.7.7zm2.8.2h.8c0-.8.5-1.3 1.3-1.3s1.3.5 1.3 1.2c0 .5-.2.9-1.1 1.9l-2.4 2.6v.6h4.4v-.9h-3.2v-.1l1.6-1.8c1.1-1.2 1.4-1.7 1.4-2.5 0-1.1-.9-1.9-2.2-1.9-1 .1-1.9.9-1.9 2.2zm8.9 4.8h.8V8.9h1v-.7h-1V3.5H142c-1.2 1.8-2.3 3.5-2.9 4.6v.8h3.3v1.4zm-2.5-2.2c.8-1.4 1.7-2.8 2.4-3.8h.1v3.9l-2.5-.1z"/>
        <path fill="#FFF" d="M55.8 4.7c1.7 0 3.2.6 4.4 1.6l.8-.9c-1.4-1.2-3.2-2-5.2-2s-3.8.8-5.2 2l.8.9c1.2-1 2.7-1.6 4.4-1.6zm0 2.6c1 0 1.9.4 2.6.9l.9-.9c-.9-.8-2.2-1.3-3.5-1.3-1.3 0-2.6.5-3.5 1.3l.9.9c.7-.6 1.6-.9 2.6-.9zm1.8 1.8c-.5-.4-1.1-.7-1.8-.7s-1.3.3-1.8.7l1.8 1.9 1.8-1.9z"/>
        <path fill="#FFF" d="M42 7.7v-.8h-2.8v.7h1.9v.2c0 1.2-.8 1.9-2.1 1.9-1.4 0-2.2-1.1-2.2-2.8 0-1.7.9-2.8 2.2-2.8 1 0 1.7.5 2 1.4h.9c-.2-1.3-1.3-2.2-2.9-2.2-1.9 0-3.1 1.4-3.1 3.6s1.2 3.6 3.1 3.6c1.8 0 3-1.1 3-2.8zm.9.9c.1 1.2 1.1 1.9 2.5 1.9 1.6 0 2.6-.8 2.6-2 0-1-.6-1.5-2-1.9l-.7-.2c-1-.3-1.3-.6-1.3-1.1 0-.7.6-1.1 1.5-1.1s1.4.4 1.5 1.1h.9c-.1-1.1-1.1-1.9-2.4-1.9-1.4 0-2.4.8-2.4 1.9 0 1 .5 1.5 1.8 1.8l.9.2c.9.2 1.4.6 1.4 1.2 0 .7-.7 1.2-1.6 1.2-1 0-1.7-.5-1.8-1.2h-.9z"/>
        <path fill="#FFF" d="M28.8 6.9c0 1.3 1.1 2.4 2.4 2.4 1.3 0 2.4-1.1 2.4-2.4 0-1.3-1.1-2.4-2.4-2.4-1.3 0-2.4 1.1-2.4 2.4zm4.4 0c0 1.1-.9 2-2 2s-2-.9-2-2 .9-2 2-2 2 .9 2 2z"/>
        <path fill="#FFF" d="M22.9 6.9c0 1.3 1.1 2.4 2.4 2.4 1.3 0 2.4-1.1 2.4-2.4 0-1.3-1.1-2.4-2.4-2.4-1.3 0-2.4 1.1-2.4 2.4zm4.4 0c0 1.1-.9 2-2 2s-2-.9-2-2 .9-2 2-2 2 .9 2 2z"/>
        <path fill="#FFF" d="M19.4 9.3c1.3 0 2.4-1.1 2.4-2.4 0-1.3-1.1-2.4-2.4-2.4S17 5.6 17 6.9c0 1.3 1.1 2.4 2.4 2.4z"/>
        <path fill="#FFF" d="M13.5 9.3c1.3 0 2.4-1.1 2.4-2.4 0-1.3-1.1-2.4-2.4-2.4s-2.4 1.1-2.4 2.4c0 1.3 1.1 2.4 2.4 2.4z"/>
        <path fill="#FFF" d="M7.6 9.3c1.3 0 2.4-1.1 2.4-2.4 0-1.3-1.1-2.4-2.4-2.4S5.2 5.6 5.2 6.9c0 1.3 1.1 2.4 2.4 2.4z"/>
        <path fill="#CCE134" d="M28.2 424.5l-2.2-3.8 2.2-3.8h4.4l2.2 3.8-2.2 3.8h-4.4z"/>
        <path fill="#F3922B" d="M34.8 420.7l-2.2-3.8 2.2-3.8h4.4l2.2 3.8-2.2 3.8h-4.4z"/>
        <path fill="#DC3348" d="M41.4 424.5l-2.2-3.8 2.2-3.8h4.4l2.2 3.8-2.2 3.8h-4.4z"/>
        <path fill="#01B49E" d="M28.3 432.1l-2.2-3.8 2.2-3.8h4.4l2.2 3.8-2.2 3.8h-4.4z"/>
        <path fill="#A0A01C" d="M34.9 435.9l-2.2-3.8 2.2-3.8h4.4l2.2 3.8-2.2 3.8h-4.4z"/>
        <path fill="#3C7D90" d="M41.4 432.1l-2.2-3.8 2.2-3.8h4.4l2.2 3.8-2.2 3.8h-4.4z"/>
        <path fill="#FFF" d="M65.2 347.5h7.6v1.5H61.2v-1.5h2.3v-6.9h-2.3v-1h2.3v-3.2c0-1.7.4-3 1.3-4 .9-.9 2.1-1.4 3.7-1.4.9 0 1.8.2 2.6.6.8.4 1.5 1 2.2 1.8l-.8 1.3c-.5-.7-1.1-1.2-1.8-1.6-.6-.4-1.3-.6-2.1-.6-1.1 0-1.9.3-2.5 1-.6.6-.8 1.6-.8 2.8v3.2H70v1h-4.7v7zm22.4-.1v1.6H74.9v-1.5l7.1-7.3c.8-.9 1.5-1.7 1.9-2.5.5-.8.7-1.5.7-2.1 0-.9-.4-1.7-1.1-2.2-.7-.5-1.7-.8-2.9-.8-.9 0-1.7.2-2.6.6-.9.4-1.7.9-2.5 1.6l-.8-1.3c.9-.8 1.8-1.4 2.9-1.8 1.1-.4 2.1-.6 3.2-.6 1.7 0 3.1.4 4.1 1.2 1 .8 1.5 1.8 1.5 3.1 0 .8-.3 1.7-.9 2.7-.6 1-1.4 2-2.4 3.1l-6.1 6.3h10.6zm8.1-16.3h6.1V349H100v-16.3h-4.3v-1.6zm16.4 7.7c1.9.1 3.4.5 4.5 1.4 1.1.8 1.7 2 1.7 3.4 0 1.1-.3 2.1-.8 2.9-.5.8-1.3 1.5-2.4 2-1 .5-2.3.7-3.6.7-1.1 0-2.2-.2-3.3-.5-1.1-.3-2-.7-2.8-1.3l.8-1.4c.7.5 1.5.9 2.4 1.2.9.3 1.8.4 2.8.4 1.6 0 2.9-.4 3.8-1.1.9-.7 1.4-1.7 1.4-2.9s-.5-2.1-1.4-2.7c-.9-.6-2.2-.9-3.9-.9H109v-1.1l6.1-6.1h-8.9v-1.6h11.2v1.2l-6.4 6.4h1.1zm15.8-.8c1.3 0 2.4.2 3.4.7 1 .4 1.7 1.1 2.3 1.9.5.8.8 1.7.8 2.7 0 1.2-.3 2.2-.8 3.1-.5.9-1.3 1.6-2.3 2.1-1 .5-2.1.7-3.5.7-1 0-2.1-.2-3.3-.5-1.1-.4-2.1-.8-3.1-1.4l.7-1.4c.8.5 1.7 1 2.6 1.3 1 .3 1.9.5 2.8.5 1.5 0 2.7-.4 3.5-1.1.9-.8 1.3-1.8 1.3-3.1 0-1.2-.4-2.1-1.3-2.7-.9-.7-2.1-1-3.6-1-.6 0-1.4.1-2.4.2-.9.1-1.7.2-2.4.4v-9h10.9v1.6h-9.2v5.6c.5-.1 1.1-.2 1.7-.2.9-.4 1.4-.4 1.9-.4zm10 8.8c.3 0 .6.1.8.3.2.2.3.5.3.8s-.1.6-.3.8c-.2.2-.5.3-.8.3-.3 0-.6-.1-.8-.3-.2-.2-.3-.5-.3-.8 0-.3.1-.6.3-.8.2-.1.5-.3.8-.3zM157 331c2.4 0 4.2.8 5.5 2.3 1.3 1.5 1.9 3.8 1.9 6.7s-.6 5.1-1.9 6.7c-1.3 1.6-3.1 2.3-5.5 2.3s-4.2-.8-5.5-2.3c-1.3-1.6-1.9-3.8-1.9-6.7s.6-5.1 1.9-6.7c1.3-1.5 3.1-2.3 5.5-2.3zm0 1.4c-1.8 0-3.2.6-4.1 1.9-.9 1.3-1.4 3.2-1.4 5.7s.5 4.4 1.4 5.7c.9 1.3 2.3 1.9 4.1 1.9 1.8 0 3.2-.6 4.1-1.9 1-1.3 1.4-3.2 1.4-5.7s-.5-4.4-1.4-5.7c-.9-1.2-2.3-1.9-4.1-1.9zm18.3-1.4c2.4 0 4.2.8 5.5 2.3 1.3 1.5 1.9 3.8 1.9 6.7s-.6 5.1-1.9 6.7c-1.3 1.6-3.1 2.3-5.5 2.3s-4.2-.8-5.5-2.3c-1.3-1.6-1.9-3.8-1.9-6.7s.6-5.1 1.9-6.7c1.4-1.5 3.2-2.3 5.5-2.3zm0 1.4c-1.8 0-3.2.6-4.1 1.9-.9 1.3-1.4 3.2-1.4 5.7s.5 4.4 1.4 5.7c.9 1.3 2.3 1.9 4.1 1.9 1.8 0 3.2-.6 4.1-1.9 1-1.3 1.4-3.2 1.4-5.7s-.5-4.4-1.4-5.7c-.9-1.2-2.2-1.9-4.1-1.9z"/>
        <path fill="#FFF" d="M61.7 356h4.5v.6h-3.9v2.4h3.5v.6h-3.5v2.5h4v.6h-4.7V356zm12.4 6.8l-.8-1.8h-3.8l-.8 1.8H68l3-6.8h.7l3.1 6.7h-.7zm-4.3-2.4H73l-1.6-3.6-1.6 3.6zm11.6 2.4l-1.5-2.2h-2.4v2.2h-.7V356h2.5c.8 0 1.5.2 2 .6.5.4.7.9.7 1.7 0 .6-.1 1-.4 1.4-.3.4-.7.6-1.2.8l1.6 2.3h-.6zm-2-2.8c.6 0 1.1-.1 1.5-.4.3-.3.5-.7.5-1.3 0-.5-.2-1-.5-1.2s-.8-.4-1.5-.4h-1.9v3.4h1.9zm10.4-4h.7v6.7h-.7l-4.2-5.7v5.7h-.7V356h.7l4.2 5.7V356zm3.8 0h.7v6.7h-.7V356zm8.7 0h.7v6.7h-.7L98 357v5.7h-.7V356h.7l4.2 5.7V356zm8.5 3.5h.6v2.5c-.3.3-.7.5-1.2.7-.4.2-.9.2-1.3.2-.6 0-1.2-.2-1.8-.5-.5-.3-1-.7-1.3-1.3-.3-.5-.5-1.1-.5-1.7s.2-1.2.5-1.7.7-.9 1.3-1.2c.5-.3 1.1-.5 1.8-.5.5 0 .9.1 1.3.2.4.2.8.4 1.1.7l-.4.5c-.3-.3-.6-.5-1-.6-.4-.1-.7-.2-1.1-.2-.5 0-1 .1-1.4.4-.4.3-.8.6-1 1-.3.4-.4.9-.4 1.4 0 .5.1 1 .4 1.4.3.4.6.8 1 1 .4.3.9.4 1.5.4.3 0 .6-.1 1-.2.3-.1.6-.3.9-.5v-2zm7.3-2.4c-.3-.2-.6-.3-.9-.4-.3-.1-.6-.1-.9-.1-.5 0-.8.1-1.1.3-.3.2-.4.4-.4.7 0 .3.1.5.2.7.2.2.3.3.6.4.2.1.5.2.9.3.5.1.8.3 1.1.4.3.1.5.3.7.6.2.3.3.6.3 1s-.1.7-.3 1c-.2.3-.5.5-.9.6-.4.1-.8.2-1.3.2s-.9-.1-1.4-.3c-.4-.2-.8-.4-1.2-.7l.3-.6c.3.3.7.5 1.1.7.4.2.8.3 1.2.3.5 0 .9-.1 1.2-.3.3-.2.5-.5.5-.8 0-.3-.1-.5-.2-.7-.2-.2-.3-.3-.6-.4-.2-.1-.5-.2-1-.3-.5-.1-.8-.3-1.1-.4-.3-.1-.5-.3-.7-.6-.2-.3-.3-.6-.3-1 0-.3.1-.6.3-.9.2-.3.5-.5.8-.6.3-.1.8-.2 1.2-.2.4 0 .7.1 1.1.2.4.1.7.3 1 .4l-.2.5zm5.8-1.1h5.2v.6h-2.2v6.2h-.7v-6.2H124v-.6zm7.3 0h.7v3.1h4.2V356h.7v6.7h-.7v-3.1h-4.2v3.1h-.7V356zm8.7 0h.7v6.7h-.7V356zm7.5 1.1c-.3-.2-.6-.3-.9-.4-.3-.1-.6-.1-.9-.1-.5 0-.8.1-1.1.3-.3.2-.4.4-.4.7 0 .3.1.5.2.7.2.2.3.3.6.4.2.1.5.2.9.3.5.1.8.3 1.1.4.3.1.5.3.7.6.2.3.3.6.3 1s-.1.7-.3 1c-.2.3-.5.5-.9.6-.4.1-.8.2-1.3.2s-.9-.1-1.4-.3c-.4-.2-.8-.4-1.2-.7l.3-.6c.3.3.7.5 1.1.7.4.2.8.3 1.2.3.5 0 .9-.1 1.2-.3.3-.2.5-.5.5-.8 0-.3-.1-.5-.2-.7-.2-.2-.3-.3-.6-.4-.2-.1-.5-.2-1-.3-.5-.1-.8-.3-1.1-.4-.3-.1-.5-.3-.7-.6-.2-.3-.3-.6-.3-1 0-.3.1-.6.3-.9.2-.3.5-.5.8-.6.3-.1.8-.2 1.2-.2.4 0 .7.1 1.1.2.4.1.7.3 1 .4l-.2.5zm6.8-1.1h.8l2.7 5.1 2.6-5.1h.8v6.8h-.6V357l-2.7 5.1h-.4l-2.7-5.1v5.8h-.6V356zm12.9 0c.6 0 1.2.2 1.8.5.5.3 1 .7 1.3 1.2.3.5.5 1.1.5 1.7s-.2 1.2-.5 1.7-.7.9-1.3 1.3c-.5.3-1.1.5-1.8.5-.6 0-1.2-.2-1.8-.5-.5-.3-1-.7-1.3-1.3-.3-.5-.5-1.1-.5-1.7s.2-1.2.5-1.7.7-.9 1.3-1.2c.6-.4 1.2-.5 1.8-.5zm0 .5c-.5 0-1 .1-1.4.4-.4.3-.8.6-1 1-.3.4-.4.9-.4 1.4s.1 1 .4 1.4c.3.4.6.8 1 1 .4.3.9.4 1.4.4.5 0 1-.1 1.4-.4.4-.3.8-.6 1-1 .3-.4.4-.9.4-1.4s-.1-1-.4-1.4c-.3-.4-.6-.8-1-1-.4-.2-.9-.4-1.4-.4zm10.9-.5h.7v6.7h-.7l-4.2-5.7v5.7h-.7V356h.7l4.2 5.7V356zm2.8 0h5.2v.6h-2.2v6.2h-.7v-6.2h-2.2v-.6zm7.3 0h.7v3.1h4.2V356h.7v6.7h-.7v-3.1h-4.2v3.1h-.7V356z"/>
        <path fill="#49FF95" d="M193.5 347.3v-12.7l4.4 4.4c.3.3.8.3 1.2 0 .3-.3.3-.8 0-1.2l-5.8-5.8-.1-.1h-.1-.1-.1-.5-.1-.1-.1-.1l-.1.1-5.8 5.8c-.3.3-.3.8 0 1.2.3.3.8.3 1.2 0l4.4-4.4v12.7c0 .4.4.8.8.8.7 0 1-.3 1-.8z"/>
        <path fill="#FFF" fill-opacity=".8" d="M223.6 416h-4.1c-.4-1.1-1.5-1.9-2.8-1.9-1.3 0-2.4.8-2.8 1.9h-4.1c-1.1 0-2 .9-2 1.9v13.3c0 1.1.9 1.9 2 1.9h13.7c1.1 0 2-.9 2-1.9v-13.3c0-1.1-.8-1.9-1.9-1.9zm-6.9 0c.5 0 1 .4 1 1 0 .5-.4 1-1 1-.5 0-1-.4-1-1s.5-1 1-1zm3.9 11.4h-3.9v2.9l-4.9-4.8 4.9-4.8v2.9h3.9v3.8z"/>
        <path fill="none" stroke="#FFF" stroke-opacity=".1" d="M238.5 292.8H17.3"/>
        <path fill="none" stroke="#FFF" stroke-opacity=".1" d="M238.5 397H17.3"/>
        <linearGradient id="b" gradientUnits="userSpaceOnUse" x1="27.99" y1="388.34" x2="114.099" y2="300.111" gradientTransform="matrix(1 0 0 -1 0 462)">
            <stop offset="0" stop-color="#00b3ff"/>
            <stop offset="1" stop-color="#00c2ff"/>
        </linearGradient>
        <path fill="url(#b)" d="M25.3 76.4c0-2.3 1.9-4.1 4.2-4.1h82.1c2.3 0 4.2 1.9 4.2 4.1v81.7c0 2.3-1.9 4.1-4.2 4.1H29.5c-2.3 0-4.2-1.9-4.2-4.1V76.4zm19 40.1c1.5 0 2.5.3 3.2.8.7.6 1 1.4 1 2.6 0 1.2-.3 2-1 2.6-.7.5-1.7.8-3.2.8h-1.7v2.8H41v-9.6h3.3zm.2 5.3c.9 0 1.5-.2 1.8-.5.1-.1.2-.3.3-.5.1-.2.1-.4.2-.6v-.4c0-.7-.2-1.1-.6-1.4-.4-.3-1.1-.4-2-.4h-1.7v3.9h2zm11.6 4.3h-1.4v-1c-.6.7-1.4 1.1-2.5 1.1-.5 0-.9-.1-1.2-.2-.2-.1-.5-.2-.7-.4-.5-.4-.7-1-.7-1.7s.3-1.3.8-1.6c.5-.4 1.3-.5 2.2-.5h2v-.3c0-1-.5-1.5-1.6-1.5-.7 0-1.4.2-2.1.7l-.7-1c.9-.7 1.9-1.1 3.1-1.1.9 0 1.6.2 2.1.7.6.4.8 1.1.8 2.1v4.7zm-1.6-2.7v-.6h-1.7c-1.1 0-1.7.3-1.7 1 0 .4.1.6.4.8.3.2.7.3 1.2.3.3 0 .5 0 .7-.1l.6-.3c.2-.2.4-.3.4-.5.1-.2.1-.4.1-.6zm4.6 5.7c-.7 0-1.3-.2-1.8-.7l.7-1.3c.1.1.3.2.5.3.2.1.4.1.5.1.2 0 .3 0 .5-.1.1-.1.3-.2.4-.3.2-.2.3-.5.3-.8 0-.1-1-2.6-3-7.5h1.7l2.2 5.4 2.2-5.4H65l-3.6 8.7c-.1.3-.3.5-.5.7l-.4.4-.6.3c-.3.1-.6.2-.8.2zm-13.9 13.6H41V133h3.8c.7 0 1.2.1 1.7.2.3.1.5.2.7.3l.3.3c.4.5.7 1.1.7 1.7 0 .8-.2 1.3-.7 1.7-.2.1-.3.2-.4.2-.1 0-.2.1-.3.2.6.1 1.1.4 1.4.8.4.4.5.9.5 1.5 0 .7-.2 1.3-.7 1.8-.5.7-1.5 1-2.8 1zm-2.6-5.7h2.1c1.2 0 1.8-.4 1.8-1.2 0-.3-.1-.5-.2-.7l-.3-.3c-.3-.2-.7-.3-1.3-.3h-2.1v2.5zm0 4.2h2.6c.6 0 1.1-.1 1.4-.3.2-.1.3-.3.4-.5 0-.1 0-.2.1-.2v-.4c0-.9-.7-1.3-2.1-1.3h-2.4v2.7zm9.5 1.5h-1.6v-7.3h1.6v7.3zm-1.5-8.8c-.2-.2-.3-.4-.3-.7 0-.3.1-.5.3-.7.2-.2.4-.3.7-.3.2 0 .3 0 .4.1.1 0 .2.1.3.2.2.2.3.4.3.7 0 .3-.1.5-.3.7-.2.2-.4.3-.7.3H51c-.1-.1-.2-.2-.4-.3zm5.3 8.8h-1.6v-10.2h1.6v10.2zm3.8 0h-1.6v-10.2h1.6v10.2zm-10.2-46c0 .9.7 1.6 1.6 1.6h2.3c.4 0 .7.3.7.6v6.5c0 1.4-1.2 2.6-2.6 2.6h-7.8c-1.4 0-2.6-1.2-2.6-2.6v-9.1c0-1.4 1.2-2.6 2.6-2.6h5.2c.4 0 .7.3.7.6v2.4zm-4.6 7.4h3.9c.4 0 .7-.3.7-.6 0-.4-.3-.6-.7-.6h-3.9c-.4 0-.7.3-.7.6 0 .4.3.6.7.6zm0-2.6h5.2c.4 0 .7-.3.7-.6 0-.4-.3-.6-.7-.6h-5.2c-.4 0-.7.3-.7.6 0 .4.3.6.7.6z"/>
        <linearGradient id="c" gradientUnits="userSpaceOnUse" x1="28.84" y1="273.542" x2="115.35" y2="185.956" gradientTransform="matrix(1 0 0 -1 0 462)">
            <stop offset="0" stop-color="#00e8a2"/>
            <stop offset="1" stop-color="#03f28d"/>
        </linearGradient>
        <path fill="url(#c)" d="M25.3 189.9c0-2.3 1.9-4.1 4.2-4.1h82.1c2.3 0 4.2 1.9 4.2 4.1v81.7c0 2.3-1.9 4.1-4.2 4.1H29.5c-2.3 0-4.2-1.9-4.2-4.1v-81.7zm23.4 43.2c0 1.6-.7 2.6-2.1 3l2.5 3.5H47l-2.3-3.2h-2.1v3.2H41V230h3.6c1.5 0 2.5.2 3.2.7.6.5.9 1.3.9 2.4zm-4 1.8c.9 0 1.6-.1 1.9-.4.3-.3.5-.7.5-1.4 0-.6-.2-1.1-.5-1.3-.3-.2-1-.4-1.8-.4h-2.1v3.4h2zm13 1.7H52c0 .2 0 .3.1.5 0 .1.1.1.1.2.1.2.3.4.5.6.3.2.6.3 1 .4.2 0 .4.1.6.1.9 0 1.6-.3 2.1-.9l.9 1c-.8.8-1.8 1.2-3.1 1.2-1 0-1.9-.3-2.6-1-.7-.7-1.1-1.6-1.1-2.8 0-1.2.4-2.1 1.1-2.8.7-.7 1.6-1 2.6-1s1.9.3 2.6.9c.7.6 1.1 1.4 1.1 2.5v1.1zm-5.7-1.2h4.2c0-.6-.2-1.1-.6-1.4-.4-.3-.9-.5-1.4-.5-.4 0-.8.1-1.1.3-.1.1-.3.2-.4.3-.5.2-.7.7-.7 1.3zm11.4-3.3c1 0 1.8.3 2.5 1s1.1 1.6 1.1 2.7-.4 2.1-1.1 2.8c-.7.7-1.5 1.1-2.4 1.1-.9 0-1.8-.4-2.5-1.2v3.8h-1.6v-10H61v1.3c.6-1 1.4-1.5 2.4-1.5zm-2.4 3.8c0 .7.2 1.3.6 1.7.4.4.9.7 1.6.7.6 0 1.1-.2 1.6-.7.5-.4.7-1 .7-1.7s-.2-1.3-.7-1.8c-.4-.5-1-.7-1.6-.7-.4 0-.7.1-1 .3-.2.1-.4.3-.5.4-.5.5-.7 1.1-.7 1.8zm13.7 3.7h-1.4v-1c-.6.7-1.4 1.1-2.5 1.1-.8 0-1.4-.2-1.9-.6-.5-.4-.7-1-.7-1.7s.3-1.3.8-1.6c.5-.4 1.3-.5 2.2-.5h2v-.3c0-1-.5-1.5-1.6-1.5-.7 0-1.4.2-2.1.7l-.7-1c.9-.7 1.9-1.1 3.1-1.1.9 0 1.6.2 2.1.7.6.4.8 1.1.8 2.1v4.7zm-1.5-2.8v-.6h-1.7c-1.1 0-1.7.3-1.7 1 0 .2 0 .4.1.5 0 .1.1.1.1.2l.1.1c.3.2.7.3 1.2.3s.9-.1 1.3-.4c.4-.2.6-.6.6-1.1zm5.3 2.8h-1.6v-7.3h1.6v7.3zm-1.5-8.8c-.2-.2-.3-.4-.3-.7 0-.3.1-.5.3-.7s.4-.3.7-.3c.3 0 .5.1.7.3.1.1.2.2.2.3.1.1.1.3.1.4 0 .3-.1.5-.3.7-.2.2-.4.3-.7.3-.3 0-.5-.1-.7-.3zm7.6 2.9c-.8 0-1.3.2-1.7.7-.4.5-.6 1.2-.6 2v3.1h-1.6v-7.3h1.6v1.5c.2-.5.6-.8 1-1.1.4-.3.9-.4 1.4-.5l-.1 1.6zM41.3 248v-1.5H46v6.4c0 1.1-.3 2-.9 2.5-.6.6-1.3.8-2.2.8-1.1 0-2.1-.4-2.9-1.2l.9-1.3c.6.6 1.2.9 1.8.9h.3c.3-.1.5-.2.7-.4.3-.3.5-.7.5-1.3v-5h-2.9zm8.7 6.2c.4.4 1 .7 1.7.7s1.2-.2 1.7-.7c.2-.2.3-.4.4-.6.1-.2.2-.4.2-.6v-.5c0-.4-.1-.8-.2-1.1-.1-.2-.2-.4-.4-.6-.4-.5-1-.7-1.7-.7-.3 0-.6.1-.9.2-.3.1-.5.3-.8.5-.4.4-.7 1-.7 1.7.1.7.3 1.2.7 1.7zm4.5 1c-.7.7-1.7 1.1-2.8 1.1-1.1 0-2-.4-2.8-1.1-.7-.7-1.1-1.6-1.1-2.7s.4-1.9 1.1-2.7c.7-.7 1.7-1.1 2.8-1.1 1.1 0 2 .4 2.8 1.1.7.7 1.1 1.6 1.1 2.7 0 1-.4 1.9-1.1 2.7zm6.8-6.5c1 0 1.8.3 2.5 1s1.1 1.6 1.1 2.7-.4 2.1-1.1 2.8c-.7.7-1.5 1.1-2.4 1.1-.9 0-1.8-.4-2.5-1.2v1.1h-1.6V246h1.6v4.2c.6-1.1 1.4-1.5 2.4-1.5zm-2.4 3.8c0 .7.2 1.3.6 1.7.4.4.9.7 1.6.7.6 0 1.1-.2 1.6-.7.5-.4.7-1 .7-1.7s-.2-1.3-.7-1.8c-.4-.5-1-.7-1.6-.7-.6 0-1.1.2-1.6.7-.4.5-.6 1.1-.6 1.8zm-9.4-42.4c0 .9.7 1.6 1.6 1.6h2.3c.4 0 .7.3.7.6v6.5c0 1.4-1.2 2.6-2.6 2.6h-7.8c-1.4 0-2.6-1.2-2.6-2.6v-9.1c0-1.4 1.2-2.6 2.6-2.6h5.2c.4 0 .7.3.7.6v2.4zm-4.6 7.5h3.9c.4 0 .7-.3.7-.6 0-.4-.3-.6-.7-.6h-3.9c-.4 0-.7.3-.7.6s.3.6.7.6zm0-2.6h5.2c.4 0 .7-.3.7-.6 0-.4-.3-.6-.7-.6h-5.2c-.4 0-.7.3-.7.6s.3.6.7.6z"/>
        <linearGradient id="d" gradientUnits="userSpaceOnUse" x1="143.501" y1="275.184" x2="229.332" y2="186.797" gradientTransform="matrix(1 0 0 -1 0 462)">
            <stop offset="0" stop-color="#aaff1f"/>
            <stop offset="1" stop-color="#c5ff1f"/>
        </linearGradient>
        <path fill="url(#d)" d="M140.9 189.9c0-2.3 1.9-4.1 4.2-4.1h82.1c2.3 0 4.2 1.9 4.2 4.1v81.7c0 2.3-1.9 4.1-4.2 4.1H145c-2.3 0-4.2-1.9-4.2-4.1v-81.7zm20.8 48.1c.3 0 .5-.1.7-.2.1-.1.3-.2.4-.3.1-.1.3-.2.4-.3.1-.1.3-.2.4-.3l1.1 1.1c-1 1.1-2.3 1.7-3.7 1.7-1.5 0-2.7-.5-3.6-1.4-1-.9-1.4-2.1-1.4-3.6 0-1.4.5-2.6 1.5-3.6s2.2-1.4 3.7-1.4 2.8.6 3.8 1.7l-1 1.1c-.5-.4-.9-.7-1.3-.9-.4-.2-.9-.3-1.4-.3-1 0-1.8.3-2.5 1-.7.6-1 1.4-1 2.4s.3 1.8 1 2.5 1.5 1 2.4 1c0-.1.3-.1.5-.2zm6.4-.4c.4.4 1 .7 1.7.7s1.2-.2 1.7-.7c.4-.5.7-1 .7-1.7s-.2-1.3-.7-1.7c-.4-.5-1-.7-1.7-.7h-.7c-.2.1-.4.1-.5.2-.2.1-.3.2-.5.4-.4.4-.7 1-.7 1.7 0 .8.2 1.4.7 1.8zm4.4 1c-.7.7-1.7 1.1-2.8 1.1-1.1 0-2-.4-2.8-1.1-.7-.7-1.1-1.6-1.1-2.7s.4-1.9 1.1-2.7c.7-.7 1.7-1.1 2.8-1.1 1.1 0 2 .4 2.8 1.1.7.7 1.1 1.6 1.1 2.7s-.3 2-1.1 2.7zm4.4 1h-1.6v-10.2h1.6v10.2zm3.9 0h-1.6v-10.2h1.6v10.2zm9.1-3h-5.8c0 .5.3 1 .7 1.3.5.3 1 .5 1.6.5.9 0 1.6-.3 2.1-.9l.9 1c-.8.8-1.8 1.2-3.1 1.2-1 0-1.9-.3-2.6-1-.7-.7-1.1-1.6-1.1-2.8 0-1.2.4-2.1 1.1-2.8.7-.7 1.6-1 2.6-1s1.9.3 2.6.9c.7.6 1.1 1.4 1.1 2.5v1.1zm-5.8-1.2h4.2c0-.6-.2-1.1-.6-1.4-.4-.3-.9-.5-1.4-.5-.6 0-1.1.2-1.5.5-.5.3-.7.8-.7 1.4zm10.7 4.3c-1 0-1.9-.3-2.6-1-.7-.7-1.1-1.6-1.1-2.7s.4-2 1.2-2.7c.8-.7 1.7-1.1 2.8-1.1 1.1 0 2 .4 2.8 1.1l-.9 1.1c-.6-.6-1.3-.8-1.9-.8-.6 0-1.2.2-1.7.6-.5.4-.7 1-.7 1.7s.2 1.2.7 1.7c.5.5 1 .7 1.7.7h.4c.1 0 .2 0 .3-.1.4-.1.9-.4 1.3-.8l.9 1c-.9.8-2 1.3-3.2 1.3zm6.7-6.2v3.7c0 .3.1.6.3.8.2.2.4.3.8.3s.7-.2 1-.5l.6 1.1c-.5.5-1.2.7-1.8.7-.7 0-1.2-.2-1.7-.7-.5-.5-.7-1.1-.7-1.8v-3.7h-1v-1.2h.9v-2.3h1.6v2.3h1.9v1.2h-1.9zm-37.2 16.1c0 1.6-.7 2.6-2.1 3l2.5 3.5h-2.1l-2.3-3.2h-2.1v3.2h-1.6v-9.6h3.6c1.5 0 2.5.2 3.2.7.6.5.9 1.3.9 2.4zm-4.1 1.8c.9 0 1.6-.1 1.9-.4.1-.1.2-.3.3-.4.1-.3.2-.6.2-.9 0-.6-.2-1.1-.5-1.3-.3-.2-1-.4-1.8-.4h-2.1v3.4h2zm13.1 1.7h-5.8c0 .5.3 1 .7 1.3.5.3 1 .5 1.6.5.9 0 1.6-.3 2.1-.9l.9 1c-.8.8-1.8 1.2-3.1 1.2-1 0-1.9-.3-2.6-1-.7-.7-1.1-1.6-1.1-2.8 0-1.2.4-2.1 1.1-2.8.7-.7 1.6-1 2.6-1s1.9.3 2.6.9c.7.6 1.1 1.4 1.1 2.5v1.1zm-5.8-1.2h4.2c0-.6-.2-1.1-.6-1.4-.2-.2-.5-.3-.8-.4-.2-.1-.4-.1-.7-.1-.4 0-.7.1-1 .2-.2.1-.3.2-.5.3-.4.4-.6.8-.6 1.4zm9.1.3v4H175v-7.3h1.6v1.3c.2-.5.6-.8 1-1.1.4-.3.9-.4 1.4-.4.8 0 1.5.3 2 .8s.8 1.2.8 2.2v4.5h-1.6v-4c0-1.4-.6-2-1.7-2-.5 0-1 .2-1.4.5-.3.3-.5.8-.5 1.5zm9.2-2.2v3.7c0 .3.1.6.3.8.2.2.4.3.8.3.1 0 .2 0 .3-.1 0 0 .1 0 .1-.1.2-.1.3-.2.5-.4l.6 1.1c-.5.5-1.2.7-1.8.7-.7 0-1.2-.2-1.7-.7-.5-.5-.7-1.1-.7-1.8V250h-.9v-1.2h.9v-2.3h1.6v2.3h1.9v1.2h-1.9zM165 210.1c0 .9.7 1.6 1.6 1.6h2.3c.4 0 .7.3.7.6v6.5c0 1.4-1.2 2.6-2.6 2.6h-7.8c-1.4 0-2.6-1.2-2.6-2.6v-9.1c0-1.4 1.2-2.6 2.6-2.6h5.2c.4 0 .7.3.7.6v2.4zm-4.5 7.5h3.9c.4 0 .7-.3.7-.6s-.1-.5-.3-.6c-.1 0-.2-.1-.3-.1h-3.9c-.4 0-.7.3-.7.6-.1.4.2.7.6.7zm0-2.6h5.2c.4 0 .7-.3.7-.6 0-.4-.3-.6-.7-.6h-5.2c-.4 0-.7.3-.7.6s.3.6.7.6z"/>
        <path fill="#00DEE9" d="M140.9 76.4c0-2.3 1.9-4.1 4.2-4.1h82.1c2.3 0 4.2 1.9 4.2 4.1v81.7c0 2.3-1.9 4.1-4.2 4.1H145c-2.3 0-4.2-1.9-4.2-4.1V76.4zm18 41.4c-.2 0-.4.1-.6.2-.3.2-.5.5-.5.9s.2.7.5.9c.3.2 1 .4 1.9.7 1 .2 1.7.6 2.2 1 .5.4.8 1.1.8 1.9 0 .8-.3 1.5-1 2-.6.5-1.5.8-2.5.8-1.5 0-2.9-.5-4-1.6l1-1.2c1 .8 2 1.3 3.1 1.3.5 0 .9-.1 1.2-.3.2-.1.3-.3.4-.4 0-.1.1-.2.1-.3v-.2c0-.4-.1-.7-.4-.9-.3-.2-.8-.4-1.5-.6-.7-.2-1.3-.3-1.6-.5-.2-.1-.4-.2-.5-.3-.2-.1-.3-.2-.4-.3-.6-.4-.9-1.1-.9-2 0-.9.3-1.6 1-2.1s1.5-.7 2.4-.7c.6 0 1.2.1 1.8.3.6.2 1.1.5 1.6.9l-.9 1.2c-.3-.3-.7-.5-1.2-.6-.3-.1-.6-.2-.9-.2h-.5c-.2.1-.4.1-.6.1zm7.9 2.2v3.7c0 .3.1.6.3.8.2.2.4.3.8.3s.7-.2 1-.5l.6 1.1c-.5.5-1.2.7-1.8.7-.7 0-1.2-.2-1.7-.7-.3-.3-.4-.6-.6-.9-.1-.3-.1-.6-.1-.9V120h-.9v-1.2h.9v-2.3h1.6v2.3h1.9v1.2h-2zm9.9 6.1h-1.4v-1c-.6.7-1.4 1.1-2.5 1.1-.8 0-1.4-.2-1.9-.6-.5-.4-.7-1-.7-1.7s.3-1.3.8-1.6c.5-.4 1.3-.5 2.2-.5h2v-.3c0-1-.5-1.5-1.6-1.5-.7 0-1.4.2-2.1.7l-.7-1c.9-.7 1.9-1.1 3.1-1.1.9 0 1.6.2 2.1.7.6.4.8 1.1.8 2.1v4.7zm-1.6-2.7v-.6h-1.7c-1.1 0-1.7.3-1.7 1 0 .4.1.6.4.8.3.2.7.3 1.2.3s.9-.1 1.3-.4c.3-.3.5-.6.5-1.1zm7.6-3.2c-.8 0-1.3.2-1.7.7-.4.5-.6 1.2-.6 2v3.1h-1.6v-7.3h1.6v1.5c.1-.2.3-.4.4-.6.2-.2.4-.4.6-.5.4-.3.9-.4 1.4-.5l-.1 1.6zm3.6-.2v3.7c0 .3.1.6.3.8.1.1.2.1.3.2.1 0 .1.1.2.1h.4c.2 0 .3 0 .5-.1s.3-.2.5-.4l.6 1.1c-.5.5-1.2.7-1.8.7-.7 0-1.2-.2-1.7-.7-.5-.5-.7-1.1-.7-1.8V120h-.9v-1.2h.9v-2.3h1.6v2.3h1.9v1.2h-2.1zm-22 16.2c0 1.6-.7 2.6-2.1 3l2.5 3.5h-2.1l-2.3-3.2h-2.1v3.2h-1.6V133h3.6c1.5 0 2.5.2 3.2.7.6.6.9 1.4.9 2.5zm-2.2 1.3c.3-.3.5-.7.5-1.4 0-.6-.2-1.1-.5-1.3-.3-.2-1-.4-1.8-.4h-2.1v3.4h2c1 .2 1.6 0 1.9-.3zm11.2 2.2h-5.8c0 .5.3 1 .7 1.3.5.3 1 .5 1.6.5.9 0 1.6-.3 2.1-.9l.9 1c-.8.8-1.8 1.2-3.1 1.2-1 0-1.9-.3-2.6-1-.7-.7-1.1-1.6-1.1-2.8 0-1.2.4-2.1 1.1-2.8.7-.7 1.6-1 2.6-1s1.9.3 2.6.9c.7.6 1.1 1.4 1.1 2.5v1.1zm-5.8-1.2h4.2c0-.6-.2-1.1-.6-1.4-.4-.3-.9-.5-1.4-.5-.6 0-1.1.2-1.5.5-.3.2-.5.5-.6.8-.1.2-.1.4-.1.6zm9.1.2v4H175v-7.3h1.6v1.3c.2-.5.6-.8 1-1.1.3-.1.5-.3.8-.3.2 0 .4-.1.6-.1.8 0 1.5.3 2 .8s.8 1.2.8 2.2v4.5h-1.6v-4c0-1.4-.6-2-1.7-2-.2 0-.5 0-.7.1-.3.1-.5.2-.7.4-.3.3-.5.8-.5 1.5zm9.2-2.1v3.7c0 .2 0 .3.1.4 0 .2.1.3.2.4.1.1.2.2.3.2.1.1.3.1.5.1.3 0 .7-.2 1-.5l.6 1.1c-.2.2-.4.3-.6.4-.4.2-.8.3-1.2.3-.7 0-1.2-.2-1.7-.7-.5-.5-.7-1.1-.7-1.8v-3.7h-.9v-1.2h.9V133h1.6v2.3h1.9v1.2h-2zm9.8 6.1h-1.4v-1c-.6.7-1.4 1.1-2.5 1.1-.3 0-.5 0-.8-.1-.2-.1-.5-.1-.7-.3-.2-.1-.3-.2-.4-.3-.5-.4-.7-1-.7-1.7s.3-1.3.8-1.6c.5-.4 1.3-.5 2.2-.5h2v-.3c0-1-.5-1.5-1.6-1.5-.7 0-1.4.2-2.1.7l-.7-1c.9-.7 1.9-1.1 3-1.1.9 0 1.6.2 2.1.7.6.4.8 1.1.8 2.1v4.8zm-1.5-2.7v-.6h-1.7c-1.1 0-1.7.3-1.7 1 0 .4.1.6.4.8.1 0 .1.1.2.1.2.1.6.2.9.2.5 0 .9-.1 1.3-.4.4-.3.6-.7.6-1.1zm5.3 2.7h-1.6v-10.2h1.6v10.2zm-31-41.8l1.4 1.4c.3.3.5.5.5.9 0 .5-.4.9-1 .9h-1v5.7c0 .5-.4.9-1 .9h-2.9V106c0-.5-.4-.9-1-.9h-1.9c-.5 0-1 .4-1 .9v4.7h-2.9c-.5 0-1-.4-1-.9v-5.7h-1c-.5 0-1-.4-1-.9 0-.4.2-.6.5-.9l6.1-6.1.1-.1c.2-.2.5-.4.9-.4.3 0 .5.1.7.3.1.1.2.2.3.2l1.9 1.9v-.5c0-.5.4-.9 1-.9h1c.5 0 1 .4 1 .9v3.3z"/>
        <path fill="#0E64B5" d="M53.9 111.6c1 0 1.8.2 2.3.6.5.4.7 1 .7 1.8s-.2 1.4-.7 1.8c-.5.4-1.2.6-2.2.6h-1.2v2h-1.1v-6.7h2.2zm.1 3.8c.6 0 1.1-.1 1.3-.4.2-.2.3-.6.3-1.1 0-.5-.1-.8-.4-1s-.7-.3-1.4-.3h-1.2v2.7H54zm8.1 3h-1v-.7c-.4.5-1 .8-1.7.8-.5 0-1-.2-1.3-.5-.3-.3-.5-.7-.5-1.2s.2-.9.6-1.1c.4-.3.9-.4 1.5-.4H61v-.2c0-.7-.4-1-1.1-1-.5 0-1 .2-1.5.5l-.5-.7c.6-.5 1.3-.7 2.1-.7.6 0 1.1.2 1.5.5.4.3.6.8.6 1.4v3.3zm-1.1-1.9v-.5h-1.2c-.8 0-1.2.2-1.2.7 0 .3.1.4.3.6.2.1.5.2.8.2.3 0 .7-.1.9-.3s.4-.4.4-.7zm3.2 3.9c-.5 0-.9-.2-1.3-.5l.5-.9c.2.2.5.3.7.3.2 0 .4-.1.6-.3.2-.2.2-.4.2-.6 0-.1-.7-1.9-2.1-5.3H64l1.5 3.8 1.5-3.8h1.2l-2.5 6.1c-.1.3-.4.6-.6.8-.2.3-.5.4-.9.4zm10.7-2h-3v-6.7h2.6c.5 0 .9.1 1.2.2.3.1.6.3.7.4.3.3.5.7.5 1.2s-.2.9-.5 1.2c-.1.1-.2.1-.3.2 0 0-.1.1-.2.1.4.1.8.3 1 .6.3.3.4.6.4 1.1 0 .5-.2.9-.5 1.2-.3.3-.9.5-1.9.5zm-1.8-4h1.5c.8 0 1.2-.3 1.2-.8 0-.3-.1-.6-.3-.7-.2-.1-.5-.2-.9-.2h-1.5v1.7zm0 2.9h1.8c.4 0 .7-.1 1-.2.2-.1.3-.4.3-.8 0-.6-.5-.9-1.4-.9h-1.7v1.9zm6.7 1.1h-1.1v-5.1h1.1v5.1zm-1.1-6.2c-.1-.1-.2-.3-.2-.5s.1-.3.2-.5c.1-.1.3-.2.5-.2s.3.1.5.2c.1.1.2.3.2.5s-.1.3-.2.5c-.1.1-.3.2-.5.2s-.3 0-.5-.2zm3.7 6.2h-1.1v-7.2h1.1v7.2zm2.7 0H84v-7.2h1.1v7.2z"/>
        <g>
            <path fill="#FFF" d="M0 0h260v460H0z"/>
            <linearGradient id="e" gradientUnits="userSpaceOnUse" x1="1.479" y1="462.805" x2="255.241" y2="7.067" gradientTransform="matrix(1 0 0 -1 0 462)">
                <stop offset="0" stop-color="#004da8"/>
                <stop offset="1" stop-color="#2e98d3"/>
            </linearGradient>
            <path fill="url(#e)" d="M0 0h260v460H0V0z"/>
            <path opacity=".1" fill="#FFF" d="M145.2 73.6c-2.3 0-4.2 1.9-4.2 4.1v81.4c0 2.3 1.9 4.1 4.2 4.1H227c2.3 0 4.2-1.9 4.2-4.1V77.7c0-2.3-1.9-4.1-4.2-4.1h-81.8zm74.2 16.1c2.8 0 5.1-2.3 5.1-5.1s-2.3-5.1-5.1-5.1-5.1 2.3-5.1 5.1 2.3 5.1 5.1 5.1z"/>
            <path opacity=".1" fill="#FFF" d="M145.2 185.9c-2.3 0-4.2 1.9-4.2 4.1v81.4c0 2.3 1.9 4.1 4.2 4.1H227c2.3 0 4.2-1.9 4.2-4.1V190c0-2.3-1.9-4.1-4.2-4.1h-81.8zm74.2 17.3c2.8 0 5.1-2.3 5.1-5.1s-2.3-5.1-5.1-5.1-5.1 2.3-5.1 5.1 2.3 5.1 5.1 5.1z"/>
            <path opacity=".1" fill="#FFF" d="M29.5 73.6c-2.3 0-4.2 1.9-4.2 4.1v81.4c0 2.3 1.9 4.1 4.2 4.1h81.8c2.3 0 4.2-1.9 4.2-4.1V77.7c0-2.3-1.9-4.1-4.2-4.1H29.5zm74.2 16.1c2.8 0 5.1-2.3 5.1-5.1s-2.3-5.1-5.1-5.1-5.1 2.3-5.1 5.1 2.3 5.1 5.1 5.1z"/>
            <path fill-opacity=".01" d="M0 1.4v13.8h260V1.4H0z"/>
            <path fill="#FFF" d="M253.9 4.8h-16.2c-.7 0-1.3.5-1.3 1.2v5.2c0 .7.6 1.2 1.3 1.2h16.2c.7 0 1.3-.5 1.3-1.2V6c-.1-.6-.6-1.2-1.3-1.2zM236.8 6c0-.4.4-.8.8-.8h16.2c.5 0 .8.4.8.8v5.2c0 .4-.4.8-.8.8h-16.2c-.5 0-.8-.4-.8-.8V6z"/>
            <path fill="#FFF" d="M237.5 5.6c-.2 0-.3.2-.3.3v5.3c0 .2.2.3.3.3h6.6v-6h-6.6z"/>
            <path fill="#FFF" d="M256.5 8.6c0 .7-.5 1.3-1 1.4V7.2c.6.1 1 .7 1 1.4z"/>
            <path fill="#FFF" d="M213.8 11.9c1.4 0 2.4-.9 2.4-2.3 0-1.3-.9-2.3-2.2-2.3-.6 0-1.1.2-1.4.6h-.1l.2-2.2h3.1v-.8H212l-.4 3.9h.8c.3-.5.8-.8 1.4-.8.9 0 1.5.6 1.5 1.6s-.6 1.6-1.5 1.6c-.8 0-1.4-.5-1.5-1.2h-.8c.1 1.1 1 1.9 2.3 1.9zm6.1 0c1.4 0 2.5-.8 2.5-2 0-.9-.6-1.6-1.4-1.7v-.1c.7-.2 1.1-.8 1.1-1.5 0-1.1-.9-1.8-2.2-1.8-1.3 0-2.2.8-2.2 1.8 0 .7.4 1.3 1.1 1.5v.1c-.9.2-1.4.8-1.4 1.7 0 1.2 1 2 2.5 2zm0-.7c-.9 0-1.6-.5-1.6-1.3s.7-1.3 1.6-1.3c.9 0 1.6.5 1.6 1.3 0 .7-.7 1.3-1.6 1.3zm0-3.4c-.8 0-1.3-.5-1.3-1.2s.5-1.2 1.3-1.2 1.3.5 1.3 1.2-.5 1.2-1.3 1.2zm11.6 3.4c-.4 0-.7-.4-.7-1s.3-1 .7-1c.4 0 .7.4.7 1s-.3 1-.7 1zm0 .6c.9 0 1.5-.7 1.5-1.6 0-1-.6-1.6-1.5-1.6s-1.5.7-1.5 1.6c.1 1 .7 1.6 1.5 1.6zm-3.9-3.7c.9 0 1.5-.7 1.5-1.6 0-1-.6-1.6-1.5-1.6s-1.5.7-1.5 1.6c0 .9.6 1.6 1.5 1.6zm-.1 3.6l2.3-3.2 2.7-3.6h-.9l-2.4 3.3-2.6 3.5h.9zm.1-4.2c-.4 0-.7-.4-.7-1s.3-1 .7-1c.4 0 .7.4.7 1s-.3 1-.7 1z"/>
            <path opacity=".45" fill="#FFF" d="M204.1 11.6V9.2l1.2 1.3-1.2 1.1zm1.2-4.8L204.1 8V5.7l1.2 1.1zm-.9 1.8l1.8-1.8-2.7-2.6h-.1v3.7L201.5 6l-.5.6 2.2 2.2L201 11l.5.6 1.9-1.9v3.7h.1l2.7-2.7-1.8-2.1z"/>
            <path fill="#FFF" d="M106.8 8.3c0-.4.3-.7.7-.7h4.2c.4 0 .7.3.7.7V11c0 .4-.3.7-.7.7h-4.2c-.4 0-.7-.3-.7-.7V8.3z"/>
            <path fill="#FFF" d="M109.5 4.8c-1.1 0-2.1.9-2.1 2.1V9h.7V6.9c0-.8.6-1.4 1.4-1.4s1.4.6 1.4 1.4V9h.7V6.9c0-1.1-.9-2.1-2.1-2.1z"/>
            <path fill="#FFF" d="M120.9 11.9c1.5 0 2.4-1.3 2.4-3.5 0-2.3-.9-3.6-2.4-3.6s-2.4 1.3-2.4 3.6c0 2.2.9 3.5 2.4 3.5zm0-.8c-1 0-1.6-1-1.6-2.8 0-1.8.6-2.8 1.6-2.8s1.6 1 1.6 2.8c0 1.8-.6 2.8-1.6 2.8zm5.9.8c1.7 0 2.6-1.3 2.6-3.7 0-.7-.1-1.4-.3-1.9-.4-1-1.2-1.5-2.2-1.5-1.4 0-2.4 1-2.4 2.3 0 1.3.9 2.3 2.2 2.3.8 0 1.5-.4 1.8-1 0 1.8-.7 2.8-1.8 2.8-.7 0-1.2-.4-1.4-1h-.9c.4 1 1.2 1.7 2.4 1.7zm0-3.3c-.9 0-1.5-.6-1.5-1.6 0-.9.7-1.6 1.5-1.6s1.5.7 1.5 1.6c.1 1-.5 1.6-1.5 1.6zm3.9 1.8c0 .4.3.7.7.7.4 0 .7-.3.7-.7 0-.4-.3-.7-.7-.7-.4 0-.7.3-.7.7zm0-3.7c0 .4.3.7.7.7.4 0 .7-.3.7-.7 0-.4-.3-.7-.7-.7-.4 0-.7.3-.7.7zm2.8.1h.8c0-.8.5-1.3 1.3-1.3s1.3.5 1.3 1.2c0 .5-.2.9-1.1 1.9l-2.4 2.6v.6h4.4V11h-3.2v-.1l1.6-1.8c1.1-1.2 1.4-1.7 1.4-2.5 0-1.1-.9-1.9-2.2-1.9-1 .1-1.9.9-1.9 2.1zm8.9 4.9h.8v-1.4h1v-.7h-1V4.9H142c-1.2 1.8-2.3 3.5-2.9 4.6v.8h3.3v1.4zm-2.5-2.2c.8-1.4 1.7-2.8 2.4-3.8h.1v3.9l-2.5-.1z"/>
            <path fill="#FFF" d="M55.8 6.1c1.7 0 3.2.6 4.4 1.6l.8-.9c-1.4-1.2-3.2-2-5.2-2s-3.8.8-5.2 2l.8.9c1.2-1 2.7-1.6 4.4-1.6zm0 2.5c1 0 1.9.4 2.6.9l.9-.9c-.9-.8-2.2-1.3-3.5-1.3-1.3 0-2.6.5-3.5 1.3l.9.9c.7-.5 1.6-.9 2.6-.9zm1.8 1.9c-.5-.4-1.1-.7-1.8-.7s-1.3.3-1.8.7l1.8 1.9 1.8-1.9z"/>
            <path fill="#FFF" d="M42 9.1v-.8h-2.8V9h1.9v.2c0 1.2-.8 1.9-2.1 1.9-1.4 0-2.2-1.1-2.2-2.8 0-1.7.9-2.8 2.2-2.8 1 0 1.7.5 2 1.4h.9c-.2-1.3-1.3-2.2-2.9-2.2-1.9 0-3.1 1.4-3.1 3.6s1.2 3.6 3.1 3.6c1.8 0 3-1.1 3-2.8zm.9.8c.1 1.2 1.1 1.9 2.5 1.9 1.6 0 2.6-.8 2.6-2 0-1-.6-1.5-2-1.9l-.7-.2c-1-.2-1.3-.5-1.3-1 0-.7.6-1.1 1.5-1.1s1.4.4 1.5 1.1h.9c-.1-1.1-1.1-1.9-2.4-1.9-1.4 0-2.4.8-2.4 1.9 0 1 .5 1.5 1.8 1.8l.9.2c.9.2 1.4.6 1.4 1.2 0 .7-.7 1.2-1.6 1.2-1 0-1.7-.5-1.8-1.2h-.9z"/>
            <path fill="#FFF" d="M28.8 8.3c0 1.3 1.1 2.4 2.4 2.4 1.3 0 2.4-1.1 2.4-2.4s-1.1-2.4-2.4-2.4c-1.3 0-2.4 1-2.4 2.4zm4.4 0c0 1.1-.9 2-2 2s-2-.9-2-2 .9-2 2-2 2 .9 2 2z"/>
            <path fill="#FFF" d="M22.9 8.3c0 1.3 1.1 2.4 2.4 2.4 1.3 0 2.4-1.1 2.4-2.4s-1.1-2.4-2.4-2.4c-1.3 0-2.4 1-2.4 2.4zm4.4 0c0 1.1-.9 2-2 2s-2-.9-2-2 .9-2 2-2 2 .9 2 2z"/>
            <path fill="#FFF" d="M19.4 10.7c1.3 0 2.4-1.1 2.4-2.4s-1.1-2.4-2.4-2.4-2.4 1-2.4 2.4 1.1 2.4 2.4 2.4z"/>
            <path fill="#FFF" d="M13.5 10.7c1.3 0 2.4-1.1 2.4-2.4s-1.1-2.4-2.4-2.4-2.4 1.1-2.4 2.4 1.1 2.4 2.4 2.4z"/>
            <path fill="#FFF" d="M7.6 10.7c1.3 0 2.4-1.1 2.4-2.4S9 5.9 7.6 5.9s-2.4 1-2.4 2.4 1.1 2.4 2.4 2.4z"/>
            <path fill="#CCE134" d="M28.2 424.5l-2.2-3.8 2.2-3.8h4.4l2.2 3.8-2.2 3.8h-4.4z"/>
            <path fill="#F3922B" d="M34.8 420.7l-2.2-3.8 2.2-3.8h4.4l2.2 3.8-2.2 3.8h-4.4z"/>
            <path fill="#DC3348" d="M41.4 424.5l-2.2-3.8 2.2-3.8h4.4l2.2 3.8-2.2 3.8h-4.4z"/>
            <path fill="#01B49E" d="M28.3 432.1l-2.2-3.8 2.2-3.8h4.4l2.2 3.8-2.2 3.8h-4.4z"/>
            <path fill="#A0A01C" d="M34.9 435.9l-2.2-3.8 2.2-3.8h4.4l2.2 3.8-2.2 3.8h-4.4z"/>
            <path fill="#3C7D90" d="M41.4 432.1l-2.2-3.8 2.2-3.8h4.4l2.2 3.8-2.2 3.8h-4.4z"/>
            <path fill="#FFF" d="M65.2 347.5h7.6v1.5H61.2v-1.5h2.3v-6.9h-2.3v-1h2.3v-3.2c0-1.7.4-3 1.3-4 .9-.9 2.1-1.4 3.7-1.4.9 0 1.8.2 2.6.6.8.4 1.5 1 2.2 1.8l-.8 1.3c-.5-.7-1.1-1.2-1.8-1.6-.6-.4-1.3-.6-2.1-.6-1.1 0-1.9.3-2.5 1-.6.6-.8 1.6-.8 2.8v3.2H70v1h-4.7v7zm22.4-.1v1.6H74.9v-1.5l7.1-7.3c.8-.9 1.5-1.7 1.9-2.5.5-.8.7-1.5.7-2.1 0-.9-.4-1.7-1.1-2.2-.7-.5-1.7-.8-2.9-.8-.9 0-1.7.2-2.6.6-.9.4-1.7.9-2.5 1.6l-.8-1.3c.9-.8 1.8-1.4 2.9-1.8 1.1-.4 2.1-.6 3.2-.6 1.7 0 3.1.4 4.1 1.2 1 .8 1.5 1.8 1.5 3.1 0 .8-.3 1.7-.9 2.7-.6 1-1.4 2-2.4 3.1l-6.1 6.3h10.6zm8.1-16.3h6.1V349H100v-16.3h-4.3v-1.6zm16.4 7.7c1.9.1 3.4.5 4.5 1.4 1.1.8 1.7 2 1.7 3.4 0 1.1-.3 2.1-.8 2.9-.5.8-1.3 1.5-2.4 2-1 .5-2.3.7-3.6.7-1.1 0-2.2-.2-3.3-.5-1.1-.3-2-.7-2.8-1.3l.8-1.4c.7.5 1.5.9 2.4 1.2.9.3 1.8.4 2.8.4 1.6 0 2.9-.4 3.8-1.1.9-.7 1.4-1.7 1.4-2.9s-.5-2.1-1.4-2.7c-.9-.6-2.2-.9-3.9-.9H109v-1.1l6.1-6.1h-8.9v-1.6h11.2v1.2l-6.4 6.4h1.1zm15.8-.8c1.3 0 2.4.2 3.4.7 1 .4 1.7 1.1 2.3 1.9.5.8.8 1.7.8 2.7 0 1.2-.3 2.2-.8 3.1-.5.9-1.3 1.6-2.3 2.1-1 .5-2.1.7-3.5.7-1 0-2.1-.2-3.3-.5-1.1-.4-2.1-.8-3.1-1.4l.7-1.4c.8.5 1.7 1 2.6 1.3 1 .3 1.9.5 2.8.5 1.5 0 2.7-.4 3.5-1.1.9-.8 1.3-1.8 1.3-3.1 0-1.2-.4-2.1-1.3-2.7-.9-.7-2.1-1-3.6-1-.6 0-1.4.1-2.4.2-.9.1-1.7.2-2.4.4v-9h10.9v1.6h-9.2v5.6c.5-.1 1.1-.2 1.7-.2.9-.4 1.4-.4 1.9-.4zm10 8.8c.3 0 .6.1.8.3.2.2.3.5.3.8s-.1.6-.3.8c-.2.2-.5.3-.8.3-.3 0-.6-.1-.8-.3-.2-.2-.3-.5-.3-.8 0-.3.1-.6.3-.8.2-.1.5-.3.8-.3zM157 331c2.4 0 4.2.8 5.5 2.3 1.3 1.5 1.9 3.8 1.9 6.7s-.6 5.1-1.9 6.7c-1.3 1.6-3.1 2.3-5.5 2.3s-4.2-.8-5.5-2.3c-1.3-1.6-1.9-3.8-1.9-6.7s.6-5.1 1.9-6.7c1.3-1.5 3.1-2.3 5.5-2.3zm0 1.4c-1.8 0-3.2.6-4.1 1.9-.9 1.3-1.4 3.2-1.4 5.7s.5 4.4 1.4 5.7c.9 1.3 2.3 1.9 4.1 1.9 1.8 0 3.2-.6 4.1-1.9 1-1.3 1.4-3.2 1.4-5.7s-.5-4.4-1.4-5.7c-.9-1.2-2.3-1.9-4.1-1.9zm18.3-1.4c2.4 0 4.2.8 5.5 2.3 1.3 1.5 1.9 3.8 1.9 6.7s-.6 5.1-1.9 6.7c-1.3 1.6-3.1 2.3-5.5 2.3s-4.2-.8-5.5-2.3c-1.3-1.6-1.9-3.8-1.9-6.7s.6-5.1 1.9-6.7c1.4-1.5 3.2-2.3 5.5-2.3zm0 1.4c-1.8 0-3.2.6-4.1 1.9-.9 1.3-1.4 3.2-1.4 5.7s.5 4.4 1.4 5.7c.9 1.3 2.3 1.9 4.1 1.9 1.8 0 3.2-.6 4.1-1.9 1-1.3 1.4-3.2 1.4-5.7s-.5-4.4-1.4-5.7c-.9-1.2-2.2-1.9-4.1-1.9z"/>
            <path fill="#FFF" d="M61.7 356h4.5v.6h-3.9v2.4h3.5v.6h-3.5v2.5h4v.6h-4.7V356zm12.4 6.8l-.8-1.8h-3.8l-.8 1.8H68l3-6.8h.7l3.1 6.7h-.7zm-4.3-2.4H73l-1.6-3.6-1.6 3.6zm11.6 2.4l-1.5-2.2h-2.4v2.2h-.7V356h2.5c.8 0 1.5.2 2 .6.5.4.7.9.7 1.7 0 .6-.1 1-.4 1.4-.3.4-.7.6-1.2.8l1.6 2.3h-.6zm-2-2.8c.6 0 1.1-.1 1.5-.4.3-.3.5-.7.5-1.3 0-.5-.2-1-.5-1.2s-.8-.4-1.5-.4h-1.9v3.4h1.9zm10.4-4h.7v6.7h-.7l-4.2-5.7v5.7h-.7V356h.7l4.2 5.7V356zm3.8 0h.7v6.7h-.7V356zm8.7 0h.7v6.7h-.7L98 357v5.7h-.7V356h.7l4.2 5.7V356zm8.5 3.5h.6v2.5c-.3.3-.7.5-1.2.7-.4.2-.9.2-1.3.2-.6 0-1.2-.2-1.8-.5-.5-.3-1-.7-1.3-1.3-.3-.5-.5-1.1-.5-1.7s.2-1.2.5-1.7.7-.9 1.3-1.2c.5-.3 1.1-.5 1.8-.5.5 0 .9.1 1.3.2.4.2.8.4 1.1.7l-.4.5c-.3-.3-.6-.5-1-.6-.4-.1-.7-.2-1.1-.2-.5 0-1 .1-1.4.4-.4.3-.8.6-1 1-.3.4-.4.9-.4 1.4 0 .5.1 1 .4 1.4.3.4.6.8 1 1 .4.3.9.4 1.5.4.3 0 .6-.1 1-.2.3-.1.6-.3.9-.5v-2zm7.3-2.4c-.3-.2-.6-.3-.9-.4-.3-.1-.6-.1-.9-.1-.5 0-.8.1-1.1.3-.3.2-.4.4-.4.7 0 .3.1.5.2.7.2.2.3.3.6.4.2.1.5.2.9.3.5.1.8.3 1.1.4.3.1.5.3.7.6.2.3.3.6.3 1s-.1.7-.3 1c-.2.3-.5.5-.9.6-.4.1-.8.2-1.3.2s-.9-.1-1.4-.3c-.4-.2-.8-.4-1.2-.7l.3-.6c.3.3.7.5 1.1.7.4.2.8.3 1.2.3.5 0 .9-.1 1.2-.3.3-.2.5-.5.5-.8 0-.3-.1-.5-.2-.7-.2-.2-.3-.3-.6-.4-.2-.1-.5-.2-1-.3-.5-.1-.8-.3-1.1-.4-.3-.1-.5-.3-.7-.6-.2-.3-.3-.6-.3-1 0-.3.1-.6.3-.9.2-.3.5-.5.8-.6.3-.1.8-.2 1.2-.2.4 0 .7.1 1.1.2.4.1.7.3 1 .4l-.2.5zm5.8-1.1h5.2v.6h-2.2v6.2h-.7v-6.2H124v-.6zm7.3 0h.7v3.1h4.2V356h.7v6.7h-.7v-3.1h-4.2v3.1h-.7V356zm8.7 0h.7v6.7h-.7V356zm7.5 1.1c-.3-.2-.6-.3-.9-.4-.3-.1-.6-.1-.9-.1-.5 0-.8.1-1.1.3-.3.2-.4.4-.4.7 0 .3.1.5.2.7.2.2.3.3.6.4.2.1.5.2.9.3.5.1.8.3 1.1.4.3.1.5.3.7.6.2.3.3.6.3 1s-.1.7-.3 1c-.2.3-.5.5-.9.6-.4.1-.8.2-1.3.2s-.9-.1-1.4-.3c-.4-.2-.8-.4-1.2-.7l.3-.6c.3.3.7.5 1.1.7.4.2.8.3 1.2.3.5 0 .9-.1 1.2-.3.3-.2.5-.5.5-.8 0-.3-.1-.5-.2-.7-.2-.2-.3-.3-.6-.4-.2-.1-.5-.2-1-.3-.5-.1-.8-.3-1.1-.4-.3-.1-.5-.3-.7-.6-.2-.3-.3-.6-.3-1 0-.3.1-.6.3-.9.2-.3.5-.5.8-.6.3-.1.8-.2 1.2-.2.4 0 .7.1 1.1.2.4.1.7.3 1 .4l-.2.5zm6.8-1.1h.8l2.7 5.1 2.6-5.1h.8v6.8h-.6V357l-2.7 5.1h-.4l-2.7-5.1v5.8h-.6V356zm12.9 0c.6 0 1.2.2 1.8.5.5.3 1 .7 1.3 1.2.3.5.5 1.1.5 1.7s-.2 1.2-.5 1.7-.7.9-1.3 1.3c-.5.3-1.1.5-1.8.5-.6 0-1.2-.2-1.8-.5-.5-.3-1-.7-1.3-1.3-.3-.5-.5-1.1-.5-1.7s.2-1.2.5-1.7.7-.9 1.3-1.2c.6-.4 1.2-.5 1.8-.5zm0 .5c-.5 0-1 .1-1.4.4-.4.3-.8.6-1 1-.3.4-.4.9-.4 1.4s.1 1 .4 1.4c.3.4.6.8 1 1 .4.3.9.4 1.4.4.5 0 1-.1 1.4-.4.4-.3.8-.6 1-1 .3-.4.4-.9.4-1.4s-.1-1-.4-1.4c-.3-.4-.6-.8-1-1-.4-.2-.9-.4-1.4-.4zm10.9-.5h.7v6.7h-.7l-4.2-5.7v5.7h-.7V356h.7l4.2 5.7V356zm2.8 0h5.2v.6h-2.2v6.2h-.7v-6.2h-2.2v-.6zm7.3 0h.7v3.1h4.2V356h.7v6.7h-.7v-3.1h-4.2v3.1h-.7V356z"/>
            <path fill="#49FF95" d="M193.5 347.3v-12.7l4.4 4.4c.3.3.8.3 1.2 0 .3-.3.3-.8 0-1.2l-5.8-5.8-.1-.1h-.1-.1-.1-.5-.1-.1-.1-.1l-.1.1-5.8 5.8c-.3.3-.3.8 0 1.2.3.3.8.3 1.2 0l4.4-4.4v12.7c0 .4.4.8.8.8.7 0 1-.3 1-.8z"/>
            <path fill="#FFF" fill-opacity=".8" d="M223.6 416h-4.1c-.4-1.1-1.5-1.9-2.8-1.9-1.3 0-2.4.8-2.8 1.9h-4.1c-1.1 0-2 .9-2 1.9v13.3c0 1.1.9 1.9 2 1.9h13.7c1.1 0 2-.9 2-1.9v-13.3c0-1.1-.8-1.9-1.9-1.9zm-6.9 0c.5 0 1 .4 1 1 0 .5-.4 1-1 1-.5 0-1-.4-1-1s.5-1 1-1zm3.9 11.4h-3.9v2.9l-4.9-4.8 4.9-4.8v2.9h3.9v3.8z"/>
            <path fill="none" stroke="#FFF" stroke-opacity=".1" d="M238.5 292.8H17.3"/>
            <path fill="none" stroke="#FFF" stroke-opacity=".1" d="M238.5 397H17.3"/>
            <path fill="#FFF" d="M47.7 104.1c-.9 0-1.6-.7-1.6-1.6v-2.3c0-.4-.3-.6-.7-.6h-5.2c-1.4 0-2.6 1.2-2.6 2.6v9.1c0 1.4 1.2 2.6 2.6 2.6H48c1.4 0 2.6-1.2 2.6-2.6v-6.5c0-.4-.3-.6-.7-.6h-2.2zm-2.3 5.9h-3.9c-.4 0-.7-.3-.7-.6s.3-.6.7-.6h3.9c.4 0 .7.3.7.6s-.3.6-.7.6zm1.3-2.6h-5.2c-.4 0-.7-.3-.7-.6 0-.4.3-.6.7-.6h5.2c.4 0 .7.3.7.6s-.3.6-.7.6z"/>
            <path fill="#FFF" d="M45.1 244.6l-2.3-3.5H39.2v3.4h-1.1V234h4c1.3 0 2.4.3 3.1.9.7.6 1.1 1.5 1.1 2.6 0 .9-.2 1.6-.6 2.2-.4.6-1 1-1.8 1.2l2.6 3.7h-1.4zm-3-4.3c1 0 1.8-.2 2.3-.7.5-.5.8-1.1.8-2 0-.8-.3-1.5-.8-1.9-.5-.4-1.3-.7-2.3-.7h-2.9v5.3h2.9zm9.9-3.6c1.2 0 2.2.4 2.8 1.2.7.8 1 1.8.9 3.2H49c.1.8.4 1.5.9 2.1.6.5 1.3.8 2.1.8.5 0 1-.1 1.4-.3.4-.2.8-.4 1.1-.8l.6.6c-.4.4-.9.7-1.4 1-.5.2-1.1.3-1.8.3-.8 0-1.5-.2-2.1-.5-.6-.3-1.1-.8-1.4-1.4-.3-.6-.5-1.3-.5-2.1s.2-1.5.5-2.1c.3-.6.8-1.1 1.4-1.4.8-.5 1.5-.6 2.2-.6zm2.8 3.5c-.1-.8-.3-1.5-.8-2s-1.2-.7-2-.7-1.5.2-2 .7c-.5.5-.8 1.2-.9 2h5.7zm7.4-3.5c.7 0 1.4.2 2 .5.6.3 1 .8 1.4 1.4.3.6.5 1.3.5 2.1s-.2 1.5-.5 2.1c-.3.6-.8 1.1-1.4 1.4-.6.3-1.2.5-2 .5-.7 0-1.4-.2-1.9-.5s-1-.8-1.3-1.4v4.8h-1v-10.9h1v1.8c.3-.6.7-1 1.3-1.4.5-.3 1.2-.4 1.9-.4zm-.2 7.1c.6 0 1.1-.1 1.5-.4.5-.3.8-.6 1.1-1.1.3-.5.4-1 .4-1.6 0-.6-.1-1.1-.4-1.6-.3-.5-.6-.8-1.1-1.1-.5-.3-1-.4-1.5-.4-.6 0-1.1.1-1.6.4-.4.3-.8.6-1.1 1.1-.3.5-.4 1-.4 1.6 0 .6.1 1.1.4 1.6.3.5.6.8 1.1 1.1.5.3 1 .4 1.6.4zm11.2.8v-1.3c-.3.5-.7.8-1.2 1-.5.2-1.1.3-1.8.3-.5 0-1-.1-1.4-.3-.4-.2-.7-.5-.9-.9-.2-.4-.3-.8-.3-1.2 0-.7.3-1.2.8-1.6.5-.4 1.3-.6 2.2-.6h2.7v-.6c0-.6-.2-1.1-.6-1.5-.4-.3-.9-.5-1.6-.5-.9 0-1.7.3-2.6 1l-.5-.7c.5-.4 1.1-.6 1.5-.8.5-.2 1-.3 1.7-.3 1 0 1.7.2 2.2.7.5.5.8 1.1.8 2v5.3h-1zm-2.8-.8c.7 0 1.3-.2 1.8-.5s.8-.8 1-1.4v-1.1h-2.6c-.7 0-1.2.1-1.6.3-.4.2-.5.6-.5 1 0 .5.2.9.5 1.2.3.4.8.5 1.4.5zm6.5-7.1h1v8h-1v-8zm.6-3c.2 0 .4.1.5.2.1.1.2.3.2.5s-.1.4-.2.5c-.1.1-.3.2-.5.2s-.4-.1-.5-.2c-.1-.1-.2-.3-.2-.5s.1-.4.2-.5c.1-.1.3-.2.5-.2zm4.5 4.8c.3-.6.6-1.1 1.1-1.4.5-.3 1.1-.5 1.8-.5v1c-.8 0-1.5.2-2 .7-.5.5-.8 1.2-.9 2v4.2h-1v-8h1v2zm-39.7 21.6c0 1-.3 1.8-.8 2.4-.5.5-1.2.8-2.2.8-.6 0-1.1-.1-1.6-.4-.5-.3-.9-.6-1.3-1.1l.5-.8c.3.4.7.7 1.1 1 .4.2.8.3 1.3.3.6 0 1.1-.2 1.4-.6.3-.4.5-.9.5-1.6v-6.5h-3.8v-1h4.9v7.5zm6.1-4.8c.8 0 1.5.2 2.1.5.6.3 1.1.8 1.4 1.4.3.6.5 1.3.5 2.1s-.2 1.5-.5 2.1c-.3.6-.8 1.1-1.4 1.4-.6.3-1.3.5-2.1.5s-1.5-.2-2.1-.5c-.6-.3-1.1-.8-1.4-1.4-.3-.6-.5-1.3-.5-2.1s.2-1.5.5-2.1c.3-.6.8-1.1 1.4-1.4.6-.4 1.3-.5 2.1-.5zm0 .9c-.6 0-1.1.1-1.6.4-.5.3-.8.6-1.1 1.1-.3.5-.4 1-.4 1.6 0 .6.1 1.2.4 1.6.3.5.6.8 1.1 1.1.5.3 1 .4 1.6.4.6 0 1.1-.1 1.6-.4.5-.3.8-.6 1.1-1.1.3-.5.4-1 .4-1.6 0-.6-.1-1.1-.4-1.6-.3-.5-.6-.8-1.1-1.1-.5-.3-1-.4-1.6-.4zm10.5-.9c.7 0 1.4.2 2 .5.6.3 1 .8 1.4 1.4.3.6.5 1.3.5 2.1s-.2 1.5-.5 2.1c-.3.6-.8 1.1-1.4 1.4-.6.3-1.2.5-2 .5-.7 0-1.4-.2-1.9-.5s-1-.8-1.3-1.4v1.8h-1V252h1v5.1c.3-.6.7-1 1.3-1.4.5-.3 1.2-.4 1.9-.4zm-.2 7.1c.6 0 1.1-.1 1.5-.4.5-.3.8-.6 1.1-1.1.3-.5.4-1 .4-1.6 0-.6-.1-1.1-.4-1.6-.3-.5-.6-.8-1.1-1.1-.5-.3-1-.4-1.5-.4-.6 0-1.1.1-1.6.4-.4.3-.8.6-1.1 1.1-.3.5-.4 1-.4 1.6 0 .6.1 1.1.4 1.6s.6.8 1.1 1.1c.5.3 1 .4 1.6.4z"/>
            <path fill="#FFF" d="M160.9 236.2c-.4-.4-.9-.7-1.5-1-.6-.2-1.1-.3-1.7-.3-.8 0-1.6.2-2.3.6-.7.4-1.2.9-1.6 1.6-.4.7-.6 1.4-.6 2.2 0 .8.2 1.6.6 2.2.4.7 1 1.2 1.6 1.6.7.4 1.4.6 2.3.6.6 0 1.2-.1 1.7-.3.6-.2 1.1-.6 1.5-1l.6.7c-.5.5-1.1.9-1.8 1.2-.7.3-1.4.4-2.1.4-1 0-1.9-.2-2.8-.7-.8-.5-1.5-1.1-2-2-.5-.8-.7-1.7-.7-2.7 0-1 .2-1.9.7-2.7.5-.8 1.2-1.5 2-1.9.9-.5 1.8-.7 2.8-.7.7 0 1.4.1 2.1.4.7.3 1.3.6 1.8 1.1l-.6.7zm5.7.5c.8 0 1.5.2 2.1.5.6.3 1.1.8 1.4 1.4.3.6.5 1.3.5 2.1s-.2 1.5-.5 2.1c-.3.6-.8 1.1-1.4 1.4-.6.3-1.3.5-2.1.5s-1.5-.2-2.1-.5c-.6-.3-1.1-.8-1.4-1.4-.3-.6-.5-1.3-.5-2.1s.2-1.5.5-2.1c.3-.6.8-1.1 1.4-1.4.7-.4 1.4-.5 2.1-.5zm0 .8c-.6 0-1.1.1-1.6.4-.5.3-.8.6-1.1 1.1-.3.5-.4 1-.4 1.6 0 .6.1 1.2.4 1.6.3.5.6.8 1.1 1.1.5.3 1 .4 1.6.4.6 0 1.1-.1 1.6-.4.5-.3.8-.6 1.1-1.1.3-.5.4-1 .4-1.6 0-.6-.1-1.1-.4-1.6-.3-.5-.6-.8-1.1-1.1-.5-.2-1-.4-1.6-.4zm6.3-4.1h1v11.3h-1v-11.3zm4.2 0h1v11.3h-1v-11.3zm7.2 3.3c1.2 0 2.2.4 2.8 1.2.7.8 1 1.8.9 3.2h-6.7c.1.8.4 1.5.9 2.1.6.5 1.3.8 2.1.8.5 0 1-.1 1.4-.3.4-.2.8-.4 1.1-.8l.6.6c-.4.4-.9.7-1.4 1-.5.2-1.1.3-1.8.3-.8 0-1.5-.2-2.1-.5-.6-.3-1.1-.8-1.4-1.4-.3-.6-.5-1.3-.5-2.1s.2-1.5.5-2.1c.3-.6.8-1.1 1.4-1.4.8-.5 1.4-.6 2.2-.6zm2.8 3.5c-.1-.8-.3-1.5-.8-2s-1.2-.7-2-.7-1.5.2-2 .7c-.5.5-.8 1.2-.9 2h5.7zm8.6-1.7c-.7-.6-1.4-.9-2.4-.9-.6 0-1.1.1-1.5.4-.5.3-.8.6-1.1 1.1-.3.5-.4 1-.4 1.6s.1 1.1.4 1.6c.3.5.6.8 1.1 1.1.5.3 1 .4 1.5.4s1-.1 1.4-.3c.4-.2.8-.4 1.1-.8l.6.6c-.4.4-.8.8-1.3 1-.5.2-1.1.3-1.8.3-.8 0-1.4-.2-2-.5-.6-.3-1.1-.8-1.4-1.4-.3-.6-.5-1.3-.5-2.1s.2-1.5.5-2.1c.3-.6.8-1.1 1.4-1.4.6-.3 1.3-.5 2-.5.6 0 1.2.1 1.7.3.5.2 1 .5 1.3.8l-.6.8zm7 5.6c-.5.4-1.1.6-1.8.6-.6 0-1.1-.2-1.4-.6-.4-.4-.5-.9-.5-1.7v-4.7h-1.1v-.8h1.2v-2h1v2h2.6v.8H200v4.6c0 1 .4 1.5 1.1 1.5.4 0 .8-.1 1.3-.4l.3.7zm-42.5 19.2l-2.3-3.5H154.3v3.4h-1.1v-10.6h4c1.3 0 2.4.3 3.1.9.7.6 1.1 1.5 1.1 2.6 0 .9-.2 1.6-.6 2.2-.4.6-1 1-1.8 1.2l2.6 3.7h-1.4zm-3-4.4c1 0 1.8-.2 2.3-.7.5-.5.8-1.1.8-2 0-.8-.3-1.5-.8-1.9s-1.3-.7-2.3-.7h-2.9v5.3h2.9zm10-3.6c1.2 0 2.2.4 2.8 1.2.7.8 1 1.8.9 3.2h-6.7c.1.8.4 1.5.9 2.1.6.5 1.3.8 2.1.8.5 0 1-.1 1.4-.3.4-.2.8-.4 1.1-.8l.6.6c-.4.4-.9.7-1.4 1-.5.2-1.1.3-1.8.3-.8 0-1.5-.2-2.1-.5-.6-.3-1.1-.8-1.4-1.4-.3-.6-.5-1.3-.5-2.1s.2-1.5.5-2.1c.3-.6.8-1.1 1.4-1.4.7-.5 1.4-.6 2.2-.6zm2.8 3.5c-.1-.8-.3-1.5-.8-2s-1.2-.7-2-.7-1.5.2-2 .7c-.5.5-.8 1.2-.9 2h5.7zm7.2-3.5c1 0 1.7.3 2.2.8.5.5.8 1.3.8 2.3v4.9h-1v-4.6c0-.7-.2-1.3-.6-1.8-.4-.4-1-.6-1.7-.6-.8 0-1.5.3-2 .8s-.8 1.2-.8 2v4.3h-1v-7.9h1v1.9c.3-.6.7-1.1 1.2-1.4.5-.6 1.1-.7 1.9-.7zm9.8 7.4c-.5.4-1.1.6-1.8.6-.6 0-1.1-.2-1.4-.6-.4-.4-.5-.9-.5-1.7v-4.7h-1.1v-.8h1.2v-2h1v2h2.6v.8h-2.6v4.6c0 1 .4 1.5 1.1 1.5.4 0 .8-.1 1.3-.4l.2.7z"/>
            <path fill="#FFF" fill-opacity=".02" d="M154.2 100.1h15.3v15.2h-15.3z"/>
            <path fill="#FFF" d="M42 121.7c1.3 0 2.3.3 3.1.9.7.6 1.1 1.5 1.1 2.6 0 1.2-.4 2.1-1.1 2.7-.7.6-1.7 1-3.1 1h-2.9v3.4H38v-10.6h4zm0 6.3c1 0 1.8-.2 2.3-.7.6-.5.8-1.1.8-2 0-.8-.3-1.5-.8-1.9-.5-.4-1.3-.7-2.4-.7h-2.8v5.3H42zm11.1 4.3V131c-.3.5-.7.8-1.2 1-.5.2-1.1.3-1.8.3-.5 0-1-.1-1.4-.3-.4-.2-.7-.5-.9-.9-.2-.4-.3-.8-.3-1.2 0-.7.3-1.2.8-1.6.5-.4 1.3-.6 2.2-.6h2.7v-.6c0-.6-.2-1.1-.6-1.5-.4-.3-.9-.5-1.6-.5-.9 0-1.7.3-2.6 1l-.5-.7c.5-.4 1.1-.6 1.5-.8.5-.2 1-.3 1.7-.3 1 0 1.7.2 2.2.7.5.5.8 1.1.8 2v5.3h-1zm-2.8-.8c.7 0 1.3-.2 1.8-.5s.8-.8 1-1.4v-1.1h-2.6c-.7 0-1.2.1-1.6.3-.4.2-.5.6-.5 1 0 .5.2.9.5 1.2.3.4.8.5 1.4.5zm8.6 2c-.2.6-.6 1.1-1 1.4-.4.3-.9.5-1.4.5-.6 0-1.2-.2-1.6-.5l.5-.8c.4.2.7.4 1.1.4.3 0 .6-.1.9-.3.3-.2.5-.5.7-.9l.3-.8-3.3-7.9h1.1l2.7 6.8 2.6-6.8h1.1l-3.7 8.9zm-16.4 6.8c1.1 0 1.9.2 2.5.7.6.5.9 1.1.9 1.9 0 .6-.2 1.2-.5 1.6-.3.4-.8.7-1.5.8.8.1 1.4.4 1.8.9.4.5.7 1.1.7 1.8 0 .9-.3 1.6-1 2.1s-1.6.8-2.8.8h-4.5v-10.6h4.4zm0 4.7c.8 0 1.3-.2 1.8-.5.4-.3.6-.8.6-1.4 0-.6-.2-1-.6-1.4-.4-.3-1-.5-1.8-.5h-3.4v3.7h3.4zm0 5c.9 0 1.6-.2 2.1-.5.5-.4.8-.9.8-1.5s-.3-1.1-.8-1.5c-.5-.4-1.2-.5-2.1-.5h-3.4v4.1h3.4zm6.4-7h1v8h-1v-8zm.5-3c.2 0 .4.1.5.2.1.1.2.3.2.5s-.1.4-.2.5c-.1.1-.3.2-.5.2s-.4-.1-.5-.2c-.1-.1-.2-.3-.2-.5s.1-.4.2-.5c.1-.1.3-.2.5-.2zm3.5-.3h1V151h-1v-11.3zm4.2 0h1V151h-1v-11.3z"/>
            <path fill="#FFF" d="M168.9 106.7l-1.4-1.4V102c0-.5-.4-.9-1-.9h-1c-.5 0-1 .4-1 .9v.5l-1.9-1.9c-.3-.2-.5-.5-1-.5s-.7.3-1 .5l-6.1 6.1c-.3.3-.5.5-.5.9 0 .5.4.9 1 .9h1v5.7c0 .5.4.9 1 .9h2.9v-4.7c0-.5.4-.9 1-.9h1.9c.5 0 1 .4 1 .9v4.7h2.9c.5 0 1-.4 1-.9v-5.7h1c.5 0 1-.4 1-.9-.3-.4-.5-.6-.8-.9z"/>
            <path opacity=".1" fill="#FFF" d="M29.5 185.9c-2.3 0-4.2 1.9-4.2 4.1v81.4c0 2.3 1.9 4.1 4.2 4.1h81.8c2.3 0 4.2-1.9 4.2-4.1V190c0-2.3-1.9-4.1-4.2-4.1H29.5zm74.2 16.1c2.8 0 5.1-2.3 5.1-5.1s-2.3-5.1-5.1-5.1-5.1 2.3-5.1 5.1 2.3 5.1 5.1 5.1z"/>
            <path fill="#FFF" d="M53.6 218.3l-2.4.9-1-.5-.4-1.1.5-1 2.4-.8c.3-.1.4-.4.1-.6 0 0-.3-.3-.8-.5-.4-.2-.9-.3-1.5-.3-2 0-3.7 1.6-3.7 3.6 0 .6.2 1 .2 1 .1.4-.2.7-.5 1l-5.9 5.3c-.7.7-.7 1.8 0 2.5s1.8.7 2.5 0l5.3-5.8c.3-.3.6-.6 1-.5 0 0 .4.2 1 .2 1 0 1.9-.4 2.6-1.1.3-.3.6-.7.7-1.1.2-.4.2-.7.2-.7.2-.5 0-.6-.3-.5zm-11.3 8.6c-.3.2-.7.2-.9 0-.3-.2-.3-.7 0-.9.3-.2.7-.2.9 0 .3.3.3.7 0 .9z"/>
            <path fill="#FFF" d="M155.6 226.5h-1.4v-8.3h1.4v8.3zm10.2-6.5l-1.8 1.7h-.9c.1-.2.1-.4.1-.7 0-1.1-.9-2.1-2.1-2.1h-3.4l-.8-.3v-1.1c0-.4-.3-.7-.7-.7h-2.8c-.4 0-.7.3-.7.7v9.7c0 .4.3.7.7.7h2.8c.4 0 .7-.3.7-.7v-.7h4.1c2 0 3.9-.6 5.5-1.6l.1-.1 2-2c.8-.8.8-2.1 0-2.9-.7-.7-2.1-.7-2.8.1z"/>
            <path fill="#FFF" d="M161.1 217.6c1.1 0 2.1-.9 2.1-2.1 0-1.1-.9-2.1-2.1-2.1s-2.1.9-2.1 2.1c0 1.1 1 2.1 2.1 2.1z"/>
            <path fill="#FFF" d="M160.5 124.2c-.4-.3-.9-.5-1.4-.6-.5-.2-1-.2-1.5-.2-.7 0-1.3.1-1.8.4-.4.3-.7.7-.7 1.2 0 .4.1.8.4 1.1.2.3.5.5.9.7.4.2.8.3 1.5.5s1.3.4 1.7.6c.4.2.8.5 1.1.9.3.4.5.9.5 1.6 0 .6-.2 1.1-.5 1.5-.3.4-.8.8-1.3 1-.6.2-1.2.3-2 .3-.7 0-1.5-.1-2.2-.4-.7-.3-1.3-.7-1.8-1.2l.5-.9c.5.5 1 .8 1.7 1.1.6.3 1.3.4 1.9.4.8 0 1.5-.2 1.9-.5.5-.3.7-.8.7-1.3 0-.4-.1-.8-.4-1.1-.2-.3-.5-.5-.9-.7-.4-.2-.9-.3-1.5-.5-.7-.2-1.3-.4-1.7-.6-.4-.2-.8-.5-1.1-.9-.3-.4-.5-.9-.5-1.5 0-.5.2-1 .5-1.4.3-.4.7-.7 1.3-.9.5-.2 1.2-.3 1.9-.3.6 0 1.2.1 1.7.3.6.2 1.1.4 1.6.7l-.5.7zm7.2 8.3c-.5.4-1.1.6-1.8.6-.6 0-1.1-.2-1.4-.6-.4-.4-.5-.9-.5-1.7v-4.7h-1.1v-.8h1.2v-2h1v2h2.6v.8H165v4.6c0 1 .4 1.5 1.1 1.5.4 0 .8-.1 1.3-.4l.3.7zm6.9.5v-1.3c-.3.5-.7.8-1.2 1-.5.2-1.1.3-1.8.3-.5 0-1-.1-1.4-.3-.4-.2-.7-.5-.9-.9-.2-.4-.3-.8-.3-1.2 0-.7.3-1.2.8-1.6.5-.4 1.3-.6 2.2-.6h2.7v-.6c0-.6-.2-1.1-.6-1.5-.4-.3-.9-.5-1.6-.5-.9 0-1.7.3-2.6 1l-.5-.7c.5-.4 1.1-.6 1.5-.8.5-.2 1-.3 1.7-.3 1 0 1.7.2 2.2.7.5.5.8 1.1.8 2v5.3h-1zm-2.9-.8c.7 0 1.3-.2 1.8-.5s.8-.8 1-1.4v-1.1H172c-.7 0-1.2.1-1.6.3-.4.2-.5.6-.5 1 0 .5.2.9.5 1.2.3.4.8.5 1.3.5zm7.6-5.3c.3-.6.6-1.1 1.1-1.4.5-.3 1.1-.5 1.8-.5v1c-.8 0-1.5.2-2 .7-.5.5-.8 1.2-.9 2v4.2h-1v-8h1v2zm8.6 5.6c-.5.4-1.1.6-1.8.6-.6 0-1.1-.2-1.4-.6-.4-.4-.5-.9-.5-1.7v-4.7H183v-.8h1.2v-2h1v2h2.6v.8h-2.6v4.6c0 1 .4 1.5 1.1 1.5.4 0 .8-.1 1.3-.4l.3.7zm-32.5 13c.3-.6.6-1.1 1.1-1.4.5-.3 1.1-.5 1.8-.5v1c-.8 0-1.5.2-2 .7-.5.5-.8 1.2-.9 2v4.2h-1v-8h1v2zm7.7-1.8c1.2 0 2.2.4 2.8 1.2.7.8 1 1.8.9 3.2h-6.7c.1.8.4 1.5.9 2.1.6.5 1.3.8 2.1.8.5 0 1-.1 1.4-.3.4-.2.8-.4 1.1-.8l.6.6c-.4.4-.9.7-1.4 1-.5.2-1.1.3-1.8.3-.8 0-1.5-.2-2.1-.5-.6-.3-1.1-.8-1.4-1.4-.3-.6-.5-1.3-.5-2.1s.2-1.5.5-2.1c.3-.6.8-1.1 1.4-1.4.8-.5 1.4-.6 2.2-.6zm2.8 3.5c-.1-.8-.3-1.5-.8-2s-1.2-.7-2-.7-1.5.2-2 .7c-.5.5-.8 1.2-.9 2h5.7zm7.2-3.5c1 0 1.7.3 2.2.8.5.5.8 1.3.8 2.3v4.9h-1V147c0-.7-.2-1.3-.6-1.8-.4-.4-1-.6-1.7-.6-.8 0-1.5.3-2 .8s-.8 1.2-.8 2v4.3h-1v-8h1v1.9c.3-.6.7-1.1 1.2-1.4.5-.4 1.2-.5 1.9-.5zm9.9 7.4c-.5.4-1.1.6-1.8.6-.6 0-1.1-.2-1.4-.6-.4-.4-.5-.9-.5-1.7v-4.7h-1.1v-.8h1.2v-2h1v2h2.6v.8h-2.6v4.6c0 1 .4 1.5 1.1 1.5.4 0 .8-.1 1.3-.4l.2.7zm6.8.5v-1.3c-.3.5-.7.8-1.2 1-.5.2-1.1.3-1.8.3-.5 0-1-.1-1.4-.3-.4-.2-.7-.5-.9-.9-.2-.4-.3-.8-.3-1.2 0-.7.3-1.2.8-1.6.5-.4 1.3-.6 2.2-.6h2.7v-.6c0-.6-.2-1.1-.6-1.5-.4-.3-.9-.5-1.6-.5-.9 0-1.7.3-2.6 1l-.5-.7c.5-.4 1.1-.6 1.5-.8.5-.2 1-.3 1.7-.3 1 0 1.7.2 2.2.7.5.5.8 1.1.8 2v5.3h-1zm-2.8-.8c.7 0 1.3-.2 1.8-.5s.8-.8 1-1.4v-1.1h-2.6c-.7 0-1.2.1-1.6.3-.4.2-.5.6-.5 1 0 .5.2.9.5 1.2.4.4.8.5 1.4.5zm6.7-10.4h1v11.3h-1v-11.3z"/>
            <path fill="#FFF" d="M167.3 215.5c1.1 0 2.1-.9 2.1-2.1 0-1.1-.9-2.1-2.1-2.1-1.1 0-2.1.9-2.1 2.1.1 1.2 1 2.1 2.1 2.1z"/>
            <path fill="#FFF" d="M24.9 444.2c0 1-.4 1.6-1.3 1.8l1.5 2.1h-1.2l-1.4-1.9h-1.3v1.9h-1v-5.8h2.2c.9 0 1.5.1 1.9.4.4.4.6.9.6 1.5zm-2.5 1.1c.6 0 .9-.1 1.1-.3.2-.2.3-.4.3-.8s-.1-.6-.3-.8c-.2-.1-.6-.2-1.1-.2h-1.2v2.1h1.2zm7.9 1.1h-3.5c0 .3.2.6.4.8.3.2.6.3.9.3.6 0 1-.2 1.3-.5l.5.6c-.5.5-1.1.7-1.9.7-.6 0-1.2-.2-1.6-.6-.4-.4-.6-1-.6-1.7s.2-1.2.7-1.7c.4-.4 1-.6 1.6-.6.6 0 1.1.2 1.5.5.4.4.6.9.6 1.5v.7zm-3.5-.8h2.5c0-.4-.1-.7-.3-.9-.2-.2-.5-.3-.9-.3-.3 0-.6.1-.9.3-.3.3-.4.6-.4.9zm6.9-1.9c.6 0 1.1.2 1.5.6.4.4.6 1 .6 1.6 0 .7-.2 1.2-.6 1.7-.4.4-.9.6-1.5.6s-1.1-.2-1.5-.7v2.3h-.9v-6h.9v.8c.4-.6.9-.9 1.5-.9zm-1.5 2.3c0 .4.1.8.4 1 .3.3.6.4.9.4s.7-.1 1-.4c.3-.3.4-.6.4-1s-.1-.8-.4-1.1c-.3-.3-.6-.4-1-.4s-.7.1-.9.4c-.3.3-.4.6-.4 1.1zm5.7 1c.3.3.6.4 1 .4s.7-.1 1-.4c.3-.3.4-.6.4-1s-.1-.8-.4-1c-.3-.3-.6-.4-1-.4s-.7.1-1 .4c-.3.3-.4.6-.4 1s.1.7.4 1zm2.7.6c-.4.4-1 .7-1.7.7s-1.2-.2-1.7-.7c-.4-.4-.7-1-.7-1.6 0-.6.2-1.2.7-1.6.4-.4 1-.7 1.7-.7s1.2.2 1.7.7c.4.4.7 1 .7 1.6-.1.6-.3 1.1-.7 1.6zm4-3c-.5 0-.8.1-1 .4-.2.3-.3.7-.3 1.2v1.9h-.9v-4.4h.9v.9c.1-.3.4-.5.6-.7.3-.2.5-.3.8-.3l-.1 1c.1 0 0 0 0 0zm2.2-.1v2.2c0 .2.1.4.2.5.1.1.3.2.5.2s.4-.1.6-.3l.4.7c-.3.3-.7.4-1.1.4-.4 0-.7-.1-1-.4-.3-.3-.4-.6-.4-1.1v-2.2h-.6v-.7h.6v-1.4h.9v1.4h1.2v.7h-1.3zm5.4 2.3c0 .4-.2.8-.5 1-.3.2-.7.4-1.2.4-.3 0-.7-.1-1-.2-.3-.1-.6-.3-.9-.5l.4-.7c.5.4 1 .6 1.5.6.2 0 .4 0 .5-.1.1-.1.2-.2.2-.4s-.3-.4-.9-.6h-.1c-.9-.2-1.4-.7-1.4-1.2 0-.4.2-.7.5-1 .3-.2.7-.4 1.2-.4s1 .1 1.4.4l-.3.7c-.4-.2-.8-.4-1.2-.4-.2 0-.4 0-.5.1-.1.1-.2.2-.2.4 0 .1.1.2.2.3.1 0 .2.1.4.1s.3.1.5.1c.1 0 .3.1.4.1.1.1.3.1.4.2.5.4.6.7.6 1.1z"/>
            <path fill="#FFF" d="M197.4 443.3v4.9h-1v-4.9h-1.8v-.9h4.5v.9h-1.7zm5.7 4.9h-.8v-.6c-.4.4-.9.7-1.5.7-.5 0-.8-.1-1.1-.4-.3-.3-.4-.6-.4-1s.2-.8.5-1c.3-.2.8-.3 1.3-.3h1.2v-.2c0-.6-.3-.9-1-.9-.4 0-.8.1-1.3.4l-.4-.6c.5-.4 1.1-.6 1.8-.6.5 0 .9.1 1.3.4.3.3.5.7.5 1.2v2.9zm-1-1.7v-.4h-1c-.7 0-1 .2-1 .6 0 .2.1.4.2.5.2.1.4.2.7.2.3 0 .6-.1.8-.2.2-.2.3-.4.3-.7zm3-2.8l.9 1.4 1-1.4h1.1l-1.5 2.2 1.6 2.3H207l-1.1-1.5-1 1.5h-1.1l1.6-2.2-1.5-2.2h1.2zm11 .5c0 1-.4 1.6-1.3 1.8l1.5 2.1h-1.2l-1.4-1.9h-1.3v1.9h-1v-5.8h2.2c.9 0 1.5.1 1.9.4s.6.9.6 1.5zm-2.5 1.1c.6 0 .9-.1 1.1-.3s.3-.4.3-.8-.1-.6-.3-.8c-.2-.1-.6-.2-1.1-.2h-1.2v2.1h1.2zm7.9 1.1H218c0 .3.2.6.4.8.3.2.6.3.9.3.6 0 1-.2 1.3-.5l.5.6c-.5.5-1.1.7-1.9.7-.6 0-1.2-.2-1.6-.6-.4-.4-.6-1-.6-1.7s.2-1.2.7-1.7c.4-.4 1-.6 1.6-.6.6 0 1.1.2 1.5.5.4.4.6.9.6 1.5v.7zm-3.5-.8h2.5c0-.4-.1-.7-.3-.9-.2-.2-.5-.3-.9-.3-.3 0-.6.1-.9.3-.3.3-.4.6-.4.9zm5.6-1.1v2.2c0 .2.1.4.2.5.1.1.3.2.5.2s.4-.1.6-.3l.4.7c-.3.3-.7.4-1.1.4-.4 0-.7-.1-1-.4-.3-.3-.4-.6-.4-1.1v-2.2h-.6v-.7h.6v-1.4h.9v1.4h1.2v.7h-1.3zm5.4 1.6v-2.4h.9v4.4h-.9v-.8c-.1.3-.4.5-.6.6-.3.2-.5.2-.8.2-.5 0-.9-.2-1.2-.5-.3-.3-.5-.7-.5-1.3v-2.7h.9v2.4c0 .8.3 1.2 1 1.2.3 0 .6-.1.8-.3.3 0 .4-.4.4-.8zm4.6-1.5c-.5 0-.8.1-1 .4-.2.3-.3.7-.3 1.2v1.9h-.9v-4.4h.9v.9c.1-.3.4-.5.6-.7.3-.2.5-.3.8-.3l-.1 1c.1 0 0 0 0 0zm1.9 1.2v2.4h-.9v-4.4h.9v.8c.1-.3.4-.5.6-.6.3-.2.6-.2.9-.2.5 0 .9.2 1.2.5.3.3.5.7.5 1.3v2.7h-.9v-2.4c0-.8-.3-1.2-1-1.2-.3 0-.6.1-.8.3-.3.1-.5.4-.5.8z"/>
            <g opacity=".8">
                <path fill="#FFF" d="M134.5 421.2c-1.3 0-2.2-1-2.2-2.2v-3.1c0-.5-.4-.9-.9-.9h-7.2c-2 0-3.6 1.6-3.6 3.6V431c0 2 1.6 3.6 3.6 3.6H135c2 0 3.6-1.6 3.6-3.6v-8.9c0-.5-.4-.9-.9-.9h-3.2zm-3.1 8H126c-.5 0-.9-.4-.9-.9s.4-.9.9-.9h5.4c.5 0 .9.4.9.9 0 .6-.4.9-.9.9zm1.8-3.6H126c-.5 0-.9-.4-.9-.9s.4-.9.9-.9h7.2c.5 0 .9.4.9.9 0 .6-.4.9-.9.9z"/>
            </g>
            <path fill="#FFF" d="M110.4 443.3v4.9h-1v-4.9h-1.8v-.9h4.5v.9h-1.7zm6.8 3.1h-3.5c0 .3.2.6.4.8.3.2.6.3.9.3.6 0 1-.2 1.3-.5l.5.6c-.5.5-1.1.7-1.9.7-.6 0-1.2-.2-1.6-.6-.4-.4-.6-1-.6-1.7s.2-1.2.7-1.7c.4-.4 1-.6 1.6-.6.6 0 1.1.2 1.5.5.4.4.6.9.6 1.5v.7zm-3.5-.8h2.5c0-.4-.1-.7-.3-.9-.2-.2-.5-.3-.9-.3-.3 0-.6.1-.9.3-.2.3-.4.6-.4.9zm5.5.2v2.4h-.9v-4.4h.9v.8c.1-.3.3-.5.6-.6.3-.2.6-.2.9-.2.7 0 1.2.3 1.4.9.4-.6 1-.9 1.6-.9.5 0 .9.2 1.2.5.3.3.5.7.5 1.3v2.7h-.9v-2.4c0-.8-.3-1.2-1-1.2-.3 0-.6.1-.8.3-.2.2-.4.5-.4.9v2.4h-.9v-2.4c0-.4-.1-.7-.2-.9-.1-.2-.4-.3-.7-.3-.3 0-.6.1-.8.3-.4.1-.5.4-.5.8zm9.8-2.1c.6 0 1.1.2 1.5.6.4.4.6 1 .6 1.6 0 .7-.2 1.2-.6 1.7-.4.4-.9.6-1.5.6s-1.1-.2-1.5-.7v2.3h-.9v-6h.9v.8c.5-.6.9-.9 1.5-.9zm-1.4 2.3c0 .4.1.8.4 1 .3.3.6.4.9.4s.7-.1 1-.4c.3-.3.4-.6.4-1s-.1-.8-.4-1.1c-.3-.3-.6-.4-1-.4s-.7.1-.9.4c-.3.3-.4.6-.4 1.1zm5.6 2.2h-.9V442h.9v6.2zm4.9 0h-.8v-.6c-.4.4-.9.7-1.5.7-.5 0-.8-.1-1.1-.4-.3-.3-.4-.6-.4-1s.2-.8.5-1c.3-.2.8-.3 1.3-.3h1.2v-.2c0-.6-.3-.9-1-.9-.4 0-.8.1-1.3.4l-.4-.6c.5-.4 1.1-.6 1.8-.6.5 0 .9.1 1.3.4.3.3.5.7.5 1.2v2.9zm-.9-1.7v-.4h-1c-.7 0-1 .2-1 .6 0 .2.1.4.2.5.2.1.4.2.7.2.3 0 .6-.1.8-.2.2-.2.3-.4.3-.7zm3.3-2v2.2c0 .2.1.4.2.5.1.1.3.2.5.2s.4-.1.6-.3l.4.7c-.3.3-.7.4-1.1.4-.4 0-.7-.1-1-.4-.3-.3-.4-.6-.4-1.1v-2.2h-.7v-.7h.6v-1.4h.9v1.4h1.2v.7h-1.2zm6.5 1.9h-3.5c0 .3.2.6.4.8.3.2.6.3.9.3.6 0 1-.2 1.3-.5l.5.6c-.5.5-1.1.7-1.9.7-.6 0-1.2-.2-1.6-.6-.4-.4-.6-1-.6-1.7s.2-1.2.7-1.7c.4-.4 1-.6 1.6-.6.6 0 1.1.2 1.5.5.4.4.6.9.6 1.5v.7zm-3.5-.8h2.5c0-.4-.1-.7-.3-.9-.2-.2-.5-.3-.9-.3-.3 0-.6.1-.9.3-.3.3-.4.6-.4.9zm7.6 1.2c0 .4-.2.8-.5 1-.3.2-.7.4-1.2.4-.3 0-.7-.1-1-.2-.3-.1-.6-.3-.9-.5l.4-.7c.5.4 1 .6 1.5.6.2 0 .4 0 .5-.1.1-.1.2-.2.2-.4s-.3-.4-.9-.6h-.1c-.9-.2-1.4-.7-1.4-1.2 0-.4.2-.7.5-1 .3-.2.7-.4 1.2-.4s1 .1 1.4.4l-.3.7c-.4-.2-.8-.4-1.2-.4-.2 0-.4 0-.5.1-.1.1-.2.2-.2.4 0 .1.1.2.2.3.1 0 .2.1.4.1s.3.1.5.1c.1 0 .3.1.4.1.1.1.3.1.4.2.5.4.6.7.6 1.1z"/>
            <g opacity=".8" fill="#FFF">
                <path d="M13.6 28.3h13.1c.6 0 1.1.5 1.1 1.1 0 .6-.5 1.1-1.1 1.1H13.6c-.6 0-1.1-.5-1.1-1.1 0-.6.5-1.1 1.1-1.1z"/>
                <path d="M13.6 33.7h13.1c.6 0 1.1.5 1.1 1.1 0 .6-.5 1.1-1.1 1.1H13.6c-.6 0-1.1-.5-1.1-1.1 0-.6.5-1.1 1.1-1.1z"/>
                <path d="M13.6 39.2h13.1c.6 0 1.1.5 1.1 1.1 0 .6-.5 1.1-1.1 1.1H13.6c-.6 0-1.1-.5-1.1-1.1 0-.6.5-1.1 1.1-1.1z"/>
            </g>
            <path fill="#FFF" d="M114.7 41.4h-1.6l-3.5-8.7h1.6l2.7 6.5 2.7-6.5h1.6l-3.5 8.7zm10.8-2.7h-5.2c0 .5.3.9.7 1.2.4.3.9.4 1.4.4.8 0 1.5-.3 1.9-.8l.8.9c-.7.7-1.6 1.1-2.8 1.1-.9 0-1.7-.3-2.4-.9-.6-.6-1-1.4-1-2.5 0-1 .3-1.9 1-2.5.7-.6 1.4-.9 2.3-.9.9 0 1.7.3 2.3.8.6.5.9 1.3.9 2.2v1zm-5.2-1.1h3.8c0-.6-.2-1-.5-1.3-.3-.3-.8-.4-1.3-.4s-1 .2-1.4.5c-.4.2-.6.7-.6 1.2zm11.4 1.8c0 .6-.2 1.1-.7 1.5-.5.4-1 .6-1.8.6-.5 0-1-.1-1.5-.3-.5-.2-1-.4-1.4-.7l.7-1.1c.8.6 1.5.9 2.2.9.3 0 .6-.1.7-.2.2-.1.3-.3.3-.6s-.4-.6-1.3-.9h-.1c-1.4-.4-2.1-1-2.1-1.9 0-.6.2-1.1.7-1.5.5-.4 1.1-.6 1.9-.6s1.5.2 2.2.7l-.5 1c-.5-.4-1.1-.5-1.8-.5-.3 0-.6.1-.8.2-.2.1-.3.3-.3.5s.1.4.3.5c.1.1.4.1.6.2.3.1.5.1.7.2s.4.1.6.2l.6.3c.6.4.8.9.8 1.5zm3.3-3.5v3.4c0 .3.1.6.2.8.2.2.4.3.7.3.3 0 .6-.1.9-.4l.6 1c-.5.4-1 .7-1.6.7-.6 0-1.1-.2-1.5-.6-.4-.4-.6-1-.6-1.7v-3.3h-.8V35h.8v-2.1h1.4V35h1.7v1.1H135zm8.9 5.5h-1.3v-.9c-.5.7-1.3 1-2.2 1-.7 0-1.3-.2-1.7-.6-.4-.4-.7-.9-.7-1.6 0-.7.2-1.1.7-1.5.5-.3 1.1-.5 2-.5h1.8v-.2c0-.9-.5-1.3-1.5-1.3-.6 0-1.3.2-1.9.7l-.6-.9c.8-.6 1.7-1 2.7-1 .8 0 1.4.2 1.9.6.5.4.7 1 .7 1.8v4.4zm-1.4-2.5v-.6h-1.6c-1 0-1.5.3-1.5.9 0 .3.1.6.4.7.2.2.6.2 1 .2s.8-.1 1.2-.4c.4 0 .5-.4.5-.8z"/>
            <g opacity=".8" fill="#FFF">
                <path d="M13.6 28.3h13.1c.6 0 1.1.5 1.1 1.1 0 .6-.5 1.1-1.1 1.1H13.6c-.6 0-1.1-.5-1.1-1.1 0-.6.5-1.1 1.1-1.1z"/>
                <path d="M13.6 33.7h13.1c.6 0 1.1.5 1.1 1.1 0 .6-.5 1.1-1.1 1.1H13.6c-.6 0-1.1-.5-1.1-1.1 0-.6.5-1.1 1.1-1.1z"/>
                <path d="M13.6 39.2h13.1c.6 0 1.1.5 1.1 1.1 0 .6-.5 1.1-1.1 1.1H13.6c-.6 0-1.1-.5-1.1-1.1 0-.6.5-1.1 1.1-1.1z"/>
            </g>
            <path fill="#F2F2F2" d="M251.4 34.2l-5.2-6.2c-.1-.1-.1-.1-.2-.1h-10.4c-.1 0-.2 0-.2.1l-5.2 6.2c0 .1-.1.1-.1.2v7c0 .2.1.3.3.3h20.9c.2 0 .3-.1.3-.3v-7c-.2-.1-.2-.2-.2-.2zm-15.8-5.7h10.2l4.7 5.6h-4.6c-.2 0-.3.1-.3.3 0 .8-.6 1.4-1.4 1.4h-7c-.8 0-1.4-.6-1.4-1.4 0-.2-.1-.3-.3-.3h-4.6l4.7-5.6zm-5 12.6v-6.4h4.6c.1 1 1 1.7 2 1.7h7c1 0 1.9-.8 2-1.7h4.6v6.4h-20.2z"/>
            <linearGradient id="f" gradientUnits="userSpaceOnUse" x1="240.698" y1="425.148" x2="240.698" y2="412.734" gradientTransform="matrix(1 0 0 -1 0 462)">
                <stop offset="0" stop-color="#ffdf3a"/>
                <stop offset="1" stop-color="#ffd84e"/>
            </linearGradient>
            <ellipse fill="url(#f)" cx="240.7" cy="43.1" rx="6.2" ry="6.2"/>
            <path fill="#FFF" d="M240.2 43.6c.4-.4.7-.7.8-.9.2-.2.2-.5.2-.7s-.1-.4-.3-.6c-.2-.2-.4-.2-.7-.2-.5 0-.9.2-1.2.7l-.8-.5c.3-.4.5-.7.8-.9.3-.2.7-.3 1.2-.3s.9.2 1.3.5.5.7.5 1.2c0 .3-.1.6-.2.9s-.4.6-.9 1l-1.4 1.4h2.6v.9h-4v-.8l2.1-1.7z"/>
            <linearGradient id="g" gradientUnits="userSpaceOnUse" x1="103.711" y1="267.298" x2="103.711" y2="262.971" gradientTransform="matrix(1 0 0 -1 0 462)">
                <stop offset="0" stop-color="#49ff95"/>
                <stop offset="1" stop-color="#00cf6c"/>
            </linearGradient>
            <ellipse fill="url(#g)" cx="103.7" cy="196.9" rx="2.2" ry="2.2"/>
            <linearGradient id="h" gradientUnits="userSpaceOnUse" x1="219.434" y1="266.125" x2="219.434" y2="261.798" gradientTransform="matrix(1 0 0 -1 0 462)">
                <stop offset="0" stop-color="#49ff95"/>
                <stop offset="1" stop-color="#00cf6c"/>
            </linearGradient>
            <ellipse fill="url(#h)" cx="219.4" cy="198" rx="2.2" ry="2.2"/>
            <ellipse fill="#2572BC" cx="103.7" cy="84.6" rx="2.2" ry="2.2"/>
            <ellipse fill="#2572BC" cx="219.4" cy="84.6" rx="2.2" ry="2.2"/>
        </g>
    </g>
</svg>
